<svg width="1984" height="885" viewBox="0 0 1984 885" version="1.1" xmlns="http://www.w3.org/2000/svg" xmlns:xlink="http://www.w3.org/1999/xlink" xmlns:figma="http://www.figma.com/figma/ns">
<title>BTB Way</title>
<desc>Created using Figma</desc>
<g id="Canvas" transform="translate(1263 280)" figma:type="canvas">
<g id="Way" style="mix-blend-mode:normal;" figma:type="frame">
<g id="Page-1" style="mix-blend-mode:normal;" figma:type="frame">
<g id="Way" style="mix-blend-mode:normal;" figma:type="frame">
<g id="Rectangle-8" style="mix-blend-mode:normal;" figma:type="vector">
<use xlink:href="#path0_stroke" transform="translate(-1076.84 -275)" fill="#979797" style="mix-blend-mode:normal;"/>
</g>
<g id="Line" style="mix-blend-mode:normal;" figma:type="vector">
<use xlink:href="#path1_stroke" transform="translate(-1026 -28)" fill="#979797" style="mix-blend-mode:normal;"/>
</g>
<g id="Line" style="mix-blend-mode:normal;" figma:type="vector">
<use xlink:href="#path2_stroke" transform="matrix(1 0 0 -1 -1008 388.5)" fill="#979797" style="mix-blend-mode:normal;"/>
</g>
<g id="Line" style="mix-blend-mode:normal;" figma:type="vector">
<use xlink:href="#path3_stroke" transform="matrix(1 -2.44929e-16 2.44929e-16 1 -470.239 128.5)" fill="#979797" style="mix-blend-mode:normal;"/>
</g>
<g id="Line" style="mix-blend-mode:normal;" figma:type="vector">
<use xlink:href="#path4_stroke" transform="translate(-351.852 96.5)" fill="#979797" style="mix-blend-mode:normal;"/>
</g>
<g id="Line" style="mix-blend-mode:normal;" figma:type="vector">
<use xlink:href="#path5_stroke" transform="translate(-180.853 336.5)" fill="#979797" style="mix-blend-mode:normal;"/>
</g>
<g id="Line-decoration-1" style="mix-blend-mode:normal;" figma:type="vector">
<use xlink:href="#path6_stroke" transform="translate(-183.853 538.039)" fill="#979797" style="mix-blend-mode:normal;"/>
</g>
<g id="Line-Copy-16" style="mix-blend-mode:normal;" figma:type="vector">
<use xlink:href="#path5_stroke" transform="translate(507.147 336.5)" fill="#979797" style="mix-blend-mode:normal;"/>
</g>
<g id="Line-Copy-16-decoration-1" style="mix-blend-mode:normal;" figma:type="vector">
<use xlink:href="#path6_stroke" transform="translate(504.147 538.039)" fill="#979797" style="mix-blend-mode:normal;"/>
</g>
<g id="Line" style="mix-blend-mode:normal;" figma:type="vector">
<use xlink:href="#path7_stroke" transform="translate(-1183.92 -28.0474)" fill="#979797" style="mix-blend-mode:normal;"/>
</g>
<g id="Line" style="mix-blend-mode:normal;" figma:type="vector">
<use xlink:href="#path8_stroke" transform="matrix(1 0 0 -1 -1181.86 387.047)" fill="#979797" style="mix-blend-mode:normal;"/>
</g>
<g id="Line" style="mix-blend-mode:normal;" figma:type="vector">
<use xlink:href="#path9_stroke" transform="matrix(1 -2.44929e-16 2.44929e-16 1 -926.852 139)" fill="#979797" style="mix-blend-mode:normal;"/>
</g>
<g id="Line" style="mix-blend-mode:normal;" figma:type="vector">
<use xlink:href="#path10_stroke" transform="translate(-1175.59 -175.182)" fill="#979797" style="mix-blend-mode:normal;"/>
</g>
<g id="in" style="mix-blend-mode:normal;" figma:type="text">
<use xlink:href="#path11_fill" transform="translate(-711.752 84)" style="mix-blend-mode:normal;"/>
</g>
<g id="Windex" style="mix-blend-mode:normal;" figma:type="text">
<use xlink:href="#path12_fill" transform="translate(-712.5 45)" style="mix-blend-mode:normal;"/>
</g>
<g id="we" style="mix-blend-mode:normal;" figma:type="text">
<use xlink:href="#path13_fill" transform="translate(-714.31 128)" style="mix-blend-mode:normal;"/>
</g>
<g id="Rectangle-9" style="mix-blend-mode:normal;" figma:type="vector">
<use xlink:href="#path14_stroke" transform="translate(375.155 28.4248)" fill="#979797" style="mix-blend-mode:normal;"/>
</g>
<g id="Rectangle-9-Copy-2" style="mix-blend-mode:normal;" figma:type="vector">
<use xlink:href="#path15_stroke" transform="translate(-295.239 28.4248)" fill="#979797" style="mix-blend-mode:normal;"/>
</g>
<g id="Rectangle-9-Copy-3" style="mix-blend-mode:normal;" figma:type="vector">
<use xlink:href="#path16_stroke" transform="translate(-723.634 28.4248)" fill="#979797" style="mix-blend-mode:normal;"/>
</g>
<g id="Line" style="mix-blend-mode:normal;" figma:type="vector">
<use xlink:href="#path17_stroke" transform="translate(-1177.45 -238.197)" fill="#979797" style="mix-blend-mode:normal;"/>
</g>
<g id="Line" style="mix-blend-mode:normal;" figma:type="vector">
<use xlink:href="#path18_stroke" transform="translate(-25.8525 3.5)" fill="#979797" style="mix-blend-mode:normal;"/>
</g>
<g id="Line" style="mix-blend-mode:normal;" figma:type="vector">
<use xlink:href="#path19_stroke" transform="translate(-93.8525 -25.5)" fill="#979797" style="mix-blend-mode:normal;"/>
</g>
<g id="Line" style="mix-blend-mode:normal;" figma:type="vector">
<use xlink:href="#path20_stroke" transform="translate(-601.852 338.5)" fill="#979797" style="mix-blend-mode:normal;"/>
</g>
<g id="Line-decoration-1" style="mix-blend-mode:normal;" figma:type="vector">
<use xlink:href="#path21_stroke" transform="translate(-604.852 541.758)" fill="#979797" style="mix-blend-mode:normal;"/>
</g>
<g id="Line" style="mix-blend-mode:normal;" figma:type="vector">
<use xlink:href="#path22_stroke" transform="translate(-691.704 342.284)" fill="#979797" style="mix-blend-mode:normal;"/>
</g>
<g id="Line-decoration-1" style="mix-blend-mode:normal;" figma:type="vector">
<use xlink:href="#path23_stroke" transform="translate(-695.098 545.929)" fill="#979797" style="mix-blend-mode:normal;"/>
</g>
<g id="Wout" style="mix-blend-mode:normal;" figma:type="text">
<use xlink:href="#path24_fill" transform="translate(-618.178 303)" style="mix-blend-mode:normal;"/>
</g>
<g id="Wout" style="mix-blend-mode:normal;" figma:type="text">
<use xlink:href="#path24_fill" transform="translate(-196.178 303)" style="mix-blend-mode:normal;"/>
</g>
<g id="Rout" style="mix-blend-mode:normal;" figma:type="text">
<use xlink:href="#path25_fill" transform="translate(-275.451 303)" style="mix-blend-mode:normal;"/>
</g>
<g id="Text" style="mix-blend-mode:normal;" figma:type="text">
<use xlink:href="#path26_fill" transform="translate(491.822 303)" style="mix-blend-mode:normal;"/>
</g>
<g id="in" style="mix-blend-mode:normal;" figma:type="text">
<use xlink:href="#path11_fill" transform="translate(-278.951 83)" style="mix-blend-mode:normal;"/>
</g>
<g id="Line" style="mix-blend-mode:normal;" figma:type="vector">
<use xlink:href="#path27_stroke" transform="translate(-536.852 -27.5)" fill="#979797" style="mix-blend-mode:normal;"/>
</g>
<g id="Line" style="mix-blend-mode:normal;" figma:type="vector">
<use xlink:href="#path28_stroke" transform="translate(-347.852 4.5)" fill="#979797" style="mix-blend-mode:normal;"/>
</g>
<g id="Text" style="mix-blend-mode:normal;" figma:type="text">
<use xlink:href="#path11_fill" transform="translate(399.049 81)" style="mix-blend-mode:normal;"/>
</g>
<g id="we" style="mix-blend-mode:normal;" figma:type="text">
<use xlink:href="#path13_fill" transform="translate(-280.951 115)" style="mix-blend-mode:normal;"/>
</g>
<g id="we" style="mix-blend-mode:normal;" figma:type="text">
<use xlink:href="#path13_fill" transform="translate(402.819 116)" style="mix-blend-mode:normal;"/>
</g>
<g id="1" style="mix-blend-mode:normal;" figma:type="text">
<use xlink:href="#path29_fill" transform="translate(-375.182 81)" style="mix-blend-mode:normal;"/>
</g>
<g id="Line" style="mix-blend-mode:normal;" figma:type="vector">
<use xlink:href="#path30_stroke" transform="translate(-1184.46 3.73865)" fill="#979797" style="mix-blend-mode:normal;"/>
</g>
<g id="Line" style="mix-blend-mode:normal;" figma:type="vector">
<use xlink:href="#path31_stroke" transform="translate(-349.852 3.5)" fill="#979797" style="mix-blend-mode:normal;"/>
</g>
<g id="Windex" style="mix-blend-mode:normal;" figma:type="text">
<use xlink:href="#path12_fill" transform="translate(-1256 -11)" style="mix-blend-mode:normal;"/>
</g>
<g id="we" style="mix-blend-mode:normal;" figma:type="text">
<use xlink:href="#path13_fill" transform="translate(-1231.18 -43)" style="mix-blend-mode:normal;"/>
</g>
<g id="tag" style="mix-blend-mode:normal;" figma:type="text">
<use xlink:href="#path32_fill" transform="translate(-1229.04 -190)" style="mix-blend-mode:normal;"/>
</g>
<g id="in" style="mix-blend-mode:normal;" figma:type="text">
<use xlink:href="#path11_fill" transform="translate(-1216.95 -253)" style="mix-blend-mode:normal;"/>
</g>
<g id="Windex" style="mix-blend-mode:normal;" figma:type="text">
<use xlink:href="#path12_fill" transform="translate(-279 45)" style="mix-blend-mode:normal;"/>
</g>
<g id="Windex" style="mix-blend-mode:normal;" figma:type="text">
<use xlink:href="#path12_fill" transform="translate(399 47)" style="mix-blend-mode:normal;"/>
</g>
<g id="TAGS" style="mix-blend-mode:normal;" figma:type="text">
<use xlink:href="#path33_fill" transform="translate(-686.177 157)" style="mix-blend-mode:normal;"/>
</g>
<g id="VALID" style="mix-blend-mode:normal;" figma:type="text">
<use xlink:href="#path34_fill" transform="translate(-267.036 157)" style="mix-blend-mode:normal;"/>
</g>
<g id="DATA" style="mix-blend-mode:normal;" figma:type="text">
<use xlink:href="#path35_fill" transform="translate(407.357 151)" style="mix-blend-mode:normal;"/>
</g>
<g id="Oval-7" style="mix-blend-mode:normal;" figma:type="vector">
<use xlink:href="#path36_fill" transform="translate(-1020.98 -39.0474)" style="mix-blend-mode:normal;"/>
</g>
<g id="Oval-7-Copy-2" style="mix-blend-mode:normal;" figma:type="vector">
<use xlink:href="#path36_fill" transform="translate(-547.352 -36)" style="mix-blend-mode:normal;"/>
</g>
<g id="Wtag" style="mix-blend-mode:normal;" figma:type="text">
<use xlink:href="#path37_fill" transform="translate(-628.583 564)" style="mix-blend-mode:normal;"/>
</g>
<g id="Rtag" style="mix-blend-mode:normal;" figma:type="text">
<use xlink:href="#path38_fill" transform="translate(-717.704 564)" style="mix-blend-mode:normal;"/>
</g>
<g id="Wvalid" style="mix-blend-mode:normal;" figma:type="text">
<use xlink:href="#path39_fill" transform="translate(-213 567.573)" style="mix-blend-mode:normal;"/>
</g>
<g id="Rvalid" style="mix-blend-mode:normal;" figma:type="text">
<use xlink:href="#path40_fill" transform="translate(-332.451 564)" style="mix-blend-mode:normal;"/>
</g>
<g id="out" style="mix-blend-mode:normal;" figma:type="text">
<use xlink:href="#path41_fill" transform="translate(481.662 564)" style="mix-blend-mode:normal;"/>
</g>
</g>
</g>
</g>
<g id="Oval-7" style="mix-blend-mode:normal;" figma:type="vector">
<use xlink:href="#path36_fill" transform="translate(-809 -7.5)" style="mix-blend-mode:normal;"/>
</g>
<g id="Line 2" style="mix-blend-mode:normal;" figma:type="line">
<use xlink:href="#path42_stroke" transform="matrix(6.12323e-17 1 -1 6.12323e-17 -798 1)" fill="#979797" style="mix-blend-mode:normal;"/>
</g>
<g id="Line 3" style="mix-blend-mode:normal;" figma:type="line">
<use xlink:href="#path43_stroke" transform="translate(-798 61.7263)" fill="#979797" style="mix-blend-mode:normal;"/>
</g>
<g id="Oval-7" style="mix-blend-mode:normal;" figma:type="vector">
<use xlink:href="#path36_fill" transform="translate(-357.353 -7.5)" style="mix-blend-mode:normal;"/>
</g>
<g id="Rout" style="mix-blend-mode:normal;" figma:type="text">
<use xlink:href="#path25_fill" transform="translate(-704.015 303)" style="mix-blend-mode:normal;"/>
</g>
<g id="Line" style="mix-blend-mode:normal;" figma:type="vector">
<use xlink:href="#path20_stroke" transform="translate(-254.951 334.781)" fill="#979797" style="mix-blend-mode:normal;"/>
</g>
<g id="Line-decoration-1" style="mix-blend-mode:normal;" figma:type="vector">
<use xlink:href="#path21_stroke" transform="translate(-257.951 538.039)" fill="#979797" style="mix-blend-mode:normal;"/>
</g>
<g id="RIndex" style="mix-blend-mode:normal;" figma:type="text">
<use xlink:href="#path44_fill" transform="translate(-718.204 210)" style="mix-blend-mode:normal;"/>
</g>
<g id="RIndex" style="mix-blend-mode:normal;" figma:type="text">
<use xlink:href="#path44_fill" transform="translate(-288 210)" style="mix-blend-mode:normal;"/>
</g>
<g id="RIndex" style="mix-blend-mode:normal;" figma:type="text">
<use xlink:href="#path44_fill" transform="translate(390 210)" style="mix-blend-mode:normal;"/>
</g>
<g id="Line" style="mix-blend-mode:normal;" figma:type="vector">
<use xlink:href="#path45_stroke" transform="matrix(1 0 0 -1 -373.845 387.047)" fill="#979797" style="mix-blend-mode:normal;"/>
</g>
<g id="RIndex" style="mix-blend-mode:normal;" figma:type="text">
<use xlink:href="#path44_fill" transform="translate(-1264 372)" style="mix-blend-mode:normal;"/>
</g>
</g>
<defs>
<path id="path0_stroke" d="M 1.2207e-06 0L 1.2207e-06 -5L -5 -5L -5 0L 1.2207e-06 0ZM 1792.48 0L 1797.48 0L 1797.48 -5L 1792.48 -5L 1792.48 0ZM 1792.48 794.306L 1792.48 799.306L 1797.48 799.306L 1797.48 794.306L 1792.48 794.306ZM 1.2207e-06 794.306L -5 794.306L -5 799.306L 1.2207e-06 799.306L 1.2207e-06 794.306ZM 1.2207e-06 5L 1792.48 5L 1792.48 -5L 1.2207e-06 -5L 1.2207e-06 5ZM 1787.48 0L 1787.48 794.306L 1797.48 794.306L 1797.48 0L 1787.48 0ZM 1792.48 789.306L 1.2207e-06 789.306L 1.2207e-06 799.306L 1792.48 799.306L 1792.48 789.306ZM 5 794.306L 5 0L -5 0L -5 794.306L 5 794.306Z"/>
<path id="path1_stroke" d="M 576 160L 578.5 160L 578.5 155L 576 155L 576 160ZM 502.901 157.5L 500.401 157.5L 500.401 160L 502.901 160L 502.901 157.5ZM 502.901 0L 505.401 0L 505.401 -2.5L 502.901 -2.5L 502.901 0ZM 0 -2.5L -2.5 -2.5L -2.5 2.5L 0 2.5L 0 -2.5ZM 576 155L 502.901 155L 502.901 160L 576 160L 576 155ZM 505.401 157.5L 505.401 0L 500.401 0L 500.401 157.5L 505.401 157.5ZM 502.901 -2.5L 0 -2.5L 0 2.5L 502.901 2.5L 502.901 -2.5Z"/>
<path id="path2_stroke" d="M 710 169.5L 712.5 169.5L 712.5 164.5L 710 164.5L 710 169.5ZM 634.401 167L 631.901 167L 631.901 169.5L 634.401 169.5L 634.401 167ZM 634.401 0L 636.901 0L 636.901 -2.5L 634.401 -2.5L 634.401 0ZM 0 -2.5L -2.5 -2.5L -2.5 2.5L 0 2.5L 0 -2.5ZM 710 164.5L 634.401 164.5L 634.401 169.5L 710 169.5L 710 164.5ZM 636.901 167L 636.901 0L 631.901 0L 631.901 167L 636.901 167ZM 634.401 -2.5L 0 -2.5L 0 2.5L 634.401 2.5L 634.401 -2.5Z"/>
<path id="path3_stroke" d="M 0 -2.5L -2.5 -2.5L -2.5 2.5L 0 2.5L 0 -2.5ZM 175 2.5L 177.5 2.5L 177.5 -2.5L 175 -2.5L 175 2.5ZM 0 2.5L 175 2.5L 175 -2.5L 0 -2.5L 0 2.5Z"/>
<path id="path4_stroke" d="M 0 -2.5L -2.5 -2.5L -2.5 2.5L 0 2.5L 0 -2.5ZM 59.1354 2.5L 61.6354 2.5L 61.6354 -2.5L 59.1354 -2.5L 59.1354 2.5ZM 0 2.5L 59.1354 2.5L 59.1354 -2.5L 0 -2.5L 0 2.5Z"/>
<path id="path5_stroke" d="M 2.5 0L 2.5 -2.5L -2.5 -2.5L -2.5 0L 2.5 0ZM -2.5 212.339L -2.5 214.839L 2.5 214.839L 2.5 212.339L -2.5 212.339ZM -2.5 0L -2.5 212.339L 2.5 212.339L 2.5 0L -2.5 0Z"/>
<path id="path6_stroke" d="M 2.40879 -0.669094L 1.73968 -3.07789L -3.0779 -1.73967L -2.40879 0.669127L 2.40879 -0.669094ZM 3 10.8L 0.591205 11.4691L 3 20.1408L 5.40879 11.4691L 3 10.8ZM 8.40879 0.669127L 9.0779 -1.73967L 4.26032 -3.07789L 3.59121 -0.669094L 8.40879 0.669127ZM -2.40879 0.669127L 0.591205 11.4691L 5.40879 10.1309L 2.40879 -0.669094L -2.40879 0.669127ZM 5.40879 11.4691L 8.40879 0.669127L 3.59121 -0.669094L 0.591205 10.1309L 5.40879 11.4691Z"/>
<path id="path7_stroke" d="M 257.07 170.547L 259.57 170.547L 259.57 165.547L 257.07 165.547L 257.07 170.547ZM 173.017 168.047L 170.517 168.047L 170.517 170.547L 173.017 170.547L 173.017 168.047ZM 173.017 0L 175.517 0L 175.517 -2.5L 173.017 -2.5L 173.017 0ZM 0 -2.5L -2.5 -2.5L -2.5 2.5L 0 2.5L 0 -2.5ZM 257.07 165.547L 173.017 165.547L 173.017 170.547L 257.07 170.547L 257.07 165.547ZM 175.517 168.047L 175.517 0L 170.517 0L 170.517 168.047L 175.517 168.047ZM 173.017 -2.5L 0 -2.5L 0 2.5L 173.017 2.5L 173.017 -2.5Z"/>
<path id="path8_stroke" d="M 457.362 170.547L 459.862 170.547L 459.862 165.547L 457.362 165.547L 457.362 170.547ZM 173.017 168.047L 170.517 168.047L 170.517 170.547L 173.017 170.547L 173.017 168.047ZM 173.017 0L 175.517 0L 175.517 -2.5L 173.017 -2.5L 173.017 0ZM 0 -2.5L -2.5 -2.5L -2.5 2.5L 0 2.5L 0 -2.5ZM 457.362 165.547L 173.017 165.547L 173.017 170.547L 457.362 170.547L 457.362 165.547ZM 175.517 168.047L 175.517 0L 170.517 0L 170.517 168.047L 175.517 168.047ZM 173.017 -2.5L 0 -2.5L 0 2.5L 173.017 2.5L 173.017 -2.5Z"/>
<path id="path9_stroke" d="M 205 2.5L 207.5 2.5L 207.5 -2.5L 205 -2.5L 205 2.5ZM -1.33229e-05 -2.5L -2.50001 -2.5L -2.50001 2.5L -1.33229e-05 2.5L -1.33229e-05 -2.5ZM 205 -2.5L -1.33229e-05 -2.5L -1.33229e-05 2.5L 205 2.5L 205 -2.5Z"/>
<path id="path10_stroke" d="M -2.10088e-06 -2.5L -2.5 -2.5L -2.5 2.5L -2.10088e-06 2.5L -2.10088e-06 -2.5ZM 333.88 3.32344e-06L 336.38 3.32344e-06L 336.38 -2.5L 333.88 -2.5L 333.88 3.32344e-06ZM 333.88 274.163L 331.38 274.163L 331.38 276.663L 333.88 276.663L 333.88 274.163ZM 451.869 276.663L 454.369 276.663L 454.369 271.663L 451.869 271.663L 451.869 276.663ZM -2.10088e-06 2.5L 333.88 2.5L 333.88 -2.5L -2.10088e-06 -2.5L -2.10088e-06 2.5ZM 331.38 3.32344e-06L 331.38 274.163L 336.38 274.163L 336.38 3.32344e-06L 331.38 3.32344e-06ZM 333.88 276.663L 451.869 276.663L 451.869 271.663L 333.88 271.663L 333.88 276.663Z"/>
<path id="path11_fill" d="M 3.33008 18.5547L 1.52344 18.5547L 1.52344 7.98828L 3.33008 7.98828L 3.33008 18.5547ZM 1.37695 5.18555C 1.37695 4.89258 1.46484 4.64518 1.64062 4.44336C 1.82292 4.24154 2.08984 4.14062 2.44141 4.14062C 2.79297 4.14062 3.0599 4.24154 3.24219 4.44336C 3.42448 4.64518 3.51562 4.89258 3.51562 5.18555C 3.51562 5.47852 3.42448 5.72266 3.24219 5.91797C 3.0599 6.11328 2.79297 6.21094 2.44141 6.21094C 2.08984 6.21094 1.82292 6.11328 1.64062 5.91797C 1.46484 5.72266 1.37695 5.47852 1.37695 5.18555ZM 7.93945 7.98828L 7.99805 9.31641C 8.80534 8.30078 9.86003 7.79297 11.1621 7.79297C 13.3952 7.79297 14.5215 9.05273 14.541 11.5723L 14.541 18.5547L 12.7344 18.5547L 12.7344 11.5625C 12.7279 10.8008 12.5521 10.2376 12.207 9.87305C 11.8685 9.50846 11.3379 9.32617 10.6152 9.32617C 10.0293 9.32617 9.51497 9.48242 9.07227 9.79492C 8.62956 10.1074 8.28451 10.5176 8.03711 11.0254L 8.03711 18.5547L 6.23047 18.5547L 6.23047 7.98828L 7.93945 7.98828Z"/>
<path id="path12_fill" d="M 4.7168 14.0723L 4.99023 15.9473L 5.39062 14.2578L 8.20312 4.33594L 9.78516 4.33594L 12.5293 14.2578L 12.9199 15.9766L 13.2227 14.0625L 15.4297 4.33594L 17.3145 4.33594L 13.8672 18.5547L 12.1582 18.5547L 9.22852 8.19336L 9.00391 7.10938L 8.7793 8.19336L 5.74219 18.5547L 4.0332 18.5547L 0.595703 4.33594L 2.4707 4.33594L 4.7168 14.0723ZM 21.084 18.5547L 19.2773 18.5547L 19.2773 7.98828L 21.084 7.98828L 21.084 18.5547ZM 19.1309 5.18555C 19.1309 4.89258 19.2188 4.64518 19.3945 4.44336C 19.5768 4.24154 19.8438 4.14062 20.1953 4.14062C 20.5469 4.14062 20.8138 4.24154 20.9961 4.44336C 21.1784 4.64518 21.2695 4.89258 21.2695 5.18555C 21.2695 5.47852 21.1784 5.72266 20.9961 5.91797C 20.8138 6.11328 20.5469 6.21094 20.1953 6.21094C 19.8438 6.21094 19.5768 6.11328 19.3945 5.91797C 19.2188 5.72266 19.1309 5.47852 19.1309 5.18555ZM 25.6934 7.98828L 25.752 9.31641C 26.5592 8.30078 27.6139 7.79297 28.916 7.79297C 31.1491 7.79297 32.2754 9.05273 32.2949 11.5723L 32.2949 18.5547L 30.4883 18.5547L 30.4883 11.5625C 30.4818 10.8008 30.306 10.2376 29.9609 9.87305C 29.6224 9.50846 29.0918 9.32617 28.3691 9.32617C 27.7832 9.32617 27.2689 9.48242 26.8262 9.79492C 26.3835 10.1074 26.0384 10.5176 25.791 11.0254L 25.791 18.5547L 23.9844 18.5547L 23.9844 7.98828L 25.6934 7.98828ZM 34.5801 13.1836C 34.5801 11.5625 34.9642 10.2604 35.7324 9.27734C 36.5007 8.28776 37.5065 7.79297 38.75 7.79297C 39.987 7.79297 40.9668 8.21615 41.6895 9.0625L 41.6895 3.55469L 43.4961 3.55469L 43.4961 18.5547L 41.8359 18.5547L 41.748 17.4219C 41.0254 18.3073 40.0195 18.75 38.7305 18.75C 37.5065 18.75 36.5072 18.2487 35.7324 17.2461C 34.9642 16.2435 34.5801 14.9349 34.5801 13.3203L 34.5801 13.1836ZM 36.3867 13.3887C 36.3867 14.5866 36.6341 15.5241 37.1289 16.2012C 37.6237 16.8783 38.3073 17.2168 39.1797 17.2168C 40.3255 17.2168 41.1621 16.7025 41.6895 15.6738L 41.6895 10.8203C 41.1491 9.82422 40.319 9.32617 39.1992 9.32617C 38.3138 9.32617 37.6237 9.66797 37.1289 10.3516C 36.6341 11.0352 36.3867 12.0475 36.3867 13.3887ZM 50.6934 18.75C 49.2611 18.75 48.0957 18.2812 47.1973 17.3438C 46.2988 16.3997 45.8496 15.14 45.8496 13.5645L 45.8496 13.2324C 45.8496 12.1842 46.0482 11.25 46.4453 10.4297C 46.849 9.60286 47.4089 8.95833 48.125 8.49609C 48.8477 8.02734 49.6289 7.79297 50.4688 7.79297C 51.8424 7.79297 52.9102 8.24544 53.6719 9.15039C 54.4336 10.0553 54.8145 11.3509 54.8145 13.0371L 54.8145 13.7891L 47.6562 13.7891C 47.6823 14.8307 47.985 15.6738 48.5645 16.3184C 49.1504 16.9564 49.8926 17.2754 50.791 17.2754C 51.429 17.2754 51.9694 17.1452 52.4121 16.8848C 52.8548 16.6243 53.2422 16.2793 53.5742 15.8496L 54.6777 16.709C 53.7923 18.0697 52.4642 18.75 50.6934 18.75ZM 50.4688 9.27734C 49.7396 9.27734 49.1276 9.54427 48.6328 10.0781C 48.138 10.6055 47.832 11.3477 47.7148 12.3047L 53.0078 12.3047L 53.0078 12.168C 52.9557 11.25 52.7083 10.5404 52.2656 10.0391C 51.8229 9.53125 51.224 9.27734 50.4688 9.27734ZM 60.459 11.8457L 62.8027 7.98828L 64.9121 7.98828L 61.4551 13.2129L 65.0195 18.5547L 62.9297 18.5547L 60.4883 14.5996L 58.0469 18.5547L 55.9473 18.5547L 59.5117 13.2129L 56.0547 7.98828L 58.1445 7.98828L 60.459 11.8457Z"/>
<path id="path13_fill" d="M 10.7227 16.0645L 12.7539 7.98828L 14.5605 7.98828L 11.4844 18.5547L 10.0195 18.5547L 7.45117 10.5469L 4.95117 18.5547L 3.48633 18.5547L 0.419922 7.98828L 2.2168 7.98828L 4.29688 15.8984L 6.75781 7.98828L 8.21289 7.98828L 10.7227 16.0645ZM 20.791 18.75C 19.3587 18.75 18.1934 18.2812 17.2949 17.3438C 16.3965 16.3997 15.9473 15.14 15.9473 13.5645L 15.9473 13.2324C 15.9473 12.1842 16.1458 11.25 16.543 10.4297C 16.9466 9.60286 17.5065 8.95833 18.2227 8.49609C 18.9453 8.02734 19.7266 7.79297 20.5664 7.79297C 21.9401 7.79297 23.0078 8.24544 23.7695 9.15039C 24.5312 10.0553 24.9121 11.3509 24.9121 13.0371L 24.9121 13.7891L 17.7539 13.7891C 17.7799 14.8307 18.0827 15.6738 18.6621 16.3184C 19.248 16.9564 19.9902 17.2754 20.8887 17.2754C 21.5267 17.2754 22.0671 17.1452 22.5098 16.8848C 22.9525 16.6243 23.3398 16.2793 23.6719 15.8496L 24.7754 16.709C 23.89 18.0697 22.5618 18.75 20.791 18.75ZM 20.5664 9.27734C 19.8372 9.27734 19.2253 9.54427 18.7305 10.0781C 18.2357 10.6055 17.9297 11.3477 17.8125 12.3047L 23.1055 12.3047L 23.1055 12.168C 23.0534 11.25 22.806 10.5404 22.3633 10.0391C 21.9206 9.53125 21.3216 9.27734 20.5664 9.27734Z"/>
<path id="path14_stroke" d="M 5.04297e-05 9.16992e-06L 5.04297e-05 -4.99999L -4.99995 -4.99999L -4.99995 9.16992e-06L 5.04297e-05 9.16992e-06ZM 163.097 9.16992e-06L 168.097 9.16992e-06L 168.097 -4.99999L 163.097 -4.99999L 163.097 9.16992e-06ZM 163.097 310.309L 163.097 315.309L 168.097 315.309L 168.097 310.309L 163.097 310.309ZM 5.04297e-05 310.309L -4.99995 310.309L -4.99995 315.309L 5.04297e-05 315.309L 5.04297e-05 310.309ZM 5.04297e-05 5.00001L 163.097 5.00001L 163.097 -4.99999L 5.04297e-05 -4.99999L 5.04297e-05 5.00001ZM 158.097 9.16992e-06L 158.097 310.309L 168.097 310.309L 168.097 9.16992e-06L 158.097 9.16992e-06ZM 163.097 305.309L 5.04297e-05 305.309L 5.04297e-05 315.309L 163.097 315.309L 163.097 305.309ZM 5.00005 310.309L 5.00005 9.16992e-06L -4.99995 9.16992e-06L -4.99995 310.309L 5.00005 310.309Z"/>
<path id="path15_stroke" d="M -5.53906e-06 9.16992e-06L -5.53906e-06 -4.99999L -5.00001 -4.99999L -5.00001 9.16992e-06L -5.53906e-06 9.16992e-06ZM 163.097 9.16992e-06L 168.097 9.16992e-06L 168.097 -4.99999L 163.097 -4.99999L 163.097 9.16992e-06ZM 163.097 310.309L 163.097 315.309L 168.097 315.309L 168.097 310.309L 163.097 310.309ZM -5.53906e-06 310.309L -5.00001 310.309L -5.00001 315.309L -5.53906e-06 315.309L -5.53906e-06 310.309ZM -5.53906e-06 5.00001L 163.097 5.00001L 163.097 -4.99999L -5.53906e-06 -4.99999L -5.53906e-06 5.00001ZM 158.097 9.16992e-06L 158.097 310.309L 168.097 310.309L 168.097 9.16992e-06L 158.097 9.16992e-06ZM 163.097 305.309L -5.53906e-06 305.309L -5.53906e-06 315.309L 163.097 315.309L 163.097 305.309ZM 4.99999 310.309L 4.99999 9.16992e-06L -5.00001 9.16992e-06L -5.00001 310.309L 4.99999 310.309Z"/>
<path id="path16_stroke" d="M 1.06484e-05 9.16992e-06L 1.06484e-05 -4.99999L -4.99999 -4.99999L -4.99999 9.16992e-06L 1.06484e-05 9.16992e-06ZM 163.097 9.16992e-06L 168.097 9.16992e-06L 168.097 -4.99999L 163.097 -4.99999L 163.097 9.16992e-06ZM 163.097 310.309L 163.097 315.309L 168.097 315.309L 168.097 310.309L 163.097 310.309ZM 1.06484e-05 310.309L -4.99999 310.309L -4.99999 315.309L 1.06484e-05 315.309L 1.06484e-05 310.309ZM 1.06484e-05 5.00001L 163.097 5.00001L 163.097 -4.99999L 1.06484e-05 -4.99999L 1.06484e-05 5.00001ZM 158.097 9.16992e-06L 158.097 310.309L 168.097 310.309L 168.097 9.16992e-06L 158.097 9.16992e-06ZM 163.097 305.309L 1.06484e-05 305.309L 1.06484e-05 315.309L 163.097 315.309L 163.097 305.309ZM 5.00001 310.309L 5.00001 9.16992e-06L -4.99999 9.16992e-06L -4.99999 310.309L 5.00001 310.309Z"/>
<path id="path17_stroke" d="M -4.96777e-07 -2.5L -2.5 -2.5L -2.5 2.5L -4.96777e-07 2.5L -4.96777e-07 -2.5ZM 1473.49 4.42432e-07L 1475.99 4.42432e-07L 1475.99 -2.5L 1473.49 -2.5L 1473.49 4.42432e-07ZM 1473.49 333.366L 1470.99 333.366L 1470.99 335.866L 1473.49 335.866L 1473.49 333.366ZM 1550.87 335.866L 1553.37 335.866L 1553.37 330.866L 1550.87 330.866L 1550.87 335.866ZM -4.96777e-07 2.5L 1473.49 2.5L 1473.49 -2.5L -4.96777e-07 -2.5L -4.96777e-07 2.5ZM 1470.99 4.42432e-07L 1470.99 333.366L 1475.99 333.366L 1475.99 4.42432e-07L 1470.99 4.42432e-07ZM 1473.49 335.866L 1550.87 335.866L 1550.87 330.866L 1473.49 330.866L 1473.49 335.866Z"/>
<path id="path18_stroke" d="M 0 -2.5L -2.5 -2.5L -2.5 2.5L 0 2.5L 0 -2.5ZM 364.049 0L 366.549 0L 366.549 -2.5L 364.049 -2.5L 364.049 0ZM 364.049 54.4875L 361.549 54.4875L 361.549 56.9875L 364.049 56.9875L 364.049 54.4875ZM 401.781 56.9875L 404.281 56.9875L 404.281 51.9875L 401.781 51.9875L 401.781 56.9875ZM 0 2.5L 364.049 2.5L 364.049 -2.5L 0 -2.5L 0 2.5ZM 361.549 0L 361.549 54.4875L 366.549 54.4875L 366.549 0L 361.549 0ZM 364.049 56.9875L 401.781 56.9875L 401.781 51.9875L 364.049 51.9875L 364.049 56.9875Z"/>
<path id="path19_stroke" d="M 0 -2.5L -2.5 -2.5L -2.5 2.5L 0 2.5L 0 -2.5ZM 343.472 0L 345.972 0L 345.972 -2.5L 343.472 -2.5L 343.472 0ZM 343.472 158.694L 340.972 158.694L 340.972 161.194L 343.472 161.194L 343.472 158.694ZM 470.355 161.194L 472.855 161.194L 472.855 156.194L 470.355 156.194L 470.355 161.194ZM 0 2.5L 343.472 2.5L 343.472 -2.5L 0 -2.5L 0 2.5ZM 340.972 0L 340.972 158.694L 345.972 158.694L 345.972 0L 340.972 0ZM 343.472 161.194L 470.355 161.194L 470.355 156.194L 343.472 156.194L 343.472 161.194Z"/>
<path id="path20_stroke" d="M 2.5 0L 2.5 -2.5L -2.5 -2.5L -2.5 0L 2.5 0ZM -2.5 214.058L -2.5 216.558L 2.5 216.558L 2.5 214.058L -2.5 214.058ZM -2.5 0L -2.5 214.058L 2.5 214.058L 2.5 0L -2.5 0Z"/>
<path id="path21_stroke" d="M 2.40879 -0.669091L 1.73968 -3.07789L -3.0779 -1.73966L -2.40879 0.66913L 2.40879 -0.669091ZM 3 10.8L 0.591205 11.4691L 3 20.1408L 5.40879 11.4691L 3 10.8ZM 8.40879 0.66913L 9.0779 -1.73966L 4.26032 -3.07789L 3.59121 -0.669091L 8.40879 0.66913ZM -2.40879 0.66913L 0.591205 11.4691L 5.40879 10.1309L 2.40879 -0.669091L -2.40879 0.66913ZM 5.40879 11.4691L 8.40879 0.66913L 3.59121 -0.669091L 0.591205 10.1309L 5.40879 11.4691Z"/>
<path id="path22_stroke" d="M 2.5 0L 2.5 -2.5L -2.5 -2.5L -2.5 0L 2.5 0ZM -2.5 214.466L -2.5 216.966L 2.5 216.966L 2.5 214.466L -2.5 214.466ZM -2.5 0L -2.5 214.466L 2.5 214.466L 2.5 0L -2.5 0Z"/>
<path id="path23_stroke" d="M 2.38541 -0.748198L 1.63719 -3.13361L -3.13363 -1.63717L -2.38541 0.748238L 2.38541 -0.748198ZM 3.39403 10.8206L 1.00862 11.5688L 3.39403 19.1738L 5.77944 11.5688L 3.39403 10.8206ZM 9.17347 0.748238L 9.92169 -1.63717L 5.15087 -3.13361L 4.40265 -0.748198L 9.17347 0.748238ZM -2.38541 0.748238L 1.00862 11.5688L 5.77944 10.0724L 2.38541 -0.748198L -2.38541 0.748238ZM 5.77944 11.5688L 9.17347 0.748238L 4.40265 -0.748198L 1.00862 10.0724L 5.77944 11.5688Z"/>
<path id="path24_fill" d="M 4.7168 14.0723L 4.99023 15.9473L 5.39062 14.2578L 8.20312 4.33594L 9.78516 4.33594L 12.5293 14.2578L 12.9199 15.9766L 13.2227 14.0625L 15.4297 4.33594L 17.3145 4.33594L 13.8672 18.5547L 12.1582 18.5547L 9.22852 8.19336L 9.00391 7.10938L 8.7793 8.19336L 5.74219 18.5547L 4.0332 18.5547L 0.595703 4.33594L 2.4707 4.33594L 4.7168 14.0723ZM 18.3496 13.1738C 18.3496 12.1387 18.5514 11.2077 18.9551 10.3809C 19.3652 9.55404 19.9316 8.91602 20.6543 8.4668C 21.3835 8.01758 22.2135 7.79297 23.1445 7.79297C 24.5833 7.79297 25.7454 8.29102 26.6309 9.28711C 27.5228 10.2832 27.9688 11.6081 27.9688 13.2617L 27.9688 13.3887C 27.9688 14.4173 27.7702 15.3418 27.373 16.1621C 26.9824 16.9759 26.4193 17.6107 25.6836 18.0664C 24.9544 18.5221 24.1146 18.75 23.1641 18.75C 21.7318 18.75 20.5697 18.252 19.6777 17.2559C 18.7923 16.2598 18.3496 14.9414 18.3496 13.3008L 18.3496 13.1738ZM 20.166 13.3887C 20.166 14.5605 20.4362 15.5013 20.9766 16.2109C 21.5234 16.9206 22.2526 17.2754 23.1641 17.2754C 24.082 17.2754 24.8112 16.9173 25.3516 16.2012C 25.8919 15.4785 26.1621 14.4694 26.1621 13.1738C 26.1621 12.015 25.8854 11.0775 25.332 10.3613C 24.7852 9.63867 24.056 9.27734 23.1445 9.27734C 22.2526 9.27734 21.5332 9.63216 20.9863 10.3418C 20.4395 11.0514 20.166 12.0671 20.166 13.3887ZM 36.7578 17.5098C 36.0547 18.3366 35.0228 18.75 33.6621 18.75C 32.5358 18.75 31.6764 18.4245 31.084 17.7734C 30.498 17.1159 30.2018 16.1458 30.1953 14.8633L 30.1953 7.98828L 32.002 7.98828L 32.002 14.8145C 32.002 16.416 32.653 17.2168 33.9551 17.2168C 35.3353 17.2168 36.2533 16.7025 36.709 15.6738L 36.709 7.98828L 38.5156 7.98828L 38.5156 18.5547L 36.7969 18.5547L 36.7578 17.5098ZM 43.7207 5.42969L 43.7207 7.98828L 45.6934 7.98828L 45.6934 9.38477L 43.7207 9.38477L 43.7207 15.9375C 43.7207 16.3607 43.8086 16.6797 43.9844 16.8945C 44.1602 17.1029 44.4596 17.207 44.8828 17.207C 45.0911 17.207 45.3776 17.168 45.7422 17.0898L 45.7422 18.5547C 45.2669 18.6849 44.8047 18.75 44.3555 18.75C 43.5482 18.75 42.9395 18.5059 42.5293 18.0176C 42.1191 17.5293 41.9141 16.8359 41.9141 15.9375L 41.9141 9.38477L 39.9902 9.38477L 39.9902 7.98828L 41.9141 7.98828L 41.9141 5.42969L 43.7207 5.42969Z"/>
<path id="path25_fill" d="M 6.86523 12.8027L 3.52539 12.8027L 3.52539 18.5547L 1.64062 18.5547L 1.64062 4.33594L 6.34766 4.33594C 7.94922 4.33594 9.17969 4.70052 10.0391 5.42969C 10.9049 6.15885 11.3379 7.22005 11.3379 8.61328C 11.3379 9.4987 11.097 10.2702 10.6152 10.9277C 10.14 11.5853 9.47591 12.0768 8.62305 12.4023L 11.9629 18.4375L 11.9629 18.5547L 9.95117 18.5547L 6.86523 12.8027ZM 3.52539 11.2695L 6.40625 11.2695C 7.33724 11.2695 8.07617 11.0286 8.62305 10.5469C 9.17643 10.0651 9.45312 9.42057 9.45312 8.61328C 9.45312 7.73438 9.18945 7.06055 8.66211 6.5918C 8.14128 6.12305 7.38607 5.88542 6.39648 5.87891L 3.52539 5.87891L 3.52539 11.2695ZM 13.2129 13.1738C 13.2129 12.1387 13.4147 11.2077 13.8184 10.3809C 14.2285 9.55404 14.7949 8.91602 15.5176 8.4668C 16.2467 8.01758 17.0768 7.79297 18.0078 7.79297C 19.4466 7.79297 20.6087 8.29102 21.4941 9.28711C 22.3861 10.2832 22.832 11.6081 22.832 13.2617L 22.832 13.3887C 22.832 14.4173 22.6335 15.3418 22.2363 16.1621C 21.8457 16.9759 21.2826 17.6107 20.5469 18.0664C 19.8177 18.5221 18.9779 18.75 18.0273 18.75C 16.5951 18.75 15.4329 18.252 14.541 17.2559C 13.6556 16.2598 13.2129 14.9414 13.2129 13.3008L 13.2129 13.1738ZM 15.0293 13.3887C 15.0293 14.5605 15.2995 15.5013 15.8398 16.2109C 16.3867 16.9206 17.1159 17.2754 18.0273 17.2754C 18.9453 17.2754 19.6745 16.9173 20.2148 16.2012C 20.7552 15.4785 21.0254 14.4694 21.0254 13.1738C 21.0254 12.015 20.7487 11.0775 20.1953 10.3613C 19.6484 9.63867 18.9193 9.27734 18.0078 9.27734C 17.1159 9.27734 16.3965 9.63216 15.8496 10.3418C 15.3027 11.0514 15.0293 12.0671 15.0293 13.3887ZM 31.6211 17.5098C 30.918 18.3366 29.8861 18.75 28.5254 18.75C 27.3991 18.75 26.5397 18.4245 25.9473 17.7734C 25.3613 17.1159 25.0651 16.1458 25.0586 14.8633L 25.0586 7.98828L 26.8652 7.98828L 26.8652 14.8145C 26.8652 16.416 27.5163 17.2168 28.8184 17.2168C 30.1986 17.2168 31.1165 16.7025 31.5723 15.6738L 31.5723 7.98828L 33.3789 7.98828L 33.3789 18.5547L 31.6602 18.5547L 31.6211 17.5098ZM 38.584 5.42969L 38.584 7.98828L 40.5566 7.98828L 40.5566 9.38477L 38.584 9.38477L 38.584 15.9375C 38.584 16.3607 38.6719 16.6797 38.8477 16.8945C 39.0234 17.1029 39.3229 17.207 39.7461 17.207C 39.9544 17.207 40.2409 17.168 40.6055 17.0898L 40.6055 18.5547C 40.1302 18.6849 39.668 18.75 39.2188 18.75C 38.4115 18.75 37.8027 18.5059 37.3926 18.0176C 36.9824 17.5293 36.7773 16.8359 36.7773 15.9375L 36.7773 9.38477L 34.8535 9.38477L 34.8535 7.98828L 36.7773 7.98828L 36.7773 5.42969L 38.584 5.42969Z"/>
<path id="path26_fill" d="M 0.888672 13.1738C 0.888672 12.1387 1.09049 11.2077 1.49414 10.3809C 1.9043 9.55404 2.4707 8.91602 3.19336 8.4668C 3.92253 8.01758 4.7526 7.79297 5.68359 7.79297C 7.1224 7.79297 8.28451 8.29102 9.16992 9.28711C 10.0618 10.2832 10.5078 11.6081 10.5078 13.2617L 10.5078 13.3887C 10.5078 14.4173 10.3092 15.3418 9.91211 16.1621C 9.52148 16.9759 8.95833 17.6107 8.22266 18.0664C 7.49349 18.5221 6.65365 18.75 5.70312 18.75C 4.27083 18.75 3.10872 18.252 2.2168 17.2559C 1.33138 16.2598 0.888672 14.9414 0.888672 13.3008L 0.888672 13.1738ZM 2.70508 13.3887C 2.70508 14.5605 2.97526 15.5013 3.51562 16.2109C 4.0625 16.9206 4.79167 17.2754 5.70312 17.2754C 6.62109 17.2754 7.35026 16.9173 7.89062 16.2012C 8.43099 15.4785 8.70117 14.4694 8.70117 13.1738C 8.70117 12.015 8.42448 11.0775 7.87109 10.3613C 7.32422 9.63867 6.59505 9.27734 5.68359 9.27734C 4.79167 9.27734 4.07227 9.63216 3.52539 10.3418C 2.97852 11.0514 2.70508 12.0671 2.70508 13.3887ZM 19.2969 17.5098C 18.5938 18.3366 17.5618 18.75 16.2012 18.75C 15.0749 18.75 14.2155 18.4245 13.623 17.7734C 13.0371 17.1159 12.7409 16.1458 12.7344 14.8633L 12.7344 7.98828L 14.541 7.98828L 14.541 14.8145C 14.541 16.416 15.1921 17.2168 16.4941 17.2168C 17.8743 17.2168 18.7923 16.7025 19.248 15.6738L 19.248 7.98828L 21.0547 7.98828L 21.0547 18.5547L 19.3359 18.5547L 19.2969 17.5098ZM 26.2598 5.42969L 26.2598 7.98828L 28.2324 7.98828L 28.2324 9.38477L 26.2598 9.38477L 26.2598 15.9375C 26.2598 16.3607 26.3477 16.6797 26.5234 16.8945C 26.6992 17.1029 26.9987 17.207 27.4219 17.207C 27.6302 17.207 27.9167 17.168 28.2812 17.0898L 28.2812 18.5547C 27.806 18.6849 27.3438 18.75 26.8945 18.75C 26.0872 18.75 25.4785 18.5059 25.0684 18.0176C 24.6582 17.5293 24.4531 16.8359 24.4531 15.9375L 24.4531 9.38477L 22.5293 9.38477L 22.5293 7.98828L 24.4531 7.98828L 24.4531 5.42969L 26.2598 5.42969Z"/>
<path id="path27_stroke" d="M 0 -2.5L -2.5 -2.5L -2.5 2.5L 0 2.5L 0 -2.5ZM 444.325 2.5L 446.825 2.5L 446.825 -2.5L 444.325 -2.5L 444.325 2.5ZM 0 2.5L 444.325 2.5L 444.325 -2.5L 0 -2.5L 0 2.5Z"/>
<path id="path28_stroke" d="M 0.353553 -0.353553L 0 -0.707107L -0.707107 0L -0.353553 0.353553L 0.353553 -0.353553ZM 1.14645 1.85355L 1.5 2.20711L 2.20711 1.5L 1.85355 1.14645L 1.14645 1.85355ZM -0.353553 0.353553L 1.14645 1.85355L 1.85355 1.14645L 0.353553 -0.353553L -0.353553 0.353553Z"/>
<path id="path29_fill" d="M 7.11914 18.5547L 5.30273 18.5547L 5.30273 6.51367L 1.66016 7.85156L 1.66016 6.21094L 6.83594 4.26758L 7.11914 4.26758L 7.11914 18.5547Z"/>
<path id="path30_stroke" d="M 892.611 53.2614L 895.111 53.2614L 895.111 48.2614L 892.611 48.2614L 892.611 53.2614ZM 836.611 50.7614L 834.111 50.7614L 834.111 53.2614L 836.611 53.2614L 836.611 50.7614ZM 836.611 2.46094e-06L 839.111 2.46094e-06L 839.111 -2.5L 836.611 -2.5L 836.611 2.46094e-06ZM -1.51924e-06 -2.5L -2.5 -2.5L -2.5 2.5L -1.51924e-06 2.5L -1.51924e-06 -2.5ZM 892.611 48.2614L 836.611 48.2614L 836.611 53.2614L 892.611 53.2614L 892.611 48.2614ZM 839.111 50.7614L 839.111 2.46094e-06L 834.111 2.46094e-06L 834.111 50.7614L 839.111 50.7614ZM 836.611 -2.5L -1.51924e-06 -2.5L -1.51924e-06 2.5L 836.611 2.5L 836.611 -2.5Z"/>
<path id="path31_stroke" d="M 0 -2.5L -2.5 -2.5L -2.5 2.5L 0 2.5L 0 -2.5ZM 324.222 2.5L 326.722 2.5L 326.722 -2.5L 324.222 -2.5L 324.222 2.5ZM 0 2.5L 324.222 2.5L 324.222 -2.5L 0 -2.5L 0 2.5Z"/>
<path id="path32_fill" d="M 3.81836 5.42969L 3.81836 7.98828L 5.79102 7.98828L 5.79102 9.38477L 3.81836 9.38477L 3.81836 15.9375C 3.81836 16.3607 3.90625 16.6797 4.08203 16.8945C 4.25781 17.1029 4.55729 17.207 4.98047 17.207C 5.1888 17.207 5.47526 17.168 5.83984 17.0898L 5.83984 18.5547C 5.36458 18.6849 4.90234 18.75 4.45312 18.75C 3.64583 18.75 3.03711 18.5059 2.62695 18.0176C 2.2168 17.5293 2.01172 16.8359 2.01172 15.9375L 2.01172 9.38477L 0.0878906 9.38477L 0.0878906 7.98828L 2.01172 7.98828L 2.01172 5.42969L 3.81836 5.42969ZM 14.4336 18.5547C 14.3294 18.3464 14.2448 17.9753 14.1797 17.4414C 13.3398 18.3138 12.3372 18.75 11.1719 18.75C 10.1302 18.75 9.27409 18.457 8.60352 17.8711C 7.93945 17.2786 7.60742 16.5299 7.60742 15.625C 7.60742 14.5247 8.02409 13.6719 8.85742 13.0664C 9.69727 12.4544 10.8757 12.1484 12.3926 12.1484L 14.1504 12.1484L 14.1504 11.3184C 14.1504 10.6868 13.9616 10.1855 13.584 9.81445C 13.2064 9.43685 12.6497 9.24805 11.9141 9.24805C 11.2695 9.24805 10.7292 9.41081 10.293 9.73633C 9.85677 10.0618 9.63867 10.4557 9.63867 10.918L 7.82227 10.918C 7.82227 10.3906 8.00781 9.88281 8.37891 9.39453C 8.75651 8.89974 9.26432 8.50911 9.90234 8.22266C 10.5469 7.9362 11.2533 7.79297 12.0215 7.79297C 13.2389 7.79297 14.1927 8.09896 14.8828 8.71094C 15.5729 9.31641 15.931 10.153 15.957 11.2207L 15.957 16.084C 15.957 17.054 16.0807 17.8255 16.3281 18.3984L 16.3281 18.5547L 14.4336 18.5547ZM 11.4355 17.1777C 12.002 17.1777 12.5391 17.0312 13.0469 16.7383C 13.5547 16.4453 13.9225 16.0645 14.1504 15.5957L 14.1504 13.4277L 12.7344 13.4277C 10.5208 13.4277 9.41406 14.0755 9.41406 15.3711C 9.41406 15.9375 9.60286 16.3802 9.98047 16.6992C 10.3581 17.0182 10.8431 17.1777 11.4355 17.1777ZM 18.3594 13.1836C 18.3594 11.5365 18.7402 10.2279 19.502 9.25781C 20.2637 8.28125 21.2728 7.79297 22.5293 7.79297C 23.8184 7.79297 24.8242 8.2487 25.5469 9.16016L 25.6348 7.98828L 27.2852 7.98828L 27.2852 18.3008C 27.2852 19.668 26.8783 20.7454 26.0645 21.5332C 25.2572 22.321 24.1699 22.7148 22.8027 22.7148C 22.041 22.7148 21.2956 22.5521 20.5664 22.2266C 19.8372 21.901 19.2806 21.4551 18.8965 20.8887L 19.834 19.8047C 20.6087 20.7617 21.556 21.2402 22.6758 21.2402C 23.5547 21.2402 24.2383 20.9928 24.7266 20.498C 25.2214 20.0033 25.4688 19.3066 25.4688 18.4082L 25.4688 17.5C 24.7461 18.3333 23.7598 18.75 22.5098 18.75C 21.2728 18.75 20.2702 18.252 19.502 17.2559C 18.7402 16.2598 18.3594 14.9023 18.3594 13.1836ZM 20.1758 13.3887C 20.1758 14.5801 20.4199 15.5176 20.9082 16.2012C 21.3965 16.8783 22.0801 17.2168 22.959 17.2168C 24.0983 17.2168 24.9349 16.6992 25.4688 15.6641L 25.4688 10.8398C 24.9154 9.83073 24.0853 9.32617 22.9785 9.32617C 22.0996 9.32617 21.4128 9.66797 20.918 10.3516C 20.4232 11.0352 20.1758 12.0475 20.1758 13.3887Z"/>
<path id="path33_fill" d="M 20.6543 10.582L 12.4277 10.582L 12.4277 33.3984L 9.07031 33.3984L 9.07031 10.582L 0.861328 10.582L 0.861328 7.80469L 20.6543 7.80469L 20.6543 10.582ZM 37.2129 26.7188L 26.4902 26.7188L 24.082 33.3984L 20.6016 33.3984L 30.375 7.80469L 33.3281 7.80469L 43.1191 33.3984L 39.6562 33.3984L 37.2129 26.7188ZM 27.5098 23.9414L 36.2109 23.9414L 31.8516 11.9707L 27.5098 23.9414ZM 65.2852 30.041C 64.418 31.2832 63.2051 32.2148 61.6465 32.8359C 60.0996 33.4453 58.2949 33.75 56.2324 33.75C 54.1465 33.75 52.2949 33.2637 50.6777 32.291C 49.0605 31.3066 47.8066 29.9121 46.916 28.1074C 46.0371 26.3027 45.5859 24.2109 45.5625 21.832L 45.5625 19.5996C 45.5625 15.7441 46.459 12.7559 48.252 10.6348C 50.0566 8.51367 52.5879 7.45312 55.8457 7.45312C 58.5176 7.45312 60.668 8.13867 62.2969 9.50977C 63.9258 10.8691 64.9219 12.8027 65.2852 15.3105L 61.9102 15.3105C 61.2773 11.9238 59.2617 10.2305 55.8633 10.2305C 53.6016 10.2305 51.8848 11.0273 50.7129 12.6211C 49.5527 14.2031 48.9668 16.5 48.9551 19.5117L 48.9551 21.6035C 48.9551 24.4746 49.6113 26.7598 50.9238 28.459C 52.2363 30.1465 54.0117 30.9902 56.25 30.9902C 57.5156 30.9902 58.623 30.8496 59.5723 30.5684C 60.5215 30.2871 61.3066 29.8125 61.9277 29.1445L 61.9277 23.3965L 56.0039 23.3965L 56.0039 20.6543L 65.2852 20.6543L 65.2852 30.041ZM 78.4688 21.9902C 75.5742 21.1582 73.4648 20.1387 72.1406 18.9316C 70.8281 17.7129 70.1719 16.2129 70.1719 14.4316C 70.1719 12.416 70.9746 10.752 72.5801 9.43945C 74.1973 8.11523 76.2949 7.45312 78.873 7.45312C 80.6309 7.45312 82.1953 7.79297 83.5664 8.47266C 84.9492 9.15234 86.0156 10.0898 86.7656 11.2852C 87.5273 12.4805 87.9082 13.7871 87.9082 15.2051L 84.5156 15.2051C 84.5156 13.6582 84.0234 12.4453 83.0391 11.5664C 82.0547 10.6758 80.666 10.2305 78.873 10.2305C 77.209 10.2305 75.9082 10.5996 74.9707 11.3379C 74.0449 12.0645 73.582 13.0781 73.582 14.3789C 73.582 15.4219 74.0215 16.3066 74.9004 17.0332C 75.791 17.748 77.2969 18.4043 79.418 19.002C 81.5508 19.5996 83.2148 20.2617 84.4102 20.9883C 85.6172 21.7031 86.5078 22.541 87.082 23.502C 87.668 24.4629 87.9609 25.5938 87.9609 26.8945C 87.9609 28.9688 87.1523 30.6328 85.5352 31.8867C 83.918 33.1289 81.7559 33.75 79.0488 33.75C 77.291 33.75 75.6504 33.416 74.127 32.748C 72.6035 32.0684 71.4258 31.1426 70.5938 29.9707C 69.7734 28.7988 69.3633 27.4687 69.3633 25.9805L 72.7559 25.9805C 72.7559 27.5273 73.3242 28.752 74.4609 29.6543C 75.6094 30.5449 77.1387 30.9902 79.0488 30.9902C 80.8301 30.9902 82.1953 30.627 83.1445 29.9004C 84.0938 29.1738 84.5684 28.1836 84.5684 26.9297C 84.5684 25.6758 84.1289 24.709 83.25 24.0293C 82.3711 23.3379 80.7773 22.6582 78.4688 21.9902Z"/>
<path id="path34_fill" d="M 11.4434 28.916L 18.7559 7.80469L 22.4473 7.80469L 12.9551 33.3984L 9.9668 33.3984L 0.492188 7.80469L 4.16602 7.80469L 11.4434 28.916ZM 38.7246 26.7188L 28.002 26.7188L 25.5938 33.3984L 22.1133 33.3984L 31.8867 7.80469L 34.8398 7.80469L 44.6309 33.3984L 41.168 33.3984L 38.7246 26.7188ZM 29.0215 23.9414L 37.7227 23.9414L 33.3633 11.9707L 29.0215 23.9414ZM 51.4688 30.6387L 63.5977 30.6387L 63.5977 33.3984L 48.0762 33.3984L 48.0762 7.80469L 51.4688 7.80469L 51.4688 30.6387ZM 71.0684 33.3984L 67.6934 33.3984L 67.6934 7.80469L 71.0684 7.80469L 71.0684 33.3984ZM 77.2559 33.3984L 77.2559 7.80469L 84.4805 7.80469C 86.707 7.80469 88.6758 8.29688 90.3867 9.28125C 92.0977 10.2656 93.416 11.666 94.3418 13.4824C 95.2793 15.2988 95.7539 17.3848 95.7656 19.7402L 95.7656 21.375C 95.7656 23.7891 95.2969 25.9043 94.3594 27.7207C 93.4336 29.5371 92.1035 30.9316 90.3691 31.9043C 88.6465 32.877 86.6367 33.375 84.3398 33.3984L 77.2559 33.3984ZM 80.6309 10.582L 80.6309 30.6387L 84.1816 30.6387C 86.7832 30.6387 88.8047 29.8301 90.2461 28.2129C 91.6992 26.5957 92.4258 24.293 92.4258 21.3047L 92.4258 19.8105C 92.4258 16.9043 91.7402 14.6484 90.3691 13.043C 89.0098 11.4258 87.0762 10.6055 84.5684 10.582L 80.6309 10.582Z"/>
<path id="path35_fill" d="M 2.9707 33.3984L 2.9707 7.80469L 10.1953 7.80469C 12.4219 7.80469 14.3906 8.29688 16.1016 9.28125C 17.8125 10.2656 19.1309 11.666 20.0566 13.4824C 20.9941 15.2988 21.4688 17.3848 21.4805 19.7402L 21.4805 21.375C 21.4805 23.7891 21.0117 25.9043 20.0742 27.7207C 19.1484 29.5371 17.8184 30.9316 16.084 31.9043C 14.3613 32.877 12.3516 33.375 10.0547 33.3984L 2.9707 33.3984ZM 6.3457 10.582L 6.3457 30.6387L 9.89648 30.6387C 12.498 30.6387 14.5195 29.8301 15.9609 28.2129C 17.4141 26.5957 18.1406 24.293 18.1406 21.3047L 18.1406 19.8105C 18.1406 16.9043 17.4551 14.6484 16.084 13.043C 14.7246 11.4258 12.791 10.6055 10.2832 10.582L 6.3457 10.582ZM 40.377 26.7188L 29.6543 26.7188L 27.2461 33.3984L 23.7656 33.3984L 33.5391 7.80469L 36.4922 7.80469L 46.2832 33.3984L 42.8203 33.3984L 40.377 26.7188ZM 30.6738 23.9414L 39.375 23.9414L 35.0156 11.9707L 30.6738 23.9414ZM 65.1621 10.582L 56.9355 10.582L 56.9355 33.3984L 53.5781 33.3984L 53.5781 10.582L 45.3691 10.582L 45.3691 7.80469L 65.1621 7.80469L 65.1621 10.582ZM 81.7207 26.7188L 70.998 26.7188L 68.5898 33.3984L 65.1094 33.3984L 74.8828 7.80469L 77.8359 7.80469L 87.627 33.3984L 84.1641 33.3984L 81.7207 26.7188ZM 72.0176 23.9414L 80.7188 23.9414L 76.3594 11.9707L 72.0176 23.9414Z"/>
<path id="path36_fill" d="M 11 22C 17.0751 22 22 17.0751 22 11C 22 4.92487 17.0751 0 11 0C 4.92487 0 0 4.92487 0 11C 0 17.0751 4.92487 22 11 22Z"/>
<path id="path37_fill" d="M 8.49023 25.3301L 8.98242 28.7051L 9.70312 25.6641L 14.7656 7.80469L 17.6133 7.80469L 22.5527 25.6641L 23.2559 28.7578L 23.8008 25.3125L 27.7734 7.80469L 31.166 7.80469L 24.9609 33.3984L 21.8848 33.3984L 16.6113 14.748L 16.207 12.7969L 15.8027 14.748L 10.3359 33.3984L 7.25977 33.3984L 1.07227 7.80469L 4.44727 7.80469L 8.49023 25.3301ZM 38.8301 9.77344L 38.8301 14.3789L 42.3809 14.3789L 42.3809 16.8926L 38.8301 16.8926L 38.8301 28.6875C 38.8301 29.4492 38.9883 30.0234 39.3047 30.4102C 39.6211 30.7852 40.1602 30.9727 40.9219 30.9727C 41.2969 30.9727 41.8125 30.9023 42.4688 30.7617L 42.4688 33.3984C 41.6133 33.6328 40.7812 33.75 39.9727 33.75C 38.5195 33.75 37.4238 33.3105 36.6855 32.4316C 35.9473 31.5527 35.5781 30.3047 35.5781 28.6875L 35.5781 16.8926L 32.1152 16.8926L 32.1152 14.3789L 35.5781 14.3789L 35.5781 9.77344L 38.8301 9.77344ZM 57.9375 33.3984C 57.75 33.0234 57.5977 32.3555 57.4805 31.3945C 55.9688 32.9648 54.1641 33.75 52.0664 33.75C 50.1914 33.75 48.6504 33.2227 47.4434 32.168C 46.248 31.1016 45.6504 29.7539 45.6504 28.125C 45.6504 26.1445 46.4004 24.6094 47.9004 23.5195C 49.4121 22.418 51.5332 21.8672 54.2637 21.8672L 57.4277 21.8672L 57.4277 20.373C 57.4277 19.2363 57.0879 18.334 56.4082 17.666C 55.7285 16.9863 54.7266 16.6465 53.4023 16.6465C 52.2422 16.6465 51.2695 16.9395 50.4844 17.5254C 49.6992 18.1113 49.3066 18.8203 49.3066 19.6523L 46.0371 19.6523C 46.0371 18.7031 46.3711 17.7891 47.0391 16.9102C 47.7188 16.0195 48.6328 15.3164 49.7812 14.8008C 50.9414 14.2852 52.2129 14.0273 53.5957 14.0273C 55.7871 14.0273 57.5039 14.5781 58.7461 15.6797C 59.9883 16.7695 60.6328 18.2754 60.6797 20.1973L 60.6797 28.9512C 60.6797 30.6973 60.9023 32.0859 61.3477 33.1172L 61.3477 33.3984L 57.9375 33.3984ZM 52.541 30.9199C 53.5605 30.9199 54.5273 30.6562 55.4414 30.1289C 56.3555 29.6016 57.0176 28.916 57.4277 28.0723L 57.4277 24.1699L 54.8789 24.1699C 50.8945 24.1699 48.9023 25.3359 48.9023 27.668C 48.9023 28.6875 49.2422 29.4844 49.9219 30.0586C 50.6016 30.6328 51.4746 30.9199 52.541 30.9199ZM 65.0039 23.7305C 65.0039 20.7656 65.6895 18.4102 67.0605 16.6641C 68.4316 14.9062 70.248 14.0273 72.5098 14.0273C 74.8301 14.0273 76.6406 14.8477 77.9414 16.4883L 78.0996 14.3789L 81.0703 14.3789L 81.0703 32.9414C 81.0703 35.4023 80.3379 37.3418 78.873 38.7598C 77.4199 40.1777 75.4629 40.8867 73.002 40.8867C 71.6309 40.8867 70.2891 40.5938 68.9766 40.0078C 67.6641 39.4219 66.6621 38.6191 65.9707 37.5996L 67.6582 35.6484C 69.0527 37.3711 70.7578 38.2324 72.7734 38.2324C 74.3555 38.2324 75.5859 37.7871 76.4648 36.8965C 77.3555 36.0059 77.8008 34.752 77.8008 33.1348L 77.8008 31.5C 76.5 33 74.7246 33.75 72.4746 33.75C 70.248 33.75 68.4434 32.8535 67.0605 31.0605C 65.6895 29.2676 65.0039 26.8242 65.0039 23.7305ZM 68.2734 24.0996C 68.2734 26.2441 68.7129 27.9316 69.5918 29.1621C 70.4707 30.3809 71.7012 30.9902 73.2832 30.9902C 75.334 30.9902 76.8398 30.0586 77.8008 28.1953L 77.8008 19.5117C 76.8047 17.6953 75.3105 16.7871 73.3184 16.7871C 71.7363 16.7871 70.5 17.4023 69.6094 18.6328C 68.7188 19.8633 68.2734 21.6855 68.2734 24.0996Z"/>
<path id="path38_fill" d="M 12.3574 23.0449L 6.3457 23.0449L 6.3457 33.3984L 2.95312 33.3984L 2.95312 7.80469L 11.4258 7.80469C 14.3086 7.80469 16.5234 8.46094 18.0703 9.77344C 19.6289 11.0859 20.4082 12.9961 20.4082 15.5039C 20.4082 17.0977 19.9746 18.4863 19.1074 19.6699C 18.252 20.8535 17.0566 21.7383 15.5215 22.3242L 21.5332 33.1875L 21.5332 33.3984L 17.9121 33.3984L 12.3574 23.0449ZM 6.3457 20.2852L 11.5312 20.2852C 13.207 20.2852 14.5371 19.8516 15.5215 18.9844C 16.5176 18.1172 17.0156 16.957 17.0156 15.5039C 17.0156 13.9219 16.541 12.709 15.5918 11.8652C 14.6543 11.0215 13.2949 10.5937 11.5137 10.582L 6.3457 10.582L 6.3457 20.2852ZM 29.0566 9.77344L 29.0566 14.3789L 32.6074 14.3789L 32.6074 16.8926L 29.0566 16.8926L 29.0566 28.6875C 29.0566 29.4492 29.2148 30.0234 29.5312 30.4102C 29.8477 30.7852 30.3867 30.9727 31.1484 30.9727C 31.5234 30.9727 32.0391 30.9023 32.6953 30.7617L 32.6953 33.3984C 31.8398 33.6328 31.0078 33.75 30.1992 33.75C 28.7461 33.75 27.6504 33.3105 26.9121 32.4316C 26.1738 31.5527 25.8047 30.3047 25.8047 28.6875L 25.8047 16.8926L 22.3418 16.8926L 22.3418 14.3789L 25.8047 14.3789L 25.8047 9.77344L 29.0566 9.77344ZM 48.1641 33.3984C 47.9766 33.0234 47.8242 32.3555 47.707 31.3945C 46.1953 32.9648 44.3906 33.75 42.293 33.75C 40.418 33.75 38.877 33.2227 37.6699 32.168C 36.4746 31.1016 35.877 29.7539 35.877 28.125C 35.877 26.1445 36.627 24.6094 38.127 23.5195C 39.6387 22.418 41.7598 21.8672 44.4902 21.8672L 47.6543 21.8672L 47.6543 20.373C 47.6543 19.2363 47.3145 18.334 46.6348 17.666C 45.9551 16.9863 44.9531 16.6465 43.6289 16.6465C 42.4688 16.6465 41.4961 16.9395 40.7109 17.5254C 39.9258 18.1113 39.5332 18.8203 39.5332 19.6523L 36.2637 19.6523C 36.2637 18.7031 36.5977 17.7891 37.2656 16.9102C 37.9453 16.0195 38.8594 15.3164 40.0078 14.8008C 41.168 14.2852 42.4395 14.0273 43.8223 14.0273C 46.0137 14.0273 47.7305 14.5781 48.9727 15.6797C 50.2148 16.7695 50.8594 18.2754 50.9062 20.1973L 50.9062 28.9512C 50.9062 30.6973 51.1289 32.0859 51.5742 33.1172L 51.5742 33.3984L 48.1641 33.3984ZM 42.7676 30.9199C 43.7871 30.9199 44.7539 30.6562 45.668 30.1289C 46.582 29.6016 47.2441 28.916 47.6543 28.0723L 47.6543 24.1699L 45.1055 24.1699C 41.1211 24.1699 39.1289 25.3359 39.1289 27.668C 39.1289 28.6875 39.4688 29.4844 40.1484 30.0586C 40.8281 30.6328 41.7012 30.9199 42.7676 30.9199ZM 55.2305 23.7305C 55.2305 20.7656 55.916 18.4102 57.2871 16.6641C 58.6582 14.9062 60.4746 14.0273 62.7363 14.0273C 65.0566 14.0273 66.8672 14.8477 68.168 16.4883L 68.3262 14.3789L 71.2969 14.3789L 71.2969 32.9414C 71.2969 35.4023 70.5645 37.3418 69.0996 38.7598C 67.6465 40.1777 65.6895 40.8867 63.2285 40.8867C 61.8574 40.8867 60.5156 40.5938 59.2031 40.0078C 57.8906 39.4219 56.8887 38.6191 56.1973 37.5996L 57.8848 35.6484C 59.2793 37.3711 60.9844 38.2324 63 38.2324C 64.582 38.2324 65.8125 37.7871 66.6914 36.8965C 67.582 36.0059 68.0273 34.752 68.0273 33.1348L 68.0273 31.5C 66.7266 33 64.9512 33.75 62.7012 33.75C 60.4746 33.75 58.6699 32.8535 57.2871 31.0605C 55.916 29.2676 55.2305 26.8242 55.2305 23.7305ZM 58.5 24.0996C 58.5 26.2441 58.9395 27.9316 59.8184 29.1621C 60.6973 30.3809 61.9277 30.9902 63.5098 30.9902C 65.5605 30.9902 67.0664 30.0586 68.0273 28.1953L 68.0273 19.5117C 67.0312 17.6953 65.5371 16.7871 63.5449 16.7871C 61.9629 16.7871 60.7266 17.4023 59.8359 18.6328C 58.9453 19.8633 58.5 21.6855 58.5 24.0996Z"/>
<path id="path39_fill" d="M 8.49023 25.3301L 8.98242 28.7051L 9.70312 25.6641L 14.7656 7.80469L 17.6133 7.80469L 22.5527 25.6641L 23.2559 28.7578L 23.8008 25.3125L 27.7734 7.80469L 31.166 7.80469L 24.9609 33.3984L 21.8848 33.3984L 16.6113 14.748L 16.207 12.7969L 15.8027 14.748L 10.3359 33.3984L 7.25977 33.3984L 1.07227 7.80469L 4.44727 7.80469L 8.49023 25.3301ZM 40.6934 28.9863L 45.4043 14.3789L 48.7266 14.3789L 41.9062 33.3984L 39.4277 33.3984L 32.5371 14.3789L 35.8594 14.3789L 40.6934 28.9863ZM 63.3516 33.3984C 63.1641 33.0234 63.0117 32.3555 62.8945 31.3945C 61.3828 32.9648 59.5781 33.75 57.4805 33.75C 55.6055 33.75 54.0645 33.2227 52.8574 32.168C 51.6621 31.1016 51.0645 29.7539 51.0645 28.125C 51.0645 26.1445 51.8145 24.6094 53.3145 23.5195C 54.8262 22.418 56.9473 21.8672 59.6777 21.8672L 62.8418 21.8672L 62.8418 20.373C 62.8418 19.2363 62.502 18.334 61.8223 17.666C 61.1426 16.9863 60.1406 16.6465 58.8164 16.6465C 57.6562 16.6465 56.6836 16.9395 55.8984 17.5254C 55.1133 18.1113 54.7207 18.8203 54.7207 19.6523L 51.4512 19.6523C 51.4512 18.7031 51.7852 17.7891 52.4531 16.9102C 53.1328 16.0195 54.0469 15.3164 55.1953 14.8008C 56.3555 14.2852 57.627 14.0273 59.0098 14.0273C 61.2012 14.0273 62.918 14.5781 64.1602 15.6797C 65.4023 16.7695 66.0469 18.2754 66.0938 20.1973L 66.0938 28.9512C 66.0938 30.6973 66.3164 32.0859 66.7617 33.1172L 66.7617 33.3984L 63.3516 33.3984ZM 57.9551 30.9199C 58.9746 30.9199 59.9414 30.6562 60.8555 30.1289C 61.7695 29.6016 62.4316 28.916 62.8418 28.0723L 62.8418 24.1699L 60.293 24.1699C 56.3086 24.1699 54.3164 25.3359 54.3164 27.668C 54.3164 28.6875 54.6563 29.4844 55.3359 30.0586C 56.0156 30.6328 56.8887 30.9199 57.9551 30.9199ZM 74.7246 33.3984L 71.4727 33.3984L 71.4727 6.39844L 74.7246 6.39844L 74.7246 33.3984ZM 83.4785 33.3984L 80.2266 33.3984L 80.2266 14.3789L 83.4785 14.3789L 83.4785 33.3984ZM 79.9629 9.33398C 79.9629 8.80664 80.1211 8.36133 80.4375 7.99805C 80.7656 7.63477 81.2461 7.45312 81.8789 7.45312C 82.5117 7.45312 82.9922 7.63477 83.3203 7.99805C 83.6484 8.36133 83.8125 8.80664 83.8125 9.33398C 83.8125 9.86133 83.6484 10.3008 83.3203 10.6523C 82.9922 11.0039 82.5117 11.1797 81.8789 11.1797C 81.2461 11.1797 80.7656 11.0039 80.4375 10.6523C 80.1211 10.3008 79.9629 9.86133 79.9629 9.33398ZM 87.9082 23.7305C 87.9082 20.8125 88.5996 18.4688 89.9824 16.6992C 91.3652 14.918 93.1758 14.0273 95.4141 14.0273C 97.6406 14.0273 99.4043 14.7891 100.705 16.3125L 100.705 6.39844L 103.957 6.39844L 103.957 33.3984L 100.969 33.3984L 100.811 31.3594C 99.5098 32.9531 97.6992 33.75 95.3789 33.75C 93.1758 33.75 91.377 32.8477 89.9824 31.043C 88.5996 29.2383 87.9082 26.8828 87.9082 23.9766L 87.9082 23.7305ZM 91.1602 24.0996C 91.1602 26.2559 91.6055 27.9434 92.4961 29.1621C 93.3867 30.3809 94.6172 30.9902 96.1875 30.9902C 98.25 30.9902 99.7559 30.0645 100.705 28.2129L 100.705 19.4766C 99.7324 17.6836 98.2383 16.7871 96.2227 16.7871C 94.6289 16.7871 93.3867 17.4023 92.4961 18.6328C 91.6055 19.8633 91.1602 21.6855 91.1602 24.0996Z"/>
<path id="path40_fill" d="M 12.3574 23.0449L 6.3457 23.0449L 6.3457 33.3984L 2.95312 33.3984L 2.95312 7.80469L 11.4258 7.80469C 14.3086 7.80469 16.5234 8.46094 18.0703 9.77344C 19.6289 11.0859 20.4082 12.9961 20.4082 15.5039C 20.4082 17.0977 19.9746 18.4863 19.1074 19.6699C 18.252 20.8535 17.0566 21.7383 15.5215 22.3242L 21.5332 33.1875L 21.5332 33.3984L 17.9121 33.3984L 12.3574 23.0449ZM 6.3457 20.2852L 11.5312 20.2852C 13.207 20.2852 14.5371 19.8516 15.5215 18.9844C 16.5176 18.1172 17.0156 16.957 17.0156 15.5039C 17.0156 13.9219 16.541 12.709 15.5918 11.8652C 14.6543 11.0215 13.2949 10.5937 11.5137 10.582L 6.3457 10.582L 6.3457 20.2852ZM 30.9199 28.9863L 35.6309 14.3789L 38.9531 14.3789L 32.1328 33.3984L 29.6543 33.3984L 22.7637 14.3789L 26.0859 14.3789L 30.9199 28.9863ZM 53.5781 33.3984C 53.3906 33.0234 53.2383 32.3555 53.1211 31.3945C 51.6094 32.9648 49.8047 33.75 47.707 33.75C 45.832 33.75 44.291 33.2227 43.084 32.168C 41.8887 31.1016 41.291 29.7539 41.291 28.125C 41.291 26.1445 42.041 24.6094 43.541 23.5195C 45.0527 22.418 47.1738 21.8672 49.9043 21.8672L 53.0684 21.8672L 53.0684 20.373C 53.0684 19.2363 52.7285 18.334 52.0488 17.666C 51.3691 16.9863 50.3672 16.6465 49.043 16.6465C 47.8828 16.6465 46.9102 16.9395 46.125 17.5254C 45.3398 18.1113 44.9473 18.8203 44.9473 19.6523L 41.6777 19.6523C 41.6777 18.7031 42.0117 17.7891 42.6797 16.9102C 43.3594 16.0195 44.2734 15.3164 45.4219 14.8008C 46.582 14.2852 47.8535 14.0273 49.2363 14.0273C 51.4277 14.0273 53.1445 14.5781 54.3867 15.6797C 55.6289 16.7695 56.2734 18.2754 56.3203 20.1973L 56.3203 28.9512C 56.3203 30.6973 56.543 32.0859 56.9883 33.1172L 56.9883 33.3984L 53.5781 33.3984ZM 48.1816 30.9199C 49.2012 30.9199 50.168 30.6562 51.082 30.1289C 51.9961 29.6016 52.6582 28.916 53.0684 28.0723L 53.0684 24.1699L 50.5195 24.1699C 46.5352 24.1699 44.543 25.3359 44.543 27.668C 44.543 28.6875 44.8828 29.4844 45.5625 30.0586C 46.2422 30.6328 47.1152 30.9199 48.1816 30.9199ZM 64.9512 33.3984L 61.6992 33.3984L 61.6992 6.39844L 64.9512 6.39844L 64.9512 33.3984ZM 73.7051 33.3984L 70.4531 33.3984L 70.4531 14.3789L 73.7051 14.3789L 73.7051 33.3984ZM 70.1895 9.33398C 70.1895 8.80664 70.3477 8.36133 70.6641 7.99805C 70.9922 7.63477 71.4727 7.45312 72.1055 7.45312C 72.7383 7.45312 73.2188 7.63477 73.5469 7.99805C 73.875 8.36133 74.0391 8.80664 74.0391 9.33398C 74.0391 9.86133 73.875 10.3008 73.5469 10.6523C 73.2188 11.0039 72.7383 11.1797 72.1055 11.1797C 71.4727 11.1797 70.9922 11.0039 70.6641 10.6523C 70.3477 10.3008 70.1895 9.86133 70.1895 9.33398ZM 78.1348 23.7305C 78.1348 20.8125 78.8262 18.4688 80.209 16.6992C 81.5918 14.918 83.4023 14.0273 85.6406 14.0273C 87.8672 14.0273 89.6309 14.7891 90.9316 16.3125L 90.9316 6.39844L 94.1836 6.39844L 94.1836 33.3984L 91.1953 33.3984L 91.0371 31.3594C 89.7363 32.9531 87.9258 33.75 85.6055 33.75C 83.4023 33.75 81.6035 32.8477 80.209 31.043C 78.8262 29.2383 78.1348 26.8828 78.1348 23.9766L 78.1348 23.7305ZM 81.3867 24.0996C 81.3867 26.2559 81.832 27.9434 82.7227 29.1621C 83.6133 30.3809 84.8437 30.9902 86.4141 30.9902C 88.4766 30.9902 89.9824 30.0645 90.9316 28.2129L 90.9316 19.4766C 89.959 17.6836 88.4648 16.7871 86.4492 16.7871C 84.8555 16.7871 83.6133 17.4023 82.7227 18.6328C 81.832 19.8633 81.3867 21.6855 81.3867 24.0996Z"/>
<path id="path41_fill" d="M 1.59961 23.7129C 1.59961 21.8496 1.96289 20.1738 2.68945 18.6855C 3.42773 17.1973 4.44727 16.0488 5.74805 15.2402C 7.06055 14.4316 8.55469 14.0273 10.2305 14.0273C 12.8203 14.0273 14.9121 14.9238 16.5059 16.7168C 18.1113 18.5098 18.9141 20.8945 18.9141 23.8711L 18.9141 24.0996C 18.9141 25.9512 18.5566 27.6152 17.8418 29.0918C 17.1387 30.5566 16.125 31.6992 14.8008 32.5195C 13.4883 33.3398 11.9766 33.75 10.2656 33.75C 7.6875 33.75 5.5957 32.8535 3.99023 31.0605C 2.39648 29.2676 1.59961 26.8945 1.59961 23.9414L 1.59961 23.7129ZM 4.86914 24.0996C 4.86914 26.209 5.35547 27.9023 6.32812 29.1797C 7.3125 30.457 8.625 31.0957 10.2656 31.0957C 11.918 31.0957 13.2305 30.4512 14.2031 29.1621C 15.1758 27.8613 15.6621 26.0449 15.6621 23.7129C 15.6621 21.627 15.1641 19.9395 14.168 18.6504C 13.1836 17.3496 11.8711 16.6992 10.2305 16.6992C 8.625 16.6992 7.33008 17.3379 6.3457 18.6152C 5.36133 19.8926 4.86914 21.7207 4.86914 24.0996ZM 34.7344 31.5176C 33.4688 33.0059 31.6113 33.75 29.1621 33.75C 27.1348 33.75 25.5879 33.1641 24.5215 31.9922C 23.4668 30.8086 22.9336 29.0625 22.9219 26.7539L 22.9219 14.3789L 26.1738 14.3789L 26.1738 26.666C 26.1738 29.5488 27.3457 30.9902 29.6895 30.9902C 32.1738 30.9902 33.8262 30.0645 34.6465 28.2129L 34.6465 14.3789L 37.8984 14.3789L 37.8984 33.3984L 34.8047 33.3984L 34.7344 31.5176ZM 47.2676 9.77344L 47.2676 14.3789L 50.8184 14.3789L 50.8184 16.8926L 47.2676 16.8926L 47.2676 28.6875C 47.2676 29.4492 47.4258 30.0234 47.7422 30.4102C 48.0586 30.7852 48.5977 30.9727 49.3594 30.9727C 49.7344 30.9727 50.25 30.9023 50.9062 30.7617L 50.9062 33.3984C 50.0508 33.6328 49.2188 33.75 48.4102 33.75C 46.957 33.75 45.8613 33.3105 45.123 32.4316C 44.3848 31.5527 44.0156 30.3047 44.0156 28.6875L 44.0156 16.8926L 40.5527 16.8926L 40.5527 14.3789L 44.0156 14.3789L 44.0156 9.77344L 47.2676 9.77344Z"/>
<path id="path42_stroke" d="M 0 0L 56 0L 56 -5L 0 -5L 0 0Z"/>
<path id="path43_stroke" d="M 0 0L 74 0L 74 -5L 0 -5L 0 0Z"/>
<path id="path44_fill" d="M 6.86523 12.8027L 3.52539 12.8027L 3.52539 18.5547L 1.64062 18.5547L 1.64062 4.33594L 6.34766 4.33594C 7.94922 4.33594 9.17969 4.70052 10.0391 5.42969C 10.9049 6.15885 11.3379 7.22005 11.3379 8.61328C 11.3379 9.4987 11.097 10.2702 10.6152 10.9277C 10.14 11.5853 9.47591 12.0768 8.62305 12.4023L 11.9629 18.4375L 11.9629 18.5547L 9.95117 18.5547L 6.86523 12.8027ZM 3.52539 11.2695L 6.40625 11.2695C 7.33724 11.2695 8.07617 11.0286 8.62305 10.5469C 9.17643 10.0651 9.45312 9.42057 9.45312 8.61328C 9.45312 7.73438 9.18945 7.06055 8.66211 6.5918C 8.14128 6.12305 7.38607 5.88542 6.39648 5.87891L 3.52539 5.87891L 3.52539 11.2695ZM 15.9863 18.5547L 14.1113 18.5547L 14.1113 4.33594L 15.9863 4.33594L 15.9863 18.5547ZM 20.8496 7.98828L 20.9082 9.31641C 21.7155 8.30078 22.7702 7.79297 24.0723 7.79297C 26.3053 7.79297 27.4316 9.05273 27.4512 11.5723L 27.4512 18.5547L 25.6445 18.5547L 25.6445 11.5625C 25.638 10.8008 25.4622 10.2376 25.1172 9.87305C 24.7786 9.50846 24.248 9.32617 23.5254 9.32617C 22.9395 9.32617 22.4251 9.48242 21.9824 9.79492C 21.5397 10.1074 21.1947 10.5176 20.9473 11.0254L 20.9473 18.5547L 19.1406 18.5547L 19.1406 7.98828L 20.8496 7.98828ZM 29.7363 13.1836C 29.7363 11.5625 30.1204 10.2604 30.8887 9.27734C 31.6569 8.28776 32.6628 7.79297 33.9062 7.79297C 35.1432 7.79297 36.123 8.21615 36.8457 9.0625L 36.8457 3.55469L 38.6523 3.55469L 38.6523 18.5547L 36.9922 18.5547L 36.9043 17.4219C 36.1816 18.3073 35.1758 18.75 33.8867 18.75C 32.6628 18.75 31.6634 18.2487 30.8887 17.2461C 30.1204 16.2435 29.7363 14.9349 29.7363 13.3203L 29.7363 13.1836ZM 31.543 13.3887C 31.543 14.5866 31.7904 15.5241 32.2852 16.2012C 32.7799 16.8783 33.4635 17.2168 34.3359 17.2168C 35.4818 17.2168 36.3184 16.7025 36.8457 15.6738L 36.8457 10.8203C 36.3053 9.82422 35.4753 9.32617 34.3555 9.32617C 33.4701 9.32617 32.7799 9.66797 32.2852 10.3516C 31.7904 11.0352 31.543 12.0475 31.543 13.3887ZM 45.8496 18.75C 44.4173 18.75 43.252 18.2812 42.3535 17.3438C 41.4551 16.3997 41.0059 15.14 41.0059 13.5645L 41.0059 13.2324C 41.0059 12.1842 41.2044 11.25 41.6016 10.4297C 42.0052 9.60286 42.5651 8.95833 43.2812 8.49609C 44.0039 8.02734 44.7852 7.79297 45.625 7.79297C 46.9987 7.79297 48.0664 8.24544 48.8281 9.15039C 49.5898 10.0553 49.9707 11.3509 49.9707 13.0371L 49.9707 13.7891L 42.8125 13.7891C 42.8385 14.8307 43.1413 15.6738 43.7207 16.3184C 44.3066 16.9564 45.0488 17.2754 45.9473 17.2754C 46.5853 17.2754 47.1257 17.1452 47.5684 16.8848C 48.0111 16.6243 48.3984 16.2793 48.7305 15.8496L 49.834 16.709C 48.9486 18.0697 47.6204 18.75 45.8496 18.75ZM 45.625 9.27734C 44.8958 9.27734 44.2839 9.54427 43.7891 10.0781C 43.2943 10.6055 42.9883 11.3477 42.8711 12.3047L 48.1641 12.3047L 48.1641 12.168C 48.112 11.25 47.8646 10.5404 47.4219 10.0391C 46.9792 9.53125 46.3802 9.27734 45.625 9.27734ZM 55.6152 11.8457L 57.959 7.98828L 60.0684 7.98828L 56.6113 13.2129L 60.1758 18.5547L 58.0859 18.5547L 55.6445 14.5996L 53.2031 18.5547L 51.1035 18.5547L 54.668 13.2129L 51.2109 7.98828L 53.3008 7.98828L 55.6152 11.8457Z"/>
<path id="path45_stroke" d="M 749 164.047L 751.5 164.047L 751.5 159.047L 749 159.047L 749 164.047ZM 670.824 161.547L 668.324 161.547L 668.324 164.047L 670.824 164.047L 670.824 161.547ZM 670.824 0L 673.324 0L 673.324 -2.5L 670.824 -2.5L 670.824 0ZM 0 -2.5L -2.5 -2.5L -2.5 2.5L 0 2.5L 0 -2.5ZM 749 159.047L 670.824 159.047L 670.824 164.047L 749 164.047L 749 159.047ZM 673.324 161.547L 673.324 0L 668.324 0L 668.324 161.547L 673.324 161.547ZM 670.824 -2.5L 0 -2.5L 0 2.5L 670.824 2.5L 670.824 -2.5Z"/>
</defs>
</svg>
