<svg width="1976" height="886" viewBox="0 0 1976 886" version="1.1" xmlns="http://www.w3.org/2000/svg" xmlns:xlink="http://www.w3.org/1999/xlink" xmlns:figma="http://www.figma.com/figma/ns">
<title>Cache Way</title>
<desc>Created using Figma</desc>
<g id="Canvas" transform="translate(1255 280)" figma:type="canvas">
<g id="Rectangle-8" style="mix-blend-mode:normal;" figma:type="vector">
<use xlink:href="#path0_stroke" transform="translate(-1076.84 -275)" fill="#979797" style="mix-blend-mode:normal;"/>
</g>
<g id="Line" style="mix-blend-mode:normal;" figma:type="vector">
<use xlink:href="#path1_stroke" transform="translate(-1009.98 -28.0392)" fill="#979797" style="mix-blend-mode:normal;"/>
</g>
<g id="Line" style="mix-blend-mode:normal;" figma:type="vector">
<use xlink:href="#path2_stroke" transform="translate(-984.93 -101.95)" fill="#979797" style="mix-blend-mode:normal;"/>
</g>
<g id="Combined-Shape" style="mix-blend-mode:normal;" figma:type="vector">
<use xlink:href="#path3_stroke" transform="matrix(1 2.44929e-16 -2.44929e-16 1 -463.353 108)" style="mix-blend-mode:normal;"/>
</g>
<g id="Line" style="mix-blend-mode:normal;" figma:type="vector">
<use xlink:href="#path4_stroke" transform="translate(-410.853 139.5)" fill="#979797" style="mix-blend-mode:normal;"/>
</g>
<g id="Line" style="mix-blend-mode:normal;" figma:type="vector">
<use xlink:href="#path5_stroke" transform="translate(-351.853 96.5)" fill="#979797" style="mix-blend-mode:normal;"/>
</g>
<g id="Line" style="mix-blend-mode:normal;" figma:type="vector">
<use xlink:href="#path6_stroke" transform="translate(-180.853 336.5)" fill="#979797" style="mix-blend-mode:normal;"/>
</g>
<g id="Line-decoration-1" style="mix-blend-mode:normal;" figma:type="vector">
<use xlink:href="#path7_stroke" transform="translate(-183.853 538.039)" fill="#979797" style="mix-blend-mode:normal;"/>
</g>
<g id="Line-Copy-15" style="mix-blend-mode:normal;" figma:type="vector">
<use xlink:href="#path6_stroke" transform="translate(124.147 336.5)" fill="#979797" style="mix-blend-mode:normal;"/>
</g>
<g id="Line-Copy-15-decoration-1" style="mix-blend-mode:normal;" figma:type="vector">
<use xlink:href="#path7_stroke" transform="translate(121.147 538.039)" fill="#979797" style="mix-blend-mode:normal;"/>
</g>
<g id="Line-Copy-16" style="mix-blend-mode:normal;" figma:type="vector">
<use xlink:href="#path6_stroke" transform="translate(507.147 336.5)" fill="#979797" style="mix-blend-mode:normal;"/>
</g>
<g id="Line-Copy-16-decoration-1" style="mix-blend-mode:normal;" figma:type="vector">
<use xlink:href="#path7_stroke" transform="translate(504.147 538.039)" fill="#979797" style="mix-blend-mode:normal;"/>
</g>
<g id="Line" style="mix-blend-mode:normal;" figma:type="vector">
<use xlink:href="#path8_stroke" transform="translate(-1183.92 -28.0474)" fill="#979797" style="mix-blend-mode:normal;"/>
</g>
<g id="Combined-Shape" style="mix-blend-mode:normal;" figma:type="vector">
<use xlink:href="#path9_stroke" transform="matrix(1 2.44929e-16 -2.44929e-16 1 -926.756 106.601)" style="mix-blend-mode:normal;"/>
</g>
<g id="Line" style="mix-blend-mode:normal;" figma:type="vector">
<use xlink:href="#path10_stroke" transform="translate(-874.882 138.5)" fill="#979797" style="mix-blend-mode:normal;"/>
</g>
<g id="Line" style="mix-blend-mode:normal;" figma:type="vector">
<use xlink:href="#path11_stroke" transform="translate(-1175.59 -175.182)" fill="#979797" style="mix-blend-mode:normal;"/>
</g>
<g id="in" style="mix-blend-mode:normal;" figma:type="text">
<use xlink:href="#path12_fill" transform="translate(-711.752 84)" style="mix-blend-mode:normal;"/>
</g>
<g id="index" style="mix-blend-mode:normal;" figma:type="text">
<use xlink:href="#path13_fill" transform="translate(-712.5 45)" style="mix-blend-mode:normal;"/>
</g>
<g id="we" style="mix-blend-mode:normal;" figma:type="text">
<use xlink:href="#path14_fill" transform="translate(-715.181 121)" style="mix-blend-mode:normal;"/>
</g>
<g id="Rectangle-9" style="mix-blend-mode:normal;" figma:type="vector">
<use xlink:href="#path15_stroke" transform="translate(375.155 28.4248)" fill="#979797" style="mix-blend-mode:normal;"/>
</g>
<g id="Rectangle-9-Copy" style="mix-blend-mode:normal;" figma:type="vector">
<use xlink:href="#path16_stroke" transform="translate(4.47913 28.4248)" fill="#979797" style="mix-blend-mode:normal;"/>
</g>
<g id="Rectangle-9-Copy-2" style="mix-blend-mode:normal;" figma:type="vector">
<use xlink:href="#path17_stroke" transform="translate(-295.239 28.4248)" fill="#979797" style="mix-blend-mode:normal;"/>
</g>
<g id="Rectangle-9-Copy-3" style="mix-blend-mode:normal;" figma:type="vector">
<use xlink:href="#path18_stroke" transform="translate(-723.634 28.4248)" fill="#979797" style="mix-blend-mode:normal;"/>
</g>
<g id="Line" style="mix-blend-mode:normal;" figma:type="vector">
<use xlink:href="#path19_stroke" transform="translate(-1177.45 -238.197)" fill="#979797" style="mix-blend-mode:normal;"/>
</g>
<g id="Line" style="mix-blend-mode:normal;" figma:type="vector">
<use xlink:href="#path20_stroke" transform="translate(-25.8525 3.5)" fill="#979797" style="mix-blend-mode:normal;"/>
</g>
<g id="Line" style="mix-blend-mode:normal;" figma:type="vector">
<use xlink:href="#path21_stroke" transform="translate(-93.8525 -25.5)" fill="#979797" style="mix-blend-mode:normal;"/>
</g>
<g id="Line" style="mix-blend-mode:normal;" figma:type="vector">
<use xlink:href="#path22_stroke" transform="translate(-1180.55 -101.882)" fill="#979797" style="mix-blend-mode:normal;"/>
</g>
<g id="Line" style="mix-blend-mode:normal;" figma:type="vector">
<use xlink:href="#path23_stroke" transform="translate(-601.853 338.5)" fill="#979797" style="mix-blend-mode:normal;"/>
</g>
<g id="Line-decoration-1" style="mix-blend-mode:normal;" figma:type="vector">
<use xlink:href="#path24_stroke" transform="translate(-604.853 541.758)" fill="#979797" style="mix-blend-mode:normal;"/>
</g>
<g id="out" style="mix-blend-mode:normal;" figma:type="text">
<use xlink:href="#path25_fill" transform="translate(-618.178 303)" style="mix-blend-mode:normal;"/>
</g>
<g id="out" style="mix-blend-mode:normal;" figma:type="text">
<use xlink:href="#path25_fill" transform="translate(-196.178 303)" style="mix-blend-mode:normal;"/>
</g>
<g id="out-copy" style="mix-blend-mode:normal;" figma:type="text">
<use xlink:href="#path25_fill" transform="translate(108.822 303)" style="mix-blend-mode:normal;"/>
</g>
<g id="out-copy-2" style="mix-blend-mode:normal;" figma:type="text">
<use xlink:href="#path25_fill" transform="translate(491.822 303)" style="mix-blend-mode:normal;"/>
</g>
<g id="in" style="mix-blend-mode:normal;" figma:type="text">
<use xlink:href="#path12_fill" transform="translate(-278.951 83)" style="mix-blend-mode:normal;"/>
</g>
<g id="in-copy" style="mix-blend-mode:normal;" figma:type="text">
<use xlink:href="#path12_fill" transform="translate(32.0488 85)" style="mix-blend-mode:normal;"/>
</g>
<g id="Line" style="mix-blend-mode:normal;" figma:type="vector">
<use xlink:href="#path26_stroke" transform="translate(-489.853 -101.5)" fill="#979797" style="mix-blend-mode:normal;"/>
</g>
<g id="Line" style="mix-blend-mode:normal;" figma:type="vector">
<use xlink:href="#path27_stroke" transform="translate(-536.853 -27.5)" fill="#979797" style="mix-blend-mode:normal;"/>
</g>
<g id="Line" style="mix-blend-mode:normal;" figma:type="vector">
<use xlink:href="#path28_stroke" transform="translate(-347.853 4.5)" fill="#979797" style="mix-blend-mode:normal;"/>
</g>
<g id="in-copy-2" style="mix-blend-mode:normal;" figma:type="text">
<use xlink:href="#path12_fill" transform="translate(399.049 81)" style="mix-blend-mode:normal;"/>
</g>
<g id="we" style="mix-blend-mode:normal;" figma:type="text">
<use xlink:href="#path14_fill" transform="translate(-279.181 123)" style="mix-blend-mode:normal;"/>
</g>
<g id="we-copy" style="mix-blend-mode:normal;" figma:type="text">
<use xlink:href="#path14_fill" transform="translate(31.8193 125)" style="mix-blend-mode:normal;"/>
</g>
<g id="we-copy-2" style="mix-blend-mode:normal;" figma:type="text">
<use xlink:href="#path14_fill" transform="translate(402.819 116)" style="mix-blend-mode:normal;"/>
</g>
<g id="1" style="mix-blend-mode:normal;" figma:type="text">
<use xlink:href="#path29_fill" transform="translate(-375.182 81)" style="mix-blend-mode:normal;"/>
</g>
<g id="Line" style="mix-blend-mode:normal;" figma:type="vector">
<use xlink:href="#path30_stroke" transform="translate(-1184.46 3.73865)" fill="#979797" style="mix-blend-mode:normal;"/>
</g>
<g id="Line" style="mix-blend-mode:normal;" figma:type="vector">
<use xlink:href="#path31_stroke" transform="translate(-349.853 3.5)" fill="#979797" style="mix-blend-mode:normal;"/>
</g>
<g id="index" style="mix-blend-mode:normal;" figma:type="text">
<use xlink:href="#path13_fill" transform="translate(-1256 -11)" style="mix-blend-mode:normal;"/>
</g>
<g id="we" style="mix-blend-mode:normal;" figma:type="text">
<use xlink:href="#path14_fill" transform="translate(-1231.18 -43)" style="mix-blend-mode:normal;"/>
</g>
<g id="new" style="mix-blend-mode:normal;" figma:type="text">
<use xlink:href="#path32_fill" transform="translate(-1237.17 -117)" style="mix-blend-mode:normal;"/>
</g>
<g id="tag" style="mix-blend-mode:normal;" figma:type="text">
<use xlink:href="#path33_fill" transform="translate(-1229.04 -190)" style="mix-blend-mode:normal;"/>
</g>
<g id="in" style="mix-blend-mode:normal;" figma:type="text">
<use xlink:href="#path12_fill" transform="translate(-1216.95 -253)" style="mix-blend-mode:normal;"/>
</g>
<g id="index" style="mix-blend-mode:normal;" figma:type="text">
<use xlink:href="#path13_fill" transform="translate(-279 45)" style="mix-blend-mode:normal;"/>
</g>
<g id="index-copy" style="mix-blend-mode:normal;" figma:type="text">
<use xlink:href="#path13_fill" transform="translate(32 47)" style="mix-blend-mode:normal;"/>
</g>
<g id="index-copy-2" style="mix-blend-mode:normal;" figma:type="text">
<use xlink:href="#path13_fill" transform="translate(399 47)" style="mix-blend-mode:normal;"/>
</g>
<g id="TAGS" style="mix-blend-mode:normal;" figma:type="text">
<use xlink:href="#path34_fill" transform="translate(-686.177 157)" style="mix-blend-mode:normal;"/>
</g>
<g id="VALID" style="mix-blend-mode:normal;" figma:type="text">
<use xlink:href="#path35_fill" transform="translate(-267.036 157)" style="mix-blend-mode:normal;"/>
</g>
<g id="DIRTY" style="mix-blend-mode:normal;" figma:type="text">
<use xlink:href="#path36_fill" transform="translate(32.0508 157)" style="mix-blend-mode:normal;"/>
</g>
<g id="DATA" style="mix-blend-mode:normal;" figma:type="text">
<use xlink:href="#path37_fill" transform="translate(407.357 151)" style="mix-blend-mode:normal;"/>
</g>
<g id="Oval-7" style="mix-blend-mode:normal;" figma:type="vector">
<use xlink:href="#path38_fill" transform="translate(-1021.35 -38)" style="mix-blend-mode:normal;"/>
</g>
<g id="Oval-7-Copy" style="mix-blend-mode:normal;" figma:type="vector">
<use xlink:href="#path38_fill" transform="translate(-999.353 -112)" style="mix-blend-mode:normal;"/>
</g>
<g id="Oval-7-Copy-2" style="mix-blend-mode:normal;" figma:type="vector">
<use xlink:href="#path38_fill" transform="translate(-547.353 -36)" style="mix-blend-mode:normal;"/>
</g>
<g id="Oval-7-Copy-3" style="mix-blend-mode:normal;" figma:type="vector">
<use xlink:href="#path38_fill" transform="translate(-500.353 -113)" style="mix-blend-mode:normal;"/>
</g>
<g id="Oval-7-Copy-4" style="mix-blend-mode:normal;" figma:type="vector">
<use xlink:href="#path38_fill" transform="translate(-36.3525 -5)" style="mix-blend-mode:normal;"/>
</g>
<g id="Oval-7-Copy-4" style="mix-blend-mode:normal;" figma:type="vector">
<use xlink:href="#path38_fill" transform="translate(-358.853 -5)" style="mix-blend-mode:normal;"/>
</g>
<g id="Oval-7-Copy-5" style="mix-blend-mode:normal;" figma:type="vector">
<use xlink:href="#path38_fill" transform="translate(-104.353 -36)" style="mix-blend-mode:normal;"/>
</g>
<g id="tag" style="mix-blend-mode:normal;" figma:type="text">
<use xlink:href="#path39_fill" transform="translate(-628.583 564)" style="mix-blend-mode:normal;"/>
</g>
<g id="valid" style="mix-blend-mode:normal;" figma:type="text">
<use xlink:href="#path40_fill" transform="translate(-224.345 564)" style="mix-blend-mode:normal;"/>
</g>
<g id="dirty" style="mix-blend-mode:normal;" figma:type="text">
<use xlink:href="#path41_fill" transform="translate(86.9727 564)" style="mix-blend-mode:normal;"/>
</g>
<g id="out" style="mix-blend-mode:normal;" figma:type="text">
<use xlink:href="#path42_fill" transform="translate(481.662 564)" style="mix-blend-mode:normal;"/>
</g>
<g id="Line 2" style="mix-blend-mode:normal;" figma:type="line">
<use xlink:href="#path43_stroke" transform="matrix(6.12323e-17 1 -1 6.12323e-17 -781 4)" fill="#979797" style="mix-blend-mode:normal;"/>
</g>
<g id="Line 3" style="mix-blend-mode:normal;" figma:type="line">
<use xlink:href="#path44_stroke" transform="translate(-781 57)" fill="#979797" style="mix-blend-mode:normal;"/>
</g>
<g id="Oval-7-Copy-4" style="mix-blend-mode:normal;" figma:type="vector">
<use xlink:href="#path38_fill" transform="translate(-790 -5.75)" style="mix-blend-mode:normal;"/>
</g>
</g>
<defs>
<path id="path0_stroke" d="M 1.2207e-06 0L 1.2207e-06 -5L -5 -5L -5 0L 1.2207e-06 0ZM 1792.48 0L 1797.48 0L 1797.48 -5L 1792.48 -5L 1792.48 0ZM 1792.48 794.306L 1792.48 799.306L 1797.48 799.306L 1797.48 794.306L 1792.48 794.306ZM 1.2207e-06 794.306L -5 794.306L -5 799.306L 1.2207e-06 799.306L 1.2207e-06 794.306ZM 1.2207e-06 5L 1792.48 5L 1792.48 -5L 1.2207e-06 -5L 1.2207e-06 5ZM 1787.48 0L 1787.48 794.306L 1797.48 794.306L 1797.48 0L 1787.48 0ZM 1792.48 789.306L 1.2207e-06 789.306L 1.2207e-06 799.306L 1792.48 799.306L 1792.48 789.306ZM 5 794.306L 5 0L -5 0L -5 794.306L 5 794.306Z"/>
<path id="path1_stroke" d="M 545.129 178.039L 547.629 178.039L 547.629 173.039L 545.129 173.039L 545.129 178.039ZM 475.948 175.539L 473.448 175.539L 473.448 178.039L 475.948 178.039L 475.948 175.539ZM 475.948 -3.57031e-06L 478.448 -3.57031e-06L 478.448 -2.5L 475.948 -2.5L 475.948 -3.57031e-06ZM -2.62695e-06 -2.5L -2.5 -2.5L -2.5 2.5L -2.62695e-06 2.5L -2.62695e-06 -2.5ZM 545.129 173.039L 475.948 173.039L 475.948 178.039L 545.129 178.039L 545.129 173.039ZM 478.448 175.539L 478.448 -3.57031e-06L 473.448 -3.57031e-06L 473.448 175.539L 478.448 175.539ZM 475.948 -2.5L -2.62695e-06 -2.5L -2.62695e-06 2.5L 475.948 2.5L 475.948 -2.5Z"/>
<path id="path2_stroke" d="M 518.077 224.95L 520.577 224.95L 520.577 219.95L 518.077 219.95L 518.077 224.95ZM 497.077 222.45L 494.577 222.45L 494.577 224.95L 497.077 224.95L 497.077 222.45ZM 497.077 -5.77246e-06L 499.577 -5.77246e-06L 499.577 -2.50001L 497.077 -2.50001L 497.077 -5.77246e-06ZM 4.63281e-06 -2.50001L -2.5 -2.50001L -2.5 2.49999L 4.63281e-06 2.49999L 4.63281e-06 -2.50001ZM 518.077 219.95L 497.077 219.95L 497.077 224.95L 518.077 224.95L 518.077 219.95ZM 499.577 222.45L 499.577 -5.77246e-06L 494.577 -5.77246e-06L 494.577 222.45L 499.577 222.45ZM 497.077 -2.50001L 4.63281e-06 -2.50001L 4.63281e-06 2.49999L 497.077 2.49999L 497.077 -2.50001Z"/>
<path id="path3_stroke" d="M 0 60.9421L -2.5 60.9421L -2.5 63.4538L 0.0116436 63.4421L 0 60.9421ZM 0 0L 0.0116437 -2.49997L -2.5 -2.51167L -2.5 0L 0 0ZM 0.0116436 63.4421C 14.6631 63.3739 28.0325 59.8604 37.8239 54.0905C 47.5569 48.355 54.1754 40.0931 54.1754 30.4711L 49.1754 30.4711C 49.1754 37.5957 44.2455 44.5027 35.2854 49.7828C 26.3836 55.0285 13.9153 58.3773 -0.0116436 58.4422L 0.0116436 63.4421ZM 54.1754 30.4711C 54.1754 20.8491 47.5569 12.5872 37.8239 6.85163C 28.0325 1.08172 14.6631 -2.43173 0.0116437 -2.49997L -0.0116437 2.49997C 13.9153 2.56484 26.3836 5.91363 35.2854 11.1593C 44.2455 16.4394 49.1754 23.3465 49.1754 30.4711L 54.1754 30.4711ZM -2.5 0L -2.5 60.9421L 2.5 60.9421L 2.5 0L -2.5 0Z"/>
<path id="path4_stroke" d="M 0 -2.5L -2.5 -2.5L -2.5 2.5L 0 2.5L 0 -2.5ZM 118.009 2.5L 120.509 2.5L 120.509 -2.5L 118.009 -2.5L 118.009 2.5ZM 0 2.5L 118.009 2.5L 118.009 -2.5L 0 -2.5L 0 2.5Z"/>
<path id="path5_stroke" d="M 0 -2.5L -2.5 -2.5L -2.5 2.5L 0 2.5L 0 -2.5ZM 59.1354 2.5L 61.6354 2.5L 61.6354 -2.5L 59.1354 -2.5L 59.1354 2.5ZM 0 2.5L 59.1354 2.5L 59.1354 -2.5L 0 -2.5L 0 2.5Z"/>
<path id="path6_stroke" d="M 2.5 0L 2.5 -2.5L -2.5 -2.5L -2.5 0L 2.5 0ZM -2.5 212.339L -2.5 214.839L 2.5 214.839L 2.5 212.339L -2.5 212.339ZM -2.5 0L -2.5 212.339L 2.5 212.339L 2.5 0L -2.5 0Z"/>
<path id="path7_stroke" d="M 2.40879 -0.669094L 1.73968 -3.07789L -3.0779 -1.73967L -2.40879 0.669127L 2.40879 -0.669094ZM 3 10.8L 0.591205 11.4691L 3 20.1408L 5.40879 11.4691L 3 10.8ZM 8.40879 0.669127L 9.0779 -1.73967L 4.26032 -3.07789L 3.59121 -0.669094L 8.40879 0.669127ZM -2.40879 0.669127L 0.591205 11.4691L 5.40879 10.1309L 2.40879 -0.669094L -2.40879 0.669127ZM 5.40879 11.4691L 8.40879 0.669127L 3.59121 -0.669094L 0.591205 10.1309L 5.40879 11.4691Z"/>
<path id="path8_stroke" d="M 257.07 182.047L 259.57 182.047L 259.57 177.047L 257.07 177.047L 257.07 182.047ZM 173.017 179.547L 170.517 179.547L 170.517 182.047L 173.017 182.047L 173.017 179.547ZM 173.017 7.20117e-06L 175.517 7.20117e-06L 175.517 -2.49999L 173.017 -2.49999L 173.017 7.20117e-06ZM 9.99707e-07 -2.49999L -2.5 -2.49999L -2.5 2.50001L 9.99707e-07 2.50001L 9.99707e-07 -2.49999ZM 257.07 177.047L 173.017 177.047L 173.017 182.047L 257.07 182.047L 257.07 177.047ZM 175.517 179.547L 175.517 7.20117e-06L 170.517 7.20117e-06L 170.517 179.547L 175.517 179.547ZM 173.017 -2.49999L 9.99707e-07 -2.49999L 9.99707e-07 2.50001L 173.017 2.50001L 173.017 -2.49999Z"/>
<path id="path9_stroke" d="M -7.59766e-07 60.9422L -2.5 60.9422L -2.5 63.4538L 0.0116429 63.4421L -7.59766e-07 60.9422ZM -7.59766e-07 -6.88672e-06L 0.0116429 -2.49998L -2.5 -2.51168L -2.5 -6.88672e-06L -7.59766e-07 -6.88672e-06ZM 0.0116429 63.4421C 14.6631 63.3739 28.0325 59.8604 37.8239 54.0905C 47.5569 48.355 54.1754 40.0931 54.1754 30.4711L 49.1754 30.4711C 49.1754 37.5956 44.2455 44.5027 35.2854 49.7828C 26.3836 55.0285 13.9153 58.3773 -0.0116445 58.4422L 0.0116429 63.4421ZM 54.1754 30.4711C 54.1754 20.849 47.5569 12.5872 37.8239 6.85162C 28.0325 1.08171 14.6631 -2.43174 0.0116429 -2.49998L -0.0116445 2.49997C 13.9153 2.56483 26.3836 5.91362 35.2854 11.1593C 44.2455 16.4394 49.1754 23.3465 49.1754 30.4711L 54.1754 30.4711ZM -2.5 -6.88672e-06L -2.5 60.9422L 2.5 60.9422L 2.5 -6.88672e-06L -2.5 -6.88672e-06Z"/>
<path id="path10_stroke" d="M 153.029 2.5L 155.529 2.5L 155.529 -2.5L 153.029 -2.5L 153.029 2.5ZM -9.94531e-06 -2.5L -2.50001 -2.5L -2.50001 2.5L -9.94531e-06 2.5L -9.94531e-06 -2.5ZM 153.029 -2.5L -9.94531e-06 -2.5L -9.94531e-06 2.5L 153.029 2.5L 153.029 -2.5Z"/>
<path id="path11_stroke" d="M -2.10088e-06 -2.5L -2.5 -2.5L -2.5 2.5L -2.10088e-06 2.5L -2.10088e-06 -2.5ZM 333.88 3.32344e-06L 336.38 3.32344e-06L 336.38 -2.5L 333.88 -2.5L 333.88 3.32344e-06ZM 333.88 274.163L 331.38 274.163L 331.38 276.663L 333.88 276.663L 333.88 274.163ZM 451.869 276.663L 454.369 276.663L 454.369 271.663L 451.869 271.663L 451.869 276.663ZM -2.10088e-06 2.5L 333.88 2.5L 333.88 -2.5L -2.10088e-06 -2.5L -2.10088e-06 2.5ZM 331.38 3.32344e-06L 331.38 274.163L 336.38 274.163L 336.38 3.32344e-06L 331.38 3.32344e-06ZM 333.88 276.663L 451.869 276.663L 451.869 271.663L 333.88 271.663L 333.88 276.663Z"/>
<path id="path12_fill" d="M 3.33008 18.5547L 1.52344 18.5547L 1.52344 7.98828L 3.33008 7.98828L 3.33008 18.5547ZM 1.37695 5.18555C 1.37695 4.89258 1.46484 4.64518 1.64062 4.44336C 1.82292 4.24154 2.08984 4.14062 2.44141 4.14062C 2.79297 4.14062 3.0599 4.24154 3.24219 4.44336C 3.42448 4.64518 3.51562 4.89258 3.51562 5.18555C 3.51562 5.47852 3.42448 5.72266 3.24219 5.91797C 3.0599 6.11328 2.79297 6.21094 2.44141 6.21094C 2.08984 6.21094 1.82292 6.11328 1.64062 5.91797C 1.46484 5.72266 1.37695 5.47852 1.37695 5.18555ZM 7.93945 7.98828L 7.99805 9.31641C 8.80534 8.30078 9.86003 7.79297 11.1621 7.79297C 13.3952 7.79297 14.5215 9.05273 14.541 11.5723L 14.541 18.5547L 12.7344 18.5547L 12.7344 11.5625C 12.7279 10.8008 12.5521 10.2376 12.207 9.87305C 11.8685 9.50846 11.3379 9.32617 10.6152 9.32617C 10.0293 9.32617 9.51497 9.48242 9.07227 9.79492C 8.62956 10.1074 8.28451 10.5176 8.03711 11.0254L 8.03711 18.5547L 6.23047 18.5547L 6.23047 7.98828L 7.93945 7.98828Z"/>
<path id="path13_fill" d="M 3.33008 18.5547L 1.52344 18.5547L 1.52344 7.98828L 3.33008 7.98828L 3.33008 18.5547ZM 1.37695 5.18555C 1.37695 4.89258 1.46484 4.64518 1.64062 4.44336C 1.82292 4.24154 2.08984 4.14062 2.44141 4.14062C 2.79297 4.14062 3.0599 4.24154 3.24219 4.44336C 3.42448 4.64518 3.51562 4.89258 3.51562 5.18555C 3.51562 5.47852 3.42448 5.72266 3.24219 5.91797C 3.0599 6.11328 2.79297 6.21094 2.44141 6.21094C 2.08984 6.21094 1.82292 6.11328 1.64062 5.91797C 1.46484 5.72266 1.37695 5.47852 1.37695 5.18555ZM 7.93945 7.98828L 7.99805 9.31641C 8.80534 8.30078 9.86003 7.79297 11.1621 7.79297C 13.3952 7.79297 14.5215 9.05273 14.541 11.5723L 14.541 18.5547L 12.7344 18.5547L 12.7344 11.5625C 12.7279 10.8008 12.5521 10.2376 12.207 9.87305C 11.8685 9.50846 11.3379 9.32617 10.6152 9.32617C 10.0293 9.32617 9.51497 9.48242 9.07227 9.79492C 8.62956 10.1074 8.28451 10.5176 8.03711 11.0254L 8.03711 18.5547L 6.23047 18.5547L 6.23047 7.98828L 7.93945 7.98828ZM 16.8262 13.1836C 16.8262 11.5625 17.2103 10.2604 17.9785 9.27734C 18.7467 8.28776 19.7526 7.79297 20.9961 7.79297C 22.2331 7.79297 23.2129 8.21615 23.9355 9.0625L 23.9355 3.55469L 25.7422 3.55469L 25.7422 18.5547L 24.082 18.5547L 23.9941 17.4219C 23.2715 18.3073 22.2656 18.75 20.9766 18.75C 19.7526 18.75 18.7533 18.2487 17.9785 17.2461C 17.2103 16.2435 16.8262 14.9349 16.8262 13.3203L 16.8262 13.1836ZM 18.6328 13.3887C 18.6328 14.5866 18.8802 15.5241 19.375 16.2012C 19.8698 16.8783 20.5534 17.2168 21.4258 17.2168C 22.5716 17.2168 23.4082 16.7025 23.9355 15.6738L 23.9355 10.8203C 23.3952 9.82422 22.5651 9.32617 21.4453 9.32617C 20.5599 9.32617 19.8698 9.66797 19.375 10.3516C 18.8802 11.0352 18.6328 12.0475 18.6328 13.3887ZM 32.9395 18.75C 31.5072 18.75 30.3418 18.2812 29.4434 17.3438C 28.5449 16.3997 28.0957 15.14 28.0957 13.5645L 28.0957 13.2324C 28.0957 12.1842 28.2943 11.25 28.6914 10.4297C 29.0951 9.60286 29.6549 8.95833 30.3711 8.49609C 31.0938 8.02734 31.875 7.79297 32.7148 7.79297C 34.0885 7.79297 35.1562 8.24544 35.918 9.15039C 36.6797 10.0553 37.0605 11.3509 37.0605 13.0371L 37.0605 13.7891L 29.9023 13.7891C 29.9284 14.8307 30.2311 15.6738 30.8105 16.3184C 31.3965 16.9564 32.1387 17.2754 33.0371 17.2754C 33.6751 17.2754 34.2155 17.1452 34.6582 16.8848C 35.1009 16.6243 35.4883 16.2793 35.8203 15.8496L 36.9238 16.709C 36.0384 18.0697 34.7103 18.75 32.9395 18.75ZM 32.7148 9.27734C 31.9857 9.27734 31.3737 9.54427 30.8789 10.0781C 30.3841 10.6055 30.0781 11.3477 29.9609 12.3047L 35.2539 12.3047L 35.2539 12.168C 35.2018 11.25 34.9544 10.5404 34.5117 10.0391C 34.069 9.53125 33.4701 9.27734 32.7148 9.27734ZM 42.7051 11.8457L 45.0488 7.98828L 47.1582 7.98828L 43.7012 13.2129L 47.2656 18.5547L 45.1758 18.5547L 42.7344 14.5996L 40.293 18.5547L 38.1934 18.5547L 41.7578 13.2129L 38.3008 7.98828L 40.3906 7.98828L 42.7051 11.8457Z"/>
<path id="path14_fill" d="M 10.7227 16.0645L 12.7539 7.98828L 14.5605 7.98828L 11.4844 18.5547L 10.0195 18.5547L 7.45117 10.5469L 4.95117 18.5547L 3.48633 18.5547L 0.419922 7.98828L 2.2168 7.98828L 4.29688 15.8984L 6.75781 7.98828L 8.21289 7.98828L 10.7227 16.0645ZM 20.791 18.75C 19.3587 18.75 18.1934 18.2812 17.2949 17.3438C 16.3965 16.3997 15.9473 15.14 15.9473 13.5645L 15.9473 13.2324C 15.9473 12.1842 16.1458 11.25 16.543 10.4297C 16.9466 9.60286 17.5065 8.95833 18.2227 8.49609C 18.9453 8.02734 19.7266 7.79297 20.5664 7.79297C 21.9401 7.79297 23.0078 8.24544 23.7695 9.15039C 24.5312 10.0553 24.9121 11.3509 24.9121 13.0371L 24.9121 13.7891L 17.7539 13.7891C 17.7799 14.8307 18.0827 15.6738 18.6621 16.3184C 19.248 16.9564 19.9902 17.2754 20.8887 17.2754C 21.5267 17.2754 22.0671 17.1452 22.5098 16.8848C 22.9525 16.6243 23.3398 16.2793 23.6719 15.8496L 24.7754 16.709C 23.89 18.0697 22.5618 18.75 20.791 18.75ZM 20.5664 9.27734C 19.8372 9.27734 19.2253 9.54427 18.7305 10.0781C 18.2357 10.6055 17.9297 11.3477 17.8125 12.3047L 23.1055 12.3047L 23.1055 12.168C 23.0534 11.25 22.806 10.5404 22.3633 10.0391C 21.9206 9.53125 21.3216 9.27734 20.5664 9.27734Z"/>
<path id="path15_stroke" d="M 5.04297e-05 9.16992e-06L 5.04297e-05 -4.99999L -4.99995 -4.99999L -4.99995 9.16992e-06L 5.04297e-05 9.16992e-06ZM 163.097 9.16992e-06L 168.097 9.16992e-06L 168.097 -4.99999L 163.097 -4.99999L 163.097 9.16992e-06ZM 163.097 310.309L 163.097 315.309L 168.097 315.309L 168.097 310.309L 163.097 310.309ZM 5.04297e-05 310.309L -4.99995 310.309L -4.99995 315.309L 5.04297e-05 315.309L 5.04297e-05 310.309ZM 5.04297e-05 5.00001L 163.097 5.00001L 163.097 -4.99999L 5.04297e-05 -4.99999L 5.04297e-05 5.00001ZM 158.097 9.16992e-06L 158.097 310.309L 168.097 310.309L 168.097 9.16992e-06L 158.097 9.16992e-06ZM 163.097 305.309L 5.04297e-05 305.309L 5.04297e-05 315.309L 163.097 315.309L 163.097 305.309ZM 5.00005 310.309L 5.00005 9.16992e-06L -4.99995 9.16992e-06L -4.99995 310.309L 5.00005 310.309Z"/>
<path id="path16_stroke" d="M 5.03906e-06 9.16992e-06L 5.03906e-06 -4.99999L -4.99999 -4.99999L -4.99999 9.16992e-06L 5.03906e-06 9.16992e-06ZM 163.097 9.16992e-06L 168.097 9.16992e-06L 168.097 -4.99999L 163.097 -4.99999L 163.097 9.16992e-06ZM 163.097 310.309L 163.097 315.309L 168.097 315.309L 168.097 310.309L 163.097 310.309ZM 5.03906e-06 310.309L -4.99999 310.309L -4.99999 315.309L 5.03906e-06 315.309L 5.03906e-06 310.309ZM 5.03906e-06 5.00001L 163.097 5.00001L 163.097 -4.99999L 5.03906e-06 -4.99999L 5.03906e-06 5.00001ZM 158.097 9.16992e-06L 158.097 310.309L 168.097 310.309L 168.097 9.16992e-06L 158.097 9.16992e-06ZM 163.097 305.309L 5.03906e-06 305.309L 5.03906e-06 315.309L 163.097 315.309L 163.097 305.309ZM 5.00001 310.309L 5.00001 9.16992e-06L -4.99999 9.16992e-06L -4.99999 310.309L 5.00001 310.309Z"/>
<path id="path17_stroke" d="M -5.53906e-06 9.16992e-06L -5.53906e-06 -4.99999L -5.00001 -4.99999L -5.00001 9.16992e-06L -5.53906e-06 9.16992e-06ZM 163.097 9.16992e-06L 168.097 9.16992e-06L 168.097 -4.99999L 163.097 -4.99999L 163.097 9.16992e-06ZM 163.097 310.309L 163.097 315.309L 168.097 315.309L 168.097 310.309L 163.097 310.309ZM -5.53906e-06 310.309L -5.00001 310.309L -5.00001 315.309L -5.53906e-06 315.309L -5.53906e-06 310.309ZM -5.53906e-06 5.00001L 163.097 5.00001L 163.097 -4.99999L -5.53906e-06 -4.99999L -5.53906e-06 5.00001ZM 158.097 9.16992e-06L 158.097 310.309L 168.097 310.309L 168.097 9.16992e-06L 158.097 9.16992e-06ZM 163.097 305.309L -5.53906e-06 305.309L -5.53906e-06 315.309L 163.097 315.309L 163.097 305.309ZM 4.99999 310.309L 4.99999 9.16992e-06L -5.00001 9.16992e-06L -5.00001 310.309L 4.99999 310.309Z"/>
<path id="path18_stroke" d="M 1.06484e-05 9.16992e-06L 1.06484e-05 -4.99999L -4.99999 -4.99999L -4.99999 9.16992e-06L 1.06484e-05 9.16992e-06ZM 163.097 9.16992e-06L 168.097 9.16992e-06L 168.097 -4.99999L 163.097 -4.99999L 163.097 9.16992e-06ZM 163.097 310.309L 163.097 315.309L 168.097 315.309L 168.097 310.309L 163.097 310.309ZM 1.06484e-05 310.309L -4.99999 310.309L -4.99999 315.309L 1.06484e-05 315.309L 1.06484e-05 310.309ZM 1.06484e-05 5.00001L 163.097 5.00001L 163.097 -4.99999L 1.06484e-05 -4.99999L 1.06484e-05 5.00001ZM 158.097 9.16992e-06L 158.097 310.309L 168.097 310.309L 168.097 9.16992e-06L 158.097 9.16992e-06ZM 163.097 305.309L 1.06484e-05 305.309L 1.06484e-05 315.309L 163.097 315.309L 163.097 305.309ZM 5.00001 310.309L 5.00001 9.16992e-06L -4.99999 9.16992e-06L -4.99999 310.309L 5.00001 310.309Z"/>
<path id="path19_stroke" d="M -4.96777e-07 -2.5L -2.5 -2.5L -2.5 2.5L -4.96777e-07 2.5L -4.96777e-07 -2.5ZM 1473.49 4.42432e-07L 1475.99 4.42432e-07L 1475.99 -2.5L 1473.49 -2.5L 1473.49 4.42432e-07ZM 1473.49 333.366L 1470.99 333.366L 1470.99 335.866L 1473.49 335.866L 1473.49 333.366ZM 1550.87 335.866L 1553.37 335.866L 1553.37 330.866L 1550.87 330.866L 1550.87 335.866ZM -4.96777e-07 2.5L 1473.49 2.5L 1473.49 -2.5L -4.96777e-07 -2.5L -4.96777e-07 2.5ZM 1470.99 4.42432e-07L 1470.99 333.366L 1475.99 333.366L 1475.99 4.42432e-07L 1470.99 4.42432e-07ZM 1473.49 335.866L 1550.87 335.866L 1550.87 330.866L 1473.49 330.866L 1473.49 335.866Z"/>
<path id="path20_stroke" d="M 0 -2.5L -2.5 -2.5L -2.5 2.5L 0 2.5L 0 -2.5ZM 364.049 0L 366.549 0L 366.549 -2.5L 364.049 -2.5L 364.049 0ZM 364.049 54.4875L 361.549 54.4875L 361.549 56.9875L 364.049 56.9875L 364.049 54.4875ZM 401.781 56.9875L 404.281 56.9875L 404.281 51.9875L 401.781 51.9875L 401.781 56.9875ZM 0 2.5L 364.049 2.5L 364.049 -2.5L 0 -2.5L 0 2.5ZM 361.549 0L 361.549 54.4875L 366.549 54.4875L 366.549 0L 361.549 0ZM 364.049 56.9875L 401.781 56.9875L 401.781 51.9875L 364.049 51.9875L 364.049 56.9875Z"/>
<path id="path21_stroke" d="M 0 -2.5L -2.5 -2.5L -2.5 2.5L 0 2.5L 0 -2.5ZM 343.472 0L 345.972 0L 345.972 -2.5L 343.472 -2.5L 343.472 0ZM 343.472 158.694L 340.972 158.694L 340.972 161.194L 343.472 161.194L 343.472 158.694ZM 470.355 161.194L 472.855 161.194L 472.855 156.194L 470.355 156.194L 470.355 161.194ZM 0 2.5L 343.472 2.5L 343.472 -2.5L 0 -2.5L 0 2.5ZM 340.972 0L 340.972 158.694L 345.972 158.694L 345.972 0L 340.972 0ZM 343.472 161.194L 470.355 161.194L 470.355 156.194L 343.472 156.194L 343.472 161.194Z"/>
<path id="path22_stroke" d="M 252.694 224.882L 255.194 224.882L 255.194 219.882L 252.694 219.882L 252.694 224.882ZM 194.617 222.382L 192.117 222.382L 192.117 224.882L 194.617 224.882L 194.617 222.382ZM 194.617 -3.19629e-06L 197.117 -3.19629e-06L 197.117 -2.5L 194.617 -2.5L 194.617 -3.19629e-06ZM 2.2334e-06 -2.5L -2.5 -2.5L -2.5 2.5L 2.2334e-06 2.5L 2.2334e-06 -2.5ZM 252.694 219.882L 194.617 219.882L 194.617 224.882L 252.694 224.882L 252.694 219.882ZM 197.117 222.382L 197.117 -3.19629e-06L 192.117 -3.19629e-06L 192.117 222.382L 197.117 222.382ZM 194.617 -2.5L 2.2334e-06 -2.5L 2.2334e-06 2.5L 194.617 2.5L 194.617 -2.5Z"/>
<path id="path23_stroke" d="M 2.5 0L 2.5 -2.5L -2.5 -2.5L -2.5 0L 2.5 0ZM -2.5 214.058L -2.5 216.558L 2.5 216.558L 2.5 214.058L -2.5 214.058ZM -2.5 0L -2.5 214.058L 2.5 214.058L 2.5 0L -2.5 0Z"/>
<path id="path24_stroke" d="M 2.40879 -0.669091L 1.73968 -3.07789L -3.0779 -1.73966L -2.40879 0.66913L 2.40879 -0.669091ZM 3 10.8L 0.591205 11.4691L 3 20.1408L 5.40879 11.4691L 3 10.8ZM 8.40879 0.66913L 9.0779 -1.73966L 4.26032 -3.07789L 3.59121 -0.669091L 8.40879 0.66913ZM -2.40879 0.66913L 0.591205 11.4691L 5.40879 10.1309L 2.40879 -0.669091L -2.40879 0.66913ZM 5.40879 11.4691L 8.40879 0.66913L 3.59121 -0.669091L 0.591205 10.1309L 5.40879 11.4691Z"/>
<path id="path25_fill" d="M 0.888672 13.1738C 0.888672 12.1387 1.09049 11.2077 1.49414 10.3809C 1.9043 9.55404 2.4707 8.91602 3.19336 8.4668C 3.92253 8.01758 4.7526 7.79297 5.68359 7.79297C 7.1224 7.79297 8.28451 8.29102 9.16992 9.28711C 10.0618 10.2832 10.5078 11.6081 10.5078 13.2617L 10.5078 13.3887C 10.5078 14.4173 10.3092 15.3418 9.91211 16.1621C 9.52148 16.9759 8.95833 17.6107 8.22266 18.0664C 7.49349 18.5221 6.65365 18.75 5.70312 18.75C 4.27083 18.75 3.10872 18.252 2.2168 17.2559C 1.33138 16.2598 0.888672 14.9414 0.888672 13.3008L 0.888672 13.1738ZM 2.70508 13.3887C 2.70508 14.5605 2.97526 15.5013 3.51562 16.2109C 4.0625 16.9206 4.79167 17.2754 5.70312 17.2754C 6.62109 17.2754 7.35026 16.9173 7.89062 16.2012C 8.43099 15.4785 8.70117 14.4694 8.70117 13.1738C 8.70117 12.015 8.42448 11.0775 7.87109 10.3613C 7.32422 9.63867 6.59505 9.27734 5.68359 9.27734C 4.79167 9.27734 4.07227 9.63216 3.52539 10.3418C 2.97852 11.0514 2.70508 12.0671 2.70508 13.3887ZM 19.2969 17.5098C 18.5938 18.3366 17.5618 18.75 16.2012 18.75C 15.0749 18.75 14.2155 18.4245 13.623 17.7734C 13.0371 17.1159 12.7409 16.1458 12.7344 14.8633L 12.7344 7.98828L 14.541 7.98828L 14.541 14.8145C 14.541 16.416 15.1921 17.2168 16.4941 17.2168C 17.8743 17.2168 18.7923 16.7025 19.248 15.6738L 19.248 7.98828L 21.0547 7.98828L 21.0547 18.5547L 19.3359 18.5547L 19.2969 17.5098ZM 26.2598 5.42969L 26.2598 7.98828L 28.2324 7.98828L 28.2324 9.38477L 26.2598 9.38477L 26.2598 15.9375C 26.2598 16.3607 26.3477 16.6797 26.5234 16.8945C 26.6992 17.1029 26.9987 17.207 27.4219 17.207C 27.6302 17.207 27.9167 17.168 28.2812 17.0898L 28.2812 18.5547C 27.806 18.6849 27.3438 18.75 26.8945 18.75C 26.0872 18.75 25.4785 18.5059 25.0684 18.0176C 24.6582 17.5293 24.4531 16.8359 24.4531 15.9375L 24.4531 9.38477L 22.5293 9.38477L 22.5293 7.98828L 24.4531 7.98828L 24.4531 5.42969L 26.2598 5.42969Z"/>
<path id="path26_stroke" d="M 0 -2.5L -2.5 -2.5L -2.5 2.5L 0 2.5L 0 -2.5ZM 443.497 0L 445.997 0L 445.997 -2.5L 443.497 -2.5L 443.497 0ZM 443.497 199.218L 440.997 199.218L 440.997 201.718L 443.497 201.718L 443.497 199.218ZM 496.831 201.718L 499.331 201.718L 499.331 196.718L 496.831 196.718L 496.831 201.718ZM 0 2.5L 443.497 2.5L 443.497 -2.5L 0 -2.5L 0 2.5ZM 440.997 0L 440.997 199.218L 445.997 199.218L 445.997 0L 440.997 0ZM 443.497 201.718L 496.831 201.718L 496.831 196.718L 443.497 196.718L 443.497 201.718Z"/>
<path id="path27_stroke" d="M 0 -2.5L -2.5 -2.5L -2.5 2.5L 0 2.5L 0 -2.5ZM 444.325 0L 446.825 0L 446.825 -2.5L 444.325 -2.5L 444.325 0ZM 444.325 167.56L 441.825 167.56L 441.825 170.06L 444.325 170.06L 444.325 167.56ZM 542.5 170.06L 545 170.06L 545 165.06L 542.5 165.06L 542.5 170.06ZM 0 2.5L 444.325 2.5L 444.325 -2.5L 0 -2.5L 0 2.5ZM 441.825 0L 441.825 167.56L 446.825 167.56L 446.825 0L 441.825 0ZM 444.325 170.06L 542.5 170.06L 542.5 165.06L 444.325 165.06L 444.325 170.06Z"/>
<path id="path28_stroke" d="M 0.353553 -0.353553L 0 -0.707107L -0.707107 0L -0.353553 0.353553L 0.353553 -0.353553ZM 1.14645 1.85355L 1.5 2.20711L 2.20711 1.5L 1.85355 1.14645L 1.14645 1.85355ZM -0.353553 0.353553L 1.14645 1.85355L 1.85355 1.14645L 0.353553 -0.353553L -0.353553 0.353553Z"/>
<path id="path29_fill" d="M 7.11914 18.5547L 5.30273 18.5547L 5.30273 6.51367L 1.66016 7.85156L 1.66016 6.21094L 6.83594 4.26758L 7.11914 4.26758L 7.11914 18.5547Z"/>
<path id="path30_stroke" d="M 892.611 53.2614L 895.111 53.2614L 895.111 48.2614L 892.611 48.2614L 892.611 53.2614ZM 836.611 50.7614L 834.111 50.7614L 834.111 53.2614L 836.611 53.2614L 836.611 50.7614ZM 836.611 2.46094e-06L 839.111 2.46094e-06L 839.111 -2.5L 836.611 -2.5L 836.611 2.46094e-06ZM -1.51924e-06 -2.5L -2.5 -2.5L -2.5 2.5L -1.51924e-06 2.5L -1.51924e-06 -2.5ZM 892.611 48.2614L 836.611 48.2614L 836.611 53.2614L 892.611 53.2614L 892.611 48.2614ZM 839.111 50.7614L 839.111 2.46094e-06L 834.111 2.46094e-06L 834.111 50.7614L 839.111 50.7614ZM 836.611 -2.5L -1.51924e-06 -2.5L -1.51924e-06 2.5L 836.611 2.5L 836.611 -2.5Z"/>
<path id="path31_stroke" d="M 0 -2.5L -2.5 -2.5L -2.5 2.5L 0 2.5L 0 -2.5ZM 324.222 0L 326.722 0L 326.722 -2.5L 324.222 -2.5L 324.222 0ZM 324.222 51.8861L 321.722 51.8861L 321.722 54.3861L 324.222 54.3861L 324.222 51.8861ZM 358.938 54.3861L 361.438 54.3861L 361.438 49.3861L 358.938 49.3861L 358.938 54.3861ZM 0 2.5L 324.222 2.5L 324.222 -2.5L 0 -2.5L 0 2.5ZM 321.722 0L 321.722 51.8861L 326.722 51.8861L 326.722 0L 321.722 0ZM 324.222 54.3861L 358.938 54.3861L 358.938 49.3861L 324.222 49.3861L 324.222 54.3861Z"/>
<path id="path32_fill" d="M 3.07617 7.98828L 3.13477 9.31641C 3.94206 8.30078 4.99674 7.79297 6.29883 7.79297C 8.5319 7.79297 9.6582 9.05273 9.67773 11.5723L 9.67773 18.5547L 7.87109 18.5547L 7.87109 11.5625C 7.86458 10.8008 7.6888 10.2376 7.34375 9.87305C 7.00521 9.50846 6.47461 9.32617 5.75195 9.32617C 5.16602 9.32617 4.65169 9.48242 4.20898 9.79492C 3.76628 10.1074 3.42122 10.5176 3.17383 11.0254L 3.17383 18.5547L 1.36719 18.5547L 1.36719 7.98828L 3.07617 7.98828ZM 16.7871 18.75C 15.3548 18.75 14.1895 18.2812 13.291 17.3438C 12.3926 16.3997 11.9434 15.14 11.9434 13.5645L 11.9434 13.2324C 11.9434 12.1842 12.1419 11.25 12.5391 10.4297C 12.9427 9.60286 13.5026 8.95833 14.2188 8.49609C 14.9414 8.02734 15.7227 7.79297 16.5625 7.79297C 17.9362 7.79297 19.0039 8.24544 19.7656 9.15039C 20.5273 10.0553 20.9082 11.3509 20.9082 13.0371L 20.9082 13.7891L 13.75 13.7891C 13.776 14.8307 14.0788 15.6738 14.6582 16.3184C 15.2441 16.9564 15.9863 17.2754 16.8848 17.2754C 17.5228 17.2754 18.0632 17.1452 18.5059 16.8848C 18.9486 16.6243 19.3359 16.2793 19.668 15.8496L 20.7715 16.709C 19.8861 18.0697 18.5579 18.75 16.7871 18.75ZM 16.5625 9.27734C 15.8333 9.27734 15.2214 9.54427 14.7266 10.0781C 14.2318 10.6055 13.9258 11.3477 13.8086 12.3047L 19.1016 12.3047L 19.1016 12.168C 19.0495 11.25 18.8021 10.5404 18.3594 10.0391C 17.9167 9.53125 17.3177 9.27734 16.5625 9.27734ZM 32.3633 16.0645L 34.3945 7.98828L 36.2012 7.98828L 33.125 18.5547L 31.6602 18.5547L 29.0918 10.5469L 26.5918 18.5547L 25.127 18.5547L 22.0605 7.98828L 23.8574 7.98828L 25.9375 15.8984L 28.3984 7.98828L 29.8535 7.98828L 32.3633 16.0645Z"/>
<path id="path33_fill" d="M 3.81836 5.42969L 3.81836 7.98828L 5.79102 7.98828L 5.79102 9.38477L 3.81836 9.38477L 3.81836 15.9375C 3.81836 16.3607 3.90625 16.6797 4.08203 16.8945C 4.25781 17.1029 4.55729 17.207 4.98047 17.207C 5.1888 17.207 5.47526 17.168 5.83984 17.0898L 5.83984 18.5547C 5.36458 18.6849 4.90234 18.75 4.45312 18.75C 3.64583 18.75 3.03711 18.5059 2.62695 18.0176C 2.2168 17.5293 2.01172 16.8359 2.01172 15.9375L 2.01172 9.38477L 0.0878906 9.38477L 0.0878906 7.98828L 2.01172 7.98828L 2.01172 5.42969L 3.81836 5.42969ZM 14.4336 18.5547C 14.3294 18.3464 14.2448 17.9753 14.1797 17.4414C 13.3398 18.3138 12.3372 18.75 11.1719 18.75C 10.1302 18.75 9.27409 18.457 8.60352 17.8711C 7.93945 17.2786 7.60742 16.5299 7.60742 15.625C 7.60742 14.5247 8.02409 13.6719 8.85742 13.0664C 9.69727 12.4544 10.8757 12.1484 12.3926 12.1484L 14.1504 12.1484L 14.1504 11.3184C 14.1504 10.6868 13.9616 10.1855 13.584 9.81445C 13.2064 9.43685 12.6497 9.24805 11.9141 9.24805C 11.2695 9.24805 10.7292 9.41081 10.293 9.73633C 9.85677 10.0618 9.63867 10.4557 9.63867 10.918L 7.82227 10.918C 7.82227 10.3906 8.00781 9.88281 8.37891 9.39453C 8.75651 8.89974 9.26432 8.50911 9.90234 8.22266C 10.5469 7.9362 11.2533 7.79297 12.0215 7.79297C 13.2389 7.79297 14.1927 8.09896 14.8828 8.71094C 15.5729 9.31641 15.931 10.153 15.957 11.2207L 15.957 16.084C 15.957 17.054 16.0807 17.8255 16.3281 18.3984L 16.3281 18.5547L 14.4336 18.5547ZM 11.4355 17.1777C 12.002 17.1777 12.5391 17.0312 13.0469 16.7383C 13.5547 16.4453 13.9225 16.0645 14.1504 15.5957L 14.1504 13.4277L 12.7344 13.4277C 10.5208 13.4277 9.41406 14.0755 9.41406 15.3711C 9.41406 15.9375 9.60286 16.3802 9.98047 16.6992C 10.3581 17.0182 10.8431 17.1777 11.4355 17.1777ZM 18.3594 13.1836C 18.3594 11.5365 18.7402 10.2279 19.502 9.25781C 20.2637 8.28125 21.2728 7.79297 22.5293 7.79297C 23.8184 7.79297 24.8242 8.2487 25.5469 9.16016L 25.6348 7.98828L 27.2852 7.98828L 27.2852 18.3008C 27.2852 19.668 26.8783 20.7454 26.0645 21.5332C 25.2572 22.321 24.1699 22.7148 22.8027 22.7148C 22.041 22.7148 21.2956 22.5521 20.5664 22.2266C 19.8372 21.901 19.2806 21.4551 18.8965 20.8887L 19.834 19.8047C 20.6087 20.7617 21.556 21.2402 22.6758 21.2402C 23.5547 21.2402 24.2383 20.9928 24.7266 20.498C 25.2214 20.0033 25.4688 19.3066 25.4688 18.4082L 25.4688 17.5C 24.7461 18.3333 23.7598 18.75 22.5098 18.75C 21.2728 18.75 20.2702 18.252 19.502 17.2559C 18.7402 16.2598 18.3594 14.9023 18.3594 13.1836ZM 20.1758 13.3887C 20.1758 14.5801 20.4199 15.5176 20.9082 16.2012C 21.3965 16.8783 22.0801 17.2168 22.959 17.2168C 24.0983 17.2168 24.9349 16.6992 25.4688 15.6641L 25.4688 10.8398C 24.9154 9.83073 24.0853 9.32617 22.9785 9.32617C 22.0996 9.32617 21.4128 9.66797 20.918 10.3516C 20.4232 11.0352 20.1758 12.0475 20.1758 13.3887Z"/>
<path id="path34_fill" d="M 20.6543 10.582L 12.4277 10.582L 12.4277 33.3984L 9.07031 33.3984L 9.07031 10.582L 0.861328 10.582L 0.861328 7.80469L 20.6543 7.80469L 20.6543 10.582ZM 37.2129 26.7188L 26.4902 26.7188L 24.082 33.3984L 20.6016 33.3984L 30.375 7.80469L 33.3281 7.80469L 43.1191 33.3984L 39.6562 33.3984L 37.2129 26.7188ZM 27.5098 23.9414L 36.2109 23.9414L 31.8516 11.9707L 27.5098 23.9414ZM 65.2852 30.041C 64.418 31.2832 63.2051 32.2148 61.6465 32.8359C 60.0996 33.4453 58.2949 33.75 56.2324 33.75C 54.1465 33.75 52.2949 33.2637 50.6777 32.291C 49.0605 31.3066 47.8066 29.9121 46.916 28.1074C 46.0371 26.3027 45.5859 24.2109 45.5625 21.832L 45.5625 19.5996C 45.5625 15.7441 46.459 12.7559 48.252 10.6348C 50.0566 8.51367 52.5879 7.45312 55.8457 7.45312C 58.5176 7.45312 60.668 8.13867 62.2969 9.50977C 63.9258 10.8691 64.9219 12.8027 65.2852 15.3105L 61.9102 15.3105C 61.2773 11.9238 59.2617 10.2305 55.8633 10.2305C 53.6016 10.2305 51.8848 11.0273 50.7129 12.6211C 49.5527 14.2031 48.9668 16.5 48.9551 19.5117L 48.9551 21.6035C 48.9551 24.4746 49.6113 26.7598 50.9238 28.459C 52.2363 30.1465 54.0117 30.9902 56.25 30.9902C 57.5156 30.9902 58.623 30.8496 59.5723 30.5684C 60.5215 30.2871 61.3066 29.8125 61.9277 29.1445L 61.9277 23.3965L 56.0039 23.3965L 56.0039 20.6543L 65.2852 20.6543L 65.2852 30.041ZM 78.4688 21.9902C 75.5742 21.1582 73.4648 20.1387 72.1406 18.9316C 70.8281 17.7129 70.1719 16.2129 70.1719 14.4316C 70.1719 12.416 70.9746 10.752 72.5801 9.43945C 74.1973 8.11523 76.2949 7.45312 78.873 7.45312C 80.6309 7.45312 82.1953 7.79297 83.5664 8.47266C 84.9492 9.15234 86.0156 10.0898 86.7656 11.2852C 87.5273 12.4805 87.9082 13.7871 87.9082 15.2051L 84.5156 15.2051C 84.5156 13.6582 84.0234 12.4453 83.0391 11.5664C 82.0547 10.6758 80.666 10.2305 78.873 10.2305C 77.209 10.2305 75.9082 10.5996 74.9707 11.3379C 74.0449 12.0645 73.582 13.0781 73.582 14.3789C 73.582 15.4219 74.0215 16.3066 74.9004 17.0332C 75.791 17.748 77.2969 18.4043 79.418 19.002C 81.5508 19.5996 83.2148 20.2617 84.4102 20.9883C 85.6172 21.7031 86.5078 22.541 87.082 23.502C 87.668 24.4629 87.9609 25.5938 87.9609 26.8945C 87.9609 28.9688 87.1523 30.6328 85.5352 31.8867C 83.918 33.1289 81.7559 33.75 79.0488 33.75C 77.291 33.75 75.6504 33.416 74.127 32.748C 72.6035 32.0684 71.4258 31.1426 70.5938 29.9707C 69.7734 28.7988 69.3633 27.4687 69.3633 25.9805L 72.7559 25.9805C 72.7559 27.5273 73.3242 28.752 74.4609 29.6543C 75.6094 30.5449 77.1387 30.9902 79.0488 30.9902C 80.8301 30.9902 82.1953 30.627 83.1445 29.9004C 84.0938 29.1738 84.5684 28.1836 84.5684 26.9297C 84.5684 25.6758 84.1289 24.709 83.25 24.0293C 82.3711 23.3379 80.7773 22.6582 78.4688 21.9902Z"/>
<path id="path35_fill" d="M 11.4434 28.916L 18.7559 7.80469L 22.4473 7.80469L 12.9551 33.3984L 9.9668 33.3984L 0.492188 7.80469L 4.16602 7.80469L 11.4434 28.916ZM 38.7246 26.7188L 28.002 26.7188L 25.5938 33.3984L 22.1133 33.3984L 31.8867 7.80469L 34.8398 7.80469L 44.6309 33.3984L 41.168 33.3984L 38.7246 26.7188ZM 29.0215 23.9414L 37.7227 23.9414L 33.3633 11.9707L 29.0215 23.9414ZM 51.4688 30.6387L 63.5977 30.6387L 63.5977 33.3984L 48.0762 33.3984L 48.0762 7.80469L 51.4688 7.80469L 51.4688 30.6387ZM 71.0684 33.3984L 67.6934 33.3984L 67.6934 7.80469L 71.0684 7.80469L 71.0684 33.3984ZM 77.2559 33.3984L 77.2559 7.80469L 84.4805 7.80469C 86.707 7.80469 88.6758 8.29688 90.3867 9.28125C 92.0977 10.2656 93.416 11.666 94.3418 13.4824C 95.2793 15.2988 95.7539 17.3848 95.7656 19.7402L 95.7656 21.375C 95.7656 23.7891 95.2969 25.9043 94.3594 27.7207C 93.4336 29.5371 92.1035 30.9316 90.3691 31.9043C 88.6465 32.877 86.6367 33.375 84.3398 33.3984L 77.2559 33.3984ZM 80.6309 10.582L 80.6309 30.6387L 84.1816 30.6387C 86.7832 30.6387 88.8047 29.8301 90.2461 28.2129C 91.6992 26.5957 92.4258 24.293 92.4258 21.3047L 92.4258 19.8105C 92.4258 16.9043 91.7402 14.6484 90.3691 13.043C 89.0098 11.4258 87.0762 10.6055 84.5684 10.582L 80.6309 10.582Z"/>
<path id="path36_fill" d="M 2.9707 33.3984L 2.9707 7.80469L 10.1953 7.80469C 12.4219 7.80469 14.3906 8.29688 16.1016 9.28125C 17.8125 10.2656 19.1309 11.666 20.0566 13.4824C 20.9941 15.2988 21.4688 17.3848 21.4805 19.7402L 21.4805 21.375C 21.4805 23.7891 21.0117 25.9043 20.0742 27.7207C 19.1484 29.5371 17.8184 30.9316 16.084 31.9043C 14.3613 32.877 12.3516 33.375 10.0547 33.3984L 2.9707 33.3984ZM 6.3457 10.582L 6.3457 30.6387L 9.89648 30.6387C 12.498 30.6387 14.5195 29.8301 15.9609 28.2129C 17.4141 26.5957 18.1406 24.293 18.1406 21.3047L 18.1406 19.8105C 18.1406 16.9043 17.4551 14.6484 16.084 13.043C 14.7246 11.4258 12.791 10.6055 10.2832 10.582L 6.3457 10.582ZM 30.2168 33.3984L 26.8418 33.3984L 26.8418 7.80469L 30.2168 7.80469L 30.2168 33.3984ZM 45.791 23.0449L 39.7793 23.0449L 39.7793 33.3984L 36.3867 33.3984L 36.3867 7.80469L 44.8594 7.80469C 47.7422 7.80469 49.957 8.46094 51.5039 9.77344C 53.0625 11.0859 53.8418 12.9961 53.8418 15.5039C 53.8418 17.0977 53.4082 18.4863 52.541 19.6699C 51.6855 20.8535 50.4902 21.7383 48.9551 22.3242L 54.9668 33.1875L 54.9668 33.3984L 51.3457 33.3984L 45.791 23.0449ZM 39.7793 20.2852L 44.9648 20.2852C 46.6406 20.2852 47.9707 19.8516 48.9551 18.9844C 49.9512 18.1172 50.4492 16.957 50.4492 15.5039C 50.4492 13.9219 49.9746 12.709 49.0254 11.8652C 48.0879 11.0215 46.7285 10.5937 44.9473 10.582L 39.7793 10.582L 39.7793 20.2852ZM 74.8652 10.582L 66.6387 10.582L 66.6387 33.3984L 63.2812 33.3984L 63.2812 10.582L 55.0723 10.582L 55.0723 7.80469L 74.8652 7.80469L 74.8652 10.582ZM 86.748 20.6543L 93.4277 7.80469L 97.2598 7.80469L 88.4355 23.8535L 88.4355 33.3984L 85.0605 33.3984L 85.0605 23.8535L 76.2363 7.80469L 80.1035 7.80469L 86.748 20.6543Z"/>
<path id="path37_fill" d="M 2.9707 33.3984L 2.9707 7.80469L 10.1953 7.80469C 12.4219 7.80469 14.3906 8.29688 16.1016 9.28125C 17.8125 10.2656 19.1309 11.666 20.0566 13.4824C 20.9941 15.2988 21.4688 17.3848 21.4805 19.7402L 21.4805 21.375C 21.4805 23.7891 21.0117 25.9043 20.0742 27.7207C 19.1484 29.5371 17.8184 30.9316 16.084 31.9043C 14.3613 32.877 12.3516 33.375 10.0547 33.3984L 2.9707 33.3984ZM 6.3457 10.582L 6.3457 30.6387L 9.89648 30.6387C 12.498 30.6387 14.5195 29.8301 15.9609 28.2129C 17.4141 26.5957 18.1406 24.293 18.1406 21.3047L 18.1406 19.8105C 18.1406 16.9043 17.4551 14.6484 16.084 13.043C 14.7246 11.4258 12.791 10.6055 10.2832 10.582L 6.3457 10.582ZM 40.377 26.7188L 29.6543 26.7188L 27.2461 33.3984L 23.7656 33.3984L 33.5391 7.80469L 36.4922 7.80469L 46.2832 33.3984L 42.8203 33.3984L 40.377 26.7188ZM 30.6738 23.9414L 39.375 23.9414L 35.0156 11.9707L 30.6738 23.9414ZM 65.1621 10.582L 56.9355 10.582L 56.9355 33.3984L 53.5781 33.3984L 53.5781 10.582L 45.3691 10.582L 45.3691 7.80469L 65.1621 7.80469L 65.1621 10.582ZM 81.7207 26.7188L 70.998 26.7188L 68.5898 33.3984L 65.1094 33.3984L 74.8828 7.80469L 77.8359 7.80469L 87.627 33.3984L 84.1641 33.3984L 81.7207 26.7188ZM 72.0176 23.9414L 80.7188 23.9414L 76.3594 11.9707L 72.0176 23.9414Z"/>
<path id="path38_fill" d="M 11 22C 17.0751 22 22 17.0751 22 11C 22 4.92487 17.0751 0 11 0C 4.92487 0 0 4.92487 0 11C 0 17.0751 4.92487 22 11 22Z"/>
<path id="path39_fill" d="M 6.87305 9.77344L 6.87305 14.3789L 10.4238 14.3789L 10.4238 16.8926L 6.87305 16.8926L 6.87305 28.6875C 6.87305 29.4492 7.03125 30.0234 7.34766 30.4102C 7.66406 30.7852 8.20312 30.9727 8.96484 30.9727C 9.33984 30.9727 9.85547 30.9023 10.5117 30.7617L 10.5117 33.3984C 9.65625 33.6328 8.82422 33.75 8.01562 33.75C 6.5625 33.75 5.4668 33.3105 4.72852 32.4316C 3.99023 31.5527 3.62109 30.3047 3.62109 28.6875L 3.62109 16.8926L 0.158203 16.8926L 0.158203 14.3789L 3.62109 14.3789L 3.62109 9.77344L 6.87305 9.77344ZM 25.9805 33.3984C 25.793 33.0234 25.6406 32.3555 25.5234 31.3945C 24.0117 32.9648 22.207 33.75 20.1094 33.75C 18.2344 33.75 16.6934 33.2227 15.4863 32.168C 14.291 31.1016 13.6934 29.7539 13.6934 28.125C 13.6934 26.1445 14.4434 24.6094 15.9434 23.5195C 17.4551 22.418 19.5762 21.8672 22.3066 21.8672L 25.4707 21.8672L 25.4707 20.373C 25.4707 19.2363 25.1309 18.334 24.4512 17.666C 23.7715 16.9863 22.7695 16.6465 21.4453 16.6465C 20.2852 16.6465 19.3125 16.9395 18.5273 17.5254C 17.7422 18.1113 17.3496 18.8203 17.3496 19.6523L 14.0801 19.6523C 14.0801 18.7031 14.4141 17.7891 15.082 16.9102C 15.7617 16.0195 16.6758 15.3164 17.8242 14.8008C 18.9844 14.2852 20.2559 14.0273 21.6387 14.0273C 23.8301 14.0273 25.5469 14.5781 26.7891 15.6797C 28.0313 16.7695 28.6758 18.2754 28.7227 20.1973L 28.7227 28.9512C 28.7227 30.6973 28.9453 32.0859 29.3906 33.1172L 29.3906 33.3984L 25.9805 33.3984ZM 20.584 30.9199C 21.6035 30.9199 22.5703 30.6562 23.4844 30.1289C 24.3984 29.6016 25.0605 28.916 25.4707 28.0723L 25.4707 24.1699L 22.9219 24.1699C 18.9375 24.1699 16.9453 25.3359 16.9453 27.668C 16.9453 28.6875 17.2852 29.4844 17.9648 30.0586C 18.6445 30.6328 19.5176 30.9199 20.584 30.9199ZM 33.0469 23.7305C 33.0469 20.7656 33.7324 18.4102 35.1035 16.6641C 36.4746 14.9062 38.291 14.0273 40.5527 14.0273C 42.873 14.0273 44.6836 14.8477 45.9844 16.4883L 46.1426 14.3789L 49.1133 14.3789L 49.1133 32.9414C 49.1133 35.4023 48.3809 37.3418 46.916 38.7598C 45.4629 40.1777 43.5059 40.8867 41.0449 40.8867C 39.6738 40.8867 38.332 40.5938 37.0195 40.0078C 35.707 39.4219 34.7051 38.6191 34.0137 37.5996L 35.7012 35.6484C 37.0957 37.3711 38.8008 38.2324 40.8164 38.2324C 42.3984 38.2324 43.6289 37.7871 44.5078 36.8965C 45.3984 36.0059 45.8438 34.752 45.8438 33.1348L 45.8438 31.5C 44.543 33 42.7676 33.75 40.5176 33.75C 38.291 33.75 36.4863 32.8535 35.1035 31.0605C 33.7324 29.2676 33.0469 26.8242 33.0469 23.7305ZM 36.3164 24.0996C 36.3164 26.2441 36.7559 27.9316 37.6348 29.1621C 38.5137 30.3809 39.7441 30.9902 41.3262 30.9902C 43.377 30.9902 44.8828 30.0586 45.8438 28.1953L 45.8438 19.5117C 44.8477 17.6953 43.3535 16.7871 41.3613 16.7871C 39.7793 16.7871 38.543 17.4023 37.6523 18.6328C 36.7617 19.8633 36.3164 21.6855 36.3164 24.0996Z"/>
<path id="path40_fill" d="M 8.73633 28.9863L 13.4473 14.3789L 16.7695 14.3789L 9.94922 33.3984L 7.4707 33.3984L 0.580078 14.3789L 3.90234 14.3789L 8.73633 28.9863ZM 31.3945 33.3984C 31.207 33.0234 31.0547 32.3555 30.9375 31.3945C 29.4258 32.9648 27.6211 33.75 25.5234 33.75C 23.6484 33.75 22.1074 33.2227 20.9004 32.168C 19.7051 31.1016 19.1074 29.7539 19.1074 28.125C 19.1074 26.1445 19.8574 24.6094 21.3574 23.5195C 22.8691 22.418 24.9902 21.8672 27.7207 21.8672L 30.8848 21.8672L 30.8848 20.373C 30.8848 19.2363 30.5449 18.334 29.8652 17.666C 29.1855 16.9863 28.1836 16.6465 26.8594 16.6465C 25.6992 16.6465 24.7266 16.9395 23.9414 17.5254C 23.1563 18.1113 22.7637 18.8203 22.7637 19.6523L 19.4941 19.6523C 19.4941 18.7031 19.8281 17.7891 20.4961 16.9102C 21.1758 16.0195 22.0898 15.3164 23.2383 14.8008C 24.3984 14.2852 25.6699 14.0273 27.0527 14.0273C 29.2441 14.0273 30.9609 14.5781 32.2031 15.6797C 33.4453 16.7695 34.0898 18.2754 34.1367 20.1973L 34.1367 28.9512C 34.1367 30.6973 34.3594 32.0859 34.8047 33.1172L 34.8047 33.3984L 31.3945 33.3984ZM 25.998 30.9199C 27.0176 30.9199 27.9844 30.6562 28.8984 30.1289C 29.8125 29.6016 30.4746 28.916 30.8848 28.0723L 30.8848 24.1699L 28.3359 24.1699C 24.3516 24.1699 22.3594 25.3359 22.3594 27.668C 22.3594 28.6875 22.6992 29.4844 23.3789 30.0586C 24.0586 30.6328 24.9316 30.9199 25.998 30.9199ZM 42.7676 33.3984L 39.5156 33.3984L 39.5156 6.39844L 42.7676 6.39844L 42.7676 33.3984ZM 51.5215 33.3984L 48.2695 33.3984L 48.2695 14.3789L 51.5215 14.3789L 51.5215 33.3984ZM 48.0059 9.33398C 48.0059 8.80664 48.1641 8.36133 48.4805 7.99805C 48.8086 7.63477 49.2891 7.45312 49.9219 7.45312C 50.5547 7.45312 51.0352 7.63477 51.3633 7.99805C 51.6914 8.36133 51.8555 8.80664 51.8555 9.33398C 51.8555 9.86133 51.6914 10.3008 51.3633 10.6523C 51.0352 11.0039 50.5547 11.1797 49.9219 11.1797C 49.2891 11.1797 48.8086 11.0039 48.4805 10.6523C 48.1641 10.3008 48.0059 9.86133 48.0059 9.33398ZM 55.9512 23.7305C 55.9512 20.8125 56.6426 18.4688 58.0254 16.6992C 59.4082 14.918 61.2187 14.0273 63.457 14.0273C 65.6836 14.0273 67.4473 14.7891 68.748 16.3125L 68.748 6.39844L 72 6.39844L 72 33.3984L 69.0117 33.3984L 68.8535 31.3594C 67.5527 32.9531 65.7422 33.75 63.4219 33.75C 61.2187 33.75 59.4199 32.8477 58.0254 31.043C 56.6426 29.2383 55.9512 26.8828 55.9512 23.9766L 55.9512 23.7305ZM 59.2031 24.0996C 59.2031 26.2559 59.6484 27.9434 60.5391 29.1621C 61.4297 30.3809 62.6602 30.9902 64.2305 30.9902C 66.293 30.9902 67.7988 30.0645 68.748 28.2129L 68.748 19.4766C 67.7754 17.6836 66.2813 16.7871 64.2656 16.7871C 62.6719 16.7871 61.4297 17.4023 60.5391 18.6328C 59.6484 19.8633 59.2031 21.6855 59.2031 24.0996Z"/>
<path id="path41_fill" d="M 1.66992 23.7305C 1.66992 20.8125 2.36133 18.4688 3.74414 16.6992C 5.12695 14.918 6.9375 14.0273 9.17578 14.0273C 11.4023 14.0273 13.166 14.7891 14.4668 16.3125L 14.4668 6.39844L 17.7188 6.39844L 17.7188 33.3984L 14.7305 33.3984L 14.5723 31.3594C 13.2715 32.9531 11.4609 33.75 9.14062 33.75C 6.9375 33.75 5.13867 32.8477 3.74414 31.043C 2.36133 29.2383 1.66992 26.8828 1.66992 23.9766L 1.66992 23.7305ZM 4.92188 24.0996C 4.92188 26.2559 5.36719 27.9434 6.25781 29.1621C 7.14844 30.3809 8.37891 30.9902 9.94922 30.9902C 12.0117 30.9902 13.5176 30.0645 14.4668 28.2129L 14.4668 19.4766C 13.4941 17.6836 12 16.7871 9.98438 16.7871C 8.39063 16.7871 7.14844 17.4023 6.25781 18.6328C 5.36719 19.8633 4.92188 21.6855 4.92188 24.0996ZM 26.3145 33.3984L 23.0625 33.3984L 23.0625 14.3789L 26.3145 14.3789L 26.3145 33.3984ZM 22.7988 9.33398C 22.7988 8.80664 22.957 8.36133 23.2734 7.99805C 23.6016 7.63477 24.082 7.45312 24.7148 7.45312C 25.3477 7.45312 25.8281 7.63477 26.1562 7.99805C 26.4844 8.36133 26.6484 8.80664 26.6484 9.33398C 26.6484 9.86133 26.4844 10.3008 26.1562 10.6523C 25.8281 11.0039 25.3477 11.1797 24.7148 11.1797C 24.082 11.1797 23.6016 11.0039 23.2734 10.6523C 22.957 10.3008 22.7988 9.86133 22.7988 9.33398ZM 40.7285 17.2969C 40.2363 17.2148 39.7031 17.1738 39.1289 17.1738C 36.9961 17.1738 35.5488 18.082 34.7871 19.8984L 34.7871 33.3984L 31.5352 33.3984L 31.5352 14.3789L 34.6992 14.3789L 34.752 16.5762C 35.8184 14.877 37.3301 14.0273 39.2871 14.0273C 39.9199 14.0273 40.4004 14.1094 40.7285 14.2734L 40.7285 17.2969ZM 49.0254 9.77344L 49.0254 14.3789L 52.5762 14.3789L 52.5762 16.8926L 49.0254 16.8926L 49.0254 28.6875C 49.0254 29.4492 49.1836 30.0234 49.5 30.4102C 49.8164 30.7852 50.3555 30.9727 51.1172 30.9727C 51.4922 30.9727 52.0078 30.9023 52.6641 30.7617L 52.6641 33.3984C 51.8086 33.6328 50.9766 33.75 50.168 33.75C 48.7148 33.75 47.6191 33.3105 46.8809 32.4316C 46.1426 31.5527 45.7734 30.3047 45.7734 28.6875L 45.7734 16.8926L 42.3105 16.8926L 42.3105 14.3789L 45.7734 14.3789L 45.7734 9.77344L 49.0254 9.77344ZM 62.6133 28.6348L 67.043 14.3789L 70.5234 14.3789L 62.877 36.334C 61.6934 39.498 59.8125 41.0801 57.2344 41.0801L 56.6191 41.0273L 55.4062 40.7988L 55.4062 38.1621L 56.2852 38.2324C 57.3867 38.2324 58.2422 38.0098 58.8516 37.5645C 59.4727 37.1191 59.9824 36.3047 60.3809 35.1211L 61.1016 33.1875L 54.3164 14.3789L 57.8672 14.3789L 62.6133 28.6348Z"/>
<path id="path42_fill" d="M 1.59961 23.7129C 1.59961 21.8496 1.96289 20.1738 2.68945 18.6855C 3.42773 17.1973 4.44727 16.0488 5.74805 15.2402C 7.06055 14.4316 8.55469 14.0273 10.2305 14.0273C 12.8203 14.0273 14.9121 14.9238 16.5059 16.7168C 18.1113 18.5098 18.9141 20.8945 18.9141 23.8711L 18.9141 24.0996C 18.9141 25.9512 18.5566 27.6152 17.8418 29.0918C 17.1387 30.5566 16.125 31.6992 14.8008 32.5195C 13.4883 33.3398 11.9766 33.75 10.2656 33.75C 7.6875 33.75 5.5957 32.8535 3.99023 31.0605C 2.39648 29.2676 1.59961 26.8945 1.59961 23.9414L 1.59961 23.7129ZM 4.86914 24.0996C 4.86914 26.209 5.35547 27.9023 6.32812 29.1797C 7.3125 30.457 8.625 31.0957 10.2656 31.0957C 11.918 31.0957 13.2305 30.4512 14.2031 29.1621C 15.1758 27.8613 15.6621 26.0449 15.6621 23.7129C 15.6621 21.627 15.1641 19.9395 14.168 18.6504C 13.1836 17.3496 11.8711 16.6992 10.2305 16.6992C 8.625 16.6992 7.33008 17.3379 6.3457 18.6152C 5.36133 19.8926 4.86914 21.7207 4.86914 24.0996ZM 34.7344 31.5176C 33.4688 33.0059 31.6113 33.75 29.1621 33.75C 27.1348 33.75 25.5879 33.1641 24.5215 31.9922C 23.4668 30.8086 22.9336 29.0625 22.9219 26.7539L 22.9219 14.3789L 26.1738 14.3789L 26.1738 26.666C 26.1738 29.5488 27.3457 30.9902 29.6895 30.9902C 32.1738 30.9902 33.8262 30.0645 34.6465 28.2129L 34.6465 14.3789L 37.8984 14.3789L 37.8984 33.3984L 34.8047 33.3984L 34.7344 31.5176ZM 47.2676 9.77344L 47.2676 14.3789L 50.8184 14.3789L 50.8184 16.8926L 47.2676 16.8926L 47.2676 28.6875C 47.2676 29.4492 47.4258 30.0234 47.7422 30.4102C 48.0586 30.7852 48.5977 30.9727 49.3594 30.9727C 49.7344 30.9727 50.25 30.9023 50.9062 30.7617L 50.9062 33.3984C 50.0508 33.6328 49.2188 33.75 48.4102 33.75C 46.957 33.75 45.8613 33.3105 45.123 32.4316C 44.3848 31.5527 44.0156 30.3047 44.0156 28.6875L 44.0156 16.8926L 40.5527 16.8926L 40.5527 14.3789L 44.0156 14.3789L 44.0156 9.77344L 47.2676 9.77344Z"/>
<path id="path43_stroke" d="M 0 0L 53 0L 53 -5L 0 -5L 0 0Z"/>
<path id="path44_stroke" d="M 0 0L 55 0L 55 -5L 0 -5L 0 0Z"/>
</defs>
</svg>
