<svg width="1883" height="1219" viewBox="0 0 1883 1219" version="1.1" xmlns="http://www.w3.org/2000/svg" xmlns:xlink="http://www.w3.org/1999/xlink" xmlns:figma="http://www.figma.com/figma/ns">
<title>Cache Arbiter State Diagram</title>
<desc>Created using Figma</desc>
<g id="Canvas" transform="translate(1486 609)" figma:type="canvas">
<g id="Line" style="mix-blend-mode:normal;" figma:type="line">
<use xlink:href="#path0_stroke" transform="matrix(0.668158 0.744019 -0.744019 0.668158 -473 -409)" style="mix-blend-mode:normal;"/>
</g>
<g id="Polygon" style="mix-blend-mode:normal;" figma:type="regular-polygon">
<use xlink:href="#path1_fill" transform="matrix(-0.782626 0.622492 -0.622492 -0.782626 -221.493 -147.096)" style="mix-blend-mode:normal;"/>
</g>
<g id="Polygon" style="mix-blend-mode:normal;" figma:type="regular-polygon">
<use xlink:href="#path1_fill" transform="matrix(0.926697 -0.375808 0.375808 0.926697 -528.272 -384.345)" style="mix-blend-mode:normal;"/>
</g>
<g id="Polygon" style="mix-blend-mode:normal;" figma:type="regular-polygon">
<use xlink:href="#path1_fill" transform="matrix(0.933776 0.357857 -0.357857 0.933776 -592.547 -395.835)" style="mix-blend-mode:normal;"/>
</g>
<g id="Line" style="mix-blend-mode:normal;" figma:type="line">
<use xlink:href="#path2_stroke" transform="matrix(-0.658505 0.752577 -0.752577 -0.658505 -623 -416)" style="mix-blend-mode:normal;"/>
</g>
<g id="Polygon" style="mix-blend-mode:normal;" figma:type="regular-polygon">
<use xlink:href="#path1_fill" transform="matrix(0.782626 0.622492 0.622492 -0.782626 -868 -147.703)" style="mix-blend-mode:normal;"/>
</g>
<g id="Polygon" style="mix-blend-mode:normal;" figma:type="regular-polygon">
<use xlink:href="#path1_fill" transform="matrix(-0.983552 -0.180624 -0.180624 0.983552 -983.969 32.6422)" style="mix-blend-mode:normal;"/>
</g>
<g id="Polygon" style="mix-blend-mode:normal;" figma:type="regular-polygon">
<use xlink:href="#path1_fill" transform="matrix(0.983552 -0.180624 0.180624 0.983552 -104.574 31.6422)" style="mix-blend-mode:normal;"/>
</g>
<g id="Polygon" style="mix-blend-mode:normal;" figma:type="regular-polygon">
<use xlink:href="#path1_fill" transform="matrix(-1 5.55112e-17 -5.55112e-17 -1 -149.726 384)" style="mix-blend-mode:normal;"/>
</g>
<g id="Line 2" style="mix-blend-mode:normal;" figma:type="line">
<use xlink:href="#path3_stroke" transform="matrix(6.12323e-17 1 -1 6.12323e-17 -164 63)" style="mix-blend-mode:normal;"/>
</g>
<g id="Polygon" style="mix-blend-mode:normal;" figma:type="regular-polygon">
<use xlink:href="#path1_fill" transform="matrix(-1 5.55112e-17 -5.55112e-17 -1 -913.363 384)" style="mix-blend-mode:normal;"/>
</g>
<g id="Line 2" style="mix-blend-mode:normal;" figma:type="line">
<use xlink:href="#path3_stroke" transform="matrix(6.12323e-17 1 -1 6.12323e-17 -927.637 63)" style="mix-blend-mode:normal;"/>
</g>
<g id="Line 3" style="mix-blend-mode:normal;" figma:type="line">
<use xlink:href="#path4_stroke" transform="matrix(0.341935 -0.939724 0.939724 0.341935 -868 403)" style="mix-blend-mode:normal;"/>
</g>
<g id="Line 4" style="mix-blend-mode:normal;" figma:type="line">
<use xlink:href="#path5_stroke" transform="matrix(-0.347198 -0.937792 0.937792 -0.347198 -221 403)" style="mix-blend-mode:normal;"/>
</g>
<g id="Idle" style="mix-blend-mode:normal;" figma:type="frame">
<g id="Idle" style="mix-blend-mode:normal;" figma:type="ellipse">
<mask id="mask0_outline_ins">
<use xlink:href="#path6_fill" fill="white" transform="translate(-657.5 -609)"/>
</mask>
<g mask="url(#mask0_outline_ins)">
<use xlink:href="#path7_stroke_2x" transform="translate(-657.5 -609)" style="mix-blend-mode:normal;"/>
</g>
</g>
<g id="Idle" style="mix-blend-mode:normal;" figma:type="text">
<use xlink:href="#path8_fill" transform="translate(-573.5 -517.5)" style="mix-blend-mode:normal;"/>
</g>
</g>
<g id="DCache1" style="mix-blend-mode:normal;" figma:type="frame">
<g id="DCache1" style="mix-blend-mode:normal;" figma:type="ellipse">
<mask id="mask1_outline_ins">
<use xlink:href="#path6_fill" fill="white" transform="translate(-277 -163)"/>
</mask>
<g mask="url(#mask1_outline_ins)">
<use xlink:href="#path7_stroke_2x" transform="translate(-277 -163)" style="mix-blend-mode:normal;"/>
</g>
</g>
<g id="DCache1" style="mix-blend-mode:normal;" figma:type="text">
<use xlink:href="#path9_fill" transform="translate(-233.863 -71.5)" style="mix-blend-mode:normal;"/>
</g>
</g>
<g id="DCache2" style="mix-blend-mode:normal;" figma:type="frame">
<g id="DCache2" style="mix-blend-mode:normal;" figma:type="ellipse">
<mask id="mask2_outline_ins">
<use xlink:href="#path6_fill" fill="white" transform="translate(-277 384)"/>
</mask>
<g mask="url(#mask2_outline_ins)">
<use xlink:href="#path7_stroke_2x" transform="translate(-277 384)" style="mix-blend-mode:normal;"/>
</g>
</g>
<g id="DCache2" style="mix-blend-mode:normal;" figma:type="text">
<use xlink:href="#path10_fill" transform="translate(-236.5 475.5)" style="mix-blend-mode:normal;"/>
</g>
</g>
<g id="ICache1" style="mix-blend-mode:normal;" figma:type="frame">
<g id="ICache1" style="mix-blend-mode:normal;" figma:type="ellipse">
<mask id="mask3_outline_ins">
<use xlink:href="#path6_fill" fill="white" transform="translate(-1038 -162)"/>
</mask>
<g mask="url(#mask3_outline_ins)">
<use xlink:href="#path7_stroke_2x" transform="translate(-1038 -162)" style="mix-blend-mode:normal;"/>
</g>
</g>
<g id="ICache1" style="mix-blend-mode:normal;" figma:type="text">
<use xlink:href="#path11_fill" transform="translate(-990.5 -71.5)" style="mix-blend-mode:normal;"/>
</g>
</g>
<g id="ICache2" style="mix-blend-mode:normal;" figma:type="frame">
<g id="ICache2" style="mix-blend-mode:normal;" figma:type="ellipse">
<mask id="mask4_outline_ins">
<use xlink:href="#path6_fill" fill="white" transform="translate(-1038 384)"/>
</mask>
<g mask="url(#mask4_outline_ins)">
<use xlink:href="#path7_stroke_2x" transform="translate(-1038 384)" style="mix-blend-mode:normal;"/>
</g>
</g>
<g id="ICache2" style="mix-blend-mode:normal;" figma:type="text">
<use xlink:href="#path12_fill" transform="translate(-993.137 475.5)" style="mix-blend-mode:normal;"/>
</g>
</g>
<g id="Vector" style="mix-blend-mode:normal;" figma:type="vector">
<use xlink:href="#path13_stroke" transform="translate(-1230.5 -205.46)" style="mix-blend-mode:normal;"/>
</g>
<g id="Vector" style="mix-blend-mode:normal;" figma:type="vector">
<use xlink:href="#path13_stroke" transform="matrix(-1 0 0 1 141.5 -205.46)" style="mix-blend-mode:normal;"/>
</g>
<g id="mem_resp = 0" style="mix-blend-mode:normal;" figma:type="text">
<use xlink:href="#path14_fill" transform="translate(172 -62)" style="mix-blend-mode:normal;"/>
</g>
<g id="mem_resp = 1" style="mix-blend-mode:normal;" figma:type="text">
<use xlink:href="#path15_fill" transform="translate(-130 245)" style="mix-blend-mode:normal;"/>
</g>
<g id="mem_resp = 1" style="mix-blend-mode:normal;" figma:type="text">
<use xlink:href="#path16_fill" transform="translate(-1165.33 245)" style="mix-blend-mode:normal;"/>
</g>
<g id="mem_resp = 0" style="mix-blend-mode:normal;" figma:type="text">
<use xlink:href="#path14_fill" transform="translate(-1488 -62)" style="mix-blend-mode:normal;"/>
</g>
<g id="DCache requests data" style="mix-blend-mode:normal;" figma:type="text">
<use xlink:href="#path17_fill" transform="translate(-366.337 -350.839)" style="mix-blend-mode:normal;"/>
</g>
<g id="ICache requests data, DCache not requesting data" style="mix-blend-mode:normal;" figma:type="text">
<use xlink:href="#path18_fill" transform="translate(-1189 -374.79)" style="mix-blend-mode:normal;"/>
</g>
</g>
<defs>
<path id="path0_stroke" d="M 0 0L 342.733 0L 342.733 -5L 0 -5L 0 0Z"/>
<path id="path1_fill" d="M 11.637 0L 21.715 27.1172L 1.55907 27.1172L 11.637 0Z"/>
<path id="path2_stroke" d="M 0 0L 340.165 0L 340.165 -5L 0 -5L 0 0Z"/>
<path id="path3_stroke" d="M 0 -4.44089e-16L 308 -4.44089e-16L 308 -5L 0 -5L 0 -4.44089e-16Z"/>
<path id="path4_stroke" d="M 0 0L 836.416 0L 836.416 -5L 0 -5L 0 0Z"/>
<path id="path5_stroke" d="M 0 0L 837.201 0L 837.201 -5L 0 -5L 0 0Z"/>
<path id="path6_fill" d="M 226 113C 226 175.408 175.408 226 113 226C 50.5918 226 0 175.408 0 113C 0 50.5918 50.5918 0 113 0C 175.408 0 226 50.5918 226 113Z"/>
<path id="path7_stroke_2x" d="M 221 113C 221 172.647 172.647 221 113 221L 113 231C 178.17 231 231 178.17 231 113L 221 113ZM 113 221C 53.3532 221 5 172.647 5 113L -5 113C -5 178.17 47.8304 231 113 231L 113 221ZM 5 113C 5 53.3532 53.3532 5 113 5L 113 -5C 47.8304 -5 -5 47.8304 -5 113L 5 113ZM 113 5C 172.647 5 221 53.3532 221 113L 231 113C 231 47.8304 178.17 -5 113 -5L 113 5Z"/>
<path id="path8_fill" d="M 6.5918 33.3984L 3.2168 33.3984L 3.2168 7.80469L 6.5918 7.80469L 6.5918 33.3984ZM 11.4785 23.7305C 11.4785 20.8125 12.1699 18.4688 13.5527 16.6992C 14.9355 14.918 16.7461 14.0273 18.9844 14.0273C 21.2109 14.0273 22.9746 14.7891 24.2754 16.3125L 24.2754 6.39844L 27.5273 6.39844L 27.5273 33.3984L 24.5391 33.3984L 24.3809 31.3594C 23.0801 32.9531 21.2695 33.75 18.9492 33.75C 16.7461 33.75 14.9473 32.8477 13.5527 31.043C 12.1699 29.2383 11.4785 26.8828 11.4785 23.9766L 11.4785 23.7305ZM 14.7305 24.0996C 14.7305 26.2559 15.1758 27.9434 16.0664 29.1621C 16.957 30.3809 18.1875 30.9902 19.7578 30.9902C 21.8203 30.9902 23.3262 30.0645 24.2754 28.2129L 24.2754 19.4766C 23.3027 17.6836 21.8086 16.7871 19.793 16.7871C 18.1992 16.7871 16.957 17.4023 16.0664 18.6328C 15.1758 19.8633 14.7305 21.6855 14.7305 24.0996ZM 36.123 33.3984L 32.8711 33.3984L 32.8711 6.39844L 36.123 6.39844L 36.123 33.3984ZM 49.2363 33.75C 46.6582 33.75 44.5605 32.9062 42.9434 31.2188C 41.3262 29.5195 40.5176 27.252 40.5176 24.416L 40.5176 23.8184C 40.5176 21.9316 40.875 20.25 41.5898 18.7734C 42.3164 17.2852 43.3242 16.125 44.6133 15.293C 45.9141 14.4492 47.3203 14.0273 48.832 14.0273C 51.3047 14.0273 53.2266 14.8418 54.5977 16.4707C 55.9688 18.0996 56.6543 20.4316 56.6543 23.4668L 56.6543 24.8203L 43.7695 24.8203C 43.8164 26.6953 44.3613 28.2129 45.4043 29.373C 46.459 30.5215 47.7949 31.0957 49.4121 31.0957C 50.5605 31.0957 51.5332 30.8613 52.3301 30.3926C 53.127 29.9238 53.8242 29.3027 54.4219 28.5293L 56.4082 30.0762C 54.8145 32.5254 52.4238 33.75 49.2363 33.75ZM 48.832 16.6992C 47.5195 16.6992 46.418 17.1797 45.5273 18.1406C 44.6367 19.0898 44.0859 20.4258 43.875 22.1484L 53.4023 22.1484L 53.4023 21.9023C 53.3086 20.25 52.8633 18.9727 52.0664 18.0703C 51.2695 17.1562 50.1914 16.6992 48.832 16.6992Z"/>
<path id="path9_fill" d="M 2.9707 33.3984L 2.9707 7.80469L 10.1953 7.80469C 12.4219 7.80469 14.3906 8.29688 16.1016 9.28125C 17.8125 10.2656 19.1309 11.666 20.0566 13.4824C 20.9941 15.2988 21.4688 17.3848 21.4805 19.7402L 21.4805 21.375C 21.4805 23.7891 21.0117 25.9043 20.0742 27.7207C 19.1484 29.5371 17.8184 30.9316 16.084 31.9043C 14.3613 32.877 12.3516 33.375 10.0547 33.3984L 2.9707 33.3984ZM 6.3457 10.582L 6.3457 30.6387L 9.89648 30.6387C 12.498 30.6387 14.5195 29.8301 15.9609 28.2129C 17.4141 26.5957 18.1406 24.293 18.1406 21.3047L 18.1406 19.8105C 18.1406 16.9043 17.4551 14.6484 16.084 13.043C 14.7246 11.4258 12.791 10.6055 10.2832 10.582L 6.3457 10.582ZM 45.4219 25.2773C 45.1055 27.9844 44.1035 30.0762 42.416 31.5527C 40.7402 33.0176 38.5078 33.75 35.7188 33.75C 32.6953 33.75 30.2695 32.666 28.4414 30.498C 26.625 28.3301 25.7168 25.4297 25.7168 21.7969L 25.7168 19.3359C 25.7168 16.957 26.1387 14.8652 26.9824 13.0605C 27.8379 11.2559 29.0449 9.87305 30.6035 8.91211C 32.1621 7.93945 33.9668 7.45312 36.0176 7.45312C 38.7363 7.45312 40.916 8.21484 42.5566 9.73828C 44.1973 11.25 45.1523 13.3477 45.4219 16.0312L 42.0293 16.0312C 41.7363 13.9922 41.0977 12.5156 40.1133 11.6016C 39.1406 10.6875 37.7754 10.2305 36.0176 10.2305C 33.8613 10.2305 32.168 11.0273 30.9375 12.6211C 29.7187 14.2148 29.1094 16.4824 29.1094 19.4238L 29.1094 21.9023C 29.1094 24.6797 29.6895 26.8887 30.8496 28.5293C 32.0098 30.1699 33.6328 30.9902 35.7188 30.9902C 37.5938 30.9902 39.0293 30.5684 40.0254 29.7246C 41.0332 28.8691 41.7012 27.3867 42.0293 25.2773L 45.4219 25.2773ZM 61.2773 33.3984C 61.0898 33.0234 60.9375 32.3555 60.8203 31.3945C 59.3086 32.9648 57.5039 33.75 55.4062 33.75C 53.5313 33.75 51.9902 33.2227 50.7832 32.168C 49.5879 31.1016 48.9902 29.7539 48.9902 28.125C 48.9902 26.1445 49.7402 24.6094 51.2402 23.5195C 52.752 22.418 54.873 21.8672 57.6035 21.8672L 60.7676 21.8672L 60.7676 20.373C 60.7676 19.2363 60.4277 18.334 59.748 17.666C 59.0684 16.9863 58.0664 16.6465 56.7422 16.6465C 55.582 16.6465 54.6094 16.9395 53.8242 17.5254C 53.0391 18.1113 52.6465 18.8203 52.6465 19.6523L 49.377 19.6523C 49.377 18.7031 49.7109 17.7891 50.3789 16.9102C 51.0586 16.0195 51.9727 15.3164 53.1211 14.8008C 54.2812 14.2852 55.5527 14.0273 56.9355 14.0273C 59.127 14.0273 60.8437 14.5781 62.0859 15.6797C 63.3281 16.7695 63.9727 18.2754 64.0195 20.1973L 64.0195 28.9512C 64.0195 30.6973 64.2422 32.0859 64.6875 33.1172L 64.6875 33.3984L 61.2773 33.3984ZM 55.8809 30.9199C 56.9004 30.9199 57.8672 30.6562 58.7812 30.1289C 59.6953 29.6016 60.3574 28.916 60.7676 28.0723L 60.7676 24.1699L 58.2188 24.1699C 54.2344 24.1699 52.2422 25.3359 52.2422 27.668C 52.2422 28.6875 52.582 29.4844 53.2617 30.0586C 53.9414 30.6328 54.8145 30.9199 55.8809 30.9199ZM 76.7461 31.0957C 77.9062 31.0957 78.9199 30.7441 79.7871 30.041C 80.6543 29.3379 81.1348 28.459 81.2285 27.4043L 84.3047 27.4043C 84.2461 28.4941 83.8711 29.5312 83.1797 30.5156C 82.4883 31.5 81.5625 32.2852 80.4023 32.8711C 79.2539 33.457 78.0352 33.75 76.7461 33.75C 74.1562 33.75 72.0938 32.8887 70.5586 31.166C 69.0352 29.4316 68.2734 27.0645 68.2734 24.0645L 68.2734 23.5195C 68.2734 21.668 68.6133 20.0215 69.293 18.5801C 69.9727 17.1387 70.9453 16.0195 72.2109 15.2227C 73.4883 14.4258 74.9941 14.0273 76.7285 14.0273C 78.8613 14.0273 80.6309 14.666 82.0371 15.9434C 83.4551 17.2207 84.2109 18.8789 84.3047 20.918L 81.2285 20.918C 81.1348 19.6875 80.666 18.6797 79.8223 17.8945C 78.9902 17.0977 77.959 16.6992 76.7285 16.6992C 75.0762 16.6992 73.793 17.2969 72.8789 18.4922C 71.9766 19.6758 71.5254 21.3926 71.5254 23.6426L 71.5254 24.2578C 71.5254 26.4492 71.9766 28.1367 72.8789 29.3203C 73.7813 30.5039 75.0703 31.0957 76.7461 31.0957ZM 91.2129 16.6816C 92.6543 14.9121 94.5293 14.0273 96.8379 14.0273C 100.857 14.0273 102.885 16.2949 102.92 20.8301L 102.92 33.3984L 99.668 33.3984L 99.668 20.8125C 99.6562 19.4414 99.3398 18.4277 98.7188 17.7715C 98.1094 17.1152 97.1543 16.7871 95.8535 16.7871C 94.7988 16.7871 93.873 17.0684 93.0762 17.6309C 92.2793 18.1934 91.6582 18.9316 91.2129 19.8457L 91.2129 33.3984L 87.9609 33.3984L 87.9609 6.39844L 91.2129 6.39844L 91.2129 16.6816ZM 115.682 33.75C 113.104 33.75 111.006 32.9062 109.389 31.2188C 107.771 29.5195 106.963 27.252 106.963 24.416L 106.963 23.8184C 106.963 21.9316 107.32 20.25 108.035 18.7734C 108.762 17.2852 109.77 16.125 111.059 15.293C 112.359 14.4492 113.766 14.0273 115.277 14.0273C 117.75 14.0273 119.672 14.8418 121.043 16.4707C 122.414 18.0996 123.1 20.4316 123.1 23.4668L 123.1 24.8203L 110.215 24.8203C 110.262 26.6953 110.807 28.2129 111.85 29.373C 112.904 30.5215 114.24 31.0957 115.857 31.0957C 117.006 31.0957 117.979 30.8613 118.775 30.3926C 119.572 29.9238 120.27 29.3027 120.867 28.5293L 122.854 30.0762C 121.26 32.5254 118.869 33.75 115.682 33.75ZM 115.277 16.6992C 113.965 16.6992 112.863 17.1797 111.973 18.1406C 111.082 19.0898 110.531 20.4258 110.32 22.1484L 119.848 22.1484L 119.848 21.9023C 119.754 20.25 119.309 18.9727 118.512 18.0703C 117.715 17.1562 116.637 16.6992 115.277 16.6992ZM 137.232 33.3984L 133.963 33.3984L 133.963 11.7246L 127.406 14.1328L 127.406 11.1797L 136.723 7.68164L 137.232 7.68164L 137.232 33.3984Z"/>
<path id="path10_fill" d="M 2.9707 33.3984L 2.9707 7.80469L 10.1953 7.80469C 12.4219 7.80469 14.3906 8.29688 16.1016 9.28125C 17.8125 10.2656 19.1309 11.666 20.0566 13.4824C 20.9941 15.2988 21.4688 17.3848 21.4805 19.7402L 21.4805 21.375C 21.4805 23.7891 21.0117 25.9043 20.0742 27.7207C 19.1484 29.5371 17.8184 30.9316 16.084 31.9043C 14.3613 32.877 12.3516 33.375 10.0547 33.3984L 2.9707 33.3984ZM 6.3457 10.582L 6.3457 30.6387L 9.89648 30.6387C 12.498 30.6387 14.5195 29.8301 15.9609 28.2129C 17.4141 26.5957 18.1406 24.293 18.1406 21.3047L 18.1406 19.8105C 18.1406 16.9043 17.4551 14.6484 16.084 13.043C 14.7246 11.4258 12.791 10.6055 10.2832 10.582L 6.3457 10.582ZM 45.4219 25.2773C 45.1055 27.9844 44.1035 30.0762 42.416 31.5527C 40.7402 33.0176 38.5078 33.75 35.7188 33.75C 32.6953 33.75 30.2695 32.666 28.4414 30.498C 26.625 28.3301 25.7168 25.4297 25.7168 21.7969L 25.7168 19.3359C 25.7168 16.957 26.1387 14.8652 26.9824 13.0605C 27.8379 11.2559 29.0449 9.87305 30.6035 8.91211C 32.1621 7.93945 33.9668 7.45312 36.0176 7.45312C 38.7363 7.45312 40.916 8.21484 42.5566 9.73828C 44.1973 11.25 45.1523 13.3477 45.4219 16.0312L 42.0293 16.0312C 41.7363 13.9922 41.0977 12.5156 40.1133 11.6016C 39.1406 10.6875 37.7754 10.2305 36.0176 10.2305C 33.8613 10.2305 32.168 11.0273 30.9375 12.6211C 29.7187 14.2148 29.1094 16.4824 29.1094 19.4238L 29.1094 21.9023C 29.1094 24.6797 29.6895 26.8887 30.8496 28.5293C 32.0098 30.1699 33.6328 30.9902 35.7188 30.9902C 37.5938 30.9902 39.0293 30.5684 40.0254 29.7246C 41.0332 28.8691 41.7012 27.3867 42.0293 25.2773L 45.4219 25.2773ZM 61.2773 33.3984C 61.0898 33.0234 60.9375 32.3555 60.8203 31.3945C 59.3086 32.9648 57.5039 33.75 55.4062 33.75C 53.5313 33.75 51.9902 33.2227 50.7832 32.168C 49.5879 31.1016 48.9902 29.7539 48.9902 28.125C 48.9902 26.1445 49.7402 24.6094 51.2402 23.5195C 52.752 22.418 54.873 21.8672 57.6035 21.8672L 60.7676 21.8672L 60.7676 20.373C 60.7676 19.2363 60.4277 18.334 59.748 17.666C 59.0684 16.9863 58.0664 16.6465 56.7422 16.6465C 55.582 16.6465 54.6094 16.9395 53.8242 17.5254C 53.0391 18.1113 52.6465 18.8203 52.6465 19.6523L 49.377 19.6523C 49.377 18.7031 49.7109 17.7891 50.3789 16.9102C 51.0586 16.0195 51.9727 15.3164 53.1211 14.8008C 54.2812 14.2852 55.5527 14.0273 56.9355 14.0273C 59.127 14.0273 60.8437 14.5781 62.0859 15.6797C 63.3281 16.7695 63.9727 18.2754 64.0195 20.1973L 64.0195 28.9512C 64.0195 30.6973 64.2422 32.0859 64.6875 33.1172L 64.6875 33.3984L 61.2773 33.3984ZM 55.8809 30.9199C 56.9004 30.9199 57.8672 30.6562 58.7812 30.1289C 59.6953 29.6016 60.3574 28.916 60.7676 28.0723L 60.7676 24.1699L 58.2188 24.1699C 54.2344 24.1699 52.2422 25.3359 52.2422 27.668C 52.2422 28.6875 52.582 29.4844 53.2617 30.0586C 53.9414 30.6328 54.8145 30.9199 55.8809 30.9199ZM 76.7461 31.0957C 77.9062 31.0957 78.9199 30.7441 79.7871 30.041C 80.6543 29.3379 81.1348 28.459 81.2285 27.4043L 84.3047 27.4043C 84.2461 28.4941 83.8711 29.5312 83.1797 30.5156C 82.4883 31.5 81.5625 32.2852 80.4023 32.8711C 79.2539 33.457 78.0352 33.75 76.7461 33.75C 74.1562 33.75 72.0938 32.8887 70.5586 31.166C 69.0352 29.4316 68.2734 27.0645 68.2734 24.0645L 68.2734 23.5195C 68.2734 21.668 68.6133 20.0215 69.293 18.5801C 69.9727 17.1387 70.9453 16.0195 72.2109 15.2227C 73.4883 14.4258 74.9941 14.0273 76.7285 14.0273C 78.8613 14.0273 80.6309 14.666 82.0371 15.9434C 83.4551 17.2207 84.2109 18.8789 84.3047 20.918L 81.2285 20.918C 81.1348 19.6875 80.666 18.6797 79.8223 17.8945C 78.9902 17.0977 77.959 16.6992 76.7285 16.6992C 75.0762 16.6992 73.793 17.2969 72.8789 18.4922C 71.9766 19.6758 71.5254 21.3926 71.5254 23.6426L 71.5254 24.2578C 71.5254 26.4492 71.9766 28.1367 72.8789 29.3203C 73.7813 30.5039 75.0703 31.0957 76.7461 31.0957ZM 91.2129 16.6816C 92.6543 14.9121 94.5293 14.0273 96.8379 14.0273C 100.857 14.0273 102.885 16.2949 102.92 20.8301L 102.92 33.3984L 99.668 33.3984L 99.668 20.8125C 99.6562 19.4414 99.3398 18.4277 98.7188 17.7715C 98.1094 17.1152 97.1543 16.7871 95.8535 16.7871C 94.7988 16.7871 93.873 17.0684 93.0762 17.6309C 92.2793 18.1934 91.6582 18.9316 91.2129 19.8457L 91.2129 33.3984L 87.9609 33.3984L 87.9609 6.39844L 91.2129 6.39844L 91.2129 16.6816ZM 115.682 33.75C 113.104 33.75 111.006 32.9062 109.389 31.2188C 107.771 29.5195 106.963 27.252 106.963 24.416L 106.963 23.8184C 106.963 21.9316 107.32 20.25 108.035 18.7734C 108.762 17.2852 109.77 16.125 111.059 15.293C 112.359 14.4492 113.766 14.0273 115.277 14.0273C 117.75 14.0273 119.672 14.8418 121.043 16.4707C 122.414 18.0996 123.1 20.4316 123.1 23.4668L 123.1 24.8203L 110.215 24.8203C 110.262 26.6953 110.807 28.2129 111.85 29.373C 112.904 30.5215 114.24 31.0957 115.857 31.0957C 117.006 31.0957 117.979 30.8613 118.775 30.3926C 119.572 29.9238 120.27 29.3027 120.867 28.5293L 122.854 30.0762C 121.26 32.5254 118.869 33.75 115.682 33.75ZM 115.277 16.6992C 113.965 16.6992 112.863 17.1797 111.973 18.1406C 111.082 19.0898 110.531 20.4258 110.32 22.1484L 119.848 22.1484L 119.848 21.9023C 119.754 20.25 119.309 18.9727 118.512 18.0703C 117.715 17.1562 116.637 16.6992 115.277 16.6992ZM 143.314 33.3984L 126.545 33.3984L 126.545 31.0605L 135.404 21.2168C 136.717 19.7285 137.619 18.5215 138.111 17.5957C 138.615 16.6582 138.867 15.6914 138.867 14.6953C 138.867 13.3594 138.463 12.2637 137.654 11.4082C 136.846 10.5527 135.768 10.125 134.42 10.125C 132.803 10.125 131.543 10.5879 130.641 11.5137C 129.75 12.4277 129.305 13.7051 129.305 15.3457L 126.053 15.3457C 126.053 12.9902 126.809 11.0859 128.32 9.63281C 129.844 8.17969 131.877 7.45312 134.42 7.45312C 136.799 7.45312 138.68 8.08008 140.062 9.33398C 141.445 10.5762 142.137 12.2344 142.137 14.3086C 142.137 16.8281 140.531 19.8281 137.32 23.3086L 130.465 30.7441L 143.314 30.7441L 143.314 33.3984Z"/>
<path id="path11_fill" d="M 6.5918 33.3984L 3.2168 33.3984L 3.2168 7.80469L 6.5918 7.80469L 6.5918 33.3984ZM 31.6055 25.2773C 31.2891 27.9844 30.2871 30.0762 28.5996 31.5527C 26.9238 33.0176 24.6914 33.75 21.9023 33.75C 18.8789 33.75 16.4531 32.666 14.625 30.498C 12.8086 28.3301 11.9004 25.4297 11.9004 21.7969L 11.9004 19.3359C 11.9004 16.957 12.3223 14.8652 13.166 13.0605C 14.0215 11.2559 15.2285 9.87305 16.7871 8.91211C 18.3457 7.93945 20.1504 7.45312 22.2012 7.45312C 24.9199 7.45312 27.0996 8.21484 28.7402 9.73828C 30.3809 11.25 31.3359 13.3477 31.6055 16.0312L 28.2129 16.0312C 27.9199 13.9922 27.2812 12.5156 26.2969 11.6016C 25.3242 10.6875 23.959 10.2305 22.2012 10.2305C 20.0449 10.2305 18.3516 11.0273 17.1211 12.6211C 15.9023 14.2148 15.293 16.4824 15.293 19.4238L 15.293 21.9023C 15.293 24.6797 15.873 26.8887 17.0332 28.5293C 18.1934 30.1699 19.8164 30.9902 21.9023 30.9902C 23.7773 30.9902 25.2129 30.5684 26.209 29.7246C 27.2168 28.8691 27.8848 27.3867 28.2129 25.2773L 31.6055 25.2773ZM 47.4609 33.3984C 47.2734 33.0234 47.1211 32.3555 47.0039 31.3945C 45.4922 32.9648 43.6875 33.75 41.5898 33.75C 39.7148 33.75 38.1738 33.2227 36.9668 32.168C 35.7715 31.1016 35.1738 29.7539 35.1738 28.125C 35.1738 26.1445 35.9238 24.6094 37.4238 23.5195C 38.9355 22.418 41.0566 21.8672 43.7871 21.8672L 46.9512 21.8672L 46.9512 20.373C 46.9512 19.2363 46.6113 18.334 45.9316 17.666C 45.252 16.9863 44.25 16.6465 42.9258 16.6465C 41.7656 16.6465 40.793 16.9395 40.0078 17.5254C 39.2227 18.1113 38.8301 18.8203 38.8301 19.6523L 35.5605 19.6523C 35.5605 18.7031 35.8945 17.7891 36.5625 16.9102C 37.2422 16.0195 38.1562 15.3164 39.3047 14.8008C 40.4648 14.2852 41.7363 14.0273 43.1191 14.0273C 45.3105 14.0273 47.0273 14.5781 48.2695 15.6797C 49.5117 16.7695 50.1562 18.2754 50.2031 20.1973L 50.2031 28.9512C 50.2031 30.6973 50.4258 32.0859 50.8711 33.1172L 50.8711 33.3984L 47.4609 33.3984ZM 42.0645 30.9199C 43.084 30.9199 44.0508 30.6562 44.9648 30.1289C 45.8789 29.6016 46.541 28.916 46.9512 28.0723L 46.9512 24.1699L 44.4023 24.1699C 40.418 24.1699 38.4258 25.3359 38.4258 27.668C 38.4258 28.6875 38.7656 29.4844 39.4453 30.0586C 40.125 30.6328 40.998 30.9199 42.0645 30.9199ZM 62.9297 31.0957C 64.0898 31.0957 65.1035 30.7441 65.9707 30.041C 66.8379 29.3379 67.3184 28.459 67.4121 27.4043L 70.4883 27.4043C 70.4297 28.4941 70.0547 29.5312 69.3633 30.5156C 68.6719 31.5 67.7461 32.2852 66.5859 32.8711C 65.4375 33.457 64.2187 33.75 62.9297 33.75C 60.3398 33.75 58.2773 32.8887 56.7422 31.166C 55.2187 29.4316 54.457 27.0645 54.457 24.0645L 54.457 23.5195C 54.457 21.668 54.7969 20.0215 55.4766 18.5801C 56.1563 17.1387 57.1289 16.0195 58.3945 15.2227C 59.6719 14.4258 61.1777 14.0273 62.9121 14.0273C 65.0449 14.0273 66.8145 14.666 68.2207 15.9434C 69.6387 17.2207 70.3945 18.8789 70.4883 20.918L 67.4121 20.918C 67.3184 19.6875 66.8496 18.6797 66.0059 17.8945C 65.1738 17.0977 64.1426 16.6992 62.9121 16.6992C 61.2598 16.6992 59.9766 17.2969 59.0625 18.4922C 58.1602 19.6758 57.709 21.3926 57.709 23.6426L 57.709 24.2578C 57.709 26.4492 58.1602 28.1367 59.0625 29.3203C 59.9648 30.5039 61.2539 31.0957 62.9297 31.0957ZM 77.3965 16.6816C 78.8379 14.9121 80.7129 14.0273 83.0215 14.0273C 87.041 14.0273 89.0684 16.2949 89.1035 20.8301L 89.1035 33.3984L 85.8516 33.3984L 85.8516 20.8125C 85.8398 19.4414 85.5234 18.4277 84.9023 17.7715C 84.293 17.1152 83.3379 16.7871 82.0371 16.7871C 80.9824 16.7871 80.0566 17.0684 79.2598 17.6309C 78.4629 18.1934 77.8418 18.9316 77.3965 19.8457L 77.3965 33.3984L 74.1445 33.3984L 74.1445 6.39844L 77.3965 6.39844L 77.3965 16.6816ZM 101.865 33.75C 99.2871 33.75 97.1895 32.9062 95.5723 31.2188C 93.9551 29.5195 93.1465 27.252 93.1465 24.416L 93.1465 23.8184C 93.1465 21.9316 93.5039 20.25 94.2188 18.7734C 94.9453 17.2852 95.9531 16.125 97.2422 15.293C 98.543 14.4492 99.9492 14.0273 101.461 14.0273C 103.934 14.0273 105.855 14.8418 107.227 16.4707C 108.598 18.0996 109.283 20.4316 109.283 23.4668L 109.283 24.8203L 96.3984 24.8203C 96.4453 26.6953 96.9902 28.2129 98.0332 29.373C 99.0879 30.5215 100.424 31.0957 102.041 31.0957C 103.189 31.0957 104.162 30.8613 104.959 30.3926C 105.756 29.9238 106.453 29.3027 107.051 28.5293L 109.037 30.0762C 107.443 32.5254 105.053 33.75 101.865 33.75ZM 101.461 16.6992C 100.148 16.6992 99.0469 17.1797 98.1562 18.1406C 97.2656 19.0898 96.7148 20.4258 96.5039 22.1484L 106.031 22.1484L 106.031 21.9023C 105.938 20.25 105.492 18.9727 104.695 18.0703C 103.898 17.1562 102.82 16.6992 101.461 16.6992ZM 123.416 33.3984L 120.146 33.3984L 120.146 11.7246L 113.59 14.1328L 113.59 11.1797L 122.906 7.68164L 123.416 7.68164L 123.416 33.3984Z"/>
<path id="path12_fill" d="M 6.5918 33.3984L 3.2168 33.3984L 3.2168 7.80469L 6.5918 7.80469L 6.5918 33.3984ZM 31.6055 25.2773C 31.2891 27.9844 30.2871 30.0762 28.5996 31.5527C 26.9238 33.0176 24.6914 33.75 21.9023 33.75C 18.8789 33.75 16.4531 32.666 14.625 30.498C 12.8086 28.3301 11.9004 25.4297 11.9004 21.7969L 11.9004 19.3359C 11.9004 16.957 12.3223 14.8652 13.166 13.0605C 14.0215 11.2559 15.2285 9.87305 16.7871 8.91211C 18.3457 7.93945 20.1504 7.45312 22.2012 7.45312C 24.9199 7.45312 27.0996 8.21484 28.7402 9.73828C 30.3809 11.25 31.3359 13.3477 31.6055 16.0312L 28.2129 16.0312C 27.9199 13.9922 27.2812 12.5156 26.2969 11.6016C 25.3242 10.6875 23.959 10.2305 22.2012 10.2305C 20.0449 10.2305 18.3516 11.0273 17.1211 12.6211C 15.9023 14.2148 15.293 16.4824 15.293 19.4238L 15.293 21.9023C 15.293 24.6797 15.873 26.8887 17.0332 28.5293C 18.1934 30.1699 19.8164 30.9902 21.9023 30.9902C 23.7773 30.9902 25.2129 30.5684 26.209 29.7246C 27.2168 28.8691 27.8848 27.3867 28.2129 25.2773L 31.6055 25.2773ZM 47.4609 33.3984C 47.2734 33.0234 47.1211 32.3555 47.0039 31.3945C 45.4922 32.9648 43.6875 33.75 41.5898 33.75C 39.7148 33.75 38.1738 33.2227 36.9668 32.168C 35.7715 31.1016 35.1738 29.7539 35.1738 28.125C 35.1738 26.1445 35.9238 24.6094 37.4238 23.5195C 38.9355 22.418 41.0566 21.8672 43.7871 21.8672L 46.9512 21.8672L 46.9512 20.373C 46.9512 19.2363 46.6113 18.334 45.9316 17.666C 45.252 16.9863 44.25 16.6465 42.9258 16.6465C 41.7656 16.6465 40.793 16.9395 40.0078 17.5254C 39.2227 18.1113 38.8301 18.8203 38.8301 19.6523L 35.5605 19.6523C 35.5605 18.7031 35.8945 17.7891 36.5625 16.9102C 37.2422 16.0195 38.1562 15.3164 39.3047 14.8008C 40.4648 14.2852 41.7363 14.0273 43.1191 14.0273C 45.3105 14.0273 47.0273 14.5781 48.2695 15.6797C 49.5117 16.7695 50.1562 18.2754 50.2031 20.1973L 50.2031 28.9512C 50.2031 30.6973 50.4258 32.0859 50.8711 33.1172L 50.8711 33.3984L 47.4609 33.3984ZM 42.0645 30.9199C 43.084 30.9199 44.0508 30.6562 44.9648 30.1289C 45.8789 29.6016 46.541 28.916 46.9512 28.0723L 46.9512 24.1699L 44.4023 24.1699C 40.418 24.1699 38.4258 25.3359 38.4258 27.668C 38.4258 28.6875 38.7656 29.4844 39.4453 30.0586C 40.125 30.6328 40.998 30.9199 42.0645 30.9199ZM 62.9297 31.0957C 64.0898 31.0957 65.1035 30.7441 65.9707 30.041C 66.8379 29.3379 67.3184 28.459 67.4121 27.4043L 70.4883 27.4043C 70.4297 28.4941 70.0547 29.5312 69.3633 30.5156C 68.6719 31.5 67.7461 32.2852 66.5859 32.8711C 65.4375 33.457 64.2187 33.75 62.9297 33.75C 60.3398 33.75 58.2773 32.8887 56.7422 31.166C 55.2187 29.4316 54.457 27.0645 54.457 24.0645L 54.457 23.5195C 54.457 21.668 54.7969 20.0215 55.4766 18.5801C 56.1563 17.1387 57.1289 16.0195 58.3945 15.2227C 59.6719 14.4258 61.1777 14.0273 62.9121 14.0273C 65.0449 14.0273 66.8145 14.666 68.2207 15.9434C 69.6387 17.2207 70.3945 18.8789 70.4883 20.918L 67.4121 20.918C 67.3184 19.6875 66.8496 18.6797 66.0059 17.8945C 65.1738 17.0977 64.1426 16.6992 62.9121 16.6992C 61.2598 16.6992 59.9766 17.2969 59.0625 18.4922C 58.1602 19.6758 57.709 21.3926 57.709 23.6426L 57.709 24.2578C 57.709 26.4492 58.1602 28.1367 59.0625 29.3203C 59.9648 30.5039 61.2539 31.0957 62.9297 31.0957ZM 77.3965 16.6816C 78.8379 14.9121 80.7129 14.0273 83.0215 14.0273C 87.041 14.0273 89.0684 16.2949 89.1035 20.8301L 89.1035 33.3984L 85.8516 33.3984L 85.8516 20.8125C 85.8398 19.4414 85.5234 18.4277 84.9023 17.7715C 84.293 17.1152 83.3379 16.7871 82.0371 16.7871C 80.9824 16.7871 80.0566 17.0684 79.2598 17.6309C 78.4629 18.1934 77.8418 18.9316 77.3965 19.8457L 77.3965 33.3984L 74.1445 33.3984L 74.1445 6.39844L 77.3965 6.39844L 77.3965 16.6816ZM 101.865 33.75C 99.2871 33.75 97.1895 32.9062 95.5723 31.2188C 93.9551 29.5195 93.1465 27.252 93.1465 24.416L 93.1465 23.8184C 93.1465 21.9316 93.5039 20.25 94.2188 18.7734C 94.9453 17.2852 95.9531 16.125 97.2422 15.293C 98.543 14.4492 99.9492 14.0273 101.461 14.0273C 103.934 14.0273 105.855 14.8418 107.227 16.4707C 108.598 18.0996 109.283 20.4316 109.283 23.4668L 109.283 24.8203L 96.3984 24.8203C 96.4453 26.6953 96.9902 28.2129 98.0332 29.373C 99.0879 30.5215 100.424 31.0957 102.041 31.0957C 103.189 31.0957 104.162 30.8613 104.959 30.3926C 105.756 29.9238 106.453 29.3027 107.051 28.5293L 109.037 30.0762C 107.443 32.5254 105.053 33.75 101.865 33.75ZM 101.461 16.6992C 100.148 16.6992 99.0469 17.1797 98.1562 18.1406C 97.2656 19.0898 96.7148 20.4258 96.5039 22.1484L 106.031 22.1484L 106.031 21.9023C 105.938 20.25 105.492 18.9727 104.695 18.0703C 103.898 17.1562 102.82 16.6992 101.461 16.6992ZM 129.498 33.3984L 112.729 33.3984L 112.729 31.0605L 121.588 21.2168C 122.9 19.7285 123.803 18.5215 124.295 17.5957C 124.799 16.6582 125.051 15.6914 125.051 14.6953C 125.051 13.3594 124.646 12.2637 123.838 11.4082C 123.029 10.5527 121.951 10.125 120.604 10.125C 118.986 10.125 117.727 10.5879 116.824 11.5137C 115.934 12.4277 115.488 13.7051 115.488 15.3457L 112.236 15.3457C 112.236 12.9902 112.992 11.0859 114.504 9.63281C 116.027 8.17969 118.061 7.45312 120.604 7.45312C 122.982 7.45312 124.863 8.08008 126.246 9.33398C 127.629 10.5762 128.32 12.2344 128.32 14.3086C 128.32 16.8281 126.715 19.8281 123.504 23.3086L 116.648 30.7441L 129.498 30.7441L 129.498 33.3984Z"/>
<path id="path13_stroke" d="M 3.72314e-10 152.46L 2.5 152.46L 3.72314e-10 152.46ZM 236 72.9601C 236 41.2702 220.88 19.6336 198.161 7.92543C 175.593 -3.70515 145.751 -5.44436 116.148 1.90894C 56.9075 16.6238 -2.49994 68.073 -2.5 152.46L 2.5 152.46C 2.50006 70.8475 59.8429 21.0466 117.353 6.76148C 146.125 -0.385222 174.658 1.43805 195.871 12.3699C 216.933 23.2243 231 43.1501 231 72.9601L 236 72.9601ZM -2.5 152.46C -2.50009 185.729 12.4358 216.541 34.604 241.842C 56.7214 267.054 86.3996 287.111 115.838 298.663C 145.309 310.212 175.184 313.574 197.887 305.132C 220.917 296.567 236 276.073 236 241.46L 231 241.46C 231 274.348 216.896 292.728 196.145 300.445C 175.066 308.284 146.566 305.334 117.662 294.008C 88.7254 282.685 60.0285 263.304 38.3647 238.547C 16.7515 213.879 2.49992 184.192 2.5 152.46L -2.5 152.46Z"/>
<path id="path14_fill" d="M 5.51953 14.3789L 5.60742 16.4883C 7.00195 14.8477 8.88281 14.0273 11.25 14.0273C 13.9102 14.0273 15.7207 15.0469 16.6816 17.0859C 17.3145 16.1719 18.1348 15.4336 19.1426 14.8711C 20.1621 14.3086 21.3633 14.0273 22.7461 14.0273C 26.918 14.0273 29.0391 16.2363 29.1094 20.6543L 29.1094 33.3984L 25.8574 33.3984L 25.8574 20.8477C 25.8574 19.4883 25.5469 18.4746 24.9258 17.8066C 24.3047 17.127 23.2617 16.7871 21.7969 16.7871C 20.5898 16.7871 19.5879 17.1504 18.791 17.877C 17.9941 18.5918 17.5312 19.5586 17.4023 20.7773L 17.4023 33.3984L 14.1328 33.3984L 14.1328 20.9355C 14.1328 18.1699 12.7793 16.7871 10.0723 16.7871C 7.93945 16.7871 6.48047 17.6953 5.69531 19.5117L 5.69531 33.3984L 2.44336 33.3984L 2.44336 14.3789L 5.51953 14.3789ZM 41.9238 33.75C 39.3457 33.75 37.248 32.9062 35.6309 31.2188C 34.0137 29.5195 33.2051 27.252 33.2051 24.416L 33.2051 23.8184C 33.2051 21.9316 33.5625 20.25 34.2773 18.7734C 35.0039 17.2852 36.0117 16.125 37.3008 15.293C 38.6016 14.4492 40.0078 14.0273 41.5195 14.0273C 43.9922 14.0273 45.9141 14.8418 47.2852 16.4707C 48.6562 18.0996 49.3418 20.4316 49.3418 23.4668L 49.3418 24.8203L 36.457 24.8203C 36.5039 26.6953 37.0488 28.2129 38.0918 29.373C 39.1465 30.5215 40.4824 31.0957 42.0996 31.0957C 43.248 31.0957 44.2207 30.8613 45.0176 30.3926C 45.8145 29.9238 46.5117 29.3027 47.1094 28.5293L 49.0957 30.0762C 47.502 32.5254 45.1113 33.75 41.9238 33.75ZM 41.5195 16.6992C 40.207 16.6992 39.1055 17.1797 38.2148 18.1406C 37.3242 19.0898 36.7734 20.4258 36.5625 22.1484L 46.0898 22.1484L 46.0898 21.9023C 45.9961 20.25 45.5508 18.9727 44.7539 18.0703C 43.957 17.1562 42.8789 16.6992 41.5195 16.6992ZM 56.1797 14.3789L 56.2676 16.4883C 57.6621 14.8477 59.543 14.0273 61.9102 14.0273C 64.5703 14.0273 66.3809 15.0469 67.3418 17.0859C 67.9746 16.1719 68.7949 15.4336 69.8027 14.8711C 70.8223 14.3086 72.0234 14.0273 73.4062 14.0273C 77.5781 14.0273 79.6992 16.2363 79.7695 20.6543L 79.7695 33.3984L 76.5176 33.3984L 76.5176 20.8477C 76.5176 19.4883 76.207 18.4746 75.5859 17.8066C 74.9648 17.127 73.9219 16.7871 72.457 16.7871C 71.25 16.7871 70.248 17.1504 69.4512 17.877C 68.6543 18.5918 68.1914 19.5586 68.0625 20.7773L 68.0625 33.3984L 64.793 33.3984L 64.793 20.9355C 64.793 18.1699 63.4395 16.7871 60.7324 16.7871C 58.5996 16.7871 57.1406 17.6953 56.3555 19.5117L 56.3555 33.3984L 53.1035 33.3984L 53.1035 14.3789L 56.1797 14.3789ZM 98.4023 36.0527L 82.3008 36.0527L 82.3008 33.3984L 98.4023 33.3984L 98.4023 36.0527ZM 110.127 17.2969C 109.635 17.2148 109.102 17.1738 108.527 17.1738C 106.395 17.1738 104.947 18.082 104.186 19.8984L 104.186 33.3984L 100.934 33.3984L 100.934 14.3789L 104.098 14.3789L 104.15 16.5762C 105.217 14.877 106.729 14.0273 108.686 14.0273C 109.318 14.0273 109.799 14.1094 110.127 14.2734L 110.127 17.2969ZM 120.709 33.75C 118.131 33.75 116.033 32.9062 114.416 31.2188C 112.799 29.5195 111.99 27.252 111.99 24.416L 111.99 23.8184C 111.99 21.9316 112.348 20.25 113.062 18.7734C 113.789 17.2852 114.797 16.125 116.086 15.293C 117.387 14.4492 118.793 14.0273 120.305 14.0273C 122.777 14.0273 124.699 14.8418 126.07 16.4707C 127.441 18.0996 128.127 20.4316 128.127 23.4668L 128.127 24.8203L 115.242 24.8203C 115.289 26.6953 115.834 28.2129 116.877 29.373C 117.932 30.5215 119.268 31.0957 120.885 31.0957C 122.033 31.0957 123.006 30.8613 123.803 30.3926C 124.6 29.9238 125.297 29.3027 125.895 28.5293L 127.881 30.0762C 126.287 32.5254 123.896 33.75 120.709 33.75ZM 120.305 16.6992C 118.992 16.6992 117.891 17.1797 117 18.1406C 116.109 19.0898 115.559 20.4258 115.348 22.1484L 124.875 22.1484L 124.875 21.9023C 124.781 20.25 124.336 18.9727 123.539 18.0703C 122.742 17.1562 121.664 16.6992 120.305 16.6992ZM 142.98 28.3535C 142.98 27.4746 142.646 26.7949 141.979 26.3145C 141.322 25.8223 140.168 25.4004 138.516 25.0488C 136.875 24.6973 135.568 24.2754 134.596 23.7832C 133.635 23.291 132.92 22.7051 132.451 22.0254C 131.994 21.3457 131.766 20.5371 131.766 19.5996C 131.766 18.041 132.422 16.7227 133.734 15.6445C 135.059 14.5664 136.746 14.0273 138.797 14.0273C 140.953 14.0273 142.699 14.584 144.035 15.6973C 145.383 16.8105 146.057 18.2344 146.057 19.9688L 142.787 19.9688C 142.787 19.0781 142.406 18.3105 141.645 17.666C 140.895 17.0215 139.945 16.6992 138.797 16.6992C 137.613 16.6992 136.688 16.957 136.02 17.4727C 135.352 17.9883 135.018 18.6621 135.018 19.4941C 135.018 20.2793 135.328 20.8711 135.949 21.2695C 136.57 21.668 137.689 22.0488 139.307 22.4121C 140.936 22.7754 142.254 23.209 143.262 23.7129C 144.27 24.2168 145.014 24.8262 145.494 25.541C 145.986 26.2441 146.232 27.1055 146.232 28.125C 146.232 29.8242 145.553 31.1895 144.193 32.2207C 142.834 33.2402 141.07 33.75 138.902 33.75C 137.379 33.75 136.031 33.4805 134.859 32.9414C 133.687 32.4023 132.768 31.6523 132.1 30.6914C 131.443 29.7188 131.115 28.6699 131.115 27.5449L 134.367 27.5449C 134.426 28.6348 134.859 29.502 135.668 30.1465C 136.488 30.7793 137.566 31.0957 138.902 31.0957C 140.133 31.0957 141.117 30.8496 141.855 30.3574C 142.605 29.8535 142.98 29.1855 142.98 28.3535ZM 166.535 24.0996C 166.535 26.9941 165.873 29.3262 164.549 31.0957C 163.225 32.8652 161.432 33.75 159.17 33.75C 156.861 33.75 155.045 33.0176 153.721 31.5527L 153.721 40.7109L 150.469 40.7109L 150.469 14.3789L 153.439 14.3789L 153.598 16.4883C 154.922 14.8477 156.762 14.0273 159.117 14.0273C 161.402 14.0273 163.207 14.8887 164.531 16.6113C 165.867 18.334 166.535 20.7305 166.535 23.8008L 166.535 24.0996ZM 163.283 23.7305C 163.283 21.5859 162.826 19.8926 161.912 18.6504C 160.998 17.4082 159.744 16.7871 158.15 16.7871C 156.182 16.7871 154.705 17.6602 153.721 19.4062L 153.721 28.4941C 154.693 30.2285 156.182 31.0957 158.186 31.0957C 159.744 31.0957 160.98 30.4805 161.895 29.25C 162.82 28.0078 163.283 26.168 163.283 23.7305ZM 194.484 19.0898L 179.824 19.0898L 179.824 16.2598L 194.484 16.2598L 194.484 19.0898ZM 194.484 26.3848L 179.824 26.3848L 179.824 23.5723L 194.484 23.5723L 194.484 26.3848ZM 224.016 22.4824C 224.016 26.291 223.365 29.1211 222.064 30.9727C 220.764 32.8242 218.73 33.75 215.965 33.75C 213.234 33.75 211.213 32.8477 209.9 31.043C 208.588 29.2266 207.908 26.5195 207.861 22.9219L 207.861 18.5801C 207.861 14.8184 208.512 12.0234 209.812 10.1953C 211.113 8.36719 213.152 7.45312 215.93 7.45312C 218.684 7.45312 220.711 8.33789 222.012 10.1074C 223.312 11.8652 223.98 14.584 224.016 18.2637L 224.016 22.4824ZM 220.764 18.0352C 220.764 15.2813 220.377 13.2773 219.604 12.0234C 218.83 10.7578 217.605 10.125 215.93 10.125C 214.266 10.125 213.053 10.752 212.291 12.0059C 211.529 13.2598 211.137 15.1875 211.113 17.7891L 211.113 22.9922C 211.113 25.7578 211.512 27.8027 212.309 29.127C 213.117 30.4395 214.336 31.0957 215.965 31.0957C 217.57 31.0957 218.76 30.4746 219.533 29.2324C 220.318 27.9902 220.729 26.0332 220.764 23.3613L 220.764 18.0352Z"/>
<path id="path15_fill" d="M 5.51953 14.3789L 5.60742 16.4883C 7.00195 14.8477 8.88281 14.0273 11.25 14.0273C 13.9102 14.0273 15.7207 15.0469 16.6816 17.0859C 17.3145 16.1719 18.1348 15.4336 19.1426 14.8711C 20.1621 14.3086 21.3633 14.0273 22.7461 14.0273C 26.918 14.0273 29.0391 16.2363 29.1094 20.6543L 29.1094 33.3984L 25.8574 33.3984L 25.8574 20.8477C 25.8574 19.4883 25.5469 18.4746 24.9258 17.8066C 24.3047 17.127 23.2617 16.7871 21.7969 16.7871C 20.5898 16.7871 19.5879 17.1504 18.791 17.877C 17.9941 18.5918 17.5312 19.5586 17.4023 20.7773L 17.4023 33.3984L 14.1328 33.3984L 14.1328 20.9355C 14.1328 18.1699 12.7793 16.7871 10.0723 16.7871C 7.93945 16.7871 6.48047 17.6953 5.69531 19.5117L 5.69531 33.3984L 2.44336 33.3984L 2.44336 14.3789L 5.51953 14.3789ZM 41.9238 33.75C 39.3457 33.75 37.248 32.9062 35.6309 31.2188C 34.0137 29.5195 33.2051 27.252 33.2051 24.416L 33.2051 23.8184C 33.2051 21.9316 33.5625 20.25 34.2773 18.7734C 35.0039 17.2852 36.0117 16.125 37.3008 15.293C 38.6016 14.4492 40.0078 14.0273 41.5195 14.0273C 43.9922 14.0273 45.9141 14.8418 47.2852 16.4707C 48.6562 18.0996 49.3418 20.4316 49.3418 23.4668L 49.3418 24.8203L 36.457 24.8203C 36.5039 26.6953 37.0488 28.2129 38.0918 29.373C 39.1465 30.5215 40.4824 31.0957 42.0996 31.0957C 43.248 31.0957 44.2207 30.8613 45.0176 30.3926C 45.8145 29.9238 46.5117 29.3027 47.1094 28.5293L 49.0957 30.0762C 47.502 32.5254 45.1113 33.75 41.9238 33.75ZM 41.5195 16.6992C 40.207 16.6992 39.1055 17.1797 38.2148 18.1406C 37.3242 19.0898 36.7734 20.4258 36.5625 22.1484L 46.0898 22.1484L 46.0898 21.9023C 45.9961 20.25 45.5508 18.9727 44.7539 18.0703C 43.957 17.1562 42.8789 16.6992 41.5195 16.6992ZM 56.1797 14.3789L 56.2676 16.4883C 57.6621 14.8477 59.543 14.0273 61.9102 14.0273C 64.5703 14.0273 66.3809 15.0469 67.3418 17.0859C 67.9746 16.1719 68.7949 15.4336 69.8027 14.8711C 70.8223 14.3086 72.0234 14.0273 73.4062 14.0273C 77.5781 14.0273 79.6992 16.2363 79.7695 20.6543L 79.7695 33.3984L 76.5176 33.3984L 76.5176 20.8477C 76.5176 19.4883 76.207 18.4746 75.5859 17.8066C 74.9648 17.127 73.9219 16.7871 72.457 16.7871C 71.25 16.7871 70.248 17.1504 69.4512 17.877C 68.6543 18.5918 68.1914 19.5586 68.0625 20.7773L 68.0625 33.3984L 64.793 33.3984L 64.793 20.9355C 64.793 18.1699 63.4395 16.7871 60.7324 16.7871C 58.5996 16.7871 57.1406 17.6953 56.3555 19.5117L 56.3555 33.3984L 53.1035 33.3984L 53.1035 14.3789L 56.1797 14.3789ZM 98.4023 36.0527L 82.3008 36.0527L 82.3008 33.3984L 98.4023 33.3984L 98.4023 36.0527ZM 110.127 17.2969C 109.635 17.2148 109.102 17.1738 108.527 17.1738C 106.395 17.1738 104.947 18.082 104.186 19.8984L 104.186 33.3984L 100.934 33.3984L 100.934 14.3789L 104.098 14.3789L 104.15 16.5762C 105.217 14.877 106.729 14.0273 108.686 14.0273C 109.318 14.0273 109.799 14.1094 110.127 14.2734L 110.127 17.2969ZM 120.709 33.75C 118.131 33.75 116.033 32.9062 114.416 31.2188C 112.799 29.5195 111.99 27.252 111.99 24.416L 111.99 23.8184C 111.99 21.9316 112.348 20.25 113.062 18.7734C 113.789 17.2852 114.797 16.125 116.086 15.293C 117.387 14.4492 118.793 14.0273 120.305 14.0273C 122.777 14.0273 124.699 14.8418 126.07 16.4707C 127.441 18.0996 128.127 20.4316 128.127 23.4668L 128.127 24.8203L 115.242 24.8203C 115.289 26.6953 115.834 28.2129 116.877 29.373C 117.932 30.5215 119.268 31.0957 120.885 31.0957C 122.033 31.0957 123.006 30.8613 123.803 30.3926C 124.6 29.9238 125.297 29.3027 125.895 28.5293L 127.881 30.0762C 126.287 32.5254 123.896 33.75 120.709 33.75ZM 120.305 16.6992C 118.992 16.6992 117.891 17.1797 117 18.1406C 116.109 19.0898 115.559 20.4258 115.348 22.1484L 124.875 22.1484L 124.875 21.9023C 124.781 20.25 124.336 18.9727 123.539 18.0703C 122.742 17.1562 121.664 16.6992 120.305 16.6992ZM 142.98 28.3535C 142.98 27.4746 142.646 26.7949 141.979 26.3145C 141.322 25.8223 140.168 25.4004 138.516 25.0488C 136.875 24.6973 135.568 24.2754 134.596 23.7832C 133.635 23.291 132.92 22.7051 132.451 22.0254C 131.994 21.3457 131.766 20.5371 131.766 19.5996C 131.766 18.041 132.422 16.7227 133.734 15.6445C 135.059 14.5664 136.746 14.0273 138.797 14.0273C 140.953 14.0273 142.699 14.584 144.035 15.6973C 145.383 16.8105 146.057 18.2344 146.057 19.9688L 142.787 19.9688C 142.787 19.0781 142.406 18.3105 141.645 17.666C 140.895 17.0215 139.945 16.6992 138.797 16.6992C 137.613 16.6992 136.688 16.957 136.02 17.4727C 135.352 17.9883 135.018 18.6621 135.018 19.4941C 135.018 20.2793 135.328 20.8711 135.949 21.2695C 136.57 21.668 137.689 22.0488 139.307 22.4121C 140.936 22.7754 142.254 23.209 143.262 23.7129C 144.27 24.2168 145.014 24.8262 145.494 25.541C 145.986 26.2441 146.232 27.1055 146.232 28.125C 146.232 29.8242 145.553 31.1895 144.193 32.2207C 142.834 33.2402 141.07 33.75 138.902 33.75C 137.379 33.75 136.031 33.4805 134.859 32.9414C 133.687 32.4023 132.768 31.6523 132.1 30.6914C 131.443 29.7188 131.115 28.6699 131.115 27.5449L 134.367 27.5449C 134.426 28.6348 134.859 29.502 135.668 30.1465C 136.488 30.7793 137.566 31.0957 138.902 31.0957C 140.133 31.0957 141.117 30.8496 141.855 30.3574C 142.605 29.8535 142.98 29.1855 142.98 28.3535ZM 166.535 24.0996C 166.535 26.9941 165.873 29.3262 164.549 31.0957C 163.225 32.8652 161.432 33.75 159.17 33.75C 156.861 33.75 155.045 33.0176 153.721 31.5527L 153.721 40.7109L 150.469 40.7109L 150.469 14.3789L 153.439 14.3789L 153.598 16.4883C 154.922 14.8477 156.762 14.0273 159.117 14.0273C 161.402 14.0273 163.207 14.8887 164.531 16.6113C 165.867 18.334 166.535 20.7305 166.535 23.8008L 166.535 24.0996ZM 163.283 23.7305C 163.283 21.5859 162.826 19.8926 161.912 18.6504C 160.998 17.4082 159.744 16.7871 158.15 16.7871C 156.182 16.7871 154.705 17.6602 153.721 19.4062L 153.721 28.4941C 154.693 30.2285 156.182 31.0957 158.186 31.0957C 159.744 31.0957 160.98 30.4805 161.895 29.25C 162.82 28.0078 163.283 26.168 163.283 23.7305ZM 194.484 19.0898L 179.824 19.0898L 179.824 16.2598L 194.484 16.2598L 194.484 19.0898ZM 194.484 26.3848L 179.824 26.3848L 179.824 23.5723L 194.484 23.5723L 194.484 26.3848ZM 218.654 33.3984L 215.385 33.3984L 215.385 11.7246L 208.828 14.1328L 208.828 11.1797L 218.145 7.68164L 218.654 7.68164L 218.654 33.3984Z"/>
<path id="path16_fill" d="M 6.46484 14.3789L 6.55273 16.4883C 7.94727 14.8477 9.82813 14.0273 12.1953 14.0273C 14.8555 14.0273 16.666 15.0469 17.627 17.0859C 18.2598 16.1719 19.0801 15.4336 20.0879 14.8711C 21.1074 14.3086 22.3086 14.0273 23.6914 14.0273C 27.8633 14.0273 29.9844 16.2363 30.0547 20.6543L 30.0547 33.3984L 26.8027 33.3984L 26.8027 20.8477C 26.8027 19.4883 26.4922 18.4746 25.8711 17.8066C 25.25 17.127 24.207 16.7871 22.7422 16.7871C 21.5352 16.7871 20.5332 17.1504 19.7363 17.877C 18.9395 18.5918 18.4766 19.5586 18.3477 20.7773L 18.3477 33.3984L 15.0781 33.3984L 15.0781 20.9355C 15.0781 18.1699 13.7246 16.7871 11.0176 16.7871C 8.88477 16.7871 7.42578 17.6953 6.64062 19.5117L 6.64062 33.3984L 3.38867 33.3984L 3.38867 14.3789L 6.46484 14.3789ZM 42.8691 33.75C 40.291 33.75 38.1934 32.9062 36.5762 31.2188C 34.959 29.5195 34.1504 27.252 34.1504 24.416L 34.1504 23.8184C 34.1504 21.9316 34.5078 20.25 35.2227 18.7734C 35.9492 17.2852 36.957 16.125 38.2461 15.293C 39.5469 14.4492 40.9531 14.0273 42.4648 14.0273C 44.9375 14.0273 46.8594 14.8418 48.2305 16.4707C 49.6016 18.0996 50.2871 20.4316 50.2871 23.4668L 50.2871 24.8203L 37.4023 24.8203C 37.4492 26.6953 37.9941 28.2129 39.0371 29.373C 40.0918 30.5215 41.4277 31.0957 43.0449 31.0957C 44.1934 31.0957 45.166 30.8613 45.9629 30.3926C 46.7598 29.9238 47.457 29.3027 48.0547 28.5293L 50.041 30.0762C 48.4473 32.5254 46.0566 33.75 42.8691 33.75ZM 42.4648 16.6992C 41.1523 16.6992 40.0508 17.1797 39.1602 18.1406C 38.2695 19.0898 37.7188 20.4258 37.5078 22.1484L 47.0352 22.1484L 47.0352 21.9023C 46.9414 20.25 46.4961 18.9727 45.6992 18.0703C 44.9023 17.1562 43.8242 16.6992 42.4648 16.6992ZM 57.125 14.3789L 57.2129 16.4883C 58.6074 14.8477 60.4883 14.0273 62.8555 14.0273C 65.5156 14.0273 67.3262 15.0469 68.2871 17.0859C 68.9199 16.1719 69.7402 15.4336 70.748 14.8711C 71.7676 14.3086 72.9688 14.0273 74.3516 14.0273C 78.5234 14.0273 80.6445 16.2363 80.7148 20.6543L 80.7148 33.3984L 77.4629 33.3984L 77.4629 20.8477C 77.4629 19.4883 77.1523 18.4746 76.5312 17.8066C 75.9102 17.127 74.8672 16.7871 73.4023 16.7871C 72.1953 16.7871 71.1934 17.1504 70.3965 17.877C 69.5996 18.5918 69.1367 19.5586 69.0078 20.7773L 69.0078 33.3984L 65.7383 33.3984L 65.7383 20.9355C 65.7383 18.1699 64.3848 16.7871 61.6777 16.7871C 59.5449 16.7871 58.0859 17.6953 57.3008 19.5117L 57.3008 33.3984L 54.0488 33.3984L 54.0488 14.3789L 57.125 14.3789ZM 99.3477 36.0527L 83.2461 36.0527L 83.2461 33.3984L 99.3477 33.3984L 99.3477 36.0527ZM 111.072 17.2969C 110.58 17.2148 110.047 17.1738 109.473 17.1738C 107.34 17.1738 105.893 18.082 105.131 19.8984L 105.131 33.3984L 101.879 33.3984L 101.879 14.3789L 105.043 14.3789L 105.096 16.5762C 106.162 14.877 107.674 14.0273 109.631 14.0273C 110.264 14.0273 110.744 14.1094 111.072 14.2734L 111.072 17.2969ZM 121.654 33.75C 119.076 33.75 116.979 32.9062 115.361 31.2188C 113.744 29.5195 112.936 27.252 112.936 24.416L 112.936 23.8184C 112.936 21.9316 113.293 20.25 114.008 18.7734C 114.734 17.2852 115.742 16.125 117.031 15.293C 118.332 14.4492 119.738 14.0273 121.25 14.0273C 123.723 14.0273 125.645 14.8418 127.016 16.4707C 128.387 18.0996 129.072 20.4316 129.072 23.4668L 129.072 24.8203L 116.188 24.8203C 116.234 26.6953 116.779 28.2129 117.822 29.373C 118.877 30.5215 120.213 31.0957 121.83 31.0957C 122.979 31.0957 123.951 30.8613 124.748 30.3926C 125.545 29.9238 126.242 29.3027 126.84 28.5293L 128.826 30.0762C 127.232 32.5254 124.842 33.75 121.654 33.75ZM 121.25 16.6992C 119.938 16.6992 118.836 17.1797 117.945 18.1406C 117.055 19.0898 116.504 20.4258 116.293 22.1484L 125.82 22.1484L 125.82 21.9023C 125.727 20.25 125.281 18.9727 124.484 18.0703C 123.688 17.1562 122.609 16.6992 121.25 16.6992ZM 143.926 28.3535C 143.926 27.4746 143.592 26.7949 142.924 26.3145C 142.268 25.8223 141.113 25.4004 139.461 25.0488C 137.82 24.6973 136.514 24.2754 135.541 23.7832C 134.58 23.291 133.865 22.7051 133.396 22.0254C 132.939 21.3457 132.711 20.5371 132.711 19.5996C 132.711 18.041 133.367 16.7227 134.68 15.6445C 136.004 14.5664 137.691 14.0273 139.742 14.0273C 141.898 14.0273 143.645 14.584 144.98 15.6973C 146.328 16.8105 147.002 18.2344 147.002 19.9688L 143.732 19.9688C 143.732 19.0781 143.352 18.3105 142.59 17.666C 141.84 17.0215 140.891 16.6992 139.742 16.6992C 138.559 16.6992 137.633 16.957 136.965 17.4727C 136.297 17.9883 135.963 18.6621 135.963 19.4941C 135.963 20.2793 136.273 20.8711 136.895 21.2695C 137.516 21.668 138.635 22.0488 140.252 22.4121C 141.881 22.7754 143.199 23.209 144.207 23.7129C 145.215 24.2168 145.959 24.8262 146.439 25.541C 146.932 26.2441 147.178 27.1055 147.178 28.125C 147.178 29.8242 146.498 31.1895 145.139 32.2207C 143.779 33.2402 142.016 33.75 139.848 33.75C 138.324 33.75 136.977 33.4805 135.805 32.9414C 134.633 32.4023 133.713 31.6523 133.045 30.6914C 132.389 29.7188 132.061 28.6699 132.061 27.5449L 135.312 27.5449C 135.371 28.6348 135.805 29.502 136.613 30.1465C 137.434 30.7793 138.512 31.0957 139.848 31.0957C 141.078 31.0957 142.062 30.8496 142.801 30.3574C 143.551 29.8535 143.926 29.1855 143.926 28.3535ZM 167.48 24.0996C 167.48 26.9941 166.818 29.3262 165.494 31.0957C 164.17 32.8652 162.377 33.75 160.115 33.75C 157.807 33.75 155.99 33.0176 154.666 31.5527L 154.666 40.7109L 151.414 40.7109L 151.414 14.3789L 154.385 14.3789L 154.543 16.4883C 155.867 14.8477 157.707 14.0273 160.062 14.0273C 162.348 14.0273 164.152 14.8887 165.477 16.6113C 166.812 18.334 167.48 20.7305 167.48 23.8008L 167.48 24.0996ZM 164.229 23.7305C 164.229 21.5859 163.771 19.8926 162.857 18.6504C 161.943 17.4082 160.689 16.7871 159.096 16.7871C 157.127 16.7871 155.65 17.6602 154.666 19.4062L 154.666 28.4941C 155.639 30.2285 157.127 31.0957 159.131 31.0957C 160.689 31.0957 161.926 30.4805 162.84 29.25C 163.766 28.0078 164.229 26.168 164.229 23.7305ZM 195.43 19.0898L 180.77 19.0898L 180.77 16.2598L 195.43 16.2598L 195.43 19.0898ZM 195.43 26.3848L 180.77 26.3848L 180.77 23.5723L 195.43 23.5723L 195.43 26.3848ZM 219.6 33.3984L 216.33 33.3984L 216.33 11.7246L 209.773 14.1328L 209.773 11.1797L 219.09 7.68164L 219.6 7.68164L 219.6 33.3984Z"/>
<path id="path17_fill" d="M 2.9707 33.3984L 2.9707 7.80469L 10.1953 7.80469C 12.4219 7.80469 14.3906 8.29688 16.1016 9.28125C 17.8125 10.2656 19.1309 11.666 20.0566 13.4824C 20.9941 15.2988 21.4688 17.3848 21.4805 19.7402L 21.4805 21.375C 21.4805 23.7891 21.0117 25.9043 20.0742 27.7207C 19.1484 29.5371 17.8184 30.9316 16.084 31.9043C 14.3613 32.877 12.3516 33.375 10.0547 33.3984L 2.9707 33.3984ZM 6.3457 10.582L 6.3457 30.6387L 9.89648 30.6387C 12.498 30.6387 14.5195 29.8301 15.9609 28.2129C 17.4141 26.5957 18.1406 24.293 18.1406 21.3047L 18.1406 19.8105C 18.1406 16.9043 17.4551 14.6484 16.084 13.043C 14.7246 11.4258 12.791 10.6055 10.2832 10.582L 6.3457 10.582ZM 45.4219 25.2773C 45.1055 27.9844 44.1035 30.0762 42.416 31.5527C 40.7402 33.0176 38.5078 33.75 35.7188 33.75C 32.6953 33.75 30.2695 32.666 28.4414 30.498C 26.625 28.3301 25.7168 25.4297 25.7168 21.7969L 25.7168 19.3359C 25.7168 16.957 26.1387 14.8652 26.9824 13.0605C 27.8379 11.2559 29.0449 9.87305 30.6035 8.91211C 32.1621 7.93945 33.9668 7.45312 36.0176 7.45312C 38.7363 7.45312 40.916 8.21484 42.5566 9.73828C 44.1973 11.25 45.1523 13.3477 45.4219 16.0312L 42.0293 16.0312C 41.7363 13.9922 41.0977 12.5156 40.1133 11.6016C 39.1406 10.6875 37.7754 10.2305 36.0176 10.2305C 33.8613 10.2305 32.168 11.0273 30.9375 12.6211C 29.7187 14.2148 29.1094 16.4824 29.1094 19.4238L 29.1094 21.9023C 29.1094 24.6797 29.6895 26.8887 30.8496 28.5293C 32.0098 30.1699 33.6328 30.9902 35.7188 30.9902C 37.5938 30.9902 39.0293 30.5684 40.0254 29.7246C 41.0332 28.8691 41.7012 27.3867 42.0293 25.2773L 45.4219 25.2773ZM 61.2773 33.3984C 61.0898 33.0234 60.9375 32.3555 60.8203 31.3945C 59.3086 32.9648 57.5039 33.75 55.4062 33.75C 53.5313 33.75 51.9902 33.2227 50.7832 32.168C 49.5879 31.1016 48.9902 29.7539 48.9902 28.125C 48.9902 26.1445 49.7402 24.6094 51.2402 23.5195C 52.752 22.418 54.873 21.8672 57.6035 21.8672L 60.7676 21.8672L 60.7676 20.373C 60.7676 19.2363 60.4277 18.334 59.748 17.666C 59.0684 16.9863 58.0664 16.6465 56.7422 16.6465C 55.582 16.6465 54.6094 16.9395 53.8242 17.5254C 53.0391 18.1113 52.6465 18.8203 52.6465 19.6523L 49.377 19.6523C 49.377 18.7031 49.7109 17.7891 50.3789 16.9102C 51.0586 16.0195 51.9727 15.3164 53.1211 14.8008C 54.2812 14.2852 55.5527 14.0273 56.9355 14.0273C 59.127 14.0273 60.8437 14.5781 62.0859 15.6797C 63.3281 16.7695 63.9727 18.2754 64.0195 20.1973L 64.0195 28.9512C 64.0195 30.6973 64.2422 32.0859 64.6875 33.1172L 64.6875 33.3984L 61.2773 33.3984ZM 55.8809 30.9199C 56.9004 30.9199 57.8672 30.6562 58.7812 30.1289C 59.6953 29.6016 60.3574 28.916 60.7676 28.0723L 60.7676 24.1699L 58.2188 24.1699C 54.2344 24.1699 52.2422 25.3359 52.2422 27.668C 52.2422 28.6875 52.582 29.4844 53.2617 30.0586C 53.9414 30.6328 54.8145 30.9199 55.8809 30.9199ZM 76.7461 31.0957C 77.9062 31.0957 78.9199 30.7441 79.7871 30.041C 80.6543 29.3379 81.1348 28.459 81.2285 27.4043L 84.3047 27.4043C 84.2461 28.4941 83.8711 29.5312 83.1797 30.5156C 82.4883 31.5 81.5625 32.2852 80.4023 32.8711C 79.2539 33.457 78.0352 33.75 76.7461 33.75C 74.1562 33.75 72.0938 32.8887 70.5586 31.166C 69.0352 29.4316 68.2734 27.0645 68.2734 24.0645L 68.2734 23.5195C 68.2734 21.668 68.6133 20.0215 69.293 18.5801C 69.9727 17.1387 70.9453 16.0195 72.2109 15.2227C 73.4883 14.4258 74.9941 14.0273 76.7285 14.0273C 78.8613 14.0273 80.6309 14.666 82.0371 15.9434C 83.4551 17.2207 84.2109 18.8789 84.3047 20.918L 81.2285 20.918C 81.1348 19.6875 80.666 18.6797 79.8223 17.8945C 78.9902 17.0977 77.959 16.6992 76.7285 16.6992C 75.0762 16.6992 73.793 17.2969 72.8789 18.4922C 71.9766 19.6758 71.5254 21.3926 71.5254 23.6426L 71.5254 24.2578C 71.5254 26.4492 71.9766 28.1367 72.8789 29.3203C 73.7813 30.5039 75.0703 31.0957 76.7461 31.0957ZM 91.2129 16.6816C 92.6543 14.9121 94.5293 14.0273 96.8379 14.0273C 100.857 14.0273 102.885 16.2949 102.92 20.8301L 102.92 33.3984L 99.668 33.3984L 99.668 20.8125C 99.6562 19.4414 99.3398 18.4277 98.7188 17.7715C 98.1094 17.1152 97.1543 16.7871 95.8535 16.7871C 94.7988 16.7871 93.873 17.0684 93.0762 17.6309C 92.2793 18.1934 91.6582 18.9316 91.2129 19.8457L 91.2129 33.3984L 87.9609 33.3984L 87.9609 6.39844L 91.2129 6.39844L 91.2129 16.6816ZM 115.682 33.75C 113.104 33.75 111.006 32.9062 109.389 31.2188C 107.771 29.5195 106.963 27.252 106.963 24.416L 106.963 23.8184C 106.963 21.9316 107.32 20.25 108.035 18.7734C 108.762 17.2852 109.77 16.125 111.059 15.293C 112.359 14.4492 113.766 14.0273 115.277 14.0273C 117.75 14.0273 119.672 14.8418 121.043 16.4707C 122.414 18.0996 123.1 20.4316 123.1 23.4668L 123.1 24.8203L 110.215 24.8203C 110.262 26.6953 110.807 28.2129 111.85 29.373C 112.904 30.5215 114.24 31.0957 115.857 31.0957C 117.006 31.0957 117.979 30.8613 118.775 30.3926C 119.572 29.9238 120.27 29.3027 120.867 28.5293L 122.854 30.0762C 121.26 32.5254 118.869 33.75 115.682 33.75ZM 115.277 16.6992C 113.965 16.6992 112.863 17.1797 111.973 18.1406C 111.082 19.0898 110.531 20.4258 110.32 22.1484L 119.848 22.1484L 119.848 21.9023C 119.754 20.25 119.309 18.9727 118.512 18.0703C 117.715 17.1562 116.637 16.6992 115.277 16.6992ZM 145.002 17.2969C 144.51 17.2148 143.977 17.1738 143.402 17.1738C 141.27 17.1738 139.822 18.082 139.061 19.8984L 139.061 33.3984L 135.809 33.3984L 135.809 14.3789L 138.973 14.3789L 139.025 16.5762C 140.092 14.877 141.604 14.0273 143.561 14.0273C 144.193 14.0273 144.674 14.1094 145.002 14.2734L 145.002 17.2969ZM 155.584 33.75C 153.006 33.75 150.908 32.9062 149.291 31.2188C 147.674 29.5195 146.865 27.252 146.865 24.416L 146.865 23.8184C 146.865 21.9316 147.223 20.25 147.938 18.7734C 148.664 17.2852 149.672 16.125 150.961 15.293C 152.262 14.4492 153.668 14.0273 155.18 14.0273C 157.652 14.0273 159.574 14.8418 160.945 16.4707C 162.316 18.0996 163.002 20.4316 163.002 23.4668L 163.002 24.8203L 150.117 24.8203C 150.164 26.6953 150.709 28.2129 151.752 29.373C 152.807 30.5215 154.143 31.0957 155.76 31.0957C 156.908 31.0957 157.881 30.8613 158.678 30.3926C 159.475 29.9238 160.172 29.3027 160.77 28.5293L 162.756 30.0762C 161.162 32.5254 158.771 33.75 155.584 33.75ZM 155.18 16.6992C 153.867 16.6992 152.766 17.1797 151.875 18.1406C 150.984 19.0898 150.434 20.4258 150.223 22.1484L 159.75 22.1484L 159.75 21.9023C 159.656 20.25 159.211 18.9727 158.414 18.0703C 157.617 17.1562 156.539 16.6992 155.18 16.6992ZM 165.99 23.7305C 165.99 20.7422 166.676 18.3809 168.047 16.6465C 169.418 14.9004 171.258 14.0273 173.566 14.0273C 175.816 14.0273 177.592 14.7832 178.893 16.2949L 179.033 14.3789L 182.021 14.3789L 182.021 40.7109L 178.77 40.7109L 178.77 31.6406C 177.457 33.0469 175.711 33.75 173.531 33.75C 171.234 33.75 169.4 32.8594 168.029 31.0781C 166.67 29.2852 165.99 26.9121 165.99 23.959L 165.99 23.7305ZM 169.242 24.0996C 169.242 26.2793 169.699 27.9902 170.613 29.2324C 171.539 30.4746 172.781 31.0957 174.34 31.0957C 176.273 31.0957 177.75 30.2402 178.77 28.5293L 178.77 19.2129C 177.738 17.5371 176.273 16.6992 174.375 16.6992C 172.805 16.6992 171.557 17.3262 170.631 18.5801C 169.705 19.8223 169.242 21.6621 169.242 24.0996ZM 198.984 31.5176C 197.719 33.0059 195.861 33.75 193.412 33.75C 191.385 33.75 189.838 33.1641 188.771 31.9922C 187.717 30.8086 187.184 29.0625 187.172 26.7539L 187.172 14.3789L 190.424 14.3789L 190.424 26.666C 190.424 29.5488 191.596 30.9902 193.939 30.9902C 196.424 30.9902 198.076 30.0645 198.896 28.2129L 198.896 14.3789L 202.148 14.3789L 202.148 33.3984L 199.055 33.3984L 198.984 31.5176ZM 214.998 33.75C 212.42 33.75 210.322 32.9062 208.705 31.2188C 207.088 29.5195 206.279 27.252 206.279 24.416L 206.279 23.8184C 206.279 21.9316 206.637 20.25 207.352 18.7734C 208.078 17.2852 209.086 16.125 210.375 15.293C 211.676 14.4492 213.082 14.0273 214.594 14.0273C 217.066 14.0273 218.988 14.8418 220.359 16.4707C 221.73 18.0996 222.416 20.4316 222.416 23.4668L 222.416 24.8203L 209.531 24.8203C 209.578 26.6953 210.123 28.2129 211.166 29.373C 212.221 30.5215 213.557 31.0957 215.174 31.0957C 216.322 31.0957 217.295 30.8613 218.092 30.3926C 218.889 29.9238 219.586 29.3027 220.184 28.5293L 222.17 30.0762C 220.576 32.5254 218.186 33.75 214.998 33.75ZM 214.594 16.6992C 213.281 16.6992 212.18 17.1797 211.289 18.1406C 210.398 19.0898 209.848 20.4258 209.637 22.1484L 219.164 22.1484L 219.164 21.9023C 219.07 20.25 218.625 18.9727 217.828 18.0703C 217.031 17.1562 215.953 16.6992 214.594 16.6992ZM 237.27 28.3535C 237.27 27.4746 236.936 26.7949 236.268 26.3145C 235.611 25.8223 234.457 25.4004 232.805 25.0488C 231.164 24.6973 229.857 24.2754 228.885 23.7832C 227.924 23.291 227.209 22.7051 226.74 22.0254C 226.283 21.3457 226.055 20.5371 226.055 19.5996C 226.055 18.041 226.711 16.7227 228.023 15.6445C 229.348 14.5664 231.035 14.0273 233.086 14.0273C 235.242 14.0273 236.988 14.584 238.324 15.6973C 239.672 16.8105 240.346 18.2344 240.346 19.9688L 237.076 19.9688C 237.076 19.0781 236.695 18.3105 235.934 17.666C 235.184 17.0215 234.234 16.6992 233.086 16.6992C 231.902 16.6992 230.977 16.957 230.309 17.4727C 229.641 17.9883 229.307 18.6621 229.307 19.4941C 229.307 20.2793 229.617 20.8711 230.238 21.2695C 230.859 21.668 231.979 22.0488 233.596 22.4121C 235.225 22.7754 236.543 23.209 237.551 23.7129C 238.559 24.2168 239.303 24.8262 239.783 25.541C 240.275 26.2441 240.521 27.1055 240.521 28.125C 240.521 29.8242 239.842 31.1895 238.482 32.2207C 237.123 33.2402 235.359 33.75 233.191 33.75C 231.668 33.75 230.32 33.4805 229.148 32.9414C 227.977 32.4023 227.057 31.6523 226.389 30.6914C 225.732 29.7188 225.404 28.6699 225.404 27.5449L 228.656 27.5449C 228.715 28.6348 229.148 29.502 229.957 30.1465C 230.777 30.7793 231.855 31.0957 233.191 31.0957C 234.422 31.0957 235.406 30.8496 236.145 30.3574C 236.895 29.8535 237.27 29.1855 237.27 28.3535ZM 249.17 9.77344L 249.17 14.3789L 252.721 14.3789L 252.721 16.8926L 249.17 16.8926L 249.17 28.6875C 249.17 29.4492 249.328 30.0234 249.645 30.4102C 249.961 30.7852 250.5 30.9727 251.262 30.9727C 251.637 30.9727 252.152 30.9023 252.809 30.7617L 252.809 33.3984C 251.953 33.6328 251.121 33.75 250.312 33.75C 248.859 33.75 247.764 33.3105 247.025 32.4316C 246.287 31.5527 245.918 30.3047 245.918 28.6875L 245.918 16.8926L 242.455 16.8926L 242.455 14.3789L 245.918 14.3789L 245.918 9.77344L 249.17 9.77344ZM 267.609 28.3535C 267.609 27.4746 267.275 26.7949 266.607 26.3145C 265.951 25.8223 264.797 25.4004 263.145 25.0488C 261.504 24.6973 260.197 24.2754 259.225 23.7832C 258.264 23.291 257.549 22.7051 257.08 22.0254C 256.623 21.3457 256.395 20.5371 256.395 19.5996C 256.395 18.041 257.051 16.7227 258.363 15.6445C 259.688 14.5664 261.375 14.0273 263.426 14.0273C 265.582 14.0273 267.328 14.584 268.664 15.6973C 270.012 16.8105 270.686 18.2344 270.686 19.9688L 267.416 19.9688C 267.416 19.0781 267.035 18.3105 266.273 17.666C 265.523 17.0215 264.574 16.6992 263.426 16.6992C 262.242 16.6992 261.316 16.957 260.648 17.4727C 259.98 17.9883 259.646 18.6621 259.646 19.4941C 259.646 20.2793 259.957 20.8711 260.578 21.2695C 261.199 21.668 262.318 22.0488 263.936 22.4121C 265.564 22.7754 266.883 23.209 267.891 23.7129C 268.898 24.2168 269.643 24.8262 270.123 25.541C 270.615 26.2441 270.861 27.1055 270.861 28.125C 270.861 29.8242 270.182 31.1895 268.822 32.2207C 267.463 33.2402 265.699 33.75 263.531 33.75C 262.008 33.75 260.66 33.4805 259.488 32.9414C 258.316 32.4023 257.396 31.6523 256.729 30.6914C 256.072 29.7188 255.744 28.6699 255.744 27.5449L 258.996 27.5449C 259.055 28.6348 259.488 29.502 260.297 30.1465C 261.117 30.7793 262.195 31.0957 263.531 31.0957C 264.762 31.0957 265.746 30.8496 266.484 30.3574C 267.234 29.8535 267.609 29.1855 267.609 28.3535ZM 283.236 23.7305C 283.236 20.8125 283.928 18.4688 285.311 16.6992C 286.693 14.918 288.504 14.0273 290.742 14.0273C 292.969 14.0273 294.732 14.7891 296.033 16.3125L 296.033 6.39844L 299.285 6.39844L 299.285 33.3984L 296.297 33.3984L 296.139 31.3594C 294.838 32.9531 293.027 33.75 290.707 33.75C 288.504 33.75 286.705 32.8477 285.311 31.043C 283.928 29.2383 283.236 26.8828 283.236 23.9766L 283.236 23.7305ZM 286.488 24.0996C 286.488 26.2559 286.934 27.9434 287.824 29.1621C 288.715 30.3809 289.945 30.9902 291.516 30.9902C 293.578 30.9902 295.084 30.0645 296.033 28.2129L 296.033 19.4766C 295.061 17.6836 293.566 16.7871 291.551 16.7871C 289.957 16.7871 288.715 17.4023 287.824 18.6328C 286.934 19.8633 286.488 21.6855 286.488 24.0996ZM 316.09 33.3984C 315.902 33.0234 315.75 32.3555 315.633 31.3945C 314.121 32.9648 312.316 33.75 310.219 33.75C 308.344 33.75 306.803 33.2227 305.596 32.168C 304.4 31.1016 303.803 29.7539 303.803 28.125C 303.803 26.1445 304.553 24.6094 306.053 23.5195C 307.564 22.418 309.686 21.8672 312.416 21.8672L 315.58 21.8672L 315.58 20.373C 315.58 19.2363 315.24 18.334 314.561 17.666C 313.881 16.9863 312.879 16.6465 311.555 16.6465C 310.395 16.6465 309.422 16.9395 308.637 17.5254C 307.852 18.1113 307.459 18.8203 307.459 19.6523L 304.189 19.6523C 304.189 18.7031 304.523 17.7891 305.191 16.9102C 305.871 16.0195 306.785 15.3164 307.934 14.8008C 309.094 14.2852 310.365 14.0273 311.748 14.0273C 313.939 14.0273 315.656 14.5781 316.898 15.6797C 318.141 16.7695 318.785 18.2754 318.832 20.1973L 318.832 28.9512C 318.832 30.6973 319.055 32.0859 319.5 33.1172L 319.5 33.3984L 316.09 33.3984ZM 310.693 30.9199C 311.713 30.9199 312.68 30.6562 313.594 30.1289C 314.508 29.6016 315.17 28.916 315.58 28.0723L 315.58 24.1699L 313.031 24.1699C 309.047 24.1699 307.055 25.3359 307.055 27.668C 307.055 28.6875 307.395 29.4844 308.074 30.0586C 308.754 30.6328 309.627 30.9199 310.693 30.9199ZM 328.342 9.77344L 328.342 14.3789L 331.893 14.3789L 331.893 16.8926L 328.342 16.8926L 328.342 28.6875C 328.342 29.4492 328.5 30.0234 328.816 30.4102C 329.133 30.7852 329.672 30.9727 330.434 30.9727C 330.809 30.9727 331.324 30.9023 331.98 30.7617L 331.98 33.3984C 331.125 33.6328 330.293 33.75 329.484 33.75C 328.031 33.75 326.936 33.3105 326.197 32.4316C 325.459 31.5527 325.09 30.3047 325.09 28.6875L 325.09 16.8926L 321.627 16.8926L 321.627 14.3789L 325.09 14.3789L 325.09 9.77344L 328.342 9.77344ZM 347.449 33.3984C 347.262 33.0234 347.109 32.3555 346.992 31.3945C 345.48 32.9648 343.676 33.75 341.578 33.75C 339.703 33.75 338.162 33.2227 336.955 32.168C 335.76 31.1016 335.162 29.7539 335.162 28.125C 335.162 26.1445 335.912 24.6094 337.412 23.5195C 338.924 22.418 341.045 21.8672 343.775 21.8672L 346.939 21.8672L 346.939 20.373C 346.939 19.2363 346.6 18.334 345.92 17.666C 345.24 16.9863 344.238 16.6465 342.914 16.6465C 341.754 16.6465 340.781 16.9395 339.996 17.5254C 339.211 18.1113 338.818 18.8203 338.818 19.6523L 335.549 19.6523C 335.549 18.7031 335.883 17.7891 336.551 16.9102C 337.23 16.0195 338.145 15.3164 339.293 14.8008C 340.453 14.2852 341.725 14.0273 343.107 14.0273C 345.299 14.0273 347.016 14.5781 348.258 15.6797C 349.5 16.7695 350.145 18.2754 350.191 20.1973L 350.191 28.9512C 350.191 30.6973 350.414 32.0859 350.859 33.1172L 350.859 33.3984L 347.449 33.3984ZM 342.053 30.9199C 343.072 30.9199 344.039 30.6562 344.953 30.1289C 345.867 29.6016 346.529 28.916 346.939 28.0723L 346.939 24.1699L 344.391 24.1699C 340.406 24.1699 338.414 25.3359 338.414 27.668C 338.414 28.6875 338.754 29.4844 339.434 30.0586C 340.113 30.6328 340.986 30.9199 342.053 30.9199Z"/>
<path id="path18_fill" d="M 105.514 33.3984L 102.139 33.3984L 102.139 7.80469L 105.514 7.80469L 105.514 33.3984ZM 130.527 25.2773C 130.211 27.9844 129.209 30.0762 127.521 31.5527C 125.846 33.0176 123.613 33.75 120.824 33.75C 117.801 33.75 115.375 32.666 113.547 30.498C 111.73 28.3301 110.822 25.4297 110.822 21.7969L 110.822 19.3359C 110.822 16.957 111.244 14.8652 112.088 13.0605C 112.943 11.2559 114.15 9.87305 115.709 8.91211C 117.268 7.93945 119.072 7.45312 121.123 7.45312C 123.842 7.45312 126.021 8.21484 127.662 9.73828C 129.303 11.25 130.258 13.3477 130.527 16.0312L 127.135 16.0312C 126.842 13.9922 126.203 12.5156 125.219 11.6016C 124.246 10.6875 122.881 10.2305 121.123 10.2305C 118.967 10.2305 117.273 11.0273 116.043 12.6211C 114.824 14.2148 114.215 16.4824 114.215 19.4238L 114.215 21.9023C 114.215 24.6797 114.795 26.8887 115.955 28.5293C 117.115 30.1699 118.738 30.9902 120.824 30.9902C 122.699 30.9902 124.135 30.5684 125.131 29.7246C 126.139 28.8691 126.807 27.3867 127.135 25.2773L 130.527 25.2773ZM 146.383 33.3984C 146.195 33.0234 146.043 32.3555 145.926 31.3945C 144.414 32.9648 142.609 33.75 140.512 33.75C 138.637 33.75 137.096 33.2227 135.889 32.168C 134.693 31.1016 134.096 29.7539 134.096 28.125C 134.096 26.1445 134.846 24.6094 136.346 23.5195C 137.857 22.418 139.979 21.8672 142.709 21.8672L 145.873 21.8672L 145.873 20.373C 145.873 19.2363 145.533 18.334 144.854 17.666C 144.174 16.9863 143.172 16.6465 141.848 16.6465C 140.688 16.6465 139.715 16.9395 138.93 17.5254C 138.145 18.1113 137.752 18.8203 137.752 19.6523L 134.482 19.6523C 134.482 18.7031 134.816 17.7891 135.484 16.9102C 136.164 16.0195 137.078 15.3164 138.227 14.8008C 139.387 14.2852 140.658 14.0273 142.041 14.0273C 144.232 14.0273 145.949 14.5781 147.191 15.6797C 148.434 16.7695 149.078 18.2754 149.125 20.1973L 149.125 28.9512C 149.125 30.6973 149.348 32.0859 149.793 33.1172L 149.793 33.3984L 146.383 33.3984ZM 140.986 30.9199C 142.006 30.9199 142.973 30.6562 143.887 30.1289C 144.801 29.6016 145.463 28.916 145.873 28.0723L 145.873 24.1699L 143.324 24.1699C 139.34 24.1699 137.348 25.3359 137.348 27.668C 137.348 28.6875 137.688 29.4844 138.367 30.0586C 139.047 30.6328 139.92 30.9199 140.986 30.9199ZM 161.852 31.0957C 163.012 31.0957 164.025 30.7441 164.893 30.041C 165.76 29.3379 166.24 28.459 166.334 27.4043L 169.41 27.4043C 169.352 28.4941 168.977 29.5312 168.285 30.5156C 167.594 31.5 166.668 32.2852 165.508 32.8711C 164.359 33.457 163.141 33.75 161.852 33.75C 159.262 33.75 157.199 32.8887 155.664 31.166C 154.141 29.4316 153.379 27.0645 153.379 24.0645L 153.379 23.5195C 153.379 21.668 153.719 20.0215 154.398 18.5801C 155.078 17.1387 156.051 16.0195 157.316 15.2227C 158.594 14.4258 160.1 14.0273 161.834 14.0273C 163.967 14.0273 165.736 14.666 167.143 15.9434C 168.561 17.2207 169.316 18.8789 169.41 20.918L 166.334 20.918C 166.24 19.6875 165.771 18.6797 164.928 17.8945C 164.096 17.0977 163.064 16.6992 161.834 16.6992C 160.182 16.6992 158.898 17.2969 157.984 18.4922C 157.082 19.6758 156.631 21.3926 156.631 23.6426L 156.631 24.2578C 156.631 26.4492 157.082 28.1367 157.984 29.3203C 158.887 30.5039 160.176 31.0957 161.852 31.0957ZM 176.318 16.6816C 177.76 14.9121 179.635 14.0273 181.943 14.0273C 185.963 14.0273 187.99 16.2949 188.025 20.8301L 188.025 33.3984L 184.773 33.3984L 184.773 20.8125C 184.762 19.4414 184.445 18.4277 183.824 17.7715C 183.215 17.1152 182.26 16.7871 180.959 16.7871C 179.904 16.7871 178.979 17.0684 178.182 17.6309C 177.385 18.1934 176.764 18.9316 176.318 19.8457L 176.318 33.3984L 173.066 33.3984L 173.066 6.39844L 176.318 6.39844L 176.318 16.6816ZM 200.787 33.75C 198.209 33.75 196.111 32.9062 194.494 31.2188C 192.877 29.5195 192.068 27.252 192.068 24.416L 192.068 23.8184C 192.068 21.9316 192.426 20.25 193.141 18.7734C 193.867 17.2852 194.875 16.125 196.164 15.293C 197.465 14.4492 198.871 14.0273 200.383 14.0273C 202.855 14.0273 204.777 14.8418 206.148 16.4707C 207.52 18.0996 208.205 20.4316 208.205 23.4668L 208.205 24.8203L 195.32 24.8203C 195.367 26.6953 195.912 28.2129 196.955 29.373C 198.01 30.5215 199.346 31.0957 200.963 31.0957C 202.111 31.0957 203.084 30.8613 203.881 30.3926C 204.678 29.9238 205.375 29.3027 205.973 28.5293L 207.959 30.0762C 206.365 32.5254 203.975 33.75 200.787 33.75ZM 200.383 16.6992C 199.07 16.6992 197.969 17.1797 197.078 18.1406C 196.188 19.0898 195.637 20.4258 195.426 22.1484L 204.953 22.1484L 204.953 21.9023C 204.859 20.25 204.414 18.9727 203.617 18.0703C 202.82 17.1562 201.742 16.6992 200.383 16.6992ZM 230.107 17.2969C 229.615 17.2148 229.082 17.1738 228.508 17.1738C 226.375 17.1738 224.928 18.082 224.166 19.8984L 224.166 33.3984L 220.914 33.3984L 220.914 14.3789L 224.078 14.3789L 224.131 16.5762C 225.197 14.877 226.709 14.0273 228.666 14.0273C 229.299 14.0273 229.779 14.1094 230.107 14.2734L 230.107 17.2969ZM 240.689 33.75C 238.111 33.75 236.014 32.9062 234.396 31.2188C 232.779 29.5195 231.971 27.252 231.971 24.416L 231.971 23.8184C 231.971 21.9316 232.328 20.25 233.043 18.7734C 233.77 17.2852 234.777 16.125 236.066 15.293C 237.367 14.4492 238.773 14.0273 240.285 14.0273C 242.758 14.0273 244.68 14.8418 246.051 16.4707C 247.422 18.0996 248.107 20.4316 248.107 23.4668L 248.107 24.8203L 235.223 24.8203C 235.27 26.6953 235.814 28.2129 236.857 29.373C 237.912 30.5215 239.248 31.0957 240.865 31.0957C 242.014 31.0957 242.986 30.8613 243.783 30.3926C 244.58 29.9238 245.277 29.3027 245.875 28.5293L 247.861 30.0762C 246.268 32.5254 243.877 33.75 240.689 33.75ZM 240.285 16.6992C 238.973 16.6992 237.871 17.1797 236.98 18.1406C 236.09 19.0898 235.539 20.4258 235.328 22.1484L 244.855 22.1484L 244.855 21.9023C 244.762 20.25 244.316 18.9727 243.52 18.0703C 242.723 17.1562 241.645 16.6992 240.285 16.6992ZM 251.096 23.7305C 251.096 20.7422 251.781 18.3809 253.152 16.6465C 254.523 14.9004 256.363 14.0273 258.672 14.0273C 260.922 14.0273 262.697 14.7832 263.998 16.2949L 264.139 14.3789L 267.127 14.3789L 267.127 40.7109L 263.875 40.7109L 263.875 31.6406C 262.562 33.0469 260.816 33.75 258.637 33.75C 256.34 33.75 254.506 32.8594 253.135 31.0781C 251.775 29.2852 251.096 26.9121 251.096 23.959L 251.096 23.7305ZM 254.348 24.0996C 254.348 26.2793 254.805 27.9902 255.719 29.2324C 256.645 30.4746 257.887 31.0957 259.445 31.0957C 261.379 31.0957 262.855 30.2402 263.875 28.5293L 263.875 19.2129C 262.844 17.5371 261.379 16.6992 259.48 16.6992C 257.91 16.6992 256.662 17.3262 255.736 18.5801C 254.811 19.8223 254.348 21.6621 254.348 24.0996ZM 284.09 31.5176C 282.824 33.0059 280.967 33.75 278.518 33.75C 276.49 33.75 274.943 33.1641 273.877 31.9922C 272.822 30.8086 272.289 29.0625 272.277 26.7539L 272.277 14.3789L 275.529 14.3789L 275.529 26.666C 275.529 29.5488 276.701 30.9902 279.045 30.9902C 281.529 30.9902 283.182 30.0645 284.002 28.2129L 284.002 14.3789L 287.254 14.3789L 287.254 33.3984L 284.16 33.3984L 284.09 31.5176ZM 300.104 33.75C 297.525 33.75 295.428 32.9062 293.811 31.2188C 292.193 29.5195 291.385 27.252 291.385 24.416L 291.385 23.8184C 291.385 21.9316 291.742 20.25 292.457 18.7734C 293.184 17.2852 294.191 16.125 295.48 15.293C 296.781 14.4492 298.188 14.0273 299.699 14.0273C 302.172 14.0273 304.094 14.8418 305.465 16.4707C 306.836 18.0996 307.521 20.4316 307.521 23.4668L 307.521 24.8203L 294.637 24.8203C 294.684 26.6953 295.229 28.2129 296.271 29.373C 297.326 30.5215 298.662 31.0957 300.279 31.0957C 301.428 31.0957 302.4 30.8613 303.197 30.3926C 303.994 29.9238 304.691 29.3027 305.289 28.5293L 307.275 30.0762C 305.682 32.5254 303.291 33.75 300.104 33.75ZM 299.699 16.6992C 298.387 16.6992 297.285 17.1797 296.395 18.1406C 295.504 19.0898 294.953 20.4258 294.742 22.1484L 304.27 22.1484L 304.27 21.9023C 304.176 20.25 303.73 18.9727 302.934 18.0703C 302.137 17.1562 301.059 16.6992 299.699 16.6992ZM 322.375 28.3535C 322.375 27.4746 322.041 26.7949 321.373 26.3145C 320.717 25.8223 319.562 25.4004 317.91 25.0488C 316.27 24.6973 314.963 24.2754 313.99 23.7832C 313.029 23.291 312.314 22.7051 311.846 22.0254C 311.389 21.3457 311.16 20.5371 311.16 19.5996C 311.16 18.041 311.816 16.7227 313.129 15.6445C 314.453 14.5664 316.141 14.0273 318.191 14.0273C 320.348 14.0273 322.094 14.584 323.43 15.6973C 324.777 16.8105 325.451 18.2344 325.451 19.9688L 322.182 19.9688C 322.182 19.0781 321.801 18.3105 321.039 17.666C 320.289 17.0215 319.34 16.6992 318.191 16.6992C 317.008 16.6992 316.082 16.957 315.414 17.4727C 314.746 17.9883 314.412 18.6621 314.412 19.4941C 314.412 20.2793 314.723 20.8711 315.344 21.2695C 315.965 21.668 317.084 22.0488 318.701 22.4121C 320.33 22.7754 321.648 23.209 322.656 23.7129C 323.664 24.2168 324.408 24.8262 324.889 25.541C 325.381 26.2441 325.627 27.1055 325.627 28.125C 325.627 29.8242 324.947 31.1895 323.588 32.2207C 322.229 33.2402 320.465 33.75 318.297 33.75C 316.773 33.75 315.426 33.4805 314.254 32.9414C 313.082 32.4023 312.162 31.6523 311.494 30.6914C 310.838 29.7188 310.51 28.6699 310.51 27.5449L 313.762 27.5449C 313.82 28.6348 314.254 29.502 315.062 30.1465C 315.883 30.7793 316.961 31.0957 318.297 31.0957C 319.527 31.0957 320.512 30.8496 321.25 30.3574C 322 29.8535 322.375 29.1855 322.375 28.3535ZM 334.275 9.77344L 334.275 14.3789L 337.826 14.3789L 337.826 16.8926L 334.275 16.8926L 334.275 28.6875C 334.275 29.4492 334.434 30.0234 334.75 30.4102C 335.066 30.7852 335.605 30.9727 336.367 30.9727C 336.742 30.9727 337.258 30.9023 337.914 30.7617L 337.914 33.3984C 337.059 33.6328 336.227 33.75 335.418 33.75C 333.965 33.75 332.869 33.3105 332.131 32.4316C 331.393 31.5527 331.023 30.3047 331.023 28.6875L 331.023 16.8926L 327.561 16.8926L 327.561 14.3789L 331.023 14.3789L 331.023 9.77344L 334.275 9.77344ZM 352.715 28.3535C 352.715 27.4746 352.381 26.7949 351.713 26.3145C 351.057 25.8223 349.902 25.4004 348.25 25.0488C 346.609 24.6973 345.303 24.2754 344.33 23.7832C 343.369 23.291 342.654 22.7051 342.186 22.0254C 341.729 21.3457 341.5 20.5371 341.5 19.5996C 341.5 18.041 342.156 16.7227 343.469 15.6445C 344.793 14.5664 346.48 14.0273 348.531 14.0273C 350.688 14.0273 352.434 14.584 353.77 15.6973C 355.117 16.8105 355.791 18.2344 355.791 19.9688L 352.521 19.9688C 352.521 19.0781 352.141 18.3105 351.379 17.666C 350.629 17.0215 349.68 16.6992 348.531 16.6992C 347.348 16.6992 346.422 16.957 345.754 17.4727C 345.086 17.9883 344.752 18.6621 344.752 19.4941C 344.752 20.2793 345.062 20.8711 345.684 21.2695C 346.305 21.668 347.424 22.0488 349.041 22.4121C 350.67 22.7754 351.988 23.209 352.996 23.7129C 354.004 24.2168 354.748 24.8262 355.229 25.541C 355.721 26.2441 355.967 27.1055 355.967 28.125C 355.967 29.8242 355.287 31.1895 353.928 32.2207C 352.568 33.2402 350.805 33.75 348.637 33.75C 347.113 33.75 345.766 33.4805 344.594 32.9414C 343.422 32.4023 342.502 31.6523 341.834 30.6914C 341.178 29.7188 340.85 28.6699 340.85 27.5449L 344.102 27.5449C 344.16 28.6348 344.594 29.502 345.402 30.1465C 346.223 30.7793 347.301 31.0957 348.637 31.0957C 349.867 31.0957 350.852 30.8496 351.59 30.3574C 352.34 29.8535 352.715 29.1855 352.715 28.3535ZM 368.342 23.7305C 368.342 20.8125 369.033 18.4688 370.416 16.6992C 371.799 14.918 373.609 14.0273 375.848 14.0273C 378.074 14.0273 379.838 14.7891 381.139 16.3125L 381.139 6.39844L 384.391 6.39844L 384.391 33.3984L 381.402 33.3984L 381.244 31.3594C 379.943 32.9531 378.133 33.75 375.812 33.75C 373.609 33.75 371.811 32.8477 370.416 31.043C 369.033 29.2383 368.342 26.8828 368.342 23.9766L 368.342 23.7305ZM 371.594 24.0996C 371.594 26.2559 372.039 27.9434 372.93 29.1621C 373.82 30.3809 375.051 30.9902 376.621 30.9902C 378.684 30.9902 380.189 30.0645 381.139 28.2129L 381.139 19.4766C 380.166 17.6836 378.672 16.7871 376.656 16.7871C 375.063 16.7871 373.82 17.4023 372.93 18.6328C 372.039 19.8633 371.594 21.6855 371.594 24.0996ZM 401.195 33.3984C 401.008 33.0234 400.855 32.3555 400.738 31.3945C 399.227 32.9648 397.422 33.75 395.324 33.75C 393.449 33.75 391.908 33.2227 390.701 32.168C 389.506 31.1016 388.908 29.7539 388.908 28.125C 388.908 26.1445 389.658 24.6094 391.158 23.5195C 392.67 22.418 394.791 21.8672 397.521 21.8672L 400.686 21.8672L 400.686 20.373C 400.686 19.2363 400.346 18.334 399.666 17.666C 398.986 16.9863 397.984 16.6465 396.66 16.6465C 395.5 16.6465 394.527 16.9395 393.742 17.5254C 392.957 18.1113 392.564 18.8203 392.564 19.6523L 389.295 19.6523C 389.295 18.7031 389.629 17.7891 390.297 16.9102C 390.977 16.0195 391.891 15.3164 393.039 14.8008C 394.199 14.2852 395.471 14.0273 396.854 14.0273C 399.045 14.0273 400.762 14.5781 402.004 15.6797C 403.246 16.7695 403.891 18.2754 403.938 20.1973L 403.938 28.9512C 403.938 30.6973 404.16 32.0859 404.605 33.1172L 404.605 33.3984L 401.195 33.3984ZM 395.799 30.9199C 396.818 30.9199 397.785 30.6562 398.699 30.1289C 399.613 29.6016 400.275 28.916 400.686 28.0723L 400.686 24.1699L 398.137 24.1699C 394.152 24.1699 392.16 25.3359 392.16 27.668C 392.16 28.6875 392.5 29.4844 393.18 30.0586C 393.859 30.6328 394.732 30.9199 395.799 30.9199ZM 413.447 9.77344L 413.447 14.3789L 416.998 14.3789L 416.998 16.8926L 413.447 16.8926L 413.447 28.6875C 413.447 29.4492 413.605 30.0234 413.922 30.4102C 414.238 30.7852 414.777 30.9727 415.539 30.9727C 415.914 30.9727 416.43 30.9023 417.086 30.7617L 417.086 33.3984C 416.23 33.6328 415.398 33.75 414.59 33.75C 413.137 33.75 412.041 33.3105 411.303 32.4316C 410.564 31.5527 410.195 30.3047 410.195 28.6875L 410.195 16.8926L 406.732 16.8926L 406.732 14.3789L 410.195 14.3789L 410.195 9.77344L 413.447 9.77344ZM 432.555 33.3984C 432.367 33.0234 432.215 32.3555 432.098 31.3945C 430.586 32.9648 428.781 33.75 426.684 33.75C 424.809 33.75 423.268 33.2227 422.061 32.168C 420.865 31.1016 420.268 29.7539 420.268 28.125C 420.268 26.1445 421.018 24.6094 422.518 23.5195C 424.029 22.418 426.15 21.8672 428.881 21.8672L 432.045 21.8672L 432.045 20.373C 432.045 19.2363 431.705 18.334 431.025 17.666C 430.346 16.9863 429.344 16.6465 428.02 16.6465C 426.859 16.6465 425.887 16.9395 425.102 17.5254C 424.316 18.1113 423.924 18.8203 423.924 19.6523L 420.654 19.6523C 420.654 18.7031 420.988 17.7891 421.656 16.9102C 422.336 16.0195 423.25 15.3164 424.398 14.8008C 425.559 14.2852 426.83 14.0273 428.213 14.0273C 430.404 14.0273 432.121 14.5781 433.363 15.6797C 434.605 16.7695 435.25 18.2754 435.297 20.1973L 435.297 28.9512C 435.297 30.6973 435.52 32.0859 435.965 33.1172L 435.965 33.3984L 432.555 33.3984ZM 427.158 30.9199C 428.178 30.9199 429.145 30.6562 430.059 30.1289C 430.973 29.6016 431.635 28.916 432.045 28.0723L 432.045 24.1699L 429.496 24.1699C 425.512 24.1699 423.52 25.3359 423.52 27.668C 423.52 28.6875 423.859 29.4844 424.539 30.0586C 425.219 30.6328 426.092 30.9199 427.158 30.9199ZM 440.289 38.4961L 438.443 37.2305C 439.545 35.6953 440.119 34.1133 440.166 32.4844L 440.166 29.5488L 443.348 29.5488L 443.348 32.0977C 443.348 33.2813 443.055 34.4648 442.469 35.6484C 441.895 36.832 441.168 37.7812 440.289 38.4961ZM 3.77148 75.5859L 3.77148 49.9922L 10.9961 49.9922C 13.2227 49.9922 15.1914 50.4844 16.9023 51.4688C 18.6133 52.4531 19.9316 53.8535 20.8574 55.6699C 21.7949 57.4863 22.2695 59.5723 22.2812 61.9277L 22.2812 63.5625C 22.2812 65.9766 21.8125 68.0918 20.875 69.9082C 19.9492 71.7246 18.6191 73.1191 16.8848 74.0918C 15.1621 75.0645 13.1523 75.5625 10.8555 75.5859L 3.77148 75.5859ZM 7.14648 52.7695L 7.14648 72.8262L 10.6973 72.8262C 13.2988 72.8262 15.3203 72.0176 16.7617 70.4004C 18.2148 68.7832 18.9414 66.4805 18.9414 63.4922L 18.9414 61.998C 18.9414 59.0918 18.2559 56.8359 16.8848 55.2305C 15.5254 53.6133 13.5918 52.793 11.084 52.7695L 7.14648 52.7695ZM 46.2227 67.4648C 45.9062 70.1719 44.9043 72.2637 43.2168 73.7402C 41.541 75.2051 39.3086 75.9375 36.5195 75.9375C 33.4961 75.9375 31.0703 74.8535 29.2422 72.6855C 27.4258 70.5176 26.5176 67.6172 26.5176 63.9844L 26.5176 61.5234C 26.5176 59.1445 26.9395 57.0527 27.7832 55.248C 28.6387 53.4434 29.8457 52.0605 31.4043 51.0996C 32.9629 50.127 34.7676 49.6406 36.8184 49.6406C 39.5371 49.6406 41.7168 50.4023 43.3574 51.9258C 44.998 53.4375 45.9531 55.5352 46.2227 58.2188L 42.8301 58.2188C 42.5371 56.1797 41.8984 54.7031 40.9141 53.7891C 39.9414 52.875 38.5762 52.418 36.8184 52.418C 34.6621 52.418 32.9688 53.2148 31.7383 54.8086C 30.5195 56.4023 29.9102 58.6699 29.9102 61.6113L 29.9102 64.0898C 29.9102 66.8672 30.4902 69.0762 31.6504 70.7168C 32.8105 72.3574 34.4336 73.1777 36.5195 73.1777C 38.3945 73.1777 39.8301 72.7559 40.8262 71.9121C 41.834 71.0566 42.502 69.5742 42.8301 67.4648L 46.2227 67.4648ZM 62.0781 75.5859C 61.8906 75.2109 61.7383 74.543 61.6211 73.582C 60.1094 75.1523 58.3047 75.9375 56.207 75.9375C 54.332 75.9375 52.791 75.4102 51.584 74.3555C 50.3887 73.2891 49.791 71.9414 49.791 70.3125C 49.791 68.332 50.541 66.7969 52.041 65.707C 53.5527 64.6055 55.6738 64.0547 58.4043 64.0547L 61.5684 64.0547L 61.5684 62.5605C 61.5684 61.4238 61.2285 60.5215 60.5488 59.8535C 59.8691 59.1738 58.8672 58.834 57.543 58.834C 56.3828 58.834 55.4102 59.127 54.625 59.7129C 53.8398 60.2988 53.4473 61.0078 53.4473 61.8398L 50.1777 61.8398C 50.1777 60.8906 50.5117 59.9766 51.1797 59.0977C 51.8594 58.207 52.7734 57.5039 53.9219 56.9883C 55.082 56.4727 56.3535 56.2148 57.7363 56.2148C 59.9277 56.2148 61.6445 56.7656 62.8867 57.8672C 64.1289 58.957 64.7734 60.4629 64.8203 62.3848L 64.8203 71.1387C 64.8203 72.8848 65.043 74.2734 65.4883 75.3047L 65.4883 75.5859L 62.0781 75.5859ZM 56.6816 73.1074C 57.7012 73.1074 58.668 72.8438 59.582 72.3164C 60.4961 71.7891 61.1582 71.1035 61.5684 70.2598L 61.5684 66.3574L 59.0195 66.3574C 55.0352 66.3574 53.043 67.5234 53.043 69.8555C 53.043 70.875 53.3828 71.6719 54.0625 72.2461C 54.7422 72.8203 55.6152 73.1074 56.6816 73.1074ZM 77.5469 73.2832C 78.707 73.2832 79.7207 72.9316 80.5879 72.2285C 81.4551 71.5254 81.9355 70.6465 82.0293 69.5918L 85.1055 69.5918C 85.0469 70.6816 84.6719 71.7188 83.9805 72.7031C 83.2891 73.6875 82.3633 74.4727 81.2031 75.0586C 80.0547 75.6445 78.8359 75.9375 77.5469 75.9375C 74.957 75.9375 72.8945 75.0762 71.3594 73.3535C 69.8359 71.6191 69.0742 69.252 69.0742 66.252L 69.0742 65.707C 69.0742 63.8555 69.4141 62.209 70.0938 60.7676C 70.7734 59.3262 71.7461 58.207 73.0117 57.4102C 74.2891 56.6133 75.7949 56.2148 77.5293 56.2148C 79.6621 56.2148 81.4316 56.8535 82.8379 58.1309C 84.2559 59.4082 85.0117 61.0664 85.1055 63.1055L 82.0293 63.1055C 81.9355 61.875 81.4668 60.8672 80.623 60.082C 79.791 59.2852 78.7598 58.8867 77.5293 58.8867C 75.877 58.8867 74.5938 59.4844 73.6797 60.6797C 72.7773 61.8633 72.3262 63.5801 72.3262 65.8301L 72.3262 66.4453C 72.3262 68.6367 72.7773 70.3242 73.6797 71.5078C 74.582 72.6914 75.8711 73.2832 77.5469 73.2832ZM 92.0137 58.8691C 93.4551 57.0996 95.3301 56.2148 97.6387 56.2148C 101.658 56.2148 103.686 58.4824 103.721 63.0176L 103.721 75.5859L 100.469 75.5859L 100.469 63C 100.457 61.6289 100.141 60.6152 99.5195 59.959C 98.9102 59.3027 97.9551 58.9746 96.6543 58.9746C 95.5996 58.9746 94.6738 59.2559 93.877 59.8184C 93.0801 60.3809 92.459 61.1191 92.0137 62.0332L 92.0137 75.5859L 88.7617 75.5859L 88.7617 48.5859L 92.0137 48.5859L 92.0137 58.8691ZM 116.482 75.9375C 113.904 75.9375 111.807 75.0938 110.189 73.4062C 108.572 71.707 107.764 69.4395 107.764 66.6035L 107.764 66.0059C 107.764 64.1191 108.121 62.4375 108.836 60.9609C 109.562 59.4727 110.57 58.3125 111.859 57.4805C 113.16 56.6367 114.566 56.2148 116.078 56.2148C 118.551 56.2148 120.473 57.0293 121.844 58.6582C 123.215 60.2871 123.9 62.6191 123.9 65.6543L 123.9 67.0078L 111.016 67.0078C 111.062 68.8828 111.607 70.4004 112.65 71.5605C 113.705 72.709 115.041 73.2832 116.658 73.2832C 117.807 73.2832 118.779 73.0488 119.576 72.5801C 120.373 72.1113 121.07 71.4902 121.668 70.7168L 123.654 72.2637C 122.061 74.7129 119.67 75.9375 116.482 75.9375ZM 116.078 58.8867C 114.766 58.8867 113.664 59.3672 112.773 60.3281C 111.883 61.2773 111.332 62.6133 111.121 64.3359L 120.648 64.3359L 120.648 64.0898C 120.555 62.4375 120.109 61.1602 119.312 60.2578C 118.516 59.3438 117.437 58.8867 116.078 58.8867ZM 139.686 56.5664L 139.791 58.957C 141.244 57.1289 143.143 56.2148 145.486 56.2148C 149.506 56.2148 151.533 58.4824 151.568 63.0176L 151.568 75.5859L 148.316 75.5859L 148.316 63C 148.305 61.6289 147.988 60.6152 147.367 59.959C 146.758 59.3027 145.803 58.9746 144.502 58.9746C 143.447 58.9746 142.521 59.2559 141.725 59.8184C 140.928 60.3809 140.307 61.1191 139.861 62.0332L 139.861 75.5859L 136.609 75.5859L 136.609 56.5664L 139.686 56.5664ZM 155.611 65.9004C 155.611 64.0371 155.975 62.3613 156.701 60.873C 157.439 59.3848 158.459 58.2363 159.76 57.4277C 161.072 56.6191 162.566 56.2148 164.242 56.2148C 166.832 56.2148 168.924 57.1113 170.518 58.9043C 172.123 60.6973 172.926 63.082 172.926 66.0586L 172.926 66.2871C 172.926 68.1387 172.568 69.8027 171.854 71.2793C 171.15 72.7441 170.137 73.8867 168.812 74.707C 167.5 75.5273 165.988 75.9375 164.277 75.9375C 161.699 75.9375 159.607 75.041 158.002 73.248C 156.408 71.4551 155.611 69.082 155.611 66.1289L 155.611 65.9004ZM 158.881 66.2871C 158.881 68.3965 159.367 70.0898 160.34 71.3672C 161.324 72.6445 162.637 73.2832 164.277 73.2832C 165.93 73.2832 167.242 72.6387 168.215 71.3496C 169.187 70.0488 169.674 68.2324 169.674 65.9004C 169.674 63.8145 169.176 62.127 168.18 60.8379C 167.195 59.5371 165.883 58.8867 164.242 58.8867C 162.637 58.8867 161.342 59.5254 160.357 60.8027C 159.373 62.0801 158.881 63.9082 158.881 66.2871ZM 181.416 51.9609L 181.416 56.5664L 184.967 56.5664L 184.967 59.0801L 181.416 59.0801L 181.416 70.875C 181.416 71.6367 181.574 72.2109 181.891 72.5977C 182.207 72.9727 182.746 73.1602 183.508 73.1602C 183.883 73.1602 184.398 73.0898 185.055 72.9492L 185.055 75.5859C 184.199 75.8203 183.367 75.9375 182.559 75.9375C 181.105 75.9375 180.01 75.498 179.271 74.6191C 178.533 73.7402 178.164 72.4922 178.164 70.875L 178.164 59.0801L 174.701 59.0801L 174.701 56.5664L 178.164 56.5664L 178.164 51.9609L 181.416 51.9609ZM 206.904 59.4844C 206.412 59.4023 205.879 59.3613 205.305 59.3613C 203.172 59.3613 201.725 60.2695 200.963 62.0859L 200.963 75.5859L 197.711 75.5859L 197.711 56.5664L 200.875 56.5664L 200.928 58.7637C 201.994 57.0645 203.506 56.2148 205.463 56.2148C 206.096 56.2148 206.576 56.2969 206.904 56.4609L 206.904 59.4844ZM 217.486 75.9375C 214.908 75.9375 212.811 75.0938 211.193 73.4062C 209.576 71.707 208.768 69.4395 208.768 66.6035L 208.768 66.0059C 208.768 64.1191 209.125 62.4375 209.84 60.9609C 210.566 59.4727 211.574 58.3125 212.863 57.4805C 214.164 56.6367 215.57 56.2148 217.082 56.2148C 219.555 56.2148 221.477 57.0293 222.848 58.6582C 224.219 60.2871 224.904 62.6191 224.904 65.6543L 224.904 67.0078L 212.02 67.0078C 212.066 68.8828 212.611 70.4004 213.654 71.5605C 214.709 72.709 216.045 73.2832 217.662 73.2832C 218.811 73.2832 219.783 73.0488 220.58 72.5801C 221.377 72.1113 222.074 71.4902 222.672 70.7168L 224.658 72.2637C 223.064 74.7129 220.674 75.9375 217.486 75.9375ZM 217.082 58.8867C 215.77 58.8867 214.668 59.3672 213.777 60.3281C 212.887 61.2773 212.336 62.6133 212.125 64.3359L 221.652 64.3359L 221.652 64.0898C 221.559 62.4375 221.113 61.1602 220.316 60.2578C 219.52 59.3438 218.441 58.8867 217.082 58.8867ZM 227.893 65.918C 227.893 62.9297 228.578 60.5684 229.949 58.834C 231.32 57.0879 233.16 56.2148 235.469 56.2148C 237.719 56.2148 239.494 56.9707 240.795 58.4824L 240.936 56.5664L 243.924 56.5664L 243.924 82.8984L 240.672 82.8984L 240.672 73.8281C 239.359 75.2344 237.613 75.9375 235.434 75.9375C 233.137 75.9375 231.303 75.0469 229.932 73.2656C 228.572 71.4727 227.893 69.0996 227.893 66.1465L 227.893 65.918ZM 231.145 66.2871C 231.145 68.4668 231.602 70.1777 232.516 71.4199C 233.441 72.6621 234.684 73.2832 236.242 73.2832C 238.176 73.2832 239.652 72.4277 240.672 70.7168L 240.672 61.4004C 239.641 59.7246 238.176 58.8867 236.277 58.8867C 234.707 58.8867 233.459 59.5137 232.533 60.7676C 231.607 62.0098 231.145 63.8496 231.145 66.2871ZM 260.887 73.7051C 259.621 75.1934 257.764 75.9375 255.314 75.9375C 253.287 75.9375 251.74 75.3516 250.674 74.1797C 249.619 72.9961 249.086 71.25 249.074 68.9414L 249.074 56.5664L 252.326 56.5664L 252.326 68.8535C 252.326 71.7363 253.498 73.1777 255.842 73.1777C 258.326 73.1777 259.979 72.252 260.799 70.4004L 260.799 56.5664L 264.051 56.5664L 264.051 75.5859L 260.957 75.5859L 260.887 73.7051ZM 276.9 75.9375C 274.322 75.9375 272.225 75.0938 270.607 73.4062C 268.99 71.707 268.182 69.4395 268.182 66.6035L 268.182 66.0059C 268.182 64.1191 268.539 62.4375 269.254 60.9609C 269.98 59.4727 270.988 58.3125 272.277 57.4805C 273.578 56.6367 274.984 56.2148 276.496 56.2148C 278.969 56.2148 280.891 57.0293 282.262 58.6582C 283.633 60.2871 284.318 62.6191 284.318 65.6543L 284.318 67.0078L 271.434 67.0078C 271.48 68.8828 272.025 70.4004 273.068 71.5605C 274.123 72.709 275.459 73.2832 277.076 73.2832C 278.225 73.2832 279.197 73.0488 279.994 72.5801C 280.791 72.1113 281.488 71.4902 282.086 70.7168L 284.072 72.2637C 282.479 74.7129 280.088 75.9375 276.9 75.9375ZM 276.496 58.8867C 275.184 58.8867 274.082 59.3672 273.191 60.3281C 272.301 61.2773 271.75 62.6133 271.539 64.3359L 281.066 64.3359L 281.066 64.0898C 280.973 62.4375 280.527 61.1602 279.73 60.2578C 278.934 59.3438 277.855 58.8867 276.496 58.8867ZM 299.172 70.541C 299.172 69.6621 298.838 68.9824 298.17 68.502C 297.514 68.0098 296.359 67.5879 294.707 67.2363C 293.066 66.8848 291.76 66.4629 290.787 65.9707C 289.826 65.4785 289.111 64.8926 288.643 64.2129C 288.186 63.5332 287.957 62.7246 287.957 61.7871C 287.957 60.2285 288.613 58.9102 289.926 57.832C 291.25 56.7539 292.938 56.2148 294.988 56.2148C 297.145 56.2148 298.891 56.7715 300.227 57.8848C 301.574 58.998 302.248 60.4219 302.248 62.1562L 298.979 62.1562C 298.979 61.2656 298.598 60.498 297.836 59.8535C 297.086 59.209 296.137 58.8867 294.988 58.8867C 293.805 58.8867 292.879 59.1445 292.211 59.6602C 291.543 60.1758 291.209 60.8496 291.209 61.6816C 291.209 62.4668 291.52 63.0586 292.141 63.457C 292.762 63.8555 293.881 64.2363 295.498 64.5996C 297.127 64.9629 298.445 65.3965 299.453 65.9004C 300.461 66.4043 301.205 67.0137 301.686 67.7285C 302.178 68.4316 302.424 69.293 302.424 70.3125C 302.424 72.0117 301.744 73.377 300.385 74.4082C 299.025 75.4277 297.262 75.9375 295.094 75.9375C 293.57 75.9375 292.223 75.668 291.051 75.1289C 289.879 74.5898 288.959 73.8398 288.291 72.8789C 287.635 71.9063 287.307 70.8574 287.307 69.7324L 290.559 69.7324C 290.617 70.8223 291.051 71.6895 291.859 72.334C 292.68 72.9668 293.758 73.2832 295.094 73.2832C 296.324 73.2832 297.309 73.0371 298.047 72.5449C 298.797 72.041 299.172 71.373 299.172 70.541ZM 311.072 51.9609L 311.072 56.5664L 314.623 56.5664L 314.623 59.0801L 311.072 59.0801L 311.072 70.875C 311.072 71.6367 311.23 72.2109 311.547 72.5977C 311.863 72.9727 312.402 73.1602 313.164 73.1602C 313.539 73.1602 314.055 73.0898 314.711 72.9492L 314.711 75.5859C 313.855 75.8203 313.023 75.9375 312.215 75.9375C 310.762 75.9375 309.666 75.498 308.928 74.6191C 308.189 73.7402 307.82 72.4922 307.82 70.875L 307.82 59.0801L 304.357 59.0801L 304.357 56.5664L 307.82 56.5664L 307.82 51.9609L 311.072 51.9609ZM 321.971 75.5859L 318.719 75.5859L 318.719 56.5664L 321.971 56.5664L 321.971 75.5859ZM 318.455 51.5215C 318.455 50.9941 318.613 50.5488 318.93 50.1855C 319.258 49.8223 319.738 49.6406 320.371 49.6406C 321.004 49.6406 321.484 49.8223 321.812 50.1855C 322.141 50.5488 322.305 50.9941 322.305 51.5215C 322.305 52.0488 322.141 52.4883 321.812 52.8398C 321.484 53.1914 321.004 53.3672 320.371 53.3672C 319.738 53.3672 319.258 53.1914 318.93 52.8398C 318.613 52.4883 318.455 52.0488 318.455 51.5215ZM 330.268 56.5664L 330.373 58.957C 331.826 57.1289 333.725 56.2148 336.068 56.2148C 340.088 56.2148 342.115 58.4824 342.15 63.0176L 342.15 75.5859L 338.898 75.5859L 338.898 63C 338.887 61.6289 338.57 60.6152 337.949 59.959C 337.34 59.3027 336.385 58.9746 335.084 58.9746C 334.029 58.9746 333.104 59.2559 332.307 59.8184C 331.51 60.3809 330.889 61.1191 330.443 62.0332L 330.443 75.5859L 327.191 75.5859L 327.191 56.5664L 330.268 56.5664ZM 346.281 65.918C 346.281 62.9531 346.967 60.5977 348.338 58.8516C 349.709 57.0938 351.525 56.2148 353.787 56.2148C 356.107 56.2148 357.918 57.0352 359.219 58.6758L 359.377 56.5664L 362.348 56.5664L 362.348 75.1289C 362.348 77.5898 361.615 79.5293 360.15 80.9473C 358.697 82.3652 356.74 83.0742 354.279 83.0742C 352.908 83.0742 351.566 82.7813 350.254 82.1953C 348.941 81.6094 347.939 80.8066 347.248 79.7871L 348.936 77.8359C 350.33 79.5586 352.035 80.4199 354.051 80.4199C 355.633 80.4199 356.863 79.9746 357.742 79.084C 358.633 78.1934 359.078 76.9395 359.078 75.3223L 359.078 73.6875C 357.777 75.1875 356.002 75.9375 353.752 75.9375C 351.525 75.9375 349.721 75.041 348.338 73.248C 346.967 71.4551 346.281 69.0117 346.281 65.918ZM 349.551 66.2871C 349.551 68.4316 349.99 70.1191 350.869 71.3496C 351.748 72.5684 352.979 73.1777 354.561 73.1777C 356.611 73.1777 358.117 72.2461 359.078 70.3828L 359.078 61.6992C 358.082 59.8828 356.588 58.9746 354.596 58.9746C 353.014 58.9746 351.777 59.5898 350.887 60.8203C 349.996 62.0508 349.551 63.873 349.551 66.2871ZM 375.408 65.918C 375.408 63 376.1 60.6563 377.482 58.8867C 378.865 57.1055 380.676 56.2148 382.914 56.2148C 385.141 56.2148 386.904 56.9766 388.205 58.5L 388.205 48.5859L 391.457 48.5859L 391.457 75.5859L 388.469 75.5859L 388.311 73.5469C 387.01 75.1406 385.199 75.9375 382.879 75.9375C 380.676 75.9375 378.877 75.0352 377.482 73.2305C 376.1 71.4258 375.408 69.0703 375.408 66.1641L 375.408 65.918ZM 378.66 66.2871C 378.66 68.4434 379.105 70.1309 379.996 71.3496C 380.887 72.5684 382.117 73.1777 383.688 73.1777C 385.75 73.1777 387.256 72.252 388.205 70.4004L 388.205 61.6641C 387.232 59.8711 385.738 58.9746 383.723 58.9746C 382.129 58.9746 380.887 59.5898 379.996 60.8203C 379.105 62.0508 378.66 63.873 378.66 66.2871ZM 408.262 75.5859C 408.074 75.2109 407.922 74.543 407.805 73.582C 406.293 75.1523 404.488 75.9375 402.391 75.9375C 400.516 75.9375 398.975 75.4102 397.768 74.3555C 396.572 73.2891 395.975 71.9414 395.975 70.3125C 395.975 68.332 396.725 66.7969 398.225 65.707C 399.736 64.6055 401.857 64.0547 404.588 64.0547L 407.752 64.0547L 407.752 62.5605C 407.752 61.4238 407.412 60.5215 406.732 59.8535C 406.053 59.1738 405.051 58.834 403.727 58.834C 402.566 58.834 401.594 59.127 400.809 59.7129C 400.023 60.2988 399.631 61.0078 399.631 61.8398L 396.361 61.8398C 396.361 60.8906 396.695 59.9766 397.363 59.0977C 398.043 58.207 398.957 57.5039 400.105 56.9883C 401.266 56.4727 402.537 56.2148 403.92 56.2148C 406.111 56.2148 407.828 56.7656 409.07 57.8672C 410.313 58.957 410.957 60.4629 411.004 62.3848L 411.004 71.1387C 411.004 72.8848 411.227 74.2734 411.672 75.3047L 411.672 75.5859L 408.262 75.5859ZM 402.865 73.1074C 403.885 73.1074 404.852 72.8438 405.766 72.3164C 406.68 71.7891 407.342 71.1035 407.752 70.2598L 407.752 66.3574L 405.203 66.3574C 401.219 66.3574 399.227 67.5234 399.227 69.8555C 399.227 70.875 399.566 71.6719 400.246 72.2461C 400.926 72.8203 401.799 73.1074 402.865 73.1074ZM 420.514 51.9609L 420.514 56.5664L 424.064 56.5664L 424.064 59.0801L 420.514 59.0801L 420.514 70.875C 420.514 71.6367 420.672 72.2109 420.988 72.5977C 421.305 72.9727 421.844 73.1602 422.605 73.1602C 422.98 73.1602 423.496 73.0898 424.152 72.9492L 424.152 75.5859C 423.297 75.8203 422.465 75.9375 421.656 75.9375C 420.203 75.9375 419.107 75.498 418.369 74.6191C 417.631 73.7402 417.262 72.4922 417.262 70.875L 417.262 59.0801L 413.799 59.0801L 413.799 56.5664L 417.262 56.5664L 417.262 51.9609L 420.514 51.9609ZM 439.621 75.5859C 439.434 75.2109 439.281 74.543 439.164 73.582C 437.652 75.1523 435.848 75.9375 433.75 75.9375C 431.875 75.9375 430.334 75.4102 429.127 74.3555C 427.932 73.2891 427.334 71.9414 427.334 70.3125C 427.334 68.332 428.084 66.7969 429.584 65.707C 431.096 64.6055 433.217 64.0547 435.947 64.0547L 439.111 64.0547L 439.111 62.5605C 439.111 61.4238 438.771 60.5215 438.092 59.8535C 437.412 59.1738 436.41 58.834 435.086 58.834C 433.926 58.834 432.953 59.127 432.168 59.7129C 431.383 60.2988 430.99 61.0078 430.99 61.8398L 427.721 61.8398C 427.721 60.8906 428.055 59.9766 428.723 59.0977C 429.402 58.207 430.316 57.5039 431.465 56.9883C 432.625 56.4727 433.896 56.2148 435.279 56.2148C 437.471 56.2148 439.187 56.7656 440.43 57.8672C 441.672 58.957 442.316 60.4629 442.363 62.3848L 442.363 71.1387C 442.363 72.8848 442.586 74.2734 443.031 75.3047L 443.031 75.5859L 439.621 75.5859ZM 434.225 73.1074C 435.244 73.1074 436.211 72.8438 437.125 72.3164C 438.039 71.7891 438.701 71.1035 439.111 70.2598L 439.111 66.3574L 436.562 66.3574C 432.578 66.3574 430.586 67.5234 430.586 69.8555C 430.586 70.875 430.926 71.6719 431.605 72.2461C 432.285 72.8203 433.158 73.1074 434.225 73.1074Z"/>
</defs>
</svg>
