<svg width="2416" height="2632" viewBox="0 0 2416 2632" version="1.1" xmlns="http://www.w3.org/2000/svg" xmlns:xlink="http://www.w3.org/1999/xlink" xmlns:figma="http://www.figma.com/figma/ns">
<title>Cache Hierarchy</title>
<desc>Created using Figma</desc>
<g id="Canvas" transform="translate(6325 868)" figma:type="canvas">
<g id="CPU" style="mix-blend-mode:normal;" figma:type="frame">
<g id="Rectangle" style="mix-blend-mode:normal;" figma:type="rounded-rectangle">
<mask id="mask0_outline_ins">
<use xlink:href="#path0_fill" fill="white" transform="translate(-5569 -868)"/>
</mask>
<g mask="url(#mask0_outline_ins)">
<use xlink:href="#path1_stroke_2x" transform="translate(-5569 -868)" style="mix-blend-mode:normal;"/>
</g>
</g>
<g id="CPU" style="mix-blend-mode:normal;" figma:type="text">
<use xlink:href="#path2_fill" transform="translate(-5179 -653)" style="mix-blend-mode:normal;"/>
</g>
</g>
<g id="ICache" style="mix-blend-mode:normal;" figma:type="frame">
<g id="Rectangle 2" style="mix-blend-mode:normal;" figma:type="rounded-rectangle">
<mask id="mask1_outline_ins">
<use xlink:href="#path3_fill" fill="white" transform="translate(-6325 -823.5)"/>
</mask>
<g mask="url(#mask1_outline_ins)">
<use xlink:href="#path4_stroke_2x" transform="translate(-6325 -823.5)" style="mix-blend-mode:normal;"/>
</g>
</g>
<g id="Instruction" style="mix-blend-mode:normal;" figma:type="text">
<use xlink:href="#path5_fill" transform="translate(-6270 -653)" style="mix-blend-mode:normal;"/>
</g>
</g>
<g id="DCache" style="mix-blend-mode:normal;" figma:type="frame">
<g id="Rectangle 2" style="mix-blend-mode:normal;" figma:type="rounded-rectangle">
<mask id="mask2_outline_ins">
<use xlink:href="#path3_fill" fill="white" transform="translate(-4325 -823.5)"/>
</mask>
<g mask="url(#mask2_outline_ins)">
<use xlink:href="#path4_stroke_2x" transform="translate(-4325 -823.5)" style="mix-blend-mode:normal;"/>
</g>
</g>
<g id="Data" style="mix-blend-mode:normal;" figma:type="text">
<use xlink:href="#path6_fill" transform="translate(-4183.5 -653)" style="mix-blend-mode:normal;"/>
</g>
</g>
<g id="Arbiter" style="mix-blend-mode:normal;" figma:type="frame">
<g id="Rectangle 3" style="mix-blend-mode:normal;" figma:type="rounded-rectangle">
<mask id="mask3_outline_ins">
<use xlink:href="#path7_fill" fill="white" transform="translate(-5414 -65)"/>
</mask>
<g mask="url(#mask3_outline_ins)">
<use xlink:href="#path8_stroke_2x" transform="translate(-5414 -65)" style="mix-blend-mode:normal;"/>
</g>
</g>
<g id="Arbiter" style="mix-blend-mode:normal;" figma:type="text">
<use xlink:href="#path9_fill" transform="translate(-5213 -22.5)" style="mix-blend-mode:normal;"/>
</g>
</g>
<g id="L2 Cache" style="mix-blend-mode:normal;" figma:type="frame">
<g id="Rectangle 4" style="mix-blend-mode:normal;" figma:type="rounded-rectangle">
<mask id="mask4_outline_ins">
<use xlink:href="#path10_fill" fill="white" transform="translate(-5716.5 393)"/>
</mask>
<g mask="url(#mask4_outline_ins)">
<use xlink:href="#path11_stroke_2x" transform="translate(-5716.5 393)" style="mix-blend-mode:normal;"/>
</g>
</g>
<g id="Unified L2 Cache" style="mix-blend-mode:normal;" figma:type="text">
<use xlink:href="#path12_fill" transform="translate(-5357 670)" style="mix-blend-mode:normal;"/>
</g>
</g>
<g id="Line" style="mix-blend-mode:normal;" figma:type="line">
<use xlink:href="#path13_stroke" transform="translate(-5909 -616)" style="mix-blend-mode:normal;"/>
</g>
<g id="Line 2" style="mix-blend-mode:normal;" figma:type="line">
<use xlink:href="#path13_stroke" transform="translate(-4665 -616)" style="mix-blend-mode:normal;"/>
</g>
<g id="Line 3" style="mix-blend-mode:normal;" figma:type="line">
<use xlink:href="#path14_stroke" transform="matrix(6.12323e-17 1 -1 6.12323e-17 -6117 -408)" style="mix-blend-mode:normal;"/>
</g>
<g id="Line 4" style="mix-blend-mode:normal;" figma:type="line">
<use xlink:href="#path15_stroke" transform="translate(-6117 15)" style="mix-blend-mode:normal;"/>
</g>
<g id="Line 5" style="mix-blend-mode:normal;" figma:type="line">
<use xlink:href="#path14_stroke" transform="matrix(6.12323e-17 1 -1 6.12323e-17 -4117 -408)" style="mix-blend-mode:normal;"/>
</g>
<g id="Line 6" style="mix-blend-mode:normal;" figma:type="line">
<use xlink:href="#path15_stroke" transform="matrix(-1 1.22465e-16 -1.22465e-16 -1 -4117 15)" style="mix-blend-mode:normal;"/>
</g>
<g id="Line 7" style="mix-blend-mode:normal;" figma:type="line">
<use xlink:href="#path16_stroke" transform="matrix(6.12323e-17 1 -1 6.12323e-17 -5117 95)" style="mix-blend-mode:normal;"/>
</g>
<g id="Memory" style="mix-blend-mode:normal;" figma:type="frame">
<g id="Rectangle 5" style="mix-blend-mode:normal;" figma:type="rounded-rectangle">
<mask id="mask5_outline_ins">
<use xlink:href="#path17_fill" fill="white" transform="translate(-6175.5 1219)"/>
</mask>
<g mask="url(#mask5_outline_ins)">
<use xlink:href="#path18_stroke_2x" transform="translate(-6175.5 1219)" style="mix-blend-mode:normal;"/>
</g>
</g>
<g id="Main Memory" style="mix-blend-mode:normal;" figma:type="text">
<use xlink:href="#path19_fill" transform="translate(-5313.5 1454)" style="mix-blend-mode:normal;"/>
</g>
</g>
<g id="Line 8" style="mix-blend-mode:normal;" figma:type="line">
<use xlink:href="#path20_stroke" transform="matrix(6.12323e-17 1 -1 6.12323e-17 -5117 1022)" style="mix-blend-mode:normal;"/>
</g>
</g>
<defs>
<path id="path0_fill" d="M 0 0L 904 0L 904 505L 0 505L 0 0Z"/>
<path id="path1_stroke_2x" d="M 0 0L 0 -5L -5 -5L -5 0L 0 0ZM 904 0L 909 0L 909 -5L 904 -5L 904 0ZM 904 505L 904 510L 909 510L 909 505L 904 505ZM 0 505L -5 505L -5 510L 0 510L 0 505ZM 0 5L 904 5L 904 -5L 0 -5L 0 5ZM 899 0L 899 505L 909 505L 909 0L 899 0ZM 904 500L 0 500L 0 510L 904 510L 904 500ZM 5 505L 5 0L -5 0L -5 505L 5 505Z"/>
<path id="path2_fill" d="M 38.75 44.9375C 38.1875 49.75 36.4062 53.4688 33.4062 56.0938C 30.4271 58.6979 26.4583 60 21.5 60C 16.125 60 11.8125 58.0729 8.5625 54.2188C 5.33333 50.3646 3.71875 45.2083 3.71875 38.75L 3.71875 34.375C 3.71875 30.1458 4.46875 26.4271 5.96875 23.2188C 7.48958 20.0104 9.63542 17.5521 12.4062 15.8438C 15.1771 14.1146 18.3854 13.25 22.0312 13.25C 26.8646 13.25 30.7396 14.6042 33.6562 17.3125C 36.5729 20 38.2708 23.7292 38.75 28.5L 32.7188 28.5C 32.1979 24.875 31.0625 22.25 29.3125 20.625C 27.5833 19 25.1562 18.1875 22.0312 18.1875C 18.1979 18.1875 15.1875 19.6042 13 22.4375C 10.8333 25.2708 9.75 29.3021 9.75 34.5312L 9.75 38.9375C 9.75 43.875 10.7812 47.8021 12.8438 50.7188C 14.9062 53.6354 17.7917 55.0938 21.5 55.0938C 24.8333 55.0938 27.3854 54.3438 29.1562 52.8438C 30.9479 51.3229 32.1354 48.6875 32.7188 44.9375L 38.75 44.9375ZM 52.9688 41.5625L 52.9688 59.375L 46.9688 59.375L 46.9688 13.875L 63.75 13.875C 68.7292 13.875 72.625 15.1458 75.4375 17.6875C 78.2708 20.2292 79.6875 23.5938 79.6875 27.7812C 79.6875 32.1979 78.3021 35.6042 75.5312 38C 72.7812 40.375 68.8333 41.5625 63.6875 41.5625L 52.9688 41.5625ZM 52.9688 36.6562L 63.75 36.6562C 66.9583 36.6562 69.4167 35.9062 71.125 34.4062C 72.8333 32.8854 73.6875 30.6979 73.6875 27.8438C 73.6875 25.1354 72.8333 22.9688 71.125 21.3438C 69.4167 19.7188 67.0729 18.875 64.0938 18.8125L 52.9688 18.8125L 52.9688 36.6562ZM 119.375 13.875L 119.375 44.8125C 119.354 49.1042 118 52.6146 115.312 55.3438C 112.646 58.0729 109.021 59.6042 104.438 59.9375L 102.844 60C 97.8646 60 93.8958 58.6562 90.9375 55.9688C 87.9792 53.2812 86.4792 49.5833 86.4375 44.875L 86.4375 13.875L 92.375 13.875L 92.375 44.6875C 92.375 47.9792 93.2812 50.5417 95.0938 52.375C 96.9062 54.1875 99.4896 55.0938 102.844 55.0938C 106.24 55.0938 108.833 54.1875 110.625 52.375C 112.438 50.5625 113.344 48.0104 113.344 44.7188L 113.344 13.875L 119.375 13.875Z"/>
<path id="path3_fill" d="M 0 0L 416 0L 416 416L 0 416L 0 0Z"/>
<path id="path4_stroke_2x" d="M 0 0L 0 -5L -5 -5L -5 0L 0 0ZM 416 0L 421 0L 421 -5L 416 -5L 416 0ZM 416 416L 416 421L 421 421L 421 416L 416 416ZM 0 416L -5 416L -5 421L 0 421L 0 416ZM 0 5L 416 5L 416 -5L 0 -5L 0 5ZM 411 0L 411 416L 421 416L 421 0L 411 0ZM 416 411L 0 411L 0 421L 416 421L 416 411ZM 5 416L 5 0L -5 0L -5 416L 5 416Z"/>
<path id="path5_fill" d="M 11.7188 59.375L 5.71875 59.375L 5.71875 13.875L 11.7188 13.875L 11.7188 59.375ZM 27.2812 25.5625L 27.4688 29.8125C 30.0521 26.5625 33.4271 24.9375 37.5938 24.9375C 44.7396 24.9375 48.3438 28.9688 48.4062 37.0312L 48.4062 59.375L 42.625 59.375L 42.625 37C 42.6042 34.5625 42.0417 32.7604 40.9375 31.5938C 39.8542 30.4271 38.1562 29.8438 35.8438 29.8438C 33.9688 29.8438 32.3229 30.3438 30.9062 31.3438C 29.4896 32.3438 28.3854 33.6562 27.5938 35.2812L 27.5938 59.375L 21.8125 59.375L 21.8125 25.5625L 27.2812 25.5625ZM 76.8125 50.4062C 76.8125 48.8438 76.2188 47.6354 75.0312 46.7812C 73.8646 45.9062 71.8125 45.1562 68.875 44.5312C 65.9583 43.9062 63.6354 43.1562 61.9062 42.2812C 60.1979 41.4062 58.9271 40.3646 58.0938 39.1562C 57.2812 37.9479 56.875 36.5104 56.875 34.8438C 56.875 32.0729 58.0417 29.7292 60.375 27.8125C 62.7292 25.8958 65.7292 24.9375 69.375 24.9375C 73.2083 24.9375 76.3125 25.9271 78.6875 27.9062C 81.0833 29.8854 82.2812 32.4167 82.2812 35.5L 76.4688 35.5C 76.4688 33.9167 75.7917 32.5521 74.4375 31.4062C 73.1042 30.2604 71.4167 29.6875 69.375 29.6875C 67.2708 29.6875 65.625 30.1458 64.4375 31.0625C 63.25 31.9792 62.6562 33.1771 62.6562 34.6562C 62.6562 36.0521 63.2083 37.1042 64.3125 37.8125C 65.4167 38.5208 67.4062 39.1979 70.2812 39.8438C 73.1771 40.4896 75.5208 41.2604 77.3125 42.1562C 79.1042 43.0521 80.4271 44.1354 81.2812 45.4062C 82.1562 46.6562 82.5938 48.1875 82.5938 50C 82.5938 53.0208 81.3854 55.4479 78.9688 57.2812C 76.5521 59.0938 73.4167 60 69.5625 60C 66.8542 60 64.4583 59.5208 62.375 58.5625C 60.2917 57.6042 58.6562 56.2708 57.4688 54.5625C 56.3021 52.8333 55.7188 50.9688 55.7188 48.9688L 61.5 48.9688C 61.6042 50.9062 62.375 52.4479 63.8125 53.5938C 65.2708 54.7188 67.1875 55.2812 69.5625 55.2812C 71.75 55.2812 73.5 54.8438 74.8125 53.9688C 76.1458 53.0729 76.8125 51.8854 76.8125 50.4062ZM 97.9688 17.375L 97.9688 25.5625L 104.281 25.5625L 104.281 30.0312L 97.9688 30.0312L 97.9688 51C 97.9688 52.3542 98.25 53.375 98.8125 54.0625C 99.375 54.7292 100.333 55.0625 101.688 55.0625C 102.354 55.0625 103.271 54.9375 104.438 54.6875L 104.438 59.375C 102.917 59.7917 101.438 60 100 60C 97.4167 60 95.4688 59.2188 94.1562 57.6562C 92.8438 56.0938 92.1875 53.875 92.1875 51L 92.1875 30.0312L 86.0312 30.0312L 86.0312 25.5625L 92.1875 25.5625L 92.1875 17.375L 97.9688 17.375ZM 127.406 30.75C 126.531 30.6042 125.583 30.5312 124.562 30.5312C 120.771 30.5312 118.198 32.1458 116.844 35.375L 116.844 59.375L 111.062 59.375L 111.062 25.5625L 116.688 25.5625L 116.781 29.4688C 118.677 26.4479 121.365 24.9375 124.844 24.9375C 125.969 24.9375 126.823 25.0833 127.406 25.375L 127.406 30.75ZM 153.625 56.0312C 151.375 58.6771 148.073 60 143.719 60C 140.115 60 137.365 58.9583 135.469 56.875C 133.594 54.7708 132.646 51.6667 132.625 47.5625L 132.625 25.5625L 138.406 25.5625L 138.406 47.4062C 138.406 52.5312 140.49 55.0938 144.656 55.0938C 149.073 55.0938 152.01 53.4479 153.469 50.1562L 153.469 25.5625L 159.25 25.5625L 159.25 59.375L 153.75 59.375L 153.625 56.0312ZM 181.625 55.2812C 183.688 55.2812 185.49 54.6562 187.031 53.4062C 188.573 52.1562 189.427 50.5938 189.594 48.7188L 195.062 48.7188C 194.958 50.6562 194.292 52.5 193.062 54.25C 191.833 56 190.188 57.3958 188.125 58.4375C 186.083 59.4792 183.917 60 181.625 60C 177.021 60 173.354 58.4688 170.625 55.4062C 167.917 52.3229 166.562 48.1146 166.562 42.7812L 166.562 41.8125C 166.562 38.5208 167.167 35.5938 168.375 33.0312C 169.583 30.4688 171.312 28.4792 173.562 27.0625C 175.833 25.6458 178.51 24.9375 181.594 24.9375C 185.385 24.9375 188.531 26.0729 191.031 28.3438C 193.552 30.6146 194.896 33.5625 195.062 37.1875L 189.594 37.1875C 189.427 35 188.594 33.2083 187.094 31.8125C 185.615 30.3958 183.781 29.6875 181.594 29.6875C 178.656 29.6875 176.375 30.75 174.75 32.875C 173.146 34.9792 172.344 38.0312 172.344 42.0312L 172.344 43.125C 172.344 47.0208 173.146 50.0208 174.75 52.125C 176.354 54.2292 178.646 55.2812 181.625 55.2812ZM 209.406 17.375L 209.406 25.5625L 215.719 25.5625L 215.719 30.0312L 209.406 30.0312L 209.406 51C 209.406 52.3542 209.688 53.375 210.25 54.0625C 210.812 54.7292 211.771 55.0625 213.125 55.0625C 213.792 55.0625 214.708 54.9375 215.875 54.6875L 215.875 59.375C 214.354 59.7917 212.875 60 211.438 60C 208.854 60 206.906 59.2188 205.594 57.6562C 204.281 56.0938 203.625 53.875 203.625 51L 203.625 30.0312L 197.469 30.0312L 197.469 25.5625L 203.625 25.5625L 203.625 17.375L 209.406 17.375ZM 228.781 59.375L 223 59.375L 223 25.5625L 228.781 25.5625L 228.781 59.375ZM 222.531 16.5938C 222.531 15.6562 222.812 14.8646 223.375 14.2188C 223.958 13.5729 224.812 13.25 225.938 13.25C 227.062 13.25 227.917 13.5729 228.5 14.2188C 229.083 14.8646 229.375 15.6562 229.375 16.5938C 229.375 17.5312 229.083 18.3125 228.5 18.9375C 227.917 19.5625 227.062 19.875 225.938 19.875C 224.812 19.875 223.958 19.5625 223.375 18.9375C 222.812 18.3125 222.531 17.5312 222.531 16.5938ZM 236.531 42.1562C 236.531 38.8438 237.177 35.8646 238.469 33.2188C 239.781 30.5729 241.594 28.5312 243.906 27.0938C 246.24 25.6562 248.896 24.9375 251.875 24.9375C 256.479 24.9375 260.198 26.5312 263.031 29.7188C 265.885 32.9062 267.312 37.1458 267.312 42.4375L 267.312 42.8438C 267.312 46.1354 266.677 49.0938 265.406 51.7188C 264.156 54.3229 262.354 56.3542 260 57.8125C 257.667 59.2708 254.979 60 251.938 60C 247.354 60 243.635 58.4062 240.781 55.2188C 237.948 52.0312 236.531 47.8125 236.531 42.5625L 236.531 42.1562ZM 242.344 42.8438C 242.344 46.5938 243.208 49.6042 244.938 51.875C 246.688 54.1458 249.021 55.2812 251.938 55.2812C 254.875 55.2812 257.208 54.1354 258.938 51.8438C 260.667 49.5312 261.531 46.3021 261.531 42.1562C 261.531 38.4479 260.646 35.4479 258.875 33.1562C 257.125 30.8438 254.792 29.6875 251.875 29.6875C 249.021 29.6875 246.719 30.8229 244.969 33.0938C 243.219 35.3646 242.344 38.6146 242.344 42.8438ZM 280.031 25.5625L 280.219 29.8125C 282.802 26.5625 286.177 24.9375 290.344 24.9375C 297.49 24.9375 301.094 28.9688 301.156 37.0312L 301.156 59.375L 295.375 59.375L 295.375 37C 295.354 34.5625 294.792 32.7604 293.688 31.5938C 292.604 30.4271 290.906 29.8438 288.594 29.8438C 286.719 29.8438 285.073 30.3438 283.656 31.3438C 282.24 32.3438 281.135 33.6562 280.344 35.2812L 280.344 59.375L 274.562 59.375L 274.562 25.5625L 280.031 25.5625Z"/>
<path id="path6_fill" d="M 5.28125 59.375L 5.28125 13.875L 18.125 13.875C 22.0833 13.875 25.5833 14.75 28.625 16.5C 31.6667 18.25 34.0104 20.7396 35.6562 23.9688C 37.3229 27.1979 38.1667 30.9062 38.1875 35.0938L 38.1875 38C 38.1875 42.2917 37.3542 46.0521 35.6875 49.2812C 34.0417 52.5104 31.6771 54.9896 28.5938 56.7188C 25.5312 58.4479 21.9583 59.3333 17.875 59.375L 5.28125 59.375ZM 11.2812 18.8125L 11.2812 54.4688L 17.5938 54.4688C 22.2188 54.4688 25.8125 53.0312 28.375 50.1562C 30.9583 47.2812 32.25 43.1875 32.25 37.875L 32.25 35.2188C 32.25 30.0521 31.0312 26.0417 28.5938 23.1875C 26.1771 20.3125 22.7396 18.8542 18.2812 18.8125L 11.2812 18.8125ZM 67.25 59.375C 66.9167 58.7083 66.6458 57.5208 66.4375 55.8125C 63.75 58.6042 60.5417 60 56.8125 60C 53.4792 60 50.7396 59.0625 48.5938 57.1875C 46.4688 55.2917 45.4062 52.8958 45.4062 50C 45.4062 46.4792 46.7396 43.75 49.4062 41.8125C 52.0938 39.8542 55.8646 38.875 60.7188 38.875L 66.3438 38.875L 66.3438 36.2188C 66.3438 34.1979 65.7396 32.5938 64.5312 31.4062C 63.3229 30.1979 61.5417 29.5938 59.1875 29.5938C 57.125 29.5938 55.3958 30.1146 54 31.1562C 52.6042 32.1979 51.9062 33.4583 51.9062 34.9375L 46.0938 34.9375C 46.0938 33.25 46.6875 31.625 47.875 30.0625C 49.0833 28.4792 50.7083 27.2292 52.75 26.3125C 54.8125 25.3958 57.0729 24.9375 59.5312 24.9375C 63.4271 24.9375 66.4792 25.9167 68.6875 27.875C 70.8958 29.8125 72.0417 32.4896 72.125 35.9062L 72.125 51.4688C 72.125 54.5729 72.5208 57.0417 73.3125 58.875L 73.3125 59.375L 67.25 59.375ZM 57.6562 54.9688C 59.4688 54.9688 61.1875 54.5 62.8125 53.5625C 64.4375 52.625 65.6146 51.4062 66.3438 49.9062L 66.3438 42.9688L 61.8125 42.9688C 54.7292 42.9688 51.1875 45.0417 51.1875 49.1875C 51.1875 51 51.7917 52.4167 53 53.4375C 54.2083 54.4583 55.7604 54.9688 57.6562 54.9688ZM 89.0312 17.375L 89.0312 25.5625L 95.3438 25.5625L 95.3438 30.0312L 89.0312 30.0312L 89.0312 51C 89.0312 52.3542 89.3125 53.375 89.875 54.0625C 90.4375 54.7292 91.3958 55.0625 92.75 55.0625C 93.4167 55.0625 94.3333 54.9375 95.5 54.6875L 95.5 59.375C 93.9792 59.7917 92.5 60 91.0625 60C 88.4792 60 86.5312 59.2188 85.2188 57.6562C 83.9062 56.0938 83.25 53.875 83.25 51L 83.25 30.0312L 77.0938 30.0312L 77.0938 25.5625L 83.25 25.5625L 83.25 17.375L 89.0312 17.375ZM 123 59.375C 122.667 58.7083 122.396 57.5208 122.188 55.8125C 119.5 58.6042 116.292 60 112.562 60C 109.229 60 106.49 59.0625 104.344 57.1875C 102.219 55.2917 101.156 52.8958 101.156 50C 101.156 46.4792 102.49 43.75 105.156 41.8125C 107.844 39.8542 111.615 38.875 116.469 38.875L 122.094 38.875L 122.094 36.2188C 122.094 34.1979 121.49 32.5938 120.281 31.4062C 119.073 30.1979 117.292 29.5938 114.938 29.5938C 112.875 29.5938 111.146 30.1146 109.75 31.1562C 108.354 32.1979 107.656 33.4583 107.656 34.9375L 101.844 34.9375C 101.844 33.25 102.438 31.625 103.625 30.0625C 104.833 28.4792 106.458 27.2292 108.5 26.3125C 110.562 25.3958 112.823 24.9375 115.281 24.9375C 119.177 24.9375 122.229 25.9167 124.438 27.875C 126.646 29.8125 127.792 32.4896 127.875 35.9062L 127.875 51.4688C 127.875 54.5729 128.271 57.0417 129.062 58.875L 129.062 59.375L 123 59.375ZM 113.406 54.9688C 115.219 54.9688 116.938 54.5 118.562 53.5625C 120.188 52.625 121.365 51.4062 122.094 49.9062L 122.094 42.9688L 117.562 42.9688C 110.479 42.9688 106.938 45.0417 106.938 49.1875C 106.938 51 107.542 52.4167 108.75 53.4375C 109.958 54.4583 111.51 54.9688 113.406 54.9688Z"/>
<path id="path7_fill" d="M 0 0L 594 0L 594 160L 0 160L 0 0Z"/>
<path id="path8_stroke_2x" d="M 0 0L 0 -2.5L -2.5 -2.5L -2.5 0L 0 0ZM 594 0L 596.5 0L 596.5 -2.5L 594 -2.5L 594 0ZM 594 160L 594 162.5L 596.5 162.5L 596.5 160L 594 160ZM 0 160L -2.5 160L -2.5 162.5L 0 162.5L 0 160ZM -2.5 0L -2.5 2.5L 2.5 2.5L 2.5 0L -2.5 0ZM -2.5 7.5L -2.5 12.5L 2.5 12.5L 2.5 7.5L -2.5 7.5ZM -2.5 17.5L -2.5 22.5L 2.5 22.5L 2.5 17.5L -2.5 17.5ZM -2.5 27.5L -2.5 32.5L 2.5 32.5L 2.5 27.5L -2.5 27.5ZM -2.5 37.5L -2.5 42.5L 2.5 42.5L 2.5 37.5L -2.5 37.5ZM -2.5 47.5L -2.5 52.5L 2.5 52.5L 2.5 47.5L -2.5 47.5ZM -2.5 57.5L -2.5 62.5L 2.5 62.5L 2.5 57.5L -2.5 57.5ZM -2.5 67.5L -2.5 72.5L 2.5 72.5L 2.5 67.5L -2.5 67.5ZM -2.5 77.5L -2.5 82.5L 2.5 82.5L 2.5 77.5L -2.5 77.5ZM -2.5 87.5L -2.5 92.5L 2.5 92.5L 2.5 87.5L -2.5 87.5ZM -2.5 97.5L -2.5 102.5L 2.5 102.5L 2.5 97.5L -2.5 97.5ZM -2.5 107.5L -2.5 112.5L 2.5 112.5L 2.5 107.5L -2.5 107.5ZM -2.5 117.5L -2.5 122.5L 2.5 122.5L 2.5 117.5L -2.5 117.5ZM -2.5 127.5L -2.5 132.5L 2.5 132.5L 2.5 127.5L -2.5 127.5ZM -2.5 137.5L -2.5 142.5L 2.5 142.5L 2.5 137.5L -2.5 137.5ZM -2.5 147.5L -2.5 152.5L 2.5 152.5L 2.5 147.5L -2.5 147.5ZM -2.5 157.5L -2.5 160L 2.5 160L 2.5 157.5L -2.5 157.5ZM 0 162.5L 2.51695 162.5L 2.51695 157.5L 0 157.5L 0 162.5ZM 7.55085 162.5L 12.5847 162.5L 12.5847 157.5L 7.55085 157.5L 7.55085 162.5ZM 17.6186 162.5L 22.6525 162.5L 22.6525 157.5L 17.6186 157.5L 17.6186 162.5ZM 27.6864 162.5L 32.7203 162.5L 32.7203 157.5L 27.6864 157.5L 27.6864 162.5ZM 37.7542 162.5L 42.7881 162.5L 42.7881 157.5L 37.7542 157.5L 37.7542 162.5ZM 47.822 162.5L 52.8559 162.5L 52.8559 157.5L 47.822 157.5L 47.822 162.5ZM 57.8898 162.5L 62.9237 162.5L 62.9237 157.5L 57.8898 157.5L 57.8898 162.5ZM 67.9576 162.5L 72.9915 162.5L 72.9915 157.5L 67.9576 157.5L 67.9576 162.5ZM 78.0254 162.5L 83.0593 162.5L 83.0593 157.5L 78.0254 157.5L 78.0254 162.5ZM 88.0932 162.5L 93.1271 162.5L 93.1271 157.5L 88.0932 157.5L 88.0932 162.5ZM 98.161 162.5L 103.195 162.5L 103.195 157.5L 98.161 157.5L 98.161 162.5ZM 108.229 162.5L 113.263 162.5L 113.263 157.5L 108.229 157.5L 108.229 162.5ZM 118.297 162.5L 123.331 162.5L 123.331 157.5L 118.297 157.5L 118.297 162.5ZM 128.364 162.5L 133.398 162.5L 133.398 157.5L 128.364 157.5L 128.364 162.5ZM 138.432 162.5L 143.466 162.5L 143.466 157.5L 138.432 157.5L 138.432 162.5ZM 148.5 162.5L 153.534 162.5L 153.534 157.5L 148.5 157.5L 148.5 162.5ZM 158.568 162.5L 163.602 162.5L 163.602 157.5L 158.568 157.5L 158.568 162.5ZM 168.636 162.5L 173.669 162.5L 173.669 157.5L 168.636 157.5L 168.636 162.5ZM 178.703 162.5L 183.737 162.5L 183.737 157.5L 178.703 157.5L 178.703 162.5ZM 188.771 162.5L 193.805 162.5L 193.805 157.5L 188.771 157.5L 188.771 162.5ZM 198.839 162.5L 203.873 162.5L 203.873 157.5L 198.839 157.5L 198.839 162.5ZM 208.907 162.5L 213.941 162.5L 213.941 157.5L 208.907 157.5L 208.907 162.5ZM 218.975 162.5L 224.008 162.5L 224.008 157.5L 218.975 157.5L 218.975 162.5ZM 229.042 162.5L 234.076 162.5L 234.076 157.5L 229.042 157.5L 229.042 162.5ZM 239.11 162.5L 244.144 162.5L 244.144 157.5L 239.11 157.5L 239.11 162.5ZM 249.178 162.5L 254.212 162.5L 254.212 157.5L 249.178 157.5L 249.178 162.5ZM 259.246 162.5L 264.28 162.5L 264.28 157.5L 259.246 157.5L 259.246 162.5ZM 269.314 162.5L 274.347 162.5L 274.347 157.5L 269.314 157.5L 269.314 162.5ZM 279.381 162.5L 284.415 162.5L 284.415 157.5L 279.381 157.5L 279.381 162.5ZM 289.449 162.5L 294.483 162.5L 294.483 157.5L 289.449 157.5L 289.449 162.5ZM 299.517 162.5L 304.551 162.5L 304.551 157.5L 299.517 157.5L 299.517 162.5ZM 309.585 162.5L 314.619 162.5L 314.619 157.5L 309.585 157.5L 309.585 162.5ZM 319.653 162.5L 324.686 162.5L 324.686 157.5L 319.653 157.5L 319.653 162.5ZM 329.72 162.5L 334.754 162.5L 334.754 157.5L 329.72 157.5L 329.72 162.5ZM 339.788 162.5L 344.822 162.5L 344.822 157.5L 339.788 157.5L 339.788 162.5ZM 349.856 162.5L 354.89 162.5L 354.89 157.5L 349.856 157.5L 349.856 162.5ZM 359.924 162.5L 364.958 162.5L 364.958 157.5L 359.924 157.5L 359.924 162.5ZM 369.992 162.5L 375.025 162.5L 375.025 157.5L 369.992 157.5L 369.992 162.5ZM 380.059 162.5L 385.093 162.5L 385.093 157.5L 380.059 157.5L 380.059 162.5ZM 390.127 162.5L 395.161 162.5L 395.161 157.5L 390.127 157.5L 390.127 162.5ZM 400.195 162.5L 405.229 162.5L 405.229 157.5L 400.195 157.5L 400.195 162.5ZM 410.263 162.5L 415.297 162.5L 415.297 157.5L 410.263 157.5L 410.263 162.5ZM 420.331 162.5L 425.364 162.5L 425.364 157.5L 420.331 157.5L 420.331 162.5ZM 430.398 162.5L 435.432 162.5L 435.432 157.5L 430.398 157.5L 430.398 162.5ZM 440.466 162.5L 445.5 162.5L 445.5 157.5L 440.466 157.5L 440.466 162.5ZM 450.534 162.5L 455.568 162.5L 455.568 157.5L 450.534 157.5L 450.534 162.5ZM 460.602 162.5L 465.636 162.5L 465.636 157.5L 460.602 157.5L 460.602 162.5ZM 470.669 162.5L 475.703 162.5L 475.703 157.5L 470.669 157.5L 470.669 162.5ZM 480.737 162.5L 485.771 162.5L 485.771 157.5L 480.737 157.5L 480.737 162.5ZM 490.805 162.5L 495.839 162.5L 495.839 157.5L 490.805 157.5L 490.805 162.5ZM 500.873 162.5L 505.907 162.5L 505.907 157.5L 500.873 157.5L 500.873 162.5ZM 510.941 162.5L 515.975 162.5L 515.975 157.5L 510.941 157.5L 510.941 162.5ZM 521.008 162.5L 526.042 162.5L 526.042 157.5L 521.008 157.5L 521.008 162.5ZM 531.076 162.5L 536.11 162.5L 536.11 157.5L 531.076 157.5L 531.076 162.5ZM 541.144 162.5L 546.178 162.5L 546.178 157.5L 541.144 157.5L 541.144 162.5ZM 551.212 162.5L 556.246 162.5L 556.246 157.5L 551.212 157.5L 551.212 162.5ZM 561.28 162.5L 566.314 162.5L 566.314 157.5L 561.28 157.5L 561.28 162.5ZM 571.347 162.5L 576.381 162.5L 576.381 157.5L 571.347 157.5L 571.347 162.5ZM 581.415 162.5L 586.449 162.5L 586.449 157.5L 581.415 157.5L 581.415 162.5ZM 591.483 162.5L 594 162.5L 594 157.5L 591.483 157.5L 591.483 162.5ZM 596.5 160L 596.5 157.5L 591.5 157.5L 591.5 160L 596.5 160ZM 596.5 152.5L 596.5 147.5L 591.5 147.5L 591.5 152.5L 596.5 152.5ZM 596.5 142.5L 596.5 137.5L 591.5 137.5L 591.5 142.5L 596.5 142.5ZM 596.5 132.5L 596.5 127.5L 591.5 127.5L 591.5 132.5L 596.5 132.5ZM 596.5 122.5L 596.5 117.5L 591.5 117.5L 591.5 122.5L 596.5 122.5ZM 596.5 112.5L 596.5 107.5L 591.5 107.5L 591.5 112.5L 596.5 112.5ZM 596.5 102.5L 596.5 97.5L 591.5 97.5L 591.5 102.5L 596.5 102.5ZM 596.5 92.5L 596.5 87.5L 591.5 87.5L 591.5 92.5L 596.5 92.5ZM 596.5 82.5L 596.5 77.5L 591.5 77.5L 591.5 82.5L 596.5 82.5ZM 596.5 72.5L 596.5 67.5L 591.5 67.5L 591.5 72.5L 596.5 72.5ZM 596.5 62.5L 596.5 57.5L 591.5 57.5L 591.5 62.5L 596.5 62.5ZM 596.5 52.5L 596.5 47.5L 591.5 47.5L 591.5 52.5L 596.5 52.5ZM 596.5 42.5L 596.5 37.5L 591.5 37.5L 591.5 42.5L 596.5 42.5ZM 596.5 32.5L 596.5 27.5L 591.5 27.5L 591.5 32.5L 596.5 32.5ZM 596.5 22.5L 596.5 17.5L 591.5 17.5L 591.5 22.5L 596.5 22.5ZM 596.5 12.5L 596.5 7.5L 591.5 7.5L 591.5 12.5L 596.5 12.5ZM 596.5 2.5L 596.5 0L 591.5 0L 591.5 2.5L 596.5 2.5ZM 594 -2.5L 591.483 -2.5L 591.483 2.5L 594 2.5L 594 -2.5ZM 586.449 -2.5L 581.415 -2.5L 581.415 2.5L 586.449 2.5L 586.449 -2.5ZM 576.381 -2.5L 571.347 -2.5L 571.347 2.5L 576.381 2.5L 576.381 -2.5ZM 566.314 -2.5L 561.28 -2.5L 561.28 2.5L 566.314 2.5L 566.314 -2.5ZM 556.246 -2.5L 551.212 -2.5L 551.212 2.5L 556.246 2.5L 556.246 -2.5ZM 546.178 -2.5L 541.144 -2.5L 541.144 2.5L 546.178 2.5L 546.178 -2.5ZM 536.11 -2.5L 531.076 -2.5L 531.076 2.5L 536.11 2.5L 536.11 -2.5ZM 526.042 -2.5L 521.008 -2.5L 521.008 2.5L 526.042 2.5L 526.042 -2.5ZM 515.975 -2.5L 510.941 -2.5L 510.941 2.5L 515.975 2.5L 515.975 -2.5ZM 505.907 -2.5L 500.873 -2.5L 500.873 2.5L 505.907 2.5L 505.907 -2.5ZM 495.839 -2.5L 490.805 -2.5L 490.805 2.5L 495.839 2.5L 495.839 -2.5ZM 485.771 -2.5L 480.737 -2.5L 480.737 2.5L 485.771 2.5L 485.771 -2.5ZM 475.703 -2.5L 470.669 -2.5L 470.669 2.5L 475.703 2.5L 475.703 -2.5ZM 465.636 -2.5L 460.602 -2.5L 460.602 2.5L 465.636 2.5L 465.636 -2.5ZM 455.568 -2.5L 450.534 -2.5L 450.534 2.5L 455.568 2.5L 455.568 -2.5ZM 445.5 -2.5L 440.466 -2.5L 440.466 2.5L 445.5 2.5L 445.5 -2.5ZM 435.432 -2.5L 430.398 -2.5L 430.398 2.5L 435.432 2.5L 435.432 -2.5ZM 425.364 -2.5L 420.331 -2.5L 420.331 2.5L 425.364 2.5L 425.364 -2.5ZM 415.297 -2.5L 410.263 -2.5L 410.263 2.5L 415.297 2.5L 415.297 -2.5ZM 405.229 -2.5L 400.195 -2.5L 400.195 2.5L 405.229 2.5L 405.229 -2.5ZM 395.161 -2.5L 390.127 -2.5L 390.127 2.5L 395.161 2.5L 395.161 -2.5ZM 385.093 -2.5L 380.059 -2.5L 380.059 2.5L 385.093 2.5L 385.093 -2.5ZM 375.025 -2.5L 369.992 -2.5L 369.992 2.5L 375.025 2.5L 375.025 -2.5ZM 364.958 -2.5L 359.924 -2.5L 359.924 2.5L 364.958 2.5L 364.958 -2.5ZM 354.89 -2.5L 349.856 -2.5L 349.856 2.5L 354.89 2.5L 354.89 -2.5ZM 344.822 -2.5L 339.788 -2.5L 339.788 2.5L 344.822 2.5L 344.822 -2.5ZM 334.754 -2.5L 329.72 -2.5L 329.72 2.5L 334.754 2.5L 334.754 -2.5ZM 324.686 -2.5L 319.653 -2.5L 319.653 2.5L 324.686 2.5L 324.686 -2.5ZM 314.619 -2.5L 309.585 -2.5L 309.585 2.5L 314.619 2.5L 314.619 -2.5ZM 304.551 -2.5L 299.517 -2.5L 299.517 2.5L 304.551 2.5L 304.551 -2.5ZM 294.483 -2.5L 289.449 -2.5L 289.449 2.5L 294.483 2.5L 294.483 -2.5ZM 284.415 -2.5L 279.381 -2.5L 279.381 2.5L 284.415 2.5L 284.415 -2.5ZM 274.347 -2.5L 269.314 -2.5L 269.314 2.5L 274.347 2.5L 274.347 -2.5ZM 264.28 -2.5L 259.246 -2.5L 259.246 2.5L 264.28 2.5L 264.28 -2.5ZM 254.212 -2.5L 249.178 -2.5L 249.178 2.5L 254.212 2.5L 254.212 -2.5ZM 244.144 -2.5L 239.11 -2.5L 239.11 2.5L 244.144 2.5L 244.144 -2.5ZM 234.076 -2.5L 229.042 -2.5L 229.042 2.5L 234.076 2.5L 234.076 -2.5ZM 224.008 -2.5L 218.975 -2.5L 218.975 2.5L 224.008 2.5L 224.008 -2.5ZM 213.941 -2.5L 208.907 -2.5L 208.907 2.5L 213.941 2.5L 213.941 -2.5ZM 203.873 -2.5L 198.839 -2.5L 198.839 2.5L 203.873 2.5L 203.873 -2.5ZM 193.805 -2.5L 188.771 -2.5L 188.771 2.5L 193.805 2.5L 193.805 -2.5ZM 183.737 -2.5L 178.703 -2.5L 178.703 2.5L 183.737 2.5L 183.737 -2.5ZM 173.669 -2.5L 168.636 -2.5L 168.636 2.5L 173.669 2.5L 173.669 -2.5ZM 163.602 -2.5L 158.568 -2.5L 158.568 2.5L 163.602 2.5L 163.602 -2.5ZM 153.534 -2.5L 148.5 -2.5L 148.5 2.5L 153.534 2.5L 153.534 -2.5ZM 143.466 -2.5L 138.432 -2.5L 138.432 2.5L 143.466 2.5L 143.466 -2.5ZM 133.398 -2.5L 128.364 -2.5L 128.364 2.5L 133.398 2.5L 133.398 -2.5ZM 123.331 -2.5L 118.297 -2.5L 118.297 2.5L 123.331 2.5L 123.331 -2.5ZM 113.263 -2.5L 108.229 -2.5L 108.229 2.5L 113.263 2.5L 113.263 -2.5ZM 103.195 -2.5L 98.161 -2.5L 98.161 2.5L 103.195 2.5L 103.195 -2.5ZM 93.1271 -2.5L 88.0932 -2.5L 88.0932 2.5L 93.1271 2.5L 93.1271 -2.5ZM 83.0593 -2.5L 78.0254 -2.5L 78.0254 2.5L 83.0593 2.5L 83.0593 -2.5ZM 72.9915 -2.5L 67.9576 -2.5L 67.9576 2.5L 72.9915 2.5L 72.9915 -2.5ZM 62.9237 -2.5L 57.8898 -2.5L 57.8898 2.5L 62.9237 2.5L 62.9237 -2.5ZM 52.8559 -2.5L 47.822 -2.5L 47.822 2.5L 52.8559 2.5L 52.8559 -2.5ZM 42.7881 -2.5L 37.7542 -2.5L 37.7542 2.5L 42.7881 2.5L 42.7881 -2.5ZM 32.7203 -2.5L 27.6864 -2.5L 27.6864 2.5L 32.7203 2.5L 32.7203 -2.5ZM 22.6525 -2.5L 17.6186 -2.5L 17.6186 2.5L 22.6525 2.5L 22.6525 -2.5ZM 12.5847 -2.5L 7.55085 -2.5L 7.55085 2.5L 12.5847 2.5L 12.5847 -2.5ZM 2.51695 -2.5L 0 -2.5L 0 2.5L 2.51695 2.5L 2.51695 -2.5ZM 0 0L 0 -5L -5 -5L -5 0L 0 0ZM 594 0L 599 0L 599 -5L 594 -5L 594 0ZM 594 160L 594 165L 599 165L 599 160L 594 160ZM 0 160L -5 160L -5 165L 0 165L 0 160ZM -5 0L -5 2.5L 5 2.5L 5 0L -5 0ZM -5 7.5L -5 12.5L 5 12.5L 5 7.5L -5 7.5ZM -5 17.5L -5 22.5L 5 22.5L 5 17.5L -5 17.5ZM -5 27.5L -5 32.5L 5 32.5L 5 27.5L -5 27.5ZM -5 37.5L -5 42.5L 5 42.5L 5 37.5L -5 37.5ZM -5 47.5L -5 52.5L 5 52.5L 5 47.5L -5 47.5ZM -5 57.5L -5 62.5L 5 62.5L 5 57.5L -5 57.5ZM -5 67.5L -5 72.5L 5 72.5L 5 67.5L -5 67.5ZM -5 77.5L -5 82.5L 5 82.5L 5 77.5L -5 77.5ZM -5 87.5L -5 92.5L 5 92.5L 5 87.5L -5 87.5ZM -5 97.5L -5 102.5L 5 102.5L 5 97.5L -5 97.5ZM -5 107.5L -5 112.5L 5 112.5L 5 107.5L -5 107.5ZM -5 117.5L -5 122.5L 5 122.5L 5 117.5L -5 117.5ZM -5 127.5L -5 132.5L 5 132.5L 5 127.5L -5 127.5ZM -5 137.5L -5 142.5L 5 142.5L 5 137.5L -5 137.5ZM -5 147.5L -5 152.5L 5 152.5L 5 147.5L -5 147.5ZM -5 157.5L -5 160L 5 160L 5 157.5L -5 157.5ZM 0 165L 2.51695 165L 2.51695 155L 0 155L 0 165ZM 7.55085 165L 12.5847 165L 12.5847 155L 7.55085 155L 7.55085 165ZM 17.6186 165L 22.6525 165L 22.6525 155L 17.6186 155L 17.6186 165ZM 27.6864 165L 32.7203 165L 32.7203 155L 27.6864 155L 27.6864 165ZM 37.7542 165L 42.7881 165L 42.7881 155L 37.7542 155L 37.7542 165ZM 47.822 165L 52.8559 165L 52.8559 155L 47.822 155L 47.822 165ZM 57.8898 165L 62.9237 165L 62.9237 155L 57.8898 155L 57.8898 165ZM 67.9576 165L 72.9915 165L 72.9915 155L 67.9576 155L 67.9576 165ZM 78.0254 165L 83.0593 165L 83.0593 155L 78.0254 155L 78.0254 165ZM 88.0932 165L 93.1271 165L 93.1271 155L 88.0932 155L 88.0932 165ZM 98.161 165L 103.195 165L 103.195 155L 98.161 155L 98.161 165ZM 108.229 165L 113.263 165L 113.263 155L 108.229 155L 108.229 165ZM 118.297 165L 123.331 165L 123.331 155L 118.297 155L 118.297 165ZM 128.364 165L 133.398 165L 133.398 155L 128.364 155L 128.364 165ZM 138.432 165L 143.466 165L 143.466 155L 138.432 155L 138.432 165ZM 148.5 165L 153.534 165L 153.534 155L 148.5 155L 148.5 165ZM 158.568 165L 163.602 165L 163.602 155L 158.568 155L 158.568 165ZM 168.636 165L 173.669 165L 173.669 155L 168.636 155L 168.636 165ZM 178.703 165L 183.737 165L 183.737 155L 178.703 155L 178.703 165ZM 188.771 165L 193.805 165L 193.805 155L 188.771 155L 188.771 165ZM 198.839 165L 203.873 165L 203.873 155L 198.839 155L 198.839 165ZM 208.907 165L 213.941 165L 213.941 155L 208.907 155L 208.907 165ZM 218.975 165L 224.008 165L 224.008 155L 218.975 155L 218.975 165ZM 229.042 165L 234.076 165L 234.076 155L 229.042 155L 229.042 165ZM 239.11 165L 244.144 165L 244.144 155L 239.11 155L 239.11 165ZM 249.178 165L 254.212 165L 254.212 155L 249.178 155L 249.178 165ZM 259.246 165L 264.28 165L 264.28 155L 259.246 155L 259.246 165ZM 269.314 165L 274.347 165L 274.347 155L 269.314 155L 269.314 165ZM 279.381 165L 284.415 165L 284.415 155L 279.381 155L 279.381 165ZM 289.449 165L 294.483 165L 294.483 155L 289.449 155L 289.449 165ZM 299.517 165L 304.551 165L 304.551 155L 299.517 155L 299.517 165ZM 309.585 165L 314.619 165L 314.619 155L 309.585 155L 309.585 165ZM 319.653 165L 324.686 165L 324.686 155L 319.653 155L 319.653 165ZM 329.72 165L 334.754 165L 334.754 155L 329.72 155L 329.72 165ZM 339.788 165L 344.822 165L 344.822 155L 339.788 155L 339.788 165ZM 349.856 165L 354.89 165L 354.89 155L 349.856 155L 349.856 165ZM 359.924 165L 364.958 165L 364.958 155L 359.924 155L 359.924 165ZM 369.992 165L 375.025 165L 375.025 155L 369.992 155L 369.992 165ZM 380.059 165L 385.093 165L 385.093 155L 380.059 155L 380.059 165ZM 390.127 165L 395.161 165L 395.161 155L 390.127 155L 390.127 165ZM 400.195 165L 405.229 165L 405.229 155L 400.195 155L 400.195 165ZM 410.263 165L 415.297 165L 415.297 155L 410.263 155L 410.263 165ZM 420.331 165L 425.364 165L 425.364 155L 420.331 155L 420.331 165ZM 430.398 165L 435.432 165L 435.432 155L 430.398 155L 430.398 165ZM 440.466 165L 445.5 165L 445.5 155L 440.466 155L 440.466 165ZM 450.534 165L 455.568 165L 455.568 155L 450.534 155L 450.534 165ZM 460.602 165L 465.636 165L 465.636 155L 460.602 155L 460.602 165ZM 470.669 165L 475.703 165L 475.703 155L 470.669 155L 470.669 165ZM 480.737 165L 485.771 165L 485.771 155L 480.737 155L 480.737 165ZM 490.805 165L 495.839 165L 495.839 155L 490.805 155L 490.805 165ZM 500.873 165L 505.907 165L 505.907 155L 500.873 155L 500.873 165ZM 510.941 165L 515.975 165L 515.975 155L 510.941 155L 510.941 165ZM 521.008 165L 526.042 165L 526.042 155L 521.008 155L 521.008 165ZM 531.076 165L 536.11 165L 536.11 155L 531.076 155L 531.076 165ZM 541.144 165L 546.178 165L 546.178 155L 541.144 155L 541.144 165ZM 551.212 165L 556.246 165L 556.246 155L 551.212 155L 551.212 165ZM 561.28 165L 566.314 165L 566.314 155L 561.28 155L 561.28 165ZM 571.347 165L 576.381 165L 576.381 155L 571.347 155L 571.347 165ZM 581.415 165L 586.449 165L 586.449 155L 581.415 155L 581.415 165ZM 591.483 165L 594 165L 594 155L 591.483 155L 591.483 165ZM 599 160L 599 157.5L 589 157.5L 589 160L 599 160ZM 599 152.5L 599 147.5L 589 147.5L 589 152.5L 599 152.5ZM 599 142.5L 599 137.5L 589 137.5L 589 142.5L 599 142.5ZM 599 132.5L 599 127.5L 589 127.5L 589 132.5L 599 132.5ZM 599 122.5L 599 117.5L 589 117.5L 589 122.5L 599 122.5ZM 599 112.5L 599 107.5L 589 107.5L 589 112.5L 599 112.5ZM 599 102.5L 599 97.5L 589 97.5L 589 102.5L 599 102.5ZM 599 92.5L 599 87.5L 589 87.5L 589 92.5L 599 92.5ZM 599 82.5L 599 77.5L 589 77.5L 589 82.5L 599 82.5ZM 599 72.5L 599 67.5L 589 67.5L 589 72.5L 599 72.5ZM 599 62.5L 599 57.5L 589 57.5L 589 62.5L 599 62.5ZM 599 52.5L 599 47.5L 589 47.5L 589 52.5L 599 52.5ZM 599 42.5L 599 37.5L 589 37.5L 589 42.5L 599 42.5ZM 599 32.5L 599 27.5L 589 27.5L 589 32.5L 599 32.5ZM 599 22.5L 599 17.5L 589 17.5L 589 22.5L 599 22.5ZM 599 12.5L 599 7.5L 589 7.5L 589 12.5L 599 12.5ZM 599 2.5L 599 0L 589 0L 589 2.5L 599 2.5ZM 594 -5L 591.483 -5L 591.483 5L 594 5L 594 -5ZM 586.449 -5L 581.415 -5L 581.415 5L 586.449 5L 586.449 -5ZM 576.381 -5L 571.347 -5L 571.347 5L 576.381 5L 576.381 -5ZM 566.314 -5L 561.28 -5L 561.28 5L 566.314 5L 566.314 -5ZM 556.246 -5L 551.212 -5L 551.212 5L 556.246 5L 556.246 -5ZM 546.178 -5L 541.144 -5L 541.144 5L 546.178 5L 546.178 -5ZM 536.11 -5L 531.076 -5L 531.076 5L 536.11 5L 536.11 -5ZM 526.042 -5L 521.008 -5L 521.008 5L 526.042 5L 526.042 -5ZM 515.975 -5L 510.941 -5L 510.941 5L 515.975 5L 515.975 -5ZM 505.907 -5L 500.873 -5L 500.873 5L 505.907 5L 505.907 -5ZM 495.839 -5L 490.805 -5L 490.805 5L 495.839 5L 495.839 -5ZM 485.771 -5L 480.737 -5L 480.737 5L 485.771 5L 485.771 -5ZM 475.703 -5L 470.669 -5L 470.669 5L 475.703 5L 475.703 -5ZM 465.636 -5L 460.602 -5L 460.602 5L 465.636 5L 465.636 -5ZM 455.568 -5L 450.534 -5L 450.534 5L 455.568 5L 455.568 -5ZM 445.5 -5L 440.466 -5L 440.466 5L 445.5 5L 445.5 -5ZM 435.432 -5L 430.398 -5L 430.398 5L 435.432 5L 435.432 -5ZM 425.364 -5L 420.331 -5L 420.331 5L 425.364 5L 425.364 -5ZM 415.297 -5L 410.263 -5L 410.263 5L 415.297 5L 415.297 -5ZM 405.229 -5L 400.195 -5L 400.195 5L 405.229 5L 405.229 -5ZM 395.161 -5L 390.127 -5L 390.127 5L 395.161 5L 395.161 -5ZM 385.093 -5L 380.059 -5L 380.059 5L 385.093 5L 385.093 -5ZM 375.025 -5L 369.992 -5L 369.992 5L 375.025 5L 375.025 -5ZM 364.958 -5L 359.924 -5L 359.924 5L 364.958 5L 364.958 -5ZM 354.89 -5L 349.856 -5L 349.856 5L 354.89 5L 354.89 -5ZM 344.822 -5L 339.788 -5L 339.788 5L 344.822 5L 344.822 -5ZM 334.754 -5L 329.72 -5L 329.72 5L 334.754 5L 334.754 -5ZM 324.686 -5L 319.653 -5L 319.653 5L 324.686 5L 324.686 -5ZM 314.619 -5L 309.585 -5L 309.585 5L 314.619 5L 314.619 -5ZM 304.551 -5L 299.517 -5L 299.517 5L 304.551 5L 304.551 -5ZM 294.483 -5L 289.449 -5L 289.449 5L 294.483 5L 294.483 -5ZM 284.415 -5L 279.381 -5L 279.381 5L 284.415 5L 284.415 -5ZM 274.347 -5L 269.314 -5L 269.314 5L 274.347 5L 274.347 -5ZM 264.28 -5L 259.246 -5L 259.246 5L 264.28 5L 264.28 -5ZM 254.212 -5L 249.178 -5L 249.178 5L 254.212 5L 254.212 -5ZM 244.144 -5L 239.11 -5L 239.11 5L 244.144 5L 244.144 -5ZM 234.076 -5L 229.042 -5L 229.042 5L 234.076 5L 234.076 -5ZM 224.008 -5L 218.975 -5L 218.975 5L 224.008 5L 224.008 -5ZM 213.941 -5L 208.907 -5L 208.907 5L 213.941 5L 213.941 -5ZM 203.873 -5L 198.839 -5L 198.839 5L 203.873 5L 203.873 -5ZM 193.805 -5L 188.771 -5L 188.771 5L 193.805 5L 193.805 -5ZM 183.737 -5L 178.703 -5L 178.703 5L 183.737 5L 183.737 -5ZM 173.669 -5L 168.636 -5L 168.636 5L 173.669 5L 173.669 -5ZM 163.602 -5L 158.568 -5L 158.568 5L 163.602 5L 163.602 -5ZM 153.534 -5L 148.5 -5L 148.5 5L 153.534 5L 153.534 -5ZM 143.466 -5L 138.432 -5L 138.432 5L 143.466 5L 143.466 -5ZM 133.398 -5L 128.364 -5L 128.364 5L 133.398 5L 133.398 -5ZM 123.331 -5L 118.297 -5L 118.297 5L 123.331 5L 123.331 -5ZM 113.263 -5L 108.229 -5L 108.229 5L 113.263 5L 113.263 -5ZM 103.195 -5L 98.161 -5L 98.161 5L 103.195 5L 103.195 -5ZM 93.1271 -5L 88.0932 -5L 88.0932 5L 93.1271 5L 93.1271 -5ZM 83.0593 -5L 78.0254 -5L 78.0254 5L 83.0593 5L 83.0593 -5ZM 72.9915 -5L 67.9576 -5L 67.9576 5L 72.9915 5L 72.9915 -5ZM 62.9237 -5L 57.8898 -5L 57.8898 5L 62.9237 5L 62.9237 -5ZM 52.8559 -5L 47.822 -5L 47.822 5L 52.8559 5L 52.8559 -5ZM 42.7881 -5L 37.7542 -5L 37.7542 5L 42.7881 5L 42.7881 -5ZM 32.7203 -5L 27.6864 -5L 27.6864 5L 32.7203 5L 32.7203 -5ZM 22.6525 -5L 17.6186 -5L 17.6186 5L 22.6525 5L 22.6525 -5ZM 12.5847 -5L 7.55085 -5L 7.55085 5L 12.5847 5L 12.5847 -5ZM 2.51695 -5L 0 -5L 0 5L 2.51695 5L 2.51695 -5Z"/>
<path id="path9_fill" d="M 30.4062 47.5L 11.3438 47.5L 7.0625 59.375L 0.875 59.375L 18.25 13.875L 23.5 13.875L 40.9062 59.375L 34.75 59.375L 30.4062 47.5ZM 13.1562 42.5625L 28.625 42.5625L 20.875 21.2812L 13.1562 42.5625ZM 62.4688 30.75C 61.5938 30.6042 60.6458 30.5312 59.625 30.5312C 55.8333 30.5312 53.2604 32.1458 51.9062 35.375L 51.9062 59.375L 46.125 59.375L 46.125 25.5625L 51.75 25.5625L 51.8438 29.4688C 53.7396 26.4479 56.4271 24.9375 59.9062 24.9375C 61.0312 24.9375 61.8854 25.0833 62.4688 25.375L 62.4688 30.75ZM 96.4375 42.8438C 96.4375 48.0104 95.25 52.1667 92.875 55.3125C 90.5 58.4375 87.3125 60 83.3125 60C 79.0417 60 75.7396 58.4896 73.4062 55.4688L 73.125 59.375L 67.8125 59.375L 67.8125 11.375L 73.5938 11.375L 73.5938 29.2812C 75.9271 26.3854 79.1458 24.9375 83.25 24.9375C 87.3542 24.9375 90.5729 26.4896 92.9062 29.5938C 95.2604 32.6979 96.4375 36.9479 96.4375 42.3438L 96.4375 42.8438ZM 90.6562 42.1875C 90.6562 38.25 89.8958 35.2083 88.375 33.0625C 86.8542 30.9167 84.6667 29.8438 81.8125 29.8438C 78 29.8438 75.2604 31.6146 73.5938 35.1562L 73.5938 49.7812C 75.3646 53.3229 78.125 55.0938 81.875 55.0938C 84.6458 55.0938 86.8021 54.0208 88.3438 51.875C 89.8854 49.7292 90.6562 46.5 90.6562 42.1875ZM 110.031 59.375L 104.25 59.375L 104.25 25.5625L 110.031 25.5625L 110.031 59.375ZM 103.781 16.5938C 103.781 15.6562 104.062 14.8646 104.625 14.2188C 105.208 13.5729 106.062 13.25 107.188 13.25C 108.312 13.25 109.167 13.5729 109.75 14.2188C 110.333 14.8646 110.625 15.6562 110.625 16.5938C 110.625 17.5312 110.333 18.3125 109.75 18.9375C 109.167 19.5625 108.312 19.875 107.188 19.875C 106.062 19.875 105.208 19.5625 104.625 18.9375C 104.062 18.3125 103.781 17.5312 103.781 16.5938ZM 127.156 17.375L 127.156 25.5625L 133.469 25.5625L 133.469 30.0312L 127.156 30.0312L 127.156 51C 127.156 52.3542 127.438 53.375 128 54.0625C 128.562 54.7292 129.521 55.0625 130.875 55.0625C 131.542 55.0625 132.458 54.9375 133.625 54.6875L 133.625 59.375C 132.104 59.7917 130.625 60 129.188 60C 126.604 60 124.656 59.2188 123.344 57.6562C 122.031 56.0938 121.375 53.875 121.375 51L 121.375 30.0312L 115.219 30.0312L 115.219 25.5625L 121.375 25.5625L 121.375 17.375L 127.156 17.375ZM 154.281 60C 149.698 60 145.969 58.5 143.094 55.5C 140.219 52.4792 138.781 48.4479 138.781 43.4062L 138.781 42.3438C 138.781 38.9896 139.417 36 140.688 33.375C 141.979 30.7292 143.771 28.6667 146.062 27.1875C 148.375 25.6875 150.875 24.9375 153.562 24.9375C 157.958 24.9375 161.375 26.3854 163.812 29.2812C 166.25 32.1771 167.469 36.3229 167.469 41.7188L 167.469 44.125L 144.562 44.125C 144.646 47.4583 145.615 50.1562 147.469 52.2188C 149.344 54.2604 151.719 55.2812 154.594 55.2812C 156.635 55.2812 158.365 54.8646 159.781 54.0312C 161.198 53.1979 162.438 52.0938 163.5 50.7188L 167.031 53.4688C 164.198 57.8229 159.948 60 154.281 60ZM 153.562 29.6875C 151.229 29.6875 149.271 30.5417 147.688 32.25C 146.104 33.9375 145.125 36.3125 144.75 39.375L 161.688 39.375L 161.688 38.9375C 161.521 36 160.729 33.7292 159.312 32.125C 157.896 30.5 155.979 29.6875 153.562 29.6875ZM 190.531 30.75C 189.656 30.6042 188.708 30.5312 187.688 30.5312C 183.896 30.5312 181.323 32.1458 179.969 35.375L 179.969 59.375L 174.188 59.375L 174.188 25.5625L 179.812 25.5625L 179.906 29.4688C 181.802 26.4479 184.49 24.9375 187.969 24.9375C 189.094 24.9375 189.948 25.0833 190.531 25.375L 190.531 30.75Z"/>
<path id="path10_fill" d="M 0 0L 1199 0L 1199 629L 0 629L 0 0Z"/>
<path id="path11_stroke_2x" d="M 0 0L 0 -5L -5 -5L -5 0L 0 0ZM 1199 0L 1204 0L 1204 -5L 1199 -5L 1199 0ZM 1199 629L 1199 634L 1204 634L 1204 629L 1199 629ZM 0 629L -5 629L -5 634L 0 634L 0 629ZM 0 5L 1199 5L 1199 -5L 0 -5L 0 5ZM 1194 0L 1194 629L 1204 629L 1204 0L 1194 0ZM 1199 624L 0 624L 0 634L 1199 634L 1199 624ZM 5 629L 5 0L -5 0L -5 629L 5 629Z"/>
<path id="path12_fill" d="M 37.3125 13.875L 37.3125 44.8125C 37.2917 49.1042 35.9375 52.6146 33.25 55.3438C 30.5833 58.0729 26.9583 59.6042 22.375 59.9375L 20.7812 60C 15.8021 60 11.8333 58.6562 8.875 55.9688C 5.91667 53.2812 4.41667 49.5833 4.375 44.875L 4.375 13.875L 10.3125 13.875L 10.3125 44.6875C 10.3125 47.9792 11.2188 50.5417 13.0312 52.375C 14.8438 54.1875 17.4271 55.0938 20.7812 55.0938C 24.1771 55.0938 26.7708 54.1875 28.5625 52.375C 30.375 50.5625 31.2812 48.0104 31.2812 44.7188L 31.2812 13.875L 37.3125 13.875ZM 51.3438 25.5625L 51.5312 29.8125C 54.1146 26.5625 57.4896 24.9375 61.6562 24.9375C 68.8021 24.9375 72.4062 28.9688 72.4688 37.0312L 72.4688 59.375L 66.6875 59.375L 66.6875 37C 66.6667 34.5625 66.1042 32.7604 65 31.5938C 63.9167 30.4271 62.2188 29.8438 59.9062 29.8438C 58.0312 29.8438 56.3854 30.3438 54.9688 31.3438C 53.5521 32.3438 52.4479 33.6562 51.6562 35.2812L 51.6562 59.375L 45.875 59.375L 45.875 25.5625L 51.3438 25.5625ZM 87.4688 59.375L 81.6875 59.375L 81.6875 25.5625L 87.4688 25.5625L 87.4688 59.375ZM 81.2188 16.5938C 81.2188 15.6562 81.5 14.8646 82.0625 14.2188C 82.6458 13.5729 83.5 13.25 84.625 13.25C 85.75 13.25 86.6042 13.5729 87.1875 14.2188C 87.7708 14.8646 88.0625 15.6562 88.0625 16.5938C 88.0625 17.5312 87.7708 18.3125 87.1875 18.9375C 86.6042 19.5625 85.75 19.875 84.625 19.875C 83.5 19.875 82.6458 19.5625 82.0625 18.9375C 81.5 18.3125 81.2188 17.5312 81.2188 16.5938ZM 98.6875 59.375L 98.6875 30.0312L 93.3438 30.0312L 93.3438 25.5625L 98.6875 25.5625L 98.6875 22.6875C 98.6875 18.9167 99.7604 15.9792 101.906 13.875C 104.073 11.7708 107.125 10.7188 111.062 10.7188C 113.396 10.7188 116.344 11.3542 119.906 12.625L 118.938 17.5C 116.333 16.4583 113.854 15.9375 111.5 15.9375C 109.021 15.9375 107.229 16.5 106.125 17.625C 105.042 18.7292 104.5 20.3958 104.5 22.625L 104.5 25.5625L 111.406 25.5625L 111.406 30.0312L 104.5 30.0312L 104.5 59.375L 98.6875 59.375ZM 122.781 59.375L 116.969 59.375L 116.969 25.5625L 122.781 25.5625L 122.781 59.375ZM 146.219 60C 141.635 60 137.906 58.5 135.031 55.5C 132.156 52.4792 130.719 48.4479 130.719 43.4062L 130.719 42.3438C 130.719 38.9896 131.354 36 132.625 33.375C 133.917 30.7292 135.708 28.6667 138 27.1875C 140.312 25.6875 142.812 24.9375 145.5 24.9375C 149.896 24.9375 153.312 26.3854 155.75 29.2812C 158.188 32.1771 159.406 36.3229 159.406 41.7188L 159.406 44.125L 136.5 44.125C 136.583 47.4583 137.552 50.1562 139.406 52.2188C 141.281 54.2604 143.656 55.2812 146.531 55.2812C 148.573 55.2812 150.302 54.8646 151.719 54.0312C 153.135 53.1979 154.375 52.0938 155.438 50.7188L 158.969 53.4688C 156.135 57.8229 151.885 60 146.219 60ZM 145.5 29.6875C 143.167 29.6875 141.208 30.5417 139.625 32.25C 138.042 33.9375 137.062 36.3125 136.688 39.375L 153.625 39.375L 153.625 38.9375C 153.458 36 152.667 33.7292 151.25 32.125C 149.833 30.5 147.917 29.6875 145.5 29.6875ZM 164.719 42.1875C 164.719 37 165.948 32.8333 168.406 29.6875C 170.865 26.5208 174.083 24.9375 178.062 24.9375C 182.021 24.9375 185.156 26.2917 187.469 29L 187.469 11.375L 193.25 11.375L 193.25 59.375L 187.938 59.375L 187.656 55.75C 185.344 58.5833 182.125 60 178 60C 174.083 60 170.885 58.3958 168.406 55.1875C 165.948 51.9792 164.719 47.7917 164.719 42.625L 164.719 42.1875ZM 170.5 42.8438C 170.5 46.6771 171.292 49.6771 172.875 51.8438C 174.458 54.0104 176.646 55.0938 179.438 55.0938C 183.104 55.0938 185.781 53.4479 187.469 50.1562L 187.469 34.625C 185.74 31.4375 183.083 29.8438 179.5 29.8438C 176.667 29.8438 174.458 30.9375 172.875 33.125C 171.292 35.3125 170.5 38.5521 170.5 42.8438ZM 225.062 54.4688L 246.625 54.4688L 246.625 59.375L 219.031 59.375L 219.031 13.875L 225.062 13.875L 225.062 54.4688ZM 281.781 59.375L 251.969 59.375L 251.969 55.2188L 267.719 37.7188C 270.052 35.0729 271.656 32.9271 272.531 31.2812C 273.427 29.6146 273.875 27.8958 273.875 26.125C 273.875 23.75 273.156 21.8021 271.719 20.2812C 270.281 18.7604 268.365 18 265.969 18C 263.094 18 260.854 18.8229 259.25 20.4688C 257.667 22.0938 256.875 24.3646 256.875 27.2812L 251.094 27.2812C 251.094 23.0938 252.438 19.7083 255.125 17.125C 257.833 14.5417 261.448 13.25 265.969 13.25C 270.198 13.25 273.542 14.3646 276 16.5938C 278.458 18.8021 279.688 21.75 279.688 25.4375C 279.688 29.9167 276.833 35.25 271.125 41.4375L 258.938 54.6562L 281.781 54.6562L 281.781 59.375ZM 338.75 44.9375C 338.188 49.75 336.406 53.4688 333.406 56.0938C 330.427 58.6979 326.458 60 321.5 60C 316.125 60 311.812 58.0729 308.562 54.2188C 305.333 50.3646 303.719 45.2083 303.719 38.75L 303.719 34.375C 303.719 30.1458 304.469 26.4271 305.969 23.2188C 307.49 20.0104 309.635 17.5521 312.406 15.8438C 315.177 14.1146 318.385 13.25 322.031 13.25C 326.865 13.25 330.74 14.6042 333.656 17.3125C 336.573 20 338.271 23.7292 338.75 28.5L 332.719 28.5C 332.198 24.875 331.062 22.25 329.312 20.625C 327.583 19 325.156 18.1875 322.031 18.1875C 318.198 18.1875 315.188 19.6042 313 22.4375C 310.833 25.2708 309.75 29.3021 309.75 34.5312L 309.75 38.9375C 309.75 43.875 310.781 47.8021 312.844 50.7188C 314.906 53.6354 317.792 55.0938 321.5 55.0938C 324.833 55.0938 327.385 54.3438 329.156 52.8438C 330.948 51.3229 332.135 48.6875 332.719 44.9375L 338.75 44.9375ZM 366.938 59.375C 366.604 58.7083 366.333 57.5208 366.125 55.8125C 363.438 58.6042 360.229 60 356.5 60C 353.167 60 350.427 59.0625 348.281 57.1875C 346.156 55.2917 345.094 52.8958 345.094 50C 345.094 46.4792 346.427 43.75 349.094 41.8125C 351.781 39.8542 355.552 38.875 360.406 38.875L 366.031 38.875L 366.031 36.2188C 366.031 34.1979 365.427 32.5938 364.219 31.4062C 363.01 30.1979 361.229 29.5938 358.875 29.5938C 356.812 29.5938 355.083 30.1146 353.688 31.1562C 352.292 32.1979 351.594 33.4583 351.594 34.9375L 345.781 34.9375C 345.781 33.25 346.375 31.625 347.562 30.0625C 348.771 28.4792 350.396 27.2292 352.438 26.3125C 354.5 25.3958 356.76 24.9375 359.219 24.9375C 363.115 24.9375 366.167 25.9167 368.375 27.875C 370.583 29.8125 371.729 32.4896 371.812 35.9062L 371.812 51.4688C 371.812 54.5729 372.208 57.0417 373 58.875L 373 59.375L 366.938 59.375ZM 357.344 54.9688C 359.156 54.9688 360.875 54.5 362.5 53.5625C 364.125 52.625 365.302 51.4062 366.031 49.9062L 366.031 42.9688L 361.5 42.9688C 354.417 42.9688 350.875 45.0417 350.875 49.1875C 350.875 51 351.479 52.4167 352.688 53.4375C 353.896 54.4583 355.448 54.9688 357.344 54.9688ZM 394.438 55.2812C 396.5 55.2812 398.302 54.6562 399.844 53.4062C 401.385 52.1562 402.24 50.5938 402.406 48.7188L 407.875 48.7188C 407.771 50.6562 407.104 52.5 405.875 54.25C 404.646 56 403 57.3958 400.938 58.4375C 398.896 59.4792 396.729 60 394.438 60C 389.833 60 386.167 58.4688 383.438 55.4062C 380.729 52.3229 379.375 48.1146 379.375 42.7812L 379.375 41.8125C 379.375 38.5208 379.979 35.5938 381.188 33.0312C 382.396 30.4688 384.125 28.4792 386.375 27.0625C 388.646 25.6458 391.323 24.9375 394.406 24.9375C 398.198 24.9375 401.344 26.0729 403.844 28.3438C 406.365 30.6146 407.708 33.5625 407.875 37.1875L 402.406 37.1875C 402.24 35 401.406 33.2083 399.906 31.8125C 398.427 30.3958 396.594 29.6875 394.406 29.6875C 391.469 29.6875 389.188 30.75 387.562 32.875C 385.958 34.9792 385.156 38.0312 385.156 42.0312L 385.156 43.125C 385.156 47.0208 385.958 50.0208 387.562 52.125C 389.167 54.2292 391.458 55.2812 394.438 55.2812ZM 420.156 29.6562C 422.719 26.5104 426.052 24.9375 430.156 24.9375C 437.302 24.9375 440.906 28.9688 440.969 37.0312L 440.969 59.375L 435.188 59.375L 435.188 37C 435.167 34.5625 434.604 32.7604 433.5 31.5938C 432.417 30.4271 430.719 29.8438 428.406 29.8438C 426.531 29.8438 424.885 30.3438 423.469 31.3438C 422.052 32.3438 420.948 33.6562 420.156 35.2812L 420.156 59.375L 414.375 59.375L 414.375 11.375L 420.156 11.375L 420.156 29.6562ZM 463.656 60C 459.073 60 455.344 58.5 452.469 55.5C 449.594 52.4792 448.156 48.4479 448.156 43.4062L 448.156 42.3438C 448.156 38.9896 448.792 36 450.062 33.375C 451.354 30.7292 453.146 28.6667 455.438 27.1875C 457.75 25.6875 460.25 24.9375 462.938 24.9375C 467.333 24.9375 470.75 26.3854 473.188 29.2812C 475.625 32.1771 476.844 36.3229 476.844 41.7188L 476.844 44.125L 453.938 44.125C 454.021 47.4583 454.99 50.1562 456.844 52.2188C 458.719 54.2604 461.094 55.2812 463.969 55.2812C 466.01 55.2812 467.74 54.8646 469.156 54.0312C 470.573 53.1979 471.812 52.0938 472.875 50.7188L 476.406 53.4688C 473.573 57.8229 469.323 60 463.656 60ZM 462.938 29.6875C 460.604 29.6875 458.646 30.5417 457.062 32.25C 455.479 33.9375 454.5 36.3125 454.125 39.375L 471.062 39.375L 471.062 38.9375C 470.896 36 470.104 33.7292 468.688 32.125C 467.271 30.5 465.354 29.6875 462.938 29.6875Z"/>
<path id="path13_stroke" d="M 0 0L 340 0L 340 -5L 0 -5L 0 0Z"/>
<path id="path14_stroke" d="M 0 0L 423 0L 423 -5L 0 -5L 0 0Z"/>
<path id="path15_stroke" d="M 0 0L 703 0L 703 -5L 0 -5L 0 0Z"/>
<path id="path16_stroke" d="M 0 0L 298 0L 298 -5L 0 -5L 0 0Z"/>
<path id="path17_fill" d="M 0 0L 2117 0L 2117 545L 0 545L 0 0Z"/>
<path id="path18_stroke_2x" d="M 0 0L 0 -10L -10 -10L -10 0L 0 0ZM 2117 0L 2127 0L 2127 -10L 2117 -10L 2117 0ZM 2117 545L 2117 555L 2127 555L 2127 545L 2117 545ZM 0 545L -10 545L -10 555L 0 555L 0 545ZM 0 10L 2117 10L 2117 -10L 0 -10L 0 10ZM 2107 0L 2107 545L 2127 545L 2127 0L 2107 0ZM 2117 535L 0 535L 0 555L 2117 555L 2117 535ZM 10 545L 10 0L -10 0L -10 545L 10 545Z"/>
<path id="path19_fill" d="M 13.0312 13.875L 27.9062 51L 42.7812 13.875L 50.5625 13.875L 50.5625 59.375L 44.5625 59.375L 44.5625 41.6562L 45.125 22.5312L 30.1875 59.375L 25.5938 59.375L 10.6875 22.625L 11.2812 41.6562L 11.2812 59.375L 5.28125 59.375L 5.28125 13.875L 13.0312 13.875ZM 81.125 59.375C 80.7917 58.7083 80.5208 57.5208 80.3125 55.8125C 77.625 58.6042 74.4167 60 70.6875 60C 67.3542 60 64.6146 59.0625 62.4688 57.1875C 60.3438 55.2917 59.2812 52.8958 59.2812 50C 59.2812 46.4792 60.6146 43.75 63.2812 41.8125C 65.9688 39.8542 69.7396 38.875 74.5938 38.875L 80.2188 38.875L 80.2188 36.2188C 80.2188 34.1979 79.6146 32.5938 78.4062 31.4062C 77.1979 30.1979 75.4167 29.5938 73.0625 29.5938C 71 29.5938 69.2708 30.1146 67.875 31.1562C 66.4792 32.1979 65.7812 33.4583 65.7812 34.9375L 59.9688 34.9375C 59.9688 33.25 60.5625 31.625 61.75 30.0625C 62.9583 28.4792 64.5833 27.2292 66.625 26.3125C 68.6875 25.3958 70.9479 24.9375 73.4062 24.9375C 77.3021 24.9375 80.3542 25.9167 82.5625 27.875C 84.7708 29.8125 85.9167 32.4896 86 35.9062L 86 51.4688C 86 54.5729 86.3958 57.0417 87.1875 58.875L 87.1875 59.375L 81.125 59.375ZM 71.5312 54.9688C 73.3438 54.9688 75.0625 54.5 76.6875 53.5625C 78.3125 52.625 79.4896 51.4062 80.2188 49.9062L 80.2188 42.9688L 75.6875 42.9688C 68.6042 42.9688 65.0625 45.0417 65.0625 49.1875C 65.0625 51 65.6667 52.4167 66.875 53.4375C 68.0833 54.4583 69.6354 54.9688 71.5312 54.9688ZM 101.344 59.375L 95.5625 59.375L 95.5625 25.5625L 101.344 25.5625L 101.344 59.375ZM 95.0938 16.5938C 95.0938 15.6562 95.375 14.8646 95.9375 14.2188C 96.5208 13.5729 97.375 13.25 98.5 13.25C 99.625 13.25 100.479 13.5729 101.062 14.2188C 101.646 14.8646 101.938 15.6562 101.938 16.5938C 101.938 17.5312 101.646 18.3125 101.062 18.9375C 100.479 19.5625 99.625 19.875 98.5 19.875C 97.375 19.875 96.5208 19.5625 95.9375 18.9375C 95.375 18.3125 95.0938 17.5312 95.0938 16.5938ZM 116.094 25.5625L 116.281 29.8125C 118.865 26.5625 122.24 24.9375 126.406 24.9375C 133.552 24.9375 137.156 28.9688 137.219 37.0312L 137.219 59.375L 131.438 59.375L 131.438 37C 131.417 34.5625 130.854 32.7604 129.75 31.5938C 128.667 30.4271 126.969 29.8438 124.656 29.8438C 122.781 29.8438 121.135 30.3438 119.719 31.3438C 118.302 32.3438 117.198 33.6562 116.406 35.2812L 116.406 59.375L 110.625 59.375L 110.625 25.5625L 116.094 25.5625ZM 170.469 13.875L 185.344 51L 200.219 13.875L 208 13.875L 208 59.375L 202 59.375L 202 41.6562L 202.562 22.5312L 187.625 59.375L 183.031 59.375L 168.125 22.625L 168.719 41.6562L 168.719 59.375L 162.719 59.375L 162.719 13.875L 170.469 13.875ZM 231.719 60C 227.135 60 223.406 58.5 220.531 55.5C 217.656 52.4792 216.219 48.4479 216.219 43.4062L 216.219 42.3438C 216.219 38.9896 216.854 36 218.125 33.375C 219.417 30.7292 221.208 28.6667 223.5 27.1875C 225.812 25.6875 228.312 24.9375 231 24.9375C 235.396 24.9375 238.812 26.3854 241.25 29.2812C 243.688 32.1771 244.906 36.3229 244.906 41.7188L 244.906 44.125L 222 44.125C 222.083 47.4583 223.052 50.1562 224.906 52.2188C 226.781 54.2604 229.156 55.2812 232.031 55.2812C 234.073 55.2812 235.802 54.8646 237.219 54.0312C 238.635 53.1979 239.875 52.0938 240.938 50.7188L 244.469 53.4688C 241.635 57.8229 237.385 60 231.719 60ZM 231 29.6875C 228.667 29.6875 226.708 30.5417 225.125 32.25C 223.542 33.9375 222.562 36.3125 222.188 39.375L 239.125 39.375L 239.125 38.9375C 238.958 36 238.167 33.7292 236.75 32.125C 235.333 30.5 233.417 29.6875 231 29.6875ZM 257.062 25.5625L 257.219 29.3125C 259.698 26.3958 263.042 24.9375 267.25 24.9375C 271.979 24.9375 275.198 26.75 276.906 30.375C 278.031 28.75 279.49 27.4375 281.281 26.4375C 283.094 25.4375 285.229 24.9375 287.688 24.9375C 295.104 24.9375 298.875 28.8646 299 36.7188L 299 59.375L 293.219 59.375L 293.219 37.0625C 293.219 34.6458 292.667 32.8438 291.562 31.6562C 290.458 30.4479 288.604 29.8438 286 29.8438C 283.854 29.8438 282.073 30.4896 280.656 31.7812C 279.24 33.0521 278.417 34.7708 278.188 36.9375L 278.188 59.375L 272.375 59.375L 272.375 37.2188C 272.375 32.3021 269.969 29.8438 265.156 29.8438C 261.365 29.8438 258.771 31.4583 257.375 34.6875L 257.375 59.375L 251.594 59.375L 251.594 25.5625L 257.062 25.5625ZM 306.219 42.1562C 306.219 38.8438 306.865 35.8646 308.156 33.2188C 309.469 30.5729 311.281 28.5312 313.594 27.0938C 315.927 25.6562 318.583 24.9375 321.562 24.9375C 326.167 24.9375 329.885 26.5312 332.719 29.7188C 335.573 32.9062 337 37.1458 337 42.4375L 337 42.8438C 337 46.1354 336.365 49.0938 335.094 51.7188C 333.844 54.3229 332.042 56.3542 329.688 57.8125C 327.354 59.2708 324.667 60 321.625 60C 317.042 60 313.323 58.4062 310.469 55.2188C 307.635 52.0312 306.219 47.8125 306.219 42.5625L 306.219 42.1562ZM 312.031 42.8438C 312.031 46.5938 312.896 49.6042 314.625 51.875C 316.375 54.1458 318.708 55.2812 321.625 55.2812C 324.562 55.2812 326.896 54.1354 328.625 51.8438C 330.354 49.5312 331.219 46.3021 331.219 42.1562C 331.219 38.4479 330.333 35.4479 328.562 33.1562C 326.812 30.8438 324.479 29.6875 321.562 29.6875C 318.708 29.6875 316.406 30.8229 314.656 33.0938C 312.906 35.3646 312.031 38.6146 312.031 42.8438ZM 360.594 30.75C 359.719 30.6042 358.771 30.5312 357.75 30.5312C 353.958 30.5312 351.385 32.1458 350.031 35.375L 350.031 59.375L 344.25 59.375L 344.25 25.5625L 349.875 25.5625L 349.969 29.4688C 351.865 26.4479 354.552 24.9375 358.031 24.9375C 359.156 24.9375 360.01 25.0833 360.594 25.375L 360.594 30.75ZM 377.562 50.9062L 385.438 25.5625L 391.625 25.5625L 378.031 64.5938C 375.927 70.2188 372.583 73.0312 368 73.0312L 366.906 72.9375L 364.75 72.5312L 364.75 67.8438L 366.312 67.9688C 368.271 67.9688 369.792 67.5729 370.875 66.7812C 371.979 65.9896 372.885 64.5417 373.594 62.4375L 374.875 59L 362.812 25.5625L 369.125 25.5625L 377.562 50.9062Z"/>
<path id="path20_stroke" d="M 0 0L 197 0L 197 -5L 0 -5L 0 0Z"/>
</defs>
</svg>
