<svg width="1862" height="2228" viewBox="0 0 1862 2228" version="1.1" xmlns="http://www.w3.org/2000/svg" xmlns:xlink="http://www.w3.org/1999/xlink" xmlns:figma="http://www.figma.com/figma/ns">
<title>L1 Instruction Cache State Diagram</title>
<desc>Created using Figma</desc>
<g id="Canvas" transform="translate(2067 1075)" figma:type="canvas">
<g id="StateMachine" style="mix-blend-mode:normal;" figma:type="frame">
<g id="Page-1" style="mix-blend-mode:normal;" figma:type="frame">
<g id="Group-4" style="mix-blend-mode:normal;" figma:type="frame">
<g id="Oval-8" style="mix-blend-mode:normal;" figma:type="vector">
<use xlink:href="#path0_stroke" transform="translate(-871 -1072)" fill="#979797" style="mix-blend-mode:normal;"/>
</g>
<g id="Oval-8-Copy-2" style="mix-blend-mode:normal;" figma:type="vector">
<use xlink:href="#path0_stroke" transform="translate(-871 435)" fill="#979797" style="mix-blend-mode:normal;"/>
</g>
<g id="Oval-8-Copy-3" style="mix-blend-mode:normal;" figma:type="vector">
<use xlink:href="#path0_stroke" transform="translate(-2064 -394)" fill="#979797" style="mix-blend-mode:normal;"/>
</g>
<g id="IDLE" style="mix-blend-mode:normal;" figma:type="text">
<use xlink:href="#path1_fill" transform="translate(-750.953 -940)" style="mix-blend-mode:normal;"/>
</g>
<g id="Allocate1" style="mix-blend-mode:normal;" figma:type="text">
<use xlink:href="#path2_fill" transform="translate(-832.656 567)" style="mix-blend-mode:normal;"/>
</g>
<g id="Allocate2" style="mix-blend-mode:normal;" figma:type="text">
<use xlink:href="#path3_fill" transform="translate(-2029.98 -262)" style="mix-blend-mode:normal;"/>
</g>
<g id="Line" style="mix-blend-mode:normal;" figma:type="vector">
<use xlink:href="#path4_stroke" transform="translate(-1760.5 -842.5)" fill="#979797" style="mix-blend-mode:normal;"/>
</g>
<g id="Line-decoration-1" style="mix-blend-mode:normal;" figma:type="vector">
<use xlink:href="#path5_stroke" transform="translate(-878.4 -842.5)" fill="#979797" style="mix-blend-mode:normal;"/>
</g>
<g id="mem_read == 1 and hit == 0" style="mix-blend-mode:normal;" figma:type="text">
<use xlink:href="#path6_fill" transform="translate(-631.43 -362)" style="mix-blend-mode:normal;"/>
</g>
<g id="Line" style="mix-blend-mode:normal;" figma:type="vector">
<use xlink:href="#path7_stroke" transform="translate(-1812.5 -52.5)" fill="#979797" style="mix-blend-mode:normal;"/>
</g>
<g id="Line-decoration-1" style="mix-blend-mode:normal;" figma:type="vector">
<use xlink:href="#path8_stroke" transform="translate(-1812.5 -52.5)" fill="#979797" style="mix-blend-mode:normal;"/>
</g>
<g id="Line" style="mix-blend-mode:normal;" figma:type="vector">
<use xlink:href="#path9_stroke" transform="translate(-675.667 -713.5)" fill="#979797" style="mix-blend-mode:normal;"/>
</g>
<g id="Line-decoration-1" style="mix-blend-mode:normal;" figma:type="vector">
<use xlink:href="#path10_stroke" transform="translate(-678.667 411.2)" fill="#979797" style="mix-blend-mode:normal;"/>
</g>
<g id="Line" style="mix-blend-mode:normal;" figma:type="vector">
<use xlink:href="#path11_stroke" transform="matrix(-1.83697e-16 1 -1 -1.83697e-16 -488.718 758.68)" fill="#979797" style="mix-blend-mode:normal;"/>
</g>
<g id="pmem resp-==-0" style="mix-blend-mode:normal;" figma:type="text">
<use xlink:href="#path12_fill" transform="translate(-920.875 1079.67)" style="mix-blend-mode:normal;"/>
</g>
<g id="pmem resp-==-1" style="mix-blend-mode:normal;" figma:type="text">
<use xlink:href="#path13_fill" transform="translate(-2029.55 156)" style="mix-blend-mode:normal;"/>
</g>
</g>
</g>
</g>
</g>
<defs>
<path id="path0_stroke" d="M 355.5 179C 355.5 276.478 276.478 355.5 179 355.5L 179 360.5C 279.24 360.5 360.5 279.24 360.5 179L 355.5 179ZM 179 355.5C 81.5217 355.5 2.5 276.478 2.5 179L -2.5 179C -2.5 279.24 78.7603 360.5 179 360.5L 179 355.5ZM 2.5 179C 2.5 81.5217 81.5217 2.5 179 2.5L 179 -2.5C 78.7603 -2.5 -2.5 78.7603 -2.5 179L 2.5 179ZM 179 2.5C 276.478 2.5 355.5 81.5217 355.5 179L 360.5 179C 360.5 78.7603 279.24 -2.5 179 -2.5L 179 2.5Z"/>
<path id="path1_fill" d="M 11.7188 59.375L 5.71875 59.375L 5.71875 13.875L 11.7188 13.875L 11.7188 59.375ZM 22.7188 59.375L 22.7188 13.875L 35.5625 13.875C 39.5208 13.875 43.0208 14.75 46.0625 16.5C 49.1042 18.25 51.4479 20.7396 53.0938 23.9688C 54.7604 27.1979 55.6042 30.9062 55.625 35.0938L 55.625 38C 55.625 42.2917 54.7917 46.0521 53.125 49.2812C 51.4792 52.5104 49.1146 54.9896 46.0312 56.7188C 42.9688 58.4479 39.3958 59.3333 35.3125 59.375L 22.7188 59.375ZM 28.7188 18.8125L 28.7188 54.4688L 35.0312 54.4688C 39.6562 54.4688 43.25 53.0312 45.8125 50.1562C 48.3958 47.2812 49.6875 43.1875 49.6875 37.875L 49.6875 35.2188C 49.6875 30.0521 48.4688 26.0417 46.0312 23.1875C 43.6146 20.3125 40.1771 18.8542 35.7188 18.8125L 28.7188 18.8125ZM 70.75 54.4688L 92.3125 54.4688L 92.3125 59.375L 64.7188 59.375L 64.7188 13.875L 70.75 13.875L 70.75 54.4688ZM 124.875 38.3438L 105.156 38.3438L 105.156 54.4688L 128.062 54.4688L 128.062 59.375L 99.1562 59.375L 99.1562 13.875L 127.75 13.875L 127.75 18.8125L 105.156 18.8125L 105.156 33.4375L 124.875 33.4375L 124.875 38.3438Z"/>
<path id="path2_fill" d="M 30.4062 47.5L 11.3438 47.5L 7.0625 59.375L 0.875 59.375L 18.25 13.875L 23.5 13.875L 40.9062 59.375L 34.75 59.375L 30.4062 47.5ZM 13.1562 42.5625L 28.625 42.5625L 20.875 21.2812L 13.1562 42.5625ZM 52.4062 59.375L 46.625 59.375L 46.625 11.375L 52.4062 11.375L 52.4062 59.375ZM 67.9688 59.375L 62.1875 59.375L 62.1875 11.375L 67.9688 11.375L 67.9688 59.375ZM 75.7188 42.1562C 75.7188 38.8438 76.3646 35.8646 77.6562 33.2188C 78.9688 30.5729 80.7812 28.5312 83.0938 27.0938C 85.4271 25.6562 88.0833 24.9375 91.0625 24.9375C 95.6667 24.9375 99.3854 26.5312 102.219 29.7188C 105.073 32.9062 106.5 37.1458 106.5 42.4375L 106.5 42.8438C 106.5 46.1354 105.865 49.0938 104.594 51.7188C 103.344 54.3229 101.542 56.3542 99.1875 57.8125C 96.8542 59.2708 94.1667 60 91.125 60C 86.5417 60 82.8229 58.4062 79.9688 55.2188C 77.1354 52.0312 75.7188 47.8125 75.7188 42.5625L 75.7188 42.1562ZM 81.5312 42.8438C 81.5312 46.5938 82.3958 49.6042 84.125 51.875C 85.875 54.1458 88.2083 55.2812 91.125 55.2812C 94.0625 55.2812 96.3958 54.1354 98.125 51.8438C 99.8542 49.5312 100.719 46.3021 100.719 42.1562C 100.719 38.4479 99.8333 35.4479 98.0625 33.1562C 96.3125 30.8438 93.9792 29.6875 91.0625 29.6875C 88.2083 29.6875 85.9062 30.8229 84.1562 33.0938C 82.4062 35.3646 81.5312 38.6146 81.5312 42.8438ZM 127.312 55.2812C 129.375 55.2812 131.177 54.6562 132.719 53.4062C 134.26 52.1562 135.115 50.5938 135.281 48.7188L 140.75 48.7188C 140.646 50.6562 139.979 52.5 138.75 54.25C 137.521 56 135.875 57.3958 133.812 58.4375C 131.771 59.4792 129.604 60 127.312 60C 122.708 60 119.042 58.4688 116.312 55.4062C 113.604 52.3229 112.25 48.1146 112.25 42.7812L 112.25 41.8125C 112.25 38.5208 112.854 35.5938 114.062 33.0312C 115.271 30.4688 117 28.4792 119.25 27.0625C 121.521 25.6458 124.198 24.9375 127.281 24.9375C 131.073 24.9375 134.219 26.0729 136.719 28.3438C 139.24 30.6146 140.583 33.5625 140.75 37.1875L 135.281 37.1875C 135.115 35 134.281 33.2083 132.781 31.8125C 131.302 30.3958 129.469 29.6875 127.281 29.6875C 124.344 29.6875 122.062 30.75 120.438 32.875C 118.833 34.9792 118.031 38.0312 118.031 42.0312L 118.031 43.125C 118.031 47.0208 118.833 50.0208 120.438 52.125C 122.042 54.2292 124.333 55.2812 127.312 55.2812ZM 168.125 59.375C 167.792 58.7083 167.521 57.5208 167.312 55.8125C 164.625 58.6042 161.417 60 157.688 60C 154.354 60 151.615 59.0625 149.469 57.1875C 147.344 55.2917 146.281 52.8958 146.281 50C 146.281 46.4792 147.615 43.75 150.281 41.8125C 152.969 39.8542 156.74 38.875 161.594 38.875L 167.219 38.875L 167.219 36.2188C 167.219 34.1979 166.615 32.5938 165.406 31.4062C 164.198 30.1979 162.417 29.5938 160.062 29.5938C 158 29.5938 156.271 30.1146 154.875 31.1562C 153.479 32.1979 152.781 33.4583 152.781 34.9375L 146.969 34.9375C 146.969 33.25 147.562 31.625 148.75 30.0625C 149.958 28.4792 151.583 27.2292 153.625 26.3125C 155.688 25.3958 157.948 24.9375 160.406 24.9375C 164.302 24.9375 167.354 25.9167 169.562 27.875C 171.771 29.8125 172.917 32.4896 173 35.9062L 173 51.4688C 173 54.5729 173.396 57.0417 174.188 58.875L 174.188 59.375L 168.125 59.375ZM 158.531 54.9688C 160.344 54.9688 162.062 54.5 163.688 53.5625C 165.312 52.625 166.49 51.4062 167.219 49.9062L 167.219 42.9688L 162.688 42.9688C 155.604 42.9688 152.062 45.0417 152.062 49.1875C 152.062 51 152.667 52.4167 153.875 53.4375C 155.083 54.4583 156.635 54.9688 158.531 54.9688ZM 189.906 17.375L 189.906 25.5625L 196.219 25.5625L 196.219 30.0312L 189.906 30.0312L 189.906 51C 189.906 52.3542 190.188 53.375 190.75 54.0625C 191.312 54.7292 192.271 55.0625 193.625 55.0625C 194.292 55.0625 195.208 54.9375 196.375 54.6875L 196.375 59.375C 194.854 59.7917 193.375 60 191.938 60C 189.354 60 187.406 59.2188 186.094 57.6562C 184.781 56.0938 184.125 53.875 184.125 51L 184.125 30.0312L 177.969 30.0312L 177.969 25.5625L 184.125 25.5625L 184.125 17.375L 189.906 17.375ZM 217.031 60C 212.448 60 208.719 58.5 205.844 55.5C 202.969 52.4792 201.531 48.4479 201.531 43.4062L 201.531 42.3438C 201.531 38.9896 202.167 36 203.438 33.375C 204.729 30.7292 206.521 28.6667 208.812 27.1875C 211.125 25.6875 213.625 24.9375 216.312 24.9375C 220.708 24.9375 224.125 26.3854 226.562 29.2812C 229 32.1771 230.219 36.3229 230.219 41.7188L 230.219 44.125L 207.312 44.125C 207.396 47.4583 208.365 50.1562 210.219 52.2188C 212.094 54.2604 214.469 55.2812 217.344 55.2812C 219.385 55.2812 221.115 54.8646 222.531 54.0312C 223.948 53.1979 225.188 52.0938 226.25 50.7188L 229.781 53.4688C 226.948 57.8229 222.698 60 217.031 60ZM 216.312 29.6875C 213.979 29.6875 212.021 30.5417 210.438 32.25C 208.854 33.9375 207.875 36.3125 207.5 39.375L 224.438 39.375L 224.438 38.9375C 224.271 36 223.479 33.7292 222.062 32.125C 220.646 30.5 218.729 29.6875 216.312 29.6875ZM 255.344 59.375L 249.531 59.375L 249.531 20.8438L 237.875 25.125L 237.875 19.875L 254.438 13.6562L 255.344 13.6562L 255.344 59.375Z"/>
<path id="path3_fill" d="M 30.4062 47.5L 11.3438 47.5L 7.0625 59.375L 0.875 59.375L 18.25 13.875L 23.5 13.875L 40.9062 59.375L 34.75 59.375L 30.4062 47.5ZM 13.1562 42.5625L 28.625 42.5625L 20.875 21.2812L 13.1562 42.5625ZM 52.4062 59.375L 46.625 59.375L 46.625 11.375L 52.4062 11.375L 52.4062 59.375ZM 67.9688 59.375L 62.1875 59.375L 62.1875 11.375L 67.9688 11.375L 67.9688 59.375ZM 75.7188 42.1562C 75.7188 38.8438 76.3646 35.8646 77.6562 33.2188C 78.9688 30.5729 80.7812 28.5312 83.0938 27.0938C 85.4271 25.6562 88.0833 24.9375 91.0625 24.9375C 95.6667 24.9375 99.3854 26.5312 102.219 29.7188C 105.073 32.9062 106.5 37.1458 106.5 42.4375L 106.5 42.8438C 106.5 46.1354 105.865 49.0938 104.594 51.7188C 103.344 54.3229 101.542 56.3542 99.1875 57.8125C 96.8542 59.2708 94.1667 60 91.125 60C 86.5417 60 82.8229 58.4062 79.9688 55.2188C 77.1354 52.0312 75.7188 47.8125 75.7188 42.5625L 75.7188 42.1562ZM 81.5312 42.8438C 81.5312 46.5938 82.3958 49.6042 84.125 51.875C 85.875 54.1458 88.2083 55.2812 91.125 55.2812C 94.0625 55.2812 96.3958 54.1354 98.125 51.8438C 99.8542 49.5312 100.719 46.3021 100.719 42.1562C 100.719 38.4479 99.8333 35.4479 98.0625 33.1562C 96.3125 30.8438 93.9792 29.6875 91.0625 29.6875C 88.2083 29.6875 85.9062 30.8229 84.1562 33.0938C 82.4062 35.3646 81.5312 38.6146 81.5312 42.8438ZM 127.312 55.2812C 129.375 55.2812 131.177 54.6562 132.719 53.4062C 134.26 52.1562 135.115 50.5938 135.281 48.7188L 140.75 48.7188C 140.646 50.6562 139.979 52.5 138.75 54.25C 137.521 56 135.875 57.3958 133.812 58.4375C 131.771 59.4792 129.604 60 127.312 60C 122.708 60 119.042 58.4688 116.312 55.4062C 113.604 52.3229 112.25 48.1146 112.25 42.7812L 112.25 41.8125C 112.25 38.5208 112.854 35.5938 114.062 33.0312C 115.271 30.4688 117 28.4792 119.25 27.0625C 121.521 25.6458 124.198 24.9375 127.281 24.9375C 131.073 24.9375 134.219 26.0729 136.719 28.3438C 139.24 30.6146 140.583 33.5625 140.75 37.1875L 135.281 37.1875C 135.115 35 134.281 33.2083 132.781 31.8125C 131.302 30.3958 129.469 29.6875 127.281 29.6875C 124.344 29.6875 122.062 30.75 120.438 32.875C 118.833 34.9792 118.031 38.0312 118.031 42.0312L 118.031 43.125C 118.031 47.0208 118.833 50.0208 120.438 52.125C 122.042 54.2292 124.333 55.2812 127.312 55.2812ZM 168.125 59.375C 167.792 58.7083 167.521 57.5208 167.312 55.8125C 164.625 58.6042 161.417 60 157.688 60C 154.354 60 151.615 59.0625 149.469 57.1875C 147.344 55.2917 146.281 52.8958 146.281 50C 146.281 46.4792 147.615 43.75 150.281 41.8125C 152.969 39.8542 156.74 38.875 161.594 38.875L 167.219 38.875L 167.219 36.2188C 167.219 34.1979 166.615 32.5938 165.406 31.4062C 164.198 30.1979 162.417 29.5938 160.062 29.5938C 158 29.5938 156.271 30.1146 154.875 31.1562C 153.479 32.1979 152.781 33.4583 152.781 34.9375L 146.969 34.9375C 146.969 33.25 147.562 31.625 148.75 30.0625C 149.958 28.4792 151.583 27.2292 153.625 26.3125C 155.688 25.3958 157.948 24.9375 160.406 24.9375C 164.302 24.9375 167.354 25.9167 169.562 27.875C 171.771 29.8125 172.917 32.4896 173 35.9062L 173 51.4688C 173 54.5729 173.396 57.0417 174.188 58.875L 174.188 59.375L 168.125 59.375ZM 158.531 54.9688C 160.344 54.9688 162.062 54.5 163.688 53.5625C 165.312 52.625 166.49 51.4062 167.219 49.9062L 167.219 42.9688L 162.688 42.9688C 155.604 42.9688 152.062 45.0417 152.062 49.1875C 152.062 51 152.667 52.4167 153.875 53.4375C 155.083 54.4583 156.635 54.9688 158.531 54.9688ZM 189.906 17.375L 189.906 25.5625L 196.219 25.5625L 196.219 30.0312L 189.906 30.0312L 189.906 51C 189.906 52.3542 190.188 53.375 190.75 54.0625C 191.312 54.7292 192.271 55.0625 193.625 55.0625C 194.292 55.0625 195.208 54.9375 196.375 54.6875L 196.375 59.375C 194.854 59.7917 193.375 60 191.938 60C 189.354 60 187.406 59.2188 186.094 57.6562C 184.781 56.0938 184.125 53.875 184.125 51L 184.125 30.0312L 177.969 30.0312L 177.969 25.5625L 184.125 25.5625L 184.125 17.375L 189.906 17.375ZM 217.031 60C 212.448 60 208.719 58.5 205.844 55.5C 202.969 52.4792 201.531 48.4479 201.531 43.4062L 201.531 42.3438C 201.531 38.9896 202.167 36 203.438 33.375C 204.729 30.7292 206.521 28.6667 208.812 27.1875C 211.125 25.6875 213.625 24.9375 216.312 24.9375C 220.708 24.9375 224.125 26.3854 226.562 29.2812C 229 32.1771 230.219 36.3229 230.219 41.7188L 230.219 44.125L 207.312 44.125C 207.396 47.4583 208.365 50.1562 210.219 52.2188C 212.094 54.2604 214.469 55.2812 217.344 55.2812C 219.385 55.2812 221.115 54.8646 222.531 54.0312C 223.948 53.1979 225.188 52.0938 226.25 50.7188L 229.781 53.4688C 226.948 57.8229 222.698 60 217.031 60ZM 216.312 29.6875C 213.979 29.6875 212.021 30.5417 210.438 32.25C 208.854 33.9375 207.875 36.3125 207.5 39.375L 224.438 39.375L 224.438 38.9375C 224.271 36 223.479 33.7292 222.062 32.125C 220.646 30.5 218.729 29.6875 216.312 29.6875ZM 266.156 59.375L 236.344 59.375L 236.344 55.2188L 252.094 37.7188C 254.427 35.0729 256.031 32.9271 256.906 31.2812C 257.802 29.6146 258.25 27.8958 258.25 26.125C 258.25 23.75 257.531 21.8021 256.094 20.2812C 254.656 18.7604 252.74 18 250.344 18C 247.469 18 245.229 18.8229 243.625 20.4688C 242.042 22.0938 241.25 24.3646 241.25 27.2812L 235.469 27.2812C 235.469 23.0938 236.812 19.7083 239.5 17.125C 242.208 14.5417 245.823 13.25 250.344 13.25C 254.573 13.25 257.917 14.3646 260.375 16.5938C 262.833 18.8021 264.062 21.75 264.062 25.4375C 264.062 29.9167 261.208 35.25 255.5 41.4375L 243.312 54.6562L 266.156 54.6562L 266.156 59.375Z"/>
<path id="path4_stroke" d="M -5.81773 484.505L -16.3132 490.322L -4.67769 511.313L 5.81773 505.495L -5.81773 484.505ZM 898.818 10.4954L 909.313 4.67769L 897.678 -16.3132L 887.182 -10.4954L 898.818 10.4954ZM 5.81773 505.495L 898.818 10.4954L 887.182 -10.4954L -5.81773 484.505L 5.81773 505.495Z"/>
<path id="path5_stroke" d="M -9.01171 -4.26041L -21.1319 7.66017L 2.70922 31.9006L 14.8294 19.98L -9.01171 -4.26041ZM 10.9003 0L 22.8209 12.1202L 66.4538 -30.794L 6.93866 -16.5319L 10.9003 0ZM -3.96161 -13.9198L -20.4936 -9.95818L -12.5702 23.1057L 3.96172 19.1441L -3.96161 -13.9198ZM 14.8294 19.98L 22.8209 12.1202L -1.02026 -12.1202L -9.01171 -4.26041L 14.8294 19.98ZM 6.93866 -16.5319L -3.96161 -13.9198L 3.96172 19.1441L 14.862 16.5319L 6.93866 -16.5319Z"/>
<path id="path6_fill" d="M 9.8125 25.5625L 9.96875 29.3125C 12.4479 26.3958 15.7917 24.9375 20 24.9375C 24.7292 24.9375 27.9479 26.75 29.6562 30.375C 30.7812 28.75 32.2396 27.4375 34.0312 26.4375C 35.8438 25.4375 37.9792 24.9375 40.4375 24.9375C 47.8542 24.9375 51.625 28.8646 51.75 36.7188L 51.75 59.375L 45.9688 59.375L 45.9688 37.0625C 45.9688 34.6458 45.4167 32.8438 44.3125 31.6562C 43.2083 30.4479 41.3542 29.8438 38.75 29.8438C 36.6042 29.8438 34.8229 30.4896 33.4062 31.7812C 31.9896 33.0521 31.1667 34.7708 30.9375 36.9375L 30.9375 59.375L 25.125 59.375L 25.125 37.2188C 25.125 32.3021 22.7188 29.8438 17.9062 29.8438C 14.1146 29.8438 11.5208 31.4583 10.125 34.6875L 10.125 59.375L 4.34375 59.375L 4.34375 25.5625L 9.8125 25.5625ZM 74.5312 60C 69.9479 60 66.2188 58.5 63.3438 55.5C 60.4688 52.4792 59.0312 48.4479 59.0312 43.4062L 59.0312 42.3438C 59.0312 38.9896 59.6667 36 60.9375 33.375C 62.2292 30.7292 64.0208 28.6667 66.3125 27.1875C 68.625 25.6875 71.125 24.9375 73.8125 24.9375C 78.2083 24.9375 81.625 26.3854 84.0625 29.2812C 86.5 32.1771 87.7188 36.3229 87.7188 41.7188L 87.7188 44.125L 64.8125 44.125C 64.8958 47.4583 65.8646 50.1562 67.7188 52.2188C 69.5938 54.2604 71.9688 55.2812 74.8438 55.2812C 76.8854 55.2812 78.6146 54.8646 80.0312 54.0312C 81.4479 53.1979 82.6875 52.0938 83.75 50.7188L 87.2812 53.4688C 84.4479 57.8229 80.1979 60 74.5312 60ZM 73.8125 29.6875C 71.4792 29.6875 69.5208 30.5417 67.9375 32.25C 66.3542 33.9375 65.375 36.3125 65 39.375L 81.9375 39.375L 81.9375 38.9375C 81.7708 36 80.9792 33.7292 79.5625 32.125C 78.1458 30.5 76.2292 29.6875 73.8125 29.6875ZM 99.875 25.5625L 100.031 29.3125C 102.51 26.3958 105.854 24.9375 110.062 24.9375C 114.792 24.9375 118.01 26.75 119.719 30.375C 120.844 28.75 122.302 27.4375 124.094 26.4375C 125.906 25.4375 128.042 24.9375 130.5 24.9375C 137.917 24.9375 141.688 28.8646 141.812 36.7188L 141.812 59.375L 136.031 59.375L 136.031 37.0625C 136.031 34.6458 135.479 32.8438 134.375 31.6562C 133.271 30.4479 131.417 29.8438 128.812 29.8438C 126.667 29.8438 124.885 30.4896 123.469 31.7812C 122.052 33.0521 121.229 34.7708 121 36.9375L 121 59.375L 115.188 59.375L 115.188 37.2188C 115.188 32.3021 112.781 29.8438 107.969 29.8438C 104.177 29.8438 101.583 31.4583 100.188 34.6875L 100.188 59.375L 94.4062 59.375L 94.4062 25.5625L 99.875 25.5625ZM 174.938 64.0938L 146.312 64.0938L 146.312 59.375L 174.938 59.375L 174.938 64.0938ZM 195.781 30.75C 194.906 30.6042 193.958 30.5312 192.938 30.5312C 189.146 30.5312 186.573 32.1458 185.219 35.375L 185.219 59.375L 179.438 59.375L 179.438 25.5625L 185.062 25.5625L 185.156 29.4688C 187.052 26.4479 189.74 24.9375 193.219 24.9375C 194.344 24.9375 195.198 25.0833 195.781 25.375L 195.781 30.75ZM 214.594 60C 210.01 60 206.281 58.5 203.406 55.5C 200.531 52.4792 199.094 48.4479 199.094 43.4062L 199.094 42.3438C 199.094 38.9896 199.729 36 201 33.375C 202.292 30.7292 204.083 28.6667 206.375 27.1875C 208.688 25.6875 211.188 24.9375 213.875 24.9375C 218.271 24.9375 221.688 26.3854 224.125 29.2812C 226.562 32.1771 227.781 36.3229 227.781 41.7188L 227.781 44.125L 204.875 44.125C 204.958 47.4583 205.927 50.1562 207.781 52.2188C 209.656 54.2604 212.031 55.2812 214.906 55.2812C 216.948 55.2812 218.677 54.8646 220.094 54.0312C 221.51 53.1979 222.75 52.0938 223.812 50.7188L 227.344 53.4688C 224.51 57.8229 220.26 60 214.594 60ZM 213.875 29.6875C 211.542 29.6875 209.583 30.5417 208 32.25C 206.417 33.9375 205.438 36.3125 205.062 39.375L 222 39.375L 222 38.9375C 221.833 36 221.042 33.7292 219.625 32.125C 218.208 30.5 216.292 29.6875 213.875 29.6875ZM 255.375 59.375C 255.042 58.7083 254.771 57.5208 254.562 55.8125C 251.875 58.6042 248.667 60 244.938 60C 241.604 60 238.865 59.0625 236.719 57.1875C 234.594 55.2917 233.531 52.8958 233.531 50C 233.531 46.4792 234.865 43.75 237.531 41.8125C 240.219 39.8542 243.99 38.875 248.844 38.875L 254.469 38.875L 254.469 36.2188C 254.469 34.1979 253.865 32.5938 252.656 31.4062C 251.448 30.1979 249.667 29.5938 247.312 29.5938C 245.25 29.5938 243.521 30.1146 242.125 31.1562C 240.729 32.1979 240.031 33.4583 240.031 34.9375L 234.219 34.9375C 234.219 33.25 234.812 31.625 236 30.0625C 237.208 28.4792 238.833 27.2292 240.875 26.3125C 242.938 25.3958 245.198 24.9375 247.656 24.9375C 251.552 24.9375 254.604 25.9167 256.812 27.875C 259.021 29.8125 260.167 32.4896 260.25 35.9062L 260.25 51.4688C 260.25 54.5729 260.646 57.0417 261.438 58.875L 261.438 59.375L 255.375 59.375ZM 245.781 54.9688C 247.594 54.9688 249.312 54.5 250.938 53.5625C 252.562 52.625 253.74 51.4062 254.469 49.9062L 254.469 42.9688L 249.938 42.9688C 242.854 42.9688 239.312 45.0417 239.312 49.1875C 239.312 51 239.917 52.4167 241.125 53.4375C 242.333 54.4583 243.885 54.9688 245.781 54.9688ZM 267.906 42.1875C 267.906 37 269.135 32.8333 271.594 29.6875C 274.052 26.5208 277.271 24.9375 281.25 24.9375C 285.208 24.9375 288.344 26.2917 290.656 29L 290.656 11.375L 296.438 11.375L 296.438 59.375L 291.125 59.375L 290.844 55.75C 288.531 58.5833 285.312 60 281.188 60C 277.271 60 274.073 58.3958 271.594 55.1875C 269.135 51.9792 267.906 47.7917 267.906 42.625L 267.906 42.1875ZM 273.688 42.8438C 273.688 46.6771 274.479 49.6771 276.062 51.8438C 277.646 54.0104 279.833 55.0938 282.625 55.0938C 286.292 55.0938 288.969 53.4479 290.656 50.1562L 290.656 34.625C 288.927 31.4375 286.271 29.8438 282.688 29.8438C 279.854 29.8438 277.646 30.9375 276.062 33.125C 274.479 35.3125 273.688 38.5521 273.688 42.8438ZM 347.75 33.9375L 321.688 33.9375L 321.688 28.9062L 347.75 28.9062L 347.75 33.9375ZM 347.75 46.9062L 321.688 46.9062L 321.688 41.9062L 347.75 41.9062L 347.75 46.9062ZM 382.875 33.9375L 356.812 33.9375L 356.812 28.9062L 382.875 28.9062L 382.875 33.9375ZM 382.875 46.9062L 356.812 46.9062L 356.812 41.9062L 382.875 41.9062L 382.875 46.9062ZM 425.844 59.375L 420.031 59.375L 420.031 20.8438L 408.375 25.125L 408.375 19.875L 424.938 13.6562L 425.844 13.6562L 425.844 59.375ZM 25.25 134.375C 24.9167 133.708 24.6458 132.521 24.4375 130.812C 21.75 133.604 18.5417 135 14.8125 135C 11.4792 135 8.73958 134.062 6.59375 132.188C 4.46875 130.292 3.40625 127.896 3.40625 125C 3.40625 121.479 4.73958 118.75 7.40625 116.812C 10.0938 114.854 13.8646 113.875 18.7188 113.875L 24.3438 113.875L 24.3438 111.219C 24.3438 109.198 23.7396 107.594 22.5312 106.406C 21.3229 105.198 19.5417 104.594 17.1875 104.594C 15.125 104.594 13.3958 105.115 12 106.156C 10.6042 107.198 9.90625 108.458 9.90625 109.938L 4.09375 109.938C 4.09375 108.25 4.6875 106.625 5.875 105.062C 7.08333 103.479 8.70833 102.229 10.75 101.312C 12.8125 100.396 15.0729 99.9375 17.5312 99.9375C 21.4271 99.9375 24.4792 100.917 26.6875 102.875C 28.8958 104.812 30.0417 107.49 30.125 110.906L 30.125 126.469C 30.125 129.573 30.5208 132.042 31.3125 133.875L 31.3125 134.375L 25.25 134.375ZM 15.6562 129.969C 17.4688 129.969 19.1875 129.5 20.8125 128.562C 22.4375 127.625 23.6146 126.406 24.3438 124.906L 24.3438 117.969L 19.8125 117.969C 12.7292 117.969 9.1875 120.042 9.1875 124.188C 9.1875 126 9.79167 127.417 11 128.438C 12.2083 129.458 13.7604 129.969 15.6562 129.969ZM 44.6562 100.562L 44.8438 104.812C 47.4271 101.562 50.8021 99.9375 54.9688 99.9375C 62.1146 99.9375 65.7188 103.969 65.7812 112.031L 65.7812 134.375L 60 134.375L 60 112C 59.9792 109.562 59.4167 107.76 58.3125 106.594C 57.2292 105.427 55.5312 104.844 53.2188 104.844C 51.3438 104.844 49.6979 105.344 48.2812 106.344C 46.8646 107.344 45.7604 108.656 44.9688 110.281L 44.9688 134.375L 39.1875 134.375L 39.1875 100.562L 44.6562 100.562ZM 73.0938 117.188C 73.0938 112 74.3229 107.833 76.7812 104.688C 79.2396 101.521 82.4583 99.9375 86.4375 99.9375C 90.3958 99.9375 93.5312 101.292 95.8438 104L 95.8438 86.375L 101.625 86.375L 101.625 134.375L 96.3125 134.375L 96.0312 130.75C 93.7188 133.583 90.5 135 86.375 135C 82.4583 135 79.2604 133.396 76.7812 130.188C 74.3229 126.979 73.0938 122.792 73.0938 117.625L 73.0938 117.188ZM 78.875 117.844C 78.875 121.677 79.6667 124.677 81.25 126.844C 82.8333 129.01 85.0208 130.094 87.8125 130.094C 91.4792 130.094 94.1562 128.448 95.8438 125.156L 95.8438 109.625C 94.1146 106.438 91.4583 104.844 87.875 104.844C 85.0417 104.844 82.8333 105.938 81.25 108.125C 79.6667 110.312 78.875 113.552 78.875 117.844ZM 132.281 104.656C 134.844 101.51 138.177 99.9375 142.281 99.9375C 149.427 99.9375 153.031 103.969 153.094 112.031L 153.094 134.375L 147.312 134.375L 147.312 112C 147.292 109.562 146.729 107.76 145.625 106.594C 144.542 105.427 142.844 104.844 140.531 104.844C 138.656 104.844 137.01 105.344 135.594 106.344C 134.177 107.344 133.073 108.656 132.281 110.281L 132.281 134.375L 126.5 134.375L 126.5 86.375L 132.281 86.375L 132.281 104.656ZM 168.031 134.375L 162.25 134.375L 162.25 100.562L 168.031 100.562L 168.031 134.375ZM 161.781 91.5938C 161.781 90.6562 162.062 89.8646 162.625 89.2188C 163.208 88.5729 164.062 88.25 165.188 88.25C 166.312 88.25 167.167 88.5729 167.75 89.2188C 168.333 89.8646 168.625 90.6562 168.625 91.5938C 168.625 92.5312 168.333 93.3125 167.75 93.9375C 167.167 94.5625 166.312 94.875 165.188 94.875C 164.062 94.875 163.208 94.5625 162.625 93.9375C 162.062 93.3125 161.781 92.5312 161.781 91.5938ZM 185.156 92.375L 185.156 100.562L 191.469 100.562L 191.469 105.031L 185.156 105.031L 185.156 126C 185.156 127.354 185.438 128.375 186 129.062C 186.562 129.729 187.521 130.062 188.875 130.062C 189.542 130.062 190.458 129.938 191.625 129.688L 191.625 134.375C 190.104 134.792 188.625 135 187.188 135C 184.604 135 182.656 134.219 181.344 132.656C 180.031 131.094 179.375 128.875 179.375 126L 179.375 105.031L 173.219 105.031L 173.219 100.562L 179.375 100.562L 179.375 92.375L 185.156 92.375ZM 240.562 108.938L 214.5 108.938L 214.5 103.906L 240.562 103.906L 240.562 108.938ZM 240.562 121.906L 214.5 121.906L 214.5 116.906L 240.562 116.906L 240.562 121.906ZM 275.688 108.938L 249.625 108.938L 249.625 103.906L 275.688 103.906L 275.688 108.938ZM 275.688 121.906L 249.625 121.906L 249.625 116.906L 275.688 116.906L 275.688 121.906ZM 328.188 114.969C 328.188 121.74 327.031 126.771 324.719 130.062C 322.406 133.354 318.792 135 313.875 135C 309.021 135 305.427 133.396 303.094 130.188C 300.76 126.958 299.552 122.146 299.469 115.75L 299.469 108.031C 299.469 101.344 300.625 96.375 302.938 93.125C 305.25 89.875 308.875 88.25 313.812 88.25C 318.708 88.25 322.312 89.8229 324.625 92.9688C 326.938 96.0938 328.125 100.927 328.188 107.469L 328.188 114.969ZM 322.406 107.062C 322.406 102.167 321.719 98.6042 320.344 96.375C 318.969 94.125 316.792 93 313.812 93C 310.854 93 308.698 94.1146 307.344 96.3438C 305.99 98.5729 305.292 102 305.25 106.625L 305.25 115.875C 305.25 120.792 305.958 124.427 307.375 126.781C 308.812 129.115 310.979 130.281 313.875 130.281C 316.729 130.281 318.844 129.177 320.219 126.969C 321.615 124.76 322.344 121.281 322.406 116.531L 322.406 107.062Z"/>
<path id="path7_stroke" d="M 942.496 622.085L 952.581 628.588L 965.588 608.419L 955.504 601.915L 942.496 622.085ZM 6.50359 -10.0848L -3.58122 -16.5884L -16.5884 3.58122L -6.50359 10.0848L 6.50359 -10.0848ZM 955.504 601.915L 6.50359 -10.0848L -6.50359 10.0848L 942.496 622.085L 955.504 601.915Z"/>
<path id="path8_stroke" d="M 5.64868 19.5635L 21.8802 24.6171L 31.9872 -7.84595L 15.7557 -12.8995L 5.64868 19.5635ZM 0 0L 5.05353 -16.2315L -53.3803 -34.4243L -12.701 11.2997L 0 0ZM -5.25059 19.6741L 6.04913 32.3751L 31.4512 9.7757L 20.1515 -2.92533L -5.25059 19.6741ZM 15.7557 -12.8995L 5.05353 -16.2315L -5.05353 16.2315L 5.64868 19.5635L 15.7557 -12.8995ZM -12.701 11.2997L -5.25059 19.6741L 20.1515 -2.92533L 12.701 -11.2997L -12.701 11.2997Z"/>
<path id="path9_stroke" d="M 12 0L 12 -12L -12 -12L -12 0L 12 0ZM -12 1135.5L -12 1147.5L 12 1147.5L 12 1135.5L -12 1135.5ZM -12 0L -12 1135.5L 12 1135.5L 12 0L -12 0Z"/>
<path id="path10_stroke" d="M 16.3799 -4.54998L 11.8299 -20.9298L -20.9297 -11.8299L -16.3798 4.54988L 16.3799 -4.54998ZM 3.00004 10.8L -13.3798 15.3499L 3.00005 74.3175L 19.3799 15.3499L 3.00004 10.8ZM 22.3799 4.54988L 26.9298 -11.8299L -5.82984 -20.9298L -10.3798 -4.54997L 22.3799 4.54988ZM -16.3798 4.54988L -13.3798 15.3499L 19.3799 6.25007L 16.3799 -4.54998L -16.3798 4.54988ZM 19.3799 15.3499L 22.3799 4.54988L -10.3798 -4.54997L -13.3798 6.25007L 19.3799 15.3499Z"/>
<path id="path11_stroke" d="M -4.54244 82.7114L -6.63189 87.2539L 2.45308 91.4328L 4.54254 86.8904L -4.54244 82.7114ZM 3.03209 329.897L -0.943679 326.865L -7.00776 334.817L -3.03199 337.849L 3.03209 329.897ZM 5.10156e-05 84.8009C 4.54254 86.8904 4.54142 86.8928 4.54044 86.8949C 4.54031 86.8952 4.53948 86.897 4.53922 86.8975C 4.53889 86.8983 4.53878 86.8985 4.53945 86.8971C 4.5425 86.8905 4.54445 86.8863 4.55055 86.8734C 4.56624 86.8401 4.58438 86.802 4.61593 86.7369C 4.68617 86.5918 4.78044 86.4003 4.92314 86.1208C 5.22356 85.5317 5.65262 84.7188 6.27402 83.6252C 7.55012 81.3755 9.43804 78.279 12.1656 74.4482C 17.7015 66.6558 26.1337 56.5489 38.6506 46.2586C 63.5161 25.7616 104.089 4.99999 166.742 4.99999L 166.742 -5.00001C 101.66 -5.00001 58.8615 16.6389 32.2899 38.5423C 19.0883 49.4522 9.78542 60.5455 4.01578 68.6534C 1.09064 72.7726 -1.06676 76.3011 -2.42282 78.6891C -3.11749 79.9141 -3.6512 80.9232 -3.98453 81.5762C -4.15872 81.9179 -4.29907 82.2026 -4.38424 82.3783C -4.43039 82.4737 -4.47015 82.5572 -4.49293 82.6055C -4.50607 82.6333 -4.51849 82.6599 -4.52501 82.6738C -4.52913 82.6827 -4.5335 82.6921 -4.53555 82.6965C -4.537 82.6996 -4.53872 82.7034 -4.53944 82.7049C -4.54102 82.7084 -4.54244 82.7114 5.10156e-05 84.8009ZM 166.742 4.99999C 228.633 4.99999 266.144 34.4116 288.448 72.7216C 311.145 111.526 318.007 159.045 317.994 195.224L 327.994 195.224C 327.981 158.32 320.585 108.227 297.09 67.6901C 273.201 26.6588 232.585 -5.00001 166.742 -5.00001L 166.742 4.99999ZM 317.994 195.224C 317.994 230.574 302.489 278.406 275.467 317.395C 248.422 356.418 210.681 385.449 166.742 385.449L 166.742 395.449C 215.359 395.449 255.744 363.409 283.686 323.091C 311.652 282.739 327.994 232.958 327.994 195.224L 317.994 195.224ZM 166.742 385.449C 121.278 385.516 80.6469 371.667 50.7877 357.635C 35.9256 350.661 24.0302 343.741 15.7069 338.485C 11.5751 335.877 8.41478 333.734 6.2364 332.208C 5.1609 331.456 4.36167 330.879 3.80957 330.474C 3.54006 330.277 3.34612 330.133 3.2095 330.031C 3.14437 329.982 3.10013 329.949 3.06731 329.924C 3.05248 329.913 3.0437 329.906 3.03625 329.901C 3.03331 329.898 3.03227 329.898 3.0308 329.896C 3.03045 329.896 3.03077 329.896 3.0306 329.896C 3.0312 329.897 3.03209 329.897 5.10156e-05 333.873C -3.03199 337.849 -3.03054 337.85 -3.0288 337.851C -3.02784 337.852 -3.02582 337.854 -3.02391 337.855C -3.02087 337.857 -3.01512 337.862 -3.00903 337.866C -2.99843 337.874 -2.98015 337.888 -2.95897 337.904C -2.91976 337.934 -2.85619 337.982 -2.77812 338.04C -2.62837 338.152 -2.39444 338.326 -2.09801 338.543C -1.51822 338.967 -0.633246 339.606 0.500528 340.4C 2.74069 341.968 6.09915 344.245 10.3684 346.941C 18.8472 352.293 31.2828 359.517 46.5366 366.687C 76.909 380.943 119.649 395.382 166.742 395.449L 166.742 385.449Z"/>
<path id="path12_fill" d="M 32.9375 42.8438C 32.9375 47.9896 31.7604 52.1354 29.4062 55.2812C 27.0521 58.4271 23.8646 60 19.8438 60C 15.7396 60 12.5104 58.6979 10.1562 56.0938L 10.1562 72.375L 4.375 72.375L 4.375 25.5625L 9.65625 25.5625L 9.9375 29.3125C 12.2917 26.3958 15.5625 24.9375 19.75 24.9375C 23.8125 24.9375 27.0208 26.4688 29.375 29.5312C 31.75 32.5938 32.9375 36.8542 32.9375 42.3125L 32.9375 42.8438ZM 27.1562 42.1875C 27.1562 38.375 26.3438 35.3646 24.7188 33.1562C 23.0938 30.9479 20.8646 29.8438 18.0312 29.8438C 14.5312 29.8438 11.9062 31.3958 10.1562 34.5L 10.1562 50.6562C 11.8854 53.7396 14.5312 55.2812 18.0938 55.2812C 20.8646 55.2812 23.0625 54.1875 24.6875 52C 26.3333 49.7917 27.1562 46.5208 27.1562 42.1875ZM 45.75 25.5625L 45.9062 29.3125C 48.3854 26.3958 51.7292 24.9375 55.9375 24.9375C 60.6667 24.9375 63.8854 26.75 65.5938 30.375C 66.7188 28.75 68.1771 27.4375 69.9688 26.4375C 71.7812 25.4375 73.9167 24.9375 76.375 24.9375C 83.7917 24.9375 87.5625 28.8646 87.6875 36.7188L 87.6875 59.375L 81.9062 59.375L 81.9062 37.0625C 81.9062 34.6458 81.3542 32.8438 80.25 31.6562C 79.1458 30.4479 77.2917 29.8438 74.6875 29.8438C 72.5417 29.8438 70.7604 30.4896 69.3438 31.7812C 67.9271 33.0521 67.1042 34.7708 66.875 36.9375L 66.875 59.375L 61.0625 59.375L 61.0625 37.2188C 61.0625 32.3021 58.6562 29.8438 53.8438 29.8438C 50.0521 29.8438 47.4583 31.4583 46.0625 34.6875L 46.0625 59.375L 40.2812 59.375L 40.2812 25.5625L 45.75 25.5625ZM 110.469 60C 105.885 60 102.156 58.5 99.2812 55.5C 96.4062 52.4792 94.9688 48.4479 94.9688 43.4062L 94.9688 42.3438C 94.9688 38.9896 95.6042 36 96.875 33.375C 98.1667 30.7292 99.9583 28.6667 102.25 27.1875C 104.562 25.6875 107.062 24.9375 109.75 24.9375C 114.146 24.9375 117.562 26.3854 120 29.2812C 122.438 32.1771 123.656 36.3229 123.656 41.7188L 123.656 44.125L 100.75 44.125C 100.833 47.4583 101.802 50.1562 103.656 52.2188C 105.531 54.2604 107.906 55.2812 110.781 55.2812C 112.823 55.2812 114.552 54.8646 115.969 54.0312C 117.385 53.1979 118.625 52.0938 119.688 50.7188L 123.219 53.4688C 120.385 57.8229 116.135 60 110.469 60ZM 109.75 29.6875C 107.417 29.6875 105.458 30.5417 103.875 32.25C 102.292 33.9375 101.312 36.3125 100.938 39.375L 117.875 39.375L 117.875 38.9375C 117.708 36 116.917 33.7292 115.5 32.125C 114.083 30.5 112.167 29.6875 109.75 29.6875ZM 135.812 25.5625L 135.969 29.3125C 138.448 26.3958 141.792 24.9375 146 24.9375C 150.729 24.9375 153.948 26.75 155.656 30.375C 156.781 28.75 158.24 27.4375 160.031 26.4375C 161.844 25.4375 163.979 24.9375 166.438 24.9375C 173.854 24.9375 177.625 28.8646 177.75 36.7188L 177.75 59.375L 171.969 59.375L 171.969 37.0625C 171.969 34.6458 171.417 32.8438 170.312 31.6562C 169.208 30.4479 167.354 29.8438 164.75 29.8438C 162.604 29.8438 160.823 30.4896 159.406 31.7812C 157.99 33.0521 157.167 34.7708 156.938 36.9375L 156.938 59.375L 151.125 59.375L 151.125 37.2188C 151.125 32.3021 148.719 29.8438 143.906 29.8438C 140.115 29.8438 137.521 31.4583 136.125 34.6875L 136.125 59.375L 130.344 59.375L 130.344 25.5625L 135.812 25.5625ZM 210.875 64.0938L 182.25 64.0938L 182.25 59.375L 210.875 59.375L 210.875 64.0938ZM 231.719 30.75C 230.844 30.6042 229.896 30.5312 228.875 30.5312C 225.083 30.5312 222.51 32.1458 221.156 35.375L 221.156 59.375L 215.375 59.375L 215.375 25.5625L 221 25.5625L 221.094 29.4688C 222.99 26.4479 225.677 24.9375 229.156 24.9375C 230.281 24.9375 231.135 25.0833 231.719 25.375L 231.719 30.75ZM 250.531 60C 245.948 60 242.219 58.5 239.344 55.5C 236.469 52.4792 235.031 48.4479 235.031 43.4062L 235.031 42.3438C 235.031 38.9896 235.667 36 236.938 33.375C 238.229 30.7292 240.021 28.6667 242.312 27.1875C 244.625 25.6875 247.125 24.9375 249.812 24.9375C 254.208 24.9375 257.625 26.3854 260.062 29.2812C 262.5 32.1771 263.719 36.3229 263.719 41.7188L 263.719 44.125L 240.812 44.125C 240.896 47.4583 241.865 50.1562 243.719 52.2188C 245.594 54.2604 247.969 55.2812 250.844 55.2812C 252.885 55.2812 254.615 54.8646 256.031 54.0312C 257.448 53.1979 258.688 52.0938 259.75 50.7188L 263.281 53.4688C 260.448 57.8229 256.198 60 250.531 60ZM 249.812 29.6875C 247.479 29.6875 245.521 30.5417 243.938 32.25C 242.354 33.9375 241.375 36.3125 241 39.375L 257.938 39.375L 257.938 38.9375C 257.771 36 256.979 33.7292 255.562 32.125C 254.146 30.5 252.229 29.6875 249.812 29.6875ZM 290.125 50.4062C 290.125 48.8438 289.531 47.6354 288.344 46.7812C 287.177 45.9062 285.125 45.1562 282.188 44.5312C 279.271 43.9062 276.948 43.1562 275.219 42.2812C 273.51 41.4062 272.24 40.3646 271.406 39.1562C 270.594 37.9479 270.188 36.5104 270.188 34.8438C 270.188 32.0729 271.354 29.7292 273.688 27.8125C 276.042 25.8958 279.042 24.9375 282.688 24.9375C 286.521 24.9375 289.625 25.9271 292 27.9062C 294.396 29.8854 295.594 32.4167 295.594 35.5L 289.781 35.5C 289.781 33.9167 289.104 32.5521 287.75 31.4062C 286.417 30.2604 284.729 29.6875 282.688 29.6875C 280.583 29.6875 278.938 30.1458 277.75 31.0625C 276.562 31.9792 275.969 33.1771 275.969 34.6562C 275.969 36.0521 276.521 37.1042 277.625 37.8125C 278.729 38.5208 280.719 39.1979 283.594 39.8438C 286.49 40.4896 288.833 41.2604 290.625 42.1562C 292.417 43.0521 293.74 44.1354 294.594 45.4062C 295.469 46.6562 295.906 48.1875 295.906 50C 295.906 53.0208 294.698 55.4479 292.281 57.2812C 289.865 59.0938 286.729 60 282.875 60C 280.167 60 277.771 59.5208 275.688 58.5625C 273.604 57.6042 271.969 56.2708 270.781 54.5625C 269.615 52.8333 269.031 50.9688 269.031 48.9688L 274.812 48.9688C 274.917 50.9062 275.688 52.4479 277.125 53.5938C 278.583 54.7188 280.5 55.2812 282.875 55.2812C 285.062 55.2812 286.812 54.8438 288.125 53.9688C 289.458 53.0729 290.125 51.8854 290.125 50.4062ZM 332 42.8438C 332 47.9896 330.823 52.1354 328.469 55.2812C 326.115 58.4271 322.927 60 318.906 60C 314.802 60 311.573 58.6979 309.219 56.0938L 309.219 72.375L 303.438 72.375L 303.438 25.5625L 308.719 25.5625L 309 29.3125C 311.354 26.3958 314.625 24.9375 318.812 24.9375C 322.875 24.9375 326.083 26.4688 328.438 29.5312C 330.812 32.5938 332 36.8542 332 42.3125L 332 42.8438ZM 326.219 42.1875C 326.219 38.375 325.406 35.3646 323.781 33.1562C 322.156 30.9479 319.927 29.8438 317.094 29.8438C 313.594 29.8438 310.969 31.3958 309.219 34.5L 309.219 50.6562C 310.948 53.7396 313.594 55.2812 317.156 55.2812C 319.927 55.2812 322.125 54.1875 323.75 52C 325.396 49.7917 326.219 46.5208 326.219 42.1875ZM 381.688 33.9375L 355.625 33.9375L 355.625 28.9062L 381.688 28.9062L 381.688 33.9375ZM 381.688 46.9062L 355.625 46.9062L 355.625 41.9062L 381.688 41.9062L 381.688 46.9062ZM 416.812 33.9375L 390.75 33.9375L 390.75 28.9062L 416.812 28.9062L 416.812 33.9375ZM 416.812 46.9062L 390.75 46.9062L 390.75 41.9062L 416.812 41.9062L 416.812 46.9062ZM 469.312 39.9688C 469.312 46.7396 468.156 51.7708 465.844 55.0625C 463.531 58.3542 459.917 60 455 60C 450.146 60 446.552 58.3958 444.219 55.1875C 441.885 51.9583 440.677 47.1458 440.594 40.75L 440.594 33.0312C 440.594 26.3438 441.75 21.375 444.062 18.125C 446.375 14.875 450 13.25 454.938 13.25C 459.833 13.25 463.438 14.8229 465.75 17.9688C 468.062 21.0938 469.25 25.9271 469.312 32.4688L 469.312 39.9688ZM 463.531 32.0625C 463.531 27.1667 462.844 23.6042 461.469 21.375C 460.094 19.125 457.917 18 454.938 18C 451.979 18 449.823 19.1146 448.469 21.3438C 447.115 23.5729 446.417 27 446.375 31.625L 446.375 40.875C 446.375 45.7917 447.083 49.4271 448.5 51.7812C 449.938 54.1146 452.104 55.2812 455 55.2812C 457.854 55.2812 459.969 54.1771 461.344 51.9688C 462.74 49.7604 463.469 46.2812 463.531 41.5312L 463.531 32.0625Z"/>
<path id="path13_fill" d="M 32.9375 42.8438C 32.9375 47.9896 31.7604 52.1354 29.4062 55.2812C 27.0521 58.4271 23.8646 60 19.8438 60C 15.7396 60 12.5104 58.6979 10.1562 56.0938L 10.1562 72.375L 4.375 72.375L 4.375 25.5625L 9.65625 25.5625L 9.9375 29.3125C 12.2917 26.3958 15.5625 24.9375 19.75 24.9375C 23.8125 24.9375 27.0208 26.4688 29.375 29.5312C 31.75 32.5938 32.9375 36.8542 32.9375 42.3125L 32.9375 42.8438ZM 27.1562 42.1875C 27.1562 38.375 26.3438 35.3646 24.7188 33.1562C 23.0938 30.9479 20.8646 29.8438 18.0312 29.8438C 14.5312 29.8438 11.9062 31.3958 10.1562 34.5L 10.1562 50.6562C 11.8854 53.7396 14.5312 55.2812 18.0938 55.2812C 20.8646 55.2812 23.0625 54.1875 24.6875 52C 26.3333 49.7917 27.1562 46.5208 27.1562 42.1875ZM 45.75 25.5625L 45.9062 29.3125C 48.3854 26.3958 51.7292 24.9375 55.9375 24.9375C 60.6667 24.9375 63.8854 26.75 65.5938 30.375C 66.7188 28.75 68.1771 27.4375 69.9688 26.4375C 71.7812 25.4375 73.9167 24.9375 76.375 24.9375C 83.7917 24.9375 87.5625 28.8646 87.6875 36.7188L 87.6875 59.375L 81.9062 59.375L 81.9062 37.0625C 81.9062 34.6458 81.3542 32.8438 80.25 31.6562C 79.1458 30.4479 77.2917 29.8438 74.6875 29.8438C 72.5417 29.8438 70.7604 30.4896 69.3438 31.7812C 67.9271 33.0521 67.1042 34.7708 66.875 36.9375L 66.875 59.375L 61.0625 59.375L 61.0625 37.2188C 61.0625 32.3021 58.6562 29.8438 53.8438 29.8438C 50.0521 29.8438 47.4583 31.4583 46.0625 34.6875L 46.0625 59.375L 40.2812 59.375L 40.2812 25.5625L 45.75 25.5625ZM 110.469 60C 105.885 60 102.156 58.5 99.2812 55.5C 96.4062 52.4792 94.9688 48.4479 94.9688 43.4062L 94.9688 42.3438C 94.9688 38.9896 95.6042 36 96.875 33.375C 98.1667 30.7292 99.9583 28.6667 102.25 27.1875C 104.562 25.6875 107.062 24.9375 109.75 24.9375C 114.146 24.9375 117.562 26.3854 120 29.2812C 122.438 32.1771 123.656 36.3229 123.656 41.7188L 123.656 44.125L 100.75 44.125C 100.833 47.4583 101.802 50.1562 103.656 52.2188C 105.531 54.2604 107.906 55.2812 110.781 55.2812C 112.823 55.2812 114.552 54.8646 115.969 54.0312C 117.385 53.1979 118.625 52.0938 119.688 50.7188L 123.219 53.4688C 120.385 57.8229 116.135 60 110.469 60ZM 109.75 29.6875C 107.417 29.6875 105.458 30.5417 103.875 32.25C 102.292 33.9375 101.312 36.3125 100.938 39.375L 117.875 39.375L 117.875 38.9375C 117.708 36 116.917 33.7292 115.5 32.125C 114.083 30.5 112.167 29.6875 109.75 29.6875ZM 135.812 25.5625L 135.969 29.3125C 138.448 26.3958 141.792 24.9375 146 24.9375C 150.729 24.9375 153.948 26.75 155.656 30.375C 156.781 28.75 158.24 27.4375 160.031 26.4375C 161.844 25.4375 163.979 24.9375 166.438 24.9375C 173.854 24.9375 177.625 28.8646 177.75 36.7188L 177.75 59.375L 171.969 59.375L 171.969 37.0625C 171.969 34.6458 171.417 32.8438 170.312 31.6562C 169.208 30.4479 167.354 29.8438 164.75 29.8438C 162.604 29.8438 160.823 30.4896 159.406 31.7812C 157.99 33.0521 157.167 34.7708 156.938 36.9375L 156.938 59.375L 151.125 59.375L 151.125 37.2188C 151.125 32.3021 148.719 29.8438 143.906 29.8438C 140.115 29.8438 137.521 31.4583 136.125 34.6875L 136.125 59.375L 130.344 59.375L 130.344 25.5625L 135.812 25.5625ZM 210.875 64.0938L 182.25 64.0938L 182.25 59.375L 210.875 59.375L 210.875 64.0938ZM 231.719 30.75C 230.844 30.6042 229.896 30.5312 228.875 30.5312C 225.083 30.5312 222.51 32.1458 221.156 35.375L 221.156 59.375L 215.375 59.375L 215.375 25.5625L 221 25.5625L 221.094 29.4688C 222.99 26.4479 225.677 24.9375 229.156 24.9375C 230.281 24.9375 231.135 25.0833 231.719 25.375L 231.719 30.75ZM 250.531 60C 245.948 60 242.219 58.5 239.344 55.5C 236.469 52.4792 235.031 48.4479 235.031 43.4062L 235.031 42.3438C 235.031 38.9896 235.667 36 236.938 33.375C 238.229 30.7292 240.021 28.6667 242.312 27.1875C 244.625 25.6875 247.125 24.9375 249.812 24.9375C 254.208 24.9375 257.625 26.3854 260.062 29.2812C 262.5 32.1771 263.719 36.3229 263.719 41.7188L 263.719 44.125L 240.812 44.125C 240.896 47.4583 241.865 50.1562 243.719 52.2188C 245.594 54.2604 247.969 55.2812 250.844 55.2812C 252.885 55.2812 254.615 54.8646 256.031 54.0312C 257.448 53.1979 258.688 52.0938 259.75 50.7188L 263.281 53.4688C 260.448 57.8229 256.198 60 250.531 60ZM 249.812 29.6875C 247.479 29.6875 245.521 30.5417 243.938 32.25C 242.354 33.9375 241.375 36.3125 241 39.375L 257.938 39.375L 257.938 38.9375C 257.771 36 256.979 33.7292 255.562 32.125C 254.146 30.5 252.229 29.6875 249.812 29.6875ZM 290.125 50.4062C 290.125 48.8438 289.531 47.6354 288.344 46.7812C 287.177 45.9062 285.125 45.1562 282.188 44.5312C 279.271 43.9062 276.948 43.1562 275.219 42.2812C 273.51 41.4062 272.24 40.3646 271.406 39.1562C 270.594 37.9479 270.188 36.5104 270.188 34.8438C 270.188 32.0729 271.354 29.7292 273.688 27.8125C 276.042 25.8958 279.042 24.9375 282.688 24.9375C 286.521 24.9375 289.625 25.9271 292 27.9062C 294.396 29.8854 295.594 32.4167 295.594 35.5L 289.781 35.5C 289.781 33.9167 289.104 32.5521 287.75 31.4062C 286.417 30.2604 284.729 29.6875 282.688 29.6875C 280.583 29.6875 278.938 30.1458 277.75 31.0625C 276.562 31.9792 275.969 33.1771 275.969 34.6562C 275.969 36.0521 276.521 37.1042 277.625 37.8125C 278.729 38.5208 280.719 39.1979 283.594 39.8438C 286.49 40.4896 288.833 41.2604 290.625 42.1562C 292.417 43.0521 293.74 44.1354 294.594 45.4062C 295.469 46.6562 295.906 48.1875 295.906 50C 295.906 53.0208 294.698 55.4479 292.281 57.2812C 289.865 59.0938 286.729 60 282.875 60C 280.167 60 277.771 59.5208 275.688 58.5625C 273.604 57.6042 271.969 56.2708 270.781 54.5625C 269.615 52.8333 269.031 50.9688 269.031 48.9688L 274.812 48.9688C 274.917 50.9062 275.688 52.4479 277.125 53.5938C 278.583 54.7188 280.5 55.2812 282.875 55.2812C 285.062 55.2812 286.812 54.8438 288.125 53.9688C 289.458 53.0729 290.125 51.8854 290.125 50.4062ZM 332 42.8438C 332 47.9896 330.823 52.1354 328.469 55.2812C 326.115 58.4271 322.927 60 318.906 60C 314.802 60 311.573 58.6979 309.219 56.0938L 309.219 72.375L 303.438 72.375L 303.438 25.5625L 308.719 25.5625L 309 29.3125C 311.354 26.3958 314.625 24.9375 318.812 24.9375C 322.875 24.9375 326.083 26.4688 328.438 29.5312C 330.812 32.5938 332 36.8542 332 42.3125L 332 42.8438ZM 326.219 42.1875C 326.219 38.375 325.406 35.3646 323.781 33.1562C 322.156 30.9479 319.927 29.8438 317.094 29.8438C 313.594 29.8438 310.969 31.3958 309.219 34.5L 309.219 50.6562C 310.948 53.7396 313.594 55.2812 317.156 55.2812C 319.927 55.2812 322.125 54.1875 323.75 52C 325.396 49.7917 326.219 46.5208 326.219 42.1875ZM 381.688 33.9375L 355.625 33.9375L 355.625 28.9062L 381.688 28.9062L 381.688 33.9375ZM 381.688 46.9062L 355.625 46.9062L 355.625 41.9062L 381.688 41.9062L 381.688 46.9062ZM 416.812 33.9375L 390.75 33.9375L 390.75 28.9062L 416.812 28.9062L 416.812 33.9375ZM 416.812 46.9062L 390.75 46.9062L 390.75 41.9062L 416.812 41.9062L 416.812 46.9062ZM 459.781 59.375L 453.969 59.375L 453.969 20.8438L 442.312 25.125L 442.312 19.875L 458.875 13.6562L 459.781 13.6562L 459.781 59.375Z"/>
</defs>
</svg>
