<svg width="3474" height="2228" viewBox="0 0 3474 2228" version="1.1" xmlns="http://www.w3.org/2000/svg" xmlns:xlink="http://www.w3.org/1999/xlink" xmlns:figma="http://www.figma.com/figma/ns">
<title>L1 Data Cache State Diagram</title>
<desc>Created using Figma</desc>
<g id="Canvas" transform="translate(2067 1075)" figma:type="canvas">
<g id="StateMachine" style="mix-blend-mode:normal;" figma:type="frame">
<g id="Page-1" style="mix-blend-mode:normal;" figma:type="frame">
<g id="Group-4" style="mix-blend-mode:normal;" figma:type="frame">
<g id="Oval-8" style="mix-blend-mode:normal;" figma:type="vector">
<use xlink:href="#path0_stroke" transform="translate(-871 -1072)" fill="#979797" style="mix-blend-mode:normal;"/>
</g>
<g id="Oval-8-Copy" style="mix-blend-mode:normal;" figma:type="vector">
<use xlink:href="#path0_stroke" transform="translate(244 -394)" fill="#979797" style="mix-blend-mode:normal;"/>
</g>
<g id="Oval-8-Copy-2" style="mix-blend-mode:normal;" figma:type="vector">
<use xlink:href="#path0_stroke" transform="translate(-871 435)" fill="#979797" style="mix-blend-mode:normal;"/>
</g>
<g id="Oval-8-Copy-3" style="mix-blend-mode:normal;" figma:type="vector">
<use xlink:href="#path0_stroke" transform="translate(-2064 -394)" fill="#979797" style="mix-blend-mode:normal;"/>
</g>
<g id="IDLE" style="mix-blend-mode:normal;" figma:type="text">
<use xlink:href="#path1_fill" transform="translate(-750.953 -940)" style="mix-blend-mode:normal;"/>
</g>
<g id="Write-Back" style="mix-blend-mode:normal;" figma:type="text">
<use xlink:href="#path2_fill" transform="translate(255.5 -262)" style="mix-blend-mode:normal;"/>
</g>
<g id="Allocate1" style="mix-blend-mode:normal;" figma:type="text">
<use xlink:href="#path3_fill" transform="translate(-832.656 567)" style="mix-blend-mode:normal;"/>
</g>
<g id="Allocate2" style="mix-blend-mode:normal;" figma:type="text">
<use xlink:href="#path4_fill" transform="translate(-2029.98 -262)" style="mix-blend-mode:normal;"/>
</g>
<g id="Line" style="mix-blend-mode:normal;" figma:type="vector">
<use xlink:href="#path5_stroke" transform="translate(-1760.5 -842.5)" fill="#979797" style="mix-blend-mode:normal;"/>
</g>
<g id="Line-decoration-1" style="mix-blend-mode:normal;" figma:type="vector">
<use xlink:href="#path6_stroke" transform="translate(-878.4 -842.5)" fill="#979797" style="mix-blend-mode:normal;"/>
</g>
<g id="Line" style="mix-blend-mode:normal;" figma:type="vector">
<use xlink:href="#path7_stroke" transform="translate(-520 -852)" fill="#979797" style="mix-blend-mode:normal;"/>
</g>
<g id="Line-decoration-1" style="mix-blend-mode:normal;" figma:type="vector">
<use xlink:href="#path8_stroke" transform="translate(247.263 -370.294)" fill="#979797" style="mix-blend-mode:normal;"/>
</g>
<g id="Line" style="mix-blend-mode:normal;" figma:type="vector">
<use xlink:href="#path9_stroke" transform="translate(-537.5 -56.5)" fill="#979797" style="mix-blend-mode:normal;"/>
</g>
<g id="Line-decoration-1" style="mix-blend-mode:normal;" figma:type="vector">
<use xlink:href="#path10_stroke" transform="translate(-537.5 516.038)" fill="#979797" style="mix-blend-mode:normal;"/>
</g>
<g id="(mem_read == 1 or mem_write == 1) and hit == 0 and dirty == 0" style="mix-blend-mode:normal;" figma:type="text">
<use xlink:href="#path11_fill" transform="translate(-662 -359)" style="mix-blend-mode:normal;"/>
</g>
<g id="Line" style="mix-blend-mode:normal;" figma:type="vector">
<use xlink:href="#path12_stroke" transform="translate(-1812.5 -52.5)" fill="#979797" style="mix-blend-mode:normal;"/>
</g>
<g id="Line-decoration-1" style="mix-blend-mode:normal;" figma:type="vector">
<use xlink:href="#path13_stroke" transform="translate(-1812.5 -52.5)" fill="#979797" style="mix-blend-mode:normal;"/>
</g>
<g id="Line" style="mix-blend-mode:normal;" figma:type="vector">
<use xlink:href="#path14_stroke" transform="translate(-675.667 -713.5)" fill="#979797" style="mix-blend-mode:normal;"/>
</g>
<g id="Line-decoration-1" style="mix-blend-mode:normal;" figma:type="vector">
<use xlink:href="#path15_stroke" transform="translate(-678.667 411.2)" fill="#979797" style="mix-blend-mode:normal;"/>
</g>
<g id="(mem_read == 1 or mem_write == 1) and hit == 0 and dirty == 1" style="mix-blend-mode:normal;" figma:type="text">
<use xlink:href="#path16_fill" transform="translate(-221.016 -845)" style="mix-blend-mode:normal;"/>
</g>
<g id="pmem resp-==-1" style="mix-blend-mode:normal;" figma:type="text">
<use xlink:href="#path17_fill" transform="translate(-107.547 252)" style="mix-blend-mode:normal;"/>
</g>
<g id="Line" style="mix-blend-mode:normal;" figma:type="vector">
<use xlink:href="#path18_stroke" transform="translate(569 -426)" fill="#979797" style="mix-blend-mode:normal;"/>
</g>
<g id="Line-decoration-1" style="mix-blend-mode:normal;" figma:type="vector">
<use xlink:href="#path19_stroke" transform="translate(558.2 -95.1268)" fill="#979797" style="mix-blend-mode:normal;"/>
</g>
<g id="pmem resp-==-0" style="mix-blend-mode:normal;" figma:type="text">
<use xlink:href="#path20_fill" transform="translate(937.125 -262)" style="mix-blend-mode:normal;"/>
</g>
<g id="Line" style="mix-blend-mode:normal;" figma:type="vector">
<use xlink:href="#path21_stroke" transform="matrix(-1.83697e-16 1 -1 -1.83697e-16 -488.718 758.68)" fill="#979797" style="mix-blend-mode:normal;"/>
</g>
<g id="pmem resp-==-0" style="mix-blend-mode:normal;" figma:type="text">
<use xlink:href="#path20_fill" transform="translate(-920.875 1079.67)" style="mix-blend-mode:normal;"/>
</g>
<g id="pmem resp-==-1" style="mix-blend-mode:normal;" figma:type="text">
<use xlink:href="#path17_fill" transform="translate(-2029.55 156)" style="mix-blend-mode:normal;"/>
</g>
</g>
</g>
</g>
</g>
<defs>
<path id="path0_stroke" d="M 355.5 179C 355.5 276.478 276.478 355.5 179 355.5L 179 360.5C 279.24 360.5 360.5 279.24 360.5 179L 355.5 179ZM 179 355.5C 81.5217 355.5 2.5 276.478 2.5 179L -2.5 179C -2.5 279.24 78.7603 360.5 179 360.5L 179 355.5ZM 2.5 179C 2.5 81.5217 81.5217 2.5 179 2.5L 179 -2.5C 78.7603 -2.5 -2.5 78.7603 -2.5 179L 2.5 179ZM 179 2.5C 276.478 2.5 355.5 81.5217 355.5 179L 360.5 179C 360.5 78.7603 279.24 -2.5 179 -2.5L 179 2.5Z"/>
<path id="path1_fill" d="M 11.7188 59.375L 5.71875 59.375L 5.71875 13.875L 11.7188 13.875L 11.7188 59.375ZM 22.7188 59.375L 22.7188 13.875L 35.5625 13.875C 39.5208 13.875 43.0208 14.75 46.0625 16.5C 49.1042 18.25 51.4479 20.7396 53.0938 23.9688C 54.7604 27.1979 55.6042 30.9062 55.625 35.0938L 55.625 38C 55.625 42.2917 54.7917 46.0521 53.125 49.2812C 51.4792 52.5104 49.1146 54.9896 46.0312 56.7188C 42.9688 58.4479 39.3958 59.3333 35.3125 59.375L 22.7188 59.375ZM 28.7188 18.8125L 28.7188 54.4688L 35.0312 54.4688C 39.6562 54.4688 43.25 53.0312 45.8125 50.1562C 48.3958 47.2812 49.6875 43.1875 49.6875 37.875L 49.6875 35.2188C 49.6875 30.0521 48.4688 26.0417 46.0312 23.1875C 43.6146 20.3125 40.1771 18.8542 35.7188 18.8125L 28.7188 18.8125ZM 70.75 54.4688L 92.3125 54.4688L 92.3125 59.375L 64.7188 59.375L 64.7188 13.875L 70.75 13.875L 70.75 54.4688ZM 124.875 38.3438L 105.156 38.3438L 105.156 54.4688L 128.062 54.4688L 128.062 59.375L 99.1562 59.375L 99.1562 13.875L 127.75 13.875L 127.75 18.8125L 105.156 18.8125L 105.156 33.4375L 124.875 33.4375L 124.875 38.3438Z"/>
<path id="path2_fill" d="M 15.0938 45.0312L 15.9688 51.0312L 17.25 45.625L 26.25 13.875L 31.3125 13.875L 40.0938 45.625L 41.3438 51.125L 42.3125 45L 49.375 13.875L 55.4062 13.875L 44.375 59.375L 38.9062 59.375L 29.5312 26.2188L 28.8125 22.75L 28.0938 26.2188L 18.375 59.375L 12.9062 59.375L 1.90625 13.875L 7.90625 13.875L 15.0938 45.0312ZM 76.9062 30.75C 76.0312 30.6042 75.0833 30.5312 74.0625 30.5312C 70.2708 30.5312 67.6979 32.1458 66.3438 35.375L 66.3438 59.375L 60.5625 59.375L 60.5625 25.5625L 66.1875 25.5625L 66.2812 29.4688C 68.1771 26.4479 70.8646 24.9375 74.3438 24.9375C 75.4688 24.9375 76.3229 25.0833 76.9062 25.375L 76.9062 30.75ZM 88.5312 59.375L 82.75 59.375L 82.75 25.5625L 88.5312 25.5625L 88.5312 59.375ZM 82.2812 16.5938C 82.2812 15.6562 82.5625 14.8646 83.125 14.2188C 83.7083 13.5729 84.5625 13.25 85.6875 13.25C 86.8125 13.25 87.6667 13.5729 88.25 14.2188C 88.8333 14.8646 89.125 15.6562 89.125 16.5938C 89.125 17.5312 88.8333 18.3125 88.25 18.9375C 87.6667 19.5625 86.8125 19.875 85.6875 19.875C 84.5625 19.875 83.7083 19.5625 83.125 18.9375C 82.5625 18.3125 82.2812 17.5312 82.2812 16.5938ZM 105.656 17.375L 105.656 25.5625L 111.969 25.5625L 111.969 30.0312L 105.656 30.0312L 105.656 51C 105.656 52.3542 105.938 53.375 106.5 54.0625C 107.062 54.7292 108.021 55.0625 109.375 55.0625C 110.042 55.0625 110.958 54.9375 112.125 54.6875L 112.125 59.375C 110.604 59.7917 109.125 60 107.688 60C 105.104 60 103.156 59.2188 101.844 57.6562C 100.531 56.0938 99.875 53.875 99.875 51L 99.875 30.0312L 93.7188 30.0312L 93.7188 25.5625L 99.875 25.5625L 99.875 17.375L 105.656 17.375ZM 132.781 60C 128.198 60 124.469 58.5 121.594 55.5C 118.719 52.4792 117.281 48.4479 117.281 43.4062L 117.281 42.3438C 117.281 38.9896 117.917 36 119.188 33.375C 120.479 30.7292 122.271 28.6667 124.562 27.1875C 126.875 25.6875 129.375 24.9375 132.062 24.9375C 136.458 24.9375 139.875 26.3854 142.312 29.2812C 144.75 32.1771 145.969 36.3229 145.969 41.7188L 145.969 44.125L 123.062 44.125C 123.146 47.4583 124.115 50.1562 125.969 52.2188C 127.844 54.2604 130.219 55.2812 133.094 55.2812C 135.135 55.2812 136.865 54.8646 138.281 54.0312C 139.698 53.1979 140.938 52.0938 142 50.7188L 145.531 53.4688C 142.698 57.8229 138.448 60 132.781 60ZM 132.062 29.6875C 129.729 29.6875 127.771 30.5417 126.188 32.25C 124.604 33.9375 123.625 36.3125 123.25 39.375L 140.188 39.375L 140.188 38.9375C 140.021 36 139.229 33.7292 137.812 32.125C 136.396 30.5 134.479 29.6875 132.062 29.6875ZM 169.469 59.375L 169.469 13.875L 184.344 13.875C 189.281 13.875 192.99 14.8958 195.469 16.9375C 197.969 18.9792 199.219 22 199.219 26C 199.219 28.125 198.615 30.0104 197.406 31.6562C 196.198 33.2812 194.552 34.5417 192.469 35.4375C 194.927 36.125 196.865 37.4375 198.281 39.375C 199.719 41.2917 200.438 43.5833 200.438 46.25C 200.438 50.3333 199.115 53.5417 196.469 55.875C 193.823 58.2083 190.083 59.375 185.25 59.375L 169.469 59.375ZM 175.469 38.0938L 175.469 54.4688L 185.375 54.4688C 188.167 54.4688 190.365 53.75 191.969 52.3125C 193.594 50.8542 194.406 48.8542 194.406 46.3125C 194.406 40.8333 191.427 38.0938 185.469 38.0938L 175.469 38.0938ZM 175.469 33.2812L 184.531 33.2812C 187.156 33.2812 189.25 32.625 190.812 31.3125C 192.396 30 193.188 28.2188 193.188 25.9688C 193.188 23.4688 192.458 21.6562 191 20.5312C 189.542 19.3854 187.323 18.8125 184.344 18.8125L 175.469 18.8125L 175.469 33.2812ZM 229.312 59.375C 228.979 58.7083 228.708 57.5208 228.5 55.8125C 225.812 58.6042 222.604 60 218.875 60C 215.542 60 212.802 59.0625 210.656 57.1875C 208.531 55.2917 207.469 52.8958 207.469 50C 207.469 46.4792 208.802 43.75 211.469 41.8125C 214.156 39.8542 217.927 38.875 222.781 38.875L 228.406 38.875L 228.406 36.2188C 228.406 34.1979 227.802 32.5938 226.594 31.4062C 225.385 30.1979 223.604 29.5938 221.25 29.5938C 219.188 29.5938 217.458 30.1146 216.062 31.1562C 214.667 32.1979 213.969 33.4583 213.969 34.9375L 208.156 34.9375C 208.156 33.25 208.75 31.625 209.938 30.0625C 211.146 28.4792 212.771 27.2292 214.812 26.3125C 216.875 25.3958 219.135 24.9375 221.594 24.9375C 225.49 24.9375 228.542 25.9167 230.75 27.875C 232.958 29.8125 234.104 32.4896 234.188 35.9062L 234.188 51.4688C 234.188 54.5729 234.583 57.0417 235.375 58.875L 235.375 59.375L 229.312 59.375ZM 219.719 54.9688C 221.531 54.9688 223.25 54.5 224.875 53.5625C 226.5 52.625 227.677 51.4062 228.406 49.9062L 228.406 42.9688L 223.875 42.9688C 216.792 42.9688 213.25 45.0417 213.25 49.1875C 213.25 51 213.854 52.4167 215.062 53.4375C 216.271 54.4583 217.823 54.9688 219.719 54.9688ZM 256.812 55.2812C 258.875 55.2812 260.677 54.6562 262.219 53.4062C 263.76 52.1562 264.615 50.5938 264.781 48.7188L 270.25 48.7188C 270.146 50.6562 269.479 52.5 268.25 54.25C 267.021 56 265.375 57.3958 263.312 58.4375C 261.271 59.4792 259.104 60 256.812 60C 252.208 60 248.542 58.4688 245.812 55.4062C 243.104 52.3229 241.75 48.1146 241.75 42.7812L 241.75 41.8125C 241.75 38.5208 242.354 35.5938 243.562 33.0312C 244.771 30.4688 246.5 28.4792 248.75 27.0625C 251.021 25.6458 253.698 24.9375 256.781 24.9375C 260.573 24.9375 263.719 26.0729 266.219 28.3438C 268.74 30.6146 270.083 33.5625 270.25 37.1875L 264.781 37.1875C 264.615 35 263.781 33.2083 262.281 31.8125C 260.802 30.3958 258.969 29.6875 256.781 29.6875C 253.844 29.6875 251.562 30.75 249.938 32.875C 248.333 34.9792 247.531 38.0312 247.531 42.0312L 247.531 43.125C 247.531 47.0208 248.333 50.0208 249.938 52.125C 251.542 54.2292 253.833 55.2812 256.812 55.2812ZM 286.188 43.7188L 282.562 47.5L 282.562 59.375L 276.781 59.375L 276.781 11.375L 282.562 11.375L 282.562 40.4062L 285.656 36.6875L 296.188 25.5625L 303.219 25.5625L 290.062 39.6875L 304.75 59.375L 297.969 59.375L 286.188 43.7188Z"/>
<path id="path3_fill" d="M 30.4062 47.5L 11.3438 47.5L 7.0625 59.375L 0.875 59.375L 18.25 13.875L 23.5 13.875L 40.9062 59.375L 34.75 59.375L 30.4062 47.5ZM 13.1562 42.5625L 28.625 42.5625L 20.875 21.2812L 13.1562 42.5625ZM 52.4062 59.375L 46.625 59.375L 46.625 11.375L 52.4062 11.375L 52.4062 59.375ZM 67.9688 59.375L 62.1875 59.375L 62.1875 11.375L 67.9688 11.375L 67.9688 59.375ZM 75.7188 42.1562C 75.7188 38.8438 76.3646 35.8646 77.6562 33.2188C 78.9688 30.5729 80.7812 28.5312 83.0938 27.0938C 85.4271 25.6562 88.0833 24.9375 91.0625 24.9375C 95.6667 24.9375 99.3854 26.5312 102.219 29.7188C 105.073 32.9062 106.5 37.1458 106.5 42.4375L 106.5 42.8438C 106.5 46.1354 105.865 49.0938 104.594 51.7188C 103.344 54.3229 101.542 56.3542 99.1875 57.8125C 96.8542 59.2708 94.1667 60 91.125 60C 86.5417 60 82.8229 58.4062 79.9688 55.2188C 77.1354 52.0312 75.7188 47.8125 75.7188 42.5625L 75.7188 42.1562ZM 81.5312 42.8438C 81.5312 46.5938 82.3958 49.6042 84.125 51.875C 85.875 54.1458 88.2083 55.2812 91.125 55.2812C 94.0625 55.2812 96.3958 54.1354 98.125 51.8438C 99.8542 49.5312 100.719 46.3021 100.719 42.1562C 100.719 38.4479 99.8333 35.4479 98.0625 33.1562C 96.3125 30.8438 93.9792 29.6875 91.0625 29.6875C 88.2083 29.6875 85.9062 30.8229 84.1562 33.0938C 82.4062 35.3646 81.5312 38.6146 81.5312 42.8438ZM 127.312 55.2812C 129.375 55.2812 131.177 54.6562 132.719 53.4062C 134.26 52.1562 135.115 50.5938 135.281 48.7188L 140.75 48.7188C 140.646 50.6562 139.979 52.5 138.75 54.25C 137.521 56 135.875 57.3958 133.812 58.4375C 131.771 59.4792 129.604 60 127.312 60C 122.708 60 119.042 58.4688 116.312 55.4062C 113.604 52.3229 112.25 48.1146 112.25 42.7812L 112.25 41.8125C 112.25 38.5208 112.854 35.5938 114.062 33.0312C 115.271 30.4688 117 28.4792 119.25 27.0625C 121.521 25.6458 124.198 24.9375 127.281 24.9375C 131.073 24.9375 134.219 26.0729 136.719 28.3438C 139.24 30.6146 140.583 33.5625 140.75 37.1875L 135.281 37.1875C 135.115 35 134.281 33.2083 132.781 31.8125C 131.302 30.3958 129.469 29.6875 127.281 29.6875C 124.344 29.6875 122.062 30.75 120.438 32.875C 118.833 34.9792 118.031 38.0312 118.031 42.0312L 118.031 43.125C 118.031 47.0208 118.833 50.0208 120.438 52.125C 122.042 54.2292 124.333 55.2812 127.312 55.2812ZM 168.125 59.375C 167.792 58.7083 167.521 57.5208 167.312 55.8125C 164.625 58.6042 161.417 60 157.688 60C 154.354 60 151.615 59.0625 149.469 57.1875C 147.344 55.2917 146.281 52.8958 146.281 50C 146.281 46.4792 147.615 43.75 150.281 41.8125C 152.969 39.8542 156.74 38.875 161.594 38.875L 167.219 38.875L 167.219 36.2188C 167.219 34.1979 166.615 32.5938 165.406 31.4062C 164.198 30.1979 162.417 29.5938 160.062 29.5938C 158 29.5938 156.271 30.1146 154.875 31.1562C 153.479 32.1979 152.781 33.4583 152.781 34.9375L 146.969 34.9375C 146.969 33.25 147.562 31.625 148.75 30.0625C 149.958 28.4792 151.583 27.2292 153.625 26.3125C 155.688 25.3958 157.948 24.9375 160.406 24.9375C 164.302 24.9375 167.354 25.9167 169.562 27.875C 171.771 29.8125 172.917 32.4896 173 35.9062L 173 51.4688C 173 54.5729 173.396 57.0417 174.188 58.875L 174.188 59.375L 168.125 59.375ZM 158.531 54.9688C 160.344 54.9688 162.062 54.5 163.688 53.5625C 165.312 52.625 166.49 51.4062 167.219 49.9062L 167.219 42.9688L 162.688 42.9688C 155.604 42.9688 152.062 45.0417 152.062 49.1875C 152.062 51 152.667 52.4167 153.875 53.4375C 155.083 54.4583 156.635 54.9688 158.531 54.9688ZM 189.906 17.375L 189.906 25.5625L 196.219 25.5625L 196.219 30.0312L 189.906 30.0312L 189.906 51C 189.906 52.3542 190.188 53.375 190.75 54.0625C 191.312 54.7292 192.271 55.0625 193.625 55.0625C 194.292 55.0625 195.208 54.9375 196.375 54.6875L 196.375 59.375C 194.854 59.7917 193.375 60 191.938 60C 189.354 60 187.406 59.2188 186.094 57.6562C 184.781 56.0938 184.125 53.875 184.125 51L 184.125 30.0312L 177.969 30.0312L 177.969 25.5625L 184.125 25.5625L 184.125 17.375L 189.906 17.375ZM 217.031 60C 212.448 60 208.719 58.5 205.844 55.5C 202.969 52.4792 201.531 48.4479 201.531 43.4062L 201.531 42.3438C 201.531 38.9896 202.167 36 203.438 33.375C 204.729 30.7292 206.521 28.6667 208.812 27.1875C 211.125 25.6875 213.625 24.9375 216.312 24.9375C 220.708 24.9375 224.125 26.3854 226.562 29.2812C 229 32.1771 230.219 36.3229 230.219 41.7188L 230.219 44.125L 207.312 44.125C 207.396 47.4583 208.365 50.1562 210.219 52.2188C 212.094 54.2604 214.469 55.2812 217.344 55.2812C 219.385 55.2812 221.115 54.8646 222.531 54.0312C 223.948 53.1979 225.188 52.0938 226.25 50.7188L 229.781 53.4688C 226.948 57.8229 222.698 60 217.031 60ZM 216.312 29.6875C 213.979 29.6875 212.021 30.5417 210.438 32.25C 208.854 33.9375 207.875 36.3125 207.5 39.375L 224.438 39.375L 224.438 38.9375C 224.271 36 223.479 33.7292 222.062 32.125C 220.646 30.5 218.729 29.6875 216.312 29.6875ZM 255.344 59.375L 249.531 59.375L 249.531 20.8438L 237.875 25.125L 237.875 19.875L 254.438 13.6562L 255.344 13.6562L 255.344 59.375Z"/>
<path id="path4_fill" d="M 30.4062 47.5L 11.3438 47.5L 7.0625 59.375L 0.875 59.375L 18.25 13.875L 23.5 13.875L 40.9062 59.375L 34.75 59.375L 30.4062 47.5ZM 13.1562 42.5625L 28.625 42.5625L 20.875 21.2812L 13.1562 42.5625ZM 52.4062 59.375L 46.625 59.375L 46.625 11.375L 52.4062 11.375L 52.4062 59.375ZM 67.9688 59.375L 62.1875 59.375L 62.1875 11.375L 67.9688 11.375L 67.9688 59.375ZM 75.7188 42.1562C 75.7188 38.8438 76.3646 35.8646 77.6562 33.2188C 78.9688 30.5729 80.7812 28.5312 83.0938 27.0938C 85.4271 25.6562 88.0833 24.9375 91.0625 24.9375C 95.6667 24.9375 99.3854 26.5312 102.219 29.7188C 105.073 32.9062 106.5 37.1458 106.5 42.4375L 106.5 42.8438C 106.5 46.1354 105.865 49.0938 104.594 51.7188C 103.344 54.3229 101.542 56.3542 99.1875 57.8125C 96.8542 59.2708 94.1667 60 91.125 60C 86.5417 60 82.8229 58.4062 79.9688 55.2188C 77.1354 52.0312 75.7188 47.8125 75.7188 42.5625L 75.7188 42.1562ZM 81.5312 42.8438C 81.5312 46.5938 82.3958 49.6042 84.125 51.875C 85.875 54.1458 88.2083 55.2812 91.125 55.2812C 94.0625 55.2812 96.3958 54.1354 98.125 51.8438C 99.8542 49.5312 100.719 46.3021 100.719 42.1562C 100.719 38.4479 99.8333 35.4479 98.0625 33.1562C 96.3125 30.8438 93.9792 29.6875 91.0625 29.6875C 88.2083 29.6875 85.9062 30.8229 84.1562 33.0938C 82.4062 35.3646 81.5312 38.6146 81.5312 42.8438ZM 127.312 55.2812C 129.375 55.2812 131.177 54.6562 132.719 53.4062C 134.26 52.1562 135.115 50.5938 135.281 48.7188L 140.75 48.7188C 140.646 50.6562 139.979 52.5 138.75 54.25C 137.521 56 135.875 57.3958 133.812 58.4375C 131.771 59.4792 129.604 60 127.312 60C 122.708 60 119.042 58.4688 116.312 55.4062C 113.604 52.3229 112.25 48.1146 112.25 42.7812L 112.25 41.8125C 112.25 38.5208 112.854 35.5938 114.062 33.0312C 115.271 30.4688 117 28.4792 119.25 27.0625C 121.521 25.6458 124.198 24.9375 127.281 24.9375C 131.073 24.9375 134.219 26.0729 136.719 28.3438C 139.24 30.6146 140.583 33.5625 140.75 37.1875L 135.281 37.1875C 135.115 35 134.281 33.2083 132.781 31.8125C 131.302 30.3958 129.469 29.6875 127.281 29.6875C 124.344 29.6875 122.062 30.75 120.438 32.875C 118.833 34.9792 118.031 38.0312 118.031 42.0312L 118.031 43.125C 118.031 47.0208 118.833 50.0208 120.438 52.125C 122.042 54.2292 124.333 55.2812 127.312 55.2812ZM 168.125 59.375C 167.792 58.7083 167.521 57.5208 167.312 55.8125C 164.625 58.6042 161.417 60 157.688 60C 154.354 60 151.615 59.0625 149.469 57.1875C 147.344 55.2917 146.281 52.8958 146.281 50C 146.281 46.4792 147.615 43.75 150.281 41.8125C 152.969 39.8542 156.74 38.875 161.594 38.875L 167.219 38.875L 167.219 36.2188C 167.219 34.1979 166.615 32.5938 165.406 31.4062C 164.198 30.1979 162.417 29.5938 160.062 29.5938C 158 29.5938 156.271 30.1146 154.875 31.1562C 153.479 32.1979 152.781 33.4583 152.781 34.9375L 146.969 34.9375C 146.969 33.25 147.562 31.625 148.75 30.0625C 149.958 28.4792 151.583 27.2292 153.625 26.3125C 155.688 25.3958 157.948 24.9375 160.406 24.9375C 164.302 24.9375 167.354 25.9167 169.562 27.875C 171.771 29.8125 172.917 32.4896 173 35.9062L 173 51.4688C 173 54.5729 173.396 57.0417 174.188 58.875L 174.188 59.375L 168.125 59.375ZM 158.531 54.9688C 160.344 54.9688 162.062 54.5 163.688 53.5625C 165.312 52.625 166.49 51.4062 167.219 49.9062L 167.219 42.9688L 162.688 42.9688C 155.604 42.9688 152.062 45.0417 152.062 49.1875C 152.062 51 152.667 52.4167 153.875 53.4375C 155.083 54.4583 156.635 54.9688 158.531 54.9688ZM 189.906 17.375L 189.906 25.5625L 196.219 25.5625L 196.219 30.0312L 189.906 30.0312L 189.906 51C 189.906 52.3542 190.188 53.375 190.75 54.0625C 191.312 54.7292 192.271 55.0625 193.625 55.0625C 194.292 55.0625 195.208 54.9375 196.375 54.6875L 196.375 59.375C 194.854 59.7917 193.375 60 191.938 60C 189.354 60 187.406 59.2188 186.094 57.6562C 184.781 56.0938 184.125 53.875 184.125 51L 184.125 30.0312L 177.969 30.0312L 177.969 25.5625L 184.125 25.5625L 184.125 17.375L 189.906 17.375ZM 217.031 60C 212.448 60 208.719 58.5 205.844 55.5C 202.969 52.4792 201.531 48.4479 201.531 43.4062L 201.531 42.3438C 201.531 38.9896 202.167 36 203.438 33.375C 204.729 30.7292 206.521 28.6667 208.812 27.1875C 211.125 25.6875 213.625 24.9375 216.312 24.9375C 220.708 24.9375 224.125 26.3854 226.562 29.2812C 229 32.1771 230.219 36.3229 230.219 41.7188L 230.219 44.125L 207.312 44.125C 207.396 47.4583 208.365 50.1562 210.219 52.2188C 212.094 54.2604 214.469 55.2812 217.344 55.2812C 219.385 55.2812 221.115 54.8646 222.531 54.0312C 223.948 53.1979 225.188 52.0938 226.25 50.7188L 229.781 53.4688C 226.948 57.8229 222.698 60 217.031 60ZM 216.312 29.6875C 213.979 29.6875 212.021 30.5417 210.438 32.25C 208.854 33.9375 207.875 36.3125 207.5 39.375L 224.438 39.375L 224.438 38.9375C 224.271 36 223.479 33.7292 222.062 32.125C 220.646 30.5 218.729 29.6875 216.312 29.6875ZM 266.156 59.375L 236.344 59.375L 236.344 55.2188L 252.094 37.7188C 254.427 35.0729 256.031 32.9271 256.906 31.2812C 257.802 29.6146 258.25 27.8958 258.25 26.125C 258.25 23.75 257.531 21.8021 256.094 20.2812C 254.656 18.7604 252.74 18 250.344 18C 247.469 18 245.229 18.8229 243.625 20.4688C 242.042 22.0938 241.25 24.3646 241.25 27.2812L 235.469 27.2812C 235.469 23.0938 236.812 19.7083 239.5 17.125C 242.208 14.5417 245.823 13.25 250.344 13.25C 254.573 13.25 257.917 14.3646 260.375 16.5938C 262.833 18.8021 264.062 21.75 264.062 25.4375C 264.062 29.9167 261.208 35.25 255.5 41.4375L 243.312 54.6562L 266.156 54.6562L 266.156 59.375Z"/>
<path id="path5_stroke" d="M -5.81773 484.505L -16.3132 490.322L -4.67769 511.313L 5.81773 505.495L -5.81773 484.505ZM 898.818 10.4954L 909.313 4.67769L 897.678 -16.3132L 887.182 -10.4954L 898.818 10.4954ZM 5.81773 505.495L 898.818 10.4954L 887.182 -10.4954L -5.81773 484.505L 5.81773 505.495Z"/>
<path id="path6_stroke" d="M -9.01171 -4.26041L -21.1319 7.66017L 2.70922 31.9006L 14.8294 19.98L -9.01171 -4.26041ZM 10.9003 0L 22.8209 12.1202L 66.4538 -30.794L 6.93866 -16.5319L 10.9003 0ZM -3.96161 -13.9198L -20.4936 -9.95818L -12.5702 23.1057L 3.96172 19.1441L -3.96161 -13.9198ZM 14.8294 19.98L 22.8209 12.1202L -1.02026 -12.1202L -9.01171 -4.26041L 14.8294 19.98ZM 6.93866 -16.5319L -3.96161 -13.9198L 3.96172 19.1441L 14.862 16.5319L 6.93866 -16.5319Z"/>
<path id="path7_stroke" d="M 6.39514 -10.1539L -3.75878 -16.5491L -16.5491 3.75878L -6.39514 10.1539L 6.39514 -10.1539ZM 771.605 500.154L 781.759 506.549L 794.549 486.241L 784.395 479.846L 771.605 500.154ZM -6.39514 10.1539L 771.605 500.154L 784.395 479.846L 6.39514 -10.1539L -6.39514 10.1539Z"/>
<path id="path8_stroke" d="M 4.87932 -11.2078L -11.4054 -16.0871L -21.164 16.4824L -4.87929 21.3617L 4.87932 -11.2078ZM 10.7373 8.29411L 5.85801 24.5788L 64.4835 42.1445L 23.3165 -3.14106L 10.7373 8.29411ZM 15.7767 -11.4352L 4.34158 -24.0144L -20.8169 -1.14407L -9.3817 11.4352L 15.7767 -11.4352ZM -4.87929 21.3617L 5.85801 24.5788L 15.6166 -7.99062L 4.87932 -11.2078L -4.87929 21.3617ZM 23.3165 -3.14106L 15.7767 -11.4352L -9.3817 11.4352L -1.8419 19.7293L 23.3165 -3.14106Z"/>
<path id="path9_stroke" d="M 884.622 10.0073L 894.63 3.38517L 881.385 -16.6295L 871.378 -10.0073L 884.622 10.0073ZM -6.62217 570.993L -16.6295 577.615L -3.38517 597.63L 6.62217 591.007L -6.62217 570.993ZM 871.378 -10.0073L -6.62217 570.993L 6.62217 591.007L 884.622 10.0073L 871.378 -10.0073Z"/>
<path id="path10_stroke" d="M 20.1846 11.149L 31.3336 -1.68457L 5.66651 -23.9825L -5.48248 -11.149L 20.1846 11.149ZM 0 8.46179L -12.8336 -2.6872L -52.9701 43.5138L 5.24478 24.6325L 0 8.46179ZM 15.9069 21.1744L 32.0776 15.9296L 21.588 -16.4118L 5.41733 -11.1671L 15.9069 21.1744ZM -5.48248 -11.149L -12.8336 -2.6872L 12.8336 19.6108L 20.1846 11.149L -5.48248 -11.149ZM 5.24478 24.6325L 15.9069 21.1744L 5.41733 -11.1671L -5.24478 -7.70893L 5.24478 24.6325Z"/>
<path id="path11_fill" d="M 4.15625 40.9062C 4.15625 36.1979 4.78125 31.6771 6.03125 27.3438C 7.30208 23.0104 9.1875 19.0729 11.6875 15.5312C 14.1875 11.9896 16.7812 9.48958 19.4688 8.03125L 20.6562 11.8438C 17.6146 14.1771 15.1146 17.7396 13.1562 22.5312C 11.2188 27.3229 10.1562 32.6875 9.96875 38.625L 9.9375 41.2812C 9.9375 49.3229 11.4062 56.3021 14.3438 62.2188C 16.1146 65.7604 18.2188 68.5312 20.6562 70.5312L 19.4688 74.0625C 16.6979 72.5208 14.0521 69.9375 11.5312 66.3125C 6.61458 59.2292 4.15625 50.7604 4.15625 40.9062ZM 31.6875 25.5625L 31.8438 29.3125C 34.3229 26.3958 37.6667 24.9375 41.875 24.9375C 46.6042 24.9375 49.8229 26.75 51.5312 30.375C 52.6562 28.75 54.1146 27.4375 55.9062 26.4375C 57.7188 25.4375 59.8542 24.9375 62.3125 24.9375C 69.7292 24.9375 73.5 28.8646 73.625 36.7188L 73.625 59.375L 67.8438 59.375L 67.8438 37.0625C 67.8438 34.6458 67.2917 32.8438 66.1875 31.6562C 65.0833 30.4479 63.2292 29.8438 60.625 29.8438C 58.4792 29.8438 56.6979 30.4896 55.2812 31.7812C 53.8646 33.0521 53.0417 34.7708 52.8125 36.9375L 52.8125 59.375L 47 59.375L 47 37.2188C 47 32.3021 44.5938 29.8438 39.7812 29.8438C 35.9896 29.8438 33.3958 31.4583 32 34.6875L 32 59.375L 26.2188 59.375L 26.2188 25.5625L 31.6875 25.5625ZM 96.4062 60C 91.8229 60 88.0938 58.5 85.2188 55.5C 82.3438 52.4792 80.9062 48.4479 80.9062 43.4062L 80.9062 42.3438C 80.9062 38.9896 81.5417 36 82.8125 33.375C 84.1042 30.7292 85.8958 28.6667 88.1875 27.1875C 90.5 25.6875 93 24.9375 95.6875 24.9375C 100.083 24.9375 103.5 26.3854 105.938 29.2812C 108.375 32.1771 109.594 36.3229 109.594 41.7188L 109.594 44.125L 86.6875 44.125C 86.7708 47.4583 87.7396 50.1562 89.5938 52.2188C 91.4688 54.2604 93.8438 55.2812 96.7188 55.2812C 98.7604 55.2812 100.49 54.8646 101.906 54.0312C 103.323 53.1979 104.562 52.0938 105.625 50.7188L 109.156 53.4688C 106.323 57.8229 102.073 60 96.4062 60ZM 95.6875 29.6875C 93.3542 29.6875 91.3958 30.5417 89.8125 32.25C 88.2292 33.9375 87.25 36.3125 86.875 39.375L 103.812 39.375L 103.812 38.9375C 103.646 36 102.854 33.7292 101.438 32.125C 100.021 30.5 98.1042 29.6875 95.6875 29.6875ZM 121.75 25.5625L 121.906 29.3125C 124.385 26.3958 127.729 24.9375 131.938 24.9375C 136.667 24.9375 139.885 26.75 141.594 30.375C 142.719 28.75 144.177 27.4375 145.969 26.4375C 147.781 25.4375 149.917 24.9375 152.375 24.9375C 159.792 24.9375 163.562 28.8646 163.688 36.7188L 163.688 59.375L 157.906 59.375L 157.906 37.0625C 157.906 34.6458 157.354 32.8438 156.25 31.6562C 155.146 30.4479 153.292 29.8438 150.688 29.8438C 148.542 29.8438 146.76 30.4896 145.344 31.7812C 143.927 33.0521 143.104 34.7708 142.875 36.9375L 142.875 59.375L 137.062 59.375L 137.062 37.2188C 137.062 32.3021 134.656 29.8438 129.844 29.8438C 126.052 29.8438 123.458 31.4583 122.062 34.6875L 122.062 59.375L 116.281 59.375L 116.281 25.5625L 121.75 25.5625ZM 196.812 64.0938L 168.188 64.0938L 168.188 59.375L 196.812 59.375L 196.812 64.0938ZM 217.656 30.75C 216.781 30.6042 215.833 30.5312 214.812 30.5312C 211.021 30.5312 208.448 32.1458 207.094 35.375L 207.094 59.375L 201.312 59.375L 201.312 25.5625L 206.938 25.5625L 207.031 29.4688C 208.927 26.4479 211.615 24.9375 215.094 24.9375C 216.219 24.9375 217.073 25.0833 217.656 25.375L 217.656 30.75ZM 236.469 60C 231.885 60 228.156 58.5 225.281 55.5C 222.406 52.4792 220.969 48.4479 220.969 43.4062L 220.969 42.3438C 220.969 38.9896 221.604 36 222.875 33.375C 224.167 30.7292 225.958 28.6667 228.25 27.1875C 230.562 25.6875 233.062 24.9375 235.75 24.9375C 240.146 24.9375 243.562 26.3854 246 29.2812C 248.438 32.1771 249.656 36.3229 249.656 41.7188L 249.656 44.125L 226.75 44.125C 226.833 47.4583 227.802 50.1562 229.656 52.2188C 231.531 54.2604 233.906 55.2812 236.781 55.2812C 238.823 55.2812 240.552 54.8646 241.969 54.0312C 243.385 53.1979 244.625 52.0938 245.688 50.7188L 249.219 53.4688C 246.385 57.8229 242.135 60 236.469 60ZM 235.75 29.6875C 233.417 29.6875 231.458 30.5417 229.875 32.25C 228.292 33.9375 227.312 36.3125 226.938 39.375L 243.875 39.375L 243.875 38.9375C 243.708 36 242.917 33.7292 241.5 32.125C 240.083 30.5 238.167 29.6875 235.75 29.6875ZM 277.25 59.375C 276.917 58.7083 276.646 57.5208 276.438 55.8125C 273.75 58.6042 270.542 60 266.812 60C 263.479 60 260.74 59.0625 258.594 57.1875C 256.469 55.2917 255.406 52.8958 255.406 50C 255.406 46.4792 256.74 43.75 259.406 41.8125C 262.094 39.8542 265.865 38.875 270.719 38.875L 276.344 38.875L 276.344 36.2188C 276.344 34.1979 275.74 32.5938 274.531 31.4062C 273.323 30.1979 271.542 29.5938 269.188 29.5938C 267.125 29.5938 265.396 30.1146 264 31.1562C 262.604 32.1979 261.906 33.4583 261.906 34.9375L 256.094 34.9375C 256.094 33.25 256.688 31.625 257.875 30.0625C 259.083 28.4792 260.708 27.2292 262.75 26.3125C 264.812 25.3958 267.073 24.9375 269.531 24.9375C 273.427 24.9375 276.479 25.9167 278.688 27.875C 280.896 29.8125 282.042 32.4896 282.125 35.9062L 282.125 51.4688C 282.125 54.5729 282.521 57.0417 283.312 58.875L 283.312 59.375L 277.25 59.375ZM 267.656 54.9688C 269.469 54.9688 271.188 54.5 272.812 53.5625C 274.438 52.625 275.615 51.4062 276.344 49.9062L 276.344 42.9688L 271.812 42.9688C 264.729 42.9688 261.188 45.0417 261.188 49.1875C 261.188 51 261.792 52.4167 263 53.4375C 264.208 54.4583 265.76 54.9688 267.656 54.9688ZM 289.781 42.1875C 289.781 37 291.01 32.8333 293.469 29.6875C 295.927 26.5208 299.146 24.9375 303.125 24.9375C 307.083 24.9375 310.219 26.2917 312.531 29L 312.531 11.375L 318.312 11.375L 318.312 59.375L 313 59.375L 312.719 55.75C 310.406 58.5833 307.188 60 303.062 60C 299.146 60 295.948 58.3958 293.469 55.1875C 291.01 51.9792 289.781 47.7917 289.781 42.625L 289.781 42.1875ZM 295.562 42.8438C 295.562 46.6771 296.354 49.6771 297.938 51.8438C 299.521 54.0104 301.708 55.0938 304.5 55.0938C 308.167 55.0938 310.844 53.4479 312.531 50.1562L 312.531 34.625C 310.802 31.4375 308.146 29.8438 304.562 29.8438C 301.729 29.8438 299.521 30.9375 297.938 33.125C 296.354 35.3125 295.562 38.5521 295.562 42.8438ZM 369.625 33.9375L 343.562 33.9375L 343.562 28.9062L 369.625 28.9062L 369.625 33.9375ZM 369.625 46.9062L 343.562 46.9062L 343.562 41.9062L 369.625 41.9062L 369.625 46.9062ZM 404.75 33.9375L 378.688 33.9375L 378.688 28.9062L 404.75 28.9062L 404.75 33.9375ZM 404.75 46.9062L 378.688 46.9062L 378.688 41.9062L 404.75 41.9062L 404.75 46.9062ZM 447.719 59.375L 441.906 59.375L 441.906 20.8438L 430.25 25.125L 430.25 19.875L 446.812 13.6562L 447.719 13.6562L 447.719 59.375ZM 479.594 42.1562C 479.594 38.8438 480.24 35.8646 481.531 33.2188C 482.844 30.5729 484.656 28.5312 486.969 27.0938C 489.302 25.6562 491.958 24.9375 494.938 24.9375C 499.542 24.9375 503.26 26.5312 506.094 29.7188C 508.948 32.9062 510.375 37.1458 510.375 42.4375L 510.375 42.8438C 510.375 46.1354 509.74 49.0938 508.469 51.7188C 507.219 54.3229 505.417 56.3542 503.062 57.8125C 500.729 59.2708 498.042 60 495 60C 490.417 60 486.698 58.4062 483.844 55.2188C 481.01 52.0312 479.594 47.8125 479.594 42.5625L 479.594 42.1562ZM 485.406 42.8438C 485.406 46.5938 486.271 49.6042 488 51.875C 489.75 54.1458 492.083 55.2812 495 55.2812C 497.938 55.2812 500.271 54.1354 502 51.8438C 503.729 49.5312 504.594 46.3021 504.594 42.1562C 504.594 38.4479 503.708 35.4479 501.938 33.1562C 500.188 30.8438 497.854 29.6875 494.938 29.6875C 492.083 29.6875 489.781 30.8229 488.031 33.0938C 486.281 35.3646 485.406 38.6146 485.406 42.8438ZM 533.969 30.75C 533.094 30.6042 532.146 30.5312 531.125 30.5312C 527.333 30.5312 524.76 32.1458 523.406 35.375L 523.406 59.375L 517.625 59.375L 517.625 25.5625L 523.25 25.5625L 523.344 29.4688C 525.24 26.4479 527.927 24.9375 531.406 24.9375C 532.531 24.9375 533.385 25.0833 533.969 25.375L 533.969 30.75ZM 9.8125 100.562L 9.96875 104.312C 12.4479 101.396 15.7917 99.9375 20 99.9375C 24.7292 99.9375 27.9479 101.75 29.6562 105.375C 30.7812 103.75 32.2396 102.438 34.0312 101.438C 35.8438 100.438 37.9792 99.9375 40.4375 99.9375C 47.8542 99.9375 51.625 103.865 51.75 111.719L 51.75 134.375L 45.9688 134.375L 45.9688 112.062C 45.9688 109.646 45.4167 107.844 44.3125 106.656C 43.2083 105.448 41.3542 104.844 38.75 104.844C 36.6042 104.844 34.8229 105.49 33.4062 106.781C 31.9896 108.052 31.1667 109.771 30.9375 111.938L 30.9375 134.375L 25.125 134.375L 25.125 112.219C 25.125 107.302 22.7188 104.844 17.9062 104.844C 14.1146 104.844 11.5208 106.458 10.125 109.688L 10.125 134.375L 4.34375 134.375L 4.34375 100.562L 9.8125 100.562ZM 74.5312 135C 69.9479 135 66.2188 133.5 63.3438 130.5C 60.4688 127.479 59.0312 123.448 59.0312 118.406L 59.0312 117.344C 59.0312 113.99 59.6667 111 60.9375 108.375C 62.2292 105.729 64.0208 103.667 66.3125 102.188C 68.625 100.688 71.125 99.9375 73.8125 99.9375C 78.2083 99.9375 81.625 101.385 84.0625 104.281C 86.5 107.177 87.7188 111.323 87.7188 116.719L 87.7188 119.125L 64.8125 119.125C 64.8958 122.458 65.8646 125.156 67.7188 127.219C 69.5938 129.26 71.9688 130.281 74.8438 130.281C 76.8854 130.281 78.6146 129.865 80.0312 129.031C 81.4479 128.198 82.6875 127.094 83.75 125.719L 87.2812 128.469C 84.4479 132.823 80.1979 135 74.5312 135ZM 73.8125 104.688C 71.4792 104.688 69.5208 105.542 67.9375 107.25C 66.3542 108.938 65.375 111.312 65 114.375L 81.9375 114.375L 81.9375 113.938C 81.7708 111 80.9792 108.729 79.5625 107.125C 78.1458 105.5 76.2292 104.688 73.8125 104.688ZM 99.875 100.562L 100.031 104.312C 102.51 101.396 105.854 99.9375 110.062 99.9375C 114.792 99.9375 118.01 101.75 119.719 105.375C 120.844 103.75 122.302 102.438 124.094 101.438C 125.906 100.438 128.042 99.9375 130.5 99.9375C 137.917 99.9375 141.688 103.865 141.812 111.719L 141.812 134.375L 136.031 134.375L 136.031 112.062C 136.031 109.646 135.479 107.844 134.375 106.656C 133.271 105.448 131.417 104.844 128.812 104.844C 126.667 104.844 124.885 105.49 123.469 106.781C 122.052 108.052 121.229 109.771 121 111.938L 121 134.375L 115.188 134.375L 115.188 112.219C 115.188 107.302 112.781 104.844 107.969 104.844C 104.177 104.844 101.583 106.458 100.188 109.688L 100.188 134.375L 94.4062 134.375L 94.4062 100.562L 99.875 100.562ZM 174.938 139.094L 146.312 139.094L 146.312 134.375L 174.938 134.375L 174.938 139.094ZM 209.375 126.406L 215.875 100.562L 221.656 100.562L 211.812 134.375L 207.125 134.375L 198.906 108.75L 190.906 134.375L 186.219 134.375L 176.406 100.562L 182.156 100.562L 188.812 125.875L 196.688 100.562L 201.344 100.562L 209.375 126.406ZM 243.906 105.75C 243.031 105.604 242.083 105.531 241.062 105.531C 237.271 105.531 234.698 107.146 233.344 110.375L 233.344 134.375L 227.562 134.375L 227.562 100.562L 233.188 100.562L 233.281 104.469C 235.177 101.448 237.865 99.9375 241.344 99.9375C 242.469 99.9375 243.323 100.083 243.906 100.375L 243.906 105.75ZM 255.531 134.375L 249.75 134.375L 249.75 100.562L 255.531 100.562L 255.531 134.375ZM 249.281 91.5938C 249.281 90.6562 249.562 89.8646 250.125 89.2188C 250.708 88.5729 251.562 88.25 252.688 88.25C 253.812 88.25 254.667 88.5729 255.25 89.2188C 255.833 89.8646 256.125 90.6562 256.125 91.5938C 256.125 92.5312 255.833 93.3125 255.25 93.9375C 254.667 94.5625 253.812 94.875 252.688 94.875C 251.562 94.875 250.708 94.5625 250.125 93.9375C 249.562 93.3125 249.281 92.5312 249.281 91.5938ZM 272.656 92.375L 272.656 100.562L 278.969 100.562L 278.969 105.031L 272.656 105.031L 272.656 126C 272.656 127.354 272.938 128.375 273.5 129.062C 274.062 129.729 275.021 130.062 276.375 130.062C 277.042 130.062 277.958 129.938 279.125 129.688L 279.125 134.375C 277.604 134.792 276.125 135 274.688 135C 272.104 135 270.156 134.219 268.844 132.656C 267.531 131.094 266.875 128.875 266.875 126L 266.875 105.031L 260.719 105.031L 260.719 100.562L 266.875 100.562L 266.875 92.375L 272.656 92.375ZM 299.781 135C 295.198 135 291.469 133.5 288.594 130.5C 285.719 127.479 284.281 123.448 284.281 118.406L 284.281 117.344C 284.281 113.99 284.917 111 286.188 108.375C 287.479 105.729 289.271 103.667 291.562 102.188C 293.875 100.688 296.375 99.9375 299.062 99.9375C 303.458 99.9375 306.875 101.385 309.312 104.281C 311.75 107.177 312.969 111.323 312.969 116.719L 312.969 119.125L 290.062 119.125C 290.146 122.458 291.115 125.156 292.969 127.219C 294.844 129.26 297.219 130.281 300.094 130.281C 302.135 130.281 303.865 129.865 305.281 129.031C 306.698 128.198 307.938 127.094 309 125.719L 312.531 128.469C 309.698 132.823 305.448 135 299.781 135ZM 299.062 104.688C 296.729 104.688 294.771 105.542 293.188 107.25C 291.604 108.938 290.625 111.312 290.25 114.375L 307.188 114.375L 307.188 113.938C 307.021 111 306.229 108.729 304.812 107.125C 303.396 105.5 301.479 104.688 299.062 104.688ZM 362 108.938L 335.938 108.938L 335.938 103.906L 362 103.906L 362 108.938ZM 362 121.906L 335.938 121.906L 335.938 116.906L 362 116.906L 362 121.906ZM 397.125 108.938L 371.062 108.938L 371.062 103.906L 397.125 103.906L 397.125 108.938ZM 397.125 121.906L 371.062 121.906L 371.062 116.906L 397.125 116.906L 397.125 121.906ZM 440.094 134.375L 434.281 134.375L 434.281 95.8438L 422.625 100.125L 422.625 94.875L 439.188 88.6562L 440.094 88.6562L 440.094 134.375ZM 470.969 116.219C 470.969 120.865 470.354 125.323 469.125 129.594C 467.917 133.844 466.052 137.771 463.531 141.375C 461.031 144.979 458.406 147.542 455.656 149.062L 454.438 145.531C 457.646 143.073 460.219 139.26 462.156 134.094C 464.115 128.906 465.115 123.156 465.156 116.844L 465.156 115.844C 465.156 111.469 464.698 107.406 463.781 103.656C 462.865 99.8854 461.583 96.5104 459.938 93.5312C 458.312 90.5521 456.479 88.2292 454.438 86.5625L 455.656 83.0312C 458.406 84.5521 461.021 87.0938 463.5 90.6562C 466 94.2188 467.865 98.1458 469.094 102.438C 470.344 106.729 470.969 111.323 470.969 116.219ZM 25.25 209.375C 24.9167 208.708 24.6458 207.521 24.4375 205.812C 21.75 208.604 18.5417 210 14.8125 210C 11.4792 210 8.73958 209.062 6.59375 207.188C 4.46875 205.292 3.40625 202.896 3.40625 200C 3.40625 196.479 4.73958 193.75 7.40625 191.812C 10.0938 189.854 13.8646 188.875 18.7188 188.875L 24.3438 188.875L 24.3438 186.219C 24.3438 184.198 23.7396 182.594 22.5312 181.406C 21.3229 180.198 19.5417 179.594 17.1875 179.594C 15.125 179.594 13.3958 180.115 12 181.156C 10.6042 182.198 9.90625 183.458 9.90625 184.938L 4.09375 184.938C 4.09375 183.25 4.6875 181.625 5.875 180.062C 7.08333 178.479 8.70833 177.229 10.75 176.312C 12.8125 175.396 15.0729 174.938 17.5312 174.938C 21.4271 174.938 24.4792 175.917 26.6875 177.875C 28.8958 179.812 30.0417 182.49 30.125 185.906L 30.125 201.469C 30.125 204.573 30.5208 207.042 31.3125 208.875L 31.3125 209.375L 25.25 209.375ZM 15.6562 204.969C 17.4688 204.969 19.1875 204.5 20.8125 203.562C 22.4375 202.625 23.6146 201.406 24.3438 199.906L 24.3438 192.969L 19.8125 192.969C 12.7292 192.969 9.1875 195.042 9.1875 199.188C 9.1875 201 9.79167 202.417 11 203.438C 12.2083 204.458 13.7604 204.969 15.6562 204.969ZM 44.6562 175.562L 44.8438 179.812C 47.4271 176.562 50.8021 174.938 54.9688 174.938C 62.1146 174.938 65.7188 178.969 65.7812 187.031L 65.7812 209.375L 60 209.375L 60 187C 59.9792 184.562 59.4167 182.76 58.3125 181.594C 57.2292 180.427 55.5312 179.844 53.2188 179.844C 51.3438 179.844 49.6979 180.344 48.2812 181.344C 46.8646 182.344 45.7604 183.656 44.9688 185.281L 44.9688 209.375L 39.1875 209.375L 39.1875 175.562L 44.6562 175.562ZM 73.0938 192.188C 73.0938 187 74.3229 182.833 76.7812 179.688C 79.2396 176.521 82.4583 174.938 86.4375 174.938C 90.3958 174.938 93.5312 176.292 95.8438 179L 95.8438 161.375L 101.625 161.375L 101.625 209.375L 96.3125 209.375L 96.0312 205.75C 93.7188 208.583 90.5 210 86.375 210C 82.4583 210 79.2604 208.396 76.7812 205.188C 74.3229 201.979 73.0938 197.792 73.0938 192.625L 73.0938 192.188ZM 78.875 192.844C 78.875 196.677 79.6667 199.677 81.25 201.844C 82.8333 204.01 85.0208 205.094 87.8125 205.094C 91.4792 205.094 94.1562 203.448 95.8438 200.156L 95.8438 184.625C 94.1146 181.438 91.4583 179.844 87.875 179.844C 85.0417 179.844 82.8333 180.938 81.25 183.125C 79.6667 185.312 78.875 188.552 78.875 192.844ZM 132.281 179.656C 134.844 176.51 138.177 174.938 142.281 174.938C 149.427 174.938 153.031 178.969 153.094 187.031L 153.094 209.375L 147.312 209.375L 147.312 187C 147.292 184.562 146.729 182.76 145.625 181.594C 144.542 180.427 142.844 179.844 140.531 179.844C 138.656 179.844 137.01 180.344 135.594 181.344C 134.177 182.344 133.073 183.656 132.281 185.281L 132.281 209.375L 126.5 209.375L 126.5 161.375L 132.281 161.375L 132.281 179.656ZM 168.031 209.375L 162.25 209.375L 162.25 175.562L 168.031 175.562L 168.031 209.375ZM 161.781 166.594C 161.781 165.656 162.062 164.865 162.625 164.219C 163.208 163.573 164.062 163.25 165.188 163.25C 166.312 163.25 167.167 163.573 167.75 164.219C 168.333 164.865 168.625 165.656 168.625 166.594C 168.625 167.531 168.333 168.312 167.75 168.938C 167.167 169.562 166.312 169.875 165.188 169.875C 164.062 169.875 163.208 169.562 162.625 168.938C 162.062 168.312 161.781 167.531 161.781 166.594ZM 185.156 167.375L 185.156 175.562L 191.469 175.562L 191.469 180.031L 185.156 180.031L 185.156 201C 185.156 202.354 185.438 203.375 186 204.062C 186.562 204.729 187.521 205.062 188.875 205.062C 189.542 205.062 190.458 204.938 191.625 204.688L 191.625 209.375C 190.104 209.792 188.625 210 187.188 210C 184.604 210 182.656 209.219 181.344 207.656C 180.031 206.094 179.375 203.875 179.375 201L 179.375 180.031L 173.219 180.031L 173.219 175.562L 179.375 175.562L 179.375 167.375L 185.156 167.375ZM 240.562 183.938L 214.5 183.938L 214.5 178.906L 240.562 178.906L 240.562 183.938ZM 240.562 196.906L 214.5 196.906L 214.5 191.906L 240.562 191.906L 240.562 196.906ZM 275.688 183.938L 249.625 183.938L 249.625 178.906L 275.688 178.906L 275.688 183.938ZM 275.688 196.906L 249.625 196.906L 249.625 191.906L 275.688 191.906L 275.688 196.906ZM 328.188 189.969C 328.188 196.74 327.031 201.771 324.719 205.062C 322.406 208.354 318.792 210 313.875 210C 309.021 210 305.427 208.396 303.094 205.188C 300.76 201.958 299.552 197.146 299.469 190.75L 299.469 183.031C 299.469 176.344 300.625 171.375 302.938 168.125C 305.25 164.875 308.875 163.25 313.812 163.25C 318.708 163.25 322.312 164.823 324.625 167.969C 326.938 171.094 328.125 175.927 328.188 182.469L 328.188 189.969ZM 322.406 182.062C 322.406 177.167 321.719 173.604 320.344 171.375C 318.969 169.125 316.792 168 313.812 168C 310.854 168 308.698 169.115 307.344 171.344C 305.99 173.573 305.292 177 305.25 181.625L 305.25 190.875C 305.25 195.792 305.958 199.427 307.375 201.781C 308.812 204.115 310.979 205.281 313.875 205.281C 316.729 205.281 318.844 204.177 320.219 201.969C 321.615 199.76 322.344 196.281 322.406 191.531L 322.406 182.062ZM 25.25 284.375C 24.9167 283.708 24.6458 282.521 24.4375 280.812C 21.75 283.604 18.5417 285 14.8125 285C 11.4792 285 8.73958 284.062 6.59375 282.188C 4.46875 280.292 3.40625 277.896 3.40625 275C 3.40625 271.479 4.73958 268.75 7.40625 266.812C 10.0938 264.854 13.8646 263.875 18.7188 263.875L 24.3438 263.875L 24.3438 261.219C 24.3438 259.198 23.7396 257.594 22.5312 256.406C 21.3229 255.198 19.5417 254.594 17.1875 254.594C 15.125 254.594 13.3958 255.115 12 256.156C 10.6042 257.198 9.90625 258.458 9.90625 259.938L 4.09375 259.938C 4.09375 258.25 4.6875 256.625 5.875 255.062C 7.08333 253.479 8.70833 252.229 10.75 251.312C 12.8125 250.396 15.0729 249.938 17.5312 249.938C 21.4271 249.938 24.4792 250.917 26.6875 252.875C 28.8958 254.812 30.0417 257.49 30.125 260.906L 30.125 276.469C 30.125 279.573 30.5208 282.042 31.3125 283.875L 31.3125 284.375L 25.25 284.375ZM 15.6562 279.969C 17.4688 279.969 19.1875 279.5 20.8125 278.562C 22.4375 277.625 23.6146 276.406 24.3438 274.906L 24.3438 267.969L 19.8125 267.969C 12.7292 267.969 9.1875 270.042 9.1875 274.188C 9.1875 276 9.79167 277.417 11 278.438C 12.2083 279.458 13.7604 279.969 15.6562 279.969ZM 44.6562 250.562L 44.8438 254.812C 47.4271 251.562 50.8021 249.938 54.9688 249.938C 62.1146 249.938 65.7188 253.969 65.7812 262.031L 65.7812 284.375L 60 284.375L 60 262C 59.9792 259.562 59.4167 257.76 58.3125 256.594C 57.2292 255.427 55.5312 254.844 53.2188 254.844C 51.3438 254.844 49.6979 255.344 48.2812 256.344C 46.8646 257.344 45.7604 258.656 44.9688 260.281L 44.9688 284.375L 39.1875 284.375L 39.1875 250.562L 44.6562 250.562ZM 73.0938 267.188C 73.0938 262 74.3229 257.833 76.7812 254.688C 79.2396 251.521 82.4583 249.938 86.4375 249.938C 90.3958 249.938 93.5312 251.292 95.8438 254L 95.8438 236.375L 101.625 236.375L 101.625 284.375L 96.3125 284.375L 96.0312 280.75C 93.7188 283.583 90.5 285 86.375 285C 82.4583 285 79.2604 283.396 76.7812 280.188C 74.3229 276.979 73.0938 272.792 73.0938 267.625L 73.0938 267.188ZM 78.875 267.844C 78.875 271.677 79.6667 274.677 81.25 276.844C 82.8333 279.01 85.0208 280.094 87.8125 280.094C 91.4792 280.094 94.1562 278.448 95.8438 275.156L 95.8438 259.625C 94.1146 256.438 91.4583 254.844 87.875 254.844C 85.0417 254.844 82.8333 255.938 81.25 258.125C 79.6667 260.312 78.875 263.552 78.875 267.844ZM 125.094 267.188C 125.094 262 126.323 257.833 128.781 254.688C 131.24 251.521 134.458 249.938 138.438 249.938C 142.396 249.938 145.531 251.292 147.844 254L 147.844 236.375L 153.625 236.375L 153.625 284.375L 148.312 284.375L 148.031 280.75C 145.719 283.583 142.5 285 138.375 285C 134.458 285 131.26 283.396 128.781 280.188C 126.323 276.979 125.094 272.792 125.094 267.625L 125.094 267.188ZM 130.875 267.844C 130.875 271.677 131.667 274.677 133.25 276.844C 134.833 279.01 137.021 280.094 139.812 280.094C 143.479 280.094 146.156 278.448 147.844 275.156L 147.844 259.625C 146.115 256.438 143.458 254.844 139.875 254.844C 137.042 254.844 134.833 255.938 133.25 258.125C 131.667 260.312 130.875 263.552 130.875 267.844ZM 168.906 284.375L 163.125 284.375L 163.125 250.562L 168.906 250.562L 168.906 284.375ZM 162.656 241.594C 162.656 240.656 162.938 239.865 163.5 239.219C 164.083 238.573 164.938 238.25 166.062 238.25C 167.188 238.25 168.042 238.573 168.625 239.219C 169.208 239.865 169.5 240.656 169.5 241.594C 169.5 242.531 169.208 243.312 168.625 243.938C 168.042 244.562 167.188 244.875 166.062 244.875C 164.938 244.875 164.083 244.562 163.5 243.938C 162.938 243.312 162.656 242.531 162.656 241.594ZM 194.531 255.75C 193.656 255.604 192.708 255.531 191.688 255.531C 187.896 255.531 185.323 257.146 183.969 260.375L 183.969 284.375L 178.188 284.375L 178.188 250.562L 183.812 250.562L 183.906 254.469C 185.802 251.448 188.49 249.938 191.969 249.938C 193.094 249.938 193.948 250.083 194.531 250.375L 194.531 255.75ZM 209.281 242.375L 209.281 250.562L 215.594 250.562L 215.594 255.031L 209.281 255.031L 209.281 276C 209.281 277.354 209.562 278.375 210.125 279.062C 210.688 279.729 211.646 280.062 213 280.062C 213.667 280.062 214.583 279.938 215.75 279.688L 215.75 284.375C 214.229 284.792 212.75 285 211.312 285C 208.729 285 206.781 284.219 205.469 282.656C 204.156 281.094 203.5 278.875 203.5 276L 203.5 255.031L 197.344 255.031L 197.344 250.562L 203.5 250.562L 203.5 242.375L 209.281 242.375ZM 233.438 275.906L 241.312 250.562L 247.5 250.562L 233.906 289.594C 231.802 295.219 228.458 298.031 223.875 298.031L 222.781 297.938L 220.625 297.531L 220.625 292.844L 222.188 292.969C 224.146 292.969 225.667 292.573 226.75 291.781C 227.854 290.99 228.76 289.542 229.469 287.438L 230.75 284L 218.688 250.562L 225 250.562L 233.438 275.906ZM 295 258.938L 268.938 258.938L 268.938 253.906L 295 253.906L 295 258.938ZM 295 271.906L 268.938 271.906L 268.938 266.906L 295 266.906L 295 271.906ZM 330.125 258.938L 304.062 258.938L 304.062 253.906L 330.125 253.906L 330.125 258.938ZM 330.125 271.906L 304.062 271.906L 304.062 266.906L 330.125 266.906L 330.125 271.906ZM 382.625 264.969C 382.625 271.74 381.469 276.771 379.156 280.062C 376.844 283.354 373.229 285 368.312 285C 363.458 285 359.865 283.396 357.531 280.188C 355.198 276.958 353.99 272.146 353.906 265.75L 353.906 258.031C 353.906 251.344 355.062 246.375 357.375 243.125C 359.688 239.875 363.312 238.25 368.25 238.25C 373.146 238.25 376.75 239.823 379.062 242.969C 381.375 246.094 382.562 250.927 382.625 257.469L 382.625 264.969ZM 376.844 257.062C 376.844 252.167 376.156 248.604 374.781 246.375C 373.406 244.125 371.229 243 368.25 243C 365.292 243 363.135 244.115 361.781 246.344C 360.427 248.573 359.729 252 359.688 256.625L 359.688 265.875C 359.688 270.792 360.396 274.427 361.812 276.781C 363.25 279.115 365.417 280.281 368.312 280.281C 371.167 280.281 373.281 279.177 374.656 276.969C 376.052 274.76 376.781 271.281 376.844 266.531L 376.844 257.062Z"/>
<path id="path12_stroke" d="M 942.496 622.085L 952.581 628.588L 965.588 608.419L 955.504 601.915L 942.496 622.085ZM 6.50359 -10.0848L -3.58122 -16.5884L -16.5884 3.58122L -6.50359 10.0848L 6.50359 -10.0848ZM 955.504 601.915L 6.50359 -10.0848L -6.50359 10.0848L 942.496 622.085L 955.504 601.915Z"/>
<path id="path13_stroke" d="M 5.64868 19.5635L 21.8802 24.6171L 31.9872 -7.84595L 15.7557 -12.8995L 5.64868 19.5635ZM 0 0L 5.05353 -16.2315L -53.3803 -34.4243L -12.701 11.2997L 0 0ZM -5.25059 19.6741L 6.04913 32.3751L 31.4512 9.7757L 20.1515 -2.92533L -5.25059 19.6741ZM 15.7557 -12.8995L 5.05353 -16.2315L -5.05353 16.2315L 5.64868 19.5635L 15.7557 -12.8995ZM -12.701 11.2997L -5.25059 19.6741L 20.1515 -2.92533L 12.701 -11.2997L -12.701 11.2997Z"/>
<path id="path14_stroke" d="M 12 0L 12 -12L -12 -12L -12 0L 12 0ZM -12 1135.5L -12 1147.5L 12 1147.5L 12 1135.5L -12 1135.5ZM -12 0L -12 1135.5L 12 1135.5L 12 0L -12 0Z"/>
<path id="path15_stroke" d="M 16.3799 -4.54998L 11.8299 -20.9298L -20.9297 -11.8299L -16.3798 4.54988L 16.3799 -4.54998ZM 3.00004 10.8L -13.3798 15.3499L 3.00005 74.3175L 19.3799 15.3499L 3.00004 10.8ZM 22.3799 4.54988L 26.9298 -11.8299L -5.82984 -20.9298L -10.3798 -4.54997L 22.3799 4.54988ZM -16.3798 4.54988L -13.3798 15.3499L 19.3799 6.25007L 16.3799 -4.54998L -16.3798 4.54988ZM 19.3799 15.3499L 22.3799 4.54988L -10.3798 -4.54997L -13.3798 6.25007L 19.3799 15.3499Z"/>
<path id="path16_fill" d="M 4.15625 40.9062C 4.15625 36.1979 4.78125 31.6771 6.03125 27.3438C 7.30208 23.0104 9.1875 19.0729 11.6875 15.5312C 14.1875 11.9896 16.7812 9.48958 19.4688 8.03125L 20.6562 11.8438C 17.6146 14.1771 15.1146 17.7396 13.1562 22.5312C 11.2188 27.3229 10.1562 32.6875 9.96875 38.625L 9.9375 41.2812C 9.9375 49.3229 11.4062 56.3021 14.3438 62.2188C 16.1146 65.7604 18.2188 68.5312 20.6562 70.5312L 19.4688 74.0625C 16.6979 72.5208 14.0521 69.9375 11.5312 66.3125C 6.61458 59.2292 4.15625 50.7604 4.15625 40.9062ZM 31.6875 25.5625L 31.8438 29.3125C 34.3229 26.3958 37.6667 24.9375 41.875 24.9375C 46.6042 24.9375 49.8229 26.75 51.5312 30.375C 52.6562 28.75 54.1146 27.4375 55.9062 26.4375C 57.7188 25.4375 59.8542 24.9375 62.3125 24.9375C 69.7292 24.9375 73.5 28.8646 73.625 36.7188L 73.625 59.375L 67.8438 59.375L 67.8438 37.0625C 67.8438 34.6458 67.2917 32.8438 66.1875 31.6562C 65.0833 30.4479 63.2292 29.8438 60.625 29.8438C 58.4792 29.8438 56.6979 30.4896 55.2812 31.7812C 53.8646 33.0521 53.0417 34.7708 52.8125 36.9375L 52.8125 59.375L 47 59.375L 47 37.2188C 47 32.3021 44.5938 29.8438 39.7812 29.8438C 35.9896 29.8438 33.3958 31.4583 32 34.6875L 32 59.375L 26.2188 59.375L 26.2188 25.5625L 31.6875 25.5625ZM 96.4062 60C 91.8229 60 88.0938 58.5 85.2188 55.5C 82.3438 52.4792 80.9062 48.4479 80.9062 43.4062L 80.9062 42.3438C 80.9062 38.9896 81.5417 36 82.8125 33.375C 84.1042 30.7292 85.8958 28.6667 88.1875 27.1875C 90.5 25.6875 93 24.9375 95.6875 24.9375C 100.083 24.9375 103.5 26.3854 105.938 29.2812C 108.375 32.1771 109.594 36.3229 109.594 41.7188L 109.594 44.125L 86.6875 44.125C 86.7708 47.4583 87.7396 50.1562 89.5938 52.2188C 91.4688 54.2604 93.8438 55.2812 96.7188 55.2812C 98.7604 55.2812 100.49 54.8646 101.906 54.0312C 103.323 53.1979 104.562 52.0938 105.625 50.7188L 109.156 53.4688C 106.323 57.8229 102.073 60 96.4062 60ZM 95.6875 29.6875C 93.3542 29.6875 91.3958 30.5417 89.8125 32.25C 88.2292 33.9375 87.25 36.3125 86.875 39.375L 103.812 39.375L 103.812 38.9375C 103.646 36 102.854 33.7292 101.438 32.125C 100.021 30.5 98.1042 29.6875 95.6875 29.6875ZM 121.75 25.5625L 121.906 29.3125C 124.385 26.3958 127.729 24.9375 131.938 24.9375C 136.667 24.9375 139.885 26.75 141.594 30.375C 142.719 28.75 144.177 27.4375 145.969 26.4375C 147.781 25.4375 149.917 24.9375 152.375 24.9375C 159.792 24.9375 163.562 28.8646 163.688 36.7188L 163.688 59.375L 157.906 59.375L 157.906 37.0625C 157.906 34.6458 157.354 32.8438 156.25 31.6562C 155.146 30.4479 153.292 29.8438 150.688 29.8438C 148.542 29.8438 146.76 30.4896 145.344 31.7812C 143.927 33.0521 143.104 34.7708 142.875 36.9375L 142.875 59.375L 137.062 59.375L 137.062 37.2188C 137.062 32.3021 134.656 29.8438 129.844 29.8438C 126.052 29.8438 123.458 31.4583 122.062 34.6875L 122.062 59.375L 116.281 59.375L 116.281 25.5625L 121.75 25.5625ZM 196.812 64.0938L 168.188 64.0938L 168.188 59.375L 196.812 59.375L 196.812 64.0938ZM 217.656 30.75C 216.781 30.6042 215.833 30.5312 214.812 30.5312C 211.021 30.5312 208.448 32.1458 207.094 35.375L 207.094 59.375L 201.312 59.375L 201.312 25.5625L 206.938 25.5625L 207.031 29.4688C 208.927 26.4479 211.615 24.9375 215.094 24.9375C 216.219 24.9375 217.073 25.0833 217.656 25.375L 217.656 30.75ZM 236.469 60C 231.885 60 228.156 58.5 225.281 55.5C 222.406 52.4792 220.969 48.4479 220.969 43.4062L 220.969 42.3438C 220.969 38.9896 221.604 36 222.875 33.375C 224.167 30.7292 225.958 28.6667 228.25 27.1875C 230.562 25.6875 233.062 24.9375 235.75 24.9375C 240.146 24.9375 243.562 26.3854 246 29.2812C 248.438 32.1771 249.656 36.3229 249.656 41.7188L 249.656 44.125L 226.75 44.125C 226.833 47.4583 227.802 50.1562 229.656 52.2188C 231.531 54.2604 233.906 55.2812 236.781 55.2812C 238.823 55.2812 240.552 54.8646 241.969 54.0312C 243.385 53.1979 244.625 52.0938 245.688 50.7188L 249.219 53.4688C 246.385 57.8229 242.135 60 236.469 60ZM 235.75 29.6875C 233.417 29.6875 231.458 30.5417 229.875 32.25C 228.292 33.9375 227.312 36.3125 226.938 39.375L 243.875 39.375L 243.875 38.9375C 243.708 36 242.917 33.7292 241.5 32.125C 240.083 30.5 238.167 29.6875 235.75 29.6875ZM 277.25 59.375C 276.917 58.7083 276.646 57.5208 276.438 55.8125C 273.75 58.6042 270.542 60 266.812 60C 263.479 60 260.74 59.0625 258.594 57.1875C 256.469 55.2917 255.406 52.8958 255.406 50C 255.406 46.4792 256.74 43.75 259.406 41.8125C 262.094 39.8542 265.865 38.875 270.719 38.875L 276.344 38.875L 276.344 36.2188C 276.344 34.1979 275.74 32.5938 274.531 31.4062C 273.323 30.1979 271.542 29.5938 269.188 29.5938C 267.125 29.5938 265.396 30.1146 264 31.1562C 262.604 32.1979 261.906 33.4583 261.906 34.9375L 256.094 34.9375C 256.094 33.25 256.688 31.625 257.875 30.0625C 259.083 28.4792 260.708 27.2292 262.75 26.3125C 264.812 25.3958 267.073 24.9375 269.531 24.9375C 273.427 24.9375 276.479 25.9167 278.688 27.875C 280.896 29.8125 282.042 32.4896 282.125 35.9062L 282.125 51.4688C 282.125 54.5729 282.521 57.0417 283.312 58.875L 283.312 59.375L 277.25 59.375ZM 267.656 54.9688C 269.469 54.9688 271.188 54.5 272.812 53.5625C 274.438 52.625 275.615 51.4062 276.344 49.9062L 276.344 42.9688L 271.812 42.9688C 264.729 42.9688 261.188 45.0417 261.188 49.1875C 261.188 51 261.792 52.4167 263 53.4375C 264.208 54.4583 265.76 54.9688 267.656 54.9688ZM 289.781 42.1875C 289.781 37 291.01 32.8333 293.469 29.6875C 295.927 26.5208 299.146 24.9375 303.125 24.9375C 307.083 24.9375 310.219 26.2917 312.531 29L 312.531 11.375L 318.312 11.375L 318.312 59.375L 313 59.375L 312.719 55.75C 310.406 58.5833 307.188 60 303.062 60C 299.146 60 295.948 58.3958 293.469 55.1875C 291.01 51.9792 289.781 47.7917 289.781 42.625L 289.781 42.1875ZM 295.562 42.8438C 295.562 46.6771 296.354 49.6771 297.938 51.8438C 299.521 54.0104 301.708 55.0938 304.5 55.0938C 308.167 55.0938 310.844 53.4479 312.531 50.1562L 312.531 34.625C 310.802 31.4375 308.146 29.8438 304.562 29.8438C 301.729 29.8438 299.521 30.9375 297.938 33.125C 296.354 35.3125 295.562 38.5521 295.562 42.8438ZM 369.625 33.9375L 343.562 33.9375L 343.562 28.9062L 369.625 28.9062L 369.625 33.9375ZM 369.625 46.9062L 343.562 46.9062L 343.562 41.9062L 369.625 41.9062L 369.625 46.9062ZM 404.75 33.9375L 378.688 33.9375L 378.688 28.9062L 404.75 28.9062L 404.75 33.9375ZM 404.75 46.9062L 378.688 46.9062L 378.688 41.9062L 404.75 41.9062L 404.75 46.9062ZM 447.719 59.375L 441.906 59.375L 441.906 20.8438L 430.25 25.125L 430.25 19.875L 446.812 13.6562L 447.719 13.6562L 447.719 59.375ZM 479.594 42.1562C 479.594 38.8438 480.24 35.8646 481.531 33.2188C 482.844 30.5729 484.656 28.5312 486.969 27.0938C 489.302 25.6562 491.958 24.9375 494.938 24.9375C 499.542 24.9375 503.26 26.5312 506.094 29.7188C 508.948 32.9062 510.375 37.1458 510.375 42.4375L 510.375 42.8438C 510.375 46.1354 509.74 49.0938 508.469 51.7188C 507.219 54.3229 505.417 56.3542 503.062 57.8125C 500.729 59.2708 498.042 60 495 60C 490.417 60 486.698 58.4062 483.844 55.2188C 481.01 52.0312 479.594 47.8125 479.594 42.5625L 479.594 42.1562ZM 485.406 42.8438C 485.406 46.5938 486.271 49.6042 488 51.875C 489.75 54.1458 492.083 55.2812 495 55.2812C 497.938 55.2812 500.271 54.1354 502 51.8438C 503.729 49.5312 504.594 46.3021 504.594 42.1562C 504.594 38.4479 503.708 35.4479 501.938 33.1562C 500.188 30.8438 497.854 29.6875 494.938 29.6875C 492.083 29.6875 489.781 30.8229 488.031 33.0938C 486.281 35.3646 485.406 38.6146 485.406 42.8438ZM 533.969 30.75C 533.094 30.6042 532.146 30.5312 531.125 30.5312C 527.333 30.5312 524.76 32.1458 523.406 35.375L 523.406 59.375L 517.625 59.375L 517.625 25.5625L 523.25 25.5625L 523.344 29.4688C 525.24 26.4479 527.927 24.9375 531.406 24.9375C 532.531 24.9375 533.385 25.0833 533.969 25.375L 533.969 30.75ZM 560.625 25.5625L 560.781 29.3125C 563.26 26.3958 566.604 24.9375 570.812 24.9375C 575.542 24.9375 578.76 26.75 580.469 30.375C 581.594 28.75 583.052 27.4375 584.844 26.4375C 586.656 25.4375 588.792 24.9375 591.25 24.9375C 598.667 24.9375 602.438 28.8646 602.562 36.7188L 602.562 59.375L 596.781 59.375L 596.781 37.0625C 596.781 34.6458 596.229 32.8438 595.125 31.6562C 594.021 30.4479 592.167 29.8438 589.562 29.8438C 587.417 29.8438 585.635 30.4896 584.219 31.7812C 582.802 33.0521 581.979 34.7708 581.75 36.9375L 581.75 59.375L 575.938 59.375L 575.938 37.2188C 575.938 32.3021 573.531 29.8438 568.719 29.8438C 564.927 29.8438 562.333 31.4583 560.938 34.6875L 560.938 59.375L 555.156 59.375L 555.156 25.5625L 560.625 25.5625ZM 625.344 60C 620.76 60 617.031 58.5 614.156 55.5C 611.281 52.4792 609.844 48.4479 609.844 43.4062L 609.844 42.3438C 609.844 38.9896 610.479 36 611.75 33.375C 613.042 30.7292 614.833 28.6667 617.125 27.1875C 619.438 25.6875 621.938 24.9375 624.625 24.9375C 629.021 24.9375 632.438 26.3854 634.875 29.2812C 637.312 32.1771 638.531 36.3229 638.531 41.7188L 638.531 44.125L 615.625 44.125C 615.708 47.4583 616.677 50.1562 618.531 52.2188C 620.406 54.2604 622.781 55.2812 625.656 55.2812C 627.698 55.2812 629.427 54.8646 630.844 54.0312C 632.26 53.1979 633.5 52.0938 634.562 50.7188L 638.094 53.4688C 635.26 57.8229 631.01 60 625.344 60ZM 624.625 29.6875C 622.292 29.6875 620.333 30.5417 618.75 32.25C 617.167 33.9375 616.188 36.3125 615.812 39.375L 632.75 39.375L 632.75 38.9375C 632.583 36 631.792 33.7292 630.375 32.125C 628.958 30.5 627.042 29.6875 624.625 29.6875ZM 650.688 25.5625L 650.844 29.3125C 653.323 26.3958 656.667 24.9375 660.875 24.9375C 665.604 24.9375 668.823 26.75 670.531 30.375C 671.656 28.75 673.115 27.4375 674.906 26.4375C 676.719 25.4375 678.854 24.9375 681.312 24.9375C 688.729 24.9375 692.5 28.8646 692.625 36.7188L 692.625 59.375L 686.844 59.375L 686.844 37.0625C 686.844 34.6458 686.292 32.8438 685.188 31.6562C 684.083 30.4479 682.229 29.8438 679.625 29.8438C 677.479 29.8438 675.698 30.4896 674.281 31.7812C 672.865 33.0521 672.042 34.7708 671.812 36.9375L 671.812 59.375L 666 59.375L 666 37.2188C 666 32.3021 663.594 29.8438 658.781 29.8438C 654.99 29.8438 652.396 31.4583 651 34.6875L 651 59.375L 645.219 59.375L 645.219 25.5625L 650.688 25.5625ZM 725.75 64.0938L 697.125 64.0938L 697.125 59.375L 725.75 59.375L 725.75 64.0938ZM 760.188 51.4062L 766.688 25.5625L 772.469 25.5625L 762.625 59.375L 757.938 59.375L 749.719 33.75L 741.719 59.375L 737.031 59.375L 727.219 25.5625L 732.969 25.5625L 739.625 50.875L 747.5 25.5625L 752.156 25.5625L 760.188 51.4062ZM 794.719 30.75C 793.844 30.6042 792.896 30.5312 791.875 30.5312C 788.083 30.5312 785.51 32.1458 784.156 35.375L 784.156 59.375L 778.375 59.375L 778.375 25.5625L 784 25.5625L 784.094 29.4688C 785.99 26.4479 788.677 24.9375 792.156 24.9375C 793.281 24.9375 794.135 25.0833 794.719 25.375L 794.719 30.75ZM 806.344 59.375L 800.562 59.375L 800.562 25.5625L 806.344 25.5625L 806.344 59.375ZM 800.094 16.5938C 800.094 15.6562 800.375 14.8646 800.938 14.2188C 801.521 13.5729 802.375 13.25 803.5 13.25C 804.625 13.25 805.479 13.5729 806.062 14.2188C 806.646 14.8646 806.938 15.6562 806.938 16.5938C 806.938 17.5312 806.646 18.3125 806.062 18.9375C 805.479 19.5625 804.625 19.875 803.5 19.875C 802.375 19.875 801.521 19.5625 800.938 18.9375C 800.375 18.3125 800.094 17.5312 800.094 16.5938ZM 823.469 17.375L 823.469 25.5625L 829.781 25.5625L 829.781 30.0312L 823.469 30.0312L 823.469 51C 823.469 52.3542 823.75 53.375 824.312 54.0625C 824.875 54.7292 825.833 55.0625 827.188 55.0625C 827.854 55.0625 828.771 54.9375 829.938 54.6875L 829.938 59.375C 828.417 59.7917 826.938 60 825.5 60C 822.917 60 820.969 59.2188 819.656 57.6562C 818.344 56.0938 817.688 53.875 817.688 51L 817.688 30.0312L 811.531 30.0312L 811.531 25.5625L 817.688 25.5625L 817.688 17.375L 823.469 17.375ZM 850.594 60C 846.01 60 842.281 58.5 839.406 55.5C 836.531 52.4792 835.094 48.4479 835.094 43.4062L 835.094 42.3438C 835.094 38.9896 835.729 36 837 33.375C 838.292 30.7292 840.083 28.6667 842.375 27.1875C 844.688 25.6875 847.188 24.9375 849.875 24.9375C 854.271 24.9375 857.688 26.3854 860.125 29.2812C 862.562 32.1771 863.781 36.3229 863.781 41.7188L 863.781 44.125L 840.875 44.125C 840.958 47.4583 841.927 50.1562 843.781 52.2188C 845.656 54.2604 848.031 55.2812 850.906 55.2812C 852.948 55.2812 854.677 54.8646 856.094 54.0312C 857.51 53.1979 858.75 52.0938 859.812 50.7188L 863.344 53.4688C 860.51 57.8229 856.26 60 850.594 60ZM 849.875 29.6875C 847.542 29.6875 845.583 30.5417 844 32.25C 842.417 33.9375 841.438 36.3125 841.062 39.375L 858 39.375L 858 38.9375C 857.833 36 857.042 33.7292 855.625 32.125C 854.208 30.5 852.292 29.6875 849.875 29.6875ZM 912.812 33.9375L 886.75 33.9375L 886.75 28.9062L 912.812 28.9062L 912.812 33.9375ZM 912.812 46.9062L 886.75 46.9062L 886.75 41.9062L 912.812 41.9062L 912.812 46.9062ZM 947.938 33.9375L 921.875 33.9375L 921.875 28.9062L 947.938 28.9062L 947.938 33.9375ZM 947.938 46.9062L 921.875 46.9062L 921.875 41.9062L 947.938 41.9062L 947.938 46.9062ZM 990.906 59.375L 985.094 59.375L 985.094 20.8438L 973.438 25.125L 973.438 19.875L 990 13.6562L 990.906 13.6562L 990.906 59.375ZM 1021.78 41.2188C 1021.78 45.8646 1021.17 50.3229 1019.94 54.5938C 1018.73 58.8438 1016.86 62.7708 1014.34 66.375C 1011.84 69.9792 1009.22 72.5417 1006.47 74.0625L 1005.25 70.5312C 1008.46 68.0729 1011.03 64.2604 1012.97 59.0938C 1014.93 53.9062 1015.93 48.1562 1015.97 41.8438L 1015.97 40.8438C 1015.97 36.4688 1015.51 32.4062 1014.59 28.6562C 1013.68 24.8854 1012.4 21.5104 1010.75 18.5312C 1009.12 15.5521 1007.29 13.2292 1005.25 11.5625L 1006.47 8.03125C 1009.22 9.55208 1011.83 12.0938 1014.31 15.6562C 1016.81 19.2188 1018.68 23.1458 1019.91 27.4375C 1021.16 31.7292 1021.78 36.3229 1021.78 41.2188ZM 25.25 134.375C 24.9167 133.708 24.6458 132.521 24.4375 130.812C 21.75 133.604 18.5417 135 14.8125 135C 11.4792 135 8.73958 134.062 6.59375 132.188C 4.46875 130.292 3.40625 127.896 3.40625 125C 3.40625 121.479 4.73958 118.75 7.40625 116.812C 10.0938 114.854 13.8646 113.875 18.7188 113.875L 24.3438 113.875L 24.3438 111.219C 24.3438 109.198 23.7396 107.594 22.5312 106.406C 21.3229 105.198 19.5417 104.594 17.1875 104.594C 15.125 104.594 13.3958 105.115 12 106.156C 10.6042 107.198 9.90625 108.458 9.90625 109.938L 4.09375 109.938C 4.09375 108.25 4.6875 106.625 5.875 105.062C 7.08333 103.479 8.70833 102.229 10.75 101.312C 12.8125 100.396 15.0729 99.9375 17.5312 99.9375C 21.4271 99.9375 24.4792 100.917 26.6875 102.875C 28.8958 104.812 30.0417 107.49 30.125 110.906L 30.125 126.469C 30.125 129.573 30.5208 132.042 31.3125 133.875L 31.3125 134.375L 25.25 134.375ZM 15.6562 129.969C 17.4688 129.969 19.1875 129.5 20.8125 128.562C 22.4375 127.625 23.6146 126.406 24.3438 124.906L 24.3438 117.969L 19.8125 117.969C 12.7292 117.969 9.1875 120.042 9.1875 124.188C 9.1875 126 9.79167 127.417 11 128.438C 12.2083 129.458 13.7604 129.969 15.6562 129.969ZM 44.6562 100.562L 44.8438 104.812C 47.4271 101.562 50.8021 99.9375 54.9688 99.9375C 62.1146 99.9375 65.7188 103.969 65.7812 112.031L 65.7812 134.375L 60 134.375L 60 112C 59.9792 109.562 59.4167 107.76 58.3125 106.594C 57.2292 105.427 55.5312 104.844 53.2188 104.844C 51.3438 104.844 49.6979 105.344 48.2812 106.344C 46.8646 107.344 45.7604 108.656 44.9688 110.281L 44.9688 134.375L 39.1875 134.375L 39.1875 100.562L 44.6562 100.562ZM 73.0938 117.188C 73.0938 112 74.3229 107.833 76.7812 104.688C 79.2396 101.521 82.4583 99.9375 86.4375 99.9375C 90.3958 99.9375 93.5312 101.292 95.8438 104L 95.8438 86.375L 101.625 86.375L 101.625 134.375L 96.3125 134.375L 96.0312 130.75C 93.7188 133.583 90.5 135 86.375 135C 82.4583 135 79.2604 133.396 76.7812 130.188C 74.3229 126.979 73.0938 122.792 73.0938 117.625L 73.0938 117.188ZM 78.875 117.844C 78.875 121.677 79.6667 124.677 81.25 126.844C 82.8333 129.01 85.0208 130.094 87.8125 130.094C 91.4792 130.094 94.1562 128.448 95.8438 125.156L 95.8438 109.625C 94.1146 106.438 91.4583 104.844 87.875 104.844C 85.0417 104.844 82.8333 105.938 81.25 108.125C 79.6667 110.312 78.875 113.552 78.875 117.844ZM 132.281 104.656C 134.844 101.51 138.177 99.9375 142.281 99.9375C 149.427 99.9375 153.031 103.969 153.094 112.031L 153.094 134.375L 147.312 134.375L 147.312 112C 147.292 109.562 146.729 107.76 145.625 106.594C 144.542 105.427 142.844 104.844 140.531 104.844C 138.656 104.844 137.01 105.344 135.594 106.344C 134.177 107.344 133.073 108.656 132.281 110.281L 132.281 134.375L 126.5 134.375L 126.5 86.375L 132.281 86.375L 132.281 104.656ZM 168.031 134.375L 162.25 134.375L 162.25 100.562L 168.031 100.562L 168.031 134.375ZM 161.781 91.5938C 161.781 90.6562 162.062 89.8646 162.625 89.2188C 163.208 88.5729 164.062 88.25 165.188 88.25C 166.312 88.25 167.167 88.5729 167.75 89.2188C 168.333 89.8646 168.625 90.6562 168.625 91.5938C 168.625 92.5312 168.333 93.3125 167.75 93.9375C 167.167 94.5625 166.312 94.875 165.188 94.875C 164.062 94.875 163.208 94.5625 162.625 93.9375C 162.062 93.3125 161.781 92.5312 161.781 91.5938ZM 185.156 92.375L 185.156 100.562L 191.469 100.562L 191.469 105.031L 185.156 105.031L 185.156 126C 185.156 127.354 185.438 128.375 186 129.062C 186.562 129.729 187.521 130.062 188.875 130.062C 189.542 130.062 190.458 129.938 191.625 129.688L 191.625 134.375C 190.104 134.792 188.625 135 187.188 135C 184.604 135 182.656 134.219 181.344 132.656C 180.031 131.094 179.375 128.875 179.375 126L 179.375 105.031L 173.219 105.031L 173.219 100.562L 179.375 100.562L 179.375 92.375L 185.156 92.375ZM 240.562 108.938L 214.5 108.938L 214.5 103.906L 240.562 103.906L 240.562 108.938ZM 240.562 121.906L 214.5 121.906L 214.5 116.906L 240.562 116.906L 240.562 121.906ZM 275.688 108.938L 249.625 108.938L 249.625 103.906L 275.688 103.906L 275.688 108.938ZM 275.688 121.906L 249.625 121.906L 249.625 116.906L 275.688 116.906L 275.688 121.906ZM 328.188 114.969C 328.188 121.74 327.031 126.771 324.719 130.062C 322.406 133.354 318.792 135 313.875 135C 309.021 135 305.427 133.396 303.094 130.188C 300.76 126.958 299.552 122.146 299.469 115.75L 299.469 108.031C 299.469 101.344 300.625 96.375 302.938 93.125C 305.25 89.875 308.875 88.25 313.812 88.25C 318.708 88.25 322.312 89.8229 324.625 92.9688C 326.938 96.0938 328.125 100.927 328.188 107.469L 328.188 114.969ZM 322.406 107.062C 322.406 102.167 321.719 98.6042 320.344 96.375C 318.969 94.125 316.792 93 313.812 93C 310.854 93 308.698 94.1146 307.344 96.3438C 305.99 98.5729 305.292 102 305.25 106.625L 305.25 115.875C 305.25 120.792 305.958 124.427 307.375 126.781C 308.812 129.115 310.979 130.281 313.875 130.281C 316.729 130.281 318.844 129.177 320.219 126.969C 321.615 124.76 322.344 121.281 322.406 116.531L 322.406 107.062ZM 372.938 134.375C 372.604 133.708 372.333 132.521 372.125 130.812C 369.438 133.604 366.229 135 362.5 135C 359.167 135 356.427 134.062 354.281 132.188C 352.156 130.292 351.094 127.896 351.094 125C 351.094 121.479 352.427 118.75 355.094 116.812C 357.781 114.854 361.552 113.875 366.406 113.875L 372.031 113.875L 372.031 111.219C 372.031 109.198 371.427 107.594 370.219 106.406C 369.01 105.198 367.229 104.594 364.875 104.594C 362.812 104.594 361.083 105.115 359.688 106.156C 358.292 107.198 357.594 108.458 357.594 109.938L 351.781 109.938C 351.781 108.25 352.375 106.625 353.562 105.062C 354.771 103.479 356.396 102.229 358.438 101.312C 360.5 100.396 362.76 99.9375 365.219 99.9375C 369.115 99.9375 372.167 100.917 374.375 102.875C 376.583 104.812 377.729 107.49 377.812 110.906L 377.812 126.469C 377.812 129.573 378.208 132.042 379 133.875L 379 134.375L 372.938 134.375ZM 363.344 129.969C 365.156 129.969 366.875 129.5 368.5 128.562C 370.125 127.625 371.302 126.406 372.031 124.906L 372.031 117.969L 367.5 117.969C 360.417 117.969 356.875 120.042 356.875 124.188C 356.875 126 357.479 127.417 358.688 128.438C 359.896 129.458 361.448 129.969 363.344 129.969ZM 392.344 100.562L 392.531 104.812C 395.115 101.562 398.49 99.9375 402.656 99.9375C 409.802 99.9375 413.406 103.969 413.469 112.031L 413.469 134.375L 407.688 134.375L 407.688 112C 407.667 109.562 407.104 107.76 406 106.594C 404.917 105.427 403.219 104.844 400.906 104.844C 399.031 104.844 397.385 105.344 395.969 106.344C 394.552 107.344 393.448 108.656 392.656 110.281L 392.656 134.375L 386.875 134.375L 386.875 100.562L 392.344 100.562ZM 420.781 117.188C 420.781 112 422.01 107.833 424.469 104.688C 426.927 101.521 430.146 99.9375 434.125 99.9375C 438.083 99.9375 441.219 101.292 443.531 104L 443.531 86.375L 449.312 86.375L 449.312 134.375L 444 134.375L 443.719 130.75C 441.406 133.583 438.188 135 434.062 135C 430.146 135 426.948 133.396 424.469 130.188C 422.01 126.979 420.781 122.792 420.781 117.625L 420.781 117.188ZM 426.562 117.844C 426.562 121.677 427.354 124.677 428.938 126.844C 430.521 129.01 432.708 130.094 435.5 130.094C 439.167 130.094 441.844 128.448 443.531 125.156L 443.531 109.625C 441.802 106.438 439.146 104.844 435.562 104.844C 432.729 104.844 430.521 105.938 428.938 108.125C 427.354 110.312 426.562 113.552 426.562 117.844ZM 472.781 117.188C 472.781 112 474.01 107.833 476.469 104.688C 478.927 101.521 482.146 99.9375 486.125 99.9375C 490.083 99.9375 493.219 101.292 495.531 104L 495.531 86.375L 501.312 86.375L 501.312 134.375L 496 134.375L 495.719 130.75C 493.406 133.583 490.188 135 486.062 135C 482.146 135 478.948 133.396 476.469 130.188C 474.01 126.979 472.781 122.792 472.781 117.625L 472.781 117.188ZM 478.562 117.844C 478.562 121.677 479.354 124.677 480.938 126.844C 482.521 129.01 484.708 130.094 487.5 130.094C 491.167 130.094 493.844 128.448 495.531 125.156L 495.531 109.625C 493.802 106.438 491.146 104.844 487.562 104.844C 484.729 104.844 482.521 105.938 480.938 108.125C 479.354 110.312 478.562 113.552 478.562 117.844ZM 516.594 134.375L 510.812 134.375L 510.812 100.562L 516.594 100.562L 516.594 134.375ZM 510.344 91.5938C 510.344 90.6562 510.625 89.8646 511.188 89.2188C 511.771 88.5729 512.625 88.25 513.75 88.25C 514.875 88.25 515.729 88.5729 516.312 89.2188C 516.896 89.8646 517.188 90.6562 517.188 91.5938C 517.188 92.5312 516.896 93.3125 516.312 93.9375C 515.729 94.5625 514.875 94.875 513.75 94.875C 512.625 94.875 511.771 94.5625 511.188 93.9375C 510.625 93.3125 510.344 92.5312 510.344 91.5938ZM 542.219 105.75C 541.344 105.604 540.396 105.531 539.375 105.531C 535.583 105.531 533.01 107.146 531.656 110.375L 531.656 134.375L 525.875 134.375L 525.875 100.562L 531.5 100.562L 531.594 104.469C 533.49 101.448 536.177 99.9375 539.656 99.9375C 540.781 99.9375 541.635 100.083 542.219 100.375L 542.219 105.75ZM 556.969 92.375L 556.969 100.562L 563.281 100.562L 563.281 105.031L 556.969 105.031L 556.969 126C 556.969 127.354 557.25 128.375 557.812 129.062C 558.375 129.729 559.333 130.062 560.688 130.062C 561.354 130.062 562.271 129.938 563.438 129.688L 563.438 134.375C 561.917 134.792 560.438 135 559 135C 556.417 135 554.469 134.219 553.156 132.656C 551.844 131.094 551.188 128.875 551.188 126L 551.188 105.031L 545.031 105.031L 545.031 100.562L 551.188 100.562L 551.188 92.375L 556.969 92.375ZM 581.125 125.906L 589 100.562L 595.188 100.562L 581.594 139.594C 579.49 145.219 576.146 148.031 571.562 148.031L 570.469 147.938L 568.312 147.531L 568.312 142.844L 569.875 142.969C 571.833 142.969 573.354 142.573 574.438 141.781C 575.542 140.99 576.448 139.542 577.156 137.438L 578.438 134L 566.375 100.562L 572.688 100.562L 581.125 125.906ZM 642.688 108.938L 616.625 108.938L 616.625 103.906L 642.688 103.906L 642.688 108.938ZM 642.688 121.906L 616.625 121.906L 616.625 116.906L 642.688 116.906L 642.688 121.906ZM 677.812 108.938L 651.75 108.938L 651.75 103.906L 677.812 103.906L 677.812 108.938ZM 677.812 121.906L 651.75 121.906L 651.75 116.906L 677.812 116.906L 677.812 121.906ZM 720.781 134.375L 714.969 134.375L 714.969 95.8438L 703.312 100.125L 703.312 94.875L 719.875 88.6562L 720.781 88.6562L 720.781 134.375Z"/>
<path id="path17_fill" d="M 32.9375 42.8438C 32.9375 47.9896 31.7604 52.1354 29.4062 55.2812C 27.0521 58.4271 23.8646 60 19.8438 60C 15.7396 60 12.5104 58.6979 10.1562 56.0938L 10.1562 72.375L 4.375 72.375L 4.375 25.5625L 9.65625 25.5625L 9.9375 29.3125C 12.2917 26.3958 15.5625 24.9375 19.75 24.9375C 23.8125 24.9375 27.0208 26.4688 29.375 29.5312C 31.75 32.5938 32.9375 36.8542 32.9375 42.3125L 32.9375 42.8438ZM 27.1562 42.1875C 27.1562 38.375 26.3438 35.3646 24.7188 33.1562C 23.0938 30.9479 20.8646 29.8438 18.0312 29.8438C 14.5312 29.8438 11.9062 31.3958 10.1562 34.5L 10.1562 50.6562C 11.8854 53.7396 14.5312 55.2812 18.0938 55.2812C 20.8646 55.2812 23.0625 54.1875 24.6875 52C 26.3333 49.7917 27.1562 46.5208 27.1562 42.1875ZM 45.75 25.5625L 45.9062 29.3125C 48.3854 26.3958 51.7292 24.9375 55.9375 24.9375C 60.6667 24.9375 63.8854 26.75 65.5938 30.375C 66.7188 28.75 68.1771 27.4375 69.9688 26.4375C 71.7812 25.4375 73.9167 24.9375 76.375 24.9375C 83.7917 24.9375 87.5625 28.8646 87.6875 36.7188L 87.6875 59.375L 81.9062 59.375L 81.9062 37.0625C 81.9062 34.6458 81.3542 32.8438 80.25 31.6562C 79.1458 30.4479 77.2917 29.8438 74.6875 29.8438C 72.5417 29.8438 70.7604 30.4896 69.3438 31.7812C 67.9271 33.0521 67.1042 34.7708 66.875 36.9375L 66.875 59.375L 61.0625 59.375L 61.0625 37.2188C 61.0625 32.3021 58.6562 29.8438 53.8438 29.8438C 50.0521 29.8438 47.4583 31.4583 46.0625 34.6875L 46.0625 59.375L 40.2812 59.375L 40.2812 25.5625L 45.75 25.5625ZM 110.469 60C 105.885 60 102.156 58.5 99.2812 55.5C 96.4062 52.4792 94.9688 48.4479 94.9688 43.4062L 94.9688 42.3438C 94.9688 38.9896 95.6042 36 96.875 33.375C 98.1667 30.7292 99.9583 28.6667 102.25 27.1875C 104.562 25.6875 107.062 24.9375 109.75 24.9375C 114.146 24.9375 117.562 26.3854 120 29.2812C 122.438 32.1771 123.656 36.3229 123.656 41.7188L 123.656 44.125L 100.75 44.125C 100.833 47.4583 101.802 50.1562 103.656 52.2188C 105.531 54.2604 107.906 55.2812 110.781 55.2812C 112.823 55.2812 114.552 54.8646 115.969 54.0312C 117.385 53.1979 118.625 52.0938 119.688 50.7188L 123.219 53.4688C 120.385 57.8229 116.135 60 110.469 60ZM 109.75 29.6875C 107.417 29.6875 105.458 30.5417 103.875 32.25C 102.292 33.9375 101.312 36.3125 100.938 39.375L 117.875 39.375L 117.875 38.9375C 117.708 36 116.917 33.7292 115.5 32.125C 114.083 30.5 112.167 29.6875 109.75 29.6875ZM 135.812 25.5625L 135.969 29.3125C 138.448 26.3958 141.792 24.9375 146 24.9375C 150.729 24.9375 153.948 26.75 155.656 30.375C 156.781 28.75 158.24 27.4375 160.031 26.4375C 161.844 25.4375 163.979 24.9375 166.438 24.9375C 173.854 24.9375 177.625 28.8646 177.75 36.7188L 177.75 59.375L 171.969 59.375L 171.969 37.0625C 171.969 34.6458 171.417 32.8438 170.312 31.6562C 169.208 30.4479 167.354 29.8438 164.75 29.8438C 162.604 29.8438 160.823 30.4896 159.406 31.7812C 157.99 33.0521 157.167 34.7708 156.938 36.9375L 156.938 59.375L 151.125 59.375L 151.125 37.2188C 151.125 32.3021 148.719 29.8438 143.906 29.8438C 140.115 29.8438 137.521 31.4583 136.125 34.6875L 136.125 59.375L 130.344 59.375L 130.344 25.5625L 135.812 25.5625ZM 210.875 64.0938L 182.25 64.0938L 182.25 59.375L 210.875 59.375L 210.875 64.0938ZM 231.719 30.75C 230.844 30.6042 229.896 30.5312 228.875 30.5312C 225.083 30.5312 222.51 32.1458 221.156 35.375L 221.156 59.375L 215.375 59.375L 215.375 25.5625L 221 25.5625L 221.094 29.4688C 222.99 26.4479 225.677 24.9375 229.156 24.9375C 230.281 24.9375 231.135 25.0833 231.719 25.375L 231.719 30.75ZM 250.531 60C 245.948 60 242.219 58.5 239.344 55.5C 236.469 52.4792 235.031 48.4479 235.031 43.4062L 235.031 42.3438C 235.031 38.9896 235.667 36 236.938 33.375C 238.229 30.7292 240.021 28.6667 242.312 27.1875C 244.625 25.6875 247.125 24.9375 249.812 24.9375C 254.208 24.9375 257.625 26.3854 260.062 29.2812C 262.5 32.1771 263.719 36.3229 263.719 41.7188L 263.719 44.125L 240.812 44.125C 240.896 47.4583 241.865 50.1562 243.719 52.2188C 245.594 54.2604 247.969 55.2812 250.844 55.2812C 252.885 55.2812 254.615 54.8646 256.031 54.0312C 257.448 53.1979 258.688 52.0938 259.75 50.7188L 263.281 53.4688C 260.448 57.8229 256.198 60 250.531 60ZM 249.812 29.6875C 247.479 29.6875 245.521 30.5417 243.938 32.25C 242.354 33.9375 241.375 36.3125 241 39.375L 257.938 39.375L 257.938 38.9375C 257.771 36 256.979 33.7292 255.562 32.125C 254.146 30.5 252.229 29.6875 249.812 29.6875ZM 290.125 50.4062C 290.125 48.8438 289.531 47.6354 288.344 46.7812C 287.177 45.9062 285.125 45.1562 282.188 44.5312C 279.271 43.9062 276.948 43.1562 275.219 42.2812C 273.51 41.4062 272.24 40.3646 271.406 39.1562C 270.594 37.9479 270.188 36.5104 270.188 34.8438C 270.188 32.0729 271.354 29.7292 273.688 27.8125C 276.042 25.8958 279.042 24.9375 282.688 24.9375C 286.521 24.9375 289.625 25.9271 292 27.9062C 294.396 29.8854 295.594 32.4167 295.594 35.5L 289.781 35.5C 289.781 33.9167 289.104 32.5521 287.75 31.4062C 286.417 30.2604 284.729 29.6875 282.688 29.6875C 280.583 29.6875 278.938 30.1458 277.75 31.0625C 276.562 31.9792 275.969 33.1771 275.969 34.6562C 275.969 36.0521 276.521 37.1042 277.625 37.8125C 278.729 38.5208 280.719 39.1979 283.594 39.8438C 286.49 40.4896 288.833 41.2604 290.625 42.1562C 292.417 43.0521 293.74 44.1354 294.594 45.4062C 295.469 46.6562 295.906 48.1875 295.906 50C 295.906 53.0208 294.698 55.4479 292.281 57.2812C 289.865 59.0938 286.729 60 282.875 60C 280.167 60 277.771 59.5208 275.688 58.5625C 273.604 57.6042 271.969 56.2708 270.781 54.5625C 269.615 52.8333 269.031 50.9688 269.031 48.9688L 274.812 48.9688C 274.917 50.9062 275.688 52.4479 277.125 53.5938C 278.583 54.7188 280.5 55.2812 282.875 55.2812C 285.062 55.2812 286.812 54.8438 288.125 53.9688C 289.458 53.0729 290.125 51.8854 290.125 50.4062ZM 332 42.8438C 332 47.9896 330.823 52.1354 328.469 55.2812C 326.115 58.4271 322.927 60 318.906 60C 314.802 60 311.573 58.6979 309.219 56.0938L 309.219 72.375L 303.438 72.375L 303.438 25.5625L 308.719 25.5625L 309 29.3125C 311.354 26.3958 314.625 24.9375 318.812 24.9375C 322.875 24.9375 326.083 26.4688 328.438 29.5312C 330.812 32.5938 332 36.8542 332 42.3125L 332 42.8438ZM 326.219 42.1875C 326.219 38.375 325.406 35.3646 323.781 33.1562C 322.156 30.9479 319.927 29.8438 317.094 29.8438C 313.594 29.8438 310.969 31.3958 309.219 34.5L 309.219 50.6562C 310.948 53.7396 313.594 55.2812 317.156 55.2812C 319.927 55.2812 322.125 54.1875 323.75 52C 325.396 49.7917 326.219 46.5208 326.219 42.1875ZM 381.688 33.9375L 355.625 33.9375L 355.625 28.9062L 381.688 28.9062L 381.688 33.9375ZM 381.688 46.9062L 355.625 46.9062L 355.625 41.9062L 381.688 41.9062L 381.688 46.9062ZM 416.812 33.9375L 390.75 33.9375L 390.75 28.9062L 416.812 28.9062L 416.812 33.9375ZM 416.812 46.9062L 390.75 46.9062L 390.75 41.9062L 416.812 41.9062L 416.812 46.9062ZM 459.781 59.375L 453.969 59.375L 453.969 20.8438L 442.312 25.125L 442.312 19.875L 458.875 13.6562L 459.781 13.6562L 459.781 59.375Z"/>
<path id="path18_stroke" d="M -4.54249 82.7114L -6.63194 87.2539L 2.45303 91.4328L 4.54249 86.8904L -4.54249 82.7114ZM 3.03203 329.897L -0.943738 326.865L -7.00781 334.817L -3.03203 337.849L 3.03203 329.897ZM 0 84.8009C 4.54249 86.8904 4.54136 86.8928 4.54039 86.8949C 4.54026 86.8952 4.53943 86.897 4.53917 86.8975C 4.53884 86.8983 4.53872 86.8985 4.53939 86.8971C 4.54245 86.8905 4.5444 86.8863 4.5505 86.8734C 4.56619 86.8402 4.58432 86.802 4.61588 86.7369C 4.68612 86.5918 4.78039 86.4003 4.92308 86.1208C 5.22351 85.5317 5.65257 84.7188 6.27397 83.6252C 7.55007 81.3755 9.43799 78.279 12.1656 74.4482C 17.7014 66.6558 26.1337 56.5489 38.6506 46.2586C 63.5161 25.7616 104.089 5 166.742 5L 166.742 -5C 101.66 -5 58.8615 16.6389 32.2899 38.5423C 19.0883 49.4523 9.78537 60.5455 4.01573 68.6534C 1.0906 72.7726 -1.06681 76.3011 -2.42287 78.6891C -3.11754 79.9142 -3.65125 80.9232 -3.98459 81.5762C -4.15877 81.9179 -4.29912 82.2026 -4.38429 82.3784C -4.43044 82.4737 -4.4702 82.5572 -4.49299 82.6055C -4.50612 82.6333 -4.51854 82.6599 -4.52506 82.6738C -4.52918 82.6827 -4.53355 82.6921 -4.5356 82.6965C -4.53705 82.6997 -4.53877 82.7034 -4.5395 82.705C -4.54107 82.7084 -4.54249 82.7114 0 84.8009ZM 166.742 5C 228.633 5 266.144 34.4116 288.448 72.7216C 311.145 111.526 318.008 159.045 317.994 195.224L 327.994 195.224C 327.981 158.32 320.585 108.227 297.09 67.6902C 273.201 26.6588 232.585 -5 166.742 -5L 166.742 5ZM 317.994 195.224C 317.994 230.574 302.489 278.406 275.467 317.395C 248.422 356.418 210.681 385.449 166.742 385.449L 166.742 395.449C 215.359 395.449 255.744 363.409 283.686 323.091C 311.652 282.739 327.994 232.958 327.994 195.224L 317.994 195.224ZM 166.742 385.449C 121.278 385.515 80.6469 371.667 50.7876 357.635C 35.9256 350.661 24.0301 343.741 15.7069 338.485C 11.5751 335.877 8.41472 333.734 6.23634 332.208C 5.16085 331.455 4.36161 330.879 3.80952 330.474C 3.54 330.277 3.34607 330.133 3.20944 330.031C 3.14432 329.982 3.10007 329.949 3.06726 329.924C 3.05243 329.913 3.04365 329.906 3.0362 329.901C 3.03325 329.898 3.03222 329.898 3.03074 329.896C 3.03039 329.896 3.03072 329.896 3.03054 329.896C 3.03115 329.897 3.03203 329.897 0 333.873C -3.03203 337.849 -3.03058 337.85 -3.02885 337.851C -3.02789 337.852 -3.02587 337.854 -3.02396 337.855C -3.02091 337.857 -3.01517 337.862 -3.00908 337.866C -2.99847 337.874 -2.98019 337.888 -2.95901 337.904C -2.91981 337.934 -2.85624 337.982 -2.77817 338.04C -2.62842 338.152 -2.39449 338.326 -2.09806 338.543C -1.51827 338.967 -0.633292 339.606 0.500481 340.4C 2.74065 341.968 6.0991 344.245 10.3684 346.941C 18.8472 352.293 31.2828 359.517 46.5366 366.687C 76.909 380.942 119.649 395.382 166.742 395.449L 166.742 385.449Z"/>
<path id="path19_stroke" d="M -1.33826 1.1824L -6.15585 2.52061L -3.47943 12.1558L 1.33816 10.8176L -1.33826 1.1824ZM 10.8 2.99999L 12.1382 7.81758L 29.4816 2.99999L 12.1382 -1.8176L 10.8 2.99999ZM 1.33816 -4.8176L -3.47943 -6.15582L -6.15585 3.47936L -1.33826 4.81758L 1.33816 -4.8176ZM 1.33816 10.8176L 12.1382 7.81758L 9.46179 -1.8176L -1.33826 1.1824L 1.33816 10.8176ZM 12.1382 -1.8176L 1.33816 -4.8176L -1.33826 4.81758L 9.46179 7.81758L 12.1382 -1.8176Z"/>
<path id="path20_fill" d="M 32.9375 42.8438C 32.9375 47.9896 31.7604 52.1354 29.4062 55.2812C 27.0521 58.4271 23.8646 60 19.8438 60C 15.7396 60 12.5104 58.6979 10.1562 56.0938L 10.1562 72.375L 4.375 72.375L 4.375 25.5625L 9.65625 25.5625L 9.9375 29.3125C 12.2917 26.3958 15.5625 24.9375 19.75 24.9375C 23.8125 24.9375 27.0208 26.4688 29.375 29.5312C 31.75 32.5938 32.9375 36.8542 32.9375 42.3125L 32.9375 42.8438ZM 27.1562 42.1875C 27.1562 38.375 26.3438 35.3646 24.7188 33.1562C 23.0938 30.9479 20.8646 29.8438 18.0312 29.8438C 14.5312 29.8438 11.9062 31.3958 10.1562 34.5L 10.1562 50.6562C 11.8854 53.7396 14.5312 55.2812 18.0938 55.2812C 20.8646 55.2812 23.0625 54.1875 24.6875 52C 26.3333 49.7917 27.1562 46.5208 27.1562 42.1875ZM 45.75 25.5625L 45.9062 29.3125C 48.3854 26.3958 51.7292 24.9375 55.9375 24.9375C 60.6667 24.9375 63.8854 26.75 65.5938 30.375C 66.7188 28.75 68.1771 27.4375 69.9688 26.4375C 71.7812 25.4375 73.9167 24.9375 76.375 24.9375C 83.7917 24.9375 87.5625 28.8646 87.6875 36.7188L 87.6875 59.375L 81.9062 59.375L 81.9062 37.0625C 81.9062 34.6458 81.3542 32.8438 80.25 31.6562C 79.1458 30.4479 77.2917 29.8438 74.6875 29.8438C 72.5417 29.8438 70.7604 30.4896 69.3438 31.7812C 67.9271 33.0521 67.1042 34.7708 66.875 36.9375L 66.875 59.375L 61.0625 59.375L 61.0625 37.2188C 61.0625 32.3021 58.6562 29.8438 53.8438 29.8438C 50.0521 29.8438 47.4583 31.4583 46.0625 34.6875L 46.0625 59.375L 40.2812 59.375L 40.2812 25.5625L 45.75 25.5625ZM 110.469 60C 105.885 60 102.156 58.5 99.2812 55.5C 96.4062 52.4792 94.9688 48.4479 94.9688 43.4062L 94.9688 42.3438C 94.9688 38.9896 95.6042 36 96.875 33.375C 98.1667 30.7292 99.9583 28.6667 102.25 27.1875C 104.562 25.6875 107.062 24.9375 109.75 24.9375C 114.146 24.9375 117.562 26.3854 120 29.2812C 122.438 32.1771 123.656 36.3229 123.656 41.7188L 123.656 44.125L 100.75 44.125C 100.833 47.4583 101.802 50.1562 103.656 52.2188C 105.531 54.2604 107.906 55.2812 110.781 55.2812C 112.823 55.2812 114.552 54.8646 115.969 54.0312C 117.385 53.1979 118.625 52.0938 119.688 50.7188L 123.219 53.4688C 120.385 57.8229 116.135 60 110.469 60ZM 109.75 29.6875C 107.417 29.6875 105.458 30.5417 103.875 32.25C 102.292 33.9375 101.312 36.3125 100.938 39.375L 117.875 39.375L 117.875 38.9375C 117.708 36 116.917 33.7292 115.5 32.125C 114.083 30.5 112.167 29.6875 109.75 29.6875ZM 135.812 25.5625L 135.969 29.3125C 138.448 26.3958 141.792 24.9375 146 24.9375C 150.729 24.9375 153.948 26.75 155.656 30.375C 156.781 28.75 158.24 27.4375 160.031 26.4375C 161.844 25.4375 163.979 24.9375 166.438 24.9375C 173.854 24.9375 177.625 28.8646 177.75 36.7188L 177.75 59.375L 171.969 59.375L 171.969 37.0625C 171.969 34.6458 171.417 32.8438 170.312 31.6562C 169.208 30.4479 167.354 29.8438 164.75 29.8438C 162.604 29.8438 160.823 30.4896 159.406 31.7812C 157.99 33.0521 157.167 34.7708 156.938 36.9375L 156.938 59.375L 151.125 59.375L 151.125 37.2188C 151.125 32.3021 148.719 29.8438 143.906 29.8438C 140.115 29.8438 137.521 31.4583 136.125 34.6875L 136.125 59.375L 130.344 59.375L 130.344 25.5625L 135.812 25.5625ZM 210.875 64.0938L 182.25 64.0938L 182.25 59.375L 210.875 59.375L 210.875 64.0938ZM 231.719 30.75C 230.844 30.6042 229.896 30.5312 228.875 30.5312C 225.083 30.5312 222.51 32.1458 221.156 35.375L 221.156 59.375L 215.375 59.375L 215.375 25.5625L 221 25.5625L 221.094 29.4688C 222.99 26.4479 225.677 24.9375 229.156 24.9375C 230.281 24.9375 231.135 25.0833 231.719 25.375L 231.719 30.75ZM 250.531 60C 245.948 60 242.219 58.5 239.344 55.5C 236.469 52.4792 235.031 48.4479 235.031 43.4062L 235.031 42.3438C 235.031 38.9896 235.667 36 236.938 33.375C 238.229 30.7292 240.021 28.6667 242.312 27.1875C 244.625 25.6875 247.125 24.9375 249.812 24.9375C 254.208 24.9375 257.625 26.3854 260.062 29.2812C 262.5 32.1771 263.719 36.3229 263.719 41.7188L 263.719 44.125L 240.812 44.125C 240.896 47.4583 241.865 50.1562 243.719 52.2188C 245.594 54.2604 247.969 55.2812 250.844 55.2812C 252.885 55.2812 254.615 54.8646 256.031 54.0312C 257.448 53.1979 258.688 52.0938 259.75 50.7188L 263.281 53.4688C 260.448 57.8229 256.198 60 250.531 60ZM 249.812 29.6875C 247.479 29.6875 245.521 30.5417 243.938 32.25C 242.354 33.9375 241.375 36.3125 241 39.375L 257.938 39.375L 257.938 38.9375C 257.771 36 256.979 33.7292 255.562 32.125C 254.146 30.5 252.229 29.6875 249.812 29.6875ZM 290.125 50.4062C 290.125 48.8438 289.531 47.6354 288.344 46.7812C 287.177 45.9062 285.125 45.1562 282.188 44.5312C 279.271 43.9062 276.948 43.1562 275.219 42.2812C 273.51 41.4062 272.24 40.3646 271.406 39.1562C 270.594 37.9479 270.188 36.5104 270.188 34.8438C 270.188 32.0729 271.354 29.7292 273.688 27.8125C 276.042 25.8958 279.042 24.9375 282.688 24.9375C 286.521 24.9375 289.625 25.9271 292 27.9062C 294.396 29.8854 295.594 32.4167 295.594 35.5L 289.781 35.5C 289.781 33.9167 289.104 32.5521 287.75 31.4062C 286.417 30.2604 284.729 29.6875 282.688 29.6875C 280.583 29.6875 278.938 30.1458 277.75 31.0625C 276.562 31.9792 275.969 33.1771 275.969 34.6562C 275.969 36.0521 276.521 37.1042 277.625 37.8125C 278.729 38.5208 280.719 39.1979 283.594 39.8438C 286.49 40.4896 288.833 41.2604 290.625 42.1562C 292.417 43.0521 293.74 44.1354 294.594 45.4062C 295.469 46.6562 295.906 48.1875 295.906 50C 295.906 53.0208 294.698 55.4479 292.281 57.2812C 289.865 59.0938 286.729 60 282.875 60C 280.167 60 277.771 59.5208 275.688 58.5625C 273.604 57.6042 271.969 56.2708 270.781 54.5625C 269.615 52.8333 269.031 50.9688 269.031 48.9688L 274.812 48.9688C 274.917 50.9062 275.688 52.4479 277.125 53.5938C 278.583 54.7188 280.5 55.2812 282.875 55.2812C 285.062 55.2812 286.812 54.8438 288.125 53.9688C 289.458 53.0729 290.125 51.8854 290.125 50.4062ZM 332 42.8438C 332 47.9896 330.823 52.1354 328.469 55.2812C 326.115 58.4271 322.927 60 318.906 60C 314.802 60 311.573 58.6979 309.219 56.0938L 309.219 72.375L 303.438 72.375L 303.438 25.5625L 308.719 25.5625L 309 29.3125C 311.354 26.3958 314.625 24.9375 318.812 24.9375C 322.875 24.9375 326.083 26.4688 328.438 29.5312C 330.812 32.5938 332 36.8542 332 42.3125L 332 42.8438ZM 326.219 42.1875C 326.219 38.375 325.406 35.3646 323.781 33.1562C 322.156 30.9479 319.927 29.8438 317.094 29.8438C 313.594 29.8438 310.969 31.3958 309.219 34.5L 309.219 50.6562C 310.948 53.7396 313.594 55.2812 317.156 55.2812C 319.927 55.2812 322.125 54.1875 323.75 52C 325.396 49.7917 326.219 46.5208 326.219 42.1875ZM 381.688 33.9375L 355.625 33.9375L 355.625 28.9062L 381.688 28.9062L 381.688 33.9375ZM 381.688 46.9062L 355.625 46.9062L 355.625 41.9062L 381.688 41.9062L 381.688 46.9062ZM 416.812 33.9375L 390.75 33.9375L 390.75 28.9062L 416.812 28.9062L 416.812 33.9375ZM 416.812 46.9062L 390.75 46.9062L 390.75 41.9062L 416.812 41.9062L 416.812 46.9062ZM 469.312 39.9688C 469.312 46.7396 468.156 51.7708 465.844 55.0625C 463.531 58.3542 459.917 60 455 60C 450.146 60 446.552 58.3958 444.219 55.1875C 441.885 51.9583 440.677 47.1458 440.594 40.75L 440.594 33.0312C 440.594 26.3438 441.75 21.375 444.062 18.125C 446.375 14.875 450 13.25 454.938 13.25C 459.833 13.25 463.438 14.8229 465.75 17.9688C 468.062 21.0938 469.25 25.9271 469.312 32.4688L 469.312 39.9688ZM 463.531 32.0625C 463.531 27.1667 462.844 23.6042 461.469 21.375C 460.094 19.125 457.917 18 454.938 18C 451.979 18 449.823 19.1146 448.469 21.3438C 447.115 23.5729 446.417 27 446.375 31.625L 446.375 40.875C 446.375 45.7917 447.083 49.4271 448.5 51.7812C 449.938 54.1146 452.104 55.2812 455 55.2812C 457.854 55.2812 459.969 54.1771 461.344 51.9688C 462.74 49.7604 463.469 46.2812 463.531 41.5312L 463.531 32.0625Z"/>
<path id="path21_stroke" d="M -4.54244 82.7114L -6.63189 87.2539L 2.45308 91.4328L 4.54254 86.8904L -4.54244 82.7114ZM 3.03209 329.897L -0.943679 326.865L -7.00776 334.817L -3.03199 337.849L 3.03209 329.897ZM 5.10156e-05 84.8009C 4.54254 86.8904 4.54142 86.8928 4.54044 86.8949C 4.54031 86.8952 4.53948 86.897 4.53922 86.8975C 4.53889 86.8983 4.53878 86.8985 4.53945 86.8971C 4.5425 86.8905 4.54445 86.8863 4.55055 86.8734C 4.56624 86.8401 4.58438 86.802 4.61593 86.7369C 4.68617 86.5918 4.78044 86.4003 4.92314 86.1208C 5.22356 85.5317 5.65262 84.7188 6.27402 83.6252C 7.55012 81.3755 9.43804 78.279 12.1656 74.4482C 17.7015 66.6558 26.1337 56.5489 38.6506 46.2586C 63.5161 25.7616 104.089 4.99999 166.742 4.99999L 166.742 -5.00001C 101.66 -5.00001 58.8615 16.6389 32.2899 38.5423C 19.0883 49.4522 9.78542 60.5455 4.01578 68.6534C 1.09064 72.7726 -1.06676 76.3011 -2.42282 78.6891C -3.11749 79.9141 -3.6512 80.9232 -3.98453 81.5762C -4.15872 81.9179 -4.29907 82.2026 -4.38424 82.3783C -4.43039 82.4737 -4.47015 82.5572 -4.49293 82.6055C -4.50607 82.6333 -4.51849 82.6599 -4.52501 82.6738C -4.52913 82.6827 -4.5335 82.6921 -4.53555 82.6965C -4.537 82.6996 -4.53872 82.7034 -4.53944 82.7049C -4.54102 82.7084 -4.54244 82.7114 5.10156e-05 84.8009ZM 166.742 4.99999C 228.633 4.99999 266.144 34.4116 288.448 72.7216C 311.145 111.526 318.007 159.045 317.994 195.224L 327.994 195.224C 327.981 158.32 320.585 108.227 297.09 67.6901C 273.201 26.6588 232.585 -5.00001 166.742 -5.00001L 166.742 4.99999ZM 317.994 195.224C 317.994 230.574 302.489 278.406 275.467 317.395C 248.422 356.418 210.681 385.449 166.742 385.449L 166.742 395.449C 215.359 395.449 255.744 363.409 283.686 323.091C 311.652 282.739 327.994 232.958 327.994 195.224L 317.994 195.224ZM 166.742 385.449C 121.278 385.516 80.6469 371.667 50.7877 357.635C 35.9256 350.661 24.0302 343.741 15.7069 338.485C 11.5751 335.877 8.41478 333.734 6.2364 332.208C 5.1609 331.456 4.36167 330.879 3.80957 330.474C 3.54006 330.277 3.34612 330.133 3.2095 330.031C 3.14437 329.982 3.10013 329.949 3.06731 329.924C 3.05248 329.913 3.0437 329.906 3.03625 329.901C 3.03331 329.898 3.03227 329.898 3.0308 329.896C 3.03045 329.896 3.03077 329.896 3.0306 329.896C 3.0312 329.897 3.03209 329.897 5.10156e-05 333.873C -3.03199 337.849 -3.03054 337.85 -3.0288 337.851C -3.02784 337.852 -3.02582 337.854 -3.02391 337.855C -3.02087 337.857 -3.01512 337.862 -3.00903 337.866C -2.99843 337.874 -2.98015 337.888 -2.95897 337.904C -2.91976 337.934 -2.85619 337.982 -2.77812 338.04C -2.62837 338.152 -2.39444 338.326 -2.09801 338.543C -1.51822 338.967 -0.633246 339.606 0.500528 340.4C 2.74069 341.968 6.09915 344.245 10.3684 346.941C 18.8472 352.293 31.2828 359.517 46.5366 366.687C 76.909 380.943 119.649 395.382 166.742 395.449L 166.742 385.449Z"/>
</defs>
</svg>
