<svg width="1123" height="933" viewBox="0 0 1123 933" version="1.1" xmlns="http://www.w3.org/2000/svg" xmlns:xlink="http://www.w3.org/1999/xlink" xmlns:figma="http://www.figma.com/figma/ns">
<title>L2 Cache LRU Unit</title>
<desc>Created using Figma</desc>
<g id="Canvas" transform="translate(1189 280)" figma:type="canvas">
<g id="Arrow" style="mix-blend-mode:normal;" figma:type="vector">
<use xlink:href="#path0_stroke" transform="matrix(6.12323e-17 1 -1 6.12323e-17 -280 477)" fill="#979797" style="mix-blend-mode:normal;"/>
</g>
<g id="Rectangle-8" style="mix-blend-mode:normal;" figma:type="vector">
<use xlink:href="#path1_stroke" transform="translate(-1077 -275)" fill="#979797" style="mix-blend-mode:normal;"/>
</g>
<g id="Line-Copy-16" style="mix-blend-mode:normal;" figma:type="vector">
<use xlink:href="#path2_stroke" transform="translate(-163 481)" fill="#979797" style="mix-blend-mode:normal;"/>
</g>
<g id="Line-Copy-16" style="mix-blend-mode:normal;" figma:type="vector">
<use xlink:href="#path3_stroke" transform="translate(-163 397)" fill="#979797" style="mix-blend-mode:normal;"/>
</g>
<g id="Line-Copy-16-decoration-1" style="mix-blend-mode:normal;" figma:type="vector">
<use xlink:href="#path4_stroke" transform="translate(-165.5 598.848)" fill="#979797" style="mix-blend-mode:normal;"/>
</g>
<g id="Line" style="mix-blend-mode:normal;" figma:type="vector">
<use xlink:href="#path5_stroke" transform="translate(-1117 -198)" fill="#979797" style="mix-blend-mode:normal;"/>
</g>
<g id="Line" style="mix-blend-mode:normal;" figma:type="vector">
<use xlink:href="#path5_stroke" transform="translate(-1117 -156)" fill="#979797" style="mix-blend-mode:normal;"/>
</g>
<g id="Line" style="mix-blend-mode:normal;" figma:type="vector">
<use xlink:href="#path5_stroke" transform="translate(-1117 -118)" fill="#979797" style="mix-blend-mode:normal;"/>
</g>
<g id="Line" style="mix-blend-mode:normal;" figma:type="vector">
<use xlink:href="#path6_stroke" transform="matrix(6.12323e-17 1 -1 6.12323e-17 -961 -118)" fill="#979797" style="mix-blend-mode:normal;"/>
</g>
<g id="Line" style="mix-blend-mode:normal;" figma:type="vector">
<use xlink:href="#path7_stroke" transform="matrix(6.12323e-17 1 -1 6.12323e-17 -810 -118)" fill="#979797" style="mix-blend-mode:normal;"/>
</g>
<g id="Line" style="mix-blend-mode:normal;" figma:type="vector">
<use xlink:href="#path8_stroke" transform="matrix(6.12323e-17 1 -1 6.12323e-17 -755 -118)" fill="#979797" style="mix-blend-mode:normal;"/>
</g>
<g id="Line" style="mix-blend-mode:normal;" figma:type="vector">
<use xlink:href="#path9_stroke" transform="matrix(1 -2.44929e-16 2.44929e-16 1 -806 116)" fill="#979797" style="mix-blend-mode:normal;"/>
</g>
<g id="Line" style="mix-blend-mode:normal;" figma:type="vector">
<use xlink:href="#path10_stroke" transform="translate(-888 45)" fill="#979797" style="mix-blend-mode:normal;"/>
</g>
<g id="Line" style="mix-blend-mode:normal;" figma:type="vector">
<use xlink:href="#path11_stroke" transform="translate(-865 155)" fill="#979797" style="mix-blend-mode:normal;"/>
</g>
<g id="Line" style="mix-blend-mode:normal;" figma:type="vector">
<use xlink:href="#path12_stroke" transform="matrix(6.12323e-17 -1 1 6.12323e-17 -806 137)" fill="#979797" style="mix-blend-mode:normal;"/>
</g>
<g id="Line" style="mix-blend-mode:normal;" figma:type="vector">
<use xlink:href="#path13_stroke" transform="matrix(6.12323e-17 1 -1 6.12323e-17 -1018 -114)" fill="#979797" style="mix-blend-mode:normal;"/>
</g>
<g id="Line" style="mix-blend-mode:normal;" figma:type="vector">
<use xlink:href="#path14_stroke" transform="matrix(6.12323e-17 1 -1 6.12323e-17 -888 45)" fill="#979797" style="mix-blend-mode:normal;"/>
</g>
<g id="Line" style="mix-blend-mode:normal;" figma:type="vector">
<use xlink:href="#path15_stroke" transform="matrix(6.12323e-17 1 -1 6.12323e-17 -865 155)" fill="#979797" style="mix-blend-mode:normal;"/>
</g>
<g id="Line" style="mix-blend-mode:normal;" figma:type="vector">
<use xlink:href="#path16_stroke" transform="translate(-1018 183)" fill="#979797" style="mix-blend-mode:normal;"/>
</g>
<g id="Line" style="mix-blend-mode:normal;" figma:type="vector">
<use xlink:href="#path17_stroke" transform="translate(-961 14)" fill="#979797" style="mix-blend-mode:normal;"/>
</g>
<g id="Line" style="mix-blend-mode:normal;" figma:type="vector">
<use xlink:href="#path18_stroke" transform="translate(-781 30)" fill="#979797" style="mix-blend-mode:normal;"/>
</g>
<g id="Line" style="mix-blend-mode:normal;" figma:type="vector">
<use xlink:href="#path18_stroke" transform="translate(-781 170)" fill="#979797" style="mix-blend-mode:normal;"/>
</g>
<g id="Line" style="mix-blend-mode:normal;" figma:type="vector">
<use xlink:href="#path19_stroke" transform="matrix(-1.83697e-16 -1 1 -1.83697e-16 -553 170)" fill="#979797" style="mix-blend-mode:normal;"/>
</g>
<g id="Line" style="mix-blend-mode:normal;" figma:type="vector">
<use xlink:href="#path19_stroke" transform="matrix(-1.83697e-16 -1 1 -1.83697e-16 -356.798 367.309)" fill="#979797" style="mix-blend-mode:normal;"/>
</g>
<g id="Line" style="mix-blend-mode:normal;" figma:type="vector">
<use xlink:href="#path20_stroke" transform="matrix(-1 -1.22465e-16 1.22465e-16 -1 -357 267)" fill="#979797" style="mix-blend-mode:normal;"/>
</g>
<g id="Line" style="mix-blend-mode:normal;" figma:type="vector">
<use xlink:href="#path21_stroke" transform="matrix(-1 1.22465e-16 -1.22465e-16 -1 -202 368)" fill="#979797" style="mix-blend-mode:normal;"/>
</g>
<g id="Line" style="mix-blend-mode:normal;" figma:type="vector">
<use xlink:href="#path22_stroke" transform="matrix(-1 1.22465e-16 -1.22465e-16 -1 -181 230)" fill="#979797" style="mix-blend-mode:normal;"/>
</g>
<g id="Line" style="mix-blend-mode:normal;" figma:type="vector">
<use xlink:href="#path23_stroke" transform="matrix(-1 1.22465e-16 -1.22465e-16 -1 -143 170)" fill="#979797" style="mix-blend-mode:normal;"/>
</g>
<g id="Line" style="mix-blend-mode:normal;" figma:type="vector">
<use xlink:href="#path24_stroke" transform="matrix(-1.83697e-16 -1 1 -1.83697e-16 -143 333)" fill="#979797" style="mix-blend-mode:normal;"/>
</g>
<g id="Line" style="mix-blend-mode:normal;" figma:type="vector">
<use xlink:href="#path25_stroke" transform="matrix(-1.83697e-16 -1 1 -1.83697e-16 -181 338)" fill="#979797" style="mix-blend-mode:normal;"/>
</g>
<g id="index" style="mix-blend-mode:normal;" figma:type="text">
<use xlink:href="#path26_fill" transform="translate(-1179 -210.425)" style="mix-blend-mode:normal;"/>
</g>
<g id="we" style="mix-blend-mode:normal;" figma:type="text">
<use xlink:href="#path27_fill" transform="translate(-1157 -170.425)" style="mix-blend-mode:normal;"/>
</g>
<g id="in [1:0]" style="mix-blend-mode:normal;" figma:type="text">
<use xlink:href="#path28_fill" transform="translate(-1190 -130.425)" style="mix-blend-mode:normal;"/>
</g>
<g id="array" style="mix-blend-mode:normal;" figma:type="frame">
<g id="Rectangle-9" style="mix-blend-mode:normal;" figma:type="vector">
<use xlink:href="#path29_stroke" transform="translate(-478 -229)" fill="#979797" style="mix-blend-mode:normal;"/>
</g>
<g id="dataout [2:0]" style="mix-blend-mode:normal;" figma:type="text">
<use xlink:href="#path30_fill" transform="translate(-436 49.245)" style="mix-blend-mode:normal;"/>
</g>
<g id="datain [2:0]" style="mix-blend-mode:normal;" figma:type="text">
<use xlink:href="#path31_fill" transform="translate(-454.155 -130.425)" style="mix-blend-mode:normal;"/>
</g>
<g id="we" style="mix-blend-mode:normal;" figma:type="text">
<use xlink:href="#path27_fill" transform="translate(-454.155 -170.425)" style="mix-blend-mode:normal;"/>
</g>
<g id="index" style="mix-blend-mode:normal;" figma:type="text">
<use xlink:href="#path26_fill" transform="translate(-454.155 -210.425)" style="mix-blend-mode:normal;"/>
</g>
<g id="DATA" style="mix-blend-mode:normal;" figma:type="text">
<use xlink:href="#path32_fill" transform="translate(-445.798 -106.425)" style="mix-blend-mode:normal;"/>
</g>
</g>
<g id="out[0]" style="mix-blend-mode:normal;" figma:type="text">
<use xlink:href="#path33_fill" transform="translate(-194 626.309)" style="mix-blend-mode:normal;"/>
</g>
<g id="mux2" style="mix-blend-mode:normal;" figma:type="frame">
<g id="Rectangle" style="mix-blend-mode:normal;" figma:type="vector">
<use xlink:href="#path34_stroke" transform="matrix(6.12323e-17 1 1 -6.12323e-17 -841 -16)" style="mix-blend-mode:normal;"/>
</g>
<g id="0" style="mix-blend-mode:normal;" figma:type="text">
<use xlink:href="#path35_fill" transform="matrix(6.12323e-17 1 1 -6.12323e-17 -840 6.99502)" style="mix-blend-mode:normal;"/>
</g>
<g id="1" style="mix-blend-mode:normal;" figma:type="text">
<use xlink:href="#path36_fill" transform="matrix(6.12323e-17 -1 1 6.12323e-17 -840 49.245)" style="mix-blend-mode:normal;"/>
</g>
</g>
<g id="mux2" style="mix-blend-mode:normal;" figma:type="frame">
<g id="Rectangle" style="mix-blend-mode:normal;" figma:type="vector">
<use xlink:href="#path34_stroke" transform="matrix(6.12323e-17 1 1 -6.12323e-17 -840 124.153)" style="mix-blend-mode:normal;"/>
</g>
<g id="0" style="mix-blend-mode:normal;" figma:type="text">
<use xlink:href="#path35_fill" transform="matrix(6.12323e-17 1 1 -6.12323e-17 -839 147.148)" style="mix-blend-mode:normal;"/>
</g>
<g id="1" style="mix-blend-mode:normal;" figma:type="text">
<use xlink:href="#path36_fill" transform="matrix(6.12323e-17 -1 1 6.12323e-17 -839 189.398)" style="mix-blend-mode:normal;"/>
</g>
</g>
<g id="mux2" style="mix-blend-mode:normal;" figma:type="frame">
<g id="Rectangle" style="mix-blend-mode:normal;" figma:type="vector">
<use xlink:href="#path34_stroke" transform="matrix(1 1.22465e-16 -1.22465e-16 1 -208 337.309)" style="mix-blend-mode:normal;"/>
</g>
<g id="0" style="mix-blend-mode:normal;" figma:type="text">
<use xlink:href="#path35_fill" transform="matrix(1 1.22465e-16 -1.22465e-16 1 -185.005 338.309)" style="mix-blend-mode:normal;"/>
</g>
<g id="1" style="mix-blend-mode:normal;" figma:type="text">
<use xlink:href="#path36_fill" transform="translate(-151.855 338.309)" style="mix-blend-mode:normal;"/>
</g>
</g>
<g id="in[1]" style="mix-blend-mode:normal;" figma:type="text">
<use xlink:href="#path37_fill" transform="translate(-911 -114)" style="mix-blend-mode:normal;"/>
</g>
<g id="in[0]" style="mix-blend-mode:normal;" figma:type="text">
<use xlink:href="#path38_fill" transform="translate(-957 -17.455)" style="mix-blend-mode:normal;"/>
</g>
<g id="in[0]" style="mix-blend-mode:normal;" figma:type="text">
<use xlink:href="#path38_fill" transform="translate(-1012 155.153)" style="mix-blend-mode:normal;"/>
</g>
<g id="Ellipse" style="mix-blend-mode:normal;" figma:type="ellipse">
<use xlink:href="#path39_fill" transform="translate(-1026 -125.5)" style="mix-blend-mode:normal;"/>
</g>
<g id="Ellipse" style="mix-blend-mode:normal;" figma:type="ellipse">
<use xlink:href="#path39_fill" transform="translate(-968.5 -125.5)" style="mix-blend-mode:normal;"/>
</g>
<g id="Ellipse" style="mix-blend-mode:normal;" figma:type="ellipse">
<use xlink:href="#path39_fill" transform="translate(-817.5 -125.5)" style="mix-blend-mode:normal;"/>
</g>
<g id="Ellipse" style="mix-blend-mode:normal;" figma:type="ellipse">
<use xlink:href="#path39_fill" transform="translate(-762.5 -125.5)" style="mix-blend-mode:normal;"/>
</g>
<g id="Ellipse" style="mix-blend-mode:normal;" figma:type="ellipse">
<use xlink:href="#path39_fill" transform="translate(-560.5 -125.5)" style="mix-blend-mode:normal;"/>
</g>
<g id="datain[2]" style="mix-blend-mode:normal;" figma:type="text">
<use xlink:href="#path40_fill" transform="translate(-678 -113.925)" style="mix-blend-mode:normal;"/>
</g>
<g id="datain[1]" style="mix-blend-mode:normal;" figma:type="text">
<use xlink:href="#path41_fill" transform="translate(-678 1)" style="mix-blend-mode:normal;"/>
</g>
<g id="datain[0]" style="mix-blend-mode:normal;" figma:type="text">
<use xlink:href="#path42_fill" transform="translate(-678 141.748)" style="mix-blend-mode:normal;"/>
</g>
<g id="dataout[0]" style="mix-blend-mode:normal;" figma:type="text">
<use xlink:href="#path43_fill" transform="translate(-539.155 238)" style="mix-blend-mode:normal;"/>
</g>
<g id="Line" style="mix-blend-mode:normal;" figma:type="vector">
<use xlink:href="#path44_stroke" transform="matrix(-1 -1.22465e-16 1.22465e-16 -1 -357 317)" fill="#979797" style="mix-blend-mode:normal;"/>
</g>
<g id="dataout[1]" style="mix-blend-mode:normal;" figma:type="text">
<use xlink:href="#path45_fill" transform="translate(-539.155 288)" style="mix-blend-mode:normal;"/>
</g>
<g id="Ellipse" style="mix-blend-mode:normal;" figma:type="ellipse">
<use xlink:href="#path39_fill" transform="translate(-364.298 308.5)" style="mix-blend-mode:normal;"/>
</g>
<g id="Ellipse" style="mix-blend-mode:normal;" figma:type="ellipse">
<use xlink:href="#path39_fill" transform="translate(-364.5 259.5)" style="mix-blend-mode:normal;"/>
</g>
<g id="dataout[2]" style="mix-blend-mode:normal;" figma:type="text">
<use xlink:href="#path46_fill" transform="translate(-418.798 371.5)" style="mix-blend-mode:normal;"/>
</g>
<g id="dataout[0]" style="mix-blend-mode:normal;" figma:type="text">
<use xlink:href="#path43_fill" transform="translate(-314 231.5)" style="mix-blend-mode:normal;"/>
</g>
<g id="dataout[1]" style="mix-blend-mode:normal;" figma:type="text">
<use xlink:href="#path45_fill" transform="translate(-290 141)" style="mix-blend-mode:normal;"/>
</g>
<g id="Polygon" style="mix-blend-mode:normal;" figma:type="regular-polygon">
<use xlink:href="#path47_stroke" transform="matrix(-1 1.22465e-16 -1.22465e-16 -1 -150 460.654)" style="mix-blend-mode:normal;"/>
</g>
<g id="Ellipse 2" style="mix-blend-mode:normal;" figma:type="ellipse">
<use xlink:href="#path48_stroke" transform="translate(-169 464.654)" style="mix-blend-mode:normal;"/>
</g>
<g id="Polygon" style="mix-blend-mode:normal;" figma:type="regular-polygon">
<use xlink:href="#path47_stroke" transform="matrix(-1 1.22465e-16 -1.22465e-16 -1 -267 460.654)" style="mix-blend-mode:normal;"/>
</g>
<g id="Ellipse 2" style="mix-blend-mode:normal;" figma:type="ellipse">
<use xlink:href="#path48_stroke" transform="translate(-286 464.654)" style="mix-blend-mode:normal;"/>
</g>
<g id="out[1]" style="mix-blend-mode:normal;" figma:type="text">
<use xlink:href="#path49_fill" transform="translate(-312 626.309)" style="mix-blend-mode:normal;"/>
</g>
<g id="Line 2" style="mix-blend-mode:normal;" figma:type="line">
<use xlink:href="#path50_stroke" transform="matrix(6.12323e-17 1 -1 6.12323e-17 -283 368)" fill="#979797" style="mix-blend-mode:normal;"/>
</g>
</g>
<defs>
<path id="path0_stroke" d="M 134.768 1.76777C 135.744 0.791456 135.744 -0.791456 134.768 -1.76777L 118.858 -17.6777C 117.882 -18.654 116.299 -18.654 115.322 -17.6777C 114.346 -16.7014 114.346 -15.1184 115.322 -14.1421L 129.464 0L 115.322 14.1421C 114.346 15.1184 114.346 16.7014 115.322 17.6777C 116.299 18.654 117.882 18.654 118.858 17.6777L 134.768 1.76777ZM 0 2.5L 133 2.5L 133 -2.5L 0 -2.5L 0 2.5Z"/>
<path id="path1_stroke" d="M 6.85098e-07 0L 6.85098e-07 -5L -5 -5L -5 0L 6.85098e-07 0ZM 1006 0L 1011 0L 1011 -5L 1006 -5L 1006 0ZM 1006 794L 1006 799L 1011 799L 1011 794L 1006 794ZM 6.85098e-07 794L -5 794L -5 799L 6.85098e-07 799L 6.85098e-07 794ZM 6.85098e-07 5L 1006 5L 1006 -5L 6.85098e-07 -5L 6.85098e-07 5ZM 1001 0L 1001 794L 1011 794L 1011 0L 1001 0ZM 1006 789L 6.85098e-07 789L 6.85098e-07 799L 1006 799L 1006 789ZM 5 794L 5 0L -5 0L -5 794L 5 794Z"/>
<path id="path2_stroke" d="M 2.5 0L 2.5 -2.5L -2.5 -2.5L -2.5 0L 2.5 0ZM -2.5 129L -2.5 131.5L 2.5 131.5L 2.5 129L -2.5 129ZM -2.5 0L -2.5 129L 2.5 129L 2.5 0L -2.5 0Z"/>
<path id="path3_stroke" d="M 2.5 0L 2.5 -2.5L -2.5 -2.5L -2.5 0L 2.5 0ZM -2.5 34L -2.5 36.5L 2.5 36.5L 2.5 34L -2.5 34ZM -2.5 0L -2.5 34L 2.5 34L 2.5 0L -2.5 0Z"/>
<path id="path4_stroke" d="M 2.40879 -0.669094L 1.73968 -3.07789L -3.0779 -1.73967L -2.40879 0.669127L 2.40879 -0.669094ZM 3 10.8L 0.591205 11.4691L 3 20.1408L 5.40879 11.4691L 3 10.8ZM 8.40879 0.669127L 9.0779 -1.73967L 4.26032 -3.07789L 3.59121 -0.669094L 8.40879 0.669127ZM -2.40879 0.669127L 0.591205 11.4691L 5.40879 10.1309L 2.40879 -0.669094L -2.40879 0.669127ZM 5.40879 11.4691L 8.40879 0.669127L 3.59121 -0.669094L 0.591205 10.1309L 5.40879 11.4691Z"/>
<path id="path5_stroke" d="M 639 2.5L 641.5 2.5L 641.5 -2.5L 639 -2.5L 639 2.5ZM 0 -2.5L -2.5 -2.5L -2.5 2.5L 0 2.5L 0 -2.5ZM 639 -2.5L 0 -2.5L 0 2.5L 639 2.5L 639 -2.5Z"/>
<path id="path6_stroke" d="M 132 2.5L 134.5 2.5L 134.5 -2.5L 132 -2.5L 132 2.5ZM 0 -2.5L -2.5 -2.5L -2.5 2.5L 0 2.5L 0 -2.5ZM 132 -2.5L 0 -2.5L 0 2.5L 132 2.5L 132 -2.5Z"/>
<path id="path7_stroke" d="M 110 2.5L 112.5 2.5L 112.5 -2.5L 110 -2.5L 110 2.5ZM 0 -2.5L -2.5 -2.5L -2.5 2.5L 0 2.5L 0 -2.5ZM 110 -2.5L 0 -2.5L 0 2.5L 110 2.5L 110 -2.5Z"/>
<path id="path8_stroke" d="M 234 2.5L 236.5 2.5L 236.5 -2.5L 234 -2.5L 234 2.5ZM 0 -2.5L -2.5 -2.5L -2.5 2.5L 0 2.5L 0 -2.5ZM 234 -2.5L 0 -2.5L 0 2.5L 234 2.5L 234 -2.5Z"/>
<path id="path9_stroke" d="M 51 2.5L 53.5 2.5L 53.5 -2.5L 51 -2.5L 51 2.5ZM 0 -2.5L -2.5 -2.5L -2.5 2.5L 0 2.5L 0 -2.5ZM 51 -2.5L 0 -2.5L 0 2.5L 51 2.5L 51 -2.5Z"/>
<path id="path10_stroke" d="M 47 2.5L 49.5 2.5L 49.5 -2.5L 47 -2.5L 47 2.5ZM 0 -2.5L -2.5 -2.5L -2.5 2.5L 0 2.5L 0 -2.5ZM 47 -2.5L 0 -2.5L 0 2.5L 47 2.5L 47 -2.5Z"/>
<path id="path11_stroke" d="M 26 2.5L 28.5 2.5L 28.5 -2.5L 26 -2.5L 26 2.5ZM 0 -2.5L -2.5 -2.5L -2.5 2.5L 0 2.5L 0 -2.5ZM 26 -2.5L 0 -2.5L 0 2.5L 26 2.5L 26 -2.5Z"/>
<path id="path12_stroke" d="M 20 2.5L 22.5 2.5L 22.5 -2.5L 20 -2.5L 20 2.5ZM 0 -2.5L -2.5 -2.5L -2.5 2.5L 0 2.5L 0 -2.5ZM 20 -2.5L 0 -2.5L 0 2.5L 20 2.5L 20 -2.5Z"/>
<path id="path13_stroke" d="M 297 2.5L 299.5 2.5L 299.5 -2.5L 297 -2.5L 297 2.5ZM 0 -2.5L -2.5 -2.5L -2.5 2.5L 0 2.5L 0 -2.5ZM 297 -2.5L 0 -2.5L 0 2.5L 297 2.5L 297 -2.5Z"/>
<path id="path14_stroke" d="M 272 2.5L 274.5 2.5L 274.5 -2.5L 272 -2.5L 272 2.5ZM 0 -2.5L -2.5 -2.5L -2.5 2.5L 0 2.5L 0 -2.5ZM 272 -2.5L 0 -2.5L 0 2.5L 272 2.5L 272 -2.5Z"/>
<path id="path15_stroke" d="M 111 2.5L 113.5 2.5L 113.5 -2.5L 111 -2.5L 111 2.5ZM 0 -2.5L -2.5 -2.5L -2.5 2.5L 0 2.5L 0 -2.5ZM 111 -2.5L 0 -2.5L 0 2.5L 111 2.5L 111 -2.5Z"/>
<path id="path16_stroke" d="M 174 2.5L 176.5 2.5L 176.5 -2.5L 174 -2.5L 174 2.5ZM 0 -2.5L -2.5 -2.5L -2.5 2.5L 0 2.5L 0 -2.5ZM 174 -2.5L 0 -2.5L 0 2.5L 174 2.5L 174 -2.5Z"/>
<path id="path17_stroke" d="M 117 2.5L 119.5 2.5L 119.5 -2.5L 117 -2.5L 117 2.5ZM 0 -2.5L -2.5 -2.5L -2.5 2.5L 0 2.5L 0 -2.5ZM 117 -2.5L 0 -2.5L 0 2.5L 117 2.5L 117 -2.5Z"/>
<path id="path18_stroke" d="M 228 2.5L 230.5 2.5L 230.5 -2.5L 228 -2.5L 228 2.5ZM 0 -2.5L -2.5 -2.5L -2.5 2.5L 0 2.5L 0 -2.5ZM 228 -2.5L 0 -2.5L 0 2.5L 228 2.5L 228 -2.5Z"/>
<path id="path19_stroke" d="M 285 2.5L 287.5 2.5L 287.5 -2.5L 285 -2.5L 285 2.5ZM 0 -2.5L -2.5 -2.5L -2.5 2.5L 0 2.5L 0 -2.5ZM 285 -2.5L 0 -2.5L 0 2.5L 285 2.5L 285 -2.5Z"/>
<path id="path20_stroke" d="M 508 2.5L 510.5 2.5L 510.5 -2.5L 508 -2.5L 508 2.5ZM 0 -2.5L -2.5 -2.5L -2.5 2.5L 0 2.5L 0 -2.5ZM 508 -2.5L 0 -2.5L 0 2.5L 508 2.5L 508 -2.5Z"/>
<path id="path21_stroke" d="M 155 2.5L 157.5 2.5L 157.5 -2.5L 155 -2.5L 155 2.5ZM 0 -2.5L -2.5 -2.5L -2.5 2.5L 0 2.5L 0 -2.5ZM 155 -2.5L 0 -2.5L 0 2.5L 155 2.5L 155 -2.5Z"/>
<path id="path22_stroke" d="M 176 2.5L 178.5 2.5L 178.5 -2.5L 176 -2.5L 176 2.5ZM 0 -2.5L -2.5 -2.5L -2.5 2.5L 0 2.5L 0 -2.5ZM 176 -2.5L 0 -2.5L 0 2.5L 176 2.5L 176 -2.5Z"/>
<path id="path23_stroke" d="M 214 2.5L 216.5 2.5L 216.5 -2.5L 214 -2.5L 214 2.5ZM 0 -2.5L -2.5 -2.5L -2.5 2.5L 0 2.5L 0 -2.5ZM 214 -2.5L 0 -2.5L 0 2.5L 214 2.5L 214 -2.5Z"/>
<path id="path24_stroke" d="M 162 2.5L 164.5 2.5L 164.5 -2.5L 162 -2.5L 162 2.5ZM 0 -2.5L -2.5 -2.5L -2.5 2.5L 0 2.5L 0 -2.5ZM 162 -2.5L 0 -2.5L 0 2.5L 162 2.5L 162 -2.5Z"/>
<path id="path25_stroke" d="M 108 2.5L 110.5 2.5L 110.5 -2.5L 108 -2.5L 108 2.5ZM 0 -2.5L -2.5 -2.5L -2.5 2.5L 0 2.5L 0 -2.5ZM 108 -2.5L 0 -2.5L 0 2.5L 108 2.5L 108 -2.5Z"/>
<path id="path26_fill" d="M 3.33008 18.5547L 1.52344 18.5547L 1.52344 7.98828L 3.33008 7.98828L 3.33008 18.5547ZM 1.37695 5.18555C 1.37695 4.89258 1.46484 4.64518 1.64062 4.44336C 1.82292 4.24154 2.08984 4.14062 2.44141 4.14062C 2.79297 4.14062 3.0599 4.24154 3.24219 4.44336C 3.42448 4.64518 3.51562 4.89258 3.51562 5.18555C 3.51562 5.47852 3.42448 5.72266 3.24219 5.91797C 3.0599 6.11328 2.79297 6.21094 2.44141 6.21094C 2.08984 6.21094 1.82292 6.11328 1.64062 5.91797C 1.46484 5.72266 1.37695 5.47852 1.37695 5.18555ZM 7.93945 7.98828L 7.99805 9.31641C 8.80534 8.30078 9.86003 7.79297 11.1621 7.79297C 13.3952 7.79297 14.5215 9.05273 14.541 11.5723L 14.541 18.5547L 12.7344 18.5547L 12.7344 11.5625C 12.7279 10.8008 12.5521 10.2376 12.207 9.87305C 11.8685 9.50846 11.3379 9.32617 10.6152 9.32617C 10.0293 9.32617 9.51497 9.48242 9.07227 9.79492C 8.62956 10.1074 8.28451 10.5176 8.03711 11.0254L 8.03711 18.5547L 6.23047 18.5547L 6.23047 7.98828L 7.93945 7.98828ZM 16.8262 13.1836C 16.8262 11.5625 17.2103 10.2604 17.9785 9.27734C 18.7467 8.28776 19.7526 7.79297 20.9961 7.79297C 22.2331 7.79297 23.2129 8.21615 23.9355 9.0625L 23.9355 3.55469L 25.7422 3.55469L 25.7422 18.5547L 24.082 18.5547L 23.9941 17.4219C 23.2715 18.3073 22.2656 18.75 20.9766 18.75C 19.7526 18.75 18.7533 18.2487 17.9785 17.2461C 17.2103 16.2435 16.8262 14.9349 16.8262 13.3203L 16.8262 13.1836ZM 18.6328 13.3887C 18.6328 14.5866 18.8802 15.5241 19.375 16.2012C 19.8698 16.8783 20.5534 17.2168 21.4258 17.2168C 22.5716 17.2168 23.4082 16.7025 23.9355 15.6738L 23.9355 10.8203C 23.3952 9.82422 22.5651 9.32617 21.4453 9.32617C 20.5599 9.32617 19.8698 9.66797 19.375 10.3516C 18.8802 11.0352 18.6328 12.0475 18.6328 13.3887ZM 32.9395 18.75C 31.5072 18.75 30.3418 18.2812 29.4434 17.3438C 28.5449 16.3997 28.0957 15.14 28.0957 13.5645L 28.0957 13.2324C 28.0957 12.1842 28.2943 11.25 28.6914 10.4297C 29.0951 9.60286 29.6549 8.95833 30.3711 8.49609C 31.0938 8.02734 31.875 7.79297 32.7148 7.79297C 34.0885 7.79297 35.1562 8.24544 35.918 9.15039C 36.6797 10.0553 37.0605 11.3509 37.0605 13.0371L 37.0605 13.7891L 29.9023 13.7891C 29.9284 14.8307 30.2311 15.6738 30.8105 16.3184C 31.3965 16.9564 32.1387 17.2754 33.0371 17.2754C 33.6751 17.2754 34.2155 17.1452 34.6582 16.8848C 35.1009 16.6243 35.4883 16.2793 35.8203 15.8496L 36.9238 16.709C 36.0384 18.0697 34.7103 18.75 32.9395 18.75ZM 32.7148 9.27734C 31.9857 9.27734 31.3737 9.54427 30.8789 10.0781C 30.3841 10.6055 30.0781 11.3477 29.9609 12.3047L 35.2539 12.3047L 35.2539 12.168C 35.2018 11.25 34.9544 10.5404 34.5117 10.0391C 34.069 9.53125 33.4701 9.27734 32.7148 9.27734ZM 42.7051 11.8457L 45.0488 7.98828L 47.1582 7.98828L 43.7012 13.2129L 47.2656 18.5547L 45.1758 18.5547L 42.7344 14.5996L 40.293 18.5547L 38.1934 18.5547L 41.7578 13.2129L 38.3008 7.98828L 40.3906 7.98828L 42.7051 11.8457Z"/>
<path id="path27_fill" d="M 10.7227 16.0645L 12.7539 7.98828L 14.5605 7.98828L 11.4844 18.5547L 10.0195 18.5547L 7.45117 10.5469L 4.95117 18.5547L 3.48633 18.5547L 0.419922 7.98828L 2.2168 7.98828L 4.29688 15.8984L 6.75781 7.98828L 8.21289 7.98828L 10.7227 16.0645ZM 20.791 18.75C 19.3587 18.75 18.1934 18.2812 17.2949 17.3438C 16.3965 16.3997 15.9473 15.14 15.9473 13.5645L 15.9473 13.2324C 15.9473 12.1842 16.1458 11.25 16.543 10.4297C 16.9466 9.60286 17.5065 8.95833 18.2227 8.49609C 18.9453 8.02734 19.7266 7.79297 20.5664 7.79297C 21.9401 7.79297 23.0078 8.24544 23.7695 9.15039C 24.5312 10.0553 24.9121 11.3509 24.9121 13.0371L 24.9121 13.7891L 17.7539 13.7891C 17.7799 14.8307 18.0827 15.6738 18.6621 16.3184C 19.248 16.9564 19.9902 17.2754 20.8887 17.2754C 21.5267 17.2754 22.0671 17.1452 22.5098 16.8848C 22.9525 16.6243 23.3398 16.2793 23.6719 15.8496L 24.7754 16.709C 23.89 18.0697 22.5618 18.75 20.791 18.75ZM 20.5664 9.27734C 19.8372 9.27734 19.2253 9.54427 18.7305 10.0781C 18.2357 10.6055 17.9297 11.3477 17.8125 12.3047L 23.1055 12.3047L 23.1055 12.168C 23.0534 11.25 22.806 10.5404 22.3633 10.0391C 21.9206 9.53125 21.3216 9.27734 20.5664 9.27734Z"/>
<path id="path28_fill" d="M 3.33008 18.5547L 1.52344 18.5547L 1.52344 7.98828L 3.33008 7.98828L 3.33008 18.5547ZM 1.37695 5.18555C 1.37695 4.89258 1.46484 4.64518 1.64062 4.44336C 1.82292 4.24154 2.08984 4.14062 2.44141 4.14062C 2.79297 4.14062 3.0599 4.24154 3.24219 4.44336C 3.42448 4.64518 3.51562 4.89258 3.51562 5.18555C 3.51562 5.47852 3.42448 5.72266 3.24219 5.91797C 3.0599 6.11328 2.79297 6.21094 2.44141 6.21094C 2.08984 6.21094 1.82292 6.11328 1.64062 5.91797C 1.46484 5.72266 1.37695 5.47852 1.37695 5.18555ZM 7.93945 7.98828L 7.99805 9.31641C 8.80534 8.30078 9.86003 7.79297 11.1621 7.79297C 13.3952 7.79297 14.5215 9.05273 14.541 11.5723L 14.541 18.5547L 12.7344 18.5547L 12.7344 11.5625C 12.7279 10.8008 12.5521 10.2376 12.207 9.87305C 11.8685 9.50846 11.3379 9.32617 10.6152 9.32617C 10.0293 9.32617 9.51497 9.48242 9.07227 9.79492C 8.62956 10.1074 8.28451 10.5176 8.03711 11.0254L 8.03711 18.5547L 6.23047 18.5547L 6.23047 7.98828L 7.93945 7.98828ZM 25.9668 3.78906L 24.1016 3.78906L 24.1016 20.1172L 25.9668 20.1172L 25.9668 21.6016L 22.2852 21.6016L 22.2852 2.30469L 25.9668 2.30469L 25.9668 3.78906ZM 33.291 18.5547L 31.4746 18.5547L 31.4746 6.51367L 27.832 7.85156L 27.832 6.21094L 33.0078 4.26758L 33.291 4.26758L 33.291 18.5547ZM 38.7109 17.6074C 38.7109 17.2949 38.8021 17.0345 38.9844 16.8262C 39.1732 16.6178 39.4531 16.5137 39.8242 16.5137C 40.1953 16.5137 40.4753 16.6178 40.6641 16.8262C 40.8594 17.0345 40.957 17.2949 40.957 17.6074C 40.957 17.9069 40.8594 18.1576 40.6641 18.3594C 40.4753 18.5612 40.1953 18.6621 39.8242 18.6621C 39.4531 18.6621 39.1732 18.5612 38.9844 18.3594C 38.8021 18.1576 38.7109 17.9069 38.7109 17.6074ZM 38.7207 8.98438C 38.7207 8.67188 38.8118 8.41146 38.9941 8.20312C 39.1829 7.99479 39.4629 7.89062 39.834 7.89062C 40.2051 7.89062 40.485 7.99479 40.6738 8.20312C 40.8691 8.41146 40.9668 8.67188 40.9668 8.98438C 40.9668 9.28385 40.8691 9.53451 40.6738 9.73633C 40.485 9.93815 40.2051 10.0391 39.834 10.0391C 39.4629 10.0391 39.1829 9.93815 38.9941 9.73633C 38.8118 9.53451 38.7207 9.28385 38.7207 8.98438ZM 52.3438 12.4902C 52.3438 14.6061 51.9824 16.1784 51.2598 17.207C 50.5371 18.2357 49.4076 18.75 47.8711 18.75C 46.3542 18.75 45.2311 18.2487 44.502 17.2461C 43.7728 16.237 43.3952 14.7331 43.3691 12.7344L 43.3691 10.3223C 43.3691 8.23242 43.7305 6.67969 44.4531 5.66406C 45.1758 4.64844 46.3086 4.14062 47.8516 4.14062C 49.3815 4.14062 50.5078 4.63216 51.2305 5.61523C 51.9531 6.5918 52.3242 8.10221 52.3438 10.1465L 52.3438 12.4902ZM 50.5371 10.0195C 50.5371 8.48958 50.3223 7.3763 49.8926 6.67969C 49.4629 5.97656 48.7826 5.625 47.8516 5.625C 46.9271 5.625 46.2533 5.97331 45.8301 6.66992C 45.4069 7.36654 45.1888 8.4375 45.1758 9.88281L 45.1758 12.7734C 45.1758 14.3099 45.3971 15.446 45.8398 16.1816C 46.2891 16.9108 46.9661 17.2754 47.8711 17.2754C 48.763 17.2754 49.4238 16.9303 49.8535 16.2402C 50.2897 15.5501 50.5176 14.4629 50.5371 12.9785L 50.5371 10.0195ZM 53.5645 2.30469L 57.2559 2.30469L 57.2559 21.6016L 53.5645 21.6016L 53.5645 20.1172L 55.4492 20.1172L 55.4492 3.78906L 53.5645 3.78906L 53.5645 2.30469Z"/>
<path id="path29_stroke" d="M 5.04297e-05 9.16992e-06L 5.04297e-05 -4.99999L -4.99995 -4.99999L -4.99995 9.16992e-06L 5.04297e-05 9.16992e-06ZM 163.097 9.16992e-06L 168.097 9.16992e-06L 168.097 -4.99999L 163.097 -4.99999L 163.097 9.16992e-06ZM 163.097 310.309L 163.097 315.309L 168.097 315.309L 168.097 310.309L 163.097 310.309ZM 5.04297e-05 310.309L -4.99995 310.309L -4.99995 315.309L 5.04297e-05 315.309L 5.04297e-05 310.309ZM 5.04297e-05 5.00001L 163.097 5.00001L 163.097 -4.99999L 5.04297e-05 -4.99999L 5.04297e-05 5.00001ZM 158.097 9.16992e-06L 158.097 310.309L 168.097 310.309L 168.097 9.16992e-06L 158.097 9.16992e-06ZM 163.097 305.309L 5.04297e-05 305.309L 5.04297e-05 315.309L 163.097 315.309L 163.097 305.309ZM 5.00005 310.309L 5.00005 9.16992e-06L -4.99995 9.16992e-06L -4.99995 310.309L 5.00005 310.309Z"/>
<path id="path30_fill" d="M 0.927734 13.1836C 0.927734 11.5625 1.31185 10.2604 2.08008 9.27734C 2.84831 8.28776 3.85417 7.79297 5.09766 7.79297C 6.33464 7.79297 7.31445 8.21615 8.03711 9.0625L 8.03711 3.55469L 9.84375 3.55469L 9.84375 18.5547L 8.18359 18.5547L 8.0957 17.4219C 7.37305 18.3073 6.36719 18.75 5.07812 18.75C 3.85417 18.75 2.85482 18.2487 2.08008 17.2461C 1.31185 16.2435 0.927734 14.9349 0.927734 13.3203L 0.927734 13.1836ZM 2.73438 13.3887C 2.73438 14.5866 2.98177 15.5241 3.47656 16.2012C 3.97135 16.8783 4.65495 17.2168 5.52734 17.2168C 6.67318 17.2168 7.50977 16.7025 8.03711 15.6738L 8.03711 10.8203C 7.49674 9.82422 6.66667 9.32617 5.54688 9.32617C 4.66146 9.32617 3.97135 9.66797 3.47656 10.3516C 2.98177 11.0352 2.73438 12.0475 2.73438 13.3887ZM 19.1797 18.5547C 19.0755 18.3464 18.9909 17.9753 18.9258 17.4414C 18.0859 18.3138 17.0833 18.75 15.918 18.75C 14.8763 18.75 14.0202 18.457 13.3496 17.8711C 12.6855 17.2786 12.3535 16.5299 12.3535 15.625C 12.3535 14.5247 12.7702 13.6719 13.6035 13.0664C 14.4434 12.4544 15.6217 12.1484 17.1387 12.1484L 18.8965 12.1484L 18.8965 11.3184C 18.8965 10.6868 18.7077 10.1855 18.3301 9.81445C 17.9525 9.43685 17.3958 9.24805 16.6602 9.24805C 16.0156 9.24805 15.4753 9.41081 15.0391 9.73633C 14.6029 10.0618 14.3848 10.4557 14.3848 10.918L 12.5684 10.918C 12.5684 10.3906 12.7539 9.88281 13.125 9.39453C 13.5026 8.89974 14.0104 8.50911 14.6484 8.22266C 15.293 7.9362 15.9993 7.79297 16.7676 7.79297C 17.985 7.79297 18.9388 8.09896 19.6289 8.71094C 20.319 9.31641 20.6771 10.153 20.7031 11.2207L 20.7031 16.084C 20.7031 17.054 20.8268 17.8255 21.0742 18.3984L 21.0742 18.5547L 19.1797 18.5547ZM 16.1816 17.1777C 16.748 17.1777 17.2852 17.0312 17.793 16.7383C 18.3008 16.4453 18.6686 16.0645 18.8965 15.5957L 18.8965 13.4277L 17.4805 13.4277C 15.2669 13.4277 14.1602 14.0755 14.1602 15.3711C 14.1602 15.9375 14.349 16.3802 14.7266 16.6992C 15.1042 17.0182 15.5892 17.1777 16.1816 17.1777ZM 25.9863 5.42969L 25.9863 7.98828L 27.959 7.98828L 27.959 9.38477L 25.9863 9.38477L 25.9863 15.9375C 25.9863 16.3607 26.0742 16.6797 26.25 16.8945C 26.4258 17.1029 26.7253 17.207 27.1484 17.207C 27.3568 17.207 27.6432 17.168 28.0078 17.0898L 28.0078 18.5547C 27.5326 18.6849 27.0703 18.75 26.6211 18.75C 25.8138 18.75 25.2051 18.5059 24.7949 18.0176C 24.3848 17.5293 24.1797 16.8359 24.1797 15.9375L 24.1797 9.38477L 22.2559 9.38477L 22.2559 7.98828L 24.1797 7.98828L 24.1797 5.42969L 25.9863 5.42969ZM 36.6016 18.5547C 36.4974 18.3464 36.4128 17.9753 36.3477 17.4414C 35.5078 18.3138 34.5052 18.75 33.3398 18.75C 32.2982 18.75 31.4421 18.457 30.7715 17.8711C 30.1074 17.2786 29.7754 16.5299 29.7754 15.625C 29.7754 14.5247 30.1921 13.6719 31.0254 13.0664C 31.8652 12.4544 33.0436 12.1484 34.5605 12.1484L 36.3184 12.1484L 36.3184 11.3184C 36.3184 10.6868 36.1296 10.1855 35.752 9.81445C 35.3743 9.43685 34.8177 9.24805 34.082 9.24805C 33.4375 9.24805 32.8971 9.41081 32.4609 9.73633C 32.0247 10.0618 31.8066 10.4557 31.8066 10.918L 29.9902 10.918C 29.9902 10.3906 30.1758 9.88281 30.5469 9.39453C 30.9245 8.89974 31.4323 8.50911 32.0703 8.22266C 32.7148 7.9362 33.4212 7.79297 34.1895 7.79297C 35.4069 7.79297 36.3607 8.09896 37.0508 8.71094C 37.7409 9.31641 38.099 10.153 38.125 11.2207L 38.125 16.084C 38.125 17.054 38.2487 17.8255 38.4961 18.3984L 38.4961 18.5547L 36.6016 18.5547ZM 33.6035 17.1777C 34.1699 17.1777 34.707 17.0312 35.2148 16.7383C 35.7227 16.4453 36.0905 16.0645 36.3184 15.5957L 36.3184 13.4277L 34.9023 13.4277C 32.6888 13.4277 31.582 14.0755 31.582 15.3711C 31.582 15.9375 31.7708 16.3802 32.1484 16.6992C 32.526 17.0182 33.0111 17.1777 33.6035 17.1777ZM 40.4785 13.1738C 40.4785 12.1387 40.6803 11.2077 41.084 10.3809C 41.4941 9.55404 42.0605 8.91602 42.7832 8.4668C 43.5124 8.01758 44.3424 7.79297 45.2734 7.79297C 46.7122 7.79297 47.8743 8.29102 48.7598 9.28711C 49.6517 10.2832 50.0977 11.6081 50.0977 13.2617L 50.0977 13.3887C 50.0977 14.4173 49.8991 15.3418 49.502 16.1621C 49.1113 16.9759 48.5482 17.6107 47.8125 18.0664C 47.0833 18.5221 46.2435 18.75 45.293 18.75C 43.8607 18.75 42.6986 18.252 41.8066 17.2559C 40.9212 16.2598 40.4785 14.9414 40.4785 13.3008L 40.4785 13.1738ZM 42.2949 13.3887C 42.2949 14.5605 42.5651 15.5013 43.1055 16.2109C 43.6523 16.9206 44.3815 17.2754 45.293 17.2754C 46.2109 17.2754 46.9401 16.9173 47.4805 16.2012C 48.0208 15.4785 48.291 14.4694 48.291 13.1738C 48.291 12.015 48.0143 11.0775 47.4609 10.3613C 46.9141 9.63867 46.1849 9.27734 45.2734 9.27734C 44.3815 9.27734 43.6621 9.63216 43.1152 10.3418C 42.5684 11.0514 42.2949 12.0671 42.2949 13.3887ZM 58.8867 17.5098C 58.1836 18.3366 57.1517 18.75 55.791 18.75C 54.6647 18.75 53.8053 18.4245 53.2129 17.7734C 52.627 17.1159 52.3307 16.1458 52.3242 14.8633L 52.3242 7.98828L 54.1309 7.98828L 54.1309 14.8145C 54.1309 16.416 54.7819 17.2168 56.084 17.2168C 57.4642 17.2168 58.3822 16.7025 58.8379 15.6738L 58.8379 7.98828L 60.6445 7.98828L 60.6445 18.5547L 58.9258 18.5547L 58.8867 17.5098ZM 65.8496 5.42969L 65.8496 7.98828L 67.8223 7.98828L 67.8223 9.38477L 65.8496 9.38477L 65.8496 15.9375C 65.8496 16.3607 65.9375 16.6797 66.1133 16.8945C 66.2891 17.1029 66.5885 17.207 67.0117 17.207C 67.2201 17.207 67.5065 17.168 67.8711 17.0898L 67.8711 18.5547C 67.3958 18.6849 66.9336 18.75 66.4844 18.75C 65.6771 18.75 65.0684 18.5059 64.6582 18.0176C 64.248 17.5293 64.043 16.8359 64.043 15.9375L 64.043 9.38477L 62.1191 9.38477L 62.1191 7.98828L 64.043 7.98828L 64.043 5.42969L 65.8496 5.42969ZM 78.6426 3.78906L 76.7773 3.78906L 76.7773 20.1172L 78.6426 20.1172L 78.6426 21.6016L 74.9609 21.6016L 74.9609 2.30469L 78.6426 2.30469L 78.6426 3.78906ZM 89.3457 18.5547L 80.0293 18.5547L 80.0293 17.2559L 84.9512 11.7871C 85.6803 10.9603 86.1816 10.2897 86.4551 9.77539C 86.735 9.25456 86.875 8.71745 86.875 8.16406C 86.875 7.42188 86.6504 6.81315 86.2012 6.33789C 85.752 5.86263 85.153 5.625 84.4043 5.625C 83.5059 5.625 82.806 5.88216 82.3047 6.39648C 81.8099 6.9043 81.5625 7.61393 81.5625 8.52539L 79.7559 8.52539C 79.7559 7.2168 80.1758 6.15885 81.0156 5.35156C 81.862 4.54427 82.9915 4.14062 84.4043 4.14062C 85.7259 4.14062 86.7708 4.48893 87.5391 5.18555C 88.3073 5.87565 88.6914 6.79688 88.6914 7.94922C 88.6914 9.34896 87.7995 11.0156 86.0156 12.9492L 82.207 17.0801L 89.3457 17.0801L 89.3457 18.5547ZM 91.3867 17.6074C 91.3867 17.2949 91.4779 17.0345 91.6602 16.8262C 91.849 16.6178 92.1289 16.5137 92.5 16.5137C 92.8711 16.5137 93.151 16.6178 93.3398 16.8262C 93.5352 17.0345 93.6328 17.2949 93.6328 17.6074C 93.6328 17.9069 93.5352 18.1576 93.3398 18.3594C 93.151 18.5612 92.8711 18.6621 92.5 18.6621C 92.1289 18.6621 91.849 18.5612 91.6602 18.3594C 91.4779 18.1576 91.3867 17.9069 91.3867 17.6074ZM 91.3965 8.98438C 91.3965 8.67188 91.4876 8.41146 91.6699 8.20312C 91.8587 7.99479 92.1387 7.89062 92.5098 7.89062C 92.8809 7.89062 93.1608 7.99479 93.3496 8.20312C 93.5449 8.41146 93.6426 8.67188 93.6426 8.98438C 93.6426 9.28385 93.5449 9.53451 93.3496 9.73633C 93.1608 9.93815 92.8809 10.0391 92.5098 10.0391C 92.1387 10.0391 91.8587 9.93815 91.6699 9.73633C 91.4876 9.53451 91.3965 9.28385 91.3965 8.98438ZM 105.02 12.4902C 105.02 14.6061 104.658 16.1784 103.936 17.207C 103.213 18.2357 102.083 18.75 100.547 18.75C 99.0299 18.75 97.9069 18.2487 97.1777 17.2461C 96.4486 16.237 96.071 14.7331 96.0449 12.7344L 96.0449 10.3223C 96.0449 8.23242 96.4062 6.67969 97.1289 5.66406C 97.8516 4.64844 98.9844 4.14062 100.527 4.14062C 102.057 4.14062 103.184 4.63216 103.906 5.61523C 104.629 6.5918 105 8.10221 105.02 10.1465L 105.02 12.4902ZM 103.213 10.0195C 103.213 8.48958 102.998 7.3763 102.568 6.67969C 102.139 5.97656 101.458 5.625 100.527 5.625C 99.6029 5.625 98.929 5.97331 98.5059 6.66992C 98.0827 7.36654 97.8646 8.4375 97.8516 9.88281L 97.8516 12.7734C 97.8516 14.3099 98.0729 15.446 98.5156 16.1816C 98.9648 16.9108 99.6419 17.2754 100.547 17.2754C 101.439 17.2754 102.1 16.9303 102.529 16.2402C 102.965 15.5501 103.193 14.4629 103.213 12.9785L 103.213 10.0195ZM 106.24 2.30469L 109.932 2.30469L 109.932 21.6016L 106.24 21.6016L 106.24 20.1172L 108.125 20.1172L 108.125 3.78906L 106.24 3.78906L 106.24 2.30469Z"/>
<path id="path31_fill" d="M 0.927734 13.1836C 0.927734 11.5625 1.31185 10.2604 2.08008 9.27734C 2.84831 8.28776 3.85417 7.79297 5.09766 7.79297C 6.33464 7.79297 7.31445 8.21615 8.03711 9.0625L 8.03711 3.55469L 9.84375 3.55469L 9.84375 18.5547L 8.18359 18.5547L 8.0957 17.4219C 7.37305 18.3073 6.36719 18.75 5.07812 18.75C 3.85417 18.75 2.85482 18.2487 2.08008 17.2461C 1.31185 16.2435 0.927734 14.9349 0.927734 13.3203L 0.927734 13.1836ZM 2.73438 13.3887C 2.73438 14.5866 2.98177 15.5241 3.47656 16.2012C 3.97135 16.8783 4.65495 17.2168 5.52734 17.2168C 6.67318 17.2168 7.50977 16.7025 8.03711 15.6738L 8.03711 10.8203C 7.49674 9.82422 6.66667 9.32617 5.54688 9.32617C 4.66146 9.32617 3.97135 9.66797 3.47656 10.3516C 2.98177 11.0352 2.73438 12.0475 2.73438 13.3887ZM 19.1797 18.5547C 19.0755 18.3464 18.9909 17.9753 18.9258 17.4414C 18.0859 18.3138 17.0833 18.75 15.918 18.75C 14.8763 18.75 14.0202 18.457 13.3496 17.8711C 12.6855 17.2786 12.3535 16.5299 12.3535 15.625C 12.3535 14.5247 12.7702 13.6719 13.6035 13.0664C 14.4434 12.4544 15.6217 12.1484 17.1387 12.1484L 18.8965 12.1484L 18.8965 11.3184C 18.8965 10.6868 18.7077 10.1855 18.3301 9.81445C 17.9525 9.43685 17.3958 9.24805 16.6602 9.24805C 16.0156 9.24805 15.4753 9.41081 15.0391 9.73633C 14.6029 10.0618 14.3848 10.4557 14.3848 10.918L 12.5684 10.918C 12.5684 10.3906 12.7539 9.88281 13.125 9.39453C 13.5026 8.89974 14.0104 8.50911 14.6484 8.22266C 15.293 7.9362 15.9993 7.79297 16.7676 7.79297C 17.985 7.79297 18.9388 8.09896 19.6289 8.71094C 20.319 9.31641 20.6771 10.153 20.7031 11.2207L 20.7031 16.084C 20.7031 17.054 20.8268 17.8255 21.0742 18.3984L 21.0742 18.5547L 19.1797 18.5547ZM 16.1816 17.1777C 16.748 17.1777 17.2852 17.0312 17.793 16.7383C 18.3008 16.4453 18.6686 16.0645 18.8965 15.5957L 18.8965 13.4277L 17.4805 13.4277C 15.2669 13.4277 14.1602 14.0755 14.1602 15.3711C 14.1602 15.9375 14.349 16.3802 14.7266 16.6992C 15.1042 17.0182 15.5892 17.1777 16.1816 17.1777ZM 25.9863 5.42969L 25.9863 7.98828L 27.959 7.98828L 27.959 9.38477L 25.9863 9.38477L 25.9863 15.9375C 25.9863 16.3607 26.0742 16.6797 26.25 16.8945C 26.4258 17.1029 26.7253 17.207 27.1484 17.207C 27.3568 17.207 27.6432 17.168 28.0078 17.0898L 28.0078 18.5547C 27.5326 18.6849 27.0703 18.75 26.6211 18.75C 25.8138 18.75 25.2051 18.5059 24.7949 18.0176C 24.3848 17.5293 24.1797 16.8359 24.1797 15.9375L 24.1797 9.38477L 22.2559 9.38477L 22.2559 7.98828L 24.1797 7.98828L 24.1797 5.42969L 25.9863 5.42969ZM 36.6016 18.5547C 36.4974 18.3464 36.4128 17.9753 36.3477 17.4414C 35.5078 18.3138 34.5052 18.75 33.3398 18.75C 32.2982 18.75 31.4421 18.457 30.7715 17.8711C 30.1074 17.2786 29.7754 16.5299 29.7754 15.625C 29.7754 14.5247 30.1921 13.6719 31.0254 13.0664C 31.8652 12.4544 33.0436 12.1484 34.5605 12.1484L 36.3184 12.1484L 36.3184 11.3184C 36.3184 10.6868 36.1296 10.1855 35.752 9.81445C 35.3743 9.43685 34.8177 9.24805 34.082 9.24805C 33.4375 9.24805 32.8971 9.41081 32.4609 9.73633C 32.0247 10.0618 31.8066 10.4557 31.8066 10.918L 29.9902 10.918C 29.9902 10.3906 30.1758 9.88281 30.5469 9.39453C 30.9245 8.89974 31.4323 8.50911 32.0703 8.22266C 32.7148 7.9362 33.4212 7.79297 34.1895 7.79297C 35.4069 7.79297 36.3607 8.09896 37.0508 8.71094C 37.7409 9.31641 38.099 10.153 38.125 11.2207L 38.125 16.084C 38.125 17.054 38.2487 17.8255 38.4961 18.3984L 38.4961 18.5547L 36.6016 18.5547ZM 33.6035 17.1777C 34.1699 17.1777 34.707 17.0312 35.2148 16.7383C 35.7227 16.4453 36.0905 16.0645 36.3184 15.5957L 36.3184 13.4277L 34.9023 13.4277C 32.6888 13.4277 31.582 14.0755 31.582 15.3711C 31.582 15.9375 31.7708 16.3802 32.1484 16.6992C 32.526 17.0182 33.0111 17.1777 33.6035 17.1777ZM 42.9199 18.5547L 41.1133 18.5547L 41.1133 7.98828L 42.9199 7.98828L 42.9199 18.5547ZM 40.9668 5.18555C 40.9668 4.89258 41.0547 4.64518 41.2305 4.44336C 41.4128 4.24154 41.6797 4.14062 42.0312 4.14062C 42.3828 4.14062 42.6497 4.24154 42.832 4.44336C 43.0143 4.64518 43.1055 4.89258 43.1055 5.18555C 43.1055 5.47852 43.0143 5.72266 42.832 5.91797C 42.6497 6.11328 42.3828 6.21094 42.0312 6.21094C 41.6797 6.21094 41.4128 6.11328 41.2305 5.91797C 41.0547 5.72266 40.9668 5.47852 40.9668 5.18555ZM 47.5293 7.98828L 47.5879 9.31641C 48.3952 8.30078 49.4499 7.79297 50.752 7.79297C 52.985 7.79297 54.1113 9.05273 54.1309 11.5723L 54.1309 18.5547L 52.3242 18.5547L 52.3242 11.5625C 52.3177 10.8008 52.1419 10.2376 51.7969 9.87305C 51.4583 9.50846 50.9277 9.32617 50.2051 9.32617C 49.6191 9.32617 49.1048 9.48242 48.6621 9.79492C 48.2194 10.1074 47.8743 10.5176 47.627 11.0254L 47.627 18.5547L 45.8203 18.5547L 45.8203 7.98828L 47.5293 7.98828ZM 65.5566 3.78906L 63.6914 3.78906L 63.6914 20.1172L 65.5566 20.1172L 65.5566 21.6016L 61.875 21.6016L 61.875 2.30469L 65.5566 2.30469L 65.5566 3.78906ZM 76.2598 18.5547L 66.9434 18.5547L 66.9434 17.2559L 71.8652 11.7871C 72.5944 10.9603 73.0957 10.2897 73.3691 9.77539C 73.6491 9.25456 73.7891 8.71745 73.7891 8.16406C 73.7891 7.42188 73.5645 6.81315 73.1152 6.33789C 72.666 5.86263 72.0671 5.625 71.3184 5.625C 70.4199 5.625 69.7201 5.88216 69.2188 6.39648C 68.724 6.9043 68.4766 7.61393 68.4766 8.52539L 66.6699 8.52539C 66.6699 7.2168 67.0898 6.15885 67.9297 5.35156C 68.776 4.54427 69.9056 4.14062 71.3184 4.14062C 72.64 4.14062 73.6849 4.48893 74.4531 5.18555C 75.2214 5.87565 75.6055 6.79688 75.6055 7.94922C 75.6055 9.34896 74.7135 11.0156 72.9297 12.9492L 69.1211 17.0801L 76.2598 17.0801L 76.2598 18.5547ZM 78.3008 17.6074C 78.3008 17.2949 78.3919 17.0345 78.5742 16.8262C 78.763 16.6178 79.043 16.5137 79.4141 16.5137C 79.7852 16.5137 80.0651 16.6178 80.2539 16.8262C 80.4492 17.0345 80.5469 17.2949 80.5469 17.6074C 80.5469 17.9069 80.4492 18.1576 80.2539 18.3594C 80.0651 18.5612 79.7852 18.6621 79.4141 18.6621C 79.043 18.6621 78.763 18.5612 78.5742 18.3594C 78.3919 18.1576 78.3008 17.9069 78.3008 17.6074ZM 78.3105 8.98438C 78.3105 8.67188 78.4017 8.41146 78.584 8.20312C 78.7728 7.99479 79.0527 7.89062 79.4238 7.89062C 79.7949 7.89062 80.0749 7.99479 80.2637 8.20312C 80.459 8.41146 80.5566 8.67188 80.5566 8.98438C 80.5566 9.28385 80.459 9.53451 80.2637 9.73633C 80.0749 9.93815 79.7949 10.0391 79.4238 10.0391C 79.0527 10.0391 78.7728 9.93815 78.584 9.73633C 78.4017 9.53451 78.3105 9.28385 78.3105 8.98438ZM 91.9336 12.4902C 91.9336 14.6061 91.5723 16.1784 90.8496 17.207C 90.127 18.2357 88.9974 18.75 87.4609 18.75C 85.944 18.75 84.821 18.2487 84.0918 17.2461C 83.3626 16.237 82.985 14.7331 82.959 12.7344L 82.959 10.3223C 82.959 8.23242 83.3203 6.67969 84.043 5.66406C 84.7656 4.64844 85.8984 4.14062 87.4414 4.14062C 88.9714 4.14062 90.0977 4.63216 90.8203 5.61523C 91.543 6.5918 91.9141 8.10221 91.9336 10.1465L 91.9336 12.4902ZM 90.127 10.0195C 90.127 8.48958 89.9121 7.3763 89.4824 6.67969C 89.0527 5.97656 88.3724 5.625 87.4414 5.625C 86.5169 5.625 85.8431 5.97331 85.4199 6.66992C 84.9967 7.36654 84.7786 8.4375 84.7656 9.88281L 84.7656 12.7734C 84.7656 14.3099 84.987 15.446 85.4297 16.1816C 85.8789 16.9108 86.556 17.2754 87.4609 17.2754C 88.3529 17.2754 89.0137 16.9303 89.4434 16.2402C 89.8796 15.5501 90.1074 14.4629 90.127 12.9785L 90.127 10.0195ZM 93.1543 2.30469L 96.8457 2.30469L 96.8457 21.6016L 93.1543 21.6016L 93.1543 20.1172L 95.0391 20.1172L 95.0391 3.78906L 93.1543 3.78906L 93.1543 2.30469Z"/>
<path id="path32_fill" d="M 2.9707 33.3984L 2.9707 7.80469L 10.1953 7.80469C 12.4219 7.80469 14.3906 8.29688 16.1016 9.28125C 17.8125 10.2656 19.1309 11.666 20.0566 13.4824C 20.9941 15.2988 21.4688 17.3848 21.4805 19.7402L 21.4805 21.375C 21.4805 23.7891 21.0117 25.9043 20.0742 27.7207C 19.1484 29.5371 17.8184 30.9316 16.084 31.9043C 14.3613 32.877 12.3516 33.375 10.0547 33.3984L 2.9707 33.3984ZM 6.3457 10.582L 6.3457 30.6387L 9.89648 30.6387C 12.498 30.6387 14.5195 29.8301 15.9609 28.2129C 17.4141 26.5957 18.1406 24.293 18.1406 21.3047L 18.1406 19.8105C 18.1406 16.9043 17.4551 14.6484 16.084 13.043C 14.7246 11.4258 12.791 10.6055 10.2832 10.582L 6.3457 10.582ZM 40.377 26.7188L 29.6543 26.7188L 27.2461 33.3984L 23.7656 33.3984L 33.5391 7.80469L 36.4922 7.80469L 46.2832 33.3984L 42.8203 33.3984L 40.377 26.7188ZM 30.6738 23.9414L 39.375 23.9414L 35.0156 11.9707L 30.6738 23.9414ZM 65.1621 10.582L 56.9355 10.582L 56.9355 33.3984L 53.5781 33.3984L 53.5781 10.582L 45.3691 10.582L 45.3691 7.80469L 65.1621 7.80469L 65.1621 10.582ZM 81.7207 26.7188L 70.998 26.7188L 68.5898 33.3984L 65.1094 33.3984L 74.8828 7.80469L 77.8359 7.80469L 87.627 33.3984L 84.1641 33.3984L 81.7207 26.7188ZM 72.0176 23.9414L 80.7188 23.9414L 76.3594 11.9707L 72.0176 23.9414Z"/>
<path id="path33_fill" d="M 1.06641 15.8086C 1.06641 14.5664 1.30859 13.4492 1.79297 12.457C 2.28516 11.4648 2.96484 10.6992 3.83203 10.1602C 4.70703 9.62109 5.70312 9.35156 6.82031 9.35156C 8.54687 9.35156 9.94141 9.94922 11.0039 11.1445C 12.0742 12.3398 12.6094 13.9297 12.6094 15.9141L 12.6094 16.0664C 12.6094 17.3008 12.3711 18.4102 11.8945 19.3945C 11.4258 20.3711 10.75 21.1328 9.86719 21.6797C 8.99219 22.2266 7.98437 22.5 6.84375 22.5C 5.125 22.5 3.73047 21.9023 2.66016 20.707C 1.59766 19.5117 1.06641 17.9297 1.06641 15.9609L 1.06641 15.8086ZM 3.24609 16.0664C 3.24609 17.4727 3.57031 18.6016 4.21875 19.4531C 4.875 20.3047 5.75 20.7305 6.84375 20.7305C 7.94531 20.7305 8.82031 20.3008 9.46875 19.4414C 10.1172 18.5742 10.4414 17.3633 10.4414 15.8086C 10.4414 14.418 10.1094 13.293 9.44531 12.4336C 8.78906 11.5664 7.91406 11.1328 6.82031 11.1328C 5.75 11.1328 4.88672 11.5586 4.23047 12.4102C 3.57422 13.2617 3.24609 14.4805 3.24609 16.0664ZM 23.1562 21.0117C 22.3125 22.0039 21.0742 22.5 19.4414 22.5C 18.0898 22.5 17.0586 22.1094 16.3477 21.3281C 15.6445 20.5391 15.2891 19.375 15.2812 17.8359L 15.2812 9.58594L 17.4492 9.58594L 17.4492 17.7773C 17.4492 19.6992 18.2305 20.6602 19.793 20.6602C 21.4492 20.6602 22.5508 20.043 23.0977 18.8086L 23.0977 9.58594L 25.2656 9.58594L 25.2656 22.2656L 23.2031 22.2656L 23.1562 21.0117ZM 31.5117 6.51562L 31.5117 9.58594L 33.8789 9.58594L 33.8789 11.2617L 31.5117 11.2617L 31.5117 19.125C 31.5117 19.6328 31.6172 20.0156 31.8281 20.2734C 32.0391 20.5234 32.3984 20.6484 32.9062 20.6484C 33.1562 20.6484 33.5 20.6016 33.9375 20.5078L 33.9375 22.2656C 33.3672 22.4219 32.8125 22.5 32.2734 22.5C 31.3047 22.5 30.5742 22.207 30.082 21.6211C 29.5898 21.0352 29.3438 20.2031 29.3438 19.125L 29.3438 11.2617L 27.0352 11.2617L 27.0352 9.58594L 29.3438 9.58594L 29.3438 6.51562L 31.5117 6.51562ZM 40.9102 4.54688L 38.6719 4.54688L 38.6719 24.1406L 40.9102 24.1406L 40.9102 25.9219L 36.4922 25.9219L 36.4922 2.76562L 40.9102 2.76562L 40.9102 4.54688ZM 53.2734 14.9883C 53.2734 17.5273 52.8398 19.4141 51.9727 20.6484C 51.1055 21.8828 49.75 22.5 47.9062 22.5C 46.0859 22.5 44.7383 21.8984 43.8633 20.6953C 42.9883 19.4844 42.5352 17.6797 42.5039 15.2812L 42.5039 12.3867C 42.5039 9.87891 42.9375 8.01562 43.8047 6.79688C 44.6719 5.57812 46.0312 4.96875 47.8828 4.96875C 49.7188 4.96875 51.0703 5.55859 51.9375 6.73828C 52.8047 7.91016 53.25 9.72266 53.2734 12.1758L 53.2734 14.9883ZM 51.1055 12.0234C 51.1055 10.1875 50.8477 8.85156 50.332 8.01562C 49.8164 7.17188 49 6.75 47.8828 6.75C 46.7734 6.75 45.9648 7.16797 45.457 8.00391C 44.9492 8.83984 44.6875 10.125 44.6719 11.8594L 44.6719 15.3281C 44.6719 17.1719 44.9375 18.5352 45.4688 19.418C 46.0078 20.293 46.8203 20.7305 47.9062 20.7305C 48.9766 20.7305 49.7695 20.3164 50.2852 19.4883C 50.8086 18.6602 51.082 17.3555 51.1055 15.5742L 51.1055 12.0234ZM 54.7383 2.76562L 59.168 2.76562L 59.168 25.9219L 54.7383 25.9219L 54.7383 24.1406L 57 24.1406L 57 4.54688L 54.7383 4.54688L 54.7383 2.76562Z"/>
<path id="path34_stroke" d="M 0 0L 0 -5L -6.74163 -5L -4.78472 1.45136L 0 0ZM 91 0L 95.7847 1.45136L 97.7416 -5L 91 -5L 91 0ZM 72.8 60L 72.8 65L 76.5083 65L 77.5847 61.4514L 72.8 60ZM 18.2 60L 13.4153 61.4514L 14.4917 65L 18.2 65L 18.2 60ZM 0 5L 91 5L 91 -5L 0 -5L 0 5ZM 86.2153 -1.45136L 68.0153 58.5486L 77.5847 61.4514L 95.7847 1.45136L 86.2153 -1.45136ZM 72.8 55L 18.2 55L 18.2 65L 72.8 65L 72.8 55ZM 22.9847 58.5486L 4.78472 -1.45136L -4.78472 1.45136L 13.4153 61.4514L 22.9847 58.5486Z"/>
<path id="path35_fill" d="M 12.1172 14.9883C 12.1172 17.5273 11.6836 19.4141 10.8164 20.6484C 9.94922 21.8828 8.59375 22.5 6.75 22.5C 4.92969 22.5 3.58203 21.8984 2.70703 20.6953C 1.83203 19.4844 1.37891 17.6797 1.34766 15.2812L 1.34766 12.3867C 1.34766 9.87891 1.78125 8.01562 2.64844 6.79688C 3.51562 5.57812 4.875 4.96875 6.72656 4.96875C 8.5625 4.96875 9.91406 5.55859 10.7812 6.73828C 11.6484 7.91016 12.0938 9.72266 12.1172 12.1758L 12.1172 14.9883ZM 9.94922 12.0234C 9.94922 10.1875 9.69141 8.85156 9.17578 8.01562C 8.66016 7.17188 7.84375 6.75 6.72656 6.75C 5.61719 6.75 4.80859 7.16797 4.30078 8.00391C 3.79297 8.83984 3.53125 10.125 3.51562 11.8594L 3.51562 15.3281C 3.51562 17.1719 3.78125 18.5352 4.3125 19.418C 4.85156 20.293 5.66406 20.7305 6.75 20.7305C 7.82031 20.7305 8.61328 20.3164 9.12891 19.4883C 9.65234 18.6602 9.92578 17.3555 9.94922 15.5742L 9.94922 12.0234Z"/>
<path id="path36_fill" d="M 8.54297 22.2656L 6.36328 22.2656L 6.36328 7.81641L 1.99219 9.42188L 1.99219 7.45312L 8.20312 5.12109L 8.54297 5.12109L 8.54297 22.2656Z"/>
<path id="path37_fill" d="M 3.99609 22.2656L 1.82812 22.2656L 1.82812 9.58594L 3.99609 9.58594L 3.99609 22.2656ZM 1.65234 6.22266C 1.65234 5.87109 1.75781 5.57422 1.96875 5.33203C 2.1875 5.08984 2.50781 4.96875 2.92969 4.96875C 3.35156 4.96875 3.67188 5.08984 3.89062 5.33203C 4.10937 5.57422 4.21875 5.87109 4.21875 6.22266C 4.21875 6.57422 4.10937 6.86719 3.89062 7.10156C 3.67188 7.33594 3.35156 7.45312 2.92969 7.45312C 2.50781 7.45312 2.1875 7.33594 1.96875 7.10156C 1.75781 6.86719 1.65234 6.57422 1.65234 6.22266ZM 9.52734 9.58594L 9.59766 11.1797C 10.5664 9.96094 11.832 9.35156 13.3945 9.35156C 16.0742 9.35156 17.4258 10.8633 17.4492 13.8867L 17.4492 22.2656L 15.2812 22.2656L 15.2812 13.875C 15.2734 12.9609 15.0625 12.2852 14.6484 11.8477C 14.2422 11.4102 13.6055 11.1914 12.7383 11.1914C 12.0352 11.1914 11.418 11.3789 10.8867 11.7539C 10.3555 12.1289 9.94141 12.6211 9.64453 13.2305L 9.64453 22.2656L 7.47656 22.2656L 7.47656 9.58594L 9.52734 9.58594ZM 25.207 4.54688L 22.9688 4.54688L 22.9688 24.1406L 25.207 24.1406L 25.207 25.9219L 20.7891 25.9219L 20.7891 2.76562L 25.207 2.76562L 25.207 4.54688ZM 33.9961 22.2656L 31.8164 22.2656L 31.8164 7.81641L 27.4453 9.42188L 27.4453 7.45312L 33.6562 5.12109L 33.9961 5.12109L 33.9961 22.2656ZM 39.0352 2.76562L 43.4648 2.76562L 43.4648 25.9219L 39.0352 25.9219L 39.0352 24.1406L 41.2969 24.1406L 41.2969 4.54688L 39.0352 4.54688L 39.0352 2.76562Z"/>
<path id="path38_fill" d="M 3.99609 22.2656L 1.82812 22.2656L 1.82812 9.58594L 3.99609 9.58594L 3.99609 22.2656ZM 1.65234 6.22266C 1.65234 5.87109 1.75781 5.57422 1.96875 5.33203C 2.1875 5.08984 2.50781 4.96875 2.92969 4.96875C 3.35156 4.96875 3.67188 5.08984 3.89062 5.33203C 4.10937 5.57422 4.21875 5.87109 4.21875 6.22266C 4.21875 6.57422 4.10937 6.86719 3.89062 7.10156C 3.67188 7.33594 3.35156 7.45312 2.92969 7.45312C 2.50781 7.45312 2.1875 7.33594 1.96875 7.10156C 1.75781 6.86719 1.65234 6.57422 1.65234 6.22266ZM 9.52734 9.58594L 9.59766 11.1797C 10.5664 9.96094 11.832 9.35156 13.3945 9.35156C 16.0742 9.35156 17.4258 10.8633 17.4492 13.8867L 17.4492 22.2656L 15.2812 22.2656L 15.2812 13.875C 15.2734 12.9609 15.0625 12.2852 14.6484 11.8477C 14.2422 11.4102 13.6055 11.1914 12.7383 11.1914C 12.0352 11.1914 11.418 11.3789 10.8867 11.7539C 10.3555 12.1289 9.94141 12.6211 9.64453 13.2305L 9.64453 22.2656L 7.47656 22.2656L 7.47656 9.58594L 9.52734 9.58594ZM 25.207 4.54688L 22.9688 4.54688L 22.9688 24.1406L 25.207 24.1406L 25.207 25.9219L 20.7891 25.9219L 20.7891 2.76562L 25.207 2.76562L 25.207 4.54688ZM 37.5703 14.9883C 37.5703 17.5273 37.1367 19.4141 36.2695 20.6484C 35.4023 21.8828 34.0469 22.5 32.2031 22.5C 30.3828 22.5 29.0352 21.8984 28.1602 20.6953C 27.2852 19.4844 26.832 17.6797 26.8008 15.2812L 26.8008 12.3867C 26.8008 9.87891 27.2344 8.01562 28.1016 6.79688C 28.9688 5.57812 30.3281 4.96875 32.1797 4.96875C 34.0156 4.96875 35.3672 5.55859 36.2344 6.73828C 37.1016 7.91016 37.5469 9.72266 37.5703 12.1758L 37.5703 14.9883ZM 35.4023 12.0234C 35.4023 10.1875 35.1445 8.85156 34.6289 8.01562C 34.1133 7.17188 33.2969 6.75 32.1797 6.75C 31.0703 6.75 30.2617 7.16797 29.7539 8.00391C 29.2461 8.83984 28.9844 10.125 28.9688 11.8594L 28.9688 15.3281C 28.9688 17.1719 29.2344 18.5352 29.7656 19.418C 30.3047 20.293 31.1172 20.7305 32.2031 20.7305C 33.2734 20.7305 34.0664 20.3164 34.582 19.4883C 35.1055 18.6602 35.3789 17.3555 35.4023 15.5742L 35.4023 12.0234ZM 39.0352 2.76562L 43.4648 2.76562L 43.4648 25.9219L 39.0352 25.9219L 39.0352 24.1406L 41.2969 24.1406L 41.2969 4.54688L 39.0352 4.54688L 39.0352 2.76562Z"/>
<path id="path39_fill" d="M 15 7.5C 15 11.6421 11.6421 15 7.5 15C 3.35786 15 0 11.6421 0 7.5C 0 3.35786 3.35786 0 7.5 0C 11.6421 0 15 3.35786 15 7.5Z"/>
<path id="path40_fill" d="M 1.11328 15.8203C 1.11328 13.875 1.57422 12.3125 2.49609 11.1328C 3.41797 9.94531 4.625 9.35156 6.11719 9.35156C 7.60156 9.35156 8.77734 9.85938 9.64453 10.875L 9.64453 4.26562L 11.8125 4.26562L 11.8125 22.2656L 9.82031 22.2656L 9.71484 20.9062C 8.84766 21.9687 7.64062 22.5 6.09375 22.5C 4.625 22.5 3.42578 21.8984 2.49609 20.6953C 1.57422 19.4922 1.11328 17.9219 1.11328 15.9844L 1.11328 15.8203ZM 3.28125 16.0664C 3.28125 17.5039 3.57813 18.6289 4.17188 19.4414C 4.76562 20.2539 5.58594 20.6602 6.63281 20.6602C 8.00781 20.6602 9.01172 20.043 9.64453 18.8086L 9.64453 12.9844C 8.99609 11.7891 8 11.1914 6.65625 11.1914C 5.59375 11.1914 4.76562 11.6016 4.17188 12.4219C 3.57813 13.2422 3.28125 14.457 3.28125 16.0664ZM 23.0156 22.2656C 22.8906 22.0156 22.7891 21.5703 22.7109 20.9297C 21.7031 21.9766 20.5 22.5 19.1016 22.5C 17.8516 22.5 16.8242 22.1484 16.0195 21.4453C 15.2227 20.7344 14.8242 19.8359 14.8242 18.75C 14.8242 17.4297 15.3242 16.4062 16.3242 15.6797C 17.332 14.9453 18.7461 14.5781 20.5664 14.5781L 22.6758 14.5781L 22.6758 13.582C 22.6758 12.8242 22.4492 12.2227 21.9961 11.7773C 21.543 11.3242 20.875 11.0977 19.9922 11.0977C 19.2188 11.0977 18.5703 11.293 18.0469 11.6836C 17.5234 12.0742 17.2617 12.5469 17.2617 13.1016L 15.082 13.1016C 15.082 12.4688 15.3047 11.8594 15.75 11.2734C 16.2031 10.6797 16.8125 10.2109 17.5781 9.86719C 18.3516 9.52344 19.1992 9.35156 20.1211 9.35156C 21.582 9.35156 22.7266 9.71875 23.5547 10.4531C 24.3828 11.1797 24.8125 12.1836 24.8438 13.4648L 24.8438 19.3008C 24.8438 20.4648 24.9922 21.3906 25.2891 22.0781L 25.2891 22.2656L 23.0156 22.2656ZM 19.418 20.6133C 20.0977 20.6133 20.7422 20.4375 21.3516 20.0859C 21.9609 19.7344 22.4023 19.2773 22.6758 18.7148L 22.6758 16.1133L 20.9766 16.1133C 18.3203 16.1133 16.9922 16.8906 16.9922 18.4453C 16.9922 19.125 17.2188 19.6562 17.6719 20.0391C 18.125 20.4219 18.707 20.6133 19.418 20.6133ZM 31.1836 6.51562L 31.1836 9.58594L 33.5508 9.58594L 33.5508 11.2617L 31.1836 11.2617L 31.1836 19.125C 31.1836 19.6328 31.2891 20.0156 31.5 20.2734C 31.7109 20.5234 32.0703 20.6484 32.5781 20.6484C 32.8281 20.6484 33.1719 20.6016 33.6094 20.5078L 33.6094 22.2656C 33.0391 22.4219 32.4844 22.5 31.9453 22.5C 30.9766 22.5 30.2461 22.207 29.7539 21.6211C 29.2617 21.0352 29.0156 20.2031 29.0156 19.125L 29.0156 11.2617L 26.707 11.2617L 26.707 9.58594L 29.0156 9.58594L 29.0156 6.51562L 31.1836 6.51562ZM 43.9219 22.2656C 43.7969 22.0156 43.6953 21.5703 43.6172 20.9297C 42.6094 21.9766 41.4062 22.5 40.0078 22.5C 38.7578 22.5 37.7305 22.1484 36.9258 21.4453C 36.1289 20.7344 35.7305 19.8359 35.7305 18.75C 35.7305 17.4297 36.2305 16.4062 37.2305 15.6797C 38.2383 14.9453 39.6523 14.5781 41.4727 14.5781L 43.582 14.5781L 43.582 13.582C 43.582 12.8242 43.3555 12.2227 42.9023 11.7773C 42.4492 11.3242 41.7812 11.0977 40.8984 11.0977C 40.125 11.0977 39.4766 11.293 38.9531 11.6836C 38.4297 12.0742 38.168 12.5469 38.168 13.1016L 35.9883 13.1016C 35.9883 12.4688 36.2109 11.8594 36.6562 11.2734C 37.1094 10.6797 37.7187 10.2109 38.4844 9.86719C 39.2578 9.52344 40.1055 9.35156 41.0273 9.35156C 42.4883 9.35156 43.6328 9.71875 44.4609 10.4531C 45.2891 11.1797 45.7187 12.1836 45.75 13.4648L 45.75 19.3008C 45.75 20.4648 45.8984 21.3906 46.1953 22.0781L 46.1953 22.2656L 43.9219 22.2656ZM 40.3242 20.6133C 41.0039 20.6133 41.6484 20.4375 42.2578 20.0859C 42.8672 19.7344 43.3086 19.2773 43.582 18.7148L 43.582 16.1133L 41.8828 16.1133C 39.2266 16.1133 37.8984 16.8906 37.8984 18.4453C 37.8984 19.125 38.125 19.6562 38.5781 20.0391C 39.0312 20.4219 39.6133 20.6133 40.3242 20.6133ZM 51.5039 22.2656L 49.3359 22.2656L 49.3359 9.58594L 51.5039 9.58594L 51.5039 22.2656ZM 49.1602 6.22266C 49.1602 5.87109 49.2656 5.57422 49.4766 5.33203C 49.6953 5.08984 50.0156 4.96875 50.4375 4.96875C 50.8594 4.96875 51.1797 5.08984 51.3984 5.33203C 51.6172 5.57422 51.7266 5.87109 51.7266 6.22266C 51.7266 6.57422 51.6172 6.86719 51.3984 7.10156C 51.1797 7.33594 50.8594 7.45312 50.4375 7.45312C 50.0156 7.45312 49.6953 7.33594 49.4766 7.10156C 49.2656 6.86719 49.1602 6.57422 49.1602 6.22266ZM 57.0352 9.58594L 57.1055 11.1797C 58.0742 9.96094 59.3398 9.35156 60.9023 9.35156C 63.582 9.35156 64.9336 10.8633 64.957 13.8867L 64.957 22.2656L 62.7891 22.2656L 62.7891 13.875C 62.7812 12.9609 62.5703 12.2852 62.1562 11.8477C 61.75 11.4102 61.1133 11.1914 60.2461 11.1914C 59.543 11.1914 58.9258 11.3789 58.3945 11.7539C 57.8633 12.1289 57.4492 12.6211 57.1523 13.2305L 57.1523 22.2656L 54.9844 22.2656L 54.9844 9.58594L 57.0352 9.58594ZM 72.7148 4.54688L 70.4766 4.54688L 70.4766 24.1406L 72.7148 24.1406L 72.7148 25.9219L 68.2969 25.9219L 68.2969 2.76562L 72.7148 2.76562L 72.7148 4.54688ZM 85.5586 22.2656L 74.3789 22.2656L 74.3789 20.707L 80.2852 14.1445C 81.1602 13.1523 81.7617 12.3477 82.0898 11.7305C 82.4258 11.1055 82.5938 10.4609 82.5938 9.79688C 82.5938 8.90625 82.3242 8.17578 81.7852 7.60547C 81.2461 7.03516 80.5273 6.75 79.6289 6.75C 78.5508 6.75 77.7109 7.05859 77.1094 7.67578C 76.5156 8.28516 76.2188 9.13672 76.2188 10.2305L 74.0508 10.2305C 74.0508 8.66016 74.5547 7.39062 75.5625 6.42188C 76.5781 5.45313 77.9336 4.96875 79.6289 4.96875C 81.2148 4.96875 82.4687 5.38672 83.3906 6.22266C 84.3125 7.05078 84.7734 8.15625 84.7734 9.53906C 84.7734 11.2187 83.7031 13.2188 81.5625 15.5391L 76.9922 20.4961L 85.5586 20.4961L 85.5586 22.2656ZM 86.543 2.76562L 90.9727 2.76562L 90.9727 25.9219L 86.543 25.9219L 86.543 24.1406L 88.8047 24.1406L 88.8047 4.54688L 86.543 4.54688L 86.543 2.76562Z"/>
<path id="path41_fill" d="M 1.11328 15.8203C 1.11328 13.875 1.57422 12.3125 2.49609 11.1328C 3.41797 9.94531 4.625 9.35156 6.11719 9.35156C 7.60156 9.35156 8.77734 9.85938 9.64453 10.875L 9.64453 4.26562L 11.8125 4.26562L 11.8125 22.2656L 9.82031 22.2656L 9.71484 20.9062C 8.84766 21.9687 7.64062 22.5 6.09375 22.5C 4.625 22.5 3.42578 21.8984 2.49609 20.6953C 1.57422 19.4922 1.11328 17.9219 1.11328 15.9844L 1.11328 15.8203ZM 3.28125 16.0664C 3.28125 17.5039 3.57813 18.6289 4.17188 19.4414C 4.76562 20.2539 5.58594 20.6602 6.63281 20.6602C 8.00781 20.6602 9.01172 20.043 9.64453 18.8086L 9.64453 12.9844C 8.99609 11.7891 8 11.1914 6.65625 11.1914C 5.59375 11.1914 4.76562 11.6016 4.17188 12.4219C 3.57813 13.2422 3.28125 14.457 3.28125 16.0664ZM 23.0156 22.2656C 22.8906 22.0156 22.7891 21.5703 22.7109 20.9297C 21.7031 21.9766 20.5 22.5 19.1016 22.5C 17.8516 22.5 16.8242 22.1484 16.0195 21.4453C 15.2227 20.7344 14.8242 19.8359 14.8242 18.75C 14.8242 17.4297 15.3242 16.4062 16.3242 15.6797C 17.332 14.9453 18.7461 14.5781 20.5664 14.5781L 22.6758 14.5781L 22.6758 13.582C 22.6758 12.8242 22.4492 12.2227 21.9961 11.7773C 21.543 11.3242 20.875 11.0977 19.9922 11.0977C 19.2188 11.0977 18.5703 11.293 18.0469 11.6836C 17.5234 12.0742 17.2617 12.5469 17.2617 13.1016L 15.082 13.1016C 15.082 12.4688 15.3047 11.8594 15.75 11.2734C 16.2031 10.6797 16.8125 10.2109 17.5781 9.86719C 18.3516 9.52344 19.1992 9.35156 20.1211 9.35156C 21.582 9.35156 22.7266 9.71875 23.5547 10.4531C 24.3828 11.1797 24.8125 12.1836 24.8438 13.4648L 24.8438 19.3008C 24.8438 20.4648 24.9922 21.3906 25.2891 22.0781L 25.2891 22.2656L 23.0156 22.2656ZM 19.418 20.6133C 20.0977 20.6133 20.7422 20.4375 21.3516 20.0859C 21.9609 19.7344 22.4023 19.2773 22.6758 18.7148L 22.6758 16.1133L 20.9766 16.1133C 18.3203 16.1133 16.9922 16.8906 16.9922 18.4453C 16.9922 19.125 17.2188 19.6562 17.6719 20.0391C 18.125 20.4219 18.707 20.6133 19.418 20.6133ZM 31.1836 6.51562L 31.1836 9.58594L 33.5508 9.58594L 33.5508 11.2617L 31.1836 11.2617L 31.1836 19.125C 31.1836 19.6328 31.2891 20.0156 31.5 20.2734C 31.7109 20.5234 32.0703 20.6484 32.5781 20.6484C 32.8281 20.6484 33.1719 20.6016 33.6094 20.5078L 33.6094 22.2656C 33.0391 22.4219 32.4844 22.5 31.9453 22.5C 30.9766 22.5 30.2461 22.207 29.7539 21.6211C 29.2617 21.0352 29.0156 20.2031 29.0156 19.125L 29.0156 11.2617L 26.707 11.2617L 26.707 9.58594L 29.0156 9.58594L 29.0156 6.51562L 31.1836 6.51562ZM 43.9219 22.2656C 43.7969 22.0156 43.6953 21.5703 43.6172 20.9297C 42.6094 21.9766 41.4062 22.5 40.0078 22.5C 38.7578 22.5 37.7305 22.1484 36.9258 21.4453C 36.1289 20.7344 35.7305 19.8359 35.7305 18.75C 35.7305 17.4297 36.2305 16.4062 37.2305 15.6797C 38.2383 14.9453 39.6523 14.5781 41.4727 14.5781L 43.582 14.5781L 43.582 13.582C 43.582 12.8242 43.3555 12.2227 42.9023 11.7773C 42.4492 11.3242 41.7812 11.0977 40.8984 11.0977C 40.125 11.0977 39.4766 11.293 38.9531 11.6836C 38.4297 12.0742 38.168 12.5469 38.168 13.1016L 35.9883 13.1016C 35.9883 12.4688 36.2109 11.8594 36.6562 11.2734C 37.1094 10.6797 37.7187 10.2109 38.4844 9.86719C 39.2578 9.52344 40.1055 9.35156 41.0273 9.35156C 42.4883 9.35156 43.6328 9.71875 44.4609 10.4531C 45.2891 11.1797 45.7187 12.1836 45.75 13.4648L 45.75 19.3008C 45.75 20.4648 45.8984 21.3906 46.1953 22.0781L 46.1953 22.2656L 43.9219 22.2656ZM 40.3242 20.6133C 41.0039 20.6133 41.6484 20.4375 42.2578 20.0859C 42.8672 19.7344 43.3086 19.2773 43.582 18.7148L 43.582 16.1133L 41.8828 16.1133C 39.2266 16.1133 37.8984 16.8906 37.8984 18.4453C 37.8984 19.125 38.125 19.6562 38.5781 20.0391C 39.0312 20.4219 39.6133 20.6133 40.3242 20.6133ZM 51.5039 22.2656L 49.3359 22.2656L 49.3359 9.58594L 51.5039 9.58594L 51.5039 22.2656ZM 49.1602 6.22266C 49.1602 5.87109 49.2656 5.57422 49.4766 5.33203C 49.6953 5.08984 50.0156 4.96875 50.4375 4.96875C 50.8594 4.96875 51.1797 5.08984 51.3984 5.33203C 51.6172 5.57422 51.7266 5.87109 51.7266 6.22266C 51.7266 6.57422 51.6172 6.86719 51.3984 7.10156C 51.1797 7.33594 50.8594 7.45312 50.4375 7.45312C 50.0156 7.45312 49.6953 7.33594 49.4766 7.10156C 49.2656 6.86719 49.1602 6.57422 49.1602 6.22266ZM 57.0352 9.58594L 57.1055 11.1797C 58.0742 9.96094 59.3398 9.35156 60.9023 9.35156C 63.582 9.35156 64.9336 10.8633 64.957 13.8867L 64.957 22.2656L 62.7891 22.2656L 62.7891 13.875C 62.7812 12.9609 62.5703 12.2852 62.1562 11.8477C 61.75 11.4102 61.1133 11.1914 60.2461 11.1914C 59.543 11.1914 58.9258 11.3789 58.3945 11.7539C 57.8633 12.1289 57.4492 12.6211 57.1523 13.2305L 57.1523 22.2656L 54.9844 22.2656L 54.9844 9.58594L 57.0352 9.58594ZM 72.7148 4.54688L 70.4766 4.54688L 70.4766 24.1406L 72.7148 24.1406L 72.7148 25.9219L 68.2969 25.9219L 68.2969 2.76562L 72.7148 2.76562L 72.7148 4.54688ZM 81.5039 22.2656L 79.3242 22.2656L 79.3242 7.81641L 74.9531 9.42188L 74.9531 7.45312L 81.1641 5.12109L 81.5039 5.12109L 81.5039 22.2656ZM 86.543 2.76562L 90.9727 2.76562L 90.9727 25.9219L 86.543 25.9219L 86.543 24.1406L 88.8047 24.1406L 88.8047 4.54688L 86.543 4.54688L 86.543 2.76562Z"/>
<path id="path42_fill" d="M 1.11328 15.8203C 1.11328 13.875 1.57422 12.3125 2.49609 11.1328C 3.41797 9.94531 4.625 9.35156 6.11719 9.35156C 7.60156 9.35156 8.77734 9.85938 9.64453 10.875L 9.64453 4.26562L 11.8125 4.26562L 11.8125 22.2656L 9.82031 22.2656L 9.71484 20.9062C 8.84766 21.9687 7.64062 22.5 6.09375 22.5C 4.625 22.5 3.42578 21.8984 2.49609 20.6953C 1.57422 19.4922 1.11328 17.9219 1.11328 15.9844L 1.11328 15.8203ZM 3.28125 16.0664C 3.28125 17.5039 3.57813 18.6289 4.17188 19.4414C 4.76562 20.2539 5.58594 20.6602 6.63281 20.6602C 8.00781 20.6602 9.01172 20.043 9.64453 18.8086L 9.64453 12.9844C 8.99609 11.7891 8 11.1914 6.65625 11.1914C 5.59375 11.1914 4.76562 11.6016 4.17188 12.4219C 3.57813 13.2422 3.28125 14.457 3.28125 16.0664ZM 23.0156 22.2656C 22.8906 22.0156 22.7891 21.5703 22.7109 20.9297C 21.7031 21.9766 20.5 22.5 19.1016 22.5C 17.8516 22.5 16.8242 22.1484 16.0195 21.4453C 15.2227 20.7344 14.8242 19.8359 14.8242 18.75C 14.8242 17.4297 15.3242 16.4062 16.3242 15.6797C 17.332 14.9453 18.7461 14.5781 20.5664 14.5781L 22.6758 14.5781L 22.6758 13.582C 22.6758 12.8242 22.4492 12.2227 21.9961 11.7773C 21.543 11.3242 20.875 11.0977 19.9922 11.0977C 19.2188 11.0977 18.5703 11.293 18.0469 11.6836C 17.5234 12.0742 17.2617 12.5469 17.2617 13.1016L 15.082 13.1016C 15.082 12.4688 15.3047 11.8594 15.75 11.2734C 16.2031 10.6797 16.8125 10.2109 17.5781 9.86719C 18.3516 9.52344 19.1992 9.35156 20.1211 9.35156C 21.582 9.35156 22.7266 9.71875 23.5547 10.4531C 24.3828 11.1797 24.8125 12.1836 24.8438 13.4648L 24.8438 19.3008C 24.8438 20.4648 24.9922 21.3906 25.2891 22.0781L 25.2891 22.2656L 23.0156 22.2656ZM 19.418 20.6133C 20.0977 20.6133 20.7422 20.4375 21.3516 20.0859C 21.9609 19.7344 22.4023 19.2773 22.6758 18.7148L 22.6758 16.1133L 20.9766 16.1133C 18.3203 16.1133 16.9922 16.8906 16.9922 18.4453C 16.9922 19.125 17.2188 19.6562 17.6719 20.0391C 18.125 20.4219 18.707 20.6133 19.418 20.6133ZM 31.1836 6.51562L 31.1836 9.58594L 33.5508 9.58594L 33.5508 11.2617L 31.1836 11.2617L 31.1836 19.125C 31.1836 19.6328 31.2891 20.0156 31.5 20.2734C 31.7109 20.5234 32.0703 20.6484 32.5781 20.6484C 32.8281 20.6484 33.1719 20.6016 33.6094 20.5078L 33.6094 22.2656C 33.0391 22.4219 32.4844 22.5 31.9453 22.5C 30.9766 22.5 30.2461 22.207 29.7539 21.6211C 29.2617 21.0352 29.0156 20.2031 29.0156 19.125L 29.0156 11.2617L 26.707 11.2617L 26.707 9.58594L 29.0156 9.58594L 29.0156 6.51562L 31.1836 6.51562ZM 43.9219 22.2656C 43.7969 22.0156 43.6953 21.5703 43.6172 20.9297C 42.6094 21.9766 41.4062 22.5 40.0078 22.5C 38.7578 22.5 37.7305 22.1484 36.9258 21.4453C 36.1289 20.7344 35.7305 19.8359 35.7305 18.75C 35.7305 17.4297 36.2305 16.4062 37.2305 15.6797C 38.2383 14.9453 39.6523 14.5781 41.4727 14.5781L 43.582 14.5781L 43.582 13.582C 43.582 12.8242 43.3555 12.2227 42.9023 11.7773C 42.4492 11.3242 41.7812 11.0977 40.8984 11.0977C 40.125 11.0977 39.4766 11.293 38.9531 11.6836C 38.4297 12.0742 38.168 12.5469 38.168 13.1016L 35.9883 13.1016C 35.9883 12.4688 36.2109 11.8594 36.6562 11.2734C 37.1094 10.6797 37.7187 10.2109 38.4844 9.86719C 39.2578 9.52344 40.1055 9.35156 41.0273 9.35156C 42.4883 9.35156 43.6328 9.71875 44.4609 10.4531C 45.2891 11.1797 45.7187 12.1836 45.75 13.4648L 45.75 19.3008C 45.75 20.4648 45.8984 21.3906 46.1953 22.0781L 46.1953 22.2656L 43.9219 22.2656ZM 40.3242 20.6133C 41.0039 20.6133 41.6484 20.4375 42.2578 20.0859C 42.8672 19.7344 43.3086 19.2773 43.582 18.7148L 43.582 16.1133L 41.8828 16.1133C 39.2266 16.1133 37.8984 16.8906 37.8984 18.4453C 37.8984 19.125 38.125 19.6562 38.5781 20.0391C 39.0312 20.4219 39.6133 20.6133 40.3242 20.6133ZM 51.5039 22.2656L 49.3359 22.2656L 49.3359 9.58594L 51.5039 9.58594L 51.5039 22.2656ZM 49.1602 6.22266C 49.1602 5.87109 49.2656 5.57422 49.4766 5.33203C 49.6953 5.08984 50.0156 4.96875 50.4375 4.96875C 50.8594 4.96875 51.1797 5.08984 51.3984 5.33203C 51.6172 5.57422 51.7266 5.87109 51.7266 6.22266C 51.7266 6.57422 51.6172 6.86719 51.3984 7.10156C 51.1797 7.33594 50.8594 7.45312 50.4375 7.45312C 50.0156 7.45312 49.6953 7.33594 49.4766 7.10156C 49.2656 6.86719 49.1602 6.57422 49.1602 6.22266ZM 57.0352 9.58594L 57.1055 11.1797C 58.0742 9.96094 59.3398 9.35156 60.9023 9.35156C 63.582 9.35156 64.9336 10.8633 64.957 13.8867L 64.957 22.2656L 62.7891 22.2656L 62.7891 13.875C 62.7812 12.9609 62.5703 12.2852 62.1562 11.8477C 61.75 11.4102 61.1133 11.1914 60.2461 11.1914C 59.543 11.1914 58.9258 11.3789 58.3945 11.7539C 57.8633 12.1289 57.4492 12.6211 57.1523 13.2305L 57.1523 22.2656L 54.9844 22.2656L 54.9844 9.58594L 57.0352 9.58594ZM 72.7148 4.54688L 70.4766 4.54688L 70.4766 24.1406L 72.7148 24.1406L 72.7148 25.9219L 68.2969 25.9219L 68.2969 2.76562L 72.7148 2.76562L 72.7148 4.54688ZM 85.0781 14.9883C 85.0781 17.5273 84.6445 19.4141 83.7773 20.6484C 82.9102 21.8828 81.5547 22.5 79.7109 22.5C 77.8906 22.5 76.543 21.8984 75.668 20.6953C 74.793 19.4844 74.3398 17.6797 74.3086 15.2812L 74.3086 12.3867C 74.3086 9.87891 74.7422 8.01562 75.6094 6.79688C 76.4766 5.57812 77.8359 4.96875 79.6875 4.96875C 81.5234 4.96875 82.875 5.55859 83.7422 6.73828C 84.6094 7.91016 85.0547 9.72266 85.0781 12.1758L 85.0781 14.9883ZM 82.9102 12.0234C 82.9102 10.1875 82.6523 8.85156 82.1367 8.01562C 81.6211 7.17188 80.8047 6.75 79.6875 6.75C 78.5781 6.75 77.7695 7.16797 77.2617 8.00391C 76.7539 8.83984 76.4922 10.125 76.4766 11.8594L 76.4766 15.3281C 76.4766 17.1719 76.7422 18.5352 77.2734 19.418C 77.8125 20.293 78.625 20.7305 79.7109 20.7305C 80.7812 20.7305 81.5742 20.3164 82.0898 19.4883C 82.6133 18.6602 82.8867 17.3555 82.9102 15.5742L 82.9102 12.0234ZM 86.543 2.76562L 90.9727 2.76562L 90.9727 25.9219L 86.543 25.9219L 86.543 24.1406L 88.8047 24.1406L 88.8047 4.54688L 86.543 4.54688L 86.543 2.76562Z"/>
<path id="path43_fill" d="M 1.11328 15.8203C 1.11328 13.875 1.57422 12.3125 2.49609 11.1328C 3.41797 9.94531 4.625 9.35156 6.11719 9.35156C 7.60156 9.35156 8.77734 9.85938 9.64453 10.875L 9.64453 4.26562L 11.8125 4.26562L 11.8125 22.2656L 9.82031 22.2656L 9.71484 20.9062C 8.84766 21.9687 7.64062 22.5 6.09375 22.5C 4.625 22.5 3.42578 21.8984 2.49609 20.6953C 1.57422 19.4922 1.11328 17.9219 1.11328 15.9844L 1.11328 15.8203ZM 3.28125 16.0664C 3.28125 17.5039 3.57813 18.6289 4.17188 19.4414C 4.76562 20.2539 5.58594 20.6602 6.63281 20.6602C 8.00781 20.6602 9.01172 20.043 9.64453 18.8086L 9.64453 12.9844C 8.99609 11.7891 8 11.1914 6.65625 11.1914C 5.59375 11.1914 4.76562 11.6016 4.17188 12.4219C 3.57813 13.2422 3.28125 14.457 3.28125 16.0664ZM 23.0156 22.2656C 22.8906 22.0156 22.7891 21.5703 22.7109 20.9297C 21.7031 21.9766 20.5 22.5 19.1016 22.5C 17.8516 22.5 16.8242 22.1484 16.0195 21.4453C 15.2227 20.7344 14.8242 19.8359 14.8242 18.75C 14.8242 17.4297 15.3242 16.4062 16.3242 15.6797C 17.332 14.9453 18.7461 14.5781 20.5664 14.5781L 22.6758 14.5781L 22.6758 13.582C 22.6758 12.8242 22.4492 12.2227 21.9961 11.7773C 21.543 11.3242 20.875 11.0977 19.9922 11.0977C 19.2188 11.0977 18.5703 11.293 18.0469 11.6836C 17.5234 12.0742 17.2617 12.5469 17.2617 13.1016L 15.082 13.1016C 15.082 12.4688 15.3047 11.8594 15.75 11.2734C 16.2031 10.6797 16.8125 10.2109 17.5781 9.86719C 18.3516 9.52344 19.1992 9.35156 20.1211 9.35156C 21.582 9.35156 22.7266 9.71875 23.5547 10.4531C 24.3828 11.1797 24.8125 12.1836 24.8438 13.4648L 24.8438 19.3008C 24.8438 20.4648 24.9922 21.3906 25.2891 22.0781L 25.2891 22.2656L 23.0156 22.2656ZM 19.418 20.6133C 20.0977 20.6133 20.7422 20.4375 21.3516 20.0859C 21.9609 19.7344 22.4023 19.2773 22.6758 18.7148L 22.6758 16.1133L 20.9766 16.1133C 18.3203 16.1133 16.9922 16.8906 16.9922 18.4453C 16.9922 19.125 17.2188 19.6562 17.6719 20.0391C 18.125 20.4219 18.707 20.6133 19.418 20.6133ZM 31.1836 6.51562L 31.1836 9.58594L 33.5508 9.58594L 33.5508 11.2617L 31.1836 11.2617L 31.1836 19.125C 31.1836 19.6328 31.2891 20.0156 31.5 20.2734C 31.7109 20.5234 32.0703 20.6484 32.5781 20.6484C 32.8281 20.6484 33.1719 20.6016 33.6094 20.5078L 33.6094 22.2656C 33.0391 22.4219 32.4844 22.5 31.9453 22.5C 30.9766 22.5 30.2461 22.207 29.7539 21.6211C 29.2617 21.0352 29.0156 20.2031 29.0156 19.125L 29.0156 11.2617L 26.707 11.2617L 26.707 9.58594L 29.0156 9.58594L 29.0156 6.51562L 31.1836 6.51562ZM 43.9219 22.2656C 43.7969 22.0156 43.6953 21.5703 43.6172 20.9297C 42.6094 21.9766 41.4062 22.5 40.0078 22.5C 38.7578 22.5 37.7305 22.1484 36.9258 21.4453C 36.1289 20.7344 35.7305 19.8359 35.7305 18.75C 35.7305 17.4297 36.2305 16.4062 37.2305 15.6797C 38.2383 14.9453 39.6523 14.5781 41.4727 14.5781L 43.582 14.5781L 43.582 13.582C 43.582 12.8242 43.3555 12.2227 42.9023 11.7773C 42.4492 11.3242 41.7812 11.0977 40.8984 11.0977C 40.125 11.0977 39.4766 11.293 38.9531 11.6836C 38.4297 12.0742 38.168 12.5469 38.168 13.1016L 35.9883 13.1016C 35.9883 12.4688 36.2109 11.8594 36.6562 11.2734C 37.1094 10.6797 37.7187 10.2109 38.4844 9.86719C 39.2578 9.52344 40.1055 9.35156 41.0273 9.35156C 42.4883 9.35156 43.6328 9.71875 44.4609 10.4531C 45.2891 11.1797 45.7187 12.1836 45.75 13.4648L 45.75 19.3008C 45.75 20.4648 45.8984 21.3906 46.1953 22.0781L 46.1953 22.2656L 43.9219 22.2656ZM 40.3242 20.6133C 41.0039 20.6133 41.6484 20.4375 42.2578 20.0859C 42.8672 19.7344 43.3086 19.2773 43.582 18.7148L 43.582 16.1133L 41.8828 16.1133C 39.2266 16.1133 37.8984 16.8906 37.8984 18.4453C 37.8984 19.125 38.125 19.6562 38.5781 20.0391C 39.0312 20.4219 39.6133 20.6133 40.3242 20.6133ZM 48.5742 15.8086C 48.5742 14.5664 48.8164 13.4492 49.3008 12.457C 49.793 11.4648 50.4727 10.6992 51.3398 10.1602C 52.2148 9.62109 53.2109 9.35156 54.3281 9.35156C 56.0547 9.35156 57.4492 9.94922 58.5117 11.1445C 59.582 12.3398 60.1172 13.9297 60.1172 15.9141L 60.1172 16.0664C 60.1172 17.3008 59.8789 18.4102 59.4023 19.3945C 58.9336 20.3711 58.2578 21.1328 57.375 21.6797C 56.5 22.2266 55.4922 22.5 54.3516 22.5C 52.6328 22.5 51.2383 21.9023 50.168 20.707C 49.1055 19.5117 48.5742 17.9297 48.5742 15.9609L 48.5742 15.8086ZM 50.7539 16.0664C 50.7539 17.4727 51.0781 18.6016 51.7266 19.4531C 52.3828 20.3047 53.2578 20.7305 54.3516 20.7305C 55.4531 20.7305 56.3281 20.3008 56.9766 19.4414C 57.625 18.5742 57.9492 17.3633 57.9492 15.8086C 57.9492 14.418 57.6172 13.293 56.9531 12.4336C 56.2969 11.5664 55.4219 11.1328 54.3281 11.1328C 53.2578 11.1328 52.3945 11.5586 51.7383 12.4102C 51.082 13.2617 50.7539 14.4805 50.7539 16.0664ZM 70.6641 21.0117C 69.8203 22.0039 68.582 22.5 66.9492 22.5C 65.5977 22.5 64.5664 22.1094 63.8555 21.3281C 63.1523 20.5391 62.7969 19.375 62.7891 17.8359L 62.7891 9.58594L 64.957 9.58594L 64.957 17.7773C 64.957 19.6992 65.7383 20.6602 67.3008 20.6602C 68.957 20.6602 70.0586 20.043 70.6055 18.8086L 70.6055 9.58594L 72.7734 9.58594L 72.7734 22.2656L 70.7109 22.2656L 70.6641 21.0117ZM 79.0195 6.51562L 79.0195 9.58594L 81.3867 9.58594L 81.3867 11.2617L 79.0195 11.2617L 79.0195 19.125C 79.0195 19.6328 79.125 20.0156 79.3359 20.2734C 79.5469 20.5234 79.9062 20.6484 80.4141 20.6484C 80.6641 20.6484 81.0078 20.6016 81.4453 20.5078L 81.4453 22.2656C 80.875 22.4219 80.3203 22.5 79.7812 22.5C 78.8125 22.5 78.082 22.207 77.5898 21.6211C 77.0977 21.0352 76.8516 20.2031 76.8516 19.125L 76.8516 11.2617L 74.543 11.2617L 74.543 9.58594L 76.8516 9.58594L 76.8516 6.51562L 79.0195 6.51562ZM 88.418 4.54688L 86.1797 4.54688L 86.1797 24.1406L 88.418 24.1406L 88.418 25.9219L 84 25.9219L 84 2.76562L 88.418 2.76562L 88.418 4.54688ZM 100.781 14.9883C 100.781 17.5273 100.348 19.4141 99.4805 20.6484C 98.6133 21.8828 97.2578 22.5 95.4141 22.5C 93.5937 22.5 92.2461 21.8984 91.3711 20.6953C 90.4961 19.4844 90.043 17.6797 90.0117 15.2812L 90.0117 12.3867C 90.0117 9.87891 90.4453 8.01562 91.3125 6.79688C 92.1797 5.57812 93.5391 4.96875 95.3906 4.96875C 97.2266 4.96875 98.5781 5.55859 99.4453 6.73828C 100.312 7.91016 100.758 9.72266 100.781 12.1758L 100.781 14.9883ZM 98.6133 12.0234C 98.6133 10.1875 98.3555 8.85156 97.8398 8.01562C 97.3242 7.17188 96.5078 6.75 95.3906 6.75C 94.2813 6.75 93.4727 7.16797 92.9648 8.00391C 92.457 8.83984 92.1953 10.125 92.1797 11.8594L 92.1797 15.3281C 92.1797 17.1719 92.4453 18.5352 92.9766 19.418C 93.5156 20.293 94.3281 20.7305 95.4141 20.7305C 96.4844 20.7305 97.2773 20.3164 97.793 19.4883C 98.3164 18.6602 98.5898 17.3555 98.6133 15.5742L 98.6133 12.0234ZM 102.246 2.76562L 106.676 2.76562L 106.676 25.9219L 102.246 25.9219L 102.246 24.1406L 104.508 24.1406L 104.508 4.54688L 102.246 4.54688L 102.246 2.76562Z"/>
<path id="path44_stroke" d="M 531 2.5L 533.5 2.5L 533.5 -2.5L 531 -2.5L 531 2.5ZM 0 -2.5L -2.5 -2.5L -2.5 2.5L 0 2.5L 0 -2.5ZM 531 -2.5L 0 -2.5L 0 2.5L 531 2.5L 531 -2.5Z"/>
<path id="path45_fill" d="M 1.11328 15.8203C 1.11328 13.875 1.57422 12.3125 2.49609 11.1328C 3.41797 9.94531 4.625 9.35156 6.11719 9.35156C 7.60156 9.35156 8.77734 9.85938 9.64453 10.875L 9.64453 4.26562L 11.8125 4.26562L 11.8125 22.2656L 9.82031 22.2656L 9.71484 20.9062C 8.84766 21.9687 7.64062 22.5 6.09375 22.5C 4.625 22.5 3.42578 21.8984 2.49609 20.6953C 1.57422 19.4922 1.11328 17.9219 1.11328 15.9844L 1.11328 15.8203ZM 3.28125 16.0664C 3.28125 17.5039 3.57813 18.6289 4.17188 19.4414C 4.76562 20.2539 5.58594 20.6602 6.63281 20.6602C 8.00781 20.6602 9.01172 20.043 9.64453 18.8086L 9.64453 12.9844C 8.99609 11.7891 8 11.1914 6.65625 11.1914C 5.59375 11.1914 4.76562 11.6016 4.17188 12.4219C 3.57813 13.2422 3.28125 14.457 3.28125 16.0664ZM 23.0156 22.2656C 22.8906 22.0156 22.7891 21.5703 22.7109 20.9297C 21.7031 21.9766 20.5 22.5 19.1016 22.5C 17.8516 22.5 16.8242 22.1484 16.0195 21.4453C 15.2227 20.7344 14.8242 19.8359 14.8242 18.75C 14.8242 17.4297 15.3242 16.4062 16.3242 15.6797C 17.332 14.9453 18.7461 14.5781 20.5664 14.5781L 22.6758 14.5781L 22.6758 13.582C 22.6758 12.8242 22.4492 12.2227 21.9961 11.7773C 21.543 11.3242 20.875 11.0977 19.9922 11.0977C 19.2188 11.0977 18.5703 11.293 18.0469 11.6836C 17.5234 12.0742 17.2617 12.5469 17.2617 13.1016L 15.082 13.1016C 15.082 12.4688 15.3047 11.8594 15.75 11.2734C 16.2031 10.6797 16.8125 10.2109 17.5781 9.86719C 18.3516 9.52344 19.1992 9.35156 20.1211 9.35156C 21.582 9.35156 22.7266 9.71875 23.5547 10.4531C 24.3828 11.1797 24.8125 12.1836 24.8438 13.4648L 24.8438 19.3008C 24.8438 20.4648 24.9922 21.3906 25.2891 22.0781L 25.2891 22.2656L 23.0156 22.2656ZM 19.418 20.6133C 20.0977 20.6133 20.7422 20.4375 21.3516 20.0859C 21.9609 19.7344 22.4023 19.2773 22.6758 18.7148L 22.6758 16.1133L 20.9766 16.1133C 18.3203 16.1133 16.9922 16.8906 16.9922 18.4453C 16.9922 19.125 17.2188 19.6562 17.6719 20.0391C 18.125 20.4219 18.707 20.6133 19.418 20.6133ZM 31.1836 6.51562L 31.1836 9.58594L 33.5508 9.58594L 33.5508 11.2617L 31.1836 11.2617L 31.1836 19.125C 31.1836 19.6328 31.2891 20.0156 31.5 20.2734C 31.7109 20.5234 32.0703 20.6484 32.5781 20.6484C 32.8281 20.6484 33.1719 20.6016 33.6094 20.5078L 33.6094 22.2656C 33.0391 22.4219 32.4844 22.5 31.9453 22.5C 30.9766 22.5 30.2461 22.207 29.7539 21.6211C 29.2617 21.0352 29.0156 20.2031 29.0156 19.125L 29.0156 11.2617L 26.707 11.2617L 26.707 9.58594L 29.0156 9.58594L 29.0156 6.51562L 31.1836 6.51562ZM 43.9219 22.2656C 43.7969 22.0156 43.6953 21.5703 43.6172 20.9297C 42.6094 21.9766 41.4062 22.5 40.0078 22.5C 38.7578 22.5 37.7305 22.1484 36.9258 21.4453C 36.1289 20.7344 35.7305 19.8359 35.7305 18.75C 35.7305 17.4297 36.2305 16.4062 37.2305 15.6797C 38.2383 14.9453 39.6523 14.5781 41.4727 14.5781L 43.582 14.5781L 43.582 13.582C 43.582 12.8242 43.3555 12.2227 42.9023 11.7773C 42.4492 11.3242 41.7812 11.0977 40.8984 11.0977C 40.125 11.0977 39.4766 11.293 38.9531 11.6836C 38.4297 12.0742 38.168 12.5469 38.168 13.1016L 35.9883 13.1016C 35.9883 12.4688 36.2109 11.8594 36.6562 11.2734C 37.1094 10.6797 37.7187 10.2109 38.4844 9.86719C 39.2578 9.52344 40.1055 9.35156 41.0273 9.35156C 42.4883 9.35156 43.6328 9.71875 44.4609 10.4531C 45.2891 11.1797 45.7187 12.1836 45.75 13.4648L 45.75 19.3008C 45.75 20.4648 45.8984 21.3906 46.1953 22.0781L 46.1953 22.2656L 43.9219 22.2656ZM 40.3242 20.6133C 41.0039 20.6133 41.6484 20.4375 42.2578 20.0859C 42.8672 19.7344 43.3086 19.2773 43.582 18.7148L 43.582 16.1133L 41.8828 16.1133C 39.2266 16.1133 37.8984 16.8906 37.8984 18.4453C 37.8984 19.125 38.125 19.6562 38.5781 20.0391C 39.0312 20.4219 39.6133 20.6133 40.3242 20.6133ZM 48.5742 15.8086C 48.5742 14.5664 48.8164 13.4492 49.3008 12.457C 49.793 11.4648 50.4727 10.6992 51.3398 10.1602C 52.2148 9.62109 53.2109 9.35156 54.3281 9.35156C 56.0547 9.35156 57.4492 9.94922 58.5117 11.1445C 59.582 12.3398 60.1172 13.9297 60.1172 15.9141L 60.1172 16.0664C 60.1172 17.3008 59.8789 18.4102 59.4023 19.3945C 58.9336 20.3711 58.2578 21.1328 57.375 21.6797C 56.5 22.2266 55.4922 22.5 54.3516 22.5C 52.6328 22.5 51.2383 21.9023 50.168 20.707C 49.1055 19.5117 48.5742 17.9297 48.5742 15.9609L 48.5742 15.8086ZM 50.7539 16.0664C 50.7539 17.4727 51.0781 18.6016 51.7266 19.4531C 52.3828 20.3047 53.2578 20.7305 54.3516 20.7305C 55.4531 20.7305 56.3281 20.3008 56.9766 19.4414C 57.625 18.5742 57.9492 17.3633 57.9492 15.8086C 57.9492 14.418 57.6172 13.293 56.9531 12.4336C 56.2969 11.5664 55.4219 11.1328 54.3281 11.1328C 53.2578 11.1328 52.3945 11.5586 51.7383 12.4102C 51.082 13.2617 50.7539 14.4805 50.7539 16.0664ZM 70.6641 21.0117C 69.8203 22.0039 68.582 22.5 66.9492 22.5C 65.5977 22.5 64.5664 22.1094 63.8555 21.3281C 63.1523 20.5391 62.7969 19.375 62.7891 17.8359L 62.7891 9.58594L 64.957 9.58594L 64.957 17.7773C 64.957 19.6992 65.7383 20.6602 67.3008 20.6602C 68.957 20.6602 70.0586 20.043 70.6055 18.8086L 70.6055 9.58594L 72.7734 9.58594L 72.7734 22.2656L 70.7109 22.2656L 70.6641 21.0117ZM 79.0195 6.51562L 79.0195 9.58594L 81.3867 9.58594L 81.3867 11.2617L 79.0195 11.2617L 79.0195 19.125C 79.0195 19.6328 79.125 20.0156 79.3359 20.2734C 79.5469 20.5234 79.9062 20.6484 80.4141 20.6484C 80.6641 20.6484 81.0078 20.6016 81.4453 20.5078L 81.4453 22.2656C 80.875 22.4219 80.3203 22.5 79.7812 22.5C 78.8125 22.5 78.082 22.207 77.5898 21.6211C 77.0977 21.0352 76.8516 20.2031 76.8516 19.125L 76.8516 11.2617L 74.543 11.2617L 74.543 9.58594L 76.8516 9.58594L 76.8516 6.51562L 79.0195 6.51562ZM 88.418 4.54688L 86.1797 4.54688L 86.1797 24.1406L 88.418 24.1406L 88.418 25.9219L 84 25.9219L 84 2.76562L 88.418 2.76562L 88.418 4.54688ZM 97.207 22.2656L 95.0273 22.2656L 95.0273 7.81641L 90.6562 9.42188L 90.6562 7.45312L 96.8672 5.12109L 97.207 5.12109L 97.207 22.2656ZM 102.246 2.76562L 106.676 2.76562L 106.676 25.9219L 102.246 25.9219L 102.246 24.1406L 104.508 24.1406L 104.508 4.54688L 102.246 4.54688L 102.246 2.76562Z"/>
<path id="path46_fill" d="M 1.11328 15.8203C 1.11328 13.875 1.57422 12.3125 2.49609 11.1328C 3.41797 9.94531 4.625 9.35156 6.11719 9.35156C 7.60156 9.35156 8.77734 9.85938 9.64453 10.875L 9.64453 4.26562L 11.8125 4.26562L 11.8125 22.2656L 9.82031 22.2656L 9.71484 20.9062C 8.84766 21.9687 7.64062 22.5 6.09375 22.5C 4.625 22.5 3.42578 21.8984 2.49609 20.6953C 1.57422 19.4922 1.11328 17.9219 1.11328 15.9844L 1.11328 15.8203ZM 3.28125 16.0664C 3.28125 17.5039 3.57813 18.6289 4.17188 19.4414C 4.76562 20.2539 5.58594 20.6602 6.63281 20.6602C 8.00781 20.6602 9.01172 20.043 9.64453 18.8086L 9.64453 12.9844C 8.99609 11.7891 8 11.1914 6.65625 11.1914C 5.59375 11.1914 4.76562 11.6016 4.17188 12.4219C 3.57813 13.2422 3.28125 14.457 3.28125 16.0664ZM 23.0156 22.2656C 22.8906 22.0156 22.7891 21.5703 22.7109 20.9297C 21.7031 21.9766 20.5 22.5 19.1016 22.5C 17.8516 22.5 16.8242 22.1484 16.0195 21.4453C 15.2227 20.7344 14.8242 19.8359 14.8242 18.75C 14.8242 17.4297 15.3242 16.4062 16.3242 15.6797C 17.332 14.9453 18.7461 14.5781 20.5664 14.5781L 22.6758 14.5781L 22.6758 13.582C 22.6758 12.8242 22.4492 12.2227 21.9961 11.7773C 21.543 11.3242 20.875 11.0977 19.9922 11.0977C 19.2188 11.0977 18.5703 11.293 18.0469 11.6836C 17.5234 12.0742 17.2617 12.5469 17.2617 13.1016L 15.082 13.1016C 15.082 12.4688 15.3047 11.8594 15.75 11.2734C 16.2031 10.6797 16.8125 10.2109 17.5781 9.86719C 18.3516 9.52344 19.1992 9.35156 20.1211 9.35156C 21.582 9.35156 22.7266 9.71875 23.5547 10.4531C 24.3828 11.1797 24.8125 12.1836 24.8438 13.4648L 24.8438 19.3008C 24.8438 20.4648 24.9922 21.3906 25.2891 22.0781L 25.2891 22.2656L 23.0156 22.2656ZM 19.418 20.6133C 20.0977 20.6133 20.7422 20.4375 21.3516 20.0859C 21.9609 19.7344 22.4023 19.2773 22.6758 18.7148L 22.6758 16.1133L 20.9766 16.1133C 18.3203 16.1133 16.9922 16.8906 16.9922 18.4453C 16.9922 19.125 17.2188 19.6562 17.6719 20.0391C 18.125 20.4219 18.707 20.6133 19.418 20.6133ZM 31.1836 6.51562L 31.1836 9.58594L 33.5508 9.58594L 33.5508 11.2617L 31.1836 11.2617L 31.1836 19.125C 31.1836 19.6328 31.2891 20.0156 31.5 20.2734C 31.7109 20.5234 32.0703 20.6484 32.5781 20.6484C 32.8281 20.6484 33.1719 20.6016 33.6094 20.5078L 33.6094 22.2656C 33.0391 22.4219 32.4844 22.5 31.9453 22.5C 30.9766 22.5 30.2461 22.207 29.7539 21.6211C 29.2617 21.0352 29.0156 20.2031 29.0156 19.125L 29.0156 11.2617L 26.707 11.2617L 26.707 9.58594L 29.0156 9.58594L 29.0156 6.51562L 31.1836 6.51562ZM 43.9219 22.2656C 43.7969 22.0156 43.6953 21.5703 43.6172 20.9297C 42.6094 21.9766 41.4062 22.5 40.0078 22.5C 38.7578 22.5 37.7305 22.1484 36.9258 21.4453C 36.1289 20.7344 35.7305 19.8359 35.7305 18.75C 35.7305 17.4297 36.2305 16.4062 37.2305 15.6797C 38.2383 14.9453 39.6523 14.5781 41.4727 14.5781L 43.582 14.5781L 43.582 13.582C 43.582 12.8242 43.3555 12.2227 42.9023 11.7773C 42.4492 11.3242 41.7812 11.0977 40.8984 11.0977C 40.125 11.0977 39.4766 11.293 38.9531 11.6836C 38.4297 12.0742 38.168 12.5469 38.168 13.1016L 35.9883 13.1016C 35.9883 12.4688 36.2109 11.8594 36.6562 11.2734C 37.1094 10.6797 37.7187 10.2109 38.4844 9.86719C 39.2578 9.52344 40.1055 9.35156 41.0273 9.35156C 42.4883 9.35156 43.6328 9.71875 44.4609 10.4531C 45.2891 11.1797 45.7187 12.1836 45.75 13.4648L 45.75 19.3008C 45.75 20.4648 45.8984 21.3906 46.1953 22.0781L 46.1953 22.2656L 43.9219 22.2656ZM 40.3242 20.6133C 41.0039 20.6133 41.6484 20.4375 42.2578 20.0859C 42.8672 19.7344 43.3086 19.2773 43.582 18.7148L 43.582 16.1133L 41.8828 16.1133C 39.2266 16.1133 37.8984 16.8906 37.8984 18.4453C 37.8984 19.125 38.125 19.6562 38.5781 20.0391C 39.0312 20.4219 39.6133 20.6133 40.3242 20.6133ZM 48.5742 15.8086C 48.5742 14.5664 48.8164 13.4492 49.3008 12.457C 49.793 11.4648 50.4727 10.6992 51.3398 10.1602C 52.2148 9.62109 53.2109 9.35156 54.3281 9.35156C 56.0547 9.35156 57.4492 9.94922 58.5117 11.1445C 59.582 12.3398 60.1172 13.9297 60.1172 15.9141L 60.1172 16.0664C 60.1172 17.3008 59.8789 18.4102 59.4023 19.3945C 58.9336 20.3711 58.2578 21.1328 57.375 21.6797C 56.5 22.2266 55.4922 22.5 54.3516 22.5C 52.6328 22.5 51.2383 21.9023 50.168 20.707C 49.1055 19.5117 48.5742 17.9297 48.5742 15.9609L 48.5742 15.8086ZM 50.7539 16.0664C 50.7539 17.4727 51.0781 18.6016 51.7266 19.4531C 52.3828 20.3047 53.2578 20.7305 54.3516 20.7305C 55.4531 20.7305 56.3281 20.3008 56.9766 19.4414C 57.625 18.5742 57.9492 17.3633 57.9492 15.8086C 57.9492 14.418 57.6172 13.293 56.9531 12.4336C 56.2969 11.5664 55.4219 11.1328 54.3281 11.1328C 53.2578 11.1328 52.3945 11.5586 51.7383 12.4102C 51.082 13.2617 50.7539 14.4805 50.7539 16.0664ZM 70.6641 21.0117C 69.8203 22.0039 68.582 22.5 66.9492 22.5C 65.5977 22.5 64.5664 22.1094 63.8555 21.3281C 63.1523 20.5391 62.7969 19.375 62.7891 17.8359L 62.7891 9.58594L 64.957 9.58594L 64.957 17.7773C 64.957 19.6992 65.7383 20.6602 67.3008 20.6602C 68.957 20.6602 70.0586 20.043 70.6055 18.8086L 70.6055 9.58594L 72.7734 9.58594L 72.7734 22.2656L 70.7109 22.2656L 70.6641 21.0117ZM 79.0195 6.51562L 79.0195 9.58594L 81.3867 9.58594L 81.3867 11.2617L 79.0195 11.2617L 79.0195 19.125C 79.0195 19.6328 79.125 20.0156 79.3359 20.2734C 79.5469 20.5234 79.9062 20.6484 80.4141 20.6484C 80.6641 20.6484 81.0078 20.6016 81.4453 20.5078L 81.4453 22.2656C 80.875 22.4219 80.3203 22.5 79.7812 22.5C 78.8125 22.5 78.082 22.207 77.5898 21.6211C 77.0977 21.0352 76.8516 20.2031 76.8516 19.125L 76.8516 11.2617L 74.543 11.2617L 74.543 9.58594L 76.8516 9.58594L 76.8516 6.51562L 79.0195 6.51562ZM 88.418 4.54688L 86.1797 4.54688L 86.1797 24.1406L 88.418 24.1406L 88.418 25.9219L 84 25.9219L 84 2.76562L 88.418 2.76562L 88.418 4.54688ZM 101.262 22.2656L 90.082 22.2656L 90.082 20.707L 95.9883 14.1445C 96.8633 13.1523 97.4648 12.3477 97.793 11.7305C 98.1289 11.1055 98.2969 10.4609 98.2969 9.79688C 98.2969 8.90625 98.0273 8.17578 97.4883 7.60547C 96.9492 7.03516 96.2305 6.75 95.332 6.75C 94.2539 6.75 93.4141 7.05859 92.8125 7.67578C 92.2188 8.28516 91.9219 9.13672 91.9219 10.2305L 89.7539 10.2305C 89.7539 8.66016 90.2578 7.39062 91.2656 6.42188C 92.2812 5.45313 93.6367 4.96875 95.332 4.96875C 96.918 4.96875 98.1719 5.38672 99.0938 6.22266C 100.016 7.05078 100.477 8.15625 100.477 9.53906C 100.477 11.2187 99.4063 13.2188 97.2656 15.5391L 92.6953 20.4961L 101.262 20.4961L 101.262 22.2656ZM 102.246 2.76562L 106.676 2.76562L 106.676 25.9219L 102.246 25.9219L 102.246 24.1406L 104.508 24.1406L 104.508 4.54688L 102.246 4.54688L 102.246 2.76562Z"/>
<path id="path47_stroke" d="M 13 0L 15.3074 -0.962145L 13 -6.4959L 10.6926 -0.962145L 13 0ZM 24.2583 27L 24.2583 29.5L 28.0094 29.5L 26.5658 26.0379L 24.2583 27ZM 1.74167 27L -0.56577 26.0379L -2.0094 29.5L 1.74167 29.5L 1.74167 27ZM 10.6926 0.962145L 21.9509 27.9621L 26.5658 26.0379L 15.3074 -0.962145L 10.6926 0.962145ZM 24.2583 24.5L 1.74167 24.5L 1.74167 29.5L 24.2583 29.5L 24.2583 24.5ZM 4.04911 27.9621L 15.3074 0.962145L 10.6926 -0.962145L -0.56577 26.0379L 4.04911 27.9621Z"/>
<path id="path48_stroke" d="M 9.5 6C 9.5 7.933 7.933 9.5 6 9.5L 6 14.5C 10.6944 14.5 14.5 10.6944 14.5 6L 9.5 6ZM 6 9.5C 4.067 9.5 2.5 7.933 2.5 6L -2.5 6C -2.5 10.6944 1.30558 14.5 6 14.5L 6 9.5ZM 2.5 6C 2.5 4.067 4.067 2.5 6 2.5L 6 -2.5C 1.30558 -2.5 -2.5 1.30558 -2.5 6L 2.5 6ZM 6 2.5C 7.933 2.5 9.5 4.067 9.5 6L 14.5 6C 14.5 1.30558 10.6944 -2.5 6 -2.5L 6 2.5Z"/>
<path id="path49_fill" d="M 1.06641 15.8086C 1.06641 14.5664 1.30859 13.4492 1.79297 12.457C 2.28516 11.4648 2.96484 10.6992 3.83203 10.1602C 4.70703 9.62109 5.70312 9.35156 6.82031 9.35156C 8.54687 9.35156 9.94141 9.94922 11.0039 11.1445C 12.0742 12.3398 12.6094 13.9297 12.6094 15.9141L 12.6094 16.0664C 12.6094 17.3008 12.3711 18.4102 11.8945 19.3945C 11.4258 20.3711 10.75 21.1328 9.86719 21.6797C 8.99219 22.2266 7.98437 22.5 6.84375 22.5C 5.125 22.5 3.73047 21.9023 2.66016 20.707C 1.59766 19.5117 1.06641 17.9297 1.06641 15.9609L 1.06641 15.8086ZM 3.24609 16.0664C 3.24609 17.4727 3.57031 18.6016 4.21875 19.4531C 4.875 20.3047 5.75 20.7305 6.84375 20.7305C 7.94531 20.7305 8.82031 20.3008 9.46875 19.4414C 10.1172 18.5742 10.4414 17.3633 10.4414 15.8086C 10.4414 14.418 10.1094 13.293 9.44531 12.4336C 8.78906 11.5664 7.91406 11.1328 6.82031 11.1328C 5.75 11.1328 4.88672 11.5586 4.23047 12.4102C 3.57422 13.2617 3.24609 14.4805 3.24609 16.0664ZM 23.1562 21.0117C 22.3125 22.0039 21.0742 22.5 19.4414 22.5C 18.0898 22.5 17.0586 22.1094 16.3477 21.3281C 15.6445 20.5391 15.2891 19.375 15.2812 17.8359L 15.2812 9.58594L 17.4492 9.58594L 17.4492 17.7773C 17.4492 19.6992 18.2305 20.6602 19.793 20.6602C 21.4492 20.6602 22.5508 20.043 23.0977 18.8086L 23.0977 9.58594L 25.2656 9.58594L 25.2656 22.2656L 23.2031 22.2656L 23.1562 21.0117ZM 31.5117 6.51562L 31.5117 9.58594L 33.8789 9.58594L 33.8789 11.2617L 31.5117 11.2617L 31.5117 19.125C 31.5117 19.6328 31.6172 20.0156 31.8281 20.2734C 32.0391 20.5234 32.3984 20.6484 32.9062 20.6484C 33.1562 20.6484 33.5 20.6016 33.9375 20.5078L 33.9375 22.2656C 33.3672 22.4219 32.8125 22.5 32.2734 22.5C 31.3047 22.5 30.5742 22.207 30.082 21.6211C 29.5898 21.0352 29.3438 20.2031 29.3438 19.125L 29.3438 11.2617L 27.0352 11.2617L 27.0352 9.58594L 29.3438 9.58594L 29.3438 6.51562L 31.5117 6.51562ZM 40.9102 4.54688L 38.6719 4.54688L 38.6719 24.1406L 40.9102 24.1406L 40.9102 25.9219L 36.4922 25.9219L 36.4922 2.76562L 40.9102 2.76562L 40.9102 4.54688ZM 49.6992 22.2656L 47.5195 22.2656L 47.5195 7.81641L 43.1484 9.42188L 43.1484 7.45312L 49.3594 5.12109L 49.6992 5.12109L 49.6992 22.2656ZM 54.7383 2.76562L 59.168 2.76562L 59.168 25.9219L 54.7383 25.9219L 54.7383 24.1406L 57 24.1406L 57 4.54688L 54.7383 4.54688L 54.7383 2.76562Z"/>
<path id="path50_stroke" d="M 0 0L 63 0L 63 -5L 0 -5L 0 0Z"/>
</defs>
</svg>
