<svg width="3474" height="3033" viewBox="0 0 3474 3033" version="1.1" xmlns="http://www.w3.org/2000/svg" xmlns:xlink="http://www.w3.org/1999/xlink" xmlns:figma="http://www.figma.com/figma/ns">
<title>L2 Cache State Diagram</title>
<desc>Created using Figma</desc>
<g id="Canvas" transform="translate(2067 1880)" figma:type="canvas">
<g id="StateMachine" style="mix-blend-mode:normal;" figma:type="frame">
<g id="Page-1" style="mix-blend-mode:normal;" figma:type="frame">
<g id="Group-4" style="mix-blend-mode:normal;" figma:type="frame">
<g id="Oval-8" style="mix-blend-mode:normal;" figma:type="vector">
<use xlink:href="#path0_stroke" transform="translate(-871 -1072)" fill="#979797" style="mix-blend-mode:normal;"/>
</g>
<g id="Oval-8" style="mix-blend-mode:normal;" figma:type="vector">
<use xlink:href="#path0_stroke" transform="translate(-878 -1877)" fill="#979797" style="mix-blend-mode:normal;"/>
</g>
<g id="Oval-8-Copy" style="mix-blend-mode:normal;" figma:type="vector">
<use xlink:href="#path0_stroke" transform="translate(244 -394)" fill="#979797" style="mix-blend-mode:normal;"/>
</g>
<g id="Oval-8-Copy-2" style="mix-blend-mode:normal;" figma:type="vector">
<use xlink:href="#path0_stroke" transform="translate(-871 435)" fill="#979797" style="mix-blend-mode:normal;"/>
</g>
<g id="Oval-8-Copy-3" style="mix-blend-mode:normal;" figma:type="vector">
<use xlink:href="#path0_stroke" transform="translate(-2064 -394)" fill="#979797" style="mix-blend-mode:normal;"/>
</g>
<g id="Compare" style="mix-blend-mode:normal;" figma:type="text">
<use xlink:href="#path1_fill" transform="translate(-821.5 -927)" style="mix-blend-mode:normal;"/>
</g>
<g id="Write-Back" style="mix-blend-mode:normal;" figma:type="text">
<use xlink:href="#path2_fill" transform="translate(255.5 -262)" style="mix-blend-mode:normal;"/>
</g>
<g id="Allocate1" style="mix-blend-mode:normal;" figma:type="text">
<use xlink:href="#path3_fill" transform="translate(-832.656 567)" style="mix-blend-mode:normal;"/>
</g>
<g id="Allocate2" style="mix-blend-mode:normal;" figma:type="text">
<use xlink:href="#path4_fill" transform="translate(-2029.98 -262)" style="mix-blend-mode:normal;"/>
</g>
<g id="Line" style="mix-blend-mode:normal;" figma:type="vector">
<use xlink:href="#path5_stroke" transform="translate(-1760.5 -842.5)" fill="#979797" style="mix-blend-mode:normal;"/>
</g>
<g id="Line-decoration-1" style="mix-blend-mode:normal;" figma:type="vector">
<use xlink:href="#path6_stroke" transform="translate(-878.4 -842.5)" fill="#979797" style="mix-blend-mode:normal;"/>
</g>
<g id="Line" style="mix-blend-mode:normal;" figma:type="vector">
<use xlink:href="#path7_stroke" transform="translate(-520 -852)" fill="#979797" style="mix-blend-mode:normal;"/>
</g>
<g id="Line-decoration-1" style="mix-blend-mode:normal;" figma:type="vector">
<use xlink:href="#path8_stroke" transform="translate(247.263 -370.294)" fill="#979797" style="mix-blend-mode:normal;"/>
</g>
<g id="Line" style="mix-blend-mode:normal;" figma:type="vector">
<use xlink:href="#path9_stroke" transform="translate(-537.5 -56.5)" fill="#979797" style="mix-blend-mode:normal;"/>
</g>
<g id="Line-decoration-1" style="mix-blend-mode:normal;" figma:type="vector">
<use xlink:href="#path10_stroke" transform="translate(-537.5 516.038)" fill="#979797" style="mix-blend-mode:normal;"/>
</g>
<g id="hit == 0 and dirty == 0" style="mix-blend-mode:normal;" figma:type="text">
<use xlink:href="#path11_fill" transform="translate(-647 -370.294)" style="mix-blend-mode:normal;"/>
</g>
<g id="Line" style="mix-blend-mode:normal;" figma:type="vector">
<use xlink:href="#path12_stroke" transform="translate(-1812.5 -52.5)" fill="#979797" style="mix-blend-mode:normal;"/>
</g>
<g id="Line-decoration-1" style="mix-blend-mode:normal;" figma:type="vector">
<use xlink:href="#path13_stroke" transform="translate(-1812.5 -52.5)" fill="#979797" style="mix-blend-mode:normal;"/>
</g>
<g id="Line" style="mix-blend-mode:normal;" figma:type="vector">
<use xlink:href="#path14_stroke" transform="translate(-675.667 -713.5)" fill="#979797" style="mix-blend-mode:normal;"/>
</g>
<g id="Line" style="mix-blend-mode:normal;" figma:type="vector">
<use xlink:href="#path15_stroke" transform="translate(-589 -1548)" fill="#979797" style="mix-blend-mode:normal;"/>
</g>
<g id="Line" style="mix-blend-mode:normal;" figma:type="vector">
<use xlink:href="#path16_stroke" transform="translate(-790 -1503)" fill="#979797" style="mix-blend-mode:normal;"/>
</g>
<g id="Line-decoration-1" style="mix-blend-mode:normal;" figma:type="vector">
<use xlink:href="#path17_stroke" transform="translate(-678.667 411.2)" fill="#979797" style="mix-blend-mode:normal;"/>
</g>
<g id="Line-decoration-1" style="mix-blend-mode:normal;" figma:type="vector">
<use xlink:href="#path17_stroke" transform="translate(-592 -1082.8)" fill="#979797" style="mix-blend-mode:normal;"/>
</g>
<g id="Line-decoration-1" style="mix-blend-mode:normal;" figma:type="vector">
<use xlink:href="#path17_stroke" transform="matrix(-1 -1.22465e-16 1.22465e-16 -1 -784 -1497.6)" fill="#979797" style="mix-blend-mode:normal;"/>
</g>
<g id="hit == 0 and dirty == 1" style="mix-blend-mode:normal;" figma:type="text">
<use xlink:href="#path18_fill" transform="translate(-271.5 -789)" style="mix-blend-mode:normal;"/>
</g>
<g id="pmem resp-==-1" style="mix-blend-mode:normal;" figma:type="text">
<use xlink:href="#path19_fill" transform="translate(-107.547 252)" style="mix-blend-mode:normal;"/>
</g>
<g id="Line" style="mix-blend-mode:normal;" figma:type="vector">
<use xlink:href="#path20_stroke" transform="translate(569 -426)" fill="#979797" style="mix-blend-mode:normal;"/>
</g>
<g id="Line-decoration-1" style="mix-blend-mode:normal;" figma:type="vector">
<use xlink:href="#path21_stroke" transform="translate(558.2 -95.1267)" fill="#979797" style="mix-blend-mode:normal;"/>
</g>
<g id="pmem resp-==-0" style="mix-blend-mode:normal;" figma:type="text">
<use xlink:href="#path22_fill" transform="translate(937.125 -262)" style="mix-blend-mode:normal;"/>
</g>
<g id="Line" style="mix-blend-mode:normal;" figma:type="vector">
<use xlink:href="#path23_stroke" transform="matrix(-1.83697e-16 1 -1 -1.83697e-16 -488.718 758.68)" fill="#979797" style="mix-blend-mode:normal;"/>
</g>
<g id="pmem resp-==-0" style="mix-blend-mode:normal;" figma:type="text">
<use xlink:href="#path22_fill" transform="translate(-920.875 1079.67)" style="mix-blend-mode:normal;"/>
</g>
<g id="pmem resp-==-1" style="mix-blend-mode:normal;" figma:type="text">
<use xlink:href="#path19_fill" transform="translate(-2029.55 156)" style="mix-blend-mode:normal;"/>
</g>
</g>
</g>
</g>
<g id="Idle" style="mix-blend-mode:normal;" figma:type="text">
<use xlink:href="#path24_fill" transform="translate(-751 -1735.5)" style="mix-blend-mode:normal;"/>
</g>
<g id="mem_read == 1 or mem_write == 1" style="mix-blend-mode:normal;" figma:type="text">
<use xlink:href="#path25_fill" transform="translate(-537.5 -1354.5)" style="mix-blend-mode:normal;"/>
</g>
<g id="hit = 1" style="mix-blend-mode:normal;" figma:type="text">
<use xlink:href="#path26_fill" transform="translate(-996.5 -1317)" style="mix-blend-mode:normal;"/>
</g>
</g>
<defs>
<path id="path0_stroke" d="M 355.5 179C 355.5 276.478 276.478 355.5 179 355.5L 179 360.5C 279.24 360.5 360.5 279.24 360.5 179L 355.5 179ZM 179 355.5C 81.5217 355.5 2.5 276.478 2.5 179L -2.5 179C -2.5 279.24 78.7603 360.5 179 360.5L 179 355.5ZM 2.5 179C 2.5 81.5217 81.5217 2.5 179 2.5L 179 -2.5C 78.7603 -2.5 -2.5 78.7603 -2.5 179L 2.5 179ZM 179 2.5C 276.478 2.5 355.5 81.5217 355.5 179L 360.5 179C 360.5 78.7603 279.24 -2.5 179 -2.5L 179 2.5Z"/>
<path id="path1_fill" d="M 38.75 44.9375C 38.1875 49.75 36.4062 53.4688 33.4062 56.0938C 30.4271 58.6979 26.4583 60 21.5 60C 16.125 60 11.8125 58.0729 8.5625 54.2188C 5.33333 50.3646 3.71875 45.2083 3.71875 38.75L 3.71875 34.375C 3.71875 30.1458 4.46875 26.4271 5.96875 23.2188C 7.48958 20.0104 9.63542 17.5521 12.4062 15.8438C 15.1771 14.1146 18.3854 13.25 22.0312 13.25C 26.8646 13.25 30.7396 14.6042 33.6562 17.3125C 36.5729 20 38.2708 23.7292 38.75 28.5L 32.7188 28.5C 32.1979 24.875 31.0625 22.25 29.3125 20.625C 27.5833 19 25.1562 18.1875 22.0312 18.1875C 18.1979 18.1875 15.1875 19.6042 13 22.4375C 10.8333 25.2708 9.75 29.3021 9.75 34.5312L 9.75 38.9375C 9.75 43.875 10.7812 47.8021 12.8438 50.7188C 14.9062 53.6354 17.7917 55.0938 21.5 55.0938C 24.8333 55.0938 27.3854 54.3438 29.1562 52.8438C 30.9479 51.3229 32.1354 48.6875 32.7188 44.9375L 38.75 44.9375ZM 44.5312 42.1562C 44.5312 38.8438 45.1771 35.8646 46.4688 33.2188C 47.7812 30.5729 49.5938 28.5312 51.9062 27.0938C 54.2396 25.6562 56.8958 24.9375 59.875 24.9375C 64.4792 24.9375 68.1979 26.5312 71.0312 29.7188C 73.8854 32.9062 75.3125 37.1458 75.3125 42.4375L 75.3125 42.8438C 75.3125 46.1354 74.6771 49.0938 73.4062 51.7188C 72.1562 54.3229 70.3542 56.3542 68 57.8125C 65.6667 59.2708 62.9792 60 59.9375 60C 55.3542 60 51.6354 58.4062 48.7812 55.2188C 45.9479 52.0312 44.5312 47.8125 44.5312 42.5625L 44.5312 42.1562ZM 50.3438 42.8438C 50.3438 46.5938 51.2083 49.6042 52.9375 51.875C 54.6875 54.1458 57.0208 55.2812 59.9375 55.2812C 62.875 55.2812 65.2083 54.1354 66.9375 51.8438C 68.6667 49.5312 69.5312 46.3021 69.5312 42.1562C 69.5312 38.4479 68.6458 35.4479 66.875 33.1562C 65.125 30.8438 62.7917 29.6875 59.875 29.6875C 57.0208 29.6875 54.7188 30.8229 52.9688 33.0938C 51.2188 35.3646 50.3438 38.6146 50.3438 42.8438ZM 88 25.5625L 88.1562 29.3125C 90.6354 26.3958 93.9792 24.9375 98.1875 24.9375C 102.917 24.9375 106.135 26.75 107.844 30.375C 108.969 28.75 110.427 27.4375 112.219 26.4375C 114.031 25.4375 116.167 24.9375 118.625 24.9375C 126.042 24.9375 129.812 28.8646 129.938 36.7188L 129.938 59.375L 124.156 59.375L 124.156 37.0625C 124.156 34.6458 123.604 32.8438 122.5 31.6562C 121.396 30.4479 119.542 29.8438 116.938 29.8438C 114.792 29.8438 113.01 30.4896 111.594 31.7812C 110.177 33.0521 109.354 34.7708 109.125 36.9375L 109.125 59.375L 103.312 59.375L 103.312 37.2188C 103.312 32.3021 100.906 29.8438 96.0938 29.8438C 92.3021 29.8438 89.7083 31.4583 88.3125 34.6875L 88.3125 59.375L 82.5312 59.375L 82.5312 25.5625L 88 25.5625ZM 167.25 42.8438C 167.25 47.9896 166.073 52.1354 163.719 55.2812C 161.365 58.4271 158.177 60 154.156 60C 150.052 60 146.823 58.6979 144.469 56.0938L 144.469 72.375L 138.688 72.375L 138.688 25.5625L 143.969 25.5625L 144.25 29.3125C 146.604 26.3958 149.875 24.9375 154.062 24.9375C 158.125 24.9375 161.333 26.4688 163.688 29.5312C 166.062 32.5938 167.25 36.8542 167.25 42.3125L 167.25 42.8438ZM 161.469 42.1875C 161.469 38.375 160.656 35.3646 159.031 33.1562C 157.406 30.9479 155.177 29.8438 152.344 29.8438C 148.844 29.8438 146.219 31.3958 144.469 34.5L 144.469 50.6562C 146.198 53.7396 148.844 55.2812 152.406 55.2812C 155.177 55.2812 157.375 54.1875 159 52C 160.646 49.7917 161.469 46.5208 161.469 42.1875ZM 195.5 59.375C 195.167 58.7083 194.896 57.5208 194.688 55.8125C 192 58.6042 188.792 60 185.062 60C 181.729 60 178.99 59.0625 176.844 57.1875C 174.719 55.2917 173.656 52.8958 173.656 50C 173.656 46.4792 174.99 43.75 177.656 41.8125C 180.344 39.8542 184.115 38.875 188.969 38.875L 194.594 38.875L 194.594 36.2188C 194.594 34.1979 193.99 32.5938 192.781 31.4062C 191.573 30.1979 189.792 29.5938 187.438 29.5938C 185.375 29.5938 183.646 30.1146 182.25 31.1562C 180.854 32.1979 180.156 33.4583 180.156 34.9375L 174.344 34.9375C 174.344 33.25 174.938 31.625 176.125 30.0625C 177.333 28.4792 178.958 27.2292 181 26.3125C 183.062 25.3958 185.323 24.9375 187.781 24.9375C 191.677 24.9375 194.729 25.9167 196.938 27.875C 199.146 29.8125 200.292 32.4896 200.375 35.9062L 200.375 51.4688C 200.375 54.5729 200.771 57.0417 201.562 58.875L 201.562 59.375L 195.5 59.375ZM 185.906 54.9688C 187.719 54.9688 189.438 54.5 191.062 53.5625C 192.688 52.625 193.865 51.4062 194.594 49.9062L 194.594 42.9688L 190.062 42.9688C 182.979 42.9688 179.438 45.0417 179.438 49.1875C 179.438 51 180.042 52.4167 181.25 53.4375C 182.458 54.4583 184.01 54.9688 185.906 54.9688ZM 225.781 30.75C 224.906 30.6042 223.958 30.5312 222.938 30.5312C 219.146 30.5312 216.573 32.1458 215.219 35.375L 215.219 59.375L 209.438 59.375L 209.438 25.5625L 215.062 25.5625L 215.156 29.4688C 217.052 26.4479 219.74 24.9375 223.219 24.9375C 224.344 24.9375 225.198 25.0833 225.781 25.375L 225.781 30.75ZM 244.594 60C 240.01 60 236.281 58.5 233.406 55.5C 230.531 52.4792 229.094 48.4479 229.094 43.4062L 229.094 42.3438C 229.094 38.9896 229.729 36 231 33.375C 232.292 30.7292 234.083 28.6667 236.375 27.1875C 238.688 25.6875 241.188 24.9375 243.875 24.9375C 248.271 24.9375 251.688 26.3854 254.125 29.2812C 256.562 32.1771 257.781 36.3229 257.781 41.7188L 257.781 44.125L 234.875 44.125C 234.958 47.4583 235.927 50.1562 237.781 52.2188C 239.656 54.2604 242.031 55.2812 244.906 55.2812C 246.948 55.2812 248.677 54.8646 250.094 54.0312C 251.51 53.1979 252.75 52.0938 253.812 50.7188L 257.344 53.4688C 254.51 57.8229 250.26 60 244.594 60ZM 243.875 29.6875C 241.542 29.6875 239.583 30.5417 238 32.25C 236.417 33.9375 235.438 36.3125 235.062 39.375L 252 39.375L 252 38.9375C 251.833 36 251.042 33.7292 249.625 32.125C 248.208 30.5 246.292 29.6875 243.875 29.6875Z"/>
<path id="path2_fill" d="M 15.0938 45.0312L 15.9688 51.0312L 17.25 45.625L 26.25 13.875L 31.3125 13.875L 40.0938 45.625L 41.3438 51.125L 42.3125 45L 49.375 13.875L 55.4062 13.875L 44.375 59.375L 38.9062 59.375L 29.5312 26.2188L 28.8125 22.75L 28.0938 26.2188L 18.375 59.375L 12.9062 59.375L 1.90625 13.875L 7.90625 13.875L 15.0938 45.0312ZM 76.9062 30.75C 76.0312 30.6042 75.0833 30.5312 74.0625 30.5312C 70.2708 30.5312 67.6979 32.1458 66.3438 35.375L 66.3438 59.375L 60.5625 59.375L 60.5625 25.5625L 66.1875 25.5625L 66.2812 29.4688C 68.1771 26.4479 70.8646 24.9375 74.3438 24.9375C 75.4688 24.9375 76.3229 25.0833 76.9062 25.375L 76.9062 30.75ZM 88.5312 59.375L 82.75 59.375L 82.75 25.5625L 88.5312 25.5625L 88.5312 59.375ZM 82.2812 16.5938C 82.2812 15.6562 82.5625 14.8646 83.125 14.2188C 83.7083 13.5729 84.5625 13.25 85.6875 13.25C 86.8125 13.25 87.6667 13.5729 88.25 14.2188C 88.8333 14.8646 89.125 15.6562 89.125 16.5938C 89.125 17.5312 88.8333 18.3125 88.25 18.9375C 87.6667 19.5625 86.8125 19.875 85.6875 19.875C 84.5625 19.875 83.7083 19.5625 83.125 18.9375C 82.5625 18.3125 82.2812 17.5312 82.2812 16.5938ZM 105.656 17.375L 105.656 25.5625L 111.969 25.5625L 111.969 30.0312L 105.656 30.0312L 105.656 51C 105.656 52.3542 105.938 53.375 106.5 54.0625C 107.062 54.7292 108.021 55.0625 109.375 55.0625C 110.042 55.0625 110.958 54.9375 112.125 54.6875L 112.125 59.375C 110.604 59.7917 109.125 60 107.688 60C 105.104 60 103.156 59.2188 101.844 57.6562C 100.531 56.0938 99.875 53.875 99.875 51L 99.875 30.0312L 93.7188 30.0312L 93.7188 25.5625L 99.875 25.5625L 99.875 17.375L 105.656 17.375ZM 132.781 60C 128.198 60 124.469 58.5 121.594 55.5C 118.719 52.4792 117.281 48.4479 117.281 43.4062L 117.281 42.3438C 117.281 38.9896 117.917 36 119.188 33.375C 120.479 30.7292 122.271 28.6667 124.562 27.1875C 126.875 25.6875 129.375 24.9375 132.062 24.9375C 136.458 24.9375 139.875 26.3854 142.312 29.2812C 144.75 32.1771 145.969 36.3229 145.969 41.7188L 145.969 44.125L 123.062 44.125C 123.146 47.4583 124.115 50.1562 125.969 52.2188C 127.844 54.2604 130.219 55.2812 133.094 55.2812C 135.135 55.2812 136.865 54.8646 138.281 54.0312C 139.698 53.1979 140.938 52.0938 142 50.7188L 145.531 53.4688C 142.698 57.8229 138.448 60 132.781 60ZM 132.062 29.6875C 129.729 29.6875 127.771 30.5417 126.188 32.25C 124.604 33.9375 123.625 36.3125 123.25 39.375L 140.188 39.375L 140.188 38.9375C 140.021 36 139.229 33.7292 137.812 32.125C 136.396 30.5 134.479 29.6875 132.062 29.6875ZM 169.469 59.375L 169.469 13.875L 184.344 13.875C 189.281 13.875 192.99 14.8958 195.469 16.9375C 197.969 18.9792 199.219 22 199.219 26C 199.219 28.125 198.615 30.0104 197.406 31.6562C 196.198 33.2812 194.552 34.5417 192.469 35.4375C 194.927 36.125 196.865 37.4375 198.281 39.375C 199.719 41.2917 200.438 43.5833 200.438 46.25C 200.438 50.3333 199.115 53.5417 196.469 55.875C 193.823 58.2083 190.083 59.375 185.25 59.375L 169.469 59.375ZM 175.469 38.0938L 175.469 54.4688L 185.375 54.4688C 188.167 54.4688 190.365 53.75 191.969 52.3125C 193.594 50.8542 194.406 48.8542 194.406 46.3125C 194.406 40.8333 191.427 38.0938 185.469 38.0938L 175.469 38.0938ZM 175.469 33.2812L 184.531 33.2812C 187.156 33.2812 189.25 32.625 190.812 31.3125C 192.396 30 193.188 28.2188 193.188 25.9688C 193.188 23.4688 192.458 21.6562 191 20.5312C 189.542 19.3854 187.323 18.8125 184.344 18.8125L 175.469 18.8125L 175.469 33.2812ZM 229.312 59.375C 228.979 58.7083 228.708 57.5208 228.5 55.8125C 225.812 58.6042 222.604 60 218.875 60C 215.542 60 212.802 59.0625 210.656 57.1875C 208.531 55.2917 207.469 52.8958 207.469 50C 207.469 46.4792 208.802 43.75 211.469 41.8125C 214.156 39.8542 217.927 38.875 222.781 38.875L 228.406 38.875L 228.406 36.2188C 228.406 34.1979 227.802 32.5938 226.594 31.4062C 225.385 30.1979 223.604 29.5938 221.25 29.5938C 219.188 29.5938 217.458 30.1146 216.062 31.1562C 214.667 32.1979 213.969 33.4583 213.969 34.9375L 208.156 34.9375C 208.156 33.25 208.75 31.625 209.938 30.0625C 211.146 28.4792 212.771 27.2292 214.812 26.3125C 216.875 25.3958 219.135 24.9375 221.594 24.9375C 225.49 24.9375 228.542 25.9167 230.75 27.875C 232.958 29.8125 234.104 32.4896 234.188 35.9062L 234.188 51.4688C 234.188 54.5729 234.583 57.0417 235.375 58.875L 235.375 59.375L 229.312 59.375ZM 219.719 54.9688C 221.531 54.9688 223.25 54.5 224.875 53.5625C 226.5 52.625 227.677 51.4062 228.406 49.9062L 228.406 42.9688L 223.875 42.9688C 216.792 42.9688 213.25 45.0417 213.25 49.1875C 213.25 51 213.854 52.4167 215.062 53.4375C 216.271 54.4583 217.823 54.9688 219.719 54.9688ZM 256.812 55.2812C 258.875 55.2812 260.677 54.6562 262.219 53.4062C 263.76 52.1562 264.615 50.5938 264.781 48.7188L 270.25 48.7188C 270.146 50.6562 269.479 52.5 268.25 54.25C 267.021 56 265.375 57.3958 263.312 58.4375C 261.271 59.4792 259.104 60 256.812 60C 252.208 60 248.542 58.4688 245.812 55.4062C 243.104 52.3229 241.75 48.1146 241.75 42.7812L 241.75 41.8125C 241.75 38.5208 242.354 35.5938 243.562 33.0312C 244.771 30.4688 246.5 28.4792 248.75 27.0625C 251.021 25.6458 253.698 24.9375 256.781 24.9375C 260.573 24.9375 263.719 26.0729 266.219 28.3438C 268.74 30.6146 270.083 33.5625 270.25 37.1875L 264.781 37.1875C 264.615 35 263.781 33.2083 262.281 31.8125C 260.802 30.3958 258.969 29.6875 256.781 29.6875C 253.844 29.6875 251.562 30.75 249.938 32.875C 248.333 34.9792 247.531 38.0312 247.531 42.0312L 247.531 43.125C 247.531 47.0208 248.333 50.0208 249.938 52.125C 251.542 54.2292 253.833 55.2812 256.812 55.2812ZM 286.188 43.7188L 282.562 47.5L 282.562 59.375L 276.781 59.375L 276.781 11.375L 282.562 11.375L 282.562 40.4062L 285.656 36.6875L 296.188 25.5625L 303.219 25.5625L 290.062 39.6875L 304.75 59.375L 297.969 59.375L 286.188 43.7188Z"/>
<path id="path3_fill" d="M 30.4062 47.5L 11.3438 47.5L 7.0625 59.375L 0.875 59.375L 18.25 13.875L 23.5 13.875L 40.9062 59.375L 34.75 59.375L 30.4062 47.5ZM 13.1562 42.5625L 28.625 42.5625L 20.875 21.2812L 13.1562 42.5625ZM 52.4062 59.375L 46.625 59.375L 46.625 11.375L 52.4062 11.375L 52.4062 59.375ZM 67.9688 59.375L 62.1875 59.375L 62.1875 11.375L 67.9688 11.375L 67.9688 59.375ZM 75.7188 42.1562C 75.7188 38.8438 76.3646 35.8646 77.6562 33.2188C 78.9688 30.5729 80.7812 28.5312 83.0938 27.0938C 85.4271 25.6562 88.0833 24.9375 91.0625 24.9375C 95.6667 24.9375 99.3854 26.5312 102.219 29.7188C 105.073 32.9062 106.5 37.1458 106.5 42.4375L 106.5 42.8438C 106.5 46.1354 105.865 49.0938 104.594 51.7188C 103.344 54.3229 101.542 56.3542 99.1875 57.8125C 96.8542 59.2708 94.1667 60 91.125 60C 86.5417 60 82.8229 58.4062 79.9688 55.2188C 77.1354 52.0312 75.7188 47.8125 75.7188 42.5625L 75.7188 42.1562ZM 81.5312 42.8438C 81.5312 46.5938 82.3958 49.6042 84.125 51.875C 85.875 54.1458 88.2083 55.2812 91.125 55.2812C 94.0625 55.2812 96.3958 54.1354 98.125 51.8438C 99.8542 49.5312 100.719 46.3021 100.719 42.1562C 100.719 38.4479 99.8333 35.4479 98.0625 33.1562C 96.3125 30.8438 93.9792 29.6875 91.0625 29.6875C 88.2083 29.6875 85.9062 30.8229 84.1562 33.0938C 82.4062 35.3646 81.5312 38.6146 81.5312 42.8438ZM 127.312 55.2812C 129.375 55.2812 131.177 54.6562 132.719 53.4062C 134.26 52.1562 135.115 50.5938 135.281 48.7188L 140.75 48.7188C 140.646 50.6562 139.979 52.5 138.75 54.25C 137.521 56 135.875 57.3958 133.812 58.4375C 131.771 59.4792 129.604 60 127.312 60C 122.708 60 119.042 58.4688 116.312 55.4062C 113.604 52.3229 112.25 48.1146 112.25 42.7812L 112.25 41.8125C 112.25 38.5208 112.854 35.5938 114.062 33.0312C 115.271 30.4688 117 28.4792 119.25 27.0625C 121.521 25.6458 124.198 24.9375 127.281 24.9375C 131.073 24.9375 134.219 26.0729 136.719 28.3438C 139.24 30.6146 140.583 33.5625 140.75 37.1875L 135.281 37.1875C 135.115 35 134.281 33.2083 132.781 31.8125C 131.302 30.3958 129.469 29.6875 127.281 29.6875C 124.344 29.6875 122.062 30.75 120.438 32.875C 118.833 34.9792 118.031 38.0312 118.031 42.0312L 118.031 43.125C 118.031 47.0208 118.833 50.0208 120.438 52.125C 122.042 54.2292 124.333 55.2812 127.312 55.2812ZM 168.125 59.375C 167.792 58.7083 167.521 57.5208 167.312 55.8125C 164.625 58.6042 161.417 60 157.688 60C 154.354 60 151.615 59.0625 149.469 57.1875C 147.344 55.2917 146.281 52.8958 146.281 50C 146.281 46.4792 147.615 43.75 150.281 41.8125C 152.969 39.8542 156.74 38.875 161.594 38.875L 167.219 38.875L 167.219 36.2188C 167.219 34.1979 166.615 32.5938 165.406 31.4062C 164.198 30.1979 162.417 29.5938 160.062 29.5938C 158 29.5938 156.271 30.1146 154.875 31.1562C 153.479 32.1979 152.781 33.4583 152.781 34.9375L 146.969 34.9375C 146.969 33.25 147.562 31.625 148.75 30.0625C 149.958 28.4792 151.583 27.2292 153.625 26.3125C 155.688 25.3958 157.948 24.9375 160.406 24.9375C 164.302 24.9375 167.354 25.9167 169.562 27.875C 171.771 29.8125 172.917 32.4896 173 35.9062L 173 51.4688C 173 54.5729 173.396 57.0417 174.188 58.875L 174.188 59.375L 168.125 59.375ZM 158.531 54.9688C 160.344 54.9688 162.062 54.5 163.688 53.5625C 165.312 52.625 166.49 51.4062 167.219 49.9062L 167.219 42.9688L 162.688 42.9688C 155.604 42.9688 152.062 45.0417 152.062 49.1875C 152.062 51 152.667 52.4167 153.875 53.4375C 155.083 54.4583 156.635 54.9688 158.531 54.9688ZM 189.906 17.375L 189.906 25.5625L 196.219 25.5625L 196.219 30.0312L 189.906 30.0312L 189.906 51C 189.906 52.3542 190.188 53.375 190.75 54.0625C 191.312 54.7292 192.271 55.0625 193.625 55.0625C 194.292 55.0625 195.208 54.9375 196.375 54.6875L 196.375 59.375C 194.854 59.7917 193.375 60 191.938 60C 189.354 60 187.406 59.2188 186.094 57.6562C 184.781 56.0938 184.125 53.875 184.125 51L 184.125 30.0312L 177.969 30.0312L 177.969 25.5625L 184.125 25.5625L 184.125 17.375L 189.906 17.375ZM 217.031 60C 212.448 60 208.719 58.5 205.844 55.5C 202.969 52.4792 201.531 48.4479 201.531 43.4062L 201.531 42.3438C 201.531 38.9896 202.167 36 203.438 33.375C 204.729 30.7292 206.521 28.6667 208.812 27.1875C 211.125 25.6875 213.625 24.9375 216.312 24.9375C 220.708 24.9375 224.125 26.3854 226.562 29.2812C 229 32.1771 230.219 36.3229 230.219 41.7188L 230.219 44.125L 207.312 44.125C 207.396 47.4583 208.365 50.1562 210.219 52.2188C 212.094 54.2604 214.469 55.2812 217.344 55.2812C 219.385 55.2812 221.115 54.8646 222.531 54.0312C 223.948 53.1979 225.188 52.0938 226.25 50.7188L 229.781 53.4688C 226.948 57.8229 222.698 60 217.031 60ZM 216.312 29.6875C 213.979 29.6875 212.021 30.5417 210.438 32.25C 208.854 33.9375 207.875 36.3125 207.5 39.375L 224.438 39.375L 224.438 38.9375C 224.271 36 223.479 33.7292 222.062 32.125C 220.646 30.5 218.729 29.6875 216.312 29.6875ZM 255.344 59.375L 249.531 59.375L 249.531 20.8438L 237.875 25.125L 237.875 19.875L 254.438 13.6562L 255.344 13.6562L 255.344 59.375Z"/>
<path id="path4_fill" d="M 30.4062 47.5L 11.3438 47.5L 7.0625 59.375L 0.875 59.375L 18.25 13.875L 23.5 13.875L 40.9062 59.375L 34.75 59.375L 30.4062 47.5ZM 13.1562 42.5625L 28.625 42.5625L 20.875 21.2812L 13.1562 42.5625ZM 52.4062 59.375L 46.625 59.375L 46.625 11.375L 52.4062 11.375L 52.4062 59.375ZM 67.9688 59.375L 62.1875 59.375L 62.1875 11.375L 67.9688 11.375L 67.9688 59.375ZM 75.7188 42.1562C 75.7188 38.8438 76.3646 35.8646 77.6562 33.2188C 78.9688 30.5729 80.7812 28.5312 83.0938 27.0938C 85.4271 25.6562 88.0833 24.9375 91.0625 24.9375C 95.6667 24.9375 99.3854 26.5312 102.219 29.7188C 105.073 32.9062 106.5 37.1458 106.5 42.4375L 106.5 42.8438C 106.5 46.1354 105.865 49.0938 104.594 51.7188C 103.344 54.3229 101.542 56.3542 99.1875 57.8125C 96.8542 59.2708 94.1667 60 91.125 60C 86.5417 60 82.8229 58.4062 79.9688 55.2188C 77.1354 52.0312 75.7188 47.8125 75.7188 42.5625L 75.7188 42.1562ZM 81.5312 42.8438C 81.5312 46.5938 82.3958 49.6042 84.125 51.875C 85.875 54.1458 88.2083 55.2812 91.125 55.2812C 94.0625 55.2812 96.3958 54.1354 98.125 51.8438C 99.8542 49.5312 100.719 46.3021 100.719 42.1562C 100.719 38.4479 99.8333 35.4479 98.0625 33.1562C 96.3125 30.8438 93.9792 29.6875 91.0625 29.6875C 88.2083 29.6875 85.9062 30.8229 84.1562 33.0938C 82.4062 35.3646 81.5312 38.6146 81.5312 42.8438ZM 127.312 55.2812C 129.375 55.2812 131.177 54.6562 132.719 53.4062C 134.26 52.1562 135.115 50.5938 135.281 48.7188L 140.75 48.7188C 140.646 50.6562 139.979 52.5 138.75 54.25C 137.521 56 135.875 57.3958 133.812 58.4375C 131.771 59.4792 129.604 60 127.312 60C 122.708 60 119.042 58.4688 116.312 55.4062C 113.604 52.3229 112.25 48.1146 112.25 42.7812L 112.25 41.8125C 112.25 38.5208 112.854 35.5938 114.062 33.0312C 115.271 30.4688 117 28.4792 119.25 27.0625C 121.521 25.6458 124.198 24.9375 127.281 24.9375C 131.073 24.9375 134.219 26.0729 136.719 28.3438C 139.24 30.6146 140.583 33.5625 140.75 37.1875L 135.281 37.1875C 135.115 35 134.281 33.2083 132.781 31.8125C 131.302 30.3958 129.469 29.6875 127.281 29.6875C 124.344 29.6875 122.062 30.75 120.438 32.875C 118.833 34.9792 118.031 38.0312 118.031 42.0312L 118.031 43.125C 118.031 47.0208 118.833 50.0208 120.438 52.125C 122.042 54.2292 124.333 55.2812 127.312 55.2812ZM 168.125 59.375C 167.792 58.7083 167.521 57.5208 167.312 55.8125C 164.625 58.6042 161.417 60 157.688 60C 154.354 60 151.615 59.0625 149.469 57.1875C 147.344 55.2917 146.281 52.8958 146.281 50C 146.281 46.4792 147.615 43.75 150.281 41.8125C 152.969 39.8542 156.74 38.875 161.594 38.875L 167.219 38.875L 167.219 36.2188C 167.219 34.1979 166.615 32.5938 165.406 31.4062C 164.198 30.1979 162.417 29.5938 160.062 29.5938C 158 29.5938 156.271 30.1146 154.875 31.1562C 153.479 32.1979 152.781 33.4583 152.781 34.9375L 146.969 34.9375C 146.969 33.25 147.562 31.625 148.75 30.0625C 149.958 28.4792 151.583 27.2292 153.625 26.3125C 155.688 25.3958 157.948 24.9375 160.406 24.9375C 164.302 24.9375 167.354 25.9167 169.562 27.875C 171.771 29.8125 172.917 32.4896 173 35.9062L 173 51.4688C 173 54.5729 173.396 57.0417 174.188 58.875L 174.188 59.375L 168.125 59.375ZM 158.531 54.9688C 160.344 54.9688 162.062 54.5 163.688 53.5625C 165.312 52.625 166.49 51.4062 167.219 49.9062L 167.219 42.9688L 162.688 42.9688C 155.604 42.9688 152.062 45.0417 152.062 49.1875C 152.062 51 152.667 52.4167 153.875 53.4375C 155.083 54.4583 156.635 54.9688 158.531 54.9688ZM 189.906 17.375L 189.906 25.5625L 196.219 25.5625L 196.219 30.0312L 189.906 30.0312L 189.906 51C 189.906 52.3542 190.188 53.375 190.75 54.0625C 191.312 54.7292 192.271 55.0625 193.625 55.0625C 194.292 55.0625 195.208 54.9375 196.375 54.6875L 196.375 59.375C 194.854 59.7917 193.375 60 191.938 60C 189.354 60 187.406 59.2188 186.094 57.6562C 184.781 56.0938 184.125 53.875 184.125 51L 184.125 30.0312L 177.969 30.0312L 177.969 25.5625L 184.125 25.5625L 184.125 17.375L 189.906 17.375ZM 217.031 60C 212.448 60 208.719 58.5 205.844 55.5C 202.969 52.4792 201.531 48.4479 201.531 43.4062L 201.531 42.3438C 201.531 38.9896 202.167 36 203.438 33.375C 204.729 30.7292 206.521 28.6667 208.812 27.1875C 211.125 25.6875 213.625 24.9375 216.312 24.9375C 220.708 24.9375 224.125 26.3854 226.562 29.2812C 229 32.1771 230.219 36.3229 230.219 41.7188L 230.219 44.125L 207.312 44.125C 207.396 47.4583 208.365 50.1562 210.219 52.2188C 212.094 54.2604 214.469 55.2812 217.344 55.2812C 219.385 55.2812 221.115 54.8646 222.531 54.0312C 223.948 53.1979 225.188 52.0938 226.25 50.7188L 229.781 53.4688C 226.948 57.8229 222.698 60 217.031 60ZM 216.312 29.6875C 213.979 29.6875 212.021 30.5417 210.438 32.25C 208.854 33.9375 207.875 36.3125 207.5 39.375L 224.438 39.375L 224.438 38.9375C 224.271 36 223.479 33.7292 222.062 32.125C 220.646 30.5 218.729 29.6875 216.312 29.6875ZM 266.156 59.375L 236.344 59.375L 236.344 55.2188L 252.094 37.7188C 254.427 35.0729 256.031 32.9271 256.906 31.2812C 257.802 29.6146 258.25 27.8958 258.25 26.125C 258.25 23.75 257.531 21.8021 256.094 20.2812C 254.656 18.7604 252.74 18 250.344 18C 247.469 18 245.229 18.8229 243.625 20.4688C 242.042 22.0938 241.25 24.3646 241.25 27.2812L 235.469 27.2812C 235.469 23.0938 236.812 19.7083 239.5 17.125C 242.208 14.5417 245.823 13.25 250.344 13.25C 254.573 13.25 257.917 14.3646 260.375 16.5938C 262.833 18.8021 264.062 21.75 264.062 25.4375C 264.062 29.9167 261.208 35.25 255.5 41.4375L 243.312 54.6562L 266.156 54.6562L 266.156 59.375Z"/>
<path id="path5_stroke" d="M -5.81773 484.505L -16.3132 490.322L -4.67769 511.313L 5.81773 505.495L -5.81773 484.505ZM 898.818 10.4954L 909.313 4.67769L 897.678 -16.3132L 887.182 -10.4954L 898.818 10.4954ZM 5.81773 505.495L 898.818 10.4954L 887.182 -10.4954L -5.81773 484.505L 5.81773 505.495Z"/>
<path id="path6_stroke" d="M -9.01171 -4.26041L -21.1319 7.66017L 2.70922 31.9006L 14.8294 19.98L -9.01171 -4.26041ZM 10.9003 0L 22.8209 12.1202L 66.4538 -30.794L 6.93866 -16.5319L 10.9003 0ZM -3.96161 -13.9198L -20.4936 -9.95818L -12.5702 23.1057L 3.96172 19.1441L -3.96161 -13.9198ZM 14.8294 19.98L 22.8209 12.1202L -1.02026 -12.1202L -9.01171 -4.26041L 14.8294 19.98ZM 6.93866 -16.5319L -3.96161 -13.9198L 3.96172 19.1441L 14.862 16.5319L 6.93866 -16.5319Z"/>
<path id="path7_stroke" d="M 6.39514 -10.1539L -3.75878 -16.5491L -16.5491 3.75878L -6.39514 10.1539L 6.39514 -10.1539ZM 771.605 500.154L 781.759 506.549L 794.549 486.241L 784.395 479.846L 771.605 500.154ZM -6.39514 10.1539L 771.605 500.154L 784.395 479.846L 6.39514 -10.1539L -6.39514 10.1539Z"/>
<path id="path8_stroke" d="M 4.87932 -11.2078L -11.4054 -16.0871L -21.164 16.4824L -4.87929 21.3617L 4.87932 -11.2078ZM 10.7373 8.29411L 5.85801 24.5788L 64.4835 42.1445L 23.3165 -3.14106L 10.7373 8.29411ZM 15.7767 -11.4352L 4.34158 -24.0144L -20.8169 -1.14407L -9.3817 11.4352L 15.7767 -11.4352ZM -4.87929 21.3617L 5.85801 24.5788L 15.6166 -7.99062L 4.87932 -11.2078L -4.87929 21.3617ZM 23.3165 -3.14106L 15.7767 -11.4352L -9.3817 11.4352L -1.8419 19.7293L 23.3165 -3.14106Z"/>
<path id="path9_stroke" d="M 884.622 10.0073L 894.63 3.38517L 881.385 -16.6295L 871.378 -10.0073L 884.622 10.0073ZM -6.62217 570.993L -16.6295 577.615L -3.38517 597.63L 6.62217 591.007L -6.62217 570.993ZM 871.378 -10.0073L -6.62217 570.993L 6.62217 591.007L 884.622 10.0073L 871.378 -10.0073Z"/>
<path id="path10_stroke" d="M 20.1846 11.149L 31.3336 -1.68457L 5.66651 -23.9825L -5.48248 -11.149L 20.1846 11.149ZM 0 8.46179L -12.8336 -2.6872L -52.9701 43.5138L 5.24478 24.6325L 0 8.46179ZM 15.9069 21.1744L 32.0776 15.9296L 21.588 -16.4118L 5.41733 -11.1671L 15.9069 21.1744ZM -5.48248 -11.149L -12.8336 -2.6872L 12.8336 19.6108L 20.1846 11.149L -5.48248 -11.149ZM 5.24478 24.6325L 15.9069 21.1744L 5.41733 -11.1671L -5.24478 -7.70893L 5.24478 24.6325Z"/>
<path id="path11_fill" d="M 10.1562 29.6562C 12.7188 26.5104 16.0521 24.9375 20.1562 24.9375C 27.3021 24.9375 30.9062 28.9688 30.9688 37.0312L 30.9688 59.375L 25.1875 59.375L 25.1875 37C 25.1667 34.5625 24.6042 32.7604 23.5 31.5938C 22.4167 30.4271 20.7188 29.8438 18.4062 29.8438C 16.5312 29.8438 14.8854 30.3438 13.4688 31.3438C 12.0521 32.3438 10.9479 33.6562 10.1562 35.2812L 10.1562 59.375L 4.375 59.375L 4.375 11.375L 10.1562 11.375L 10.1562 29.6562ZM 45.9062 59.375L 40.125 59.375L 40.125 25.5625L 45.9062 25.5625L 45.9062 59.375ZM 39.6562 16.5938C 39.6562 15.6562 39.9375 14.8646 40.5 14.2188C 41.0833 13.5729 41.9375 13.25 43.0625 13.25C 44.1875 13.25 45.0417 13.5729 45.625 14.2188C 46.2083 14.8646 46.5 15.6562 46.5 16.5938C 46.5 17.5312 46.2083 18.3125 45.625 18.9375C 45.0417 19.5625 44.1875 19.875 43.0625 19.875C 41.9375 19.875 41.0833 19.5625 40.5 18.9375C 39.9375 18.3125 39.6562 17.5312 39.6562 16.5938ZM 63.0312 17.375L 63.0312 25.5625L 69.3438 25.5625L 69.3438 30.0312L 63.0312 30.0312L 63.0312 51C 63.0312 52.3542 63.3125 53.375 63.875 54.0625C 64.4375 54.7292 65.3958 55.0625 66.75 55.0625C 67.4167 55.0625 68.3333 54.9375 69.5 54.6875L 69.5 59.375C 67.9792 59.7917 66.5 60 65.0625 60C 62.4792 60 60.5312 59.2188 59.2188 57.6562C 57.9062 56.0938 57.25 53.875 57.25 51L 57.25 30.0312L 51.0938 30.0312L 51.0938 25.5625L 57.25 25.5625L 57.25 17.375L 63.0312 17.375ZM 118.438 33.9375L 92.375 33.9375L 92.375 28.9062L 118.438 28.9062L 118.438 33.9375ZM 118.438 46.9062L 92.375 46.9062L 92.375 41.9062L 118.438 41.9062L 118.438 46.9062ZM 153.562 33.9375L 127.5 33.9375L 127.5 28.9062L 153.562 28.9062L 153.562 33.9375ZM 153.562 46.9062L 127.5 46.9062L 127.5 41.9062L 153.562 41.9062L 153.562 46.9062ZM 206.062 39.9688C 206.062 46.7396 204.906 51.7708 202.594 55.0625C 200.281 58.3542 196.667 60 191.75 60C 186.896 60 183.302 58.3958 180.969 55.1875C 178.635 51.9583 177.427 47.1458 177.344 40.75L 177.344 33.0312C 177.344 26.3438 178.5 21.375 180.812 18.125C 183.125 14.875 186.75 13.25 191.688 13.25C 196.583 13.25 200.188 14.8229 202.5 17.9688C 204.812 21.0938 206 25.9271 206.062 32.4688L 206.062 39.9688ZM 200.281 32.0625C 200.281 27.1667 199.594 23.6042 198.219 21.375C 196.844 19.125 194.667 18 191.688 18C 188.729 18 186.573 19.1146 185.219 21.3438C 183.865 23.5729 183.167 27 183.125 31.625L 183.125 40.875C 183.125 45.7917 183.833 49.4271 185.25 51.7812C 186.688 54.1146 188.854 55.2812 191.75 55.2812C 194.604 55.2812 196.719 54.1771 198.094 51.9688C 199.49 49.7604 200.219 46.2812 200.281 41.5312L 200.281 32.0625ZM 250.812 59.375C 250.479 58.7083 250.208 57.5208 250 55.8125C 247.312 58.6042 244.104 60 240.375 60C 237.042 60 234.302 59.0625 232.156 57.1875C 230.031 55.2917 228.969 52.8958 228.969 50C 228.969 46.4792 230.302 43.75 232.969 41.8125C 235.656 39.8542 239.427 38.875 244.281 38.875L 249.906 38.875L 249.906 36.2188C 249.906 34.1979 249.302 32.5938 248.094 31.4062C 246.885 30.1979 245.104 29.5938 242.75 29.5938C 240.688 29.5938 238.958 30.1146 237.562 31.1562C 236.167 32.1979 235.469 33.4583 235.469 34.9375L 229.656 34.9375C 229.656 33.25 230.25 31.625 231.438 30.0625C 232.646 28.4792 234.271 27.2292 236.312 26.3125C 238.375 25.3958 240.635 24.9375 243.094 24.9375C 246.99 24.9375 250.042 25.9167 252.25 27.875C 254.458 29.8125 255.604 32.4896 255.688 35.9062L 255.688 51.4688C 255.688 54.5729 256.083 57.0417 256.875 58.875L 256.875 59.375L 250.812 59.375ZM 241.219 54.9688C 243.031 54.9688 244.75 54.5 246.375 53.5625C 248 52.625 249.177 51.4062 249.906 49.9062L 249.906 42.9688L 245.375 42.9688C 238.292 42.9688 234.75 45.0417 234.75 49.1875C 234.75 51 235.354 52.4167 236.562 53.4375C 237.771 54.4583 239.323 54.9688 241.219 54.9688ZM 270.219 25.5625L 270.406 29.8125C 272.99 26.5625 276.365 24.9375 280.531 24.9375C 287.677 24.9375 291.281 28.9688 291.344 37.0312L 291.344 59.375L 285.562 59.375L 285.562 37C 285.542 34.5625 284.979 32.7604 283.875 31.5938C 282.792 30.4271 281.094 29.8438 278.781 29.8438C 276.906 29.8438 275.26 30.3438 273.844 31.3438C 272.427 32.3438 271.323 33.6562 270.531 35.2812L 270.531 59.375L 264.75 59.375L 264.75 25.5625L 270.219 25.5625ZM 298.656 42.1875C 298.656 37 299.885 32.8333 302.344 29.6875C 304.802 26.5208 308.021 24.9375 312 24.9375C 315.958 24.9375 319.094 26.2917 321.406 29L 321.406 11.375L 327.188 11.375L 327.188 59.375L 321.875 59.375L 321.594 55.75C 319.281 58.5833 316.062 60 311.938 60C 308.021 60 304.823 58.3958 302.344 55.1875C 299.885 51.9792 298.656 47.7917 298.656 42.625L 298.656 42.1875ZM 304.438 42.8438C 304.438 46.6771 305.229 49.6771 306.812 51.8438C 308.396 54.0104 310.583 55.0938 313.375 55.0938C 317.042 55.0938 319.719 53.4479 321.406 50.1562L 321.406 34.625C 319.677 31.4375 317.021 29.8438 313.438 29.8438C 310.604 29.8438 308.396 30.9375 306.812 33.125C 305.229 35.3125 304.438 38.5521 304.438 42.8438ZM 2.96875 117.188C 2.96875 112 4.19792 107.833 6.65625 104.688C 9.11458 101.521 12.3333 99.9375 16.3125 99.9375C 20.2708 99.9375 23.4062 101.292 25.7188 104L 25.7188 86.375L 31.5 86.375L 31.5 134.375L 26.1875 134.375L 25.9062 130.75C 23.5938 133.583 20.375 135 16.25 135C 12.3333 135 9.13542 133.396 6.65625 130.188C 4.19792 126.979 2.96875 122.792 2.96875 117.625L 2.96875 117.188ZM 8.75 117.844C 8.75 121.677 9.54167 124.677 11.125 126.844C 12.7083 129.01 14.8958 130.094 17.6875 130.094C 21.3542 130.094 24.0312 128.448 25.7188 125.156L 25.7188 109.625C 23.9896 106.438 21.3333 104.844 17.75 104.844C 14.9167 104.844 12.7083 105.938 11.125 108.125C 9.54167 110.312 8.75 113.552 8.75 117.844ZM 46.7812 134.375L 41 134.375L 41 100.562L 46.7812 100.562L 46.7812 134.375ZM 40.5312 91.5938C 40.5312 90.6562 40.8125 89.8646 41.375 89.2188C 41.9583 88.5729 42.8125 88.25 43.9375 88.25C 45.0625 88.25 45.9167 88.5729 46.5 89.2188C 47.0833 89.8646 47.375 90.6562 47.375 91.5938C 47.375 92.5312 47.0833 93.3125 46.5 93.9375C 45.9167 94.5625 45.0625 94.875 43.9375 94.875C 42.8125 94.875 41.9583 94.5625 41.375 93.9375C 40.8125 93.3125 40.5312 92.5312 40.5312 91.5938ZM 72.4062 105.75C 71.5312 105.604 70.5833 105.531 69.5625 105.531C 65.7708 105.531 63.1979 107.146 61.8438 110.375L 61.8438 134.375L 56.0625 134.375L 56.0625 100.562L 61.6875 100.562L 61.7812 104.469C 63.6771 101.448 66.3646 99.9375 69.8438 99.9375C 70.9688 99.9375 71.8229 100.083 72.4062 100.375L 72.4062 105.75ZM 87.1562 92.375L 87.1562 100.562L 93.4688 100.562L 93.4688 105.031L 87.1562 105.031L 87.1562 126C 87.1562 127.354 87.4375 128.375 88 129.062C 88.5625 129.729 89.5208 130.062 90.875 130.062C 91.5417 130.062 92.4583 129.938 93.625 129.688L 93.625 134.375C 92.1042 134.792 90.625 135 89.1875 135C 86.6042 135 84.6562 134.219 83.3438 132.656C 82.0312 131.094 81.375 128.875 81.375 126L 81.375 105.031L 75.2188 105.031L 75.2188 100.562L 81.375 100.562L 81.375 92.375L 87.1562 92.375ZM 111.312 125.906L 119.188 100.562L 125.375 100.562L 111.781 139.594C 109.677 145.219 106.333 148.031 101.75 148.031L 100.656 147.938L 98.5 147.531L 98.5 142.844L 100.062 142.969C 102.021 142.969 103.542 142.573 104.625 141.781C 105.729 140.99 106.635 139.542 107.344 137.438L 108.625 134L 96.5625 100.562L 102.875 100.562L 111.312 125.906ZM 172.875 108.938L 146.812 108.938L 146.812 103.906L 172.875 103.906L 172.875 108.938ZM 172.875 121.906L 146.812 121.906L 146.812 116.906L 172.875 116.906L 172.875 121.906ZM 208 108.938L 181.938 108.938L 181.938 103.906L 208 103.906L 208 108.938ZM 208 121.906L 181.938 121.906L 181.938 116.906L 208 116.906L 208 121.906ZM 260.5 114.969C 260.5 121.74 259.344 126.771 257.031 130.062C 254.719 133.354 251.104 135 246.188 135C 241.333 135 237.74 133.396 235.406 130.188C 233.073 126.958 231.865 122.146 231.781 115.75L 231.781 108.031C 231.781 101.344 232.938 96.375 235.25 93.125C 237.562 89.875 241.188 88.25 246.125 88.25C 251.021 88.25 254.625 89.8229 256.938 92.9688C 259.25 96.0938 260.438 100.927 260.5 107.469L 260.5 114.969ZM 254.719 107.062C 254.719 102.167 254.031 98.6042 252.656 96.375C 251.281 94.125 249.104 93 246.125 93C 243.167 93 241.01 94.1146 239.656 96.3438C 238.302 98.5729 237.604 102 237.562 106.625L 237.562 115.875C 237.562 120.792 238.271 124.427 239.688 126.781C 241.125 129.115 243.292 130.281 246.188 130.281C 249.042 130.281 251.156 129.177 252.531 126.969C 253.927 124.76 254.656 121.281 254.719 116.531L 254.719 107.062Z"/>
<path id="path12_stroke" d="M 942.496 622.085L 952.581 628.588L 965.588 608.419L 955.504 601.915L 942.496 622.085ZM 6.50359 -10.0848L -3.58122 -16.5884L -16.5884 3.58122L -6.50359 10.0848L 6.50359 -10.0848ZM 955.504 601.915L 6.50359 -10.0848L -6.50359 10.0848L 942.496 622.085L 955.504 601.915Z"/>
<path id="path13_stroke" d="M 5.64868 19.5635L 21.8802 24.6171L 31.9872 -7.84595L 15.7557 -12.8995L 5.64868 19.5635ZM 0 0L 5.05353 -16.2315L -53.3803 -34.4243L -12.701 11.2997L 0 0ZM -5.25059 19.6741L 6.04913 32.3751L 31.4512 9.7757L 20.1515 -2.92533L -5.25059 19.6741ZM 15.7557 -12.8995L 5.05353 -16.2315L -5.05353 16.2315L 5.64868 19.5635L 15.7557 -12.8995ZM -12.701 11.2997L -5.25059 19.6741L 20.1515 -2.92533L 12.701 -11.2997L -12.701 11.2997Z"/>
<path id="path14_stroke" d="M 12 0L 12 -12L -12 -12L -12 0L 12 0ZM -12 1135.5L -12 1147.5L 12 1147.5L 12 1135.5L -12 1135.5ZM -12 0L -12 1135.5L 12 1135.5L 12 0L -12 0Z"/>
<path id="path15_stroke" d="M 12 0L 12 -12L -12 -12L -12 0L 12 0ZM -12 476L -12 488L 12 488L 12 476L -12 476ZM -12 0L -12 476L 12 476L 12 0L -12 0Z"/>
<path id="path16_stroke" d="M 12 0L 12 -12L -12 -12L -12 0L 12 0ZM -12 447L -12 459L 12 459L 12 447L -12 447ZM -12 0L -12 447L 12 447L 12 0L -12 0Z"/>
<path id="path17_stroke" d="M 16.3799 -4.54998L 11.8299 -20.9298L -20.9297 -11.8299L -16.3798 4.54988L 16.3799 -4.54998ZM 3.00004 10.8L -13.3798 15.3499L 3.00005 74.3175L 19.3799 15.3499L 3.00004 10.8ZM 22.3799 4.54988L 26.9298 -11.8299L -5.82984 -20.9298L -10.3798 -4.54997L 22.3799 4.54988ZM -16.3798 4.54988L -13.3798 15.3499L 19.3799 6.25007L 16.3799 -4.54998L -16.3798 4.54988ZM 19.3799 15.3499L 22.3799 4.54988L -10.3798 -4.54997L -13.3798 6.25007L 19.3799 15.3499Z"/>
<path id="path18_fill" d="M 10.1562 29.6562C 12.7188 26.5104 16.0521 24.9375 20.1562 24.9375C 27.3021 24.9375 30.9062 28.9688 30.9688 37.0312L 30.9688 59.375L 25.1875 59.375L 25.1875 37C 25.1667 34.5625 24.6042 32.7604 23.5 31.5938C 22.4167 30.4271 20.7188 29.8438 18.4062 29.8438C 16.5312 29.8438 14.8854 30.3438 13.4688 31.3438C 12.0521 32.3438 10.9479 33.6562 10.1562 35.2812L 10.1562 59.375L 4.375 59.375L 4.375 11.375L 10.1562 11.375L 10.1562 29.6562ZM 45.9062 59.375L 40.125 59.375L 40.125 25.5625L 45.9062 25.5625L 45.9062 59.375ZM 39.6562 16.5938C 39.6562 15.6562 39.9375 14.8646 40.5 14.2188C 41.0833 13.5729 41.9375 13.25 43.0625 13.25C 44.1875 13.25 45.0417 13.5729 45.625 14.2188C 46.2083 14.8646 46.5 15.6562 46.5 16.5938C 46.5 17.5312 46.2083 18.3125 45.625 18.9375C 45.0417 19.5625 44.1875 19.875 43.0625 19.875C 41.9375 19.875 41.0833 19.5625 40.5 18.9375C 39.9375 18.3125 39.6562 17.5312 39.6562 16.5938ZM 63.0312 17.375L 63.0312 25.5625L 69.3438 25.5625L 69.3438 30.0312L 63.0312 30.0312L 63.0312 51C 63.0312 52.3542 63.3125 53.375 63.875 54.0625C 64.4375 54.7292 65.3958 55.0625 66.75 55.0625C 67.4167 55.0625 68.3333 54.9375 69.5 54.6875L 69.5 59.375C 67.9792 59.7917 66.5 60 65.0625 60C 62.4792 60 60.5312 59.2188 59.2188 57.6562C 57.9062 56.0938 57.25 53.875 57.25 51L 57.25 30.0312L 51.0938 30.0312L 51.0938 25.5625L 57.25 25.5625L 57.25 17.375L 63.0312 17.375ZM 118.438 33.9375L 92.375 33.9375L 92.375 28.9062L 118.438 28.9062L 118.438 33.9375ZM 118.438 46.9062L 92.375 46.9062L 92.375 41.9062L 118.438 41.9062L 118.438 46.9062ZM 153.562 33.9375L 127.5 33.9375L 127.5 28.9062L 153.562 28.9062L 153.562 33.9375ZM 153.562 46.9062L 127.5 46.9062L 127.5 41.9062L 153.562 41.9062L 153.562 46.9062ZM 206.062 39.9688C 206.062 46.7396 204.906 51.7708 202.594 55.0625C 200.281 58.3542 196.667 60 191.75 60C 186.896 60 183.302 58.3958 180.969 55.1875C 178.635 51.9583 177.427 47.1458 177.344 40.75L 177.344 33.0312C 177.344 26.3438 178.5 21.375 180.812 18.125C 183.125 14.875 186.75 13.25 191.688 13.25C 196.583 13.25 200.188 14.8229 202.5 17.9688C 204.812 21.0938 206 25.9271 206.062 32.4688L 206.062 39.9688ZM 200.281 32.0625C 200.281 27.1667 199.594 23.6042 198.219 21.375C 196.844 19.125 194.667 18 191.688 18C 188.729 18 186.573 19.1146 185.219 21.3438C 183.865 23.5729 183.167 27 183.125 31.625L 183.125 40.875C 183.125 45.7917 183.833 49.4271 185.25 51.7812C 186.688 54.1146 188.854 55.2812 191.75 55.2812C 194.604 55.2812 196.719 54.1771 198.094 51.9688C 199.49 49.7604 200.219 46.2812 200.281 41.5312L 200.281 32.0625ZM 250.812 59.375C 250.479 58.7083 250.208 57.5208 250 55.8125C 247.312 58.6042 244.104 60 240.375 60C 237.042 60 234.302 59.0625 232.156 57.1875C 230.031 55.2917 228.969 52.8958 228.969 50C 228.969 46.4792 230.302 43.75 232.969 41.8125C 235.656 39.8542 239.427 38.875 244.281 38.875L 249.906 38.875L 249.906 36.2188C 249.906 34.1979 249.302 32.5938 248.094 31.4062C 246.885 30.1979 245.104 29.5938 242.75 29.5938C 240.688 29.5938 238.958 30.1146 237.562 31.1562C 236.167 32.1979 235.469 33.4583 235.469 34.9375L 229.656 34.9375C 229.656 33.25 230.25 31.625 231.438 30.0625C 232.646 28.4792 234.271 27.2292 236.312 26.3125C 238.375 25.3958 240.635 24.9375 243.094 24.9375C 246.99 24.9375 250.042 25.9167 252.25 27.875C 254.458 29.8125 255.604 32.4896 255.688 35.9062L 255.688 51.4688C 255.688 54.5729 256.083 57.0417 256.875 58.875L 256.875 59.375L 250.812 59.375ZM 241.219 54.9688C 243.031 54.9688 244.75 54.5 246.375 53.5625C 248 52.625 249.177 51.4062 249.906 49.9062L 249.906 42.9688L 245.375 42.9688C 238.292 42.9688 234.75 45.0417 234.75 49.1875C 234.75 51 235.354 52.4167 236.562 53.4375C 237.771 54.4583 239.323 54.9688 241.219 54.9688ZM 270.219 25.5625L 270.406 29.8125C 272.99 26.5625 276.365 24.9375 280.531 24.9375C 287.677 24.9375 291.281 28.9688 291.344 37.0312L 291.344 59.375L 285.562 59.375L 285.562 37C 285.542 34.5625 284.979 32.7604 283.875 31.5938C 282.792 30.4271 281.094 29.8438 278.781 29.8438C 276.906 29.8438 275.26 30.3438 273.844 31.3438C 272.427 32.3438 271.323 33.6562 270.531 35.2812L 270.531 59.375L 264.75 59.375L 264.75 25.5625L 270.219 25.5625ZM 298.656 42.1875C 298.656 37 299.885 32.8333 302.344 29.6875C 304.802 26.5208 308.021 24.9375 312 24.9375C 315.958 24.9375 319.094 26.2917 321.406 29L 321.406 11.375L 327.188 11.375L 327.188 59.375L 321.875 59.375L 321.594 55.75C 319.281 58.5833 316.062 60 311.938 60C 308.021 60 304.823 58.3958 302.344 55.1875C 299.885 51.9792 298.656 47.7917 298.656 42.625L 298.656 42.1875ZM 304.438 42.8438C 304.438 46.6771 305.229 49.6771 306.812 51.8438C 308.396 54.0104 310.583 55.0938 313.375 55.0938C 317.042 55.0938 319.719 53.4479 321.406 50.1562L 321.406 34.625C 319.677 31.4375 317.021 29.8438 313.438 29.8438C 310.604 29.8438 308.396 30.9375 306.812 33.125C 305.229 35.3125 304.438 38.5521 304.438 42.8438ZM 350.656 42.1875C 350.656 37 351.885 32.8333 354.344 29.6875C 356.802 26.5208 360.021 24.9375 364 24.9375C 367.958 24.9375 371.094 26.2917 373.406 29L 373.406 11.375L 379.188 11.375L 379.188 59.375L 373.875 59.375L 373.594 55.75C 371.281 58.5833 368.062 60 363.938 60C 360.021 60 356.823 58.3958 354.344 55.1875C 351.885 51.9792 350.656 47.7917 350.656 42.625L 350.656 42.1875ZM 356.438 42.8438C 356.438 46.6771 357.229 49.6771 358.812 51.8438C 360.396 54.0104 362.583 55.0938 365.375 55.0938C 369.042 55.0938 371.719 53.4479 373.406 50.1562L 373.406 34.625C 371.677 31.4375 369.021 29.8438 365.438 29.8438C 362.604 29.8438 360.396 30.9375 358.812 33.125C 357.229 35.3125 356.438 38.5521 356.438 42.8438ZM 394.469 59.375L 388.688 59.375L 388.688 25.5625L 394.469 25.5625L 394.469 59.375ZM 388.219 16.5938C 388.219 15.6562 388.5 14.8646 389.062 14.2188C 389.646 13.5729 390.5 13.25 391.625 13.25C 392.75 13.25 393.604 13.5729 394.188 14.2188C 394.771 14.8646 395.062 15.6562 395.062 16.5938C 395.062 17.5312 394.771 18.3125 394.188 18.9375C 393.604 19.5625 392.75 19.875 391.625 19.875C 390.5 19.875 389.646 19.5625 389.062 18.9375C 388.5 18.3125 388.219 17.5312 388.219 16.5938ZM 420.094 30.75C 419.219 30.6042 418.271 30.5312 417.25 30.5312C 413.458 30.5312 410.885 32.1458 409.531 35.375L 409.531 59.375L 403.75 59.375L 403.75 25.5625L 409.375 25.5625L 409.469 29.4688C 411.365 26.4479 414.052 24.9375 417.531 24.9375C 418.656 24.9375 419.51 25.0833 420.094 25.375L 420.094 30.75ZM 434.844 17.375L 434.844 25.5625L 441.156 25.5625L 441.156 30.0312L 434.844 30.0312L 434.844 51C 434.844 52.3542 435.125 53.375 435.688 54.0625C 436.25 54.7292 437.208 55.0625 438.562 55.0625C 439.229 55.0625 440.146 54.9375 441.312 54.6875L 441.312 59.375C 439.792 59.7917 438.312 60 436.875 60C 434.292 60 432.344 59.2188 431.031 57.6562C 429.719 56.0938 429.062 53.875 429.062 51L 429.062 30.0312L 422.906 30.0312L 422.906 25.5625L 429.062 25.5625L 429.062 17.375L 434.844 17.375ZM 459 50.9062L 466.875 25.5625L 473.062 25.5625L 459.469 64.5938C 457.365 70.2188 454.021 73.0312 449.438 73.0312L 448.344 72.9375L 446.188 72.5312L 446.188 67.8438L 447.75 67.9688C 449.708 67.9688 451.229 67.5729 452.312 66.7812C 453.417 65.9896 454.323 64.5417 455.031 62.4375L 456.312 59L 444.25 25.5625L 450.562 25.5625L 459 50.9062ZM 520.562 33.9375L 494.5 33.9375L 494.5 28.9062L 520.562 28.9062L 520.562 33.9375ZM 520.562 46.9062L 494.5 46.9062L 494.5 41.9062L 520.562 41.9062L 520.562 46.9062ZM 555.688 33.9375L 529.625 33.9375L 529.625 28.9062L 555.688 28.9062L 555.688 33.9375ZM 555.688 46.9062L 529.625 46.9062L 529.625 41.9062L 555.688 41.9062L 555.688 46.9062ZM 598.656 59.375L 592.844 59.375L 592.844 20.8438L 581.188 25.125L 581.188 19.875L 597.75 13.6562L 598.656 13.6562L 598.656 59.375Z"/>
<path id="path19_fill" d="M 32.9375 42.8438C 32.9375 47.9896 31.7604 52.1354 29.4062 55.2812C 27.0521 58.4271 23.8646 60 19.8438 60C 15.7396 60 12.5104 58.6979 10.1562 56.0938L 10.1562 72.375L 4.375 72.375L 4.375 25.5625L 9.65625 25.5625L 9.9375 29.3125C 12.2917 26.3958 15.5625 24.9375 19.75 24.9375C 23.8125 24.9375 27.0208 26.4688 29.375 29.5312C 31.75 32.5938 32.9375 36.8542 32.9375 42.3125L 32.9375 42.8438ZM 27.1562 42.1875C 27.1562 38.375 26.3438 35.3646 24.7188 33.1562C 23.0938 30.9479 20.8646 29.8438 18.0312 29.8438C 14.5312 29.8438 11.9062 31.3958 10.1562 34.5L 10.1562 50.6562C 11.8854 53.7396 14.5312 55.2812 18.0938 55.2812C 20.8646 55.2812 23.0625 54.1875 24.6875 52C 26.3333 49.7917 27.1562 46.5208 27.1562 42.1875ZM 45.75 25.5625L 45.9062 29.3125C 48.3854 26.3958 51.7292 24.9375 55.9375 24.9375C 60.6667 24.9375 63.8854 26.75 65.5938 30.375C 66.7188 28.75 68.1771 27.4375 69.9688 26.4375C 71.7812 25.4375 73.9167 24.9375 76.375 24.9375C 83.7917 24.9375 87.5625 28.8646 87.6875 36.7188L 87.6875 59.375L 81.9062 59.375L 81.9062 37.0625C 81.9062 34.6458 81.3542 32.8438 80.25 31.6562C 79.1458 30.4479 77.2917 29.8438 74.6875 29.8438C 72.5417 29.8438 70.7604 30.4896 69.3438 31.7812C 67.9271 33.0521 67.1042 34.7708 66.875 36.9375L 66.875 59.375L 61.0625 59.375L 61.0625 37.2188C 61.0625 32.3021 58.6562 29.8438 53.8438 29.8438C 50.0521 29.8438 47.4583 31.4583 46.0625 34.6875L 46.0625 59.375L 40.2812 59.375L 40.2812 25.5625L 45.75 25.5625ZM 110.469 60C 105.885 60 102.156 58.5 99.2812 55.5C 96.4062 52.4792 94.9688 48.4479 94.9688 43.4062L 94.9688 42.3438C 94.9688 38.9896 95.6042 36 96.875 33.375C 98.1667 30.7292 99.9583 28.6667 102.25 27.1875C 104.562 25.6875 107.062 24.9375 109.75 24.9375C 114.146 24.9375 117.562 26.3854 120 29.2812C 122.438 32.1771 123.656 36.3229 123.656 41.7188L 123.656 44.125L 100.75 44.125C 100.833 47.4583 101.802 50.1562 103.656 52.2188C 105.531 54.2604 107.906 55.2812 110.781 55.2812C 112.823 55.2812 114.552 54.8646 115.969 54.0312C 117.385 53.1979 118.625 52.0938 119.688 50.7188L 123.219 53.4688C 120.385 57.8229 116.135 60 110.469 60ZM 109.75 29.6875C 107.417 29.6875 105.458 30.5417 103.875 32.25C 102.292 33.9375 101.312 36.3125 100.938 39.375L 117.875 39.375L 117.875 38.9375C 117.708 36 116.917 33.7292 115.5 32.125C 114.083 30.5 112.167 29.6875 109.75 29.6875ZM 135.812 25.5625L 135.969 29.3125C 138.448 26.3958 141.792 24.9375 146 24.9375C 150.729 24.9375 153.948 26.75 155.656 30.375C 156.781 28.75 158.24 27.4375 160.031 26.4375C 161.844 25.4375 163.979 24.9375 166.438 24.9375C 173.854 24.9375 177.625 28.8646 177.75 36.7188L 177.75 59.375L 171.969 59.375L 171.969 37.0625C 171.969 34.6458 171.417 32.8438 170.312 31.6562C 169.208 30.4479 167.354 29.8438 164.75 29.8438C 162.604 29.8438 160.823 30.4896 159.406 31.7812C 157.99 33.0521 157.167 34.7708 156.938 36.9375L 156.938 59.375L 151.125 59.375L 151.125 37.2188C 151.125 32.3021 148.719 29.8438 143.906 29.8438C 140.115 29.8438 137.521 31.4583 136.125 34.6875L 136.125 59.375L 130.344 59.375L 130.344 25.5625L 135.812 25.5625ZM 210.875 64.0938L 182.25 64.0938L 182.25 59.375L 210.875 59.375L 210.875 64.0938ZM 231.719 30.75C 230.844 30.6042 229.896 30.5312 228.875 30.5312C 225.083 30.5312 222.51 32.1458 221.156 35.375L 221.156 59.375L 215.375 59.375L 215.375 25.5625L 221 25.5625L 221.094 29.4688C 222.99 26.4479 225.677 24.9375 229.156 24.9375C 230.281 24.9375 231.135 25.0833 231.719 25.375L 231.719 30.75ZM 250.531 60C 245.948 60 242.219 58.5 239.344 55.5C 236.469 52.4792 235.031 48.4479 235.031 43.4062L 235.031 42.3438C 235.031 38.9896 235.667 36 236.938 33.375C 238.229 30.7292 240.021 28.6667 242.312 27.1875C 244.625 25.6875 247.125 24.9375 249.812 24.9375C 254.208 24.9375 257.625 26.3854 260.062 29.2812C 262.5 32.1771 263.719 36.3229 263.719 41.7188L 263.719 44.125L 240.812 44.125C 240.896 47.4583 241.865 50.1562 243.719 52.2188C 245.594 54.2604 247.969 55.2812 250.844 55.2812C 252.885 55.2812 254.615 54.8646 256.031 54.0312C 257.448 53.1979 258.688 52.0938 259.75 50.7188L 263.281 53.4688C 260.448 57.8229 256.198 60 250.531 60ZM 249.812 29.6875C 247.479 29.6875 245.521 30.5417 243.938 32.25C 242.354 33.9375 241.375 36.3125 241 39.375L 257.938 39.375L 257.938 38.9375C 257.771 36 256.979 33.7292 255.562 32.125C 254.146 30.5 252.229 29.6875 249.812 29.6875ZM 290.125 50.4062C 290.125 48.8438 289.531 47.6354 288.344 46.7812C 287.177 45.9062 285.125 45.1562 282.188 44.5312C 279.271 43.9062 276.948 43.1562 275.219 42.2812C 273.51 41.4062 272.24 40.3646 271.406 39.1562C 270.594 37.9479 270.188 36.5104 270.188 34.8438C 270.188 32.0729 271.354 29.7292 273.688 27.8125C 276.042 25.8958 279.042 24.9375 282.688 24.9375C 286.521 24.9375 289.625 25.9271 292 27.9062C 294.396 29.8854 295.594 32.4167 295.594 35.5L 289.781 35.5C 289.781 33.9167 289.104 32.5521 287.75 31.4062C 286.417 30.2604 284.729 29.6875 282.688 29.6875C 280.583 29.6875 278.938 30.1458 277.75 31.0625C 276.562 31.9792 275.969 33.1771 275.969 34.6562C 275.969 36.0521 276.521 37.1042 277.625 37.8125C 278.729 38.5208 280.719 39.1979 283.594 39.8438C 286.49 40.4896 288.833 41.2604 290.625 42.1562C 292.417 43.0521 293.74 44.1354 294.594 45.4062C 295.469 46.6562 295.906 48.1875 295.906 50C 295.906 53.0208 294.698 55.4479 292.281 57.2812C 289.865 59.0938 286.729 60 282.875 60C 280.167 60 277.771 59.5208 275.688 58.5625C 273.604 57.6042 271.969 56.2708 270.781 54.5625C 269.615 52.8333 269.031 50.9688 269.031 48.9688L 274.812 48.9688C 274.917 50.9062 275.688 52.4479 277.125 53.5938C 278.583 54.7188 280.5 55.2812 282.875 55.2812C 285.062 55.2812 286.812 54.8438 288.125 53.9688C 289.458 53.0729 290.125 51.8854 290.125 50.4062ZM 332 42.8438C 332 47.9896 330.823 52.1354 328.469 55.2812C 326.115 58.4271 322.927 60 318.906 60C 314.802 60 311.573 58.6979 309.219 56.0938L 309.219 72.375L 303.438 72.375L 303.438 25.5625L 308.719 25.5625L 309 29.3125C 311.354 26.3958 314.625 24.9375 318.812 24.9375C 322.875 24.9375 326.083 26.4688 328.438 29.5312C 330.812 32.5938 332 36.8542 332 42.3125L 332 42.8438ZM 326.219 42.1875C 326.219 38.375 325.406 35.3646 323.781 33.1562C 322.156 30.9479 319.927 29.8438 317.094 29.8438C 313.594 29.8438 310.969 31.3958 309.219 34.5L 309.219 50.6562C 310.948 53.7396 313.594 55.2812 317.156 55.2812C 319.927 55.2812 322.125 54.1875 323.75 52C 325.396 49.7917 326.219 46.5208 326.219 42.1875ZM 381.688 33.9375L 355.625 33.9375L 355.625 28.9062L 381.688 28.9062L 381.688 33.9375ZM 381.688 46.9062L 355.625 46.9062L 355.625 41.9062L 381.688 41.9062L 381.688 46.9062ZM 416.812 33.9375L 390.75 33.9375L 390.75 28.9062L 416.812 28.9062L 416.812 33.9375ZM 416.812 46.9062L 390.75 46.9062L 390.75 41.9062L 416.812 41.9062L 416.812 46.9062ZM 459.781 59.375L 453.969 59.375L 453.969 20.8438L 442.312 25.125L 442.312 19.875L 458.875 13.6562L 459.781 13.6562L 459.781 59.375Z"/>
<path id="path20_stroke" d="M -4.54249 82.7114L -6.63194 87.2539L 2.45303 91.4328L 4.54249 86.8904L -4.54249 82.7114ZM 3.03203 329.897L -0.943738 326.865L -7.00781 334.817L -3.03203 337.849L 3.03203 329.897ZM 0 84.8009C 4.54249 86.8904 4.54136 86.8928 4.54039 86.8949C 4.54026 86.8952 4.53943 86.897 4.53917 86.8975C 4.53884 86.8983 4.53872 86.8985 4.53939 86.8971C 4.54245 86.8905 4.5444 86.8863 4.5505 86.8734C 4.56619 86.8402 4.58432 86.802 4.61588 86.7369C 4.68612 86.5918 4.78039 86.4003 4.92308 86.1208C 5.22351 85.5317 5.65257 84.7188 6.27397 83.6252C 7.55007 81.3755 9.43799 78.279 12.1656 74.4482C 17.7014 66.6558 26.1337 56.5489 38.6506 46.2586C 63.5161 25.7616 104.089 5 166.742 5L 166.742 -5C 101.66 -5 58.8615 16.6389 32.2899 38.5423C 19.0883 49.4523 9.78537 60.5455 4.01573 68.6534C 1.0906 72.7726 -1.06681 76.3011 -2.42287 78.6891C -3.11754 79.9142 -3.65125 80.9232 -3.98459 81.5762C -4.15877 81.9179 -4.29912 82.2026 -4.38429 82.3784C -4.43044 82.4737 -4.4702 82.5572 -4.49299 82.6055C -4.50612 82.6333 -4.51854 82.6599 -4.52506 82.6738C -4.52918 82.6827 -4.53355 82.6921 -4.5356 82.6965C -4.53705 82.6997 -4.53877 82.7034 -4.5395 82.705C -4.54107 82.7084 -4.54249 82.7114 0 84.8009ZM 166.742 5C 228.633 5 266.144 34.4116 288.448 72.7216C 311.145 111.526 318.008 159.045 317.994 195.224L 327.994 195.224C 327.981 158.32 320.585 108.227 297.09 67.6902C 273.201 26.6588 232.585 -5 166.742 -5L 166.742 5ZM 317.994 195.224C 317.994 230.574 302.489 278.406 275.467 317.395C 248.422 356.418 210.681 385.449 166.742 385.449L 166.742 395.449C 215.359 395.449 255.744 363.409 283.686 323.091C 311.652 282.739 327.994 232.958 327.994 195.224L 317.994 195.224ZM 166.742 385.449C 121.278 385.515 80.6469 371.667 50.7876 357.635C 35.9256 350.661 24.0301 343.741 15.7069 338.485C 11.5751 335.877 8.41472 333.734 6.23634 332.208C 5.16085 331.455 4.36161 330.879 3.80952 330.474C 3.54 330.277 3.34607 330.133 3.20944 330.031C 3.14432 329.982 3.10007 329.949 3.06726 329.924C 3.05243 329.913 3.04365 329.906 3.0362 329.901C 3.03325 329.898 3.03222 329.898 3.03074 329.896C 3.03039 329.896 3.03072 329.896 3.03054 329.896C 3.03115 329.897 3.03203 329.897 0 333.873C -3.03203 337.849 -3.03058 337.85 -3.02885 337.851C -3.02789 337.852 -3.02587 337.854 -3.02396 337.855C -3.02091 337.857 -3.01517 337.862 -3.00908 337.866C -2.99847 337.874 -2.98019 337.888 -2.95901 337.904C -2.91981 337.934 -2.85624 337.982 -2.77817 338.04C -2.62842 338.152 -2.39449 338.326 -2.09806 338.543C -1.51827 338.967 -0.633292 339.606 0.500481 340.4C 2.74065 341.968 6.0991 344.245 10.3684 346.941C 18.8472 352.293 31.2828 359.517 46.5366 366.687C 76.909 380.942 119.649 395.382 166.742 395.449L 166.742 385.449Z"/>
<path id="path21_stroke" d="M -1.33826 1.1824L -6.15585 2.52061L -3.47943 12.1558L 1.33816 10.8176L -1.33826 1.1824ZM 10.8 2.99999L 12.1382 7.81758L 29.4816 2.99999L 12.1382 -1.8176L 10.8 2.99999ZM 1.33816 -4.8176L -3.47943 -6.15582L -6.15585 3.47936L -1.33826 4.81758L 1.33816 -4.8176ZM 1.33816 10.8176L 12.1382 7.81758L 9.46179 -1.8176L -1.33826 1.1824L 1.33816 10.8176ZM 12.1382 -1.8176L 1.33816 -4.8176L -1.33826 4.81758L 9.46179 7.81758L 12.1382 -1.8176Z"/>
<path id="path22_fill" d="M 32.9375 42.8438C 32.9375 47.9896 31.7604 52.1354 29.4062 55.2812C 27.0521 58.4271 23.8646 60 19.8438 60C 15.7396 60 12.5104 58.6979 10.1562 56.0938L 10.1562 72.375L 4.375 72.375L 4.375 25.5625L 9.65625 25.5625L 9.9375 29.3125C 12.2917 26.3958 15.5625 24.9375 19.75 24.9375C 23.8125 24.9375 27.0208 26.4688 29.375 29.5312C 31.75 32.5938 32.9375 36.8542 32.9375 42.3125L 32.9375 42.8438ZM 27.1562 42.1875C 27.1562 38.375 26.3438 35.3646 24.7188 33.1562C 23.0938 30.9479 20.8646 29.8438 18.0312 29.8438C 14.5312 29.8438 11.9062 31.3958 10.1562 34.5L 10.1562 50.6562C 11.8854 53.7396 14.5312 55.2812 18.0938 55.2812C 20.8646 55.2812 23.0625 54.1875 24.6875 52C 26.3333 49.7917 27.1562 46.5208 27.1562 42.1875ZM 45.75 25.5625L 45.9062 29.3125C 48.3854 26.3958 51.7292 24.9375 55.9375 24.9375C 60.6667 24.9375 63.8854 26.75 65.5938 30.375C 66.7188 28.75 68.1771 27.4375 69.9688 26.4375C 71.7812 25.4375 73.9167 24.9375 76.375 24.9375C 83.7917 24.9375 87.5625 28.8646 87.6875 36.7188L 87.6875 59.375L 81.9062 59.375L 81.9062 37.0625C 81.9062 34.6458 81.3542 32.8438 80.25 31.6562C 79.1458 30.4479 77.2917 29.8438 74.6875 29.8438C 72.5417 29.8438 70.7604 30.4896 69.3438 31.7812C 67.9271 33.0521 67.1042 34.7708 66.875 36.9375L 66.875 59.375L 61.0625 59.375L 61.0625 37.2188C 61.0625 32.3021 58.6562 29.8438 53.8438 29.8438C 50.0521 29.8438 47.4583 31.4583 46.0625 34.6875L 46.0625 59.375L 40.2812 59.375L 40.2812 25.5625L 45.75 25.5625ZM 110.469 60C 105.885 60 102.156 58.5 99.2812 55.5C 96.4062 52.4792 94.9688 48.4479 94.9688 43.4062L 94.9688 42.3438C 94.9688 38.9896 95.6042 36 96.875 33.375C 98.1667 30.7292 99.9583 28.6667 102.25 27.1875C 104.562 25.6875 107.062 24.9375 109.75 24.9375C 114.146 24.9375 117.562 26.3854 120 29.2812C 122.438 32.1771 123.656 36.3229 123.656 41.7188L 123.656 44.125L 100.75 44.125C 100.833 47.4583 101.802 50.1562 103.656 52.2188C 105.531 54.2604 107.906 55.2812 110.781 55.2812C 112.823 55.2812 114.552 54.8646 115.969 54.0312C 117.385 53.1979 118.625 52.0938 119.688 50.7188L 123.219 53.4688C 120.385 57.8229 116.135 60 110.469 60ZM 109.75 29.6875C 107.417 29.6875 105.458 30.5417 103.875 32.25C 102.292 33.9375 101.312 36.3125 100.938 39.375L 117.875 39.375L 117.875 38.9375C 117.708 36 116.917 33.7292 115.5 32.125C 114.083 30.5 112.167 29.6875 109.75 29.6875ZM 135.812 25.5625L 135.969 29.3125C 138.448 26.3958 141.792 24.9375 146 24.9375C 150.729 24.9375 153.948 26.75 155.656 30.375C 156.781 28.75 158.24 27.4375 160.031 26.4375C 161.844 25.4375 163.979 24.9375 166.438 24.9375C 173.854 24.9375 177.625 28.8646 177.75 36.7188L 177.75 59.375L 171.969 59.375L 171.969 37.0625C 171.969 34.6458 171.417 32.8438 170.312 31.6562C 169.208 30.4479 167.354 29.8438 164.75 29.8438C 162.604 29.8438 160.823 30.4896 159.406 31.7812C 157.99 33.0521 157.167 34.7708 156.938 36.9375L 156.938 59.375L 151.125 59.375L 151.125 37.2188C 151.125 32.3021 148.719 29.8438 143.906 29.8438C 140.115 29.8438 137.521 31.4583 136.125 34.6875L 136.125 59.375L 130.344 59.375L 130.344 25.5625L 135.812 25.5625ZM 210.875 64.0938L 182.25 64.0938L 182.25 59.375L 210.875 59.375L 210.875 64.0938ZM 231.719 30.75C 230.844 30.6042 229.896 30.5312 228.875 30.5312C 225.083 30.5312 222.51 32.1458 221.156 35.375L 221.156 59.375L 215.375 59.375L 215.375 25.5625L 221 25.5625L 221.094 29.4688C 222.99 26.4479 225.677 24.9375 229.156 24.9375C 230.281 24.9375 231.135 25.0833 231.719 25.375L 231.719 30.75ZM 250.531 60C 245.948 60 242.219 58.5 239.344 55.5C 236.469 52.4792 235.031 48.4479 235.031 43.4062L 235.031 42.3438C 235.031 38.9896 235.667 36 236.938 33.375C 238.229 30.7292 240.021 28.6667 242.312 27.1875C 244.625 25.6875 247.125 24.9375 249.812 24.9375C 254.208 24.9375 257.625 26.3854 260.062 29.2812C 262.5 32.1771 263.719 36.3229 263.719 41.7188L 263.719 44.125L 240.812 44.125C 240.896 47.4583 241.865 50.1562 243.719 52.2188C 245.594 54.2604 247.969 55.2812 250.844 55.2812C 252.885 55.2812 254.615 54.8646 256.031 54.0312C 257.448 53.1979 258.688 52.0938 259.75 50.7188L 263.281 53.4688C 260.448 57.8229 256.198 60 250.531 60ZM 249.812 29.6875C 247.479 29.6875 245.521 30.5417 243.938 32.25C 242.354 33.9375 241.375 36.3125 241 39.375L 257.938 39.375L 257.938 38.9375C 257.771 36 256.979 33.7292 255.562 32.125C 254.146 30.5 252.229 29.6875 249.812 29.6875ZM 290.125 50.4062C 290.125 48.8438 289.531 47.6354 288.344 46.7812C 287.177 45.9062 285.125 45.1562 282.188 44.5312C 279.271 43.9062 276.948 43.1562 275.219 42.2812C 273.51 41.4062 272.24 40.3646 271.406 39.1562C 270.594 37.9479 270.188 36.5104 270.188 34.8438C 270.188 32.0729 271.354 29.7292 273.688 27.8125C 276.042 25.8958 279.042 24.9375 282.688 24.9375C 286.521 24.9375 289.625 25.9271 292 27.9062C 294.396 29.8854 295.594 32.4167 295.594 35.5L 289.781 35.5C 289.781 33.9167 289.104 32.5521 287.75 31.4062C 286.417 30.2604 284.729 29.6875 282.688 29.6875C 280.583 29.6875 278.938 30.1458 277.75 31.0625C 276.562 31.9792 275.969 33.1771 275.969 34.6562C 275.969 36.0521 276.521 37.1042 277.625 37.8125C 278.729 38.5208 280.719 39.1979 283.594 39.8438C 286.49 40.4896 288.833 41.2604 290.625 42.1562C 292.417 43.0521 293.74 44.1354 294.594 45.4062C 295.469 46.6562 295.906 48.1875 295.906 50C 295.906 53.0208 294.698 55.4479 292.281 57.2812C 289.865 59.0938 286.729 60 282.875 60C 280.167 60 277.771 59.5208 275.688 58.5625C 273.604 57.6042 271.969 56.2708 270.781 54.5625C 269.615 52.8333 269.031 50.9688 269.031 48.9688L 274.812 48.9688C 274.917 50.9062 275.688 52.4479 277.125 53.5938C 278.583 54.7188 280.5 55.2812 282.875 55.2812C 285.062 55.2812 286.812 54.8438 288.125 53.9688C 289.458 53.0729 290.125 51.8854 290.125 50.4062ZM 332 42.8438C 332 47.9896 330.823 52.1354 328.469 55.2812C 326.115 58.4271 322.927 60 318.906 60C 314.802 60 311.573 58.6979 309.219 56.0938L 309.219 72.375L 303.438 72.375L 303.438 25.5625L 308.719 25.5625L 309 29.3125C 311.354 26.3958 314.625 24.9375 318.812 24.9375C 322.875 24.9375 326.083 26.4688 328.438 29.5312C 330.812 32.5938 332 36.8542 332 42.3125L 332 42.8438ZM 326.219 42.1875C 326.219 38.375 325.406 35.3646 323.781 33.1562C 322.156 30.9479 319.927 29.8438 317.094 29.8438C 313.594 29.8438 310.969 31.3958 309.219 34.5L 309.219 50.6562C 310.948 53.7396 313.594 55.2812 317.156 55.2812C 319.927 55.2812 322.125 54.1875 323.75 52C 325.396 49.7917 326.219 46.5208 326.219 42.1875ZM 381.688 33.9375L 355.625 33.9375L 355.625 28.9062L 381.688 28.9062L 381.688 33.9375ZM 381.688 46.9062L 355.625 46.9062L 355.625 41.9062L 381.688 41.9062L 381.688 46.9062ZM 416.812 33.9375L 390.75 33.9375L 390.75 28.9062L 416.812 28.9062L 416.812 33.9375ZM 416.812 46.9062L 390.75 46.9062L 390.75 41.9062L 416.812 41.9062L 416.812 46.9062ZM 469.312 39.9688C 469.312 46.7396 468.156 51.7708 465.844 55.0625C 463.531 58.3542 459.917 60 455 60C 450.146 60 446.552 58.3958 444.219 55.1875C 441.885 51.9583 440.677 47.1458 440.594 40.75L 440.594 33.0312C 440.594 26.3438 441.75 21.375 444.062 18.125C 446.375 14.875 450 13.25 454.938 13.25C 459.833 13.25 463.438 14.8229 465.75 17.9688C 468.062 21.0938 469.25 25.9271 469.312 32.4688L 469.312 39.9688ZM 463.531 32.0625C 463.531 27.1667 462.844 23.6042 461.469 21.375C 460.094 19.125 457.917 18 454.938 18C 451.979 18 449.823 19.1146 448.469 21.3438C 447.115 23.5729 446.417 27 446.375 31.625L 446.375 40.875C 446.375 45.7917 447.083 49.4271 448.5 51.7812C 449.938 54.1146 452.104 55.2812 455 55.2812C 457.854 55.2812 459.969 54.1771 461.344 51.9688C 462.74 49.7604 463.469 46.2812 463.531 41.5312L 463.531 32.0625Z"/>
<path id="path23_stroke" d="M -4.54244 82.7114L -6.63189 87.2539L 2.45308 91.4328L 4.54254 86.8904L -4.54244 82.7114ZM 3.03209 329.897L -0.943679 326.865L -7.00776 334.817L -3.03199 337.849L 3.03209 329.897ZM 5.10156e-05 84.8009C 4.54254 86.8904 4.54142 86.8928 4.54044 86.8949C 4.54031 86.8952 4.53948 86.897 4.53922 86.8975C 4.53889 86.8983 4.53878 86.8985 4.53945 86.8971C 4.5425 86.8905 4.54445 86.8863 4.55055 86.8734C 4.56624 86.8401 4.58438 86.802 4.61593 86.7369C 4.68617 86.5918 4.78044 86.4003 4.92314 86.1208C 5.22356 85.5317 5.65262 84.7188 6.27402 83.6252C 7.55012 81.3755 9.43804 78.279 12.1656 74.4482C 17.7015 66.6558 26.1337 56.5489 38.6506 46.2586C 63.5161 25.7616 104.089 4.99999 166.742 4.99999L 166.742 -5.00001C 101.66 -5.00001 58.8615 16.6389 32.2899 38.5423C 19.0883 49.4522 9.78542 60.5455 4.01578 68.6534C 1.09064 72.7726 -1.06676 76.3011 -2.42282 78.6891C -3.11749 79.9141 -3.6512 80.9232 -3.98453 81.5762C -4.15872 81.9179 -4.29907 82.2026 -4.38424 82.3783C -4.43039 82.4737 -4.47015 82.5572 -4.49293 82.6055C -4.50607 82.6333 -4.51849 82.6599 -4.52501 82.6738C -4.52913 82.6827 -4.5335 82.6921 -4.53555 82.6965C -4.537 82.6996 -4.53872 82.7034 -4.53944 82.7049C -4.54102 82.7084 -4.54244 82.7114 5.10156e-05 84.8009ZM 166.742 4.99999C 228.633 4.99999 266.144 34.4116 288.448 72.7216C 311.145 111.526 318.007 159.045 317.994 195.224L 327.994 195.224C 327.981 158.32 320.585 108.227 297.09 67.6901C 273.201 26.6588 232.585 -5.00001 166.742 -5.00001L 166.742 4.99999ZM 317.994 195.224C 317.994 230.574 302.489 278.406 275.467 317.395C 248.422 356.418 210.681 385.449 166.742 385.449L 166.742 395.449C 215.359 395.449 255.744 363.409 283.686 323.091C 311.652 282.739 327.994 232.958 327.994 195.224L 317.994 195.224ZM 166.742 385.449C 121.278 385.516 80.6469 371.667 50.7877 357.635C 35.9256 350.661 24.0302 343.741 15.7069 338.485C 11.5751 335.877 8.41478 333.734 6.2364 332.208C 5.1609 331.456 4.36167 330.879 3.80957 330.474C 3.54006 330.277 3.34612 330.133 3.2095 330.031C 3.14437 329.982 3.10013 329.949 3.06731 329.924C 3.05248 329.913 3.0437 329.906 3.03625 329.901C 3.03331 329.898 3.03227 329.898 3.0308 329.896C 3.03045 329.896 3.03077 329.896 3.0306 329.896C 3.0312 329.897 3.03209 329.897 5.10156e-05 333.873C -3.03199 337.849 -3.03054 337.85 -3.0288 337.851C -3.02784 337.852 -3.02582 337.854 -3.02391 337.855C -3.02087 337.857 -3.01512 337.862 -3.00903 337.866C -2.99843 337.874 -2.98015 337.888 -2.95897 337.904C -2.91976 337.934 -2.85619 337.982 -2.77812 338.04C -2.62837 338.152 -2.39444 338.326 -2.09801 338.543C -1.51822 338.967 -0.633246 339.606 0.500528 340.4C 2.74069 341.968 6.09915 344.245 10.3684 346.941C 18.8472 352.293 31.2828 359.517 46.5366 366.687C 76.909 380.943 119.649 395.382 166.742 395.449L 166.742 385.449Z"/>
<path id="path24_fill" d="M 11.7188 59.375L 5.71875 59.375L 5.71875 13.875L 11.7188 13.875L 11.7188 59.375ZM 20.4062 42.1875C 20.4062 37 21.6354 32.8333 24.0938 29.6875C 26.5521 26.5208 29.7708 24.9375 33.75 24.9375C 37.7083 24.9375 40.8438 26.2917 43.1562 29L 43.1562 11.375L 48.9375 11.375L 48.9375 59.375L 43.625 59.375L 43.3438 55.75C 41.0312 58.5833 37.8125 60 33.6875 60C 29.7708 60 26.5729 58.3958 24.0938 55.1875C 21.6354 51.9792 20.4062 47.7917 20.4062 42.625L 20.4062 42.1875ZM 26.1875 42.8438C 26.1875 46.6771 26.9792 49.6771 28.5625 51.8438C 30.1458 54.0104 32.3333 55.0938 35.125 55.0938C 38.7917 55.0938 41.4688 53.4479 43.1562 50.1562L 43.1562 34.625C 41.4271 31.4375 38.7708 29.8438 35.1875 29.8438C 32.3542 29.8438 30.1458 30.9375 28.5625 33.125C 26.9792 35.3125 26.1875 38.5521 26.1875 42.8438ZM 64.2188 59.375L 58.4375 59.375L 58.4375 11.375L 64.2188 11.375L 64.2188 59.375ZM 87.5312 60C 82.9479 60 79.2188 58.5 76.3438 55.5C 73.4688 52.4792 72.0312 48.4479 72.0312 43.4062L 72.0312 42.3438C 72.0312 38.9896 72.6667 36 73.9375 33.375C 75.2292 30.7292 77.0208 28.6667 79.3125 27.1875C 81.625 25.6875 84.125 24.9375 86.8125 24.9375C 91.2083 24.9375 94.625 26.3854 97.0625 29.2812C 99.5 32.1771 100.719 36.3229 100.719 41.7188L 100.719 44.125L 77.8125 44.125C 77.8958 47.4583 78.8646 50.1562 80.7188 52.2188C 82.5938 54.2604 84.9688 55.2812 87.8438 55.2812C 89.8854 55.2812 91.6146 54.8646 93.0312 54.0312C 94.4479 53.1979 95.6875 52.0938 96.75 50.7188L 100.281 53.4688C 97.4479 57.8229 93.1979 60 87.5312 60ZM 86.8125 29.6875C 84.4792 29.6875 82.5208 30.5417 80.9375 32.25C 79.3542 33.9375 78.375 36.3125 78 39.375L 94.9375 39.375L 94.9375 38.9375C 94.7708 36 93.9792 33.7292 92.5625 32.125C 91.1458 30.5 89.2292 29.6875 86.8125 29.6875Z"/>
<path id="path25_fill" d="M 9.8125 25.5625L 9.96875 29.3125C 12.4479 26.3958 15.7917 24.9375 20 24.9375C 24.7292 24.9375 27.9479 26.75 29.6562 30.375C 30.7812 28.75 32.2396 27.4375 34.0312 26.4375C 35.8438 25.4375 37.9792 24.9375 40.4375 24.9375C 47.8542 24.9375 51.625 28.8646 51.75 36.7188L 51.75 59.375L 45.9688 59.375L 45.9688 37.0625C 45.9688 34.6458 45.4167 32.8438 44.3125 31.6562C 43.2083 30.4479 41.3542 29.8438 38.75 29.8438C 36.6042 29.8438 34.8229 30.4896 33.4062 31.7812C 31.9896 33.0521 31.1667 34.7708 30.9375 36.9375L 30.9375 59.375L 25.125 59.375L 25.125 37.2188C 25.125 32.3021 22.7188 29.8438 17.9062 29.8438C 14.1146 29.8438 11.5208 31.4583 10.125 34.6875L 10.125 59.375L 4.34375 59.375L 4.34375 25.5625L 9.8125 25.5625ZM 74.5312 60C 69.9479 60 66.2188 58.5 63.3438 55.5C 60.4688 52.4792 59.0312 48.4479 59.0312 43.4062L 59.0312 42.3438C 59.0312 38.9896 59.6667 36 60.9375 33.375C 62.2292 30.7292 64.0208 28.6667 66.3125 27.1875C 68.625 25.6875 71.125 24.9375 73.8125 24.9375C 78.2083 24.9375 81.625 26.3854 84.0625 29.2812C 86.5 32.1771 87.7188 36.3229 87.7188 41.7188L 87.7188 44.125L 64.8125 44.125C 64.8958 47.4583 65.8646 50.1562 67.7188 52.2188C 69.5938 54.2604 71.9688 55.2812 74.8438 55.2812C 76.8854 55.2812 78.6146 54.8646 80.0312 54.0312C 81.4479 53.1979 82.6875 52.0938 83.75 50.7188L 87.2812 53.4688C 84.4479 57.8229 80.1979 60 74.5312 60ZM 73.8125 29.6875C 71.4792 29.6875 69.5208 30.5417 67.9375 32.25C 66.3542 33.9375 65.375 36.3125 65 39.375L 81.9375 39.375L 81.9375 38.9375C 81.7708 36 80.9792 33.7292 79.5625 32.125C 78.1458 30.5 76.2292 29.6875 73.8125 29.6875ZM 99.875 25.5625L 100.031 29.3125C 102.51 26.3958 105.854 24.9375 110.062 24.9375C 114.792 24.9375 118.01 26.75 119.719 30.375C 120.844 28.75 122.302 27.4375 124.094 26.4375C 125.906 25.4375 128.042 24.9375 130.5 24.9375C 137.917 24.9375 141.688 28.8646 141.812 36.7188L 141.812 59.375L 136.031 59.375L 136.031 37.0625C 136.031 34.6458 135.479 32.8438 134.375 31.6562C 133.271 30.4479 131.417 29.8438 128.812 29.8438C 126.667 29.8438 124.885 30.4896 123.469 31.7812C 122.052 33.0521 121.229 34.7708 121 36.9375L 121 59.375L 115.188 59.375L 115.188 37.2188C 115.188 32.3021 112.781 29.8438 107.969 29.8438C 104.177 29.8438 101.583 31.4583 100.188 34.6875L 100.188 59.375L 94.4062 59.375L 94.4062 25.5625L 99.875 25.5625ZM 174.938 64.0938L 146.312 64.0938L 146.312 59.375L 174.938 59.375L 174.938 64.0938ZM 195.781 30.75C 194.906 30.6042 193.958 30.5312 192.938 30.5312C 189.146 30.5312 186.573 32.1458 185.219 35.375L 185.219 59.375L 179.438 59.375L 179.438 25.5625L 185.062 25.5625L 185.156 29.4688C 187.052 26.4479 189.74 24.9375 193.219 24.9375C 194.344 24.9375 195.198 25.0833 195.781 25.375L 195.781 30.75ZM 214.594 60C 210.01 60 206.281 58.5 203.406 55.5C 200.531 52.4792 199.094 48.4479 199.094 43.4062L 199.094 42.3438C 199.094 38.9896 199.729 36 201 33.375C 202.292 30.7292 204.083 28.6667 206.375 27.1875C 208.688 25.6875 211.188 24.9375 213.875 24.9375C 218.271 24.9375 221.688 26.3854 224.125 29.2812C 226.562 32.1771 227.781 36.3229 227.781 41.7188L 227.781 44.125L 204.875 44.125C 204.958 47.4583 205.927 50.1562 207.781 52.2188C 209.656 54.2604 212.031 55.2812 214.906 55.2812C 216.948 55.2812 218.677 54.8646 220.094 54.0312C 221.51 53.1979 222.75 52.0938 223.812 50.7188L 227.344 53.4688C 224.51 57.8229 220.26 60 214.594 60ZM 213.875 29.6875C 211.542 29.6875 209.583 30.5417 208 32.25C 206.417 33.9375 205.438 36.3125 205.062 39.375L 222 39.375L 222 38.9375C 221.833 36 221.042 33.7292 219.625 32.125C 218.208 30.5 216.292 29.6875 213.875 29.6875ZM 255.375 59.375C 255.042 58.7083 254.771 57.5208 254.562 55.8125C 251.875 58.6042 248.667 60 244.938 60C 241.604 60 238.865 59.0625 236.719 57.1875C 234.594 55.2917 233.531 52.8958 233.531 50C 233.531 46.4792 234.865 43.75 237.531 41.8125C 240.219 39.8542 243.99 38.875 248.844 38.875L 254.469 38.875L 254.469 36.2188C 254.469 34.1979 253.865 32.5938 252.656 31.4062C 251.448 30.1979 249.667 29.5938 247.312 29.5938C 245.25 29.5938 243.521 30.1146 242.125 31.1562C 240.729 32.1979 240.031 33.4583 240.031 34.9375L 234.219 34.9375C 234.219 33.25 234.812 31.625 236 30.0625C 237.208 28.4792 238.833 27.2292 240.875 26.3125C 242.938 25.3958 245.198 24.9375 247.656 24.9375C 251.552 24.9375 254.604 25.9167 256.812 27.875C 259.021 29.8125 260.167 32.4896 260.25 35.9062L 260.25 51.4688C 260.25 54.5729 260.646 57.0417 261.438 58.875L 261.438 59.375L 255.375 59.375ZM 245.781 54.9688C 247.594 54.9688 249.312 54.5 250.938 53.5625C 252.562 52.625 253.74 51.4062 254.469 49.9062L 254.469 42.9688L 249.938 42.9688C 242.854 42.9688 239.312 45.0417 239.312 49.1875C 239.312 51 239.917 52.4167 241.125 53.4375C 242.333 54.4583 243.885 54.9688 245.781 54.9688ZM 267.906 42.1875C 267.906 37 269.135 32.8333 271.594 29.6875C 274.052 26.5208 277.271 24.9375 281.25 24.9375C 285.208 24.9375 288.344 26.2917 290.656 29L 290.656 11.375L 296.438 11.375L 296.438 59.375L 291.125 59.375L 290.844 55.75C 288.531 58.5833 285.312 60 281.188 60C 277.271 60 274.073 58.3958 271.594 55.1875C 269.135 51.9792 267.906 47.7917 267.906 42.625L 267.906 42.1875ZM 273.688 42.8438C 273.688 46.6771 274.479 49.6771 276.062 51.8438C 277.646 54.0104 279.833 55.0938 282.625 55.0938C 286.292 55.0938 288.969 53.4479 290.656 50.1562L 290.656 34.625C 288.927 31.4375 286.271 29.8438 282.688 29.8438C 279.854 29.8438 277.646 30.9375 276.062 33.125C 274.479 35.3125 273.688 38.5521 273.688 42.8438ZM 347.75 33.9375L 321.688 33.9375L 321.688 28.9062L 347.75 28.9062L 347.75 33.9375ZM 347.75 46.9062L 321.688 46.9062L 321.688 41.9062L 347.75 41.9062L 347.75 46.9062ZM 382.875 33.9375L 356.812 33.9375L 356.812 28.9062L 382.875 28.9062L 382.875 33.9375ZM 382.875 46.9062L 356.812 46.9062L 356.812 41.9062L 382.875 41.9062L 382.875 46.9062ZM 425.844 59.375L 420.031 59.375L 420.031 20.8438L 408.375 25.125L 408.375 19.875L 424.938 13.6562L 425.844 13.6562L 425.844 59.375ZM 457.719 42.1562C 457.719 38.8438 458.365 35.8646 459.656 33.2188C 460.969 30.5729 462.781 28.5312 465.094 27.0938C 467.427 25.6562 470.083 24.9375 473.062 24.9375C 477.667 24.9375 481.385 26.5312 484.219 29.7188C 487.073 32.9062 488.5 37.1458 488.5 42.4375L 488.5 42.8438C 488.5 46.1354 487.865 49.0938 486.594 51.7188C 485.344 54.3229 483.542 56.3542 481.188 57.8125C 478.854 59.2708 476.167 60 473.125 60C 468.542 60 464.823 58.4062 461.969 55.2188C 459.135 52.0312 457.719 47.8125 457.719 42.5625L 457.719 42.1562ZM 463.531 42.8438C 463.531 46.5938 464.396 49.6042 466.125 51.875C 467.875 54.1458 470.208 55.2812 473.125 55.2812C 476.062 55.2812 478.396 54.1354 480.125 51.8438C 481.854 49.5312 482.719 46.3021 482.719 42.1562C 482.719 38.4479 481.833 35.4479 480.062 33.1562C 478.312 30.8438 475.979 29.6875 473.062 29.6875C 470.208 29.6875 467.906 30.8229 466.156 33.0938C 464.406 35.3646 463.531 38.6146 463.531 42.8438ZM 512.094 30.75C 511.219 30.6042 510.271 30.5312 509.25 30.5312C 505.458 30.5312 502.885 32.1458 501.531 35.375L 501.531 59.375L 495.75 59.375L 495.75 25.5625L 501.375 25.5625L 501.469 29.4688C 503.365 26.4479 506.052 24.9375 509.531 24.9375C 510.656 24.9375 511.51 25.0833 512.094 25.375L 512.094 30.75ZM 9.8125 100.562L 9.96875 104.312C 12.4479 101.396 15.7917 99.9375 20 99.9375C 24.7292 99.9375 27.9479 101.75 29.6562 105.375C 30.7812 103.75 32.2396 102.438 34.0312 101.438C 35.8438 100.438 37.9792 99.9375 40.4375 99.9375C 47.8542 99.9375 51.625 103.865 51.75 111.719L 51.75 134.375L 45.9688 134.375L 45.9688 112.062C 45.9688 109.646 45.4167 107.844 44.3125 106.656C 43.2083 105.448 41.3542 104.844 38.75 104.844C 36.6042 104.844 34.8229 105.49 33.4062 106.781C 31.9896 108.052 31.1667 109.771 30.9375 111.938L 30.9375 134.375L 25.125 134.375L 25.125 112.219C 25.125 107.302 22.7188 104.844 17.9062 104.844C 14.1146 104.844 11.5208 106.458 10.125 109.688L 10.125 134.375L 4.34375 134.375L 4.34375 100.562L 9.8125 100.562ZM 74.5312 135C 69.9479 135 66.2188 133.5 63.3438 130.5C 60.4688 127.479 59.0312 123.448 59.0312 118.406L 59.0312 117.344C 59.0312 113.99 59.6667 111 60.9375 108.375C 62.2292 105.729 64.0208 103.667 66.3125 102.188C 68.625 100.688 71.125 99.9375 73.8125 99.9375C 78.2083 99.9375 81.625 101.385 84.0625 104.281C 86.5 107.177 87.7188 111.323 87.7188 116.719L 87.7188 119.125L 64.8125 119.125C 64.8958 122.458 65.8646 125.156 67.7188 127.219C 69.5938 129.26 71.9688 130.281 74.8438 130.281C 76.8854 130.281 78.6146 129.865 80.0312 129.031C 81.4479 128.198 82.6875 127.094 83.75 125.719L 87.2812 128.469C 84.4479 132.823 80.1979 135 74.5312 135ZM 73.8125 104.688C 71.4792 104.688 69.5208 105.542 67.9375 107.25C 66.3542 108.938 65.375 111.312 65 114.375L 81.9375 114.375L 81.9375 113.938C 81.7708 111 80.9792 108.729 79.5625 107.125C 78.1458 105.5 76.2292 104.688 73.8125 104.688ZM 99.875 100.562L 100.031 104.312C 102.51 101.396 105.854 99.9375 110.062 99.9375C 114.792 99.9375 118.01 101.75 119.719 105.375C 120.844 103.75 122.302 102.438 124.094 101.438C 125.906 100.438 128.042 99.9375 130.5 99.9375C 137.917 99.9375 141.688 103.865 141.812 111.719L 141.812 134.375L 136.031 134.375L 136.031 112.062C 136.031 109.646 135.479 107.844 134.375 106.656C 133.271 105.448 131.417 104.844 128.812 104.844C 126.667 104.844 124.885 105.49 123.469 106.781C 122.052 108.052 121.229 109.771 121 111.938L 121 134.375L 115.188 134.375L 115.188 112.219C 115.188 107.302 112.781 104.844 107.969 104.844C 104.177 104.844 101.583 106.458 100.188 109.688L 100.188 134.375L 94.4062 134.375L 94.4062 100.562L 99.875 100.562ZM 174.938 139.094L 146.312 139.094L 146.312 134.375L 174.938 134.375L 174.938 139.094ZM 209.375 126.406L 215.875 100.562L 221.656 100.562L 211.812 134.375L 207.125 134.375L 198.906 108.75L 190.906 134.375L 186.219 134.375L 176.406 100.562L 182.156 100.562L 188.812 125.875L 196.688 100.562L 201.344 100.562L 209.375 126.406ZM 243.906 105.75C 243.031 105.604 242.083 105.531 241.062 105.531C 237.271 105.531 234.698 107.146 233.344 110.375L 233.344 134.375L 227.562 134.375L 227.562 100.562L 233.188 100.562L 233.281 104.469C 235.177 101.448 237.865 99.9375 241.344 99.9375C 242.469 99.9375 243.323 100.083 243.906 100.375L 243.906 105.75ZM 255.531 134.375L 249.75 134.375L 249.75 100.562L 255.531 100.562L 255.531 134.375ZM 249.281 91.5938C 249.281 90.6562 249.562 89.8646 250.125 89.2188C 250.708 88.5729 251.562 88.25 252.688 88.25C 253.812 88.25 254.667 88.5729 255.25 89.2188C 255.833 89.8646 256.125 90.6562 256.125 91.5938C 256.125 92.5312 255.833 93.3125 255.25 93.9375C 254.667 94.5625 253.812 94.875 252.688 94.875C 251.562 94.875 250.708 94.5625 250.125 93.9375C 249.562 93.3125 249.281 92.5312 249.281 91.5938ZM 272.656 92.375L 272.656 100.562L 278.969 100.562L 278.969 105.031L 272.656 105.031L 272.656 126C 272.656 127.354 272.938 128.375 273.5 129.062C 274.062 129.729 275.021 130.062 276.375 130.062C 277.042 130.062 277.958 129.938 279.125 129.688L 279.125 134.375C 277.604 134.792 276.125 135 274.688 135C 272.104 135 270.156 134.219 268.844 132.656C 267.531 131.094 266.875 128.875 266.875 126L 266.875 105.031L 260.719 105.031L 260.719 100.562L 266.875 100.562L 266.875 92.375L 272.656 92.375ZM 299.781 135C 295.198 135 291.469 133.5 288.594 130.5C 285.719 127.479 284.281 123.448 284.281 118.406L 284.281 117.344C 284.281 113.99 284.917 111 286.188 108.375C 287.479 105.729 289.271 103.667 291.562 102.188C 293.875 100.688 296.375 99.9375 299.062 99.9375C 303.458 99.9375 306.875 101.385 309.312 104.281C 311.75 107.177 312.969 111.323 312.969 116.719L 312.969 119.125L 290.062 119.125C 290.146 122.458 291.115 125.156 292.969 127.219C 294.844 129.26 297.219 130.281 300.094 130.281C 302.135 130.281 303.865 129.865 305.281 129.031C 306.698 128.198 307.938 127.094 309 125.719L 312.531 128.469C 309.698 132.823 305.448 135 299.781 135ZM 299.062 104.688C 296.729 104.688 294.771 105.542 293.188 107.25C 291.604 108.938 290.625 111.312 290.25 114.375L 307.188 114.375L 307.188 113.938C 307.021 111 306.229 108.729 304.812 107.125C 303.396 105.5 301.479 104.688 299.062 104.688ZM 362 108.938L 335.938 108.938L 335.938 103.906L 362 103.906L 362 108.938ZM 362 121.906L 335.938 121.906L 335.938 116.906L 362 116.906L 362 121.906ZM 397.125 108.938L 371.062 108.938L 371.062 103.906L 397.125 103.906L 397.125 108.938ZM 397.125 121.906L 371.062 121.906L 371.062 116.906L 397.125 116.906L 397.125 121.906ZM 440.094 134.375L 434.281 134.375L 434.281 95.8438L 422.625 100.125L 422.625 94.875L 439.188 88.6562L 440.094 88.6562L 440.094 134.375Z"/>
<path id="path26_fill" d="M 10.1562 29.6562C 12.7188 26.5104 16.0521 24.9375 20.1562 24.9375C 27.3021 24.9375 30.9062 28.9688 30.9688 37.0312L 30.9688 59.375L 25.1875 59.375L 25.1875 37C 25.1667 34.5625 24.6042 32.7604 23.5 31.5938C 22.4167 30.4271 20.7188 29.8438 18.4062 29.8438C 16.5312 29.8438 14.8854 30.3438 13.4688 31.3438C 12.0521 32.3438 10.9479 33.6562 10.1562 35.2812L 10.1562 59.375L 4.375 59.375L 4.375 11.375L 10.1562 11.375L 10.1562 29.6562ZM 45.9062 59.375L 40.125 59.375L 40.125 25.5625L 45.9062 25.5625L 45.9062 59.375ZM 39.6562 16.5938C 39.6562 15.6562 39.9375 14.8646 40.5 14.2188C 41.0833 13.5729 41.9375 13.25 43.0625 13.25C 44.1875 13.25 45.0417 13.5729 45.625 14.2188C 46.2083 14.8646 46.5 15.6562 46.5 16.5938C 46.5 17.5312 46.2083 18.3125 45.625 18.9375C 45.0417 19.5625 44.1875 19.875 43.0625 19.875C 41.9375 19.875 41.0833 19.5625 40.5 18.9375C 39.9375 18.3125 39.6562 17.5312 39.6562 16.5938ZM 63.0312 17.375L 63.0312 25.5625L 69.3438 25.5625L 69.3438 30.0312L 63.0312 30.0312L 63.0312 51C 63.0312 52.3542 63.3125 53.375 63.875 54.0625C 64.4375 54.7292 65.3958 55.0625 66.75 55.0625C 67.4167 55.0625 68.3333 54.9375 69.5 54.6875L 69.5 59.375C 67.9792 59.7917 66.5 60 65.0625 60C 62.4792 60 60.5312 59.2188 59.2188 57.6562C 57.9062 56.0938 57.25 53.875 57.25 51L 57.25 30.0312L 51.0938 30.0312L 51.0938 25.5625L 57.25 25.5625L 57.25 17.375L 63.0312 17.375ZM 118.438 33.9375L 92.375 33.9375L 92.375 28.9062L 118.438 28.9062L 118.438 33.9375ZM 118.438 46.9062L 92.375 46.9062L 92.375 41.9062L 118.438 41.9062L 118.438 46.9062ZM 161.406 59.375L 155.594 59.375L 155.594 20.8438L 143.938 25.125L 143.938 19.875L 160.5 13.6562L 161.406 13.6562L 161.406 59.375Z"/>
</defs>
</svg>
